<?xml version="1.0" encoding="UTF-8"?>
<svg id="Layer_1" data-name="Layer 1" xmlns="http://www.w3.org/2000/svg" viewBox="0 0 193.28 284.43">
  <path
    d="M193.04,242.89c0,6.98-4.96,12.64-11.07,12.64h-105.41c-6.12,0-11.07-5.66-11.07-12.64V13.06c0-6.98,4.96-12.64,11.07-12.64h105.41c6.12,0,11.07,5.66,11.07,12.64v229.83Z"
    style="fill: #464646;" />
  <rect x="114.48" y="108.03" width="2.89" height="37.94" style="fill: #ebece7;" />
  <path
    d="M124.1,108.19h3.01l.02,22.54s.18,6.13,1.71,8.47c0,0,1.71-1.62,1.71-8.56v-22.45h3.08v22.09s.62,8.29-4.61,15.59c0,0-4.96-5.59-4.96-15.23s.04-22.45.04-22.45"
    style="fill: #ebece7;" />
  <path
    d="M143.44,130.92v-7.66c0-6.94,1.71-8.56,1.71-8.56,1.53,2.34,1.71,8.47,1.71,8.47v7.75s-3.43,0-3.43,0ZM144.97,108.03c-5.23,7.3-4.6,15.59-4.6,15.59v22.08s3.06,0,3.06,0v-11.9h3.43v11.9h3.02s.04-12.8.04-22.45-4.96-15.22-4.96-15.22"
    style="fill: #ebece7;" />
  <path
    d="M163.55,146.05s-7.75-6.49-7.84-17.75c-.12-14.41,7.84-20.09,7.84-20.09l.9,3.15s-5.86,4.69-5.77,16.76c.07,9.01,5.77,14.68,5.77,14.68l-.9,3.24Z"
    style="fill: #ebece7;" />
  <path
    d="M169.55,109.32l2.94-1.38s-.84,9.85,2.04,16.58c0,0,1.74-8.83,1.32-16.52l2.89,1.5s1.08,18.02-7.51,36.4l-2.34-1.98s2.88-5.89,4.68-13.63c0,0-4.32-6.97-4.02-20.97"
    style="fill: #ebece7;" />
  <path
    d="M100.65,131.82v-17.93c.63.63,3.6,3.78,3.6,9.19s-3.6,8.74-3.6,8.74M108.49,145.77c0-8.56-5.86-11.97-5.86-11.97,0,0,4.6-3.15,4.6-11.08,0-10.45-9.64-14.6-9.64-14.6v37.74h2.97v-9.9c5.23,2.52,4.96,9.81,4.96,9.81h2.97Z"
    style="fill: #ebece7;" />
  <path
    d="M83.8,134.43v-19.68c.63.69,3.6,4.15,3.6,10.09s-3.6,9.59-3.6,9.59M90.38,122.89c-.63-10.45-9.82-14.41-9.82-14.41v37.12h3.07v-6.85s7.39-5.41,6.76-15.86"
    style="fill: #ebece7;" />
  <path
    d="M177.27,144.5h.25c.11,0,.18-.01.24-.04.05-.03.1-.07.13-.12.03-.05.05-.11.05-.17,0-.05-.01-.1-.04-.14-.03-.04-.06-.08-.11-.1-.05-.03-.13-.04-.25-.04h-.27v.6ZM177.27,145.37h-.25v-1.64h.6c.15,0,.26.02.34.05.07.04.13.09.18.16.05.07.07.14.07.22,0,.06-.02.13-.05.19-.03.06-.07.11-.13.16-.05.05-.13.09-.25.13.04.02.07.04.1.06.02.02.05.05.08.09.03.04.06.08.08.11l.31.48h-.3l-.27-.43c-.06-.1-.15-.19-.26-.28h-.26v.71Z"
    style="fill: #ebece7;" />
  <path
    d="M176.16,144.6c0-.8.65-1.45,1.45-1.45s1.46.65,1.46,1.45-.65,1.45-1.46,1.45-1.45-.65-1.45-1.45M176.37,144.6c0,.69.56,1.24,1.24,1.24s1.25-.56,1.25-1.24-.56-1.24-1.25-1.24-1.24.55-1.24,1.24"
    style="fill: #ebece7;" />
  <path
    d="M79.85,151.15h.61v2.23c0,.33.04.54.13.65.09.11.22.19.4.25.18.06.38.09.61.09s.41-.03.57-.09c.17-.06.29-.15.37-.27.08-.13.12-.39.12-.79v-2.07h.56v2.18c0,.41-.06.69-.19.85-.12.17-.31.3-.54.39-.24.1-.53.14-.89.14-.33,0-.64-.04-.91-.11-.28-.08-.48-.19-.62-.35-.14-.16-.2-.43-.2-.82v-2.29Z"
    style="fill: #ebece7;" />
  <polygon
    points="94.23 151.15 94.23 153.61 94.24 153.89 94.05 153.61 91.91 151.15 91.31 151.15 91.31 154.61 91.87 154.61 91.87 152.14 91.86 151.86 92.06 152.14 94.2 154.61 94.79 154.61 94.79 151.15 94.23 151.15"
    style="fill: #ebece7;" />
  <path
    d="M103.58,154.23h.71c.43,0,.75-.05.97-.14.22-.09.39-.24.5-.44.12-.2.17-.45.17-.75s-.05-.56-.16-.78c-.11-.21-.26-.38-.48-.48-.21-.1-.55-.15-1.01-.15h-.7v2.74ZM102.97,154.61v-3.46h1.29c.63,0,1.09.06,1.38.19.29.12.52.32.68.58.16.26.25.57.25.95,0,.35-.07.65-.22.91-.15.26-.37.46-.67.61-.3.15-.74.22-1.33.22h-1.38Z"
    style="fill: #ebece7;" />
  <polygon
    points="114.57 151.15 114.57 154.61 117.37 154.61 117.37 154.23 115.18 154.23 115.18 152.97 116.95 152.97 116.95 152.62 115.18 152.62 115.18 151.53 117.21 151.53 117.21 151.15 114.57 151.15"
    style="fill: #ebece7;" />
  <path
    d="M126.01,152.78h.59c.25,0,.44-.03.57-.08.13-.06.23-.14.31-.25.08-.11.11-.23.11-.35,0-.11-.03-.21-.09-.29-.06-.09-.15-.16-.27-.22-.12-.06-.31-.09-.59-.09h-.64v1.28ZM126.01,154.61h-.61v-3.46h1.44c.35,0,.62.04.8.11.18.08.32.18.43.33.1.14.15.3.16.46,0,.14-.04.27-.11.39-.07.12-.17.24-.3.34-.13.1-.32.19-.59.27.1.04.18.08.22.12.05.04.11.1.18.18.07.08.13.16.19.23l.74,1.02h-.69l-.65-.91c-.16-.22-.36-.41-.61-.58h-.61v1.49Z"
    style="fill: #ebece7;" />
  <polygon
    points="141.06 151.15 140.29 153.6 140.19 154.01 140.16 154.01 140.06 153.6 139.23 151.15 138.63 151.15 137.78 153.59 137.67 154.01 137.65 154.01 137.54 153.59 136.8 151.15 136.22 151.15 137.28 154.61 137.9 154.61 138.78 152.13 138.88 151.7 138.91 151.7 139.02 152.13 139.89 154.61 140.5 154.61 141.59 151.15 141.06 151.15"
    style="fill: #ebece7;" />
  <polygon
    points="149.55 151.15 149.55 154.61 152.35 154.61 152.35 154.23 150.16 154.23 150.16 152.97 151.93 152.97 151.93 152.62 150.16 152.62 150.16 151.53 152.19 151.53 152.19 151.15 149.55 151.15"
    style="fill: #ebece7;" />
  <path d="M162.19,151.7l.82,1.61h-1.7l.88-1.61ZM161.95,151.15l-1.91,3.46h.56l.53-.95h2.06l.48.95h.66l-1.76-3.46h-.62Z"
    style="fill: #ebece7;" />
  <path
    d="M172.76,152.78h.59c.25,0,.44-.03.57-.08.14-.06.24-.14.31-.25.08-.11.12-.23.12-.35,0-.11-.03-.21-.09-.29-.06-.09-.15-.16-.27-.22-.11-.06-.31-.09-.59-.09h-.64v1.28ZM172.76,154.61h-.61v-3.46h1.45c.36,0,.62.04.8.11.18.08.32.18.42.33.11.14.16.3.16.46,0,.14-.03.27-.11.39-.07.12-.17.24-.29.34-.13.1-.32.19-.59.27.1.04.18.08.23.12.05.04.11.1.18.18.07.08.14.16.19.23l.74,1.02h-.7l-.65-.91c-.16-.22-.36-.41-.61-.58h-.61v1.49Z"
    style="fill: #ebece7;" />
  <line x1="65.25" y1="223.34" x2="193.28" y2="223.34" style="fill: none; stroke: #5db133; stroke-miterlimit: 2;" />
  <line x1="192.81" y1="278.59" x2="192.81" y2="264.41"
    style="fill: none; stroke: #00a3cc; stroke-miterlimit: 10; stroke-width: .75px;" />
  <line x1="44.69" y1="255.57" x2="30.52" y2="255.57"
    style="fill: none; stroke: #00a3cc; stroke-miterlimit: 10; stroke-width: .75px;" />
  <line x1="44.69" y1=".38" x2="30.52" y2=".38"
    style="fill: none; stroke: #00a3cc; stroke-miterlimit: 10; stroke-width: .75px;" />
  <line x1="66.17" y1="279.71" x2="66.17" y2="265.54"
    style="fill: none; stroke: #00a3cc; stroke-miterlimit: 10; stroke-width: .75px;" />
  <g>
    <path
      d="M2.12,125.6c.62,0,1.12.2,1.52.6s.6.91.6,1.52c0,.56-.21,1.2-.63,1.92l-1.27,2.2h-1.07l1.21-2.1c-.1.05-.25.08-.44.08-.6,0-1.09-.2-1.47-.6s-.57-.9-.57-1.5.2-1.11.6-1.52.91-.6,1.53-.6ZM.94,127.72c0,.34.11.63.33.87s.51.35.85.35.62-.12.84-.35.33-.52.33-.87-.11-.64-.33-.87-.5-.35-.84-.35-.62.12-.85.35-.33.52-.33.87Z"
      style="fill: #00a3cc;" />
    <path
      d="M8.45,131.53c-.35.27-.76.4-1.21.4s-.86-.13-1.21-.4-.62-.64-.82-1.12-.29-1.03-.29-1.64.1-1.16.29-1.64.47-.85.82-1.12.76-.4,1.21-.4.86.13,1.21.4.62.64.82,1.12.29,1.03.29,1.64-.1,1.16-.29,1.64-.47.85-.82,1.12ZM7.24,126.54c-.43,0-.76.2-.98.6s-.33.94-.33,1.62.11,1.22.33,1.63.55.61.98.61.75-.2.97-.61.33-.95.33-1.63-.11-1.22-.33-1.62-.54-.6-.97-.6Z"
      style="fill: #00a3cc;" />
    <path
      d="M16.04,127.89c.34-.39.78-.59,1.32-.59.45,0,.8.15,1.05.44s.39.7.39,1.21v2.89h-1v-2.73c0-.28-.06-.51-.19-.67s-.3-.24-.54-.24c-.19,0-.36.06-.51.17s-.24.28-.28.49v2.98h-1v-2.73c0-.28-.06-.51-.19-.67s-.3-.24-.54-.24c-.19,0-.36.06-.51.17s-.24.28-.28.49v2.98h-1v-4.44h1v.37c.11-.15.26-.26.45-.34s.41-.12.65-.12.46.06.68.17.38.25.5.42Z"
      style="fill: #00a3cc;" />
    <path
      d="M23.26,127.89c.34-.39.78-.59,1.32-.59.45,0,.8.15,1.05.44.26.3.39.7.39,1.21v2.89h-1v-2.73c0-.28-.06-.51-.19-.67s-.3-.24-.54-.24c-.19,0-.36.06-.51.17s-.24.28-.28.49v2.98h-1v-2.73c0-.28-.06-.51-.19-.67s-.3-.24-.54-.24c-.19,0-.36.06-.51.17s-.24.28-.28.49v2.98h-1v-4.44h1v.37c.11-.15.26-.26.45-.34s.41-.12.65-.12.46.06.68.17.38.25.5.42Z"
      style="fill: #00a3cc;" />
  </g>
  <g>
    <path d="M114.13,278.2l-1.82,4h1.48v-1.44h.96v1.44h.91v.86h-.91v1.28h-.96v-1.28h-2.88v-.04l2.2-4.82h1.02Z"
      style="fill: #00a3cc;" />
    <path
      d="M117.86,280.41c.65,0,1.18.18,1.6.54.42.36.63.85.63,1.47,0,.41-.1.77-.3,1.08-.2.31-.47.54-.81.7-.34.16-.73.24-1.17.24-.63,0-1.15-.16-1.57-.49v-1.09c.24.22.48.39.72.51s.51.17.8.17c.4,0,.73-.1.98-.29s.39-.47.39-.83-.13-.62-.39-.83c-.26-.2-.59-.31-.99-.31-.25,0-.46.02-.63.06s-.4.12-.68.22v-3.37h3.34v.92h-2.5v1.35c.12-.04.31-.06.58-.06Z"
      style="fill: #00a3cc;" />
    <path
      d="M124.31,280.39c.34-.39.78-.59,1.32-.59.45,0,.8.15,1.05.44s.39.7.39,1.21v2.89h-1v-2.73c0-.28-.06-.5-.19-.67-.12-.16-.3-.24-.54-.24-.19,0-.36.06-.51.17-.15.12-.24.28-.28.49v2.98h-1v-2.73c0-.28-.06-.5-.19-.67-.12-.16-.3-.24-.54-.24-.19,0-.36.06-.51.17-.15.12-.24.28-.28.49v2.98h-1v-4.44h1v.37c.11-.15.26-.26.45-.34.2-.08.41-.12.65-.12s.46.06.68.17.38.25.5.42Z"
      style="fill: #00a3cc;" />
    <path
      d="M131.52,280.39c.34-.39.78-.59,1.32-.59.45,0,.8.15,1.05.44s.39.7.39,1.21v2.89h-1v-2.73c0-.28-.06-.5-.19-.67-.12-.16-.3-.24-.54-.24-.19,0-.36.06-.51.17-.15.12-.24.28-.28.49v2.98h-1v-2.73c0-.28-.06-.5-.19-.67-.12-.16-.3-.24-.54-.24-.19,0-.36.06-.51.17-.15.12-.24.28-.28.49v2.98h-1v-4.44h1v.37c.11-.15.26-.26.45-.34.2-.08.41-.12.65-.12s.46.06.68.17.38.25.5.42Z"
      style="fill: #00a3cc;" />
  </g>
  <line x1="37.04" y1="1.15" x2="37.04" y2="256.22"
    style="fill: none; stroke: #00a3cc; stroke-miterlimit: 10; stroke-width: .75px;" />
  <line x1="36.48" y1=".5" x2="37.6" y2=".5" style="fill: none; stroke: #00a3cc; stroke-width: .75px;" />
  <line x1="36.48" y1="198.68" x2="37.6" y2="198.68" style="fill: none; stroke: #00a3cc; stroke-width: .75px;" />
  <line x1="66.17" y1="272.06" x2="192.81" y2="272.06"
    style="fill: none; stroke: #00a3cc; stroke-miterlimit: 10; stroke-width: .75px;" />
  <line x1="66.17" y1="271.5" x2="66.17" y2="272.63" style="fill: none; stroke: #00a3cc; stroke-width: .75px;" />
  <path
    d="M193.04,242.93c0,6.98-4.96,12.64-11.07,12.64h-105.41c-6.12,0-11.07-5.66-11.07-12.64V13.09c0-6.98,4.96-12.64,11.07-12.64h105.41c6.12,0,11.07,5.66,11.07,12.64v229.83Z"
    style="fill: none; stroke: #d52f89; stroke-width: .25px;" />
  <path d="M134.22,20.19c0,2.74-2.22,4.96-4.96,4.96s-4.96-2.22-4.96-4.96,2.22-4.96,4.96-4.96,4.96,2.22,4.96,4.96"
    style="fill: #fff;" />
  <path d="M134.22,20.19c0,2.74-2.22,4.96-4.96,4.96s-4.96-2.22-4.96-4.96,2.22-4.96,4.96-4.96,4.96,2.22,4.96,4.96"
    style="fill: none; stroke: #d52f89; stroke-width: .25px;" />
</svg>