<?xml version="1.0" encoding="UTF-8"?>
<svg id="Layer1" xmlns="http://www.w3.org/2000/svg" viewBox="0 0 128.06 236.54">

  <text id="quantity" y="97.8%" x="49.5%" text-anchor="middle"
    style="font-family: Arial-BoldMT, Arial; font-size: 15px; font-weight: 700; isolation: isolate;">
  </text>

  <text id="sub_department" transform="translate(31.94 117.68)"
    style="font-family: Myriad-Roman, Myriad; font-size: 7.5px; isolation: isolate;">
    <tspan x="0" y="0"></tspan>
  </text>
  <text id="department" transform="translate(54.83 117.68)"
    style="font-family: Myriad-Roman, Myriad; font-size: 7.5px; isolation: isolate;">
    <tspan x="0" y="0"></tspan>
  </text>
  <text id="sku_code" transform="translate(73.16 117.68)"
    style="font-family: MyriadPro-Regular, &apos;Myriad Pro&apos;; font-size: 7.5px; isolation: isolate;">
    <tspan x="0" y="0"></tspan>
  </text>

  <text id="sku_code" y="64.8%" x="50.4%" text-anchor="middle"
    style="font-family: MyriadPro-Regular, &apos;Myriad Pro&apos;; font-size: 7.5px; isolation: isolate;">
    <tspan></tspan>
  </text>
  <text id="commercial_ref" y="68.4%" x="50.4%" text-anchor="middle"
    style="font-family: MyriadPro-Regular, &apos;Myriad Pro&apos;; font-size: 7.5px; isolation: isolate;">
    <tspan></tspan>
  </text>

  <g id="Barcode">
    <rect x="32.5" y="118.63" width=".41" height="22.68" />
    <rect x="33.91" y="118.63" width=".41" height="22.68" />
    <rect x="36.73" y="118.63" width="1.12" height="22.68" />
    <rect x="38.85" y="118.63" width=".41" height="22.68" />
    <rect x="40.26" y="118.63" width="1.83" height="22.68" />
    <rect x="43.79" y="118.63" width=".41" height="22.68" />
    <rect x="45.2" y="118.63" width=".41" height="22.68" />
    <rect x="48.03" y="118.63" width="1.12" height="22.68" />
    <rect x="50.14" y="118.63" width=".41" height="22.68" />
    <rect x="52.26" y="118.63" width="1.83" height="22.68" />
    <rect x="55.08" y="118.63" width=".41" height="22.68" />
    <rect x="58.61" y="118.63" width=".41" height="22.68" />
    <rect x="60.78" y="118.63" width="1.07" height="22.68" />
    <rect x="63.61" y="118.63" width=".36" height="22.68" />
    <rect x="64.96" y="118.63" width=".41" height="22.68" />
    <rect x="66.38" y="118.63" width=".41" height="22.68" />
    <rect x="67.79" y="118.63" width=".41" height="22.68" />
    <rect x="69.2" y="118.63" width=".41" height="22.68" />
    <rect x="72.73" y="118.63" width="1.17" height="22.68" />
    <rect x="74.84" y="118.63" width="1.17" height="22.68" />
    <rect x="77.67" y="118.63" width=".41" height="22.68" />
    <rect x="79.78" y="118.63" width="1.83" height="22.68" />
    <rect x="82.61" y="118.63" width="1.17" height="22.68" />
    <rect x="84.72" y="118.63" width="1.17" height="22.68" />
    <rect x="87.55" y="118.63" width="1.17" height="22.68" />
    <rect x="89.66" y="118.63" width="1.17" height="22.68" />
    <rect x="92.49" y="118.63" width="1.17" height="22.68" />
    <rect x="94.6" y="118.63" width="1.17" height="22.68" />
    <rect x="97.43" y="118.63" width=".41" height="22.68" />
    <rect x="98.84" y="118.63" width=".41" height="22.68" />
  </g>
  <rect x="35.03" y="138.64" width="29.44" height="4.06" style="fill: #fff;" />
  <rect x="67.46" y="138.64" width="30" height="4.08" style="fill: #fff;" />
  <text id="bar1" transform="translate(27.96 144.43)"
    style="font-family: Myriad-Roman, Myriad; font-size: 7.5px; isolation: isolate;">
    <tspan x="0" y="0"></tspan>
  </text>
  <text id="bar2" transform="translate(36.26 144.43)"
    style="font-family: Myriad-Roman, Myriad; font-size: 7.5px; isolation: isolate; letter-spacing: .11em;">
    <tspan x="0" y="0"></tspan>
  </text>
  <text id="bar3" transform="translate(68.67 144.43)"
    style="font-family: Myriad-Roman, Myriad; font-size: 7.5px; isolation: isolate; letter-spacing: .11em;">
    <tspan x="0" y="0"></tspan>
  </text>
  <text id="currency_india" transform="translate(39.9 191.57)"
    style="font-family: ArialMT, Arial; font-size: 27.69px; isolation: isolate;">
    <tspan x="0" y="0"></tspan>
  </text>
  <text id="currency" transform="translate(39.9 191.29)"
    style="font-family: BarlowCondensed-Medium, &apos;Barlow Condensed&apos;; font-size: 27.69px; font-weight: 500; isolation: isolate;">
    <tspan x="0" y="0"></tspan>
  </text>
  <text id="selling_price" transform="translate(54.08 191.29)"
    style="font-family: BarlowCondensed-Medium, &apos;Barlow Condensed&apos;; font-size: 27.69px; font-weight: 500; isolation: isolate;">
    <tspan x="0" y="0" xml:space="preserve"> </tspan>
  </text>
  <text id="selling_price_fraction" transform="translate(72 183.77)"
    style="font-family: BarlowCondensed-Medium, &apos;Barlow Condensed&apos;; font-size: 15.11px; font-weight: 500; isolation: isolate;">
    <tspan x="0" y="0" style="letter-spacing: -.01em;"></tspan>
    <tspan x="2.66" y="0" style="letter-spacing: .03em;"></tspan>
  </text>
  <text id="variable_size_text" data-name="variable Size S" transform="translate(34.26 96.43)"
    style="font-family: Barlow-Bold, Barlow; font-size: 6.5px; font-weight: 700; isolation: isolate;">
    <tspan x="0" y="0"></tspan>
  </text>
 
  
  <text id="variable_size_box" data-name="variable Size box S" transform="translate(34.26 96.43)"
    style="fill: #fff; font-family: Barlow-Bold, Barlow; font-size: 6.5px; font-weight: 700; isolation: isolate;">
    <tspan x="0" y="0"></tspan>
  </text>

  <g id="WOMAN" display="none">
    <text id="IT" y="31%" x="48.8%" text-anchor="end"
      style="font-family: Barlow-Black, Barlow; font-size: 8.5px; font-weight: 800; isolation: isolate;">
      <tspan>
      </tspan>
    </text>
    <text id="USA" y="35.6%" x="48.8%" text-anchor="end"
      style="font-family: Barlow-Bold, Barlow; font-size: 8.5px; font-weight: 700; isolation: isolate;">
      <tspan>
      </tspan>
    </text>
    <text id="EUR" y="31%" x="90%" text-anchor="end"
      style="font-family: Barlow-Bold, Barlow; font-size: 8.5px; font-weight: 700; isolation: isolate;">
      <tspan>
      </tspan>
    </text>
    <text id="MEX" y="35.6%" x="90%" text-anchor="end"
      style="font-family: Barlow-Bold, Barlow; font-size: 8.5px; font-weight: 700; isolation: isolate;">
      <tspan>
      </tspan>
    </text>
    <g>
      <path
        d="M12.09,72.84v-5.63c0-.11.05-.16.16-.16h1.28c.11,0,.16.05.16.16v5.63c0,.11-.05.16-.16.16h-1.28c-.11,0-.16-.05-.16-.16" />
      <path
        d="M19.35,67.21v1.05c0,.11-.05.16-.16.16h-1.37s-.07.02-.07.07v4.34c0,.11-.05.16-.16.16h-1.27c-.11,0-.16-.05-.16-.16v-4.34s-.02-.07-.07-.07h-1.33c-.11,0-.16-.05-.16-.16v-1.05c0-.11.05-.16.16-.16h4.43c.11,0,.16.05.16.16" />
    </g>
    <g>
      <path
        d="M71.55,68.1h-2.74s-.05.02-.05.05v1.3s.02.05.05.05h1.78c.1,0,.15.05.15.15v.74c0,.1-.05.14-.15.14h-1.78s-.05.02-.05.05v1.36s.02.05.05.05h2.74c.1,0,.15.05.15.15v.74c0,.1-.05.14-.15.14h-3.84c-.1,0-.14-.05-.14-.14v-5.66c0-.1.05-.15.14-.15h3.84c.1,0,.15.05.15.15v.74c0,.1-.05.14-.15.14" />
      <path
        d="M73.95,72.83c-.33-.17-.59-.41-.77-.72-.18-.31-.28-.66-.28-1.07v-3.83c0-.1.05-.14.15-.14h.91c.1,0,.14.05.14.14v3.84c0,.3.09.54.28.73.18.18.43.28.73.28s.54-.09.73-.28c.18-.18.28-.43.28-.73v-3.84c0-.1.05-.14.14-.14h.91c.1,0,.14.05.14.14v3.83c0,.4-.09.76-.28,1.07-.18.31-.44.55-.77.72-.33.17-.71.26-1.15.26s-.82-.09-1.15-.26" />
      <path
        d="M79.91,68.15v1.43s.02.05.05.05h1.11c.24,0,.43-.07.58-.21.15-.14.22-.32.22-.55s-.07-.41-.22-.56c-.15-.14-.34-.22-.58-.22h-1.11s-.05.02-.05.05M81.84,72.91l-1.05-2.31s-.03-.04-.06-.04h-.77s-.05.02-.05.05v2.27c0,.1-.05.14-.14.14h-.91c-.1,0-.14-.05-.14-.14v-5.67c0-.1.05-.14.14-.14h2.39c.36,0,.68.08.96.23.28.15.49.36.64.63.15.27.23.58.23.94,0,.39-.1.72-.29.99-.19.28-.46.47-.8.59-.02,0-.03.02-.03.03,0,.01,0,.03,0,.04l1.12,2.35s.02.05.02.08-.01.05-.03.07c-.02.02-.05.03-.09.03h-.96c-.07,0-.13-.04-.17-.11" />
    </g>
    <g>
      <path
        d="M67.57,83.96v-5.66c0-.1.05-.15.14-.15h.91c.07,0,.13.03.17.09l1.23,1.99s.02.03.04.03c.02,0,.02,0,.03-.03l1.25-1.99c.04-.06.1-.09.17-.09h.91c.1,0,.14.05.14.15v5.66c0,.1-.05.14-.14.14h-.91c-.1,0-.14-.05-.14-.14v-3.68s0-.04-.02-.04c-.01,0-.03,0-.04.03l-.86,1.4c-.04.06-.1.09-.17.09h-.43c-.07,0-.13-.03-.17-.09l-.85-1.4s-.02-.03-.04-.03c-.02,0-.02.02-.02.04v3.68c0,.1-.05.14-.14.14h-.91c-.1,0-.14-.05-.14-.14" />
      <path
        d="M78.01,79.19h-2.74s-.05.02-.05.05v1.3s.02.05.05.05h1.78c.1,0,.15.05.15.15v.74c0,.1-.05.14-.15.14h-1.78s-.05.02-.05.05v1.36s.02.05.05.05h2.74c.1,0,.14.05.14.14v.74c0,.1-.05.14-.14.14h-3.84c-.1,0-.14-.05-.14-.14v-5.66c0-.1.05-.14.14-.14h3.84c.1,0,.14.05.14.14v.74c0,.1-.05.15-.14.15" />
      <path
        d="M79.21,84.08s-.03-.04-.03-.07,0-.05.03-.08l1.62-2.77s0-.04,0-.07l-1.62-2.77s-.03-.05-.03-.08c0-.03.01-.05.03-.07.02-.02.05-.03.09-.03h.99c.08,0,.15.03.18.1l1.08,1.9s.02.03.04.03c.01,0,.02,0,.03-.03l1.08-1.9c.03-.07.09-.1.18-.1h.98s.07,0,.09.03c.02.02.04.04.04.07,0,.02,0,.05-.03.08l-1.61,2.77s0,.05,0,.07l1.61,2.77s.03.05.03.08-.01.05-.04.07c-.02.02-.05.03-.09.03h-.98c-.09,0-.14-.03-.18-.1l-1.08-1.89s-.01-.03-.03-.03c-.01,0-.03,0-.04.03l-1.09,1.89c-.03.07-.09.1-.18.1h-.98s-.07,0-.09-.03" />
    </g>
    <g>
      <path
        d="M13.28,83.92c-.33-.17-.59-.41-.77-.72-.18-.31-.28-.66-.28-1.07v-3.83c0-.1.05-.14.14-.14h.91c.1,0,.14.05.14.14v3.84c0,.3.09.54.28.73.18.18.43.28.73.28s.54-.09.73-.28c.18-.18.28-.43.28-.73v-3.84c0-.1.05-.14.14-.14h.91c.1,0,.15.05.15.14v3.83c0,.4-.09.76-.28,1.07-.18.31-.44.55-.77.72-.33.17-.71.26-1.15.26s-.82-.08-1.15-.26" />
      <path
        d="M18.89,83.96c-.33-.15-.59-.35-.77-.62-.18-.27-.27-.58-.27-.93v-.14c0-.1.05-.15.14-.15h.89c.1,0,.15.04.15.11v.12c0,.23.1.42.31.57.21.16.48.23.81.23.3,0,.52-.06.67-.19.14-.13.22-.28.22-.47,0-.14-.05-.25-.14-.34-.09-.09-.21-.18-.36-.25-.15-.07-.4-.17-.74-.29-.39-.13-.71-.26-.97-.4-.26-.14-.48-.32-.66-.56-.18-.24-.27-.53-.27-.87s.09-.64.26-.89c.18-.26.42-.45.73-.59.31-.14.67-.2,1.08-.2.43,0,.82.08,1.16.23.34.15.61.37.8.64.19.28.28.59.28.96v.09c0,.1-.05.14-.15.14h-.89c-.1,0-.14-.03-.14-.08v-.09c0-.24-.1-.44-.29-.61s-.46-.25-.8-.25c-.27,0-.48.06-.63.17-.15.11-.22.27-.22.47,0,.14.04.26.13.36.08.1.21.18.39.26.17.08.44.18.8.31.4.15.71.28.94.39.23.11.44.28.62.51.18.23.28.52.28.88s-.09.65-.27.91c-.18.26-.43.46-.76.6-.33.14-.71.21-1.15.21s-.83-.07-1.17-.22" />
      <path
        d="M25.08,82.23h1.5s.05-.02.04-.06l-.76-2.59s-.01-.03-.03-.03c-.01,0-.03.01-.04.03l-.76,2.59s0,.06.04.06M27.16,83.99l-.24-.79s-.02-.04-.05-.04h-2.08s-.05.01-.05.04l-.24.79c-.03.08-.08.12-.16.12h-.99c-.05,0-.09-.02-.11-.05-.02-.03-.03-.07,0-.11l1.81-5.67c.03-.08.08-.12.16-.12h1.25c.08,0,.13.04.16.12l1.81,5.67s0,.03,0,.05c0,.03-.01.06-.03.08-.02.02-.05.03-.09.03h-.99c-.08,0-.13-.04-.16-.12" />
    </g>
  </g>
  <g id="MAN" display="none">

    <text id="IT" y="31%" x="48.8%" text-anchor="end"
      style="font-family: Barlow-Black, Barlow; font-size: 8.5px; font-weight: 800; isolation: isolate;">
      <tspan>
      </tspan>
    </text>
    <text id="USA" y="35.6%" x="48.8%" text-anchor="end"
      style="font-family: Barlow-Bold, Barlow; font-size: 8.5px; font-weight: 700; isolation: isolate;">
      <tspan>
      </tspan>
    </text>
    <text id="EUR" y="31%" x="90%" text-anchor="end"
      style="font-family: Barlow-Bold, Barlow; font-size: 8.5px; font-weight: 700; isolation: isolate;">
      <tspan>
      </tspan>
    </text>
    <text id="MEX" y="35.6%" x="90%" text-anchor="end"
      style="font-family: Barlow-Bold, Barlow; font-size: 8.5px; font-weight: 700; isolation: isolate;">
      <tspan>
      </tspan>
    </text>


    <g>
      <path
        d="M12.09,72.84v-5.63c0-.11.05-.16.16-.16h1.28c.11,0,.16.05.16.16v5.63c0,.11-.05.16-.16.16h-1.28c-.11,0-.16-.05-.16-.16" />
      <path
        d="M19.35,67.21v1.05c0,.11-.05.16-.16.16h-1.37s-.07.02-.07.07v4.34c0,.11-.05.16-.16.16h-1.27c-.11,0-.16-.05-.16-.16v-4.34s-.02-.07-.07-.07h-1.33c-.11,0-.16-.05-.16-.16v-1.05c0-.11.05-.16.16-.16h4.43c.11,0,.16.05.16.16" />
    </g>
    <g>
      <path
        d="M71.55,68.1h-2.74s-.05.02-.05.05v1.3s.02.05.05.05h1.78c.1,0,.15.05.15.15v.74c0,.1-.05.14-.15.14h-1.78s-.05.02-.05.05v1.36s.02.05.05.05h2.74c.1,0,.15.05.15.15v.74c0,.1-.05.14-.15.14h-3.84c-.1,0-.14-.05-.14-.14v-5.66c0-.1.05-.15.14-.15h3.84c.1,0,.15.05.15.15v.74c0,.1-.05.14-.15.14" />
      <path
        d="M73.95,72.83c-.33-.17-.59-.41-.77-.72-.18-.31-.28-.66-.28-1.07v-3.83c0-.1.05-.14.15-.14h.91c.1,0,.14.05.14.14v3.84c0,.3.09.54.28.73.18.18.43.28.73.28s.54-.09.73-.28c.18-.18.28-.43.28-.73v-3.84c0-.1.05-.14.14-.14h.91c.1,0,.14.05.14.14v3.83c0,.4-.09.76-.28,1.07-.18.31-.44.55-.77.72-.33.17-.71.26-1.15.26s-.82-.09-1.15-.26" />
      <path
        d="M79.91,68.15v1.43s.02.05.05.05h1.11c.24,0,.43-.07.58-.21.15-.14.22-.32.22-.55s-.07-.41-.22-.56c-.15-.14-.34-.22-.58-.22h-1.11s-.05.02-.05.05M81.84,72.91l-1.05-2.31s-.03-.04-.06-.04h-.77s-.05.02-.05.05v2.27c0,.1-.05.14-.14.14h-.91c-.1,0-.14-.05-.14-.14v-5.67c0-.1.05-.14.14-.14h2.39c.36,0,.68.08.96.23.28.15.49.36.64.63.15.27.23.58.23.94,0,.39-.1.72-.29.99-.19.28-.46.47-.8.59-.02,0-.03.02-.03.03,0,.01,0,.03,0,.04l1.12,2.35s.02.05.02.08-.01.05-.03.07c-.02.02-.05.03-.09.03h-.96c-.07,0-.13-.04-.17-.11" />
    </g>
    <g>
      <path
        d="M67.57,83.96v-5.66c0-.1.05-.15.14-.15h.91c.07,0,.13.03.17.09l1.23,1.99s.02.03.04.03c.02,0,.02,0,.03-.03l1.25-1.99c.04-.06.1-.09.17-.09h.91c.1,0,.14.05.14.15v5.66c0,.1-.05.14-.14.14h-.91c-.1,0-.14-.05-.14-.14v-3.68s0-.04-.02-.04c-.01,0-.03,0-.04.03l-.86,1.4c-.04.06-.1.09-.17.09h-.43c-.07,0-.13-.03-.17-.09l-.85-1.4s-.02-.03-.04-.03c-.02,0-.02.02-.02.04v3.68c0,.1-.05.14-.14.14h-.91c-.1,0-.14-.05-.14-.14" />
      <path
        d="M78.01,79.19h-2.74s-.05.02-.05.05v1.3s.02.05.05.05h1.78c.1,0,.15.05.15.15v.74c0,.1-.05.14-.15.14h-1.78s-.05.02-.05.05v1.36s.02.05.05.05h2.74c.1,0,.14.05.14.14v.74c0,.1-.05.14-.14.14h-3.84c-.1,0-.14-.05-.14-.14v-5.66c0-.1.05-.14.14-.14h3.84c.1,0,.14.05.14.14v.74c0,.1-.05.15-.14.15" />
      <path
        d="M79.21,84.08s-.03-.04-.03-.07,0-.05.03-.08l1.62-2.77s0-.04,0-.07l-1.62-2.77s-.03-.05-.03-.08c0-.03.01-.05.03-.07.02-.02.05-.03.09-.03h.99c.08,0,.15.03.18.1l1.08,1.9s.02.03.04.03c.01,0,.02,0,.03-.03l1.08-1.9c.03-.07.09-.1.18-.1h.98s.07,0,.09.03c.02.02.04.04.04.07,0,.02,0,.05-.03.08l-1.61,2.77s0,.05,0,.07l1.61,2.77s.03.05.03.08-.01.05-.04.07c-.02.02-.05.03-.09.03h-.98c-.09,0-.14-.03-.18-.1l-1.08-1.89s-.01-.03-.03-.03c-.01,0-.03,0-.04.03l-1.09,1.89c-.03.07-.09.1-.18.1h-.98s-.07,0-.09-.03" />
    </g>
    <g>
      <path
        d="M13.28,83.92c-.33-.17-.59-.41-.77-.72-.18-.31-.28-.66-.28-1.07v-3.83c0-.1.05-.14.14-.14h.91c.1,0,.14.05.14.14v3.84c0,.3.09.54.28.73.18.18.43.28.73.28s.54-.09.73-.28c.18-.18.28-.43.28-.73v-3.84c0-.1.05-.14.14-.14h.91c.1,0,.15.05.15.14v3.83c0,.4-.09.76-.28,1.07-.18.31-.44.55-.77.72-.33.17-.71.26-1.15.26s-.82-.08-1.15-.26" />
      <path
        d="M18.89,83.96c-.33-.15-.59-.35-.77-.62-.18-.27-.27-.58-.27-.93v-.14c0-.1.05-.15.14-.15h.89c.1,0,.15.04.15.11v.12c0,.23.1.42.31.57.21.16.48.23.81.23.3,0,.52-.06.67-.19.14-.13.22-.28.22-.47,0-.14-.05-.25-.14-.34-.09-.09-.21-.18-.36-.25-.15-.07-.4-.17-.74-.29-.39-.13-.71-.26-.97-.4-.26-.14-.48-.32-.66-.56-.18-.24-.27-.53-.27-.87s.09-.64.26-.89c.18-.26.42-.45.73-.59.31-.14.67-.2,1.08-.2.43,0,.82.08,1.16.23.34.15.61.37.8.64.19.28.28.59.28.96v.09c0,.1-.05.14-.15.14h-.89c-.1,0-.14-.03-.14-.08v-.09c0-.24-.1-.44-.29-.61s-.46-.25-.8-.25c-.27,0-.48.06-.63.17-.15.11-.22.27-.22.47,0,.14.04.26.13.36.08.1.21.18.39.26.17.08.44.18.8.31.4.15.71.28.94.39.23.11.44.28.62.51.18.23.28.52.28.88s-.09.65-.27.91c-.18.26-.43.46-.76.6-.33.14-.71.21-1.15.21s-.83-.07-1.17-.22" />
      <path
        d="M25.08,82.23h1.5s.05-.02.04-.06l-.76-2.59s-.01-.03-.03-.03c-.01,0-.03.01-.04.03l-.76,2.59s0,.06.04.06M27.16,83.99l-.24-.79s-.02-.04-.05-.04h-2.08s-.05.01-.05.04l-.24.79c-.03.08-.08.12-.16.12h-.99c-.05,0-.09-.02-.11-.05-.02-.03-.03-.07,0-.11l1.81-5.67c.03-.08.08-.12.16-.12h1.25c.08,0,.13.04.16.12l1.81,5.67s0,.03,0,.05c0,.03-.01.06-.03.08-.02.02-.05.03-.09.03h-.99c-.08,0-.13-.04-.16-.12" />
    </g>
  </g>
  <g id="KIDS" display="none">
    <g>
      <path
        d="M66.97,84.02v-5.66c0-.1.05-.14.14-.14h.91c.1,0,.14.05.14.14v5.66c0,.1-.05.14-.14.14h-.91c-.1,0-.14-.05-.14-.14" />
      <path
        d="M69.63,84.02v-5.66c0-.1.05-.14.14-.14h.88l.17.09,2.12,3.54.04.03.02-.04v-3.47c0-.1.05-.14.15-.14h.89c.1,0,.15.05.15.14v5.66c0,.1-.05.14-.15.14h-.87l-.17-.1-2.13-3.57-.04-.03-.02.04v3.51c0,.1-.04.14-.14.14h-.9c-.1,0-.14-.05-.14-.14" />
    </g>
    <g>
      <path
        d="M12.4,84.02v-5.66c0-.1.05-.14.14-.14h.91c.1,0,.14.05.14.14v5.66c0,.1-.05.14-.14.14h-.91c-.1,0-.14-.05-.14-.14" />
      <path
        d="M19.27,78.36v.75c0,.1-.05.15-.14.15h-1.47l-.05.05v4.72c0,.1-.05.14-.14.14h-.91c-.1,0-.14-.05-.14-.14v-4.72l-.05-.05h-1.43c-.1,0-.14-.05-.14-.15v-.75c0-.1.05-.14.14-.14h4.2c.1,0,.14.05.14.14" />
    </g>
    <g>
      <path
        d="M67.9,72.88c-.34-.17-.59-.41-.77-.73-.18-.31-.27-.67-.27-1.08v-1.96c0-.41.09-.77.27-1.08s.44-.55.77-.72c.33-.17.72-.26,1.16-.26s.82.08,1.15.24.59.39.77.69.28.64.28,1.03c0,.05-.04.08-.14.09l-.91.06h-.03l-.12-.04v-.05c0-.3-.09-.54-.28-.72-.18-.18-.43-.27-.73-.27s-.55.09-.74.27c-.18.18-.28.42-.28.72v2.05c0,.29.09.53.28.71.18.18.43.27.74.27s.54-.09.73-.27c.18-.18.28-.42.28-.71l.04-.07.11-.02.91.04c.1,0,.14.03.14.04v.04c0,.39-.09.74-.28,1.04-.18.3-.44.53-.77.7s-.71.25-1.15.25-.83-.09-1.16-.26" />
      <path
        d="M72.32,73.1v-5.66c0-.1.05-.15.14-.15h.91c.07,0,.13.03.17.09l1.23,1.99s.02.03.04.03c.01,0,.03,0,.03-.03l1.25-1.99c.04-.06.1-.09.17-.09h.91c.1,0,.14.05.14.15v5.66c0,.1-.05.14-.14.14h-.91c-.09,0-.14-.05-.14-.14v-3.68s0-.04-.02-.04-.03,0-.04.03l-.86,1.4c-.04.06-.1.09-.17.09h-.43c-.07,0-.13-.03-.17-.09l-.85-1.4s-.03-.03-.04-.03-.02.02-.02.04v3.68c0,.1-.05.14-.14.14h-.91c-.1,0-.14-.05-.14-.14" />
    </g>
    <g>
      <path
        d="M13.75,72.87v-1.83l-.02-.09-1.62-3.67-.02-.08c0-.07.05-.11.14-.11h1.32c.09,0,.15.04.18.13l.74,1.96.04.03.04-.03.74-1.96c.03-.09.09-.13.18-.13h1.32c.09,0,.14.04.14.11l-.02.08-1.64,3.67-.02.09v1.83c0,.11-.05.16-.15.16h-1.2c-.1,0-.15-.05-.15-.16" />
      <path
        d="M21.24,68.47h-2.36l-.07.07v.75l.07.07h1.44c.1,0,.15.05.15.16v1.04c0,.11-.05.16-.15.16h-1.44l-.07.07v.83l.07.07h2.36c.1,0,.15.05.15.16v1.04c0,.11-.05.16-.15.16h-3.79c-.1,0-.15-.05-.15-.16v-5.63c0-.11.05-.16.15-.16h3.79c.1,0,.15.05.15.16v1.05c0,.11-.05.16-.15.16" />
      <path
        d="M23.59,70.96l.06.06h1l.05-.02v-.05l-.51-1.96-.04-.04-.04.04-.52,1.96v.02h0ZM25.22,72.92l-.16-.61-.07-.06h-1.68l-.07.06-.16.61c-.02.09-.08.14-.17.14h-1.31l-.12-.05v-.14l1.67-5.63c.03-.09.08-.14.17-.14h1.66c.09,0,.14.04.17.14l1.68,5.63v.06c0,.09-.04.13-.13.13h-1.31c-.09,0-.15-.05-.17-.14" />
      <path
        d="M28.86,68.54v.94l.06.07h.74c.17,0,.31-.05.42-.15s.16-.23.16-.39-.05-.3-.16-.39c-.11-.1-.25-.15-.42-.15h-.74l-.06.07h0ZM30.17,72.93l-.87-2.12-.08-.05h-.29l-.06.07v2.06c0,.11-.05.16-.15.16h-1.21c-.1,0-.15-.05-.15-.16v-5.63c0-.11.05-.16.15-.16h2.41c.37,0,.69.08.97.24.28.16.49.38.65.67.15.29.23.62.23.99s-.08.69-.25.97-.41.48-.71.62l-.03.09.99,2.19.02.08-.13.1h-1.28l-.18-.12h-.03,0Z" />
      <path
        d="M33.25,72.89c-.33-.16-.59-.38-.78-.67-.18-.29-.28-.62-.28-1v-.08c0-.11.05-.16.15-.16h1.19c.1,0,.15.03.15.09v.09c0,.15.08.29.24.42.15.12.35.19.59.19.2,0,.34-.04.43-.13s.13-.18.13-.29c0-.12-.05-.22-.16-.28s-.3-.14-.59-.23l-.23-.07c-.53-.17-.98-.4-1.34-.68s-.54-.69-.54-1.23c0-.36.09-.67.27-.95s.44-.49.76-.63c.32-.15.68-.22,1.08-.22.42,0,.8.08,1.14.25.34.16.61.4.81.7s.29.64.29,1.03v.04c0,.11-.05.16-.15.16h-1.19c-.1,0-.15-.02-.15-.07v-.07c0-.17-.07-.32-.22-.46s-.34-.21-.59-.21c-.17,0-.31.04-.41.11s-.15.18-.15.31c0,.1.04.19.11.26s.18.14.33.2.38.15.7.25c.04.02.23.08.57.18s.62.29.84.57c.23.28.34.61.34,1s-.09.69-.28.97c-.18.28-.44.49-.77.64s-.71.23-1.14.23-.82-.08-1.15-.23" />
    </g>
    <text id="YEARS" y="31%" x="48.8%" text-anchor="end"
      style="font-family: Barlow-Black, Barlow; font-size: 8.5px; font-weight: 800; isolation: isolate;">
      <tspan>
      </tspan>
    </text>
    <text id="IT" y="35.6%" x="48.8%" text-anchor="end"
      style="font-family: Barlow-Bold, Barlow; font-size: 8.5px; font-weight: 700; isolation: isolate;">
      <tspan>
      </tspan>
    </text>

    <text id="CM" y="31%" x="90%" text-anchor="end"
      style="font-family: Barlow-Bold, Barlow; font-size: 8.5px; font-weight: 700; isolation: isolate;">
      <tspan>
      </tspan>
    </text>

    <text id="INCHES" y="35.6%" x="90%" text-anchor="end"
      style="font-family: Barlow-Bold, Barlow; font-size: 8.5px; font-weight: 700; isolation: isolate;">
      <tspan>
      </tspan>
    </text>
  </g>
  <g id="FAGOTTINO"  display="none">
    <g>
      <path
        d="M12.32,72.88v-5.63c0-.11.05-.16.14-.16h1.14c.08,0,.14.04.18.11l.93,1.67s.03.03.05.03.04-.01.05-.03l.92-1.67c.04-.07.09-.11.18-.11h1.14c.1,0,.15.05.15.16v5.63c0,.11-.05.16-.15.16h-1.15c-.1,0-.15-.05-.15-.16v-3s0-.05-.03-.06c-.02,0-.04,0-.05.03l-.47.88c-.04.07-.09.11-.18.11h-.54c-.08,0-.14-.04-.18-.11l-.47-.88s-.03-.03-.05-.03c-.02,0-.03.02-.03.06v3c0,.11-.05.16-.15.16h-1.15c-.1,0-.14-.05-.14-.16Z" />
      <path
        d="M18.73,72.86c-.32-.19-.58-.46-.75-.8s-.27-.74-.27-1.19v-1.6c0-.44.09-.83.27-1.17s.43-.6.75-.79c.32-.19.7-.28,1.12-.28s.8.09,1.13.28c.32.19.58.45.75.79.18.34.27.73.27,1.17v1.6c0,.45-.09.85-.27,1.19-.18.34-.43.61-.75.8-.32.19-.7.28-1.13.28s-.8-.09-1.12-.28ZM20.37,71.54c.13-.16.2-.36.2-.62v-1.67c0-.26-.07-.47-.2-.62-.13-.16-.3-.23-.52-.23s-.38.08-.51.23c-.13.16-.19.36-.19.62v1.67c0,.26.06.47.19.62.13.16.3.23.51.23s.39-.08.52-.23Z" />
      <path
        d="M22.53,72.88v-5.63c0-.11.05-.16.14-.16h1.1c.08,0,.14.04.18.11l1.51,2.81s.03.03.05.03c.02,0,.03-.02.03-.06v-2.74c0-.11.04-.16.14-.16h1.15c.1,0,.15.05.15.16v5.63c0,.11-.05.16-.15.16h-1.1c-.08,0-.14-.04-.18-.11l-1.51-2.86s-.03-.04-.05-.04c-.02,0-.03.02-.03.06v2.8c.01.11-.03.16-.13.16h-1.15c-.1,0-.14-.05-.14-.16Z" />
      <path
        d="M31.68,67.25v1.05c0,.11-.05.16-.15.16h-1.23s-.06.02-.06.07v4.34c0,.11-.05.16-.15.16h-1.15c-.1,0-.14-.05-.14-.16v-4.34s-.02-.07-.06-.07h-1.19c-.1,0-.15-.05-.15-.16v-1.05c0-.11.05-.16.15-.16h3.99c.1,0,.15.05.15.16Z" />
      <path
        d="M34.97,67.09h1.15c.1,0,.15.05.15.16v5.63c0,.11-.05.16-.15.16h-1.15c-.1,0-.14-.05-.14-.16v-2.1s-.02-.07-.06-.07h-1.15s-.06.02-.06.07v2.1c0,.11-.05.16-.15.16h-1.15c-.1,0-.14-.05-.14-.16v-5.63c0-.11.05-.16.14-.16h1.15c.1,0,.15.05.15.16v2.02s.02.07.06.07h1.15s.06-.02.06-.07v-2.02c0-.11.05-.16.14-.16Z" />
      <path
        d="M37.69,72.87c-.32-.16-.56-.38-.73-.67-.17-.29-.26-.62-.26-1v-.08c0-.11.05-.16.15-.16h1.12c.1,0,.15.03.15.08v.09c0,.15.07.29.22.42s.33.19.56.19c.19,0,.32-.04.41-.13s.12-.19.12-.29c0-.12-.05-.22-.15-.28-.1-.06-.29-.14-.56-.23l-.22-.07c-.5-.17-.93-.4-1.27-.68s-.51-.69-.51-1.23c0-.36.09-.67.26-.95.17-.27.41-.49.71-.63.3-.15.64-.22,1.02-.22.4,0,.76.08,1.08.25.32.16.58.4.76.7.19.3.28.64.28,1.03v.04c0,.11-.05.16-.15.16h-1.12c-.1,0-.14-.02-.14-.07v-.07c0-.17-.07-.33-.21-.46s-.32-.21-.56-.21c-.16,0-.29.04-.39.11-.09.07-.14.18-.14.31,0,.1.03.19.1.26.07.07.17.14.32.2.14.07.36.15.66.25.04.02.22.08.54.18.32.1.58.29.8.57.21.27.32.61.32,1,0,.37-.09.69-.26.97-.17.28-.42.49-.73.64s-.67.23-1.08.23-.78-.08-1.09-.23Z" />
    </g>
    <g>
      <path
        d="M67.9,72.84c-.33-.17-.59-.42-.77-.73-.18-.31-.27-.67-.27-1.08v-1.96c0-.41.09-.77.27-1.08.18-.31.44-.55.77-.72.33-.17.72-.25,1.16-.25s.82.08,1.15.24c.33.16.59.39.77.69s.28.64.28,1.03c0,.05-.04.08-.14.09l-.91.06h-.03c-.08,0-.12-.01-.12-.04v-.05c0-.3-.09-.54-.28-.72-.18-.18-.43-.27-.73-.27s-.55.09-.74.27c-.18.18-.28.42-.28.72v2.05c0,.29.09.53.28.71.18.18.43.27.74.27s.54-.09.73-.27c.18-.18.28-.42.28-.71,0-.03.01-.05.04-.07s.06-.03.11-.02l.91.04c.1.01.14.03.14.04v.04c0,.39-.09.74-.28,1.04-.18.3-.44.53-.77.7-.33.17-.72.25-1.15.25s-.83-.09-1.16-.26h0Z" />
      <path
        d="M72.57,72.89v-5.66c0-.1.05-.14.14-.14h.91c.07,0,.13.03.17.09l1.23,1.99s.02.03.04.03c.01,0,.02,0,.03-.03l1.25-1.99c.04-.06.1-.09.17-.09h.91c.1,0,.14.05.14.14v5.66c0,.1-.05.14-.14.14h-.91c-.1,0-.14-.05-.14-.14v-3.68s0-.04-.02-.04c-.01,0-.03,0-.04.03l-.86,1.4c-.04.06-.1.09-.17.09h-.43c-.07,0-.13-.03-.17-.09l-.85-1.4s-.02-.03-.04-.03c-.01,0-.02.02-.02.04v3.68c0,.1-.05.14-.14.14h-.91c-.1,0-.14-.05-.14-.14h-.01Z" />
    </g>
    <g>
      <path
        d="M66.97,83.98v-5.66c0-.1.05-.14.14-.14h.91c.1,0,.14.05.14.14v2.32s0,.04.02.04c.01,0,.03,0,.04-.02l1.94-2.41c.04-.06.1-.08.18-.08h1.03s.07,0,.09.02c.02.01.03.04.03.06s-.01.05-.04.09l-1.85,2.36s-.02.04,0,.07l1.96,3.17s.03.05.03.08c0,.06-.04.09-.12.09h-1.03c-.07,0-.13-.03-.17-.09l-1.49-2.41s-.02-.03-.03-.03c-.02,0-.03,0-.04.03l-.52.66s-.03.04-.03.06v1.64c0,.1-.05.14-.14.14h-.91c-.1,0-.14-.05-.14-.14h0Z" />
      <path
        d="M73.65,83.93c-.33-.18-.59-.42-.78-.74-.18-.31-.28-.68-.28-1.09v-1.9c0-.41.09-.78.28-1.1.18-.32.44-.56.78-.74.33-.17.72-.26,1.16-.26s.81.08,1.14.25.59.4.77.69.28.62.28.97v.02c0,.1-.05.14-.14.14h-.91s-.08,0-.11-.02c-.03-.01-.04-.03-.04-.05v-.06c0-.26-.09-.48-.27-.66s-.42-.27-.72-.27-.55.09-.74.28c-.18.19-.28.44-.28.74v1.97c0,.31.1.55.3.74s.45.28.76.28.53-.08.71-.23c.18-.16.26-.37.26-.65v-.37s-.02-.05-.05-.05h-.9c-.1,0-.14-.05-.14-.14v-.7c0-.1.05-.14.14-.14h1.99c.1,0,.14.05.14.14v1.08c0,.43-.09.8-.27,1.12s-.44.56-.77.73c-.33.17-.72.25-1.15.25s-.82-.09-1.16-.26v.03Z" />
    </g>
    <g>
      <path
        d="M12.32,83.98v-5.66c0-.1.05-.14.14-.14h.91c.1,0,.14.05.14.14v5.66c0,.1-.05.14-.14.14h-.91c-.1,0-.14-.05-.14-.14Z" />
      <path
        d="M14.31,83.98v-5.66c0-.1.05-.14.14-.14h.88c.07,0,.13.03.17.09l2.12,3.54s.02.03.04.03c.01,0,.02-.02.02-.04v-3.47c0-.1.05-.14.14-.14h.89c.1,0,.14.05.14.14v5.66c0,.1-.05.14-.14.14h-.87c-.07,0-.12-.03-.17-.1l-2.13-3.57s-.02-.03-.04-.03c-.01,0-.02.02-.02.04v3.51c0,.1-.04.14-.14.14h-.9c-.1,0-.14-.05-.14-.14h.01Z" />
      <path
        d="M20.58,83.94c-.33-.17-.59-.42-.77-.73-.18-.31-.27-.67-.27-1.08v-1.96c0-.41.09-.77.27-1.08.18-.31.44-.55.77-.72s.72-.25,1.16-.25.82.08,1.15.24c.33.16.59.39.77.69s.28.64.28,1.03c0,.05-.04.08-.14.09l-.91.06h-.03c-.08,0-.12-.01-.12-.04v-.05c0-.3-.09-.54-.28-.72-.18-.18-.43-.27-.73-.27s-.55.09-.74.27c-.18.18-.28.42-.28.72v2.05c0,.29.09.53.28.71.18.18.43.27.74.27s.54-.09.73-.27c.18-.18.28-.42.28-.71,0-.03.01-.05.04-.07s.06-.03.11-.02l.91.04c.1.01.14.03.14.04v.04c0,.39-.09.74-.28,1.04-.18.3-.44.53-.77.7s-.72.25-1.15.25-.83-.09-1.16-.26h0Z" />
      <path
        d="M27.88,78.18h.91c.1,0,.14.05.14.14v5.66c0,.1-.05.14-.14.14h-.91c-.1,0-.14-.05-.14-.14v-2.29s-.02-.05-.05-.05h-1.86s-.05.02-.05.05v2.29c0,.1-.05.14-.14.14h-.91c-.1,0-.14-.05-.14-.14v-5.66c0-.1.05-.14.14-.14h.91c.1,0,.14.05.14.14v2.24s.02.05.05.05h1.86s.05-.02.05-.05v-2.24c0-.1.05-.14.14-.14Z" />
      <path
        d="M33.65,79.21h-2.74s-.05.02-.05.05v1.3s.02.05.05.05h1.78c.1,0,.14.05.14.14v.74c0,.1-.05.14-.14.14h-1.78s-.05.02-.05.05v1.36s.02.05.05.05h2.74c.1,0,.14.05.14.14v.74c0,.1-.05.14-.14.14h-3.84c-.1,0-.14-.05-.14-.14v-5.66c0-.1.05-.14.14-.14h3.84c.1,0,.14.05.14.14v.74c0,.1-.05.14-.14.14v.02Z" />
      <path
        d="M35.22,83.97c-.33-.15-.59-.35-.77-.62-.18-.27-.27-.58-.27-.94v-.14c0-.1.05-.14.14-.14h.89c.1,0,.14.04.14.11v.12c0,.23.1.42.31.57.21.16.48.23.81.23.3,0,.52-.06.67-.19.14-.13.22-.29.22-.47,0-.14-.05-.25-.14-.34s-.21-.18-.37-.25c-.15-.07-.4-.17-.74-.29-.39-.13-.71-.26-.97-.4s-.48-.32-.66-.56-.27-.53-.27-.87.09-.64.26-.89.42-.45.74-.59c.31-.14.67-.2,1.08-.2s.82.08,1.16.23.6.37.79.64c.19.27.28.59.28.96v.08c0,.1-.05.14-.14.14h-.89c-.1,0-.14-.03-.14-.08v-.08c0-.24-.1-.44-.29-.61-.2-.17-.46-.25-.8-.25-.27,0-.48.06-.63.17s-.22.27-.22.47c0,.14.04.26.13.36.08.1.21.18.39.26s.44.18.8.31c.4.15.71.28.94.39s.44.28.62.51.28.52.28.88-.09.65-.27.91-.43.46-.76.6-.71.21-1.15.21-.83-.07-1.17-.22v-.02Z" />
    </g>


    <text id="MONTHS" y="31%" x="48.8%" text-anchor="end"
      style="font-family: Barlow-Black, Barlow; font-size: 7.65px; font-weight: 800; isolation: isolate;">
      <tspan>
      </tspan>
    </text>
    <text id="CM" y="31%" x="90%" text-anchor="end"
      style="font-family: Barlow-Bold, Barlow; font-size: 8.5px; font-weight: 700; isolation: isolate;">
      <tspan>
      </tspan>
    </text>

    <text id="INCHES" y="35.6%" x="48.8%" text-anchor="end"
      style="font-family: Barlow-Bold, Barlow; font-size: 8.5px; font-weight: 700; isolation: isolate;">
      <tspan>
      </tspan>
    </text>

    <text id="KG" y="35.6%" x="90%" text-anchor="end"
      style="font-family: Barlow-Bold, Barlow; font-size: 8.5px; font-weight: 700; isolation: isolate;">
      <tspan>
      </tspan>
    </text>
  </g>
  <g id="qr">
    <path
      d="M90.97,10.22h.37c.12,0,.22-.06.29-.16.07-.1.11-.25.12-.42v-1.49c0-.18-.04-.32-.11-.43-.07-.1-.17-.16-.3-.16h-.37s-.02,0-.02.02v2.62s0,.02.02.02M90.66,10.46v-3.14s.01-.05.04-.05h.64c.21,0,.38.08.51.23.13.16.19.36.19.62v1.51c0,.26-.06.47-.19.63-.13.16-.3.23-.51.23h-.64s-.04-.02-.04-.05" />
    <path d="M92.47,10.46v-3.14s.01-.05.04-.05h.21s.04.02.04.05v3.14s-.01.05-.04.05h-.21s-.04-.02-.04-.05" />
    <path
      d="M94.51,7.56h-.96s-.02,0-.02.02v1.15s0,.02.02.02h.6s.04.02.04.05v.2s-.02.05-.04.05h-.6s-.02,0-.02.02v1.41s-.01.05-.04.05h-.21s-.04-.02-.04-.05v-3.14s.01-.05.04-.05h1.23s.04.02.04.05v.19s-.01.05-.04.05" />
    <path
      d="M96.07,7.56h-.96s-.02,0-.02.02v1.15s0,.02.02.02h.6s.04.02.04.05v.2s-.01.05-.04.05h-.6s-.02,0-.02.02v1.41s-.01.05-.04.05h-.21s-.04-.02-.04-.05v-3.14s.01-.05.04-.05h1.23s.04.02.04.05v.19s-.01.05-.04.05" />
    <path
      d="M97.63,7.56h-.96s-.02,0-.02.02v1.15s0,.02.02.02h.61s.04.02.04.05v.2s-.01.05-.04.05h-.61s-.02,0-.02.02v1.15s0,.02.02.02h.96s.04.02.04.05v.19s-.01.05-.04.05h-1.23s-.04-.02-.04-.05v-3.14s.01-.05.04-.05h1.23s.04.02.04.05v.19s-.01.05-.04.05" />
    <path
      d="M98.32,7.58v1.16s0,.02.02.02h.37c.13,0,.23-.05.31-.16.08-.11.12-.25.12-.43s-.04-.33-.12-.44-.18-.16-.31-.16h-.37s-.02,0-.02.02M99.13,10.47l-.43-1.44s0-.01-.02-.01h-.36s-.02,0-.02.02v1.42s-.01.05-.04.05h-.21s-.04-.02-.04-.05v-3.15s.01-.05.04-.05h.69c.2,0,.36.08.49.25.12.16.19.38.19.64,0,.2-.04.38-.12.52-.08.15-.18.24-.32.3-.01,0-.02.01-.01.02l.45,1.45v.02s0,.03-.03.03h-.22s-.04-.01-.05-.04" />
    <path
      d="M101.02,7.56h-.96s-.02,0-.02.02v1.15s0,.02.02.02h.61s.04.02.04.05v.2s-.01.05-.04.05h-.61s-.02,0-.02.02v1.15s0,.02.02.02h.96s.04.02.04.05v.19s-.01.05-.04.05h-1.23s-.04-.02-.04-.05v-3.14s.01-.05.04-.05h1.23s.04.02.04.05v.19s-.01.05-.04.05" />
    <path
      d="M101.4,10.46v-3.14s.01-.05.04-.05h.22s.04.01.05.04l.84,2.33s0,.01.01.01,0,0,0-.01v-2.32s.01-.05.04-.05h.21s.04.02.04.05v3.14s-.01.05-.04.05h-.22s-.04-.01-.05-.04l-.83-2.33s0-.01-.01-.01v2.33s-.01.05-.04.05h-.21s-.04-.02-.04-.05" />
    <path
      d="M103.17,10.46v-.21s0-.03.01-.06l1.01-2.61v-.02h-.98s-.04-.02-.04-.05v-.19s.01-.05.04-.05h1.26s.04.02.04.05v.21s0,.03-.01.06l-1,2.61v.02h.97s.04.02.04.05v.19s-.01.05-.04.05h-1.26s-.04-.02-.04-.05" />
    <path d="M104.85,10.46v-3.14s.01-.05.04-.05h.21s.04.02.04.05v3.14s-.01.05-.04.05h-.21s-.04-.02-.04-.05" />
    <path
      d="M105.94,9.61h.65s.01,0,.01-.02l-.33-1.78h0s0-.01,0,0l-.33,1.78s0,.02.01.02M106.77,10.47l-.1-.57h0s0-.01-.01-.01h-.76l-.11.58s-.02.04-.04.04h-.21s-.02,0-.03-.01v-.04l.63-3.14s.02-.04.05-.04h.25s.04.01.05.04l.63,3.14h0s-.01.05-.04.05h-.22s-.04-.01-.05-.04" />
    <path d="M108.1,10.46v-3.14s.01-.05.04-.05h.21s.04.02.04.05v3.14s-.01.05-.04.05h-.21s-.04-.02-.04-.05" />
    <path
      d="M109.88,7.58v1.16s0,.02.02.02h.37c.13,0,.23-.05.31-.16.08-.11.12-.25.12-.43s-.04-.33-.12-.44-.18-.16-.31-.16h-.37s-.02,0-.02.02M110.7,10.47l-.43-1.44s0-.01-.02-.01h-.36s-.02,0-.02.02v1.42s-.01.05-.04.05h-.21s-.04-.02-.04-.05v-3.15s.01-.05.04-.05h.69c.2,0,.37.08.49.25.12.16.19.38.19.64,0,.2-.04.38-.12.52-.08.15-.18.24-.32.3-.01,0-.01.01-.01.02l.45,1.45v.02s0,.03-.03.03h-.22s-.04-.01-.05-.04" />
    <path d="M111.31,10.46v-3.14s.01-.05.04-.05h.21s.04.02.04.05v3.14s-.01.05-.04.05h-.21s-.04-.02-.04-.05" />
    <path
      d="M113.35,7.56h-.96s-.02,0-.02.02v1.15s0,.02.02.02h.6s.04.02.04.05v.2s-.01.05-.04.05h-.6s-.02,0-.02.02v1.41s-.01.05-.04.05h-.21s-.04-.02-.04-.05v-3.14s.01-.05.04-.05h1.23s.04.02.04.05v.19s-.01.05-.04.05" />
    <path d="M113.64,10.46v-3.14s.01-.05.04-.05h.21s.04.02.04.05v3.14s-.01.05-.04.05h-.21s-.04-.02-.04-.05" />
    <path
      d="M114.58,10.3c-.13-.16-.2-.38-.2-.65v-2.33s.01-.05.04-.05h.21s.04.02.04.05v2.37c0,.17.04.31.12.41.07.1.18.16.3.16s.23-.05.31-.16c.08-.1.12-.24.12-.41v-2.37s.01-.05.04-.05h.21s.04.02.04.05v2.33c0,.27-.06.48-.2.65-.13.16-.31.25-.52.25s-.39-.08-.52-.25" />
    <path
      d="M117.59,7.32v.19s-.01.05-.04.05h-.55s-.02,0-.02.02v2.88s-.01.05-.04.05h-.21s-.04-.01-.04-.05v-2.88s0-.02-.02-.02h-.51s-.04-.02-.04-.05v-.19s.01-.05.04-.05h1.39s.04.02.04.05" />
    <path d="M117.91,10.46v-3.14s.01-.05.04-.05h.21s.04.02.04.05v3.14s-.01.05-.04.05h-.21s-.04-.02-.04-.05" />
    <path
      d="M90.45,45.93c-.13-.15-.19-.35-.19-.59v-.11s.01-.05.04-.05h.21s.04.02.04.05v.1c0,.16.04.3.11.4.07.1.17.15.29.15s.21-.05.29-.14.12-.22.12-.38c0-.1-.02-.19-.06-.27-.04-.07-.08-.14-.15-.2-.06-.06-.16-.14-.3-.26-.14-.11-.25-.21-.33-.29s-.15-.18-.2-.29c-.05-.11-.08-.25-.08-.4,0-.24.06-.43.19-.57.12-.14.29-.21.49-.21.21,0,.38.08.51.23.12.15.19.36.19.61v.12s-.01.05-.04.05h-.21s-.04-.02-.04-.05v-.12c0-.16-.04-.3-.11-.4-.07-.1-.17-.15-.29-.15-.11,0-.2.04-.27.13s-.11.21-.11.37c0,.1.01.18.05.25.03.07.08.14.14.21.06.06.16.15.28.25.17.14.29.25.37.33s.15.18.19.28.07.22.07.36c0,.25-.07.45-.2.61-.13.15-.3.23-.5.23s-.37-.07-.5-.23" />
    <path
      d="M93.24,43.17h-.96s-.02,0-.02.02v1.15s0,.02.02.02h.61s.04.02.04.05v.2s-.01.05-.04.05h-.61s-.02,0-.02.02v1.15s0,.02.02.02h.96s.04.02.04.05v.19s-.01.05-.04.05h-1.23s-.04-.02-.04-.05v-3.14s.01-.05.04-.05h1.23s.04.02.04.05v.19s-.01.05-.04.05" />
    <path
      d="M94.62,44.23c.08-.11.12-.26.12-.44s-.04-.33-.12-.45c-.08-.11-.18-.17-.3-.17h-.38s-.02,0-.02.02v1.19s0,.02.02.02h.38c.12,0,.23-.06.3-.17M94.84,43.13c.12.16.19.38.19.65s-.06.48-.18.64-.28.24-.48.24h-.43s-.02,0-.02.02v1.4s-.01.05-.04.05h-.21s-.04-.02-.04-.05v-3.15s.01-.05.04-.05h.69c.2,0,.37.08.49.25" />
    <path
      d="M95.55,45.22h.65s.01,0,.01-.02l-.33-1.78h0l-.33,1.78s0,.02.01.02M96.38,46.08l-.1-.57h-.77l-.11.58s-.02.04-.04.04h-.24v-.04l.63-3.14s.02-.04.05-.04h.25s.04,0,.05.04l.63,3.14h0s-.01.05-.04.05h-.22s-.04,0-.05-.04" />
    <path
      d="M97.3,43.19v1.16s0,.02.02.02h.37c.13,0,.23-.05.31-.16s.12-.25.12-.43-.04-.33-.12-.44c-.08-.11-.18-.16-.31-.16h-.37s-.02,0-.02.02M98.12,46.08l-.43-1.44h-.38s-.02,0-.02.02v1.42s-.01.05-.04.05h-.21s-.04-.02-.04-.05v-3.15s.01-.05.04-.05h.69c.2,0,.36.08.49.24s.19.38.19.64c0,.2-.04.38-.12.52-.08.15-.18.24-.32.3-.01,0-.02,0-.01.02l.45,1.45v.02s0,.03-.03.03h-.22s-.04,0-.05-.04" />
    <path
      d="M99.09,45.22h.65s.01,0,.01-.02l-.33-1.78h0l-.33,1.78s0,.02.01.02M99.92,46.08l-.1-.57h-.77l-.11.58s-.02.04-.04.04h-.24v-.04l.63-3.14s.02-.04.05-.04h.25s.04,0,.05.04l.63,3.14h0s-.01.05-.04.05h-.22s-.04,0-.05-.04" />
    <path
      d="M101.61,42.93v.19s-.01.05-.04.05h-.55s-.02,0-.02.02v2.88s-.01.05-.04.05h-.21s-.04-.02-.04-.05v-2.88s0-.02-.02-.02h-.51s-.04-.02-.04-.05v-.19s.01-.05.04-.05h1.39s.04.02.04.05" />
    <path
      d="M103.2,43.17h-.96s-.02,0-.02.02v1.15s0,.02.02.02h.61s.04.02.04.05v.2s-.01.05-.04.05h-.61s-.02,0-.02.02v1.15s0,.02.02.02h.96s.04.02.04.05v.19s-.01.05-.04.05h-1.23s-.04-.02-.04-.05v-3.14s.01-.05.04-.05h1.23s.04.02.04.05v.19s-.01.05-.04.05" />
    <path
      d="M105.62,42.93v.19s-.01.05-.04.05h-.55s-.02,0-.02.02v2.88s-.01.05-.04.05h-.21s-.04-.02-.04-.05v-2.88s0-.02-.02-.02h-.51s-.04-.02-.04-.05v-.19s.01-.05.04-.05h1.39s.04.02.04.05" />
    <path
      d="M107.05,42.89h.21s.04.02.04.05v3.14s-.01.05-.04.05h-.21s-.04-.02-.04-.05v-1.41s0-.02-.02-.02h-.74s-.02,0-.02.02v1.41s-.01.05-.04.05h-.21s-.04-.02-.04-.05v-3.14s.01-.05.04-.05h.21s.04.02.04.05v1.4s0,.02.02.02h.74s.02,0,.02-.02v-1.4s.01-.05.04-.05" />
    <path
      d="M109.02,43.17h-.96s-.02,0-.02.02v1.15s0,.02.02.02h.61s.04.02.04.05v.2s-.01.05-.04.05h-.61s-.02,0-.02.02v1.15s0,.02.02.02h.96s.04.02.04.05v.19s-.01.05-.04.05h-1.23s-.04-.02-.04-.05v-3.14s.01-.05.04-.05h1.23s.04.02.04.05v.19s-.01.05-.04.05" />
    <path
      d="M110.49,46.08l-.55-3.14h0s.01-.05.04-.05h.22s.04,0,.04.04l.39,2.43h0l.34-2.43s.02-.04.04-.04h.19s.04,0,.04.04l.35,2.43h0l.36-2.43s.02-.04.04-.04h.25v.04l-.51,3.14s-.02.04-.05.04h-.2s-.04,0-.04-.04l-.35-2.44h-.01l-.34,2.44s-.02.04-.04.04h-.2s-.04,0-.05-.04" />
    <path
      d="M112.69,45.22h.65s.01,0,.01-.02l-.33-1.78h0l-.33,1.78s0,.02.01.02M113.52,46.08l-.1-.57h-.77l-.11.58s-.02.04-.05.04h-.24v-.04l.63-3.14s.02-.04.05-.04h.25s.04,0,.04.04l.63,3.14h0s-.01.05-.04.05h-.21s-.04,0-.05-.04" />
    <path
      d="M114.16,45.93c-.13-.15-.19-.35-.19-.59v-.11s.01-.05.04-.05h.21s.04.02.04.05v.1c0,.16.04.3.11.4.07.1.17.15.29.15s.21-.05.29-.14.12-.22.12-.38c0-.1-.02-.19-.06-.27-.04-.07-.09-.14-.15-.2-.06-.06-.16-.14-.3-.26-.14-.11-.25-.21-.33-.29s-.15-.18-.2-.29c-.05-.11-.08-.25-.08-.4,0-.24.06-.43.19-.57.12-.14.29-.21.49-.21.21,0,.38.08.51.23.13.15.19.36.19.61v.12s-.01.05-.04.05h-.21s-.04-.02-.04-.05v-.12c0-.16-.04-.3-.11-.4s-.17-.15-.29-.15c-.11,0-.2.04-.27.13s-.11.21-.11.37c0,.1.02.18.05.25.03.07.08.14.14.21.06.06.16.15.28.25.17.14.29.25.37.33s.14.18.19.28c.04.1.07.22.07.36,0,.25-.07.45-.19.61-.13.15-.3.23-.5.23s-.37-.07-.5-.23" />
    <path
      d="M116.97,42.93v.19s-.01.05-.04.05h-.55s-.02,0-.02.02v2.88s-.01.05-.04.05h-.21s-.04-.02-.04-.05v-2.88s0-.02-.02-.02h-.51s-.04-.02-.04-.05v-.19s.01-.05.04-.05h1.39s.04.02.04.05" />
    <path
      d="M118.56,43.17h-.96s-.02,0-.02.02v1.15s0,.02.02.02h.61s.04.02.04.05v.2s-.01.05-.04.05h-.61s-.02,0-.02.02v1.15s0,.02.02.02h.96s.04.02.04.05v.19s-.01.05-.04.05h-1.23s-.04-.02-.04-.05v-3.14s.01-.05.04-.05h1.23s.04.02.04.05v.19s-.01.05-.04.05" />
    <path
      d="M90.26,13h.86v-.86h-.86v.86ZM91.97,12.14h-.86v.86h1.72v-.86h-.86ZM93.69,12.14h-.86v.86h1.72v-.86h-.86ZM95.41,12.14h-.86v.86h1.72v-.86h-.86Z" />
    <rect x="97.13" y="12.14" width=".86" height=".86" />
    <rect x="98.85" y="12.14" width=".86" height=".86" />
    <rect x="100.56" y="12.14" width=".86" height=".86" />
    <rect x="102.28" y="12.14" width=".86" height=".86" />
    <path d="M104.86,13h.86v-.86h-.86v.86ZM105.72,13h.86v-.86h-.86v.86ZM106.58,13h.86v-.86h-.86v.86Z" />
    <rect x="108.29" y="12.14" width=".86" height=".86" />
    <polygon points="110.87 12.14 110.01 12.14 110.01 13 110.87 13 111.73 13 111.73 12.14 110.87 12.14" />
    <path
      d="M117.74,13h.86v-.86h-.86v.86ZM116.88,13h.86v-.86h-.86v.86ZM116.03,13h.86v-.86h-.86v.86ZM115.17,13h.86v-.86h-.86v.86ZM114.31,13h.86v-.86h-.86v.86ZM113.45,13h.86v-.86h-.86v.86ZM112.59,13h.86v-.86h-.86v.86ZM90.26,13.86h.86v-.86h-.86v.86Z" />
    <rect x="95.41" y="13" width=".86" height=".86" />
    <rect x="97.13" y="13" width=".86" height=".86" />
    <polygon points="99.7 13 98.85 13 98.85 13.86 99.71 13.86 100.56 13.86 100.56 13 99.7 13" />
    <path d="M103.14,13.86h.86v-.86h-.86v.86ZM104.86,13h-.86v.86h1.72v-.86h-.86Z" />
    <rect x="106.58" y="13" width=".86" height=".86" />
    <rect x="110.87" y="13" width=".86" height=".86" />
    <rect x="112.59" y="13" width=".86" height=".86" />
    <path d="M117.74,13.86h.86v-.86h-.86v.86ZM90.26,14.72h.86v-.86h-.86v.86Z" />
    <path d="M91.97,14.72h.86v-.86h-.86v.86ZM93.69,13.86h-.86v.86h1.72v-.86h-.86Z" />
    <rect x="95.41" y="13.86" width=".86" height=".86" />
    <rect x="97.13" y="13.86" width=".86" height=".86" />
    <rect x="98.85" y="13.86" width=".86" height=".86" />
    <path d="M101.42,13.86h-.86v.86h1.72v-.86h-.86ZM102.28,14.72h.86v-.86h-.86v.86Z" />
    <rect x="104.86" y="13.86" width=".86" height=".86" />
    <path
      d="M107.44,14.72h.86v-.86h-.86v.86ZM109.15,13.86h-.86v.86h1.72v-.86h-.86ZM110.87,13.86h-.86v.86h1.72v-.86h-.86Z" />
    <rect x="112.59" y="13.86" width=".86" height=".86" />
    <path d="M115.17,13.86h-.86v.86h1.72v-.86h-.86ZM116.03,14.72h.86v-.86h-.86v.86Z" />
    <path d="M117.74,14.72h.86v-.86h-.86v.86ZM90.26,15.58h.86v-.86h-.86v.86Z" />
    <path d="M91.97,15.58h.86v-.86h-.86v.86ZM93.69,14.72h-.86v.86h1.72v-.86h-.86Z" />
    <rect x="95.41" y="14.72" width=".86" height=".86" />
    <rect x="97.99" y="14.72" width=".86" height=".86" />
    <path d="M101.42,14.72h-.86v.86h1.72v-.86h-.86ZM102.28,15.58h.86v-.86h-.86v.86Z" />
    <rect x="104" y="14.72" width=".86" height=".86" />
    <path d="M105.72,15.58h.86v-.86h-.86v.86ZM106.58,15.58h.86v-.86h-.86v.86Z" />
    <path d="M109.15,15.58h.86v-.86h-.86v.86ZM110.87,14.72h-.86v.86h1.72v-.86h-.86Z" />
    <rect x="112.59" y="14.72" width=".86" height=".86" />
    <path d="M115.17,14.72h-.86v.86h1.72v-.86h-.86ZM116.03,15.58h.86v-.86h-.86v.86Z" />
    <path d="M117.74,15.58h.86v-.86h-.86v.86ZM90.26,16.44h.86v-.86h-.86v.86Z" />
    <path d="M91.97,16.44h.86v-.86h-.86v.86ZM93.69,15.58h-.86v.86h1.72v-.86h-.86Z" />
    <rect x="95.41" y="15.58" width=".86" height=".86" />
    <rect x="97.99" y="15.58" width=".86" height=".86" />
    <rect x="99.7" y="15.58" width=".86" height=".86" />
    <path d="M103.14,15.58h-.86v.86h1.72v-.86h-.86ZM104.86,15.58h-.86v.86h1.72v-.86h-.86Z" />
    <rect x="107.44" y="15.58" width=".86" height=".86" />
    <path d="M109.15,16.44h.86v-.86h-.86v.86ZM110.01,16.44h.86v-.86h-.86v.86Z" />
    <rect x="112.59" y="15.58" width=".86" height=".86" />
    <path d="M115.17,15.58h-.86v.86h1.72v-.86h-.86ZM116.03,16.44h.86v-.86h-.86v.86Z" />
    <path d="M117.74,16.44h.86v-.86h-.86v.86ZM90.26,17.3h.86v-.86h-.86v.86Z" />
    <rect x="95.41" y="16.44" width=".86" height=".86" />
    <rect x="97.13" y="16.44" width=".86" height=".86" />
    <rect x="101.42" y="16.44" width=".86" height=".86" />
    <path d="M105.72,17.3h.86v-.86h-.86v.86ZM107.44,16.44h-.86v.86h1.72v-.86h-.86Z" />
    <rect x="109.15" y="16.44" width=".86" height=".86" />
    <rect x="110.87" y="16.44" width=".86" height=".86" />
    <rect x="112.59" y="16.44" width=".86" height=".86" />
    <path
      d="M117.74,17.3h.86v-.86h-.86v.86ZM95.41,18.16h.86v-.86h-.86v.86ZM94.55,18.16h.86v-.86h-.86v.86ZM93.69,18.16h.86v-.86h-.86v.86ZM92.83,18.16h.86v-.86h-.86v.86ZM91.97,18.16h.86v-.86h-.86v.86ZM91.12,18.16h.86v-.86h-.86v.86ZM90.26,18.16h.86v-.86h-.86v.86Z" />
    <rect x="97.13" y="17.3" width=".86" height=".86" />
    <rect x="98.85" y="17.3" width=".86" height=".86" />
    <rect x="100.56" y="17.3" width=".86" height=".86" />
    <rect x="102.28" y="17.3" width=".86" height=".86" />
    <rect x="104" y="17.3" width=".86" height=".86" />
    <rect x="105.72" y="17.3" width=".86" height=".86" />
    <rect x="107.44" y="17.3" width=".86" height=".86" />
    <rect x="109.15" y="17.3" width=".86" height=".86" />
    <rect x="110.87" y="17.3" width=".86" height=".86" />
    <path
      d="M113.45,17.3h-.86v.86h1.72v-.86h-.86ZM115.17,17.3h-.86v.86h1.72v-.86h-.86ZM116.88,17.3h-.86v.86h1.72v-.86h-.86ZM117.74,18.16h.86v-.86h-.86v.86Z" />
    <rect x="97.13" y="18.15" width=".86" height=".86" />
    <polygon points="99.7 18.15 98.85 18.15 98.85 19.01 99.71 19.01 100.56 19.01 100.56 18.15 99.7 18.15" />
    <path d="M101.42,19.01h.86v-.86h-.86v.86ZM103.14,18.15h-.86v.86h1.72v-.86h-.86Z" />
    <path d="M107.44,19.01h.86v-.86h-.86v.86ZM109.15,18.16h-.86v.86h1.72v-.86h-.86ZM110.01,19.01h.86v-.86h-.86v.86Z" />
    <path d="M91.97,19.87h.86v-.86h-.86v.86ZM93.69,19.01h-.86v.86h1.72v-.86h-.86Z" />
    <rect x="95.41" y="19.01" width=".86" height=".86" />
    <path d="M97.13,19.87h.86v-.86h-.86v.86ZM97.99,19.87h.86v-.86h-.86v.86Z" />
    <rect x="99.7" y="19.01" width=".86" height=".86" />
    <path d="M103.14,19.01h-.86v.86h1.72v-.86h-.86ZM104.86,19.01h-.86v.86h1.72v-.86h-.86Z" />
    <rect x="107.44" y="19.01" width=".86" height=".86" />
    <path
      d="M109.15,19.87h.86v-.86h-.86v.86ZM110.87,19.01h-.86v.86h1.72v-.86h-.86ZM112.59,19.01h-.86v.86h1.72v-.86h-.86ZM113.45,19.87h.86v-.86h-.86v.86Z" />
    <path
      d="M117.74,19.87h.86v-.86h-.86v.86ZM116.88,19.87h.86v-.86h-.86v.86ZM116.03,19.87h.86v-.86h-.86v.86ZM91.12,20.73h.86v-.86h-.86v.86ZM90.26,20.73h.86v-.86h-.86v.86Z" />
    <polygon points="93.69 19.87 92.83 19.87 92.83 20.73 93.69 20.73 94.55 20.73 94.55 19.87 93.69 19.87" />
    <path d="M97.13,19.87h-.86v.86h1.72v-.86h-.86ZM97.99,20.73h.86v-.86h-.86v.86Z" />
    <rect x="99.7" y="19.87" width=".86" height=".86" />
    <rect x="102.28" y="19.87" width=".86" height=".86" />
    <rect x="105.72" y="19.87" width=".86" height=".86" />
    <path
      d="M108.3,20.73h.86v-.86h-.86v.86ZM109.15,20.73h.86v-.86h-.86v.86ZM110.01,20.73h.86v-.86h-.86v.86ZM110.87,20.73h.86v-.86h-.86v.86ZM112.59,19.87h-.86v.86h1.72v-.86h-.86Z" />
    <rect x="115.17" y="19.87" width=".86" height=".86" />
    <path
      d="M117.74,20.73h.86v-.86h-.86v.86ZM95.41,21.59h.86v-.86h-.86v.86ZM94.55,21.59h.86v-.86h-.86v.86ZM93.69,21.59h.86v-.86h-.86v.86ZM92.83,21.59h.86v-.86h-.86v.86ZM91.97,21.59h.86v-.86h-.86v.86ZM91.12,21.59h.86v-.86h-.86v.86ZM90.26,21.59h.86v-.86h-.86v.86Z" />
    <polygon points="101.42 20.73 100.56 20.73 100.56 21.59 101.42 21.59 102.28 21.59 102.28 20.73 101.42 20.73" />
    <path d="M104.86,20.73h-.86v.86h1.72v-.86h-.86ZM105.72,21.59h.86v-.86h-.86v.86ZM106.58,21.59h.86v-.86h-.86v.86Z" />
    <rect x="109.15" y="20.73" width=".86" height=".86" />
    <rect x="110.87" y="20.73" width=".86" height=".86" />
    <polygon points="113.45 20.73 112.59 20.73 112.59 21.59 113.45 21.59 114.31 21.59 114.31 20.73 113.45 20.73" />
    <rect x="115.17" y="20.73" width=".86" height=".86" />
    <rect x="116.88" y="20.73" width=".86" height=".86" />
    <rect x="91.12" y="21.59" width=".86" height=".86" />
    <rect x="93.69" y="21.59" width=".86" height=".86" />
    <rect x="96.27" y="21.59" width=".86" height=".86" />
    <rect x="97.99" y="21.59" width=".86" height=".86" />
    <rect x="100.56" y="21.59" width=".86" height=".86" />
    <polygon points="104.86 21.59 104 21.59 104 22.45 104.86 22.45 105.72 22.45 105.72 21.59 104.86 21.59" />
    <rect x="106.58" y="21.59" width=".86" height=".86" />
    <polygon points="109.15 21.59 108.29 21.59 108.29 22.45 109.15 22.45 110.01 22.45 110.01 21.59 109.15 21.59" />
    <rect x="111.73" y="21.59" width=".86" height=".86" />
    <path d="M115.17,22.45h.86v-.86h-.86v.86ZM116.03,22.45h.86v-.86h-.86v.86Z" />
    <rect x="117.74" y="21.59" width=".86" height=".86" />
    <path d="M91.97,22.45h-.86v.86h1.72v-.86h-.86ZM92.83,23.31h.86v-.86h-.86v.86Z" />
    <rect x="95.41" y="22.45" width=".86" height=".86" />
    <rect x="97.99" y="22.45" width=".86" height=".86" />
    <rect x="101.42" y="22.45" width=".86" height=".86" />
    <path d="M104.86,22.45h-.86v.86h1.72v-.86h-.86ZM105.72,23.31h.86v-.86h-.86v.86Z" />
    <path d="M107.44,23.31h.86v-.86h-.86v.86ZM108.29,23.31h.86v-.86h-.86v.86Z" />
    <path d="M110.87,23.31h.86v-.86h-.86v.86ZM111.73,23.31h.86v-.86h-.86v.86Z" />
    <path d="M113.45,23.31h.86v-.86h-.86v.86ZM115.17,22.45h-.86v.86h1.72v-.86h-.86Z" />
    <rect x="90.26" y="23.31" width=".86" height=".86" />
    <rect x="91.97" y="23.31" width=".86" height=".86" />
    <rect x="94.55" y="23.31" width=".86" height=".86" />
    <path d="M97.13,24.17h.86v-.86h-.86v.86ZM97.99,24.17h.86v-.86h-.86v.86ZM99.7,23.31h-.86v.86h1.72v-.86h-.86Z" />
    <rect x="102.28" y="23.31" width=".86" height=".86" />
    <rect x="107.44" y="23.31" width=".86" height=".86" />
    <rect x="110.01" y="23.31" width=".86" height=".86" />
    <polygon points="112.59 23.31 111.73 23.31 111.73 24.17 112.59 24.17 113.45 24.17 113.45 23.31 112.59 23.31" />
    <rect x="116.03" y="23.31" width=".86" height=".86" />
    <path d="M117.74,24.17h.86v-.86h-.86v.86ZM91.12,25.03h.86v-.86h-.86v.86ZM90.26,25.03h.86v-.86h-.86v.86Z" />
    <rect x="92.83" y="24.17" width=".86" height=".86" />
    <rect x="95.41" y="24.17" width=".86" height=".86" />
    <rect x="97.99" y="24.17" width=".86" height=".86" />
    <path d="M99.7,25.03h.86v-.86h-.86v.86ZM101.42,24.17h-.86v.86h1.72v-.86h-.86ZM102.28,25.03h.86v-.86h-.86v.86Z" />
    <path d="M105.72,25.03h.86v-.86h-.86v.86ZM106.58,25.03h.86v-.86h-.86v.86Z" />
    <rect x="109.15" y="24.17" width=".86" height=".86" />
    <polygon points="112.59 24.17 111.73 24.17 111.73 25.03 112.59 25.03 113.45 25.03 113.45 24.17 112.59 24.17" />
    <rect x="115.17" y="24.17" width=".86" height=".86" />
    <rect x="116.88" y="24.17" width=".86" height=".86" />
    <rect x="90.26" y="25.03" width=".86" height=".86" />
    <rect x="91.97" y="25.03" width=".86" height=".86" />
    <rect x="94.55" y="25.03" width=".86" height=".86" />
    <path d="M97.99,25.89h.86v-.86h-.86v.86ZM99.7,25.03h-.86v.86h1.72v-.86h-.86ZM100.56,25.89h.86v-.86h-.86v.86Z" />
    <polygon points="103.14 25.03 102.28 25.03 102.28 25.89 103.14 25.89 104 25.89 104 25.03 103.14 25.03" />
    <path d="M104.86,25.89h.86v-.86h-.86v.86ZM105.72,25.89h.86v-.86h-.86v.86ZM106.58,25.89h.86v-.86h-.86v.86Z" />
    <polygon points="109.15 25.03 108.29 25.03 108.29 25.89 109.15 25.89 110.01 25.89 110.01 25.03 109.15 25.03" />
    <polygon points="113.45 25.03 112.59 25.03 112.59 25.89 113.45 25.89 114.31 25.89 114.31 25.03 113.45 25.03" />
    <path d="M115.17,25.89h.86v-.86h-.86v.86ZM116.88,25.03h-.86v.86h1.72v-.86h-.86Z" />
    <polygon points="93.69 25.89 92.83 25.89 92.83 26.74 93.69 26.74 94.55 26.74 94.55 25.89 93.69 25.89" />
    <path d="M95.41,26.74h.86v-.86h-.86v.86ZM97.13,25.89h-.86v.86h1.72v-.86h-.86Z" />
    <rect x="98.85" y="25.89" width=".86" height=".86" />
    <path d="M101.42,26.74h.86v-.86h-.86v.86ZM102.28,26.74h.86v-.86h-.86v.86Z" />
    <rect x="104" y="25.89" width=".86" height=".86" />
    <rect x="105.72" y="25.89" width=".86" height=".86" />
    <rect x="111.73" y="25.89" width=".86" height=".86" />
    <path d="M113.45,26.74h.86v-.86h-.86v.86ZM114.31,26.74h.86v-.86h-.86v.86Z" />
    <rect x="90.26" y="26.75" width=".86" height=".86" />
    <path d="M91.97,27.6h.86v-.86h-.86v.86ZM92.83,27.6h.86v-.86h-.86v.86Z" />
    <path d="M97.13,27.6h.86v-.86h-.86v.86ZM97.99,27.6h.86v-.86h-.86v.86Z" />
    <rect x="102.28" y="26.75" width=".86" height=".86" />
    <path d="M104.86,26.74h-.86v.86h1.72v-.86h-.86ZM105.72,27.6h.86v-.86h-.86v.86ZM106.58,27.6h.86v-.86h-.86v.86Z" />
    <rect x="108.29" y="26.75" width=".86" height=".86" />
    <polygon points="110.87 26.74 110.01 26.74 110.01 27.6 110.87 27.6 111.73 27.6 111.73 26.74 110.87 26.74" />
    <polygon points="113.45 26.74 112.59 26.74 112.59 27.6 113.45 27.6 114.31 27.6 114.31 26.74 113.45 26.74" />
    <rect x="117.74" y="26.75" width=".86" height=".86" />
    <path d="M91.97,27.6h-.86v.86h1.72v-.86h-.86ZM93.69,27.6h-.86v.86h1.72v-.86h-.86Z" />
    <path d="M95.41,28.46h.86v-.86h-.86v.86ZM97.13,27.6h-.86v.86h1.72v-.86h-.86Z" />
    <rect x="98.85" y="27.6" width=".86" height=".86" />
    <polygon points="101.42 27.6 100.56 27.6 100.56 28.46 101.42 28.46 102.28 28.46 102.28 27.6 101.42 27.6" />
    <rect x="103.14" y="27.6" width=".86" height=".86" />
    <rect x="105.72" y="27.6" width=".86" height=".86" />
    <path d="M107.44,28.46h.86v-.86h-.86v.86ZM109.15,27.6h-.86v.86h1.72v-.86h-.86Z" />
    <rect x="111.73" y="27.6" width=".86" height=".86" />
    <rect x="114.31" y="27.6" width=".86" height=".86" />
    <polygon points="116.88 27.6 116.02 27.6 116.02 28.46 116.88 28.46 117.74 28.46 117.74 27.6 116.88 27.6" />
    <rect x="91.97" y="28.46" width=".86" height=".86" />
    <rect x="93.69" y="28.46" width=".86" height=".86" />
    <rect x="98.85" y="28.46" width=".86" height=".86" />
    <polygon points="101.42 28.46 100.56 28.46 100.56 29.32 101.42 29.32 102.28 29.32 102.28 28.46 101.42 28.46" />
    <path
      d="M104.86,29.32h.86v-.86h-.86v.86ZM105.72,29.32h.86v-.86h-.86v.86ZM107.44,28.46h-.86v.86h1.72v-.86h-.86ZM108.29,29.32h.86v-.86h-.86v.86Z" />
    <path
      d="M110.87,28.46h-.86v.86h1.72v-.86h-.86ZM112.59,28.46h-.86v.86h1.72v-.86h-.86ZM113.45,29.32h.86v-.86h-.86v.86Z" />
    <path d="M115.17,29.32h.86v-.86h-.86v.86ZM116.88,28.46h-.86v.86h1.72v-.86h-.86Z" />
    <rect x="90.26" y="29.32" width=".86" height=".86" />
    <path d="M93.69,30.18h.86v-.86h-.86v.86ZM95.41,29.32h-.86v.86h1.72v-.86h-.86Z" />
    <path d="M97.13,30.18h.86v-.86h-.86v.86ZM97.99,30.18h.86v-.86h-.86v.86ZM99.7,29.32h-.86v.86h1.72v-.86h-.86Z" />
    <path d="M103.14,29.32h-.86v.86h1.72v-.86h-.86ZM104,30.18h.86v-.86h-.86v.86Z" />
    <rect x="106.58" y="29.32" width=".86" height=".86" />
    <path d="M110.87,30.18h.86v-.86h-.86v.86ZM111.73,30.18h.86v-.86h-.86v.86Z" />
    <path d="M113.45,30.18h.86v-.86h-.86v.86ZM115.17,29.32h-.86v.86h1.72v-.86h-.86Z" />
    <path d="M90.26,31.04h.86v-.86h-.86v.86ZM91.12,31.04h.86v-.86h-.86v.86Z" />
    <rect x="97.13" y="30.18" width=".86" height=".86" />
    <path d="M99.7,30.18h-.86v.86h1.72v-.86h-.86ZM101.42,30.18h-.86v.86h1.72v-.86h-.86Z" />
    <path d="M107.44,30.18h-.86v.86h1.72v-.86h-.86ZM108.29,31.04h.86v-.86h-.86v.86Z" />
    <rect x="110.01" y="30.18" width=".86" height=".86" />
    <rect x="112.59" y="30.18" width=".86" height=".86" />
    <path d="M115.17,31.04h.86v-.86h-.86v.86ZM116.03,31.04h.86v-.86h-.86v.86Z" />
    <path d="M117.74,31.04h.86v-.86h-.86v.86ZM90.26,31.9h.86v-.86h-.86v.86Z" />
    <path d="M91.97,31.9h.86v-.86h-.86v.86ZM92.83,31.9h.86v-.86h-.86v.86Z" />
    <polygon points="95.41 31.04 94.55 31.04 94.55 31.9 95.41 31.9 96.27 31.9 96.27 31.04 95.41 31.04" />
    <rect x="99.7" y="31.04" width=".86" height=".86" />
    <path d="M104.86,31.04h-.86v.86h1.72v-.86h-.86ZM105.72,31.9h.86v-.86h-.86v.86ZM106.58,31.9h.86v-.86h-.86v.86Z" />
    <rect x="108.29" y="31.04" width=".86" height=".86" />
    <rect x="113.45" y="31.04" width=".86" height=".86" />
    <path d="M115.17,31.9h.86v-.86h-.86v.86ZM116.88,31.04h-.86v.86h1.72v-.86h-.86Z" />
    <rect x="90.26" y="31.9" width=".86" height=".86" />
    <rect x="93.69" y="31.9" width=".86" height=".86" />
    <polygon points="97.13 31.9 96.27 31.9 96.27 32.76 97.13 32.76 97.99 32.76 97.99 31.9 97.13 31.9" />
    <path
      d="M99.7,31.9h-.86v.86h1.72v-.86h-.86ZM101.42,31.9h-.86v.86h1.72v-.86h-.86ZM103.14,31.9h-.86v.86h1.72v-.86h-.86Z" />
    <rect x="106.58" y="31.9" width=".86" height=".86" />
    <rect x="108.29" y="31.9" width=".86" height=".86" />
    <rect x="110.87" y="31.9" width=".86" height=".86" />
    <path d="M115.17,32.76h.86v-.86h-.86v.86ZM116.03,32.76h.86v-.86h-.86v.86Z" />
    <path d="M117.74,32.76h.86v-.86h-.86v.86ZM90.26,33.62h.86v-.86h-.86v.86Z" />
    <rect x="92.83" y="32.76" width=".86" height=".86" />
    <rect x="95.41" y="32.76" width=".86" height=".86" />
    <rect x="97.13" y="32.76" width=".86" height=".86" />
    <polygon points="99.7 32.76 98.85 32.76 98.85 33.62 99.71 33.62 100.56 33.62 100.56 32.76 99.7 32.76" />
    <rect x="101.42" y="32.76" width=".86" height=".86" />
    <path d="M103.14,33.62h.86v-.86h-.86v.86ZM104,33.62h.86v-.86h-.86v.86Z" />
    <polygon points="107.44 32.76 106.58 32.76 106.58 33.62 107.44 33.62 108.29 33.62 108.29 32.76 107.44 32.76" />
    <path
      d="M109.15,33.62h.86v-.86h-.86v.86ZM110.87,32.76h-.86v.86h1.72v-.86h-.86ZM112.59,32.76h-.86v.86h1.72v-.86h-.86ZM113.45,33.62h.86v-.86h-.86v.86ZM114.31,33.62h.86v-.86h-.86v.86Z" />
    <path d="M116.88,33.62h.86v-.86h-.86v.86ZM117.74,33.62h.86v-.86h-.86v.86Z" />
    <path d="M97.13,34.47h.86v-.86h-.86v.86ZM97.99,34.47h.86v-.86h-.86v.86ZM98.85,34.47h.86v-.86h-.86v.86Z" />
    <rect x="100.56" y="33.62" width=".86" height=".86" />
    <polygon points="103.14 33.62 102.28 33.62 102.28 34.48 103.14 34.48 104 34.48 104 33.62 103.14 33.62" />
    <path d="M105.72,34.48h.86v-.86h-.86v.86ZM107.44,33.62h-.86v.86h1.72v-.86h-.86Z" />
    <polygon points="110.87 33.62 110.01 33.62 110.01 34.48 110.87 34.48 111.73 34.48 111.73 33.62 110.87 33.62" />
    <path
      d="M117.74,34.48h.86v-.86h-.86v.86ZM116.88,34.48h.86v-.86h-.86v.86ZM116.03,34.48h.86v-.86h-.86v.86ZM115.17,34.48h.86v-.86h-.86v.86ZM114.31,34.48h.86v-.86h-.86v.86ZM95.41,35.33h.86v-.86h-.86v.86ZM94.55,35.33h.86v-.86h-.86v.86ZM93.69,35.33h.86v-.86h-.86v.86ZM92.83,35.33h.86v-.86h-.86v.86ZM91.97,35.33h.86v-.86h-.86v.86ZM91.12,35.33h.86v-.86h-.86v.86ZM90.26,35.33h.86v-.86h-.86v.86Z" />
    <path d="M101.42,35.33h.86v-.86h-.86v.86ZM103.14,34.48h-.86v.86h1.72v-.86h-.86Z" />
    <rect x="104.86" y="34.48" width=".86" height=".86" />
    <path d="M109.15,35.33h.86v-.86h-.86v.86ZM110.87,34.48h-.86v.86h1.72v-.86h-.86Z" />
    <rect x="112.59" y="34.48" width=".86" height=".86" />
    <rect x="114.31" y="34.48" width=".86" height=".86" />
    <rect x="116.88" y="34.48" width=".86" height=".86" />
    <rect x="90.26" y="35.33" width=".86" height=".86" />
    <rect x="95.41" y="35.33" width=".86" height=".86" />
    <rect x="98.85" y="35.33" width=".86" height=".86" />
    <polygon points="101.42 35.33 100.56 35.33 100.56 36.19 101.42 36.19 102.28 36.19 102.28 35.33 101.42 35.33" />
    <path d="M103.14,36.19h.86v-.86h-.86v.86ZM104.86,35.33h-.86v.86h1.72v-.86h-.86Z" />
    <rect x="106.58" y="35.33" width=".86" height=".86" />
    <polygon points="110.87 35.33 110.01 35.33 110.01 36.19 110.87 36.19 111.73 36.19 111.73 35.33 110.87 35.33" />
    <path
      d="M117.74,36.19h.86v-.86h-.86v.86ZM116.88,36.19h.86v-.86h-.86v.86ZM116.03,36.19h.86v-.86h-.86v.86ZM115.17,36.19h.86v-.86h-.86v.86ZM114.31,36.19h.86v-.86h-.86v.86ZM90.26,37.05h.86v-.86h-.86v.86Z" />
    <path d="M91.97,37.05h.86v-.86h-.86v.86ZM93.69,36.19h-.86v.86h1.72v-.86h-.86Z" />
    <rect x="95.41" y="36.19" width=".86" height=".86" />
    <path
      d="M97.13,37.05h.86v-.86h-.86v.86ZM97.99,37.05h.86v-.86h-.86v.86ZM99.7,36.19h-.86v.86h1.72v-.86h-.86ZM101.42,36.19h-.86v.86h1.72v-.86h-.86Z" />
    <rect x="104" y="36.19" width=".86" height=".86" />
    <path d="M105.72,37.05h.86v-.86h-.86v.86ZM106.58,37.05h.86v-.86h-.86v.86Z" />
    <polygon points="109.15 36.19 108.29 36.19 108.29 37.05 109.15 37.05 110.01 37.05 110.01 36.19 109.15 36.19" />
    <path
      d="M110.87,37.05h.86v-.86h-.86v.86ZM112.59,36.19h-.86v.86h1.72v-.86h-.86ZM113.45,37.05h.86v-.86h-.86v.86ZM115.17,36.19h-.86v.86h1.72v-.86h-.86Z" />
    <path d="M117.74,37.05h.86v-.86h-.86v.86ZM116.88,37.05h.86v-.86h-.86v.86ZM90.26,37.91h.86v-.86h-.86v.86Z" />
    <path d="M91.97,37.91h.86v-.86h-.86v.86ZM93.69,37.05h-.86v.86h1.72v-.86h-.86Z" />
    <rect x="95.41" y="37.05" width=".86" height=".86" />
    <path d="M97.13,37.91h.86v-.86h-.86v.86ZM97.99,37.91h.86v-.86h-.86v.86Z" />
    <rect x="100.56" y="37.05" width=".86" height=".86" />
    <rect x="102.28" y="37.05" width=".86" height=".86" />
    <rect x="105.72" y="37.05" width=".86" height=".86" />
    <path d="M107.44,37.91h.86v-.86h-.86v.86ZM108.29,37.91h.86v-.86h-.86v.86Z" />
    <path d="M110.87,37.05h-.86v.86h1.72v-.86h-.86ZM111.73,37.91h.86v-.86h-.86v.86Z" />
    <rect x="114.31" y="37.05" width=".86" height=".86" />
    <path d="M117.74,37.91h.86v-.86h-.86v.86ZM90.26,38.77h.86v-.86h-.86v.86Z" />
    <path d="M91.97,38.77h.86v-.86h-.86v.86ZM93.69,37.91h-.86v.86h1.72v-.86h-.86Z" />
    <rect x="95.41" y="37.91" width=".86" height=".86" />
    <path d="M97.13,38.77h.86v-.86h-.86v.86ZM97.99,38.77h.86v-.86h-.86v.86ZM98.85,38.77h.86v-.86h-.86v.86Z" />
    <rect x="100.56" y="37.91" width=".86" height=".86" />
    <path d="M103.14,37.91h-.86v.86h1.72v-.86h-.86ZM104,38.77h.86v-.86h-.86v.86Z" />
    <rect x="105.72" y="37.91" width=".86" height=".86" />
    <path d="M107.44,38.77h.86v-.86h-.86v.86ZM109.15,37.91h-.86v.86h1.72v-.86h-.86Z" />
    <polygon points="112.59 37.91 111.73 37.91 111.73 38.77 112.59 38.77 113.45 38.77 113.45 37.91 112.59 37.91" />
    <rect x="115.17" y="37.91" width=".86" height=".86" />
    <rect x="90.26" y="38.77" width=".86" height=".86" />
    <rect x="95.41" y="38.77" width=".86" height=".86" />
    <path d="M97.99,39.63h.86v-.86h-.86v.86ZM98.85,39.63h.86v-.86h-.86v.86Z" />
    <path d="M101.42,39.63h.86v-.86h-.86v.86ZM103.14,38.77h-.86v.86h1.72v-.86h-.86Z" />
    <path d="M104.86,39.63h.86v-.86h-.86v.86ZM105.72,39.63h.86v-.86h-.86v.86Z" />
    <rect x="107.44" y="38.77" width=".86" height=".86" />
    <rect x="113.45" y="38.77" width=".86" height=".86" />
    <path d="M115.17,39.63h.86v-.86h-.86v.86ZM116.03,39.63h.86v-.86h-.86v.86Z" />
    <path
      d="M90.26,40.49h.86v-.86h-.86v.86ZM91.97,39.63h-.86v.86h1.72v-.86h-.86ZM93.69,39.63h-.86v.86h1.72v-.86h-.86ZM95.41,39.63h-.86v.86h1.72v-.86h-.86Z" />
    <rect x="97.99" y="39.63" width=".86" height=".86" />
    <rect x="99.7" y="39.63" width=".86" height=".86" />
    <rect x="102.28" y="39.63" width=".86" height=".86" />
    <rect x="104.86" y="39.63" width=".86" height=".86" />
    <polygon points="107.44 39.63 106.58 39.63 106.58 40.49 107.44 40.49 108.29 40.49 108.29 39.63 107.44 39.63" />
    <polygon points="110.87 39.63 110.01 39.63 110.01 40.49 110.87 40.49 111.73 40.49 111.73 39.63 110.87 39.63" />
    <rect x="112.59" y="39.63" width=".86" height=".86" />
    <rect x="116.88" y="39.63" width=".86" height=".86" />
  </g>
  <g id="fsc">
    <path
      d="M36.5,42.49H13.86c-.77,0-1.4-.63-1.4-1.4V8.67c0-.77.63-1.4,1.4-1.4h22.64c.77,0,1.4.63,1.4,1.4v32.42c0,.77-.63,1.4-1.4,1.4M13.86,7.52c-.63,0-1.15.51-1.15,1.15v32.42c0,.63.51,1.15,1.15,1.15h22.64c.63,0,1.14-.52,1.14-1.15V8.67c0-.63-.51-1.15-1.14-1.15H13.86Z" />
    <path
      d="M30.42,9.6c.22,0,.4.08.56.23s.23.34.23.56-.08.4-.23.56c-.15.16-.34.23-.56.23s-.4-.08-.56-.23c-.15-.15-.23-.34-.23-.56s.08-.4.23-.56c.15-.16.34-.23.56-.23M30.42,11.05c.18,0,.34-.06.46-.19.13-.13.19-.28.2-.47,0-.18-.06-.34-.19-.46-.13-.13-.28-.19-.47-.19-.18,0-.34.06-.46.19-.13.13-.19.28-.19.47,0,.18.06.34.19.47.13.13.28.19.47.2M30.79,10.83h-.17c-.11-.19-.17-.3-.21-.33l-.12-.04h-.08v.36h-.14v-.85h.29l.2.02.11.08.04.13-.06.16-.18.08s.12.08.2.21l.1.17h.02,0ZM30.21,10.35h.17l.16-.03.04-.09-.04-.09-.17-.03h-.16v.26-.02Z" />
    <path
      d="M25.52,9.41c-3.3,0-4.46,5.13-5.55,9.26-.39-.4-1.6-1.6-1.6-1.6-.24-.24-.52-.16-.69,0-.17.17-.2.49,0,.68,0,0,1.63,1.63,2.2,2.19.16.15.38.24.6.11.23-.14.26-.4.27-.4,1.93-8.64,3.64-9.28,4.76-9.28.94,0,2.02.69,2.02,2.09,1.4,0,2.28,1.84,1.15,2.98.94.45,1.35,1.01,1.35,1.71s-.59,1.43-1.45,1.42c-.85,0-1.29-.55-1.95-.55-.3,0-.49.24-.49.48v1.74h-1.26v-1.74c0-.27-.2-.49-.45-.49h-.11l-1.68.21c-.2.03-.39.25-.39.48,0,.27.22.49.52.49h.08l1.07-.14v1.72c0,.22.25.43.47.43h2.24c.26,0,.49-.22.49-.49v-1.57c.47.29,1.12.4,1.45.4,1.25,0,2.45-.99,2.44-2.43,0-1.31-1.01-1.97-1.01-1.97.59-1.57-.36-3.08-1.59-3.5-.45-1.62-1.83-2.24-2.89-2.24" />
    <path
      d="M24.11,23.15c0,.41.45.65,1.2,1,.59.28.93.57.93.81,0,.38-.41.52-.79.52-.59,0-.94-.24-1.14-.77v-.05h-.06c-.11,0-.19,0-.24.06v.19l.12.54c.03.13.08.16.29.2.09.02.57.1.98.1,1.13,0,1.64-.46,1.64-.92,0-.33-.33-.65-1.04-1.01l-.32-.16c-.49-.23-.78-.37-.78-.61s.3-.4.74-.4c.57,0,.72.32.79.59v.05h.07c.13,0,.2-.01.25-.06l.03-.12-.04-.47c-.01-.15-.13-.17-.29-.2-.19-.04-.42-.08-.76-.08-.98,0-1.57.29-1.57.77" />
    <path
      d="M27.37,24.1c0,.82.71,1.65,2.07,1.65.69,0,1.07-.16,1.36-.31l.08-.04-.13-.14-.1-.05-.07.02c-.1.05-.42.19-.99.19-.7,0-1.46-.46-1.46-1.47s.82-1.31,1.53-1.31c.51,0,.77.18.82.56v.06h.06c.06,0,.22,0,.22-.12v-.56c0-.14-.16-.16-.22-.17h-.07c-.16-.02-.32-.04-.73-.04-1.37,0-2.38.72-2.38,1.72" />
    <path
      d="M22.24,22.41h-2.17l-.12.13s0,.14.14.14c.49,0,.51.04.52.23v1.71c0,.18,0,.47-.02.7,0,.07,0,.13-.44.13-.12,0-.19.02-.19.15,0,.03,0,.13.12.13h1.85c.1,0,.18-.01.18-.13,0-.14-.11-.15-.29-.15-.44,0-.44-.06-.45-.13,0-.21-.02-.5-.02-.7v-.39h.37c.56,0,.63.01.71.45.02.09.1.11.16.11.13,0,.15-.07.15-.1v-.16c-.01-.09-.03-.21-.03-.37v-.67c0-.1-.12-.1-.18-.1-.11,0-.13.07-.2.38-.03.12-.26.19-.64.19h-.33v-.98c0-.27.05-.27.1-.27.22,0,.74-.03.89-.03s.28.03.37.09c.28.17.42.29.51.36l.2.11s.16,0,.16-.1l-.05-.13c-.05-.1-.12-.27-.22-.52-.03-.08-.12-.08-.29-.08h-.79Z" />
    <path
      d="M24.69,31.26h-.26v-1.71l-.59,1.71h-.24l-.59-1.74h-.01v1.74h-.26v-2.05h.4l.48,1.45c.06.16.08.26.09.3.02-.08.06-.19.11-.33l.49-1.42h.36v2.05h.02Z" />
    <rect x="25.28" y="29.22" width=".27" height="2.05" />
    <path
      d="M27.81,31.26h-.33l-.41-.58c-.1-.14-.16-.24-.19-.29,0,.02-.21.31-.62.87h-.33l.79-1.07-.7-.98h.32l.43.61.1.17c.04-.06.23-.32.57-.78h.3l-.72.96.78,1.08h.01Z" />
    <path
      d="M20.25,39.88c-.08.07-.18.11-.29.11-.15,0-.28-.06-.37-.17s-.14-.31-.14-.58.05-.44.14-.55c.1-.11.22-.17.38-.17.11,0,.21.03.29.1.08.06.13.15.16.26l.42-.1c-.05-.17-.12-.3-.21-.4-.16-.16-.37-.23-.63-.23-.29,0-.53.1-.71.3-.18.2-.27.47-.27.83,0,.34.09.6.27.8.18.19.41.29.69.29.23,0,.41-.06.56-.17.15-.11.25-.29.32-.52l-.41-.13c-.03.16-.09.27-.17.34M17.27,40.18c.14.13.35.19.61.19.18,0,.33-.03.46-.08.12-.05.22-.13.28-.24.07-.11.1-.22.1-.34,0-.14-.03-.25-.08-.34-.06-.09-.13-.17-.23-.22-.1-.05-.25-.1-.46-.15-.21-.05-.34-.1-.39-.14-.04-.04-.06-.08-.06-.13s.02-.1.07-.13c.07-.05.17-.08.29-.08s.21.02.27.07c.06.05.1.13.12.24l.42-.02c0-.2-.08-.35-.21-.47-.13-.12-.33-.18-.6-.18-.16,0-.3.03-.41.07-.11.05-.2.12-.26.22-.06.09-.09.2-.09.31,0,.17.07.31.19.43.09.08.25.15.48.21.18.05.29.08.34.09.07.03.12.06.15.09.03.04.04.08.04.13,0,.08-.03.15-.1.21-.07.06-.17.09-.31.09-.13,0-.23-.03-.31-.1-.08-.07-.13-.17-.15-.31l-.41.04c.03.24.11.42.26.55M15.75,40.33v-.91h.88v-.36h-.88v-.51h1.02v-.36h-1.44v2.14h.43-.01Z" />
    <path
      d="M21.47,38.47h.21l.05.03.02.05-.02.05-.05.03h-.21v-.19.02h0ZM21.47,39.06v-.29h.04l.1.03s.06.07.09.14l.06.11h.17l-.08-.14s-.04-.08-.05-.08l-.05-.05-.05-.03c.06,0,.1-.03.14-.07.03-.04.05-.08.05-.13l-.03-.1-.06-.07s-.06-.02-.11-.03h-.36v.69h.14v.02ZM21.88,38.25c.08.04.15.11.19.19.05.08.07.17.07.27s-.02.18-.07.26c-.04.08-.11.15-.19.19-.08.05-.17.07-.26.07s-.17-.02-.26-.07c-.08-.05-.14-.11-.19-.19-.04-.08-.07-.17-.07-.26s.02-.18.07-.27c.05-.08.11-.15.19-.19.08-.05.17-.07.25-.07s.17.02.25.07M21.31,38.14c-.1.05-.18.14-.24.24-.06.1-.09.21-.09.33s.03.22.08.32c.06.1.14.18.24.24s.21.09.32.09.22-.03.32-.09.18-.14.24-.24c.06-.1.09-.21.09-.32s-.03-.22-.09-.33-.14-.19-.24-.24c-.1-.06-.21-.08-.32-.08s-.22.03-.32.08" />
    <path
      d="M24.43,39.88c-.08.07-.18.11-.29.11-.15,0-.28-.06-.37-.17s-.14-.31-.14-.58c0-.25.05-.44.15-.55s.22-.17.38-.17c.11,0,.21.03.29.1.08.06.13.15.15.26l.42-.1c-.05-.17-.12-.3-.22-.39-.16-.16-.37-.23-.63-.23-.29,0-.53.1-.71.3-.18.2-.27.47-.27.83,0,.34.09.6.27.8.18.19.41.29.69.29.22,0,.41-.06.56-.17.15-.11.25-.29.32-.52l-.41-.13c-.04.16-.09.27-.17.34" />
    <path
      d="M33.62,38.59v-.38h1.41v.3c-.12.11-.23.28-.35.49-.12.21-.21.44-.27.68s-.09.46-.09.64h-.4c0-.3.07-.6.18-.91.12-.31.27-.58.46-.83h-.94ZM32.75,39.53v-.73l-.49.73h.49ZM32.75,40.32v-.43h-.88v-.36l.93-1.36h.35v1.36h.27v.36h-.27v.43h-.4ZM31.67,39.94v.38h-1.44c.02-.14.06-.28.14-.41s.23-.3.46-.52c.19-.17.3-.29.34-.35.06-.08.08-.17.08-.25,0-.09-.02-.16-.07-.21s-.12-.07-.2-.07-.15.03-.21.08c-.05.05-.08.14-.09.26l-.41-.04c.03-.23.1-.39.23-.49.13-.1.29-.15.48-.15.21,0,.38.06.5.17.12.11.18.26.18.43,0,.1-.02.19-.05.28-.03.09-.09.18-.16.27-.05.06-.14.16-.27.27-.13.12-.21.2-.25.24-.03.04-.06.08-.08.11h.82ZM29.66,40.32h-.41v-1.55c-.15.14-.33.25-.53.31v-.37c.11-.04.22-.1.35-.2.13-.1.21-.21.26-.34h.33v2.16h0ZM28.33,39.94v.38h-1.44c.02-.14.06-.28.14-.41s.23-.3.46-.52c.19-.17.3-.29.34-.35.06-.08.08-.17.08-.25,0-.09-.02-.16-.07-.21s-.12-.07-.2-.07-.15.03-.21.08c-.05.05-.08.14-.09.26l-.41-.04c.02-.23.1-.39.23-.49.13-.1.29-.15.48-.15.21,0,.38.06.5.17.12.11.18.26.18.43,0,.1-.02.19-.05.28-.03.09-.09.18-.17.27-.05.06-.14.16-.27.27-.13.12-.21.2-.25.24s-.06.08-.08.11h.83ZM26.33,40.32h-.41v-1.55c-.15.14-.33.25-.53.31v-.37c.11-.04.22-.1.35-.2.13-.1.21-.21.26-.34h.33v2.16h0Z" />
    <path
      d="M22.53,35.31h.53s.09-.02.12-.04.06-.05.08-.09.03-.08.03-.13c0-.06-.01-.11-.04-.15s-.07-.08-.12-.09c-.05-.02-.13-.03-.23-.03h-.36v.54h-.01ZM22.53,34.58h.34c.09,0,.16,0,.2-.02.05-.02.09-.04.12-.08s.04-.08.04-.14c0-.05-.01-.1-.04-.14s-.06-.07-.11-.08c-.05-.02-.13-.02-.24-.02h-.32v.48h0ZM22.32,35.5v-1.57h.59c.12,0,.22.02.29.05.07.03.13.08.17.15s.06.14.06.21-.02.13-.05.19c-.04.06-.09.11-.17.14.09.03.17.08.22.14.05.07.08.15.08.24,0,.07-.01.14-.05.2-.03.06-.07.11-.12.15-.04.03-.1.06-.17.08s-.15.03-.25.03h-.6Z" />
    <path
      d="M23.9,34.93c0,.15.03.26.1.33.06.07.14.11.24.11s.18-.04.24-.11.1-.18.1-.33-.03-.25-.1-.32c-.06-.07-.14-.11-.24-.11s-.18.04-.24.11-.1.18-.1.33M23.7,34.94c0-.21.06-.37.18-.47.1-.08.22-.13.36-.13.16,0,.29.05.38.15.1.1.15.24.15.43,0,.15-.02.26-.07.35-.04.08-.11.15-.19.2s-.18.07-.28.07c-.16,0-.29-.05-.39-.15-.1-.1-.15-.25-.15-.44" />
    <path
      d="M25.73,34.92c-.07.03-.18.05-.32.07-.08,0-.14.02-.17.04-.03,0-.06.04-.08.06-.02.03-.03.06-.03.09,0,.05.02.09.06.13.04.03.1.05.17.05s.14-.02.2-.05c.06-.03.1-.08.13-.13.02-.04.03-.11.03-.19v-.07h.01ZM25.73,35.36c-.07.06-.14.1-.21.13s-.14.04-.21.04c-.12,0-.22-.03-.29-.09-.07-.06-.1-.14-.1-.23,0-.06.01-.11.04-.15.03-.05.06-.08.1-.11s.09-.05.14-.06c.04,0,.1-.02.17-.03.16-.02.27-.04.35-.07v-.05c0-.08-.02-.13-.05-.17-.05-.04-.12-.07-.22-.07-.09,0-.16.02-.2.05s-.08.09-.1.17l-.19-.03c.02-.08.05-.15.08-.2.04-.05.1-.09.17-.11.08-.03.16-.04.26-.04s.18,0,.24.03.1.05.13.09c.03.03.05.08.06.13,0,.03.01.09.01.18v.26c0,.18,0,.29.01.34,0,.05.03.09.05.14h-.2s-.03-.09-.04-.14" />
    <path
      d="M26.22,35.5v-1.14h.17v.17c.04-.08.08-.13.12-.16s.08-.04.12-.04c.06,0,.13.02.2.06l-.07.18s-.1-.04-.14-.04-.08,0-.11.04c-.03.03-.06.06-.07.11-.02.07-.03.14-.03.23v.6h-.19Z" />
    <path
      d="M27.08,34.93c0,.15.03.26.09.33.06.07.13.11.22.11s.16-.04.22-.1c.06-.07.09-.18.09-.32,0-.16-.03-.27-.09-.34s-.13-.11-.22-.11-.16.03-.22.11c-.06.07-.09.18-.09.33M27.7,35.5v-.14c-.07.11-.18.17-.32.17-.09,0-.18-.03-.25-.07-.08-.05-.14-.12-.18-.21s-.06-.19-.06-.31.02-.22.06-.31c.04-.09.09-.16.17-.21s.16-.08.25-.08c.07,0,.13.02.18.04.05.03.1.07.13.11v-.56h.19v1.57h-.18s.01,0,.01,0Z" />
  </g>
  <g>
    <path
      d="M.25.25v198.43h127.56V.25H.25ZM64.03,26.89c-2.82,0-5.1-2.28-5.1-5.1s2.28-5.1,5.1-5.1,5.1,2.28,5.1,5.1-2.29,5.1-5.1,5.1Z"
      style="fill: none; stroke: #e50695; stroke-width: .5px;" />
    <line x1="11.1" y1="87.36" x2="116.96" y2="87.36"
      style="fill: none; stroke: #000; stroke-miterlimit: 10; stroke-width: .47px;" />
    <line x1="11.1" y1="64.33" x2="116.96" y2="64.33"
      style="fill: none; stroke: #000; stroke-miterlimit: 10; stroke-width: .47px;" />
    <line x1="64.03" y1="64.14" x2="64.03" y2="87.09"
      style="fill: none; stroke: #000; stroke-miterlimit: 10; stroke-width: .47px;" />
    <line x1="11.1" y1="64.32" x2="116.96" y2="64.32"
      style="fill: none; stroke: #000; stroke-miterlimit: 10; stroke-width: 1.2px;" />
    <line x1="11.1" y1="48.61" x2="116.96" y2="48.61"
      style="fill: none; stroke: #000; stroke-miterlimit: 10; stroke-width: 1.2px;" />
    <line x1=".25" y1="166.3" x2="127.81" y2="166.3"
      style="fill: none; stroke: #74bf44; stroke-dasharray: 2 3 2 3 2 3; stroke-width: .5px;" />
  </g>
  <g id="apparal_catagories">

    <text id="MAN" y="25.3%" x="50.8%" text-anchor="middle" 
      style="font-family: Barlow-Bold, Barlow; font-size: 10px; font-weight: 700; isolation: isolate;letter-spacing:2;display:none">
      <tspan>MAN</tspan>
    </text>

    <text id="WOMAN"  y="25.3%" x="50.8%" text-anchor="middle"
      style="font-family: Barlow-Bold, Barlow; font-size: 10px; font-weight: 700; isolation: isolate;letter-spacing:2;display:none">
      <tspan>WOMAN</tspan>
    </text>

    <text id="KIDS"  y="25.3%" x="50.8%" text-anchor="middle"
      style="font-family: Barlow-Bold, Barlow; font-size: 10px; font-weight: 700; isolation: isolate;letter-spacing:2;display:none">
      <tspan>KIDS</tspan>
    </text>

    <text id="FAGOTTINO"  y="25.3%" x="50.8%" text-anchor="middle"
      style="font-family: Barlow-Bold, Barlow; font-size: 10px; font-weight: 700; isolation: isolate;letter-spacing:2;display:none">
      <tspan>FAGOTTINO</tspan>
    </text>


  </g>
  <g id="Recycle">
    <path d="M7.52,129.26h-3.43c-.79,0-1.44-.65-1.44-1.44v-4.3c0-.79.65-1.44,1.44-1.44h3.43v7.17Z" />
    <path
      d="M6.8,126.93h-1.45v-.78h-.59v.78h-.83v-.97h-.58v1.64h3.43v-.67h.01ZM6.8,124.96h-1.35v-.22l1.35-.35v-.7l-1.51.44c-.14-.26-.44-.39-.9-.39-.33,0-.6.08-.76.24-.17.16-.25.39-.25.69v.98h3.43v-.68h-.01ZM3.94,124.96v-.24c0-.21.16-.31.5-.31s.51.1.51.3v.25h-1Z" />
    <path d="M13.91,161.5h11.52v-32.18c0-3.97-3.18-7.21-7.11-7.21H6.8v32.18c0,3.97,3.18,7.21,7.11,7.21" />
    <path d="M13.91,160.78c-3.52,0-6.39-2.91-6.39-6.5v-31.48h10.81c3.52,0,6.39,2.91,6.39,6.5v31.48h-10.81Z"
      style="fill: #fff;" />
    <path d="M6.8,154.28c0,3.97,3.18,7.21,7.11,7.21h11.52v-22.92l-9.31,4.59-9.31-4.59v15.71h-.01Z" />
    <path d="M13.91,160.78c-3.52,0-6.39-2.91-6.39-6.5v-14.56l8.59,4.24,8.59-4.24v21.05h-10.81.01Z" />
    <path
      d="M20.23,156.39h-.57c.21-2.37.55-6.02.7-7.68.02-.17-.11-.32-.27-.33-.17-.02-.32.11-.33.27-.24,2.55-.89,9.81-.9,9.9-.01.12-.13.22-.27.22h-4.96c-.14,0-.26-.1-.27-.22,0-.07-.66-7.35-.9-9.9-.02-.17-.16-.29-.33-.27-.17.02-.29.17-.27.33.16,1.66.49,5.32.7,7.69h-.57c-.29,0-.54.23-.54.53v1.92c0,.29.24.54.54.54h.45c.22,0,.41-.13.5-.33.16.2.41.33.7.33h4.96c.28,0,.54-.13.7-.32.08.19.27.32.5.32h.45c.29,0,.54-.24.54-.54v-1.92c0-.29-.24-.54-.54-.54"
      style="fill: #fff;" />
    <path
      d="M20.56,147.27h-8.88v-.78h.66l.2-.07.81-.71s.12-.06.23-.06h5.1c.11,0,.2.03.23.06l.81.71.19.07h.65v.78h0ZM20.55,145.9h-.54l-.72-.63c-.15-.13-.38-.21-.63-.21h-5.1c-.24,0-.48.08-.63.21l-.72.63h-.53c-.33,0-.61.28-.61.64v.81c0,.11.03.22.08.32l.1.1c.1.07.21.1.33.1h9.08c.11,0,.23-.03.32-.1l.1-.1c.05-.1.08-.21.08-.32v-.81c0-.35-.27-.64-.61-.64"
      style="fill: #fff;" />
    <path d="M18.67,145.94h-5.1c-.14,0-.25.11-.25.25s.11.25.25.25h5.1c.14,0,.25-.11.25-.25s-.11-.25-.25-.25"
      style="fill: #fff;" />
    <path
      d="M18.62,151.77c-.06-.15-.24-.23-.39-.16-.15.06-.23.24-.16.39.1.25.16.53.16.8,0,1.15-.94,2.1-2.1,2.1s-2.1-.94-2.1-2.1.94-2.1,2.1-2.1h.02l-.43.43c-.12.12-.12.31,0,.42l.21.09.21-.09.95-.95c.12-.12.12-.31,0-.42l-.95-.95c-.12-.12-.31-.12-.42,0-.12.12-.12.31,0,.42l.43.43h-.03c-1.5,0-2.71,1.21-2.71,2.7s1.21,2.71,2.71,2.71,2.71-1.21,2.71-2.71c0-.35-.07-.71-.2-1.03"
      style="fill: #fff;" />
    <path d="M7.52,129.26h-3.43c-.79,0-1.44-.65-1.44-1.44v-4.3c0-.79.65-1.44,1.44-1.44h3.43v7.17Z" />
    <path
      d="M6.8,126.93h-1.45v-.78h-.59v.78h-.83v-.97h-.58v1.64h3.43v-.67h.01ZM6.8,124.96h-1.35v-.22l1.35-.35v-.7l-1.51.44c-.14-.26-.44-.39-.9-.39-.33,0-.6.08-.76.24-.17.16-.25.39-.25.69v.98h3.43v-.68h-.01ZM3.94,124.96v-.24c0-.21.16-.31.5-.31s.51.1.51.3v.25h-1Z"
      style="fill: #fff;" />
    <path
      d="M17.14,111.89c-.77,1.13-.11,2.62.68,3.38.73.69,1.3.85,1.38.87l.36-.71,1.07,2.91-3.01.62.4-.74-.4-.23c-1.27-.83-1.54-1.95-1.63-2.3-.15-.61-.37-2.41,1.15-3.79" />
    <path
      d="M17.12,111.94c.55,1.25,2.15,1.5,3.22,1.22.94-.24,1.38-.63,1.47-.7h0l-.4-.71,3.03.67-1.1,2.87-.4-.73-.39.21c-1.37.64-2.47.26-2.81.15-.59-.19-2.24-.97-2.6-3" />
    <path
      d="M22.49,108.9c-.21,1.5-1.11,2.22-1.39,2.45-.49.39-2.02,1.36-3.92.57,1.35.21,2.43-1,2.77-2.05.31-.93.22-1.53.2-1.62h-.01l-.81-.04,2.19-2.2,1.83,2.48-.83-.05-.03.45v.02Z" />
    <path d="M13.29,107.64c-.69,0-1.25-.56-1.25-1.25s.57-1.25,1.25-1.25,1.25.56,1.25,1.25-.57,1.25-1.25,1.25" />
    <path
      d="M11.35,113.74c.11-.29.26-.27.26-.27,0,0,.14-.03.22.26l1.17,4.11c-.98-.28-1.87-.77-2.63-1.4l.96-2.69h.01ZM15,102.76c-4.52,0-8.2,3.68-8.2,8.2s3.68,8.2,8.2,8.2c.24,0,.48-.02.72-.04l.06.83,1.5-1.46-1.68-1.28.06.87c-.21.02-.43.03-.66.03-.34,0-.69-.03-1.02-.07l-.03-.22-.78-6.64c-.11-1.25.61-1.46,1.05-1.26l2.49,1c.28.12.42-.12.42-.12,0,0,.16-.25-.12-.43,0,0-3.39-2.24-4.11-2.39-.98-.18-1.96.62-2.17,1.66l-1.2,5.89c-1.03-1.24-1.66-2.84-1.66-4.58,0-3.94,3.21-7.16,7.16-7.16,2.1,0,4,.92,5.32,2.38l.74-.75c-1.51-1.64-3.66-2.67-6.05-2.67" />
    <path
      d="M13.07,129.67l.21.1.17-.06c.11-.09.13-.26.04-.37l-.09-.1c.1-.05.21-.08.32-.08.21,0,.42.09.56.26.25.3.21.77-.09,1.02-.13.11-.29.16-.46.16-.21,0-.42-.09-.56-.26-.17-.2-.2-.46-.12-.7l.03.04h-.01ZM12.05,128.43l.62.75c-.11.17-.18.36-.2.57-.03.33.07.67.28.92.24.29.6.45.97.45.29,0,.58-.1.81-.29.54-.44.61-1.24.16-1.78-.24-.29-.6-.45-.97-.45-.24,0-.48.07-.68.2l-.63-.76h.01l.11-.02.04-.03h.06l2.63.28c.2.02.5.18.63.33l5.25,6.33c.08.09.06.23-.03.31l-3.48,2.88-.14.05-.17-.08-5.25-6.33c-.13-.15-.23-.49-.22-.68l.17-2.6v-.07h.03ZM21.57,134.6l-5.25-6.33c-.21-.26-.65-.5-.98-.53l-2.64-.28h-.12l-.81-1.79c-.06-.13-.22-.19-.35-.13l-.14.15v.2l.75,1.63h-.02l-1.05-1.26c-.09-.11-.26-.13-.38-.04-.11.1-.13.26-.03.37l1.09,1.31c-.07.17-.11.37-.12.55l-.17,2.6c-.02.33.13.8.34,1.06l5.25,6.33c.14.17.36.27.59.27.18,0,.35-.06.49-.17l3.48-2.88c.15-.13.25-.31.27-.52s-.04-.4-.17-.56" />
  </g>
  <rect id="size_rect" x="11.67" y="88.24" width="104.72" height="22.39" style="fill: none;" />
  <g id="made_in">
    <path
      d="M108.12,160.88h-2.53s-.04-.01-.04-.04v-.19s0-.03.03-.04l1.01-.42s0,0,0-.01c0,0,0,0,0-.01l-1.01-.42s-.03-.02-.03-.04v-.19s.01-.04.04-.04h2.53s.04.01.04.04v.19s-.01.04-.04.04h-1.9s-.01,0-.01,0c0,0,0,0,0,.01l.86.38s.03.02.03.03c0,.02-.01.03-.03.04l-.87.39s0,0,0,.01c0,0,0,0,.01,0h1.91s.04.01.04.04v.19s-.01.04-.04.04"
      style="fill: #010101;" />
    <path
      d="M107.43,158.66v-.58s0-.01-.01-.01l-1.43.29s-.01,0-.01,0c0,0,0,0,.01,0l1.43.3s.01,0,.01-.01M108.12,157.92l-.46.09s0,0-.01,0c0,0,0,0,0,.01v.67s0,0,0,.01c0,0,0,0,.01,0l.46.1s.03.02.03.04v.19s0,.02-.01.03c0,0-.02,0-.03,0l-2.53-.56s-.03-.02-.03-.04v-.22s.01-.04.03-.04l2.53-.57h0s.03.01.03.03v.19s-.01.04-.03.04"
      style="fill: #010101;" />
    <path
      d="M107.92,156.97v-.33c0-.11-.05-.2-.13-.26-.08-.07-.2-.1-.34-.1h-1.2c-.15,0-.26.03-.35.1-.08.06-.13.15-.13.27v.33s0,.01.02.01h2.11s.01,0,.01-.01M108.12,157.25h-2.53s-.04-.01-.04-.04v-.57c0-.19.06-.34.19-.46.12-.11.29-.17.5-.17h1.22c.21,0,.38.06.5.17.13.11.19.27.19.46v.57s-.01.04-.04.04"
      style="fill: #010101;" />
    <path
      d="M105.78,154.38v.86s0,.02.02.02h.92s.01,0,.01-.02v-.54s.01-.04.04-.04h.16s.04.01.04.04v.54s0,.02.02.02h.93s.02,0,.02-.02v-.86s.01-.04.04-.04h.16s.04.01.04.04v1.1s-.01.04-.04.04h-2.53s-.04-.01-.04-.04v-1.1s.01-.04.04-.04h.16s.04.01.04.04"
      style="fill: #010101;" />
    <path d="M108.12,153.19h-2.53s-.04-.01-.04-.04v-.19s.01-.04.04-.04h2.53s.04.01.04.04v.19s-.01.04-.04.04"
      style="fill: #010101;" />
    <path
      d="M108.12,152.39h-2.53s-.04-.01-.04-.04v-.2s0-.03.03-.04l1.87-.75s.01,0,.01-.01c0,0,0,0-.01,0h-1.87s-.04-.01-.04-.04v-.19s.01-.04.04-.04h2.53s.04.01.04.04v.2s-.01.03-.03.04l-1.87.75s-.01,0-.01.01c0,0,0,0,.01,0h1.86s.04,0,.04.03v.19s-.01.04-.04.04"
      style="fill: #010101;" />
    <path d="M108.12,149.81h-2.53s-.04-.01-.04-.04v-.19s.01-.04.04-.04h2.53s.04.01.04.04v.19s-.01.04-.04.04"
      style="fill: #010101;" />
    <path
      d="M108.12,149.01h-2.53s-.04-.01-.04-.04v-.2s0-.03.03-.04l1.87-.75s.01,0,.01-.01c0,0,0,0-.01,0h-1.87s-.04-.01-.04-.04v-.19s.01-.04.04-.04h2.53s.04.01.04.04v.2s-.01.03-.03.04l-1.87.75s-.01,0-.01.01c0,0,0,0,.01,0h1.86s.04,0,.04.03v.19s-.01.04-.04.04"
      style="fill: #010101;" />
    <path
      d="M107.92,146.9v-.33c0-.11-.05-.2-.13-.26-.08-.07-.2-.1-.34-.1h-1.2c-.15,0-.26.03-.35.1-.08.06-.13.15-.13.27v.33s0,.01.02.01h2.11s.01,0,.01-.01M108.12,147.18h-2.53s-.04-.01-.04-.04v-.57c0-.19.06-.34.19-.46.12-.11.29-.17.5-.17h1.22c.21,0,.38.06.5.17.13.11.19.27.19.46v.57s-.01.04-.04.04"
      style="fill: #010101;" />
    <path d="M108.12,145.45h-2.53s-.04-.01-.04-.04v-.19s.01-.04.04-.04h2.53s.04.01.04.04v.19s-.01.04-.04.04"
      style="fill: #010101;" />
    <path
      d="M107.43,144.36v-.58s0-.01-.01-.01l-1.43.29s-.01,0-.01,0c0,0,0,0,.01,0l1.43.3s.01,0,.01-.01M108.12,143.62l-.46.09s0,0-.01,0c0,0,0,0,0,.01v.67s0,0,0,.01c0,0,0,0,.01,0l.46.1s.03.02.03.04v.19s0,.02-.01.03c0,0-.02,0-.03,0l-2.53-.56s-.03-.02-.03-.04v-.22s.01-.04.03-.04l2.53-.57h0s.03.01.03.03v.19s-.01.04-.03.04"
      style="fill: #010101;" />
    <path
      d="M111.18,160.39c.62,0,1.24-.3,1.24-1.01s-.61-1.01-1.24-1.01-1.24.3-1.24,1.01.62,1.01,1.24,1.01M111.18,157.79c.93,0,1.7.59,1.7,1.59s-.77,1.59-1.7,1.59-1.7-.59-1.7-1.59.77-1.59,1.7-1.59"
      style="fill: #010101;" />
    <polygon
      points="109.55 157.64 109.55 157.03 112.12 156.2 112.12 156.19 109.55 155.34 109.55 154.75 112.8 155.88 112.8 156.53 109.55 157.64"
      style="fill: #010101;" />
    <path
      d="M111.72,154.04c.5,0,.7-.38.7-.84,0-.51-.25-.7-.49-.7s-.35.14-.4.27c-.09.23-.15.54-.27.99-.15.57-.49.73-.82.73-.65,0-.96-.61-.96-1.21,0-.69.36-1.27,1.04-1.27v.58c-.42.03-.57.32-.57.72,0,.27.1.61.42.61.23,0,.35-.16.42-.4.01-.05.2-.79.25-.96.13-.44.49-.65.83-.65.73,0,1.02.66,1.02,1.32,0,.76-.36,1.37-1.16,1.38v-.58Z"
      style="fill: #010101;" />
    <path d="M111.72,150.16h-.16s-.04-.01-.04-.04v-.85s.01-.04.04-.04h.16s.04.01.04.04v.85s-.01.04-.04.04"
      style="fill: #010101;" />
    <path
      d="M112.77,147.7l-2.53.54h0s-.03-.01-.03-.03v-.21s.01-.04.03-.04l2.08-.4s0,0,0,0,0,0,0,0l-2.08-.4s-.03-.02-.03-.04v-.2s.01-.04.04-.03l2.53.54s.03.02.03.04v.21s-.01.04-.03.04"
      style="fill: #010101;" />
    <path
      d="M112.77,146.49h-1.81s-.04-.01-.04-.04v-.19s.01-.04.04-.04h1.81s.04.01.04.04v.19s-.01.04-.04.04M110.53,146.49s-.08.05-.14.05c-.05,0-.1-.02-.13-.05-.04-.03-.05-.08-.05-.13s.02-.1.05-.13c.03-.03.08-.05.13-.05.06,0,.1.02.14.05s.06.08.06.13-.02.1-.06.13"
      style="fill: #010101;" />
    <path
      d="M112.5,145.02c-.07-.07-.16-.11-.27-.11h-.31s-.01,0-.01.01v.26c0,.12.03.21.09.28.06.07.16.1.28.1.11,0,.19-.03.24-.08.05-.05.08-.12.08-.21,0-.1-.03-.19-.1-.26M111.06,144.8c.11-.1.26-.15.45-.15h1.25s.04.01.04.04v.19s-.01.04-.04.04h-.11s0,0-.01,0c0,0,0,0,0,.01.12.09.18.23.18.41,0,.14-.04.26-.12.35-.08.1-.22.15-.41.15-.21,0-.37-.06-.46-.18-.1-.12-.15-.28-.15-.48v-.26s0-.01-.01-.01h-.15c-.12,0-.22.03-.3.08-.07.06-.11.13-.11.23,0,.08.02.14.07.19.05.05.11.09.19.09.02,0,.04.02.04.04v.2s0,.02-.02.03c0,0-.02,0-.03,0-.15-.01-.26-.07-.36-.18-.09-.11-.14-.24-.14-.39,0-.17.06-.31.17-.41"
      style="fill: #010101;" />
    <path
      d="M110.24,142.27h.16s.04.01.04.04v.49s0,.01.01.01h2.32s.04.01.04.04v.19s-.01.04-.04.04h-2.32s-.01,0-.01.01v.46s-.01.04-.04.04h-.16s-.04-.01-.04-.04v-1.25s.01-.04.04-.04"
      style="fill: #010101;" />
    <path
      d="M111.22,141.6c.07.06.15.09.26.09h.25s.01,0,.01-.01v-.61s0-.02-.01-.02h-.25c-.11,0-.19.03-.26.09-.07.06-.1.14-.1.23s.03.17.1.23M111.96,140.83v.85s0,.01.02.01h.27c.1,0,.19-.03.25-.09.07-.06.1-.13.1-.23,0-.08-.02-.15-.07-.2-.05-.06-.11-.09-.19-.11-.02,0-.03-.02-.03-.04v-.19s.01-.02.02-.03c0,0,.02-.01.03,0,.15.02.26.08.35.18.09.1.13.23.13.39,0,.18-.05.32-.16.42-.1.11-.24.16-.41.16h-.8c-.17,0-.31-.05-.41-.16-.11-.11-.16-.25-.16-.42s.05-.32.16-.43c.11-.11.24-.16.41-.16h.46s.04.01.04.04"
      style="fill: #010101;" />
    <path
      d="M110.94,139.6s.03-.02.05-.02l.19.04s.03.02.02.05c-.01.03-.02.06-.02.1,0,.02,0,.04,0,.06,0,.09.05.16.14.22.09.06.2.09.32.09h1.12s.04.01.04.04v.19s-.01.04-.04.04h-1.81s-.04-.01-.04-.04v-.19s.01-.04.04-.04h.22s.01,0,.01,0,0,0,0-.01c-.19-.07-.28-.19-.28-.35,0-.06.01-.12.04-.16"
      style="fill: #010101;" />
    <path
      d="M110.94,138.51s.03-.02.05-.02l.19.04s.03.02.02.05c-.01.03-.02.06-.02.1,0,.02,0,.04,0,.06,0,.09.05.16.14.22.09.06.2.09.32.09h1.12s.04.01.04.04v.19s-.01.04-.04.04h-1.81s-.04-.01-.04-.04v-.19s.01-.04.04-.04h.22s.01,0,.01,0,0,0,0-.01c-.19-.07-.28-.19-.28-.35,0-.06.01-.12.04-.16"
      style="fill: #010101;" />
    <path
      d="M112.5,137.48c-.07-.07-.16-.11-.27-.11h-.31s-.01,0-.01.01v.26c0,.12.03.21.09.28.06.07.16.1.28.1.11,0,.19-.03.24-.08.05-.05.08-.12.08-.21,0-.1-.03-.19-.1-.26M111.06,137.26c.11-.1.26-.15.45-.15h1.25s.04.01.04.04v.19s-.01.04-.04.04h-.11s0,0-.01,0c0,0,0,0,0,.01.12.09.18.23.18.41,0,.14-.04.26-.12.35-.08.1-.22.15-.41.15-.21,0-.37-.06-.46-.18-.1-.12-.15-.28-.15-.48v-.26s0-.01-.01-.01h-.15c-.12,0-.22.03-.3.08-.07.06-.11.13-.11.23,0,.08.02.14.07.19.05.05.11.09.19.09.02,0,.04.02.04.04v.2s0,.02-.02.03c0,0-.02,0-.03,0-.15-.01-.26-.07-.36-.18-.09-.11-.14-.24-.14-.39,0-.17.06-.31.17-.41"
      style="fill: #010101;" />
    <path
      d="M112.48,135.92c-.07-.06-.15-.09-.25-.09h-.75c-.11,0-.19.03-.26.09-.07.06-.1.13-.1.23s.03.17.1.23c.07.06.15.09.26.09h.75c.1,0,.19-.03.25-.09.07-.06.1-.14.1-.23s-.03-.17-.1-.23M110.92,135.8v-.19s.01-.04.04-.04h1.81c.27,0,.47.06.6.18.14.12.2.33.19.62,0,.03-.02.04-.04.04h-.16s-.04-.01-.04-.04c0-.2-.04-.34-.14-.42-.1-.08-.24-.12-.44-.12h-.11s0,0-.01,0c0,0,0,0,0,.01.06.04.11.1.14.16.03.07.05.14.05.21,0,.16-.05.28-.16.37-.1.09-.24.14-.41.14h-.78c-.17,0-.31-.04-.41-.14-.1-.09-.15-.21-.15-.37,0-.08.01-.14.05-.21.03-.07.08-.12.14-.16,0,0,.01,0,0-.01,0,0,0,0-.01,0h-.12s-.04-.01-.04-.04"
      style="fill: #010101;" />
    <path d="M112.77,135.18h-2.53s-.04-.01-.04-.04v-.19s.01-.04.04-.04h2.53s.04.01.04.04v.19s-.01.04-.04.04"
      style="fill: #010101;" />
    <path
      d="M112.77,134.46h-1.81s-.04-.01-.04-.04v-.19s.01-.04.04-.04h1.81s.04.01.04.04v.19s-.01.04-.04.04M110.53,134.46s-.08.05-.14.05c-.05,0-.1-.02-.13-.05-.04-.03-.05-.08-.05-.13s.02-.1.05-.13c.03-.03.08-.05.13-.05.06,0,.1.02.14.05s.06.08.06.13-.02.1-.06.13"
      style="fill: #010101;" />
    <path
      d="M112.5,132.95c-.07-.06-.15-.09-.25-.09h-.77c-.11,0-.19.03-.26.09-.07.06-.1.14-.1.23s.03.17.1.23c.07.06.15.09.26.09h.77c.1,0,.19-.03.25-.09.07-.06.1-.14.1-.23s-.03-.17-.1-.23M112.68,133.61c-.1.11-.24.16-.41.16h-.8c-.17,0-.31-.05-.41-.16-.11-.11-.16-.25-.16-.42s.05-.32.16-.43c.11-.11.24-.16.41-.16h.8c.17,0,.31.05.41.16.1.11.16.25.16.43s-.05.32-.16.43"
      style="fill: #010101;" />
    <path
      d="M110.2,131.2v-.2s.01-.04.04-.04h2.53s.04.01.04.04v.19s-.01.04-.04.04h-2.28s0,0-.01,0c0,0,0,0,0,.01l.14.31v.02s0,.03-.03.03h-.13s-.03,0-.04-.03l-.19-.32s-.01-.03-.01-.05"
      style="fill: #010101;" />
    <path
      d="M112.79,130.37s-.02,0-.03,0l-2.32-.64s0,0,0,0c0,0,0,0,0,.01v.68s0,.02.02.02h.15s.04.01.04.04v.15s-.01.04-.04.04h-.36s-.04-.01-.04-.04v-1.14s.01-.04.04-.04h.17s.02,0,.04,0l2.32.63s.03.02.03.04v.2s0,.02-.01.03"
      style="fill: #010101;" />
    <path
      d="M115.89,159.72c.13,0,.23,0,.31.02.15.03.28.09.37.2.09.11.14.25.14.41s-.05.31-.14.42c-.09.11-.22.18-.38.2-.09.01-.17.02-.26.02-.03,0-.04-.01-.04-.04v-.19s.01-.04.04-.04c.09,0,.16,0,.22-.01.1-.02.19-.06.24-.13.06-.06.09-.14.09-.24s-.03-.17-.09-.24c-.06-.06-.13-.11-.23-.13-.08-.01-.17-.02-.29-.02-.14,0-.25,0-.33.03-.09.02-.17.07-.22.13-.05.06-.08.14-.08.23,0,.03,0,.07.03.1,0,0,0,.01,0,.02,0,.01,0,.02-.01.03l-.09.09s-.03.02-.05,0l-.78-.56s0,0-.01,0c0,0,0,0,0,.01v.89s-.01.04-.04.04h-.16s-.04-.01-.04-.04v-1.18s.01-.04.04-.04h.17s.04,0,.05.01l.69.48s.01,0,.02-.01c.02-.12.07-.22.16-.3.09-.08.2-.14.33-.16.09-.02.21-.03.36-.03"
      style="fill: #010101;" />
    <path
      d="M116.37,158.49c-.08-.07-.18-.1-.3-.1h-1.38c-.13,0-.23.03-.3.1-.08.07-.12.16-.12.27s.04.2.12.26c.08.07.18.1.3.1h1.38c.13,0,.23-.03.3-.1.08-.07.11-.15.11-.26s-.04-.2-.11-.27M116.53,159.22c-.12.12-.28.17-.48.17h-1.35c-.2,0-.36-.06-.48-.17-.12-.11-.18-.27-.18-.46s.06-.34.18-.46c.12-.12.28-.17.48-.17h1.35c.2,0,.36.06.48.17.12.12.18.27.18.46s-.06.34-.18.46"
      style="fill: #010101;" />
    <path
      d="M114.07,157.51v-.2s.01-.04.04-.04h2.53s.04.01.04.04v.19s-.01.04-.04.04h-2.28s0,0-.01,0c0,0,0,0,0,.01l.14.31v.02s0,.03-.03.03h-.13s-.03,0-.04-.03l-.19-.32s-.01-.03-.01-.05"
      style="fill: #010101;" />
    <path
      d="M116.67,156.69s-.02,0-.03,0l-2.32-.64s0,0-.01,0c0,0,0,0,0,.01v.68s0,.02.02.02h.15s.04.01.04.04v.15s-.01.04-.04.04h-.36s-.04-.01-.04-.04v-1.14s.01-.04.04-.04h.17s.02,0,.04,0l2.32.63s.03.02.03.04v.2s0,.02-.01.03"
      style="fill: #010101;" />
    <path
      d="M115.76,154.3h.16s.04.01.04.04v.12s0,.01.01.01h.66s.04.01.04.04v.19s-.01.04-.04.04h-.66s-.01,0-.01.01v.84s-.01.04-.04.04h-.14s-.02,0-.04,0l-1.64-.56s-.03-.02-.03-.04v-.21s.01-.04.04-.03l1.59.54s0,0,.01,0c0,0,0,0,0-.01v-.56s0-.01-.01-.01h-.57s-.04-.01-.04-.04v-.19s.01-.04.04-.04h.57s.01,0,.01-.01v-.12s.01-.04.04-.04"
      style="fill: #010101;" />
    <path
      d="M116.64,152.81l-2.53.54h0s-.03-.01-.03-.03v-.21s.01-.04.03-.04l2.08-.4s0,0,0,0,0,0,0,0l-2.08-.4s-.03-.02-.03-.04v-.2s.01-.04.04-.03l2.53.54s.03.02.03.04v.21s-.01.04-.03.04"
      style="fill: #010101;" />
    <path
      d="M115.09,151.31c.07.06.15.09.26.09h.25s.02,0,.02-.01v-.61s0-.02-.02-.02h-.25c-.11,0-.19.03-.26.09-.07.06-.1.14-.1.23s.03.17.1.23M115.84,150.53v.85s0,.01.02.01h.27c.1,0,.19-.03.25-.09.07-.06.1-.13.1-.23,0-.08-.02-.15-.07-.2-.05-.06-.11-.09-.19-.11-.02,0-.03-.02-.03-.04v-.19s.01-.02.02-.03c0,0,.02-.01.03,0,.15.02.26.08.35.18.09.1.13.23.13.39,0,.18-.05.32-.16.42-.1.11-.24.16-.41.16h-.8c-.17,0-.31-.05-.41-.16-.1-.11-.16-.25-.16-.42s.05-.32.16-.43c.11-.11.24-.16.41-.16h.46s.04.01.04.04"
      style="fill: #010101;" />
    <path
      d="M114.93,149.08c.1-.08.25-.12.44-.12h1.28s.04.01.04.04v.19s-.01.04-.04.04h-1.26c-.12,0-.22.03-.28.08-.07.05-.1.13-.1.22,0,.1.04.18.11.23.07.06.17.09.29.09h1.24s.04.01.04.04v.19s-.01.04-.04.04h-1.81s-.04-.01-.04-.04v-.19s.01-.04.04-.04h.12s0,0,0,0c0,0,0,0,0-.01-.13-.09-.19-.22-.19-.39,0-.15.05-.27.16-.35"
      style="fill: #010101;" />
    <path
      d="M115.09,148.22c.07.06.15.09.26.09h.25s.02,0,.02-.01v-.61s0-.02-.02-.02h-.25c-.11,0-.19.03-.26.09-.07.06-.1.14-.1.23s.03.17.1.23M115.84,147.44v.85s0,.01.02.01h.27c.1,0,.19-.03.25-.09.07-.06.1-.13.1-.23,0-.08-.02-.15-.07-.2-.05-.06-.11-.09-.19-.11-.02,0-.03-.02-.03-.04v-.19s.01-.02.02-.03c0,0,.02-.01.03,0,.15.02.26.08.35.18.09.1.13.23.13.39,0,.18-.05.32-.16.42-.1.11-.24.16-.41.16h-.8c-.17,0-.31-.05-.41-.16-.1-.11-.16-.25-.16-.42s.05-.32.16-.43c.11-.11.24-.16.41-.16h.46s.04.01.04.04"
      style="fill: #010101;" />
    <path
      d="M116.64,147.12h-.18s-.03,0-.05-.01l-1.36-.76s-.01,0-.01,0c0,0,0,0,0,0v.71s-.01.04-.04.04h-.17s-.04-.01-.04-.04v-1s.01-.04.04-.04h.18s.03,0,.05.01l1.36.77s0,0,.01,0c0,0,0,0,0-.01v-.74s.01-.04.04-.04h.17s.04.01.04.04v1.03s-.01.04-.04.04"
      style="fill: #010101;" />
    <path
      d="M116.64,145.65h-1.81s-.04-.01-.04-.04v-.19s.01-.04.04-.04h1.81s.04.01.04.04v.19s-.01.04-.04.04M114.41,145.65s-.08.05-.14.05c-.05,0-.1-.02-.14-.05-.04-.03-.05-.08-.05-.13s.02-.1.05-.13c.04-.03.08-.05.14-.05.06,0,.1.02.14.05.04.03.05.08.05.13s-.02.1-.05.13"
      style="fill: #010101;" />
    <path
      d="M116.38,144.18c-.07-.07-.16-.11-.27-.11h-.31s-.02,0-.02.01v.26c0,.12.03.21.1.28.06.07.16.1.28.1.11,0,.19-.03.24-.08.05-.05.08-.12.08-.21,0-.1-.03-.19-.1-.26M114.94,143.96c.11-.1.26-.15.45-.15h1.25s.04.01.04.04v.19s-.01.04-.04.04h-.11s0,0,0,0c0,0,0,0,0,.01.12.09.18.23.18.41,0,.14-.04.25-.12.35-.08.1-.22.15-.41.15-.21,0-.36-.06-.46-.18-.1-.12-.15-.28-.15-.48v-.26s0-.01-.01-.01h-.14c-.12,0-.22.03-.3.08-.08.06-.11.13-.11.23,0,.08.02.14.07.19.05.05.11.09.19.09.02,0,.04.02.04.04v.2s0,.02-.01.03c0,0-.02,0-.03,0-.15-.01-.26-.07-.35-.18-.09-.11-.14-.24-.14-.39,0-.17.06-.31.17-.41"
      style="fill: #010101;" />
    <path d="M116.64,142.61h-2.53s-.04-.01-.04-.04v-.19s.01-.04.04-.04h2.53s.04.01.04.04v.19s-.01.04-.04.04"
      style="fill: #010101;" />
    <path
      d="M114.11,140.63h.16s.04.01.04.04v.49s0,.01.02.01h2.32s.04.01.04.04v.19s-.01.04-.04.04h-2.32s-.02,0-.02.01v.46s-.01.04-.04.04h-.16s-.04-.01-.04-.04v-1.25s.01-.04.04-.04"
      style="fill: #010101;" />
    <path
      d="M115.95,139.95v-.58s0-.01-.01-.01l-1.43.29s-.01,0-.01,0c0,0,0,0,.01,0l1.43.3s.01,0,.01-.01M116.64,139.21l-.46.09s0,0-.01,0c0,0,0,0,0,.01v.67s0,0,0,.01c0,0,0,0,.01,0l.46.1s.03.02.03.04v.19s0,.02-.01.03c0,0-.02,0-.03,0l-2.53-.56s-.03-.02-.03-.04v-.22s.01-.04.03-.04l2.53-.57h0s.03.01.03.03v.19s-.01.04-.03.04"
      style="fill: #010101;" />
    <path
      d="M116.64,138.54h-2.53s-.04-.01-.04-.04v-.19s.01-.04.04-.04h2.32s.01,0,.01-.01v-.85s.01-.04.04-.04h.16s.04.01.04.04v1.09s-.01.04-.04.04"
      style="fill: #010101;" />
    <path d="M116.64,137.07h-2.53s-.04-.01-.04-.04v-.19s.01-.04.04-.04h2.53s.04.01.04.04v.19s-.01.04-.04.04"
      style="fill: #010101;" />
    <path
      d="M115.95,135.99v-.58s0-.01-.01-.01l-1.43.29s-.01,0-.01,0c0,0,0,0,.01,0l1.43.3s.01,0,.01-.01M116.64,135.25l-.46.09s0,0-.01,0c0,0,0,0,0,.01v.67s0,0,0,.01c0,0,0,0,.01,0l.46.1s.03.02.03.04v.19s0,.02-.01.03c0,0-.02,0-.03,0l-2.53-.56s-.03-.02-.03-.04v-.22s.01-.04.03-.04l2.53-.57h0s.03.01.03.03v.19s-.01.04-.03.04"
      style="fill: #010101;" />
    <path d="M115.78,134.33h-.13s-.03-.01-.03-.03v-.71s.01-.03.03-.03h.13s.03.01.03.03v.71s-.01.03-.03.03"
      style="fill: #010101;" />
    <path
      d="M116.64,132.64h-1.51s-.03-.01-.03-.03v-.16s.01-.03.03-.03h1.51s.03.01.03.03v.16s0,.03-.03.03M114.78,132.64s-.07.04-.12.04-.08-.01-.11-.04c-.03-.03-.04-.07-.04-.11s.01-.08.04-.11c.03-.03.07-.04.11-.04s.09.01.12.04c.03.03.05.06.05.11s-.02.08-.05.11"
      style="fill: #010101;" />
    <path
      d="M115.22,131.18c.09-.07.21-.1.36-.1h1.07s.03.01.03.03v.16s-.01.03-.03.03h-1.05c-.1,0-.18.02-.24.07-.06.04-.08.1-.08.18s.03.15.09.2c.06.05.14.07.24.07h1.03s.03.01.03.03v.16s-.01.03-.03.03h-1.51s-.03-.01-.03-.03v-.16s.01-.03.03-.03h.1s0,0,0,0c0,0,0,0,0,0-.11-.08-.16-.18-.16-.32,0-.13.04-.22.13-.29"
      style="fill: #010101;" />
    <path
      d="M114.75,130.38c.05.03.13.05.25.05h.1s.01,0,.01-.01v-.24s.01-.03.03-.03h.1s.03.01.03.03v.24s0,.01.01.01h1.36s.03.01.03.03v.15s-.01.03-.03.03h-1.36s-.01,0-.01.01v.12s-.01.03-.03.03h-.1s-.03-.01-.03-.03v-.12s0-.01-.01-.01h-.1c-.18,0-.31-.03-.39-.1s-.12-.18-.12-.33v-.04s.01-.03.03-.03h.13s.03.01.03.03v.04c0,.08.03.13.08.17"
      style="fill: #010101;" />
    <path
      d="M116.43,129.21c-.06-.05-.13-.08-.21-.08h-.64c-.09,0-.16.03-.22.08s-.08.11-.08.19.03.14.08.19c.06.05.13.07.22.07h.64c.09,0,.16-.02.21-.07.05-.05.08-.11.08-.19s-.03-.14-.08-.19M116.57,129.76c-.09.09-.2.13-.34.13h-.67c-.14,0-.25-.04-.34-.13-.09-.09-.13-.21-.13-.35s.04-.26.13-.35c.09-.09.2-.13.34-.13h.67c.14,0,.26.04.34.13.09.09.13.21.13.36s-.04.27-.13.35"
      style="fill: #010101;" />
    <path
      d="M116,127.46l-.2-.02-.16-.02s-.02,0-.03,0c-.05,0-.09.01-.12.04-.03.03-.05.07-.05.11,0,.05.02.1.06.14.04.04.09.06.14.07.04,0,.07,0,.09.01.05,0,.09.01.13.02l.22.03c.06,0,.11,0,.14-.04.04-.03.06-.07.06-.12s-.02-.1-.06-.13c-.04-.04-.09-.06-.14-.07h-.08ZM114.87,126.99c.07-.14.17-.24.31-.31.13-.07.29-.11.46-.11.05,0,.11,0,.16,0,.19.03.35.09.45.18.11.1.16.22.16.36,0,.14-.05.23-.14.29,0,0,0,.01,0,.02.05.03.09.07.11.11.02.05.04.1.04.15,0,.09-.03.17-.08.22-.05.06-.13.09-.22.09-.03,0-.12,0-.27-.03-.08,0-.15-.02-.22-.03-.1-.01-.19-.05-.25-.11s-.09-.14-.09-.23c0-.04,0-.07.02-.11.01-.04.04-.07.07-.09,0,0,0,0,0-.01,0,0,0,0,0,0h-.04s-.03-.02-.03-.03v-.1s0-.02.01-.02c0,0,.02,0,.02,0l.63.08s.03,0,.05,0c.07,0,.13-.02.17-.06.04-.04.07-.09.07-.16,0-.09-.04-.17-.12-.23-.08-.06-.2-.1-.34-.12-.05,0-.1,0-.15,0-.15,0-.28.03-.39.09-.11.06-.2.15-.26.26-.06.11-.09.24-.09.39,0,.16.04.31.12.45.08.14.19.25.34.35.15.09.31.15.49.17.05,0,.1,0,.15,0,.16,0,.29-.03.41-.1.12-.06.21-.15.27-.26.06-.11.09-.23.09-.36,0-.1-.01-.19-.04-.28-.03-.09-.06-.15-.1-.21,0,0,0-.01,0-.02,0-.01,0-.02.01-.02l.07-.05s.01,0,.02,0c.01,0,.02,0,.02.02.05.07.09.15.13.26.03.1.05.22.05.34,0,.17-.04.31-.11.44-.07.13-.18.23-.32.3-.14.07-.3.11-.48.11-.04,0-.09,0-.17-.01-.21-.03-.4-.09-.57-.2-.17-.11-.3-.25-.39-.41-.09-.17-.14-.34-.14-.53,0-.18.04-.33.11-.47"
      style="fill: #010101;" />
    <path
      d="M116.43,125.57c-.06-.05-.13-.08-.21-.08h-.64c-.09,0-.16.03-.22.08-.06.05-.08.11-.08.19s.03.14.08.19c.06.05.13.07.22.07h.64c.09,0,.16-.02.21-.07.05-.05.08-.11.08-.19s-.03-.14-.08-.19M116.57,126.12c-.09.09-.2.13-.34.13h-.67c-.14,0-.25-.04-.34-.13-.09-.09-.13-.21-.13-.35s.04-.26.13-.35c.09-.09.2-.13.34-.13h.67c.14,0,.26.04.34.13.09.09.13.21.13.36s-.04.27-.13.35"
      style="fill: #010101;" />
    <path
      d="M116.65,124.66l-1.51.38h-.01s-.02,0-.02-.02v-.18s0-.03.03-.03l1.2-.27s0,0,0,0,0,0,0,0l-1.2-.26s-.03-.01-.03-.03v-.18s0-.02.01-.02c0,0,.01,0,.02,0l1.5.38s.03.01.03.03v.19s0,.03-.03.03"
      style="fill: #010101;" />
    <path
      d="M116.58,123.69c-.07.09-.17.13-.29.13h-.02s-.03-.01-.03-.03v-.15s0-.03.02-.03h.02c.07,0,.12-.03.17-.07.05-.05.07-.11.07-.19s-.02-.13-.07-.18c-.05-.04-.1-.07-.17-.07-.05,0-.1.01-.13.04-.04.03-.06.06-.09.1-.02.04-.05.1-.08.17-.03.08-.07.15-.1.2-.03.05-.08.1-.14.14-.06.04-.13.06-.22.06-.13,0-.24-.04-.31-.12-.08-.08-.12-.19-.12-.33s.04-.25.12-.33c.08-.08.18-.12.31-.12h0s.03.01.03.03v.14s0,.03-.02.03h-.02c-.07,0-.13.02-.17.07-.04.05-.07.11-.07.18s.02.13.07.18c.05.04.1.07.17.07.05,0,.09-.01.13-.04.03-.03.06-.06.08-.1.02-.04.05-.09.08-.16.04-.08.07-.15.11-.21.03-.05.08-.1.14-.14.06-.04.13-.06.22-.06.13,0,.23.04.31.13.08.09.12.2.12.34s-.04.26-.11.34"
      style="fill: #010101;" />
    <path
      d="M116.61,122.59s-.08.05-.13.05c-.05,0-.09-.02-.13-.05-.04-.03-.05-.07-.05-.12,0-.05.02-.09.05-.12.04-.03.08-.05.13-.05.05,0,.1.02.13.05.04.03.05.07.05.12s-.02.09-.05.12"
      style="fill: #010101;" />
    <path
      d="M116.64,121.94h-1.51s-.03-.01-.03-.03v-.16s.01-.03.03-.03h1.51s.03.01.03.03v.16s0,.03-.03.03M114.78,121.94s-.07.04-.12.04-.08-.01-.11-.04c-.03-.03-.04-.07-.04-.11s.01-.08.04-.11c.03-.03.07-.04.11-.04s.09.01.12.04c.03.03.05.06.05.11s-.02.08-.05.11"
      style="fill: #010101;" />
    <path
      d="M115.27,120.81v.24s0,.01.01.01h.95c.09,0,.16-.02.2-.05.04-.03.05-.08.05-.15v-.03s.01-.03.03-.03h.13s.03,0,.03.03v.08c0,.12-.03.21-.08.28-.05.06-.15.09-.3.09h-1.01s-.01,0-.01.01v.12s-.01.03-.03.03h-.1s-.03-.01-.03-.03v-.12s0-.01-.01-.01h-.35s-.03-.01-.03-.03v-.15s.01-.03.03-.03h.35s.01,0,.01-.01v-.24s.01-.03.03-.03h.1s.03.01.03.03"
      style="fill: #010101;" />
  </g>
</svg>