<?xml version="1.0" encoding="UTF-8"?>
<svg id="Livello_1" data-name="Livello 1" xmlns="http://www.w3.org/2000/svg" viewBox="0 0 167.74 236.51">
  <path d="M39.86.68v198.43h127.56V.68H39.86Z" style="fill: none; stroke: #e50695; stroke-width: .5px;"/>
  <path d="M108.74,22.78c0,2.82-2.29,5.1-5.1,5.1s-5.1-2.28-5.1-5.1,2.28-5.1,5.1-5.1,5.1,2.29,5.1,5.1" style="fill: #fff; stroke: #e50695; stroke-width: .5px;"/>
  <line x1="40.96" y1="166.72" x2="165.86" y2="166.72" style="fill: #38d430; stroke: #38d430; stroke-dasharray: 2.19; stroke-width: .4px;"/>
  <line x1="21.39" y1=".22" x2="8.5" y2=".22" style="fill: none; stroke: #00aeef; stroke-width: .44px;"/>
  <line x1="21.39" y1="199.8" x2="8.5" y2="199.8" style="fill: none; stroke: #00aeef; stroke-width: .44px;"/>
  <line x1="15.17" y1=".22" x2="15.17" y2="199.56" style="fill: none; stroke: #00aeef; stroke-dasharray: 3.2 3.2; stroke-width: .42px;"/>
  <g>
    <path d="M10.1,119.42s-.09.03-.16,0l-8.84-3.28c-.06-.02-.09,0-.09.06v3.84s.02.07.07.07h.6c.12,0,.19.06.19.19v.5c0,.12-.06.19-.19.19H.32c-.12-.01-.19-.08-.19-.2v-5.56c0-.12.06-.19.19-.19h.59c.08,0,.15.01.23.04l8.88,3.27c.1.03.14.1.14.21v.72c0,.07-.02.11-.06.14Z" style="fill: #00aeef;"/>
    <path d="M9.52,112.89c-.53.54-1.23.82-2.11.82H2.88c-.88,0-1.58-.27-2.1-.82-.52-.54-.78-1.28-.78-2.19s.26-1.67.79-2.22,1.22-.83,2.09-.83h4.53c.88,0,1.58.28,2.11.83s.79,1.29.79,2.22-.26,1.65-.79,2.19ZM8.88,109.22c-.35-.37-.83-.56-1.42-.56H2.84c-.58,0-1.05.18-1.4.55-.35.37-.53.86-.53,1.48s.18,1.08.53,1.45.82.54,1.4.54h4.63c.59,0,1.06-.18,1.42-.54s.53-.85.53-1.45-.18-1.1-.53-1.48Z" style="fill: #00aeef;"/>
    <path d="M3.45,93.58c.43-.42,1.02-.62,1.76-.62h4.76c.12,0,.19.06.19.19v.63c0,.12-.06.19-.19.19h-4.56c-.53,0-.94.15-1.25.45s-.47.7-.47,1.18.15.92.46,1.23.72.46,1.23.46h4.59c.12,0,.19.06.19.19v.65c0,.12-.06.19-.19.19h-4.56c-.53,0-.94.15-1.25.44s-.47.69-.47,1.19.15.91.46,1.21.72.45,1.23.45h4.59c.12,0,.19.06.19.19v.64c0,.12-.06.19-.19.19H3.1c-.12,0-.19-.06-.19-.19v-.64c0-.12.06-.19.19-.19h.5s.05,0,.06-.03,0-.04-.03-.06c-.28-.21-.48-.48-.62-.8-.13-.33-.2-.69-.2-1.09,0-.49.1-.91.3-1.26.2-.35.48-.62.85-.8.06-.03.06-.06.01-.09-.39-.21-.68-.51-.87-.89s-.29-.82-.29-1.3c0-.72.21-1.28.65-1.7Z" style="fill: #00aeef;"/>
    <path d="M3.45,81.73c.43-.42,1.02-.62,1.76-.62h4.76c.12,0,.19.06.19.19v.63c0,.12-.06.19-.19.19h-4.56c-.53,0-.94.15-1.25.45s-.47.7-.47,1.18.15.92.46,1.23.72.46,1.23.46h4.59c.12,0,.19.06.19.19v.64c0,.12-.06.19-.19.19h-4.56c-.53,0-.94.15-1.25.45-.31.3-.47.69-.47,1.19s.15.91.46,1.21.72.45,1.23.45h4.59c.12,0,.19.06.19.19v.65c0,.12-.06.19-.19.19H3.1c-.12,0-.19-.06-.19-.19v-.65c0-.12.06-.19.19-.19h.5s.05,0,.06-.03c0-.02,0-.04-.03-.06-.28-.21-.48-.48-.62-.8s-.2-.69-.2-1.09c0-.49.1-.91.3-1.26.2-.35.48-.62.85-.8.06-.03.06-.06.01-.09-.39-.21-.68-.51-.87-.89-.19-.38-.29-.82-.29-1.3,0-.72.21-1.28.65-1.7Z" style="fill: #00aeef;"/>
  </g>
  <g>
    <line x1="167.52" y1="225.49" x2="167.52" y2="214.69" style="fill: none; stroke: #00aeef; stroke-width: .44px;"/>
    <line x1="39.97" y1="214.69" x2="39.97" y2="225.49" style="fill: none; stroke: #00aeef; stroke-width: .44px;"/>
    <line x1="39.97" y1="219.49" x2="167.52" y2="219.49" style="fill: none; stroke: #00aeef; stroke-dasharray: 3.2 3.2; stroke-width: .42px;"/>
    <g>
      <path d="M89.56,232.91v.54c0,.12-.06.19-.19.19h-.56s-.07.02-.07.07v2.51c0,.12-.06.19-.19.19h-.65c-.12,0-.19-.06-.19-.19v-2.51s-.02-.07-.07-.07h-4.24c-.12,0-.19-.06-.19-.19v-.46c0-.06.02-.13.06-.23l2.9-6.25c.05-.1.12-.14.23-.14h.66c.08,0,.13.02.15.06.02.04.02.09,0,.16l-2.81,6.05s0,.04,0,.06c0,.02.02.03.04.03h3.21s.07-.02.07-.07v-2.25c0-.12.06-.19.19-.19h.65c.12,0,.19.06.19.19v2.25s.02.07.07.07h.56c.12,0,.19.06.19.19Z" style="fill: #00aeef;"/>
      <path d="M97.07,233.31c0,.47-.04.87-.13,1.2-.16.61-.49,1.1-.97,1.45-.49.36-1.08.54-1.76.54s-1.26-.17-1.73-.52c-.48-.34-.8-.8-.97-1.38-.06-.19-.1-.38-.13-.57v-.03c0-.06.02-.1.05-.13.03-.03.08-.04.14-.04h.66c.12,0,.19.06.2.19,0,.05.02.13.06.24.09.41.3.74.6.98.3.24.68.37,1.13.37s.84-.13,1.15-.39c.31-.26.51-.61.6-1.06.06-.22.09-.5.09-.85,0-.32-.02-.64-.07-.95-.07-.44-.26-.77-.57-1-.31-.23-.71-.34-1.19-.34-.41,0-.77.09-1.09.26-.32.17-.53.41-.65.72-.04.11-.11.16-.21.16h-.7c-.12,0-.19-.06-.19-.19v-5.42c0-.12.06-.19.19-.19h4.93c.12,0,.19.06.19.19v.52c0,.12-.06.19-.19.19h-4.03s-.07.02-.07.07v3.42s0,.06.01.06c.02,0,.04,0,.06-.02.24-.22.52-.39.85-.5.32-.12.66-.17,1.02-.17.68,0,1.25.16,1.72.49.47.33.77.79.9,1.4.09.42.13.85.13,1.29Z" style="fill: #00aeef;"/>
      <path d="M110.84,229.7c.42.43.62,1.02.62,1.76v4.76c0,.12-.06.19-.19.19h-.63c-.12,0-.19-.06-.19-.19v-4.56c0-.53-.15-.94-.45-1.25s-.69-.47-1.18-.47-.91.15-1.22.46c-.31.31-.47.72-.47,1.23v4.59c0,.12-.06.19-.19.19h-.64c-.12,0-.19-.06-.19-.19v-4.56c0-.53-.15-.94-.44-1.25-.3-.31-.69-.47-1.19-.47s-.91.15-1.21.46c-.3.31-.45.72-.45,1.23v4.59c0,.12-.06.19-.19.19h-.65c-.12,0-.19-.06-.19-.19v-6.88c0-.12.06-.19.19-.19h.65c.12,0,.19.06.19.19v.5s0,.05.03.06.04,0,.06-.03c.21-.28.48-.48.8-.62.32-.13.69-.2,1.09-.2.49,0,.91.1,1.26.3.35.2.62.48.8.85.03.06.06.06.09.01.21-.39.51-.68.89-.87.38-.19.82-.29,1.3-.29.72,0,1.28.21,1.7.64Z" style="fill: #00aeef;"/>
      <path d="M122.69,229.7c.42.43.62,1.02.62,1.76v4.76c0,.12-.06.19-.19.19h-.63c-.12,0-.19-.06-.19-.19v-4.56c0-.53-.15-.94-.45-1.25s-.69-.47-1.18-.47-.92.15-1.23.46c-.31.31-.47.72-.47,1.23v4.59c0,.12-.06.19-.19.19h-.65c-.12,0-.19-.06-.19-.19v-4.56c0-.53-.15-.94-.44-1.25-.3-.31-.69-.47-1.19-.47s-.91.15-1.21.46c-.3.31-.45.72-.45,1.23v4.59c0,.12-.06.19-.19.19h-.64c-.12,0-.19-.06-.19-.19v-6.88c0-.12.06-.19.19-.19h.64c.12,0,.19.06.19.19v.5s0,.05.03.06c.02,0,.04,0,.06-.03.21-.28.48-.48.8-.62s.69-.2,1.09-.2c.49,0,.91.1,1.26.3.35.2.62.48.8.85.03.06.06.06.09.01.21-.39.51-.68.89-.87.38-.19.82-.29,1.3-.29.72,0,1.28.21,1.7.64Z" style="fill: #00aeef;"/>
    </g>
  </g>
</svg>