<?xml version="1.0" encoding="UTF-8"?>
<svg id="Layer_1" data-name="Layer 1" xmlns="http://www.w3.org/2000/svg" viewBox="0 0 193.28 284.44">
  <path d="M193.04,242.92c0,6.98-4.96,12.64-11.07,12.64h-105.41c-6.12,0-11.07-5.66-11.07-12.64V13.09c0-6.98,4.96-12.64,11.07-12.64h105.41c6.12,0,11.07,5.66,11.07,12.64v229.83Z" style="fill: #231f20;"/>
  <path d="M85.94,10.81c-6.65,0-12.05,5.7-12.05,12.73v208.93c0,7.03,5.39,12.73,12.05,12.73h86.65c6.65,0,12.05-5.7,12.05-12.73V23.54c0-7.03-5.39-12.73-12.05-12.73h-86.65Z" style="fill: none; stroke: #8c9091; stroke-width: 3.5px;"/>
  <rect x="85.09" y="110.52" width="3.59" height="35.88" style="fill: #fff;"/>
  <polygon points="92.75 119.86 96.26 119.86 104.39 139.13 112.86 119.86 113.48 119.86 122 139.13 130.29 119.86 133.85 119.86 122.32 146.4 121.68 146.4 113.2 127.4 104.72 146.4 104.08 146.4 92.75 119.86" style="fill: #fff;"/>
  <path d="M137.33,119.86h3.41v26.54h-3.41v-26.54ZM139.03,108.93c.78,0,1.44.28,1.99.83.55.55.83,1.22.83,2s-.28,1.42-.83,1.98c-.55.55-1.21.83-1.99.83s-1.42-.28-1.97-.83c-.55-.55-.83-1.21-.83-1.98s.28-1.45.83-2c.55-.55,1.21-.83,1.97-.83" style="fill: #fff;"/>
  <path d="M170.19,130.45c-.46-1.82-1.12-3.28-1.99-4.37-.87-1.09-2.02-1.97-3.46-2.63-1.43-.67-2.94-1-4.52-1-2.61,0-4.84.84-6.72,2.51-1.37,1.22-2.4,3.05-3.1,5.49h19.78ZM170.19,137.6l2.88,1.51c-.94,1.85-2.03,3.35-3.27,4.49-1.24,1.14-2.63,2.01-4.17,2.6-1.55.59-3.3.89-5.25.89-4.33,0-7.72-1.42-10.16-4.26-2.44-2.84-3.66-6.05-3.66-9.62,0-3.37,1.03-6.37,3.1-9,2.62-3.35,6.13-5.02,10.52-5.02s8.14,1.72,10.84,5.15c1.92,2.42,2.9,5.45,2.93,9.07h-23.88c.06,3.08,1.05,5.61,2.95,7.58,1.9,1.97,4.26,2.96,7.06,2.96,1.35,0,2.67-.23,3.94-.7,1.28-.47,2.37-1.09,3.26-1.87.9-.78,1.86-2.03,2.91-3.77" style="fill: #fff;"/>
  <line x1="65.25" y1="223.34" x2="193.28" y2="223.34" style="fill: none; stroke: #5aba48; stroke-dasharray: 3 2 3 2 3 2; stroke-miterlimit: 2;"/>
  <line x1="192.81" y1="278.59" x2="192.81" y2="264.41" style="fill: none; stroke: #00b0d2; stroke-miterlimit: 10; stroke-width: .75px;"/>
  <line x1="44.69" y1="255.57" x2="30.52" y2="255.57" style="fill: none; stroke: #00b0d2; stroke-miterlimit: 10; stroke-width: .75px;"/>
  <line x1="44.69" y1=".38" x2="30.52" y2=".38" style="fill: none; stroke: #00b0d2; stroke-miterlimit: 10; stroke-width: .75px;"/>
  <line x1="66.17" y1="279.71" x2="66.17" y2="265.54" style="fill: none; stroke: #00b0d2; stroke-miterlimit: 10; stroke-width: .75px;"/>
  <g>
    <path d="M2.12,125.6c.62,0,1.12.2,1.52.6s.6.91.6,1.52c0,.56-.21,1.2-.63,1.92l-1.27,2.2h-1.07l1.21-2.1c-.1.05-.25.08-.44.08-.6,0-1.09-.2-1.47-.6s-.57-.9-.57-1.5.2-1.11.6-1.52.91-.6,1.53-.6ZM.94,127.72c0,.34.11.63.33.87s.51.35.85.35.62-.12.84-.35.33-.52.33-.87-.11-.64-.33-.87-.5-.35-.84-.35-.62.12-.85.35-.33.52-.33.87Z" style="fill: #00b0d2;"/>
    <path d="M8.45,131.53c-.35.27-.76.4-1.21.4s-.86-.13-1.21-.4-.62-.64-.82-1.12-.29-1.03-.29-1.64.1-1.16.29-1.64.47-.85.82-1.12.76-.4,1.21-.4.86.13,1.21.4.62.64.82,1.12.29,1.03.29,1.64-.1,1.16-.29,1.64-.47.85-.82,1.12ZM7.24,126.54c-.43,0-.76.2-.98.6s-.33.94-.33,1.62.11,1.22.33,1.63.55.61.98.61.75-.2.97-.61.33-.95.33-1.63-.11-1.22-.33-1.62-.54-.6-.97-.6Z" style="fill: #00b0d2;"/>
    <path d="M16.04,127.89c.34-.39.78-.59,1.32-.59.45,0,.8.15,1.05.44s.39.7.39,1.21v2.89h-1v-2.73c0-.28-.06-.51-.19-.67s-.3-.24-.54-.24c-.19,0-.36.06-.51.17s-.24.28-.28.49v2.98h-1v-2.73c0-.28-.06-.51-.19-.67s-.3-.24-.54-.24c-.19,0-.36.06-.51.17s-.24.28-.28.49v2.98h-1v-4.44h1v.37c.11-.15.26-.26.45-.34s.41-.12.65-.12.46.06.68.17.38.25.5.42Z" style="fill: #00b0d2;"/>
    <path d="M23.26,127.89c.34-.39.78-.59,1.32-.59.45,0,.8.15,1.05.44s.39.7.39,1.21v2.89h-1v-2.73c0-.28-.06-.51-.19-.67s-.3-.24-.54-.24c-.19,0-.36.06-.51.17s-.24.28-.28.49v2.98h-1v-2.73c0-.28-.06-.51-.19-.67s-.3-.24-.54-.24c-.19,0-.36.06-.51.17s-.24.28-.28.49v2.98h-1v-4.44h1v.37c.11-.15.26-.26.45-.34s.41-.12.65-.12.46.06.68.17.38.25.5.42Z" style="fill: #00b0d2;"/>
  </g>
  <g>
    <path d="M114.13,278.2l-1.82,4h1.48v-1.44h.96v1.44h.91v.86h-.91v1.28h-.96v-1.28h-2.88v-.04l2.2-4.82h1.02Z" style="fill: #00b0d2;"/>
    <path d="M117.86,280.41c.65,0,1.18.18,1.6.54s.63.85.63,1.47c0,.41-.1.77-.3,1.08-.2.31-.47.54-.81.7-.34.16-.73.24-1.17.24-.63,0-1.15-.16-1.57-.49v-1.09c.24.22.48.39.72.51s.51.17.8.17c.4,0,.73-.1.98-.29s.39-.47.39-.83-.13-.62-.39-.83c-.26-.2-.59-.31-.99-.31-.25,0-.46.02-.63.06s-.4.12-.68.22v-3.37h3.34v.92h-2.5v1.35c.12-.04.31-.06.58-.06Z" style="fill: #00b0d2;"/>
    <path d="M124.31,280.39c.34-.39.78-.59,1.32-.59.45,0,.8.15,1.05.44s.39.7.39,1.21v2.89h-1v-2.73c0-.28-.06-.5-.19-.67-.12-.16-.3-.24-.54-.24-.19,0-.36.06-.51.17-.15.12-.24.28-.28.49v2.98h-1v-2.73c0-.28-.06-.5-.19-.67-.12-.16-.3-.24-.54-.24-.19,0-.36.06-.51.17-.15.12-.24.28-.28.49v2.98h-1v-4.44h1v.37c.11-.15.26-.26.45-.34.2-.08.41-.12.65-.12s.46.06.68.17.38.25.5.42Z" style="fill: #00b0d2;"/>
    <path d="M131.52,280.39c.34-.39.78-.59,1.32-.59.45,0,.8.15,1.05.44s.39.7.39,1.21v2.89h-1v-2.73c0-.28-.06-.5-.19-.67-.12-.16-.3-.24-.54-.24-.19,0-.36.06-.51.17-.15.12-.24.28-.28.49v2.98h-1v-2.73c0-.28-.06-.5-.19-.67-.12-.16-.3-.24-.54-.24-.19,0-.36.06-.51.17-.15.12-.24.28-.28.49v2.98h-1v-4.44h1v.37c.11-.15.26-.26.45-.34.2-.08.41-.12.65-.12s.46.06.68.17.38.25.5.42Z" style="fill: #00b0d2;"/>
  </g>
  <line x1="37.04" y1="1.15" x2="37.04" y2="256.22" style="fill: none; stroke: #00b0d2; stroke-miterlimit: 10; stroke-width: .75px;"/>
  <line x1="36.48" y1=".5" x2="37.61" y2=".5" style="fill: none; stroke: #00b0d2; stroke-width: .75px;"/>
  <line x1="36.48" y1="198.68" x2="37.61" y2="198.68" style="fill: none; stroke: #00b0d2; stroke-width: .75px;"/>
  <line x1="66.17" y1="272.06" x2="192.81" y2="272.06" style="fill: none; stroke: #00b0d2; stroke-miterlimit: 10; stroke-width: .75px;"/>
  <line x1="66.17" y1="271.5" x2="66.17" y2="272.63" style="fill: none; stroke: #00b0d2; stroke-width: .75px;"/>
  <path d="M193.04,242.92c0,6.98-4.96,12.64-11.07,12.64h-105.41c-6.12,0-11.07-5.66-11.07-12.64V13.09c0-6.98,4.96-12.64,11.07-12.64h105.41c6.12,0,11.07,5.66,11.07,12.64v229.83Z" style="fill: none; stroke: #d53995; stroke-width: .25px;"/>
  <path d="M134.23,20.19c0,2.74-2.22,4.96-4.96,4.96s-4.96-2.22-4.96-4.96,2.22-4.96,4.96-4.96,4.96,2.22,4.96,4.96" style="fill: #fff;"/>
  <path d="M134.23,20.19c0,2.74-2.22,4.96-4.96,4.96s-4.96-2.22-4.96-4.96,2.22-4.96,4.96-4.96,4.96,2.22,4.96,4.96" style="fill: none; stroke: #d53995; stroke-width: .25px;"/>
</svg>