<?xml version="1.0" encoding="UTF-8"?>
<svg id="Layer1" xmlns="http://www.w3.org/2000/svg" viewBox="0 0 128.06 320.72">
  <defs>
    <style>
      .cls-1, .cls-2, .cls-3, .cls-4, .cls-5, .cls-6 {
        font-weight: 700;
      }

      .cls-1, .cls-2, .cls-3, .cls-4, .cls-6 {
        font-family: Barlow-Bold, Barlow;
      }

      .cls-1, .cls-7, .cls-8, .cls-9, .cls-10, .cls-3, .cls-11, .cls-4, .cls-5, .cls-12, .cls-6, .cls-13 {
        isolation: isolate;
      }

      .cls-1, .cls-6 {
        font-size: 6.5px;
      }

      .cls-2, .cls-14 {
        font-size: 7px;
        letter-spacing: .05em;
      }

      .cls-15, .cls-6 {
        fill: #fff;
      }

      .cls-7 {
        font-family: ArialMT, Arial;
      }

      .cls-7, .cls-9 {
        font-size: 27.69px;
      }

      .cls-8 {
        font-size: 15.11px;
      }

      .cls-8, .cls-9 {
        font-family: BarlowCondensed-Medium, 'Barlow Condensed';
        font-weight: 500;
      }

      .cls-16, .cls-17, .cls-18, .cls-19, .cls-20, .cls-21 {
        fill: none;
      }

      .cls-17 {
        stroke: #e50695;
      }

      .cls-17, .cls-21 {
        stroke-width: .5px;
      }

      .cls-22 {
        letter-spacing: -.06em;
      }

      .cls-18 {
        stroke-width: .47px;
      }

      .cls-18, .cls-19, .cls-20 {
        stroke: #000;
        stroke-miterlimit: 10;
      }

      .cls-10 {
        font-family: Barlow-Black, Barlow;
        font-weight: 800;
      }

      .cls-10, .cls-4 {
        font-size: 8.5px;
      }

      .cls-3 {
        font-size: 10px;
      }

      .cls-14 {
        font-family: Barlow-Regular, Barlow;
      }

      .cls-11, .cls-12, .cls-13 {
        font-size: 7.5px;
      }

      .cls-11, .cls-13 {
        font-family: Myriad-Roman, Myriad;
      }

      .cls-23 {
        letter-spacing: -.01em;
      }

      .cls-19 {
        stroke-width: .47px;
      }

      .cls-24 {
        letter-spacing: .03em;
      }

      .cls-25 {
        fill: #1b1e1d;
      }

      .cls-5 {
        font-family: Arial-BoldMT, Arial;
        font-size: 15px;
      }

      .cls-20 {
        stroke-width: 1.2px;
      }

      .cls-12 {
        font-family: MyriadPro-Regular, 'Myriad Pro';
      }

      .cls-21 {
        stroke: #73bf44;
        stroke-dasharray: 2 3 2 3 2 3;
      }

      .cls-13 {
        letter-spacing: .11em;
      }
    </style>
  </defs>
  <text id="quantity" class="cls-5" transform="translate(32.76 315.08)"><tspan x="0" y="0">Qty - </tspan><tspan class="cls-22" x="38.33" y="0">1</tspan><tspan x="45.85" y="0">10</tspan></text>
  <text id="sub_department" class="cls-11" transform="translate(32.94 198.71)"><tspan x="0" y="0">3612</tspan></text>
  <text id="department" class="cls-11" transform="translate(55.83 198.71)"><tspan x="0" y="0">230</tspan></text>
  <text id="sku_code" class="cls-12" transform="translate(74.16 198.71)"><tspan x="0" y="0">2356978</tspan></text>
  <text id="style_code" class="cls-11" transform="translate(52 234.17)"><tspan x="0" y="0">2356978</tspan></text>
  <text id="commercial_ref" class="cls-11" transform="translate(47.2 241.77)"><tspan x="0" y="0">PR532 PE04</tspan></text>
  <g id="Barcode">
    <rect x="33.5" y="199.66" width=".41" height="22.68"/>
    <rect x="34.91" y="199.66" width=".41" height="22.68"/>
    <rect x="37.73" y="199.66" width="1.12" height="22.68"/>
    <rect x="39.85" y="199.66" width=".41" height="22.68"/>
    <rect x="41.26" y="199.66" width="1.83" height="22.68"/>
    <rect x="44.79" y="199.66" width=".41" height="22.68"/>
    <rect x="46.2" y="199.66" width=".41" height="22.68"/>
    <rect x="49.03" y="199.66" width="1.12" height="22.68"/>
    <rect x="51.14" y="199.66" width=".41" height="22.68"/>
    <rect x="53.26" y="199.66" width="1.83" height="22.68"/>
    <rect x="56.08" y="199.66" width=".41" height="22.68"/>
    <rect x="59.61" y="199.66" width=".41" height="22.68"/>
    <rect x="61.78" y="199.66" width="1.07" height="22.68"/>
    <rect x="64.61" y="199.66" width=".36" height="22.68"/>
    <rect x="65.96" y="199.66" width=".41" height="22.68"/>
    <rect x="67.38" y="199.66" width=".41" height="22.68"/>
    <rect x="68.79" y="199.66" width=".41" height="22.68"/>
    <rect x="70.2" y="199.66" width=".41" height="22.68"/>
    <rect x="73.73" y="199.66" width="1.17" height="22.68"/>
    <rect x="75.84" y="199.66" width="1.17" height="22.68"/>
    <rect x="78.67" y="199.66" width=".41" height="22.68"/>
    <rect x="80.78" y="199.66" width="1.83" height="22.68"/>
    <rect x="83.61" y="199.66" width="1.17" height="22.68"/>
    <rect x="85.72" y="199.66" width="1.17" height="22.68"/>
    <rect x="88.55" y="199.66" width="1.17" height="22.68"/>
    <rect x="90.66" y="199.66" width="1.17" height="22.68"/>
    <rect x="93.49" y="199.66" width="1.17" height="22.68"/>
    <rect x="95.6" y="199.66" width="1.17" height="22.68"/>
    <rect x="98.43" y="199.66" width=".41" height="22.68"/>
    <rect x="99.84" y="199.66" width=".41" height="22.68"/>
  </g>
  <rect class="cls-15" x="36.03" y="219.67" width="29.44" height="4.06"/>
  <rect class="cls-15" x="68.46" y="219.67" width="29.43" height="4.08"/>
  <text id="Bar_1" data-name="Bar 1" class="cls-11" transform="translate(28.96 225.46)"><tspan x="0" y="0">8</tspan></text>
  <text id="Bar_2" data-name="Bar 2" class="cls-13" transform="translate(37.26 225.46)"><tspan x="0" y="0">054031</tspan></text>
  <text id="Bar_3" data-name="Bar 3" class="cls-13" transform="translate(69.67 225.46)"><tspan x="0" y="0">625222</tspan></text>
  <text id="currency_india" class="cls-7" transform="translate(38.28 274.44)"><tspan x="0" y="0">₹</tspan></text>
  <text id="currency" class="cls-9" transform="translate(38.28 274.16)"><tspan x="0" y="0">€</tspan></text>
  <text id="selling_price" class="cls-9" transform="translate(52.46 274.16)"><tspan x="0" y="0" xml:space="preserve"> 0</tspan></text>
  <text id="selling_price_fraction" class="cls-8" transform="translate(70.38 266.64)"><tspan class="cls-23" x="0" y="0">,</tspan><tspan class="cls-24" x="2.66" y="0">00</tspan></text>
  <text id="variable_Size_S" data-name="variable Size S" class="cls-1" transform="translate(34.26 174)"><tspan x="0" y="0">S</tspan></text>
  <text id="variable_Size_M" data-name="variable Size M" class="cls-1" transform="translate(48.37 174)"><tspan x="0" y="0">M</tspan></text>
  <text id="variable_Size_L" data-name="variable Size L" class="cls-1" transform="translate(63.31 174)"><tspan x="0" y="0">L</tspan></text>
  <text id="variable_Size_XL" data-name="variable Size XL" class="cls-1" transform="translate(75.75 174)"><tspan x="0" y="0">XL</tspan></text>
  <text id="variable_Size_XXL" data-name="variable Size XXL" class="cls-1" transform="translate(88.19 174)"><tspan x="0" y="0">XXL</tspan></text>
  <rect id="box_XXL" data-name="box XXL" x="87.9" y="167.78" width="12.5" height="8.5"/>
  <rect id="box_XL" data-name="box XL" x="73.41" y="167.78" width="12.5" height="8.5"/>
  <rect id="box_L" data-name="box L" x="58.92" y="167.78" width="12.5" height="8.5"/>
  <rect id="box_M" data-name="box M" x="44.43" y="167.78" width="12.5" height="8.5"/>
  <rect id="box_S" data-name="box S" x="29.93" y="167.78" width="12.5" height="8.5"/>
  <text id="variable_Size_box_S" data-name="variable Size box S" class="cls-6" transform="translate(34.26 174)"><tspan x="0" y="0">S</tspan></text>
  <text id="variable_Size_box_XXL" data-name="variable Size box XXL" class="cls-6" transform="translate(88.19 174)"><tspan x="0" y="0">XXL</tspan></text>
  <text id="variable_Size_box_XL" data-name="variable Size box XL" class="cls-6" transform="translate(75.75 174)"><tspan x="0" y="0">XL</tspan></text>
  <text id="variable_Size_box_L" data-name="variable Size box L" class="cls-6" transform="translate(63.31 174)"><tspan x="0" y="0">L</tspan></text>
  <text id="variable_Size_box_M" data-name="variable Size box M" class="cls-6" transform="translate(48.37 174)"><tspan x="0" y="0">M</tspan></text>
  <g id="man">
    <text id="USA" class="cls-4" transform="translate(56.5 160.2)"><tspan x="0" y="0">S</tspan></text>
    <text id="IT" class="cls-10" transform="translate(56.46 149.16)"><tspan x="0" y="0">S</tspan></text>
    <text id="EUR" class="cls-4" transform="translate(108.02 149.29)"><tspan x="0" y="0">38</tspan></text>
    <text id="MEX" class="cls-4" transform="translate(112.18 160.21)"><tspan x="0" y="0">S</tspan></text>
    <g>
      <path d="M12.09,148.88v-5.63c0-.11.05-.16.16-.16h1.28c.11,0,.16.05.16.16v5.63c0,.11-.05.16-.16.16h-1.28c-.11,0-.16-.05-.16-.16"/>
      <path d="M19.35,143.25v1.05c0,.11-.05.16-.16.16h-1.37s-.07.02-.07.07v4.34c0,.11-.05.16-.16.16h-1.27c-.11,0-.16-.05-.16-.16v-4.34s-.02-.07-.07-.07h-1.33c-.11,0-.16-.05-.16-.16v-1.05c0-.11.05-.16.16-.16h4.43c.11,0,.16.05.16.16"/>
    </g>
    <g>
      <path d="M71.55,144.13h-2.74s-.05.02-.05.05v1.3s.02.05.05.05h1.78c.1,0,.15.05.15.15v.74c0,.1-.05.14-.15.14h-1.78s-.05.02-.05.05v1.36s.02.05.05.05h2.74c.1,0,.15.05.15.15v.74c0,.1-.05.14-.15.14h-3.84c-.1,0-.14-.05-.14-.14v-5.66c0-.1.05-.15.14-.15h3.84c.1,0,.15.05.15.15v.74c0,.1-.05.14-.15.14"/>
      <path d="M73.95,148.87c-.33-.17-.59-.41-.77-.72-.18-.31-.28-.66-.28-1.07v-3.83c0-.1.05-.14.15-.14h.91c.1,0,.14.05.14.14v3.84c0,.3.09.54.28.73.18.18.43.28.73.28s.54-.09.73-.28c.18-.18.28-.43.28-.73v-3.84c0-.1.05-.14.14-.14h.91c.1,0,.14.05.14.14v3.83c0,.4-.09.76-.28,1.07-.18.31-.44.55-.77.72-.33.17-.71.26-1.15.26s-.82-.09-1.15-.26"/>
      <path d="M79.91,144.19v1.43s.02.05.05.05h1.11c.24,0,.43-.07.58-.21.15-.14.22-.32.22-.55s-.07-.41-.22-.56c-.15-.14-.34-.22-.58-.22h-1.11s-.05.02-.05.05M81.84,148.95l-1.05-2.31s-.03-.04-.06-.04h-.77s-.05.02-.05.05v2.27c0,.1-.05.14-.14.14h-.91c-.1,0-.14-.05-.14-.14v-5.67c0-.1.05-.14.14-.14h2.39c.36,0,.68.08.96.23.28.15.49.36.64.63.15.27.23.58.23.94,0,.39-.1.72-.29.99-.19.28-.46.47-.8.59-.02,0-.03.02-.03.03,0,.01,0,.03,0,.04l1.12,2.35s.02.05.02.08-.01.05-.03.07c-.02.02-.05.03-.09.03h-.96c-.07,0-.13-.04-.17-.11"/>
    </g>
    <g>
      <path d="M67.57,160v-5.66c0-.1.05-.15.14-.15h.91c.07,0,.13.03.17.09l1.23,1.99s.02.03.04.03c.02,0,.02,0,.03-.03l1.25-1.99c.04-.06.1-.09.17-.09h.91c.1,0,.14.05.14.15v5.66c0,.1-.05.14-.14.14h-.91c-.1,0-.14-.05-.14-.14v-3.68s0-.04-.02-.04c-.01,0-.03,0-.04.03l-.86,1.4c-.04.06-.1.09-.17.09h-.43c-.07,0-.13-.03-.17-.09l-.85-1.4s-.02-.03-.04-.03c-.02,0-.02.02-.02.04v3.68c0,.1-.05.14-.14.14h-.91c-.1,0-.14-.05-.14-.14"/>
      <path d="M78.01,155.23h-2.74s-.05.02-.05.05v1.3s.02.05.05.05h1.78c.1,0,.15.05.15.15v.74c0,.1-.05.14-.15.14h-1.78s-.05.02-.05.05v1.36s.02.05.05.05h2.74c.1,0,.14.05.14.14v.74c0,.1-.05.14-.14.14h-3.84c-.1,0-.14-.05-.14-.14v-5.66c0-.1.05-.14.14-.14h3.84c.1,0,.14.05.14.14v.74c0,.1-.05.15-.14.15"/>
      <path d="M79.21,160.12s-.03-.04-.03-.07,0-.05.03-.08l1.62-2.77s0-.04,0-.07l-1.62-2.77s-.03-.05-.03-.08c0-.03.01-.05.03-.07.02-.02.05-.03.09-.03h.99c.08,0,.15.03.18.1l1.08,1.9s.02.03.04.03c.01,0,.02,0,.03-.03l1.08-1.9c.03-.07.09-.1.18-.1h.98s.07,0,.09.03c.02.02.04.04.04.07,0,.02,0,.05-.03.08l-1.61,2.77s0,.05,0,.07l1.61,2.77s.03.05.03.08-.01.05-.04.07c-.02.02-.05.03-.09.03h-.98c-.09,0-.14-.03-.18-.1l-1.08-1.89s-.01-.03-.03-.03c-.01,0-.03,0-.04.03l-1.09,1.89c-.03.07-.09.1-.18.1h-.98s-.07,0-.09-.03"/>
    </g>
    <g>
      <path d="M13.28,159.96c-.33-.17-.59-.41-.77-.72-.18-.31-.28-.66-.28-1.07v-3.83c0-.1.05-.14.14-.14h.91c.1,0,.14.05.14.14v3.84c0,.3.09.54.28.73.18.18.43.28.73.28s.54-.09.73-.28c.18-.18.28-.43.28-.73v-3.84c0-.1.05-.14.14-.14h.91c.1,0,.15.05.15.14v3.83c0,.4-.09.76-.28,1.07-.18.31-.44.55-.77.72-.33.17-.71.26-1.15.26s-.82-.08-1.15-.26"/>
      <path d="M18.89,160c-.33-.15-.59-.35-.77-.62-.18-.27-.27-.58-.27-.93v-.14c0-.1.05-.15.14-.15h.89c.1,0,.15.04.15.11v.12c0,.23.1.42.31.57.21.16.48.23.81.23.3,0,.52-.06.67-.19.14-.13.22-.28.22-.47,0-.14-.05-.25-.14-.34-.09-.09-.21-.18-.36-.25-.15-.07-.4-.17-.74-.29-.39-.13-.71-.26-.97-.4-.26-.14-.48-.32-.66-.56-.18-.24-.27-.53-.27-.87s.09-.64.26-.89c.18-.26.42-.45.73-.59.31-.14.67-.2,1.08-.2.43,0,.82.08,1.16.23.34.15.61.37.8.64.19.28.28.59.28.96v.09c0,.1-.05.14-.15.14h-.89c-.1,0-.14-.03-.14-.08v-.09c0-.24-.1-.44-.29-.61s-.46-.25-.8-.25c-.27,0-.48.06-.63.17-.15.11-.22.27-.22.47,0,.14.04.26.13.36.08.1.21.18.39.26.17.08.44.18.8.31.4.15.71.28.94.39.23.11.44.28.62.51.18.23.28.52.28.88s-.09.65-.27.91c-.18.26-.43.46-.76.6-.33.14-.71.21-1.15.21s-.83-.07-1.17-.22"/>
      <path d="M25.08,158.27h1.5s.05-.02.04-.06l-.76-2.59s-.01-.03-.03-.03c-.01,0-.03.01-.04.03l-.76,2.59s0,.06.04.06M27.16,160.03l-.24-.79s-.02-.04-.05-.04h-2.08s-.05.01-.05.04l-.24.79c-.03.08-.08.12-.16.12h-.99c-.05,0-.09-.02-.11-.05-.02-.03-.03-.07,0-.11l1.81-5.67c.03-.08.08-.12.16-.12h1.25c.08,0,.13.04.16.12l1.81,5.67s0,.03,0,.05c0,.03-.01.06-.03.08-.02.02-.05.03-.09.03h-.99c-.08,0-.13-.04-.16-.12"/>
    </g>
  </g>
  <g id="translation_code_english">
    <text class="cls-14" transform="translate(40.16 91.31)"><tspan x="0" y="0">PURE COTTON</tspan></text>
  </g>
  <g id="translation_code_italiano">
    <text class="cls-2" transform="translate(40.22 75.51)"><tspan x="0" y="0">PURE COTTON</tspan></text>
  </g>
  <g id="qr">
    <path d="M89.88,9.32h.37c.12,0,.22-.06.29-.16.07-.1.11-.25.12-.42v-1.49c0-.18-.04-.32-.11-.43-.07-.1-.17-.16-.3-.16h-.37s-.02,0-.02.02v2.62s0,.02.02.02M89.57,9.56v-3.14s.01-.05.04-.05h.64c.21,0,.38.08.51.23.13.16.19.36.19.62v1.51c0,.26-.06.47-.19.63-.13.16-.3.23-.51.23h-.64s-.04-.02-.04-.05"/>
    <path d="M91.38,9.56v-3.14s.01-.05.04-.05h.21s.04.02.04.05v3.14s-.01.05-.04.05h-.21s-.04-.02-.04-.05"/>
    <path d="M93.42,6.66h-.96s-.02,0-.02.02v1.15s0,.02.02.02h.6s.04.02.04.05v.2s-.02.05-.04.05h-.6s-.02,0-.02.02v1.41s-.01.05-.04.05h-.21s-.04-.02-.04-.05v-3.14s.01-.05.04-.05h1.23s.04.02.04.05v.19s-.01.05-.04.05"/>
    <path d="M94.98,6.66h-.96s-.02,0-.02.02v1.15s0,.02.02.02h.6s.04.02.04.05v.2s-.01.05-.04.05h-.6s-.02,0-.02.02v1.41s-.01.05-.04.05h-.21s-.04-.02-.04-.05v-3.14s.01-.05.04-.05h1.23s.04.02.04.05v.19s-.01.05-.04.05"/>
    <path d="M96.54,6.66h-.96s-.02,0-.02.02v1.15s0,.02.02.02h.61s.04.02.04.05v.2s-.01.05-.04.05h-.61s-.02,0-.02.02v1.15s0,.02.02.02h.96s.04.02.04.05v.19s-.01.05-.04.05h-1.23s-.04-.02-.04-.05v-3.14s.01-.05.04-.05h1.23s.04.02.04.05v.19s-.01.05-.04.05"/>
    <path d="M97.23,6.68v1.16s0,.02.02.02h.37c.13,0,.23-.05.31-.16.08-.11.12-.25.12-.43s-.04-.33-.12-.44-.18-.16-.31-.16h-.37s-.02,0-.02.02M98.04,9.57l-.43-1.44s0-.01-.02-.01h-.36s-.02,0-.02.02v1.42s-.01.05-.04.05h-.21s-.04-.02-.04-.05v-3.15s.01-.05.04-.05h.69c.2,0,.36.08.49.25.12.16.19.38.19.64,0,.2-.04.38-.12.52-.08.15-.18.24-.32.3-.01,0-.02.01-.01.02l.45,1.45v.02s0,.03-.03.03h-.22s-.04-.01-.05-.04"/>
    <path d="M99.93,6.66h-.96s-.02,0-.02.02v1.15s0,.02.02.02h.61s.04.02.04.05v.2s-.01.05-.04.05h-.61s-.02,0-.02.02v1.15s0,.02.02.02h.96s.04.02.04.05v.19s-.01.05-.04.05h-1.23s-.04-.02-.04-.05v-3.14s.01-.05.04-.05h1.23s.04.02.04.05v.19s-.01.05-.04.05"/>
    <path d="M100.31,9.56v-3.14s.01-.05.04-.05h.22s.04.01.05.04l.84,2.33s0,.01.01.01,0,0,0-.01v-2.32s.01-.05.04-.05h.21s.04.02.04.05v3.14s-.01.05-.04.05h-.22s-.04-.01-.05-.04l-.83-2.33s0-.01-.01-.01v2.33s-.01.05-.04.05h-.21s-.04-.02-.04-.05"/>
    <path d="M102.08,9.56v-.21s0-.03.01-.06l1.01-2.61v-.02h-.98s-.04-.02-.04-.05v-.19s.01-.05.04-.05h1.26s.04.02.04.05v.21s0,.03-.01.06l-1,2.61v.02h.97s.04.02.04.05v.19s-.01.05-.04.05h-1.26s-.04-.02-.04-.05"/>
    <path d="M103.76,9.56v-3.14s.01-.05.04-.05h.21s.04.02.04.05v3.14s-.01.05-.04.05h-.21s-.04-.02-.04-.05"/>
    <path d="M104.85,8.71h.65s.01,0,.01-.02l-.33-1.78h0s0-.01,0,0l-.33,1.78s0,.02.01.02M105.68,9.57l-.1-.57h0s0-.01-.01-.01h-.76l-.11.58s-.02.04-.04.04h-.21s-.02,0-.03-.01v-.04l.63-3.14s.02-.04.05-.04h.25s.04.01.05.04l.63,3.14h0s-.01.05-.04.05h-.22s-.04-.01-.05-.04"/>
    <path d="M107.01,9.56v-3.14s.01-.05.04-.05h.21s.04.02.04.05v3.14s-.01.05-.04.05h-.21s-.04-.02-.04-.05"/>
    <path d="M108.79,6.68v1.16s0,.02.02.02h.37c.13,0,.23-.05.31-.16.08-.11.12-.25.12-.43s-.04-.33-.12-.44-.18-.16-.31-.16h-.37s-.02,0-.02.02M109.61,9.57l-.43-1.44s0-.01-.02-.01h-.36s-.02,0-.02.02v1.42s-.01.05-.04.05h-.21s-.04-.02-.04-.05v-3.15s.01-.05.04-.05h.69c.2,0,.37.08.49.25.12.16.19.38.19.64,0,.2-.04.38-.12.52-.08.15-.18.24-.32.3-.01,0-.01.01-.01.02l.45,1.45v.02s0,.03-.03.03h-.22s-.04-.01-.05-.04"/>
    <path d="M110.22,9.56v-3.14s.01-.05.04-.05h.21s.04.02.04.05v3.14s-.01.05-.04.05h-.21s-.04-.02-.04-.05"/>
    <path d="M112.26,6.66h-.96s-.02,0-.02.02v1.15s0,.02.02.02h.6s.04.02.04.05v.2s-.01.05-.04.05h-.6s-.02,0-.02.02v1.41s-.01.05-.04.05h-.21s-.04-.02-.04-.05v-3.14s.01-.05.04-.05h1.23s.04.02.04.05v.19s-.01.05-.04.05"/>
    <path d="M112.55,9.56v-3.14s.01-.05.04-.05h.21s.04.02.04.05v3.14s-.01.05-.04.05h-.21s-.04-.02-.04-.05"/>
    <path d="M113.49,9.4c-.13-.16-.2-.38-.2-.65v-2.33s.01-.05.04-.05h.21s.04.02.04.05v2.37c0,.17.04.31.12.41.07.1.18.16.3.16s.23-.05.31-.16c.08-.1.12-.24.12-.41v-2.37s.01-.05.04-.05h.21s.04.02.04.05v2.33c0,.27-.06.48-.2.65-.13.16-.31.25-.52.25s-.39-.08-.52-.25"/>
    <path d="M116.5,6.42v.19s-.01.05-.04.05h-.55s-.02,0-.02.02v2.88s-.01.05-.04.05h-.21s-.04-.01-.04-.05v-2.88s0-.02-.02-.02h-.51s-.04-.02-.04-.05v-.19s.01-.05.04-.05h1.39s.04.02.04.05"/>
    <path d="M116.82,9.56v-3.14s.01-.05.04-.05h.21s.04.02.04.05v3.14s-.01.05-.04.05h-.21s-.04-.02-.04-.05"/>
    <path d="M89.36,45.03c-.13-.15-.19-.35-.19-.59v-.11s.01-.05.04-.05h.21s.04.02.04.05v.1c0,.16.04.3.11.4.07.1.17.15.29.15s.21-.05.29-.14.12-.22.12-.38c0-.1-.02-.19-.06-.27-.04-.07-.08-.14-.15-.2-.06-.06-.16-.14-.3-.26-.14-.11-.25-.21-.33-.29s-.15-.18-.2-.29c-.05-.11-.08-.25-.08-.4,0-.24.06-.43.19-.57.12-.14.29-.21.49-.21.21,0,.38.08.51.23.12.15.19.36.19.61v.12s-.01.05-.04.05h-.21s-.04-.02-.04-.05v-.12c0-.16-.04-.3-.11-.4-.07-.1-.17-.15-.29-.15-.11,0-.2.04-.27.13s-.11.21-.11.37c0,.1.01.18.05.25.03.07.08.14.14.21.06.06.16.15.28.25.17.14.29.25.37.33s.15.18.19.28.07.22.07.36c0,.25-.07.45-.2.61-.13.15-.3.23-.5.23s-.37-.07-.5-.23"/>
    <path d="M92.15,42.27h-.96s-.02,0-.02.02v1.15s0,.02.02.02h.61s.04.02.04.05v.2s-.01.05-.04.05h-.61s-.02,0-.02.02v1.15s0,.02.02.02h.96s.04.02.04.05v.19s-.01.05-.04.05h-1.23s-.04-.02-.04-.05v-3.14s.01-.05.04-.05h1.23s.04.02.04.05v.19s-.01.05-.04.05"/>
    <path d="M93.53,43.33c.08-.11.12-.26.12-.44s-.04-.33-.12-.45c-.08-.11-.18-.17-.3-.17h-.38s-.02,0-.02.02v1.19s0,.02.02.02h.38c.12,0,.23-.06.3-.17M93.75,42.23c.12.16.19.38.19.65s-.06.48-.18.64-.28.24-.48.24h-.43s-.02,0-.02.02v1.4s-.01.05-.04.05h-.21s-.04-.02-.04-.05v-3.15s.01-.05.04-.05h.69c.2,0,.37.08.49.25"/>
    <path d="M94.46,44.32h.65s.01,0,.01-.02l-.33-1.78h0l-.33,1.78s0,.02.01.02M95.29,45.18l-.1-.57h-.77l-.11.58s-.02.04-.04.04h-.24v-.04l.63-3.14s.02-.04.05-.04h.25s.04,0,.05.04l.63,3.14h0s-.01.05-.04.05h-.22s-.04,0-.05-.04"/>
    <path d="M96.21,42.29v1.16s0,.02.02.02h.37c.13,0,.23-.05.31-.16s.12-.25.12-.43-.04-.33-.12-.44c-.08-.11-.18-.16-.31-.16h-.37s-.02,0-.02.02M97.03,45.18l-.43-1.44h-.38s-.02,0-.02.02v1.42s-.01.05-.04.05h-.21s-.04-.02-.04-.05v-3.15s.01-.05.04-.05h.69c.2,0,.36.08.49.24s.19.38.19.64c0,.2-.04.38-.12.52-.08.15-.18.24-.32.3-.01,0-.02,0-.01.02l.45,1.45v.02s0,.03-.03.03h-.22s-.04,0-.05-.04"/>
    <path d="M98,44.32h.65s.01,0,.01-.02l-.33-1.78h0l-.33,1.78s0,.02.01.02M98.83,45.18l-.1-.57h-.77l-.11.58s-.02.04-.04.04h-.24v-.04l.63-3.14s.02-.04.05-.04h.25s.04,0,.05.04l.63,3.14h0s-.01.05-.04.05h-.22s-.04,0-.05-.04"/>
    <path d="M100.52,42.03v.19s-.01.05-.04.05h-.55s-.02,0-.02.02v2.88s-.01.05-.04.05h-.21s-.04-.02-.04-.05v-2.88s0-.02-.02-.02h-.51s-.04-.02-.04-.05v-.19s.01-.05.04-.05h1.39s.04.02.04.05"/>
    <path d="M102.11,42.27h-.96s-.02,0-.02.02v1.15s0,.02.02.02h.61s.04.02.04.05v.2s-.01.05-.04.05h-.61s-.02,0-.02.02v1.15s0,.02.02.02h.96s.04.02.04.05v.19s-.01.05-.04.05h-1.23s-.04-.02-.04-.05v-3.14s.01-.05.04-.05h1.23s.04.02.04.05v.19s-.01.05-.04.05"/>
    <path d="M104.53,42.03v.19s-.01.05-.04.05h-.55s-.02,0-.02.02v2.88s-.01.05-.04.05h-.21s-.04-.02-.04-.05v-2.88s0-.02-.02-.02h-.51s-.04-.02-.04-.05v-.19s.01-.05.04-.05h1.39s.04.02.04.05"/>
    <path d="M105.96,41.99h.21s.04.02.04.05v3.14s-.01.05-.04.05h-.21s-.04-.02-.04-.05v-1.41s0-.02-.02-.02h-.74s-.02,0-.02.02v1.41s-.01.05-.04.05h-.21s-.04-.02-.04-.05v-3.14s.01-.05.04-.05h.21s.04.02.04.05v1.4s0,.02.02.02h.74s.02,0,.02-.02v-1.4s.01-.05.04-.05"/>
    <path d="M107.93,42.27h-.96s-.02,0-.02.02v1.15s0,.02.02.02h.61s.04.02.04.05v.2s-.01.05-.04.05h-.61s-.02,0-.02.02v1.15s0,.02.02.02h.96s.04.02.04.05v.19s-.01.05-.04.05h-1.23s-.04-.02-.04-.05v-3.14s.01-.05.04-.05h1.23s.04.02.04.05v.19s-.01.05-.04.05"/>
    <path d="M109.4,45.18l-.55-3.14h0s.01-.05.04-.05h.22s.04,0,.04.04l.39,2.43h0l.34-2.43s.02-.04.04-.04h.19s.04,0,.04.04l.35,2.43h0l.36-2.43s.02-.04.04-.04h.25v.04l-.51,3.14s-.02.04-.05.04h-.2s-.04,0-.04-.04l-.35-2.44h-.01l-.34,2.44s-.02.04-.04.04h-.2s-.04,0-.05-.04"/>
    <path d="M111.6,44.32h.65s.01,0,.01-.02l-.33-1.78h0l-.33,1.78s0,.02.01.02M112.43,45.18l-.1-.57h-.77l-.11.58s-.02.04-.05.04h-.24v-.04l.63-3.14s.02-.04.05-.04h.25s.04,0,.04.04l.63,3.14h0s-.01.05-.04.05h-.21s-.04,0-.05-.04"/>
    <path d="M113.07,45.03c-.13-.15-.19-.35-.19-.59v-.11s.01-.05.04-.05h.21s.04.02.04.05v.1c0,.16.04.3.11.4.07.1.17.15.29.15s.21-.05.29-.14.12-.22.12-.38c0-.1-.02-.19-.06-.27-.04-.07-.09-.14-.15-.2-.06-.06-.16-.14-.3-.26-.14-.11-.25-.21-.33-.29s-.15-.18-.2-.29c-.05-.11-.08-.25-.08-.4,0-.24.06-.43.19-.57.12-.14.29-.21.49-.21.21,0,.38.08.51.23.13.15.19.36.19.61v.12s-.01.05-.04.05h-.21s-.04-.02-.04-.05v-.12c0-.16-.04-.3-.11-.4s-.17-.15-.29-.15c-.11,0-.2.04-.27.13s-.11.21-.11.37c0,.1.02.18.05.25.03.07.08.14.14.21.06.06.16.15.28.25.17.14.29.25.37.33s.14.18.19.28c.04.1.07.22.07.36,0,.25-.07.45-.19.61-.13.15-.3.23-.5.23s-.37-.07-.5-.23"/>
    <path d="M115.88,42.03v.19s-.01.05-.04.05h-.55s-.02,0-.02.02v2.88s-.01.05-.04.05h-.21s-.04-.02-.04-.05v-2.88s0-.02-.02-.02h-.51s-.04-.02-.04-.05v-.19s.01-.05.04-.05h1.39s.04.02.04.05"/>
    <path d="M117.47,42.27h-.96s-.02,0-.02.02v1.15s0,.02.02.02h.61s.04.02.04.05v.2s-.01.05-.04.05h-.61s-.02,0-.02.02v1.15s0,.02.02.02h.96s.04.02.04.05v.19s-.01.05-.04.05h-1.23s-.04-.02-.04-.05v-3.14s.01-.05.04-.05h1.23s.04.02.04.05v.19s-.01.05-.04.05"/>
    <path d="M89.17,12.1h.86v-.86h-.86v.86ZM90.88,11.24h-.86v.86h1.72v-.86h-.86ZM92.6,11.24h-.86v.86h1.72v-.86h-.86ZM94.32,11.24h-.86v.86h1.72v-.86h-.86Z"/>
    <rect x="96.04" y="11.24" width=".86" height=".86"/>
    <rect x="97.76" y="11.24" width=".86" height=".86"/>
    <rect x="99.47" y="11.24" width=".86" height=".86"/>
    <rect x="101.19" y="11.24" width=".86" height=".86"/>
    <path d="M103.77,12.1h.86v-.86h-.86v.86ZM104.63,12.1h.86v-.86h-.86v.86ZM105.49,12.1h.86v-.86h-.86v.86Z"/>
    <rect x="107.2" y="11.24" width=".86" height=".86"/>
    <polygon points="109.78 11.24 108.92 11.24 108.92 12.1 109.78 12.1 110.64 12.1 110.64 11.24 109.78 11.24"/>
    <path d="M116.65,12.1h.86v-.86h-.86v.86ZM115.79,12.1h.86v-.86h-.86v.86ZM114.94,12.1h.86v-.86h-.86v.86ZM114.08,12.1h.86v-.86h-.86v.86ZM113.22,12.1h.86v-.86h-.86v.86ZM112.36,12.1h.86v-.86h-.86v.86ZM111.5,12.1h.86v-.86h-.86v.86ZM89.17,12.96h.86v-.86h-.86v.86Z"/>
    <rect x="94.32" y="12.1" width=".86" height=".86"/>
    <rect x="96.04" y="12.1" width=".86" height=".86"/>
    <polygon points="98.61 12.1 97.76 12.1 97.76 12.96 98.62 12.96 99.47 12.96 99.47 12.1 98.61 12.1"/>
    <path d="M102.05,12.96h.86v-.86h-.86v.86ZM103.77,12.1h-.86v.86h1.72v-.86h-.86Z"/>
    <rect x="105.49" y="12.1" width=".86" height=".86"/>
    <rect x="109.78" y="12.1" width=".86" height=".86"/>
    <rect x="111.5" y="12.1" width=".86" height=".86"/>
    <path d="M116.65,12.96h.86v-.86h-.86v.86ZM89.17,13.82h.86v-.86h-.86v.86Z"/>
    <path d="M90.88,13.82h.86v-.86h-.86v.86ZM92.6,12.96h-.86v.86h1.72v-.86h-.86Z"/>
    <rect x="94.32" y="12.96" width=".86" height=".86"/>
    <rect x="96.04" y="12.96" width=".86" height=".86"/>
    <rect x="97.76" y="12.96" width=".86" height=".86"/>
    <path d="M100.33,12.96h-.86v.86h1.72v-.86h-.86ZM101.19,13.82h.86v-.86h-.86v.86Z"/>
    <rect x="103.77" y="12.96" width=".86" height=".86"/>
    <path d="M106.35,13.82h.86v-.86h-.86v.86ZM108.06,12.96h-.86v.86h1.72v-.86h-.86ZM109.78,12.96h-.86v.86h1.72v-.86h-.86Z"/>
    <rect x="111.5" y="12.96" width=".86" height=".86"/>
    <path d="M114.08,12.96h-.86v.86h1.72v-.86h-.86ZM114.94,13.82h.86v-.86h-.86v.86Z"/>
    <path d="M116.65,13.82h.86v-.86h-.86v.86ZM89.17,14.68h.86v-.86h-.86v.86Z"/>
    <path d="M90.88,14.68h.86v-.86h-.86v.86ZM92.6,13.82h-.86v.86h1.72v-.86h-.86Z"/>
    <rect x="94.32" y="13.82" width=".86" height=".86"/>
    <rect x="96.9" y="13.82" width=".86" height=".86"/>
    <path d="M100.33,13.82h-.86v.86h1.72v-.86h-.86ZM101.19,14.68h.86v-.86h-.86v.86Z"/>
    <rect x="102.91" y="13.82" width=".86" height=".86"/>
    <path d="M104.63,14.68h.86v-.86h-.86v.86ZM105.49,14.68h.86v-.86h-.86v.86Z"/>
    <path d="M108.06,14.68h.86v-.86h-.86v.86ZM109.78,13.82h-.86v.86h1.72v-.86h-.86Z"/>
    <rect x="111.5" y="13.82" width=".86" height=".86"/>
    <path d="M114.08,13.82h-.86v.86h1.72v-.86h-.86ZM114.94,14.68h.86v-.86h-.86v.86Z"/>
    <path d="M116.65,14.68h.86v-.86h-.86v.86ZM89.17,15.54h.86v-.86h-.86v.86Z"/>
    <path d="M90.88,15.54h.86v-.86h-.86v.86ZM92.6,14.68h-.86v.86h1.72v-.86h-.86Z"/>
    <rect x="94.32" y="14.68" width=".86" height=".86"/>
    <rect x="96.9" y="14.68" width=".86" height=".86"/>
    <rect x="98.61" y="14.68" width=".86" height=".86"/>
    <path d="M102.05,14.68h-.86v.86h1.72v-.86h-.86ZM103.77,14.68h-.86v.86h1.72v-.86h-.86Z"/>
    <rect x="106.35" y="14.68" width=".86" height=".86"/>
    <path d="M108.06,15.54h.86v-.86h-.86v.86ZM108.92,15.54h.86v-.86h-.86v.86Z"/>
    <rect x="111.5" y="14.68" width=".86" height=".86"/>
    <path d="M114.08,14.68h-.86v.86h1.72v-.86h-.86ZM114.94,15.54h.86v-.86h-.86v.86Z"/>
    <path d="M116.65,15.54h.86v-.86h-.86v.86ZM89.17,16.4h.86v-.86h-.86v.86Z"/>
    <rect x="94.32" y="15.54" width=".86" height=".86"/>
    <rect x="96.04" y="15.54" width=".86" height=".86"/>
    <rect x="100.33" y="15.54" width=".86" height=".86"/>
    <path d="M104.63,16.4h.86v-.86h-.86v.86ZM106.35,15.54h-.86v.86h1.72v-.86h-.86Z"/>
    <rect x="108.06" y="15.54" width=".86" height=".86"/>
    <rect x="109.78" y="15.54" width=".86" height=".86"/>
    <rect x="111.5" y="15.54" width=".86" height=".86"/>
    <path d="M116.65,16.4h.86v-.86h-.86v.86ZM94.32,17.26h.86v-.86h-.86v.86ZM93.46,17.26h.86v-.86h-.86v.86ZM92.6,17.26h.86v-.86h-.86v.86ZM91.74,17.26h.86v-.86h-.86v.86ZM90.88,17.26h.86v-.86h-.86v.86ZM90.03,17.26h.86v-.86h-.86v.86ZM89.17,17.26h.86v-.86h-.86v.86Z"/>
    <rect x="96.04" y="16.4" width=".86" height=".86"/>
    <rect x="97.76" y="16.4" width=".86" height=".86"/>
    <rect x="99.47" y="16.4" width=".86" height=".86"/>
    <rect x="101.19" y="16.4" width=".86" height=".86"/>
    <rect x="102.91" y="16.4" width=".86" height=".86"/>
    <rect x="104.63" y="16.4" width=".86" height=".86"/>
    <rect x="106.35" y="16.4" width=".86" height=".86"/>
    <rect x="108.06" y="16.4" width=".86" height=".86"/>
    <rect x="109.78" y="16.4" width=".86" height=".86"/>
    <path d="M112.36,16.4h-.86v.86h1.72v-.86h-.86ZM114.08,16.4h-.86v.86h1.72v-.86h-.86ZM115.79,16.4h-.86v.86h1.72v-.86h-.86ZM116.65,17.26h.86v-.86h-.86v.86Z"/>
    <rect x="96.04" y="17.25" width=".86" height=".86"/>
    <polygon points="98.61 17.25 97.76 17.25 97.76 18.11 98.62 18.11 99.47 18.11 99.47 17.25 98.61 17.25"/>
    <path d="M100.33,18.11h.86v-.86h-.86v.86ZM102.05,17.25h-.86v.86h1.72v-.86h-.86Z"/>
    <path d="M106.35,18.11h.86v-.86h-.86v.86ZM108.06,17.26h-.86v.86h1.72v-.86h-.86ZM108.92,18.11h.86v-.86h-.86v.86Z"/>
    <path d="M90.88,18.97h.86v-.86h-.86v.86ZM92.6,18.11h-.86v.86h1.72v-.86h-.86Z"/>
    <rect x="94.32" y="18.11" width=".86" height=".86"/>
    <path d="M96.04,18.97h.86v-.86h-.86v.86ZM96.9,18.97h.86v-.86h-.86v.86Z"/>
    <rect x="98.61" y="18.11" width=".86" height=".86"/>
    <path d="M102.05,18.11h-.86v.86h1.72v-.86h-.86ZM103.77,18.11h-.86v.86h1.72v-.86h-.86Z"/>
    <rect x="106.35" y="18.11" width=".86" height=".86"/>
    <path d="M108.06,18.97h.86v-.86h-.86v.86ZM109.78,18.11h-.86v.86h1.72v-.86h-.86ZM111.5,18.11h-.86v.86h1.72v-.86h-.86ZM112.36,18.97h.86v-.86h-.86v.86Z"/>
    <path d="M116.65,18.97h.86v-.86h-.86v.86ZM115.79,18.97h.86v-.86h-.86v.86ZM114.94,18.97h.86v-.86h-.86v.86ZM90.03,19.83h.86v-.86h-.86v.86ZM89.17,19.83h.86v-.86h-.86v.86Z"/>
    <polygon points="92.6 18.97 91.74 18.97 91.74 19.83 92.6 19.83 93.46 19.83 93.46 18.97 92.6 18.97"/>
    <path d="M96.04,18.97h-.86v.86h1.72v-.86h-.86ZM96.9,19.83h.86v-.86h-.86v.86Z"/>
    <rect x="98.61" y="18.97" width=".86" height=".86"/>
    <rect x="101.19" y="18.97" width=".86" height=".86"/>
    <rect x="104.63" y="18.97" width=".86" height=".86"/>
    <path d="M107.21,19.83h.86v-.86h-.86v.86ZM108.06,19.83h.86v-.86h-.86v.86ZM108.92,19.83h.86v-.86h-.86v.86ZM109.78,19.83h.86v-.86h-.86v.86ZM111.5,18.97h-.86v.86h1.72v-.86h-.86Z"/>
    <rect x="114.08" y="18.97" width=".86" height=".86"/>
    <path d="M116.65,19.83h.86v-.86h-.86v.86ZM94.32,20.69h.86v-.86h-.86v.86ZM93.46,20.69h.86v-.86h-.86v.86ZM92.6,20.69h.86v-.86h-.86v.86ZM91.74,20.69h.86v-.86h-.86v.86ZM90.88,20.69h.86v-.86h-.86v.86ZM90.03,20.69h.86v-.86h-.86v.86ZM89.17,20.69h.86v-.86h-.86v.86Z"/>
    <polygon points="100.33 19.83 99.47 19.83 99.47 20.69 100.33 20.69 101.19 20.69 101.19 19.83 100.33 19.83"/>
    <path d="M103.77,19.83h-.86v.86h1.72v-.86h-.86ZM104.63,20.69h.86v-.86h-.86v.86ZM105.49,20.69h.86v-.86h-.86v.86Z"/>
    <rect x="108.06" y="19.83" width=".86" height=".86"/>
    <rect x="109.78" y="19.83" width=".86" height=".86"/>
    <polygon points="112.36 19.83 111.5 19.83 111.5 20.69 112.36 20.69 113.22 20.69 113.22 19.83 112.36 19.83"/>
    <rect x="114.08" y="19.83" width=".86" height=".86"/>
    <rect x="115.79" y="19.83" width=".86" height=".86"/>
    <rect x="90.03" y="20.69" width=".86" height=".86"/>
    <rect x="92.6" y="20.69" width=".86" height=".86"/>
    <rect x="95.18" y="20.69" width=".86" height=".86"/>
    <rect x="96.9" y="20.69" width=".86" height=".86"/>
    <rect x="99.47" y="20.69" width=".86" height=".86"/>
    <polygon points="103.77 20.69 102.91 20.69 102.91 21.55 103.77 21.55 104.63 21.55 104.63 20.69 103.77 20.69"/>
    <rect x="105.49" y="20.69" width=".86" height=".86"/>
    <polygon points="108.06 20.69 107.2 20.69 107.2 21.55 108.06 21.55 108.92 21.55 108.92 20.69 108.06 20.69"/>
    <rect x="110.64" y="20.69" width=".86" height=".86"/>
    <path d="M114.08,21.55h.86v-.86h-.86v.86ZM114.94,21.55h.86v-.86h-.86v.86Z"/>
    <rect x="116.65" y="20.69" width=".86" height=".86"/>
    <path d="M90.88,21.55h-.86v.86h1.72v-.86h-.86ZM91.74,22.41h.86v-.86h-.86v.86Z"/>
    <rect x="94.32" y="21.55" width=".86" height=".86"/>
    <rect x="96.9" y="21.55" width=".86" height=".86"/>
    <rect x="100.33" y="21.55" width=".86" height=".86"/>
    <path d="M103.77,21.55h-.86v.86h1.72v-.86h-.86ZM104.63,22.41h.86v-.86h-.86v.86Z"/>
    <path d="M106.35,22.41h.86v-.86h-.86v.86ZM107.2,22.41h.86v-.86h-.86v.86Z"/>
    <path d="M109.78,22.41h.86v-.86h-.86v.86ZM110.64,22.41h.86v-.86h-.86v.86Z"/>
    <path d="M112.36,22.41h.86v-.86h-.86v.86ZM114.08,21.55h-.86v.86h1.72v-.86h-.86Z"/>
    <rect x="89.17" y="22.41" width=".86" height=".86"/>
    <rect x="90.88" y="22.41" width=".86" height=".86"/>
    <rect x="93.46" y="22.41" width=".86" height=".86"/>
    <path d="M96.04,23.27h.86v-.86h-.86v.86ZM96.9,23.27h.86v-.86h-.86v.86ZM98.61,22.41h-.86v.86h1.72v-.86h-.86Z"/>
    <rect x="101.19" y="22.41" width=".86" height=".86"/>
    <rect x="106.35" y="22.41" width=".86" height=".86"/>
    <rect x="108.92" y="22.41" width=".86" height=".86"/>
    <polygon points="111.5 22.41 110.64 22.41 110.64 23.27 111.5 23.27 112.36 23.27 112.36 22.41 111.5 22.41"/>
    <rect x="114.94" y="22.41" width=".86" height=".86"/>
    <path d="M116.65,23.27h.86v-.86h-.86v.86ZM90.03,24.13h.86v-.86h-.86v.86ZM89.17,24.13h.86v-.86h-.86v.86Z"/>
    <rect x="91.74" y="23.27" width=".86" height=".86"/>
    <rect x="94.32" y="23.27" width=".86" height=".86"/>
    <rect x="96.9" y="23.27" width=".86" height=".86"/>
    <path d="M98.61,24.13h.86v-.86h-.86v.86ZM100.33,23.27h-.86v.86h1.72v-.86h-.86ZM101.19,24.13h.86v-.86h-.86v.86Z"/>
    <path d="M104.63,24.13h.86v-.86h-.86v.86ZM105.49,24.13h.86v-.86h-.86v.86Z"/>
    <rect x="108.06" y="23.27" width=".86" height=".86"/>
    <polygon points="111.5 23.27 110.64 23.27 110.64 24.13 111.5 24.13 112.36 24.13 112.36 23.27 111.5 23.27"/>
    <rect x="114.08" y="23.27" width=".86" height=".86"/>
    <rect x="115.79" y="23.27" width=".86" height=".86"/>
    <rect x="89.17" y="24.13" width=".86" height=".86"/>
    <rect x="90.88" y="24.13" width=".86" height=".86"/>
    <rect x="93.46" y="24.13" width=".86" height=".86"/>
    <path d="M96.9,24.99h.86v-.86h-.86v.86ZM98.61,24.13h-.86v.86h1.72v-.86h-.86ZM99.47,24.99h.86v-.86h-.86v.86Z"/>
    <polygon points="102.05 24.13 101.19 24.13 101.19 24.99 102.05 24.99 102.91 24.99 102.91 24.13 102.05 24.13"/>
    <path d="M103.77,24.99h.86v-.86h-.86v.86ZM104.63,24.99h.86v-.86h-.86v.86ZM105.49,24.99h.86v-.86h-.86v.86Z"/>
    <polygon points="108.06 24.13 107.2 24.13 107.2 24.99 108.06 24.99 108.92 24.99 108.92 24.13 108.06 24.13"/>
    <polygon points="112.36 24.13 111.5 24.13 111.5 24.99 112.36 24.99 113.22 24.99 113.22 24.13 112.36 24.13"/>
    <path d="M114.08,24.99h.86v-.86h-.86v.86ZM115.79,24.13h-.86v.86h1.72v-.86h-.86Z"/>
    <polygon points="92.6 24.99 91.74 24.99 91.74 25.84 92.6 25.84 93.46 25.84 93.46 24.99 92.6 24.99"/>
    <path d="M94.32,25.84h.86v-.86h-.86v.86ZM96.04,24.99h-.86v.86h1.72v-.86h-.86Z"/>
    <rect x="97.76" y="24.99" width=".86" height=".86"/>
    <path d="M100.33,25.84h.86v-.86h-.86v.86ZM101.19,25.84h.86v-.86h-.86v.86Z"/>
    <rect x="102.91" y="24.99" width=".86" height=".86"/>
    <rect x="104.63" y="24.99" width=".86" height=".86"/>
    <rect x="110.64" y="24.99" width=".86" height=".86"/>
    <path d="M112.36,25.84h.86v-.86h-.86v.86ZM113.22,25.84h.86v-.86h-.86v.86Z"/>
    <rect x="89.17" y="25.85" width=".86" height=".86"/>
    <path d="M90.88,26.7h.86v-.86h-.86v.86ZM91.74,26.7h.86v-.86h-.86v.86Z"/>
    <path d="M96.04,26.7h.86v-.86h-.86v.86ZM96.9,26.7h.86v-.86h-.86v.86Z"/>
    <rect x="101.19" y="25.85" width=".86" height=".86"/>
    <path d="M103.77,25.84h-.86v.86h1.72v-.86h-.86ZM104.63,26.7h.86v-.86h-.86v.86ZM105.49,26.7h.86v-.86h-.86v.86Z"/>
    <rect x="107.2" y="25.85" width=".86" height=".86"/>
    <polygon points="109.78 25.84 108.92 25.84 108.92 26.7 109.78 26.7 110.64 26.7 110.64 25.84 109.78 25.84"/>
    <polygon points="112.36 25.84 111.5 25.84 111.5 26.7 112.36 26.7 113.22 26.7 113.22 25.84 112.36 25.84"/>
    <rect x="116.65" y="25.85" width=".86" height=".86"/>
    <path d="M90.88,26.7h-.86v.86h1.72v-.86h-.86ZM92.6,26.7h-.86v.86h1.72v-.86h-.86Z"/>
    <path d="M94.32,27.56h.86v-.86h-.86v.86ZM96.04,26.7h-.86v.86h1.72v-.86h-.86Z"/>
    <rect x="97.76" y="26.7" width=".86" height=".86"/>
    <polygon points="100.33 26.7 99.47 26.7 99.47 27.56 100.33 27.56 101.19 27.56 101.19 26.7 100.33 26.7"/>
    <rect x="102.05" y="26.7" width=".86" height=".86"/>
    <rect x="104.63" y="26.7" width=".86" height=".86"/>
    <path d="M106.35,27.56h.86v-.86h-.86v.86ZM108.06,26.7h-.86v.86h1.72v-.86h-.86Z"/>
    <rect x="110.64" y="26.7" width=".86" height=".86"/>
    <rect x="113.22" y="26.7" width=".86" height=".86"/>
    <polygon points="115.79 26.7 114.93 26.7 114.93 27.56 115.79 27.56 116.65 27.56 116.65 26.7 115.79 26.7"/>
    <rect x="90.88" y="27.56" width=".86" height=".86"/>
    <rect x="92.6" y="27.56" width=".86" height=".86"/>
    <rect x="97.76" y="27.56" width=".86" height=".86"/>
    <polygon points="100.33 27.56 99.47 27.56 99.47 28.42 100.33 28.42 101.19 28.42 101.19 27.56 100.33 27.56"/>
    <path d="M103.77,28.42h.86v-.86h-.86v.86ZM104.63,28.42h.86v-.86h-.86v.86ZM106.35,27.56h-.86v.86h1.72v-.86h-.86ZM107.2,28.42h.86v-.86h-.86v.86Z"/>
    <path d="M109.78,27.56h-.86v.86h1.72v-.86h-.86ZM111.5,27.56h-.86v.86h1.72v-.86h-.86ZM112.36,28.42h.86v-.86h-.86v.86Z"/>
    <path d="M114.08,28.42h.86v-.86h-.86v.86ZM115.79,27.56h-.86v.86h1.72v-.86h-.86Z"/>
    <rect x="89.17" y="28.42" width=".86" height=".86"/>
    <path d="M92.6,29.28h.86v-.86h-.86v.86ZM94.32,28.42h-.86v.86h1.72v-.86h-.86Z"/>
    <path d="M96.04,29.28h.86v-.86h-.86v.86ZM96.9,29.28h.86v-.86h-.86v.86ZM98.61,28.42h-.86v.86h1.72v-.86h-.86Z"/>
    <path d="M102.05,28.42h-.86v.86h1.72v-.86h-.86ZM102.91,29.28h.86v-.86h-.86v.86Z"/>
    <rect x="105.49" y="28.42" width=".86" height=".86"/>
    <path d="M109.78,29.28h.86v-.86h-.86v.86ZM110.64,29.28h.86v-.86h-.86v.86Z"/>
    <path d="M112.36,29.28h.86v-.86h-.86v.86ZM114.08,28.42h-.86v.86h1.72v-.86h-.86Z"/>
    <path d="M89.17,30.14h.86v-.86h-.86v.86ZM90.03,30.14h.86v-.86h-.86v.86Z"/>
    <rect x="96.04" y="29.28" width=".86" height=".86"/>
    <path d="M98.61,29.28h-.86v.86h1.72v-.86h-.86ZM100.33,29.28h-.86v.86h1.72v-.86h-.86Z"/>
    <path d="M106.35,29.28h-.86v.86h1.72v-.86h-.86ZM107.2,30.14h.86v-.86h-.86v.86Z"/>
    <rect x="108.92" y="29.28" width=".86" height=".86"/>
    <rect x="111.5" y="29.28" width=".86" height=".86"/>
    <path d="M114.08,30.14h.86v-.86h-.86v.86ZM114.94,30.14h.86v-.86h-.86v.86Z"/>
    <path d="M116.65,30.14h.86v-.86h-.86v.86ZM89.17,31h.86v-.86h-.86v.86Z"/>
    <path d="M90.88,31h.86v-.86h-.86v.86ZM91.74,31h.86v-.86h-.86v.86Z"/>
    <polygon points="94.32 30.14 93.46 30.14 93.46 31 94.32 31 95.18 31 95.18 30.14 94.32 30.14"/>
    <rect x="98.61" y="30.14" width=".86" height=".86"/>
    <path d="M103.77,30.14h-.86v.86h1.72v-.86h-.86ZM104.63,31h.86v-.86h-.86v.86ZM105.49,31h.86v-.86h-.86v.86Z"/>
    <rect x="107.2" y="30.14" width=".86" height=".86"/>
    <rect x="112.36" y="30.14" width=".86" height=".86"/>
    <path d="M114.08,31h.86v-.86h-.86v.86ZM115.79,30.14h-.86v.86h1.72v-.86h-.86Z"/>
    <rect x="89.17" y="31" width=".86" height=".86"/>
    <rect x="92.6" y="31" width=".86" height=".86"/>
    <polygon points="96.04 31 95.18 31 95.18 31.86 96.04 31.86 96.9 31.86 96.9 31 96.04 31"/>
    <path d="M98.61,31h-.86v.86h1.72v-.86h-.86ZM100.33,31h-.86v.86h1.72v-.86h-.86ZM102.05,31h-.86v.86h1.72v-.86h-.86Z"/>
    <rect x="105.49" y="31" width=".86" height=".86"/>
    <rect x="107.2" y="31" width=".86" height=".86"/>
    <rect x="109.78" y="31" width=".86" height=".86"/>
    <path d="M114.08,31.86h.86v-.86h-.86v.86ZM114.94,31.86h.86v-.86h-.86v.86Z"/>
    <path d="M116.65,31.86h.86v-.86h-.86v.86ZM89.17,32.72h.86v-.86h-.86v.86Z"/>
    <rect x="91.74" y="31.86" width=".86" height=".86"/>
    <rect x="94.32" y="31.86" width=".86" height=".86"/>
    <rect x="96.04" y="31.86" width=".86" height=".86"/>
    <polygon points="98.61 31.86 97.76 31.86 97.76 32.72 98.62 32.72 99.47 32.72 99.47 31.86 98.61 31.86"/>
    <rect x="100.33" y="31.86" width=".86" height=".86"/>
    <path d="M102.05,32.72h.86v-.86h-.86v.86ZM102.91,32.72h.86v-.86h-.86v.86Z"/>
    <polygon points="106.35 31.86 105.49 31.86 105.49 32.72 106.35 32.72 107.2 32.72 107.2 31.86 106.35 31.86"/>
    <path d="M108.06,32.72h.86v-.86h-.86v.86ZM109.78,31.86h-.86v.86h1.72v-.86h-.86ZM111.5,31.86h-.86v.86h1.72v-.86h-.86ZM112.36,32.72h.86v-.86h-.86v.86ZM113.22,32.72h.86v-.86h-.86v.86Z"/>
    <path d="M115.79,32.72h.86v-.86h-.86v.86ZM116.65,32.72h.86v-.86h-.86v.86Z"/>
    <path d="M96.04,33.57h.86v-.86h-.86v.86ZM96.9,33.57h.86v-.86h-.86v.86ZM97.76,33.57h.86v-.86h-.86v.86Z"/>
    <rect x="99.47" y="32.72" width=".86" height=".86"/>
    <polygon points="102.05 32.72 101.19 32.72 101.19 33.58 102.05 33.58 102.91 33.58 102.91 32.72 102.05 32.72"/>
    <path d="M104.63,33.58h.86v-.86h-.86v.86ZM106.35,32.72h-.86v.86h1.72v-.86h-.86Z"/>
    <polygon points="109.78 32.72 108.92 32.72 108.92 33.58 109.78 33.58 110.64 33.58 110.64 32.72 109.78 32.72"/>
    <path d="M116.65,33.58h.86v-.86h-.86v.86ZM115.79,33.58h.86v-.86h-.86v.86ZM114.94,33.58h.86v-.86h-.86v.86ZM114.08,33.58h.86v-.86h-.86v.86ZM113.22,33.58h.86v-.86h-.86v.86ZM94.32,34.43h.86v-.86h-.86v.86ZM93.46,34.43h.86v-.86h-.86v.86ZM92.6,34.43h.86v-.86h-.86v.86ZM91.74,34.43h.86v-.86h-.86v.86ZM90.88,34.43h.86v-.86h-.86v.86ZM90.03,34.43h.86v-.86h-.86v.86ZM89.17,34.43h.86v-.86h-.86v.86Z"/>
    <path d="M100.33,34.43h.86v-.86h-.86v.86ZM102.05,33.58h-.86v.86h1.72v-.86h-.86Z"/>
    <rect x="103.77" y="33.58" width=".86" height=".86"/>
    <path d="M108.06,34.43h.86v-.86h-.86v.86ZM109.78,33.58h-.86v.86h1.72v-.86h-.86Z"/>
    <rect x="111.5" y="33.58" width=".86" height=".86"/>
    <rect x="113.22" y="33.58" width=".86" height=".86"/>
    <rect x="115.79" y="33.58" width=".86" height=".86"/>
    <rect x="89.17" y="34.43" width=".86" height=".86"/>
    <rect x="94.32" y="34.43" width=".86" height=".86"/>
    <rect x="97.76" y="34.43" width=".86" height=".86"/>
    <polygon points="100.33 34.43 99.47 34.43 99.47 35.29 100.33 35.29 101.19 35.29 101.19 34.43 100.33 34.43"/>
    <path d="M102.05,35.29h.86v-.86h-.86v.86ZM103.77,34.43h-.86v.86h1.72v-.86h-.86Z"/>
    <rect x="105.49" y="34.43" width=".86" height=".86"/>
    <polygon points="109.78 34.43 108.92 34.43 108.92 35.29 109.78 35.29 110.64 35.29 110.64 34.43 109.78 34.43"/>
    <path d="M116.65,35.29h.86v-.86h-.86v.86ZM115.79,35.29h.86v-.86h-.86v.86ZM114.94,35.29h.86v-.86h-.86v.86ZM114.08,35.29h.86v-.86h-.86v.86ZM113.22,35.29h.86v-.86h-.86v.86ZM89.17,36.15h.86v-.86h-.86v.86Z"/>
    <path d="M90.88,36.15h.86v-.86h-.86v.86ZM92.6,35.29h-.86v.86h1.72v-.86h-.86Z"/>
    <rect x="94.32" y="35.29" width=".86" height=".86"/>
    <path d="M96.04,36.15h.86v-.86h-.86v.86ZM96.9,36.15h.86v-.86h-.86v.86ZM98.61,35.29h-.86v.86h1.72v-.86h-.86ZM100.33,35.29h-.86v.86h1.72v-.86h-.86Z"/>
    <rect x="102.91" y="35.29" width=".86" height=".86"/>
    <path d="M104.63,36.15h.86v-.86h-.86v.86ZM105.49,36.15h.86v-.86h-.86v.86Z"/>
    <polygon points="108.06 35.29 107.2 35.29 107.2 36.15 108.06 36.15 108.92 36.15 108.92 35.29 108.06 35.29"/>
    <path d="M109.78,36.15h.86v-.86h-.86v.86ZM111.5,35.29h-.86v.86h1.72v-.86h-.86ZM112.36,36.15h.86v-.86h-.86v.86ZM114.08,35.29h-.86v.86h1.72v-.86h-.86Z"/>
    <path d="M116.65,36.15h.86v-.86h-.86v.86ZM115.79,36.15h.86v-.86h-.86v.86ZM89.17,37.01h.86v-.86h-.86v.86Z"/>
    <path d="M90.88,37.01h.86v-.86h-.86v.86ZM92.6,36.15h-.86v.86h1.72v-.86h-.86Z"/>
    <rect x="94.32" y="36.15" width=".86" height=".86"/>
    <path d="M96.04,37.01h.86v-.86h-.86v.86ZM96.9,37.01h.86v-.86h-.86v.86Z"/>
    <rect x="99.47" y="36.15" width=".86" height=".86"/>
    <rect x="101.19" y="36.15" width=".86" height=".86"/>
    <rect x="104.63" y="36.15" width=".86" height=".86"/>
    <path d="M106.35,37.01h.86v-.86h-.86v.86ZM107.2,37.01h.86v-.86h-.86v.86Z"/>
    <path d="M109.78,36.15h-.86v.86h1.72v-.86h-.86ZM110.64,37.01h.86v-.86h-.86v.86Z"/>
    <rect x="113.22" y="36.15" width=".86" height=".86"/>
    <path d="M116.65,37.01h.86v-.86h-.86v.86ZM89.17,37.87h.86v-.86h-.86v.86Z"/>
    <path d="M90.88,37.87h.86v-.86h-.86v.86ZM92.6,37.01h-.86v.86h1.72v-.86h-.86Z"/>
    <rect x="94.32" y="37.01" width=".86" height=".86"/>
    <path d="M96.04,37.87h.86v-.86h-.86v.86ZM96.9,37.87h.86v-.86h-.86v.86ZM97.76,37.87h.86v-.86h-.86v.86Z"/>
    <rect x="99.47" y="37.01" width=".86" height=".86"/>
    <path d="M102.05,37.01h-.86v.86h1.72v-.86h-.86ZM102.91,37.87h.86v-.86h-.86v.86Z"/>
    <rect x="104.63" y="37.01" width=".86" height=".86"/>
    <path d="M106.35,37.87h.86v-.86h-.86v.86ZM108.06,37.01h-.86v.86h1.72v-.86h-.86Z"/>
    <polygon points="111.5 37.01 110.64 37.01 110.64 37.87 111.5 37.87 112.36 37.87 112.36 37.01 111.5 37.01"/>
    <rect x="114.08" y="37.01" width=".86" height=".86"/>
    <rect x="89.17" y="37.87" width=".86" height=".86"/>
    <rect x="94.32" y="37.87" width=".86" height=".86"/>
    <path d="M96.9,38.73h.86v-.86h-.86v.86ZM97.76,38.73h.86v-.86h-.86v.86Z"/>
    <path d="M100.33,38.73h.86v-.86h-.86v.86ZM102.05,37.87h-.86v.86h1.72v-.86h-.86Z"/>
    <path d="M103.77,38.73h.86v-.86h-.86v.86ZM104.63,38.73h.86v-.86h-.86v.86Z"/>
    <rect x="106.35" y="37.87" width=".86" height=".86"/>
    <rect x="112.36" y="37.87" width=".86" height=".86"/>
    <path d="M114.08,38.73h.86v-.86h-.86v.86ZM114.94,38.73h.86v-.86h-.86v.86Z"/>
    <path d="M89.17,39.59h.86v-.86h-.86v.86ZM90.88,38.73h-.86v.86h1.72v-.86h-.86ZM92.6,38.73h-.86v.86h1.72v-.86h-.86ZM94.32,38.73h-.86v.86h1.72v-.86h-.86Z"/>
    <rect x="96.9" y="38.73" width=".86" height=".86"/>
    <rect x="98.61" y="38.73" width=".86" height=".86"/>
    <rect x="101.19" y="38.73" width=".86" height=".86"/>
    <rect x="103.77" y="38.73" width=".86" height=".86"/>
    <polygon points="106.35 38.73 105.49 38.73 105.49 39.59 106.35 39.59 107.2 39.59 107.2 38.73 106.35 38.73"/>
    <polygon points="109.78 38.73 108.92 38.73 108.92 39.59 109.78 39.59 110.64 39.59 110.64 38.73 109.78 38.73"/>
    <rect x="111.5" y="38.73" width=".86" height=".86"/>
    <rect x="115.79" y="38.73" width=".86" height=".86"/>
  </g>
  <g id="fsc">
    <path d="M35.5,42.58H12.86c-.77,0-1.4-.63-1.4-1.4V8.76c0-.77.63-1.4,1.4-1.4h22.64c.77,0,1.4.63,1.4,1.4v32.42c0,.77-.63,1.4-1.4,1.4M12.86,7.61c-.63,0-1.15.51-1.15,1.15v32.42c0,.63.51,1.15,1.15,1.15h22.64c.63,0,1.14-.52,1.14-1.15V8.76c0-.63-.51-1.15-1.14-1.15H12.86Z"/>
    <path d="M29.42,9.69c.22,0,.4.08.56.23s.23.34.23.56-.08.4-.23.56c-.15.16-.34.23-.56.23s-.4-.08-.56-.23c-.15-.15-.23-.34-.23-.56s.08-.4.23-.56c.15-.16.34-.23.56-.23M29.42,11.14c.18,0,.34-.06.46-.19.13-.13.19-.28.2-.47,0-.18-.06-.34-.19-.46-.13-.13-.28-.19-.47-.19-.18,0-.34.06-.46.19-.13.13-.19.28-.19.47,0,.18.06.34.19.47.13.13.28.19.47.2M29.79,10.92h-.17c-.11-.19-.17-.3-.21-.33l-.12-.04h-.08v.36h-.14v-.85h.29l.2.02.11.08.04.13-.06.16-.18.08s.12.08.2.21l.1.17h.02,0ZM29.21,10.44h.17l.16-.03.04-.09-.04-.09-.17-.03h-.16v.26-.02Z"/>
    <path d="M24.52,9.5c-3.3,0-4.46,5.13-5.55,9.26-.39-.4-1.6-1.6-1.6-1.6-.24-.24-.52-.16-.69,0-.17.17-.2.49,0,.68,0,0,1.63,1.63,2.2,2.19.16.15.38.24.6.11.23-.14.26-.4.27-.4,1.93-8.64,3.64-9.28,4.76-9.28.94,0,2.02.69,2.02,2.09,1.4,0,2.28,1.84,1.15,2.98.94.45,1.35,1.01,1.35,1.71s-.59,1.43-1.45,1.42c-.85,0-1.29-.55-1.95-.55-.3,0-.49.24-.49.48v1.74h-1.26v-1.74c0-.27-.2-.49-.45-.49h-.11l-1.68.21c-.2.03-.39.25-.39.48,0,.27.22.49.52.49h.08l1.07-.14v1.72c0,.22.25.43.47.43h2.24c.26,0,.49-.22.49-.49v-1.57c.47.29,1.12.4,1.45.4,1.25,0,2.45-.99,2.44-2.43,0-1.31-1.01-1.97-1.01-1.97.59-1.57-.36-3.08-1.59-3.5-.45-1.62-1.83-2.24-2.89-2.24"/>
    <path d="M23.11,23.24c0,.41.45.65,1.2,1,.59.28.93.57.93.81,0,.38-.41.52-.79.52-.59,0-.94-.24-1.14-.77v-.05h-.06c-.11,0-.19,0-.24.06v.19l.12.54c.03.13.08.16.29.2.09.02.57.1.98.1,1.13,0,1.64-.46,1.64-.92,0-.33-.33-.65-1.04-1.01l-.32-.16c-.49-.23-.78-.37-.78-.61s.3-.4.74-.4c.57,0,.72.32.79.59v.05h.07c.13,0,.2-.01.25-.06l.03-.12-.04-.47c-.01-.15-.13-.17-.29-.2-.19-.04-.42-.08-.76-.08-.98,0-1.57.29-1.57.77"/>
    <path d="M26.37,24.19c0,.82.71,1.65,2.07,1.65.69,0,1.07-.16,1.36-.31l.08-.04-.13-.14-.1-.05-.07.02c-.1.05-.42.19-.99.19-.7,0-1.46-.46-1.46-1.47s.82-1.31,1.53-1.31c.51,0,.77.18.82.56v.06h.06c.06,0,.22,0,.22-.12v-.56c0-.14-.16-.16-.22-.17h-.07c-.16-.02-.32-.04-.73-.04-1.37,0-2.38.72-2.38,1.72"/>
    <path d="M21.24,22.5h-2.17l-.12.13s0,.14.14.14c.49,0,.51.04.52.23v1.71c0,.18,0,.47-.02.7,0,.07,0,.13-.44.13-.12,0-.19.02-.19.15,0,.03,0,.13.12.13h1.85c.1,0,.18-.01.18-.13,0-.14-.11-.15-.29-.15-.44,0-.44-.06-.45-.13,0-.21-.02-.5-.02-.7v-.39h.37c.56,0,.63.01.71.45.02.09.1.11.16.11.13,0,.15-.07.15-.1v-.16c-.01-.09-.03-.21-.03-.37v-.67c0-.1-.12-.1-.18-.1-.11,0-.13.07-.2.38-.03.12-.26.19-.64.19h-.33v-.98c0-.27.05-.27.1-.27.22,0,.74-.03.89-.03s.28.03.37.09c.28.17.42.29.51.36l.2.11s.16,0,.16-.1l-.05-.13c-.05-.1-.12-.27-.22-.52-.03-.08-.12-.08-.29-.08h-.79Z"/>
    <path d="M23.69,31.35h-.26v-1.71l-.59,1.71h-.24l-.59-1.74h-.01v1.74h-.26v-2.05h.4l.48,1.45c.06.16.08.26.09.3.02-.08.06-.19.11-.33l.49-1.42h.36v2.05h.02Z"/>
    <rect x="24.28" y="29.31" width=".27" height="2.05"/>
    <path d="M26.81,31.35h-.33l-.41-.58c-.1-.14-.16-.24-.19-.29,0,.02-.21.31-.62.87h-.33l.79-1.07-.7-.98h.32l.43.61.1.17c.04-.06.23-.32.57-.78h.3l-.72.96.78,1.08h.01Z"/>
    <path d="M19.25,39.97c-.08.07-.18.11-.29.11-.15,0-.28-.06-.37-.17s-.14-.31-.14-.58.05-.44.14-.55c.1-.11.22-.17.38-.17.11,0,.21.03.29.1.08.06.13.15.16.26l.42-.1c-.05-.17-.12-.3-.21-.4-.16-.16-.37-.23-.63-.23-.29,0-.53.1-.71.3-.18.2-.27.47-.27.83,0,.34.09.6.27.8.18.19.41.29.69.29.23,0,.41-.06.56-.17.15-.11.25-.29.32-.52l-.41-.13c-.03.16-.09.27-.17.34M16.27,40.27c.14.13.35.19.61.19.18,0,.33-.03.46-.08.12-.05.22-.13.28-.24.07-.11.1-.22.1-.34,0-.14-.03-.25-.08-.34-.06-.09-.13-.17-.23-.22-.1-.05-.25-.1-.46-.15-.21-.05-.34-.1-.39-.14-.04-.04-.06-.08-.06-.13s.02-.1.07-.13c.07-.05.17-.08.29-.08s.21.02.27.07c.06.05.1.13.12.24l.42-.02c0-.2-.08-.35-.21-.47-.13-.12-.33-.18-.6-.18-.16,0-.3.03-.41.07-.11.05-.2.12-.26.22-.06.09-.09.2-.09.31,0,.17.07.31.19.43.09.08.25.15.48.21.18.05.29.08.34.09.07.03.12.06.15.09.03.04.04.08.04.13,0,.08-.03.15-.1.21-.07.06-.17.09-.31.09-.13,0-.23-.03-.31-.1-.08-.07-.13-.17-.15-.31l-.41.04c.03.24.11.42.26.55M14.75,40.42v-.91h.88v-.36h-.88v-.51h1.02v-.36h-1.44v2.14h.43-.01Z"/>
    <path d="M20.47,38.56h.21l.05.03.02.05-.02.05-.05.03h-.21v-.19.02h0ZM20.47,39.15v-.29h.04l.1.03s.06.07.09.14l.06.11h.17l-.08-.14s-.04-.08-.05-.08l-.05-.05-.05-.03c.06,0,.1-.03.14-.07.03-.04.05-.08.05-.13l-.03-.1-.06-.07s-.06-.02-.11-.03h-.36v.69h.14v.02ZM20.88,38.34c.08.04.15.11.19.19.05.08.07.17.07.27s-.02.18-.07.26c-.04.08-.11.15-.19.19-.08.05-.17.07-.26.07s-.17-.02-.26-.07c-.08-.05-.14-.11-.19-.19-.04-.08-.07-.17-.07-.26s.02-.18.07-.27c.05-.08.11-.15.19-.19.08-.05.17-.07.25-.07s.17.02.25.07M20.31,38.23c-.1.05-.18.14-.24.24-.06.1-.09.21-.09.33s.03.22.08.32c.06.1.14.18.24.24s.21.09.32.09.22-.03.32-.09.18-.14.24-.24c.06-.1.09-.21.09-.32s-.03-.22-.09-.33-.14-.19-.24-.24c-.1-.06-.21-.08-.32-.08s-.22.03-.32.08"/>
    <path d="M23.43,39.97c-.08.07-.18.11-.29.11-.15,0-.28-.06-.37-.17s-.14-.31-.14-.58c0-.25.05-.44.15-.55s.22-.17.38-.17c.11,0,.21.03.29.1.08.06.13.15.15.26l.42-.1c-.05-.17-.12-.3-.22-.39-.16-.16-.37-.23-.63-.23-.29,0-.53.1-.71.3-.18.2-.27.47-.27.83,0,.34.09.6.27.8.18.19.41.29.69.29.22,0,.41-.06.56-.17.15-.11.25-.29.32-.52l-.41-.13c-.04.16-.09.27-.17.34"/>
    <path d="M32.62,38.68v-.38h1.41v.3c-.12.11-.23.28-.35.49-.12.21-.21.44-.27.68s-.09.46-.09.64h-.4c0-.3.07-.6.18-.91.12-.31.27-.58.46-.83h-.94ZM31.75,39.62v-.73l-.49.73h.49ZM31.75,40.41v-.43h-.88v-.36l.93-1.36h.35v1.36h.27v.36h-.27v.43h-.4ZM30.67,40.03v.38h-1.44c.02-.14.06-.28.14-.41s.23-.3.46-.52c.19-.17.3-.29.34-.35.06-.08.08-.17.08-.25,0-.09-.02-.16-.07-.21s-.12-.07-.2-.07-.15.03-.21.08c-.05.05-.08.14-.09.26l-.41-.04c.03-.23.1-.39.23-.49.13-.1.29-.15.48-.15.21,0,.38.06.5.17.12.11.18.26.18.43,0,.1-.02.19-.05.28-.03.09-.09.18-.16.27-.05.06-.14.16-.27.27-.13.12-.21.2-.25.24-.03.04-.06.08-.08.11h.82ZM28.66,40.41h-.41v-1.55c-.15.14-.33.25-.53.31v-.37c.11-.04.22-.1.35-.2.13-.1.21-.21.26-.34h.33v2.16h0ZM27.33,40.03v.38h-1.44c.02-.14.06-.28.14-.41s.23-.3.46-.52c.19-.17.3-.29.34-.35.06-.08.08-.17.08-.25,0-.09-.02-.16-.07-.21s-.12-.07-.2-.07-.15.03-.21.08c-.05.05-.08.14-.09.26l-.41-.04c.02-.23.1-.39.23-.49.13-.1.29-.15.48-.15.21,0,.38.06.5.17.12.11.18.26.18.43,0,.1-.02.19-.05.28-.03.09-.09.18-.17.27-.05.06-.14.16-.27.27-.13.12-.21.2-.25.24s-.06.08-.08.11h.83ZM25.33,40.41h-.41v-1.55c-.15.14-.33.25-.53.31v-.37c.11-.04.22-.1.35-.2.13-.1.21-.21.26-.34h.33v2.16h0Z"/>
    <path d="M21.53,35.4h.53s.09-.02.12-.04.06-.05.08-.09.03-.08.03-.13c0-.06-.01-.11-.04-.15s-.07-.08-.12-.09c-.05-.02-.13-.03-.23-.03h-.36v.54h-.01ZM21.53,34.67h.34c.09,0,.16,0,.2-.02.05-.02.09-.04.12-.08s.04-.08.04-.14c0-.05-.01-.1-.04-.14s-.06-.07-.11-.08c-.05-.02-.13-.02-.24-.02h-.32v.48h0ZM21.32,35.59v-1.57h.59c.12,0,.22.02.29.05.07.03.13.08.17.15s.06.14.06.21-.02.13-.05.19c-.04.06-.09.11-.17.14.09.03.17.08.22.14.05.07.08.15.08.24,0,.07-.01.14-.05.2-.03.06-.07.11-.12.15-.04.03-.1.06-.17.08s-.15.03-.25.03h-.6Z"/>
    <path d="M22.9,35.02c0,.15.03.26.1.33.06.07.14.11.24.11s.18-.04.24-.11.1-.18.1-.33-.03-.25-.1-.32c-.06-.07-.14-.11-.24-.11s-.18.04-.24.11-.1.18-.1.33M22.7,35.03c0-.21.06-.37.18-.47.1-.08.22-.13.36-.13.16,0,.29.05.38.15.1.1.15.24.15.43,0,.15-.02.26-.07.35-.04.08-.11.15-.19.2s-.18.07-.28.07c-.16,0-.29-.05-.39-.15-.1-.1-.15-.25-.15-.44"/>
    <path d="M24.73,35.01c-.07.03-.18.05-.32.07-.08,0-.14.02-.17.04-.03,0-.06.04-.08.06-.02.03-.03.06-.03.09,0,.05.02.09.06.13.04.03.1.05.17.05s.14-.02.2-.05c.06-.03.1-.08.13-.13.02-.04.03-.11.03-.19v-.07h.01ZM24.73,35.45c-.07.06-.14.1-.21.13s-.14.04-.21.04c-.12,0-.22-.03-.29-.09-.07-.06-.1-.14-.1-.23,0-.06.01-.11.04-.15.03-.05.06-.08.1-.11s.09-.05.14-.06c.04,0,.1-.02.17-.03.16-.02.27-.04.35-.07v-.05c0-.08-.02-.13-.05-.17-.05-.04-.12-.07-.22-.07-.09,0-.16.02-.2.05s-.08.09-.1.17l-.19-.03c.02-.08.05-.15.08-.2.04-.05.1-.09.17-.11.08-.03.16-.04.26-.04s.18,0,.24.03.1.05.13.09c.03.03.05.08.06.13,0,.03.01.09.01.18v.26c0,.18,0,.29.01.34,0,.05.03.09.05.14h-.2s-.03-.09-.04-.14"/>
    <path d="M25.22,35.59v-1.14h.17v.17c.04-.08.08-.13.12-.16s.08-.04.12-.04c.06,0,.13.02.2.06l-.07.18s-.1-.04-.14-.04-.08,0-.11.04c-.03.03-.06.06-.07.11-.02.07-.03.14-.03.23v.6h-.19Z"/>
    <path d="M26.08,35.02c0,.15.03.26.09.33.06.07.13.11.22.11s.16-.04.22-.1c.06-.07.09-.18.09-.32,0-.16-.03-.27-.09-.34s-.13-.11-.22-.11-.16.03-.22.11c-.06.07-.09.18-.09.33M26.7,35.59v-.14c-.07.11-.18.17-.32.17-.09,0-.18-.03-.25-.07-.08-.05-.14-.12-.18-.21s-.06-.19-.06-.31.02-.22.06-.31c.04-.09.09-.16.17-.21s.16-.08.25-.08c.07,0,.13.02.18.04.05.03.1.07.13.11v-.56h.19v1.57h-.18.01Z"/>
  </g>
  <g>
    <path class="cls-17" d="M.25.25v283.46h127.56V.25H.25Z"/>
    <path class="cls-17" d="M68.73,19.66c0,2.82-2.29,5.1-5.1,5.1s-5.1-2.28-5.1-5.1,2.28-5.1,5.1-5.1,5.1,2.29,5.1,5.1"/>
    <line class="cls-18" x1="11.29" y1="163.2" x2="117.16" y2="163.2"/>
    <line class="cls-18" x1="11.29" y1="140.17" x2="117.16" y2="140.17"/>
    <line class="cls-19" x1="64.23" y1="139.97" x2="64.23" y2="162.92"/>
    <line class="cls-20" x1="11.61" y1="64.2" x2="117.47" y2="64.2"/>
    <line class="cls-20" x1="11.61" y1="48.5" x2="117.47" y2="48.5"/>
    <line class="cls-21" x1="1.35" y1="246.86" x2="126.26" y2="246.86"/>
  </g>
  <g id="apparal_catagories">
    <text id="man-2" data-name="man" class="cls-3" transform="translate(51.83 60.31)"><tspan x="0" y="0">M A N</tspan></text>
  </g>
  <rect id="size_rect" class="cls-16" x="23.64" y="167.02" width="80.79" height="18.43"/>
  <g id="Recycle">
    <path d="M9.04,207.22h-3.43c-.79,0-1.44-.65-1.44-1.44v-4.3c0-.79.65-1.44,1.44-1.44h3.43v7.17Z"/>
    <path d="M8.32,204.88h-1.45v-.78h-.59v.78h-.83v-.97h-.58v1.64h3.43v-.67h.01ZM8.32,202.91h-1.35v-.22l1.35-.35v-.7l-1.51.44c-.14-.26-.44-.39-.9-.39-.33,0-.6.08-.76.24-.17.16-.25.39-.25.69v.98h3.43v-.68h-.01ZM5.46,202.91v-.24c0-.21.16-.31.5-.31s.51.1.51.3v.25h-1Z"/>
    <path d="M15.43,239.45h11.52v-32.18c0-3.97-3.18-7.21-7.11-7.21h-11.52v32.18c0,3.97,3.18,7.21,7.11,7.21"/>
    <path class="cls-15" d="M15.43,238.74c-3.52,0-6.39-2.91-6.39-6.5v-31.48h10.81c3.52,0,6.39,2.91,6.39,6.5v31.48h-10.81Z"/>
    <path d="M8.32,232.24c0,3.97,3.18,7.21,7.11,7.21h11.52v-22.92l-9.31,4.59-9.31-4.59v15.71h-.01Z"/>
    <path d="M15.43,238.74c-3.52,0-6.39-2.91-6.39-6.5v-14.56l8.59,4.24,8.59-4.24v21.05h-10.81.01Z"/>
    <path class="cls-15" d="M21.75,234.35h-.57c.21-2.37.55-6.02.7-7.68.02-.17-.11-.32-.27-.33-.17-.02-.32.11-.33.27-.24,2.55-.89,9.81-.9,9.9-.01.12-.13.22-.27.22h-4.96c-.14,0-.26-.1-.27-.22,0-.07-.66-7.35-.9-9.9-.02-.17-.16-.29-.33-.27-.17.02-.29.17-.27.33.16,1.66.49,5.32.7,7.69h-.57c-.29,0-.54.23-.54.53v1.92c0,.29.24.54.54.54h.45c.22,0,.41-.13.5-.33.16.2.41.33.7.33h4.96c.28,0,.54-.13.7-.32.08.19.27.32.5.32h.45c.29,0,.54-.24.54-.54v-1.92c0-.29-.24-.54-.54-.54"/>
    <path class="cls-15" d="M22.08,225.23h-8.88v-.78h.66l.2-.07.81-.71s.12-.06.23-.06h5.1c.11,0,.2.03.23.06l.81.71.19.07h.65v.78h0ZM22.07,223.86h-.54l-.72-.63c-.15-.13-.38-.21-.63-.21h-5.1c-.24,0-.48.08-.63.21l-.72.63h-.53c-.33,0-.61.28-.61.64v.81c0,.11.03.22.08.32l.1.1c.1.07.21.1.33.1h9.08c.11,0,.23-.03.32-.1l.1-.1c.05-.1.08-.21.08-.32v-.81c0-.35-.27-.64-.61-.64"/>
    <path class="cls-15" d="M20.19,223.9h-5.1c-.14,0-.25.11-.25.25s.11.25.25.25h5.1c.14,0,.25-.11.25-.25s-.11-.25-.25-.25"/>
    <path class="cls-15" d="M20.14,229.73c-.06-.15-.24-.23-.39-.16-.15.06-.23.24-.16.39.1.25.16.53.16.8,0,1.15-.94,2.1-2.1,2.1s-2.1-.94-2.1-2.1.94-2.1,2.1-2.1h.02l-.43.43c-.12.12-.12.31,0,.42l.21.09.21-.09.95-.95c.12-.12.12-.31,0-.42l-.95-.95c-.12-.12-.31-.12-.42,0-.12.12-.12.31,0,.42l.43.43h-.03c-1.5,0-2.71,1.21-2.71,2.7s1.21,2.71,2.71,2.71,2.71-1.21,2.71-2.71c0-.35-.07-.71-.2-1.03"/>
    <path d="M9.04,207.22h-3.43c-.79,0-1.44-.65-1.44-1.44v-4.3c0-.79.65-1.44,1.44-1.44h3.43v7.17Z"/>
    <path class="cls-15" d="M8.32,204.88h-1.45v-.78h-.59v.78h-.83v-.97h-.58v1.64h3.43v-.67h.01ZM8.32,202.91h-1.35v-.22l1.35-.35v-.7l-1.51.44c-.14-.26-.44-.39-.9-.39-.33,0-.6.08-.76.24-.17.16-.25.39-.25.69v.98h3.43v-.68h-.01ZM5.46,202.91v-.24c0-.21.16-.31.5-.31s.51.1.51.3v.25h-1Z"/>
    <path d="M18.66,189.84c-.77,1.13-.11,2.62.68,3.38.73.69,1.3.85,1.38.87l.36-.71,1.07,2.91-3.01.62.4-.74-.4-.23c-1.27-.83-1.54-1.95-1.63-2.3-.15-.61-.37-2.41,1.15-3.79"/>
    <path d="M18.64,189.9c.55,1.25,2.15,1.5,3.22,1.22.94-.24,1.38-.63,1.47-.7h0l-.4-.71,3.03.67-1.1,2.87-.4-.73-.39.21c-1.37.64-2.47.26-2.81.15-.59-.19-2.24-.97-2.6-3"/>
    <path d="M24.01,186.86c-.21,1.5-1.11,2.22-1.39,2.45-.49.39-2.02,1.36-3.92.57,1.35.21,2.43-1,2.77-2.05.31-.93.22-1.53.2-1.62h-.01l-.81-.04,2.19-2.2,1.83,2.48-.83-.05-.03.45v.02Z"/>
    <path d="M14.81,185.6c-.69,0-1.25-.56-1.25-1.25s.57-1.25,1.25-1.25,1.25.56,1.25,1.25-.57,1.25-1.25,1.25"/>
    <path d="M12.87,191.69c.11-.29.26-.27.26-.27,0,0,.14-.03.22.26l1.17,4.11c-.98-.28-1.87-.77-2.63-1.4l.96-2.69h.01ZM16.52,180.72c-4.52,0-8.2,3.68-8.2,8.2s3.68,8.2,8.2,8.2c.24,0,.48-.02.72-.04l.06.83,1.5-1.46-1.68-1.28.06.87c-.21.02-.43.03-.66.03-.34,0-.69-.03-1.02-.07l-.03-.22-.78-6.64c-.11-1.25.61-1.46,1.05-1.26l2.49,1c.28.12.42-.12.42-.12,0,0,.16-.25-.12-.43,0,0-3.39-2.24-4.11-2.39-.98-.18-1.96.62-2.17,1.66l-1.2,5.89c-1.03-1.24-1.66-2.84-1.66-4.58,0-3.94,3.21-7.16,7.16-7.16,2.1,0,4,.92,5.32,2.38l.74-.75c-1.51-1.64-3.66-2.67-6.05-2.67"/>
    <path d="M14.59,207.62l.21.1.17-.06c.11-.09.13-.26.04-.37l-.09-.1c.1-.05.21-.08.32-.08.21,0,.42.09.56.26.25.3.21.77-.09,1.02-.13.11-.29.16-.46.16-.21,0-.42-.09-.56-.26-.17-.2-.2-.46-.12-.7l.03.04h-.01ZM13.57,206.39l.62.75c-.11.17-.18.36-.2.57-.03.33.07.67.28.92.24.29.6.45.97.45.29,0,.58-.1.81-.29.54-.44.61-1.24.16-1.78-.24-.29-.6-.45-.97-.45-.24,0-.48.07-.68.2l-.63-.76h.01l.11-.02.04-.03h.06l2.63.28c.2.02.5.18.63.33l5.25,6.33c.08.09.06.23-.03.31l-3.48,2.88-.14.05-.17-.08-5.25-6.33c-.13-.15-.23-.49-.22-.68l.17-2.6v-.07h.03ZM23.09,212.56l-5.25-6.33c-.21-.26-.65-.5-.98-.53l-2.64-.28h-.12l-.81-1.79c-.06-.13-.22-.19-.35-.13l-.14.15v.2l.75,1.63h-.02l-1.05-1.26c-.09-.11-.26-.13-.38-.04-.11.1-.13.26-.03.37l1.09,1.31c-.07.17-.11.37-.12.55l-.17,2.6c-.02.33.13.8.34,1.06l5.25,6.33c.14.17.36.27.59.27.18,0,.35-.06.49-.17l3.48-2.88c.15-.13.25-.31.27-.52s-.04-.4-.17-.56"/>
  </g>
  <g id="made_in">
    <g>
      <path class="cls-25" d="M106.9,238.85h-3.26s-.05-.02-.05-.05v-.25s.01-.04.04-.05l1.3-.54s0,0,0-.01,0-.01,0-.01l-1.3-.54s-.04-.03-.04-.05v-.25s.02-.05.05-.05h3.26s.05.02.05.05v.25s-.02.05-.05.05h-2.46s-.01,0-.01,0c0,0,0,.01,0,.01l1.11.49s.04.02.04.04c0,.02-.01.04-.04.05l-1.12.5s0,0,0,.01c0,0,0,0,.01,0h2.46s.05.02.05.05v.25s-.02.05-.05.05Z"/>
      <path class="cls-25" d="M106.9,235.03l-.6.12s-.01,0-.01,0c0,0,0,0,0,.02v.87s0,.01,0,.02c0,0,0,0,.01,0l.6.12s.04.02.04.05v.25s0,.03-.01.04c0,0-.02,0-.04,0l-3.26-.72s-.04-.02-.04-.05v-.29s.01-.05.04-.05l3.26-.73h0s.04.01.04.04v.25s-.01.05-.04.05ZM106.01,235.99v-.75s0-.01-.02-.01l-1.85.38s-.01,0-.01,0c0,0,0,0,.01,0l1.85.38s.02,0,.02-.01Z"/>
      <path class="cls-25" d="M106.9,234.17h-3.26s-.05-.02-.05-.05v-.74c0-.25.08-.44.24-.59.16-.15.38-.22.65-.22h1.58c.27,0,.49.07.65.22.16.15.24.34.24.59v.74s-.02.05-.05.05ZM106.65,233.81v-.42c0-.14-.06-.25-.17-.34-.11-.08-.26-.13-.44-.13h-1.55c-.19,0-.34.04-.45.12s-.16.2-.16.35v.42s0,.02.02.02h2.73s.02,0,.02-.02Z"/>
      <path class="cls-25" d="M103.88,230.47v1.11s0,.02.02.02h1.19s.02,0,.02-.02v-.7s.02-.05.05-.05h.21s.05.02.05.05v.7s0,.02.02.02h1.2s.02,0,.02-.02v-1.11s.02-.05.05-.05h.2s.05.02.05.05v1.43s-.02.05-.05.05h-3.26s-.05-.02-.05-.05v-1.43s.02-.05.05-.05h.2s.05.02.05.05Z"/>
      <path class="cls-25" d="M106.9,228.92h-3.26s-.05-.02-.05-.05v-.25s.02-.05.05-.05h3.26s.05.02.05.05v.25s-.02.05-.05.05Z"/>
      <path class="cls-25" d="M106.9,227.89h-3.26s-.05-.02-.05-.05v-.25s.01-.04.04-.05l2.42-.96s.01,0,.01-.01c0,0,0,0-.01,0h-2.41s-.05-.02-.05-.05v-.24s.02-.05.05-.05h3.26s.05.02.05.05v.25s-.01.04-.04.05l-2.42.96s-.01,0-.01.01c0,0,0,0,.02,0h2.41s.05.01.05.04v.25s-.02.05-.05.05Z"/>
      <path class="cls-25" d="M106.9,224.56h-3.26s-.05-.02-.05-.05v-.25s.02-.05.05-.05h3.26s.05.02.05.05v.25s-.02.05-.05.05Z"/>
      <path class="cls-25" d="M106.9,223.53h-3.26s-.05-.02-.05-.05v-.25s.01-.04.04-.05l2.42-.96s.01,0,.01-.01c0,0,0,0-.01,0h-2.41s-.05-.02-.05-.05v-.24s.02-.05.05-.05h3.26s.05.02.05.05v.25s-.01.04-.04.05l-2.42.96s-.01,0-.01.01c0,0,0,0,.02,0h2.41s.05.01.05.04v.25s-.02.05-.05.05Z"/>
      <path class="cls-25" d="M106.9,221.17h-3.26s-.05-.02-.05-.05v-.74c0-.25.08-.44.24-.59.16-.15.38-.22.65-.22h1.58c.27,0,.49.07.65.22.16.15.24.34.24.59v.74s-.02.05-.05.05ZM106.65,220.81v-.42c0-.14-.06-.25-.17-.34-.11-.08-.26-.13-.44-.13h-1.55c-.19,0-.34.04-.45.12s-.16.2-.16.35v.42s0,.02.02.02h2.73s.02,0,.02-.02Z"/>
      <path class="cls-25" d="M106.9,218.93h-3.26s-.05-.02-.05-.05v-.25s.02-.05.05-.05h3.26s.05.02.05.05v.25s-.02.05-.05.05Z"/>
      <path class="cls-25" d="M106.9,216.58l-.6.12s-.01,0-.01,0c0,0,0,0,0,.02v.87s0,.01,0,.02c0,0,0,0,.01,0l.6.12s.04.02.04.05v.25s0,.03-.01.04c0,0-.02,0-.04,0l-3.26-.72s-.04-.02-.04-.05v-.29s.01-.05.04-.05l3.26-.73h0s.04.01.04.04v.25s-.01.05-.04.05ZM106.01,217.53v-.75s0-.01-.02-.01l-1.85.38s-.01,0-.01,0c0,0,0,0,.01,0l1.85.38s.02,0,.02-.01Z"/>
    </g>
    <g>
      <path class="cls-25" d="M110.85,234.86c1.2,0,2.2.77,2.2,2.05s-1,2.05-2.2,2.05-2.2-.77-2.2-2.05,1-2.05,2.2-2.05ZM110.85,238.22c.8,0,1.6-.38,1.6-1.3s-.79-1.3-1.6-1.3-1.6.38-1.6,1.3.79,1.3,1.6,1.3Z"/>
      <path class="cls-25" d="M108.75,234.67v-.78l3.32-1.07h0s-3.32-1.11-3.32-1.11v-.76l4.19,1.46v.83l-4.19,1.43Z"/>
      <path class="cls-25" d="M111.54,230.02c.65,0,.9-.49.9-1.09,0-.66-.32-.91-.63-.91s-.45.18-.52.35c-.11.3-.19.69-.35,1.28-.19.73-.63.95-1.06.95-.84,0-1.23-.79-1.23-1.57,0-.89.46-1.64,1.34-1.64v.75c-.54.04-.74.41-.74.92,0,.35.12.79.55.79.29,0,.46-.2.54-.51.02-.07.26-1.01.32-1.24.16-.56.63-.83,1.07-.83.94,0,1.32.85,1.32,1.7,0,.98-.46,1.77-1.5,1.79v-.75Z"/>
    </g>
    <g>
      <path class="cls-25" d="M111.55,225.01h-.2s-.05-.02-.05-.05v-1.1s.02-.05.05-.05h.2s.05.02.05.05v1.1s-.02.05-.05.05Z"/>
      <path class="cls-25" d="M112.9,221.84l-3.26.7h0s-.04-.01-.04-.04v-.27s.01-.05.04-.05l2.68-.52s0,0,0,0,0,0,0,0l-2.68-.51s-.04-.02-.04-.05v-.26s.02-.05.05-.04l3.26.7s.04.02.04.05v.27s-.01.05-.04.05Z"/>
      <path class="cls-25" d="M110.01,220.28s-.11.07-.18.07c-.07,0-.13-.02-.17-.07-.05-.04-.07-.1-.07-.17s.02-.12.07-.17c.05-.04.1-.06.17-.06.07,0,.13.02.18.06s.07.1.07.17-.02.13-.07.17ZM112.9,220.28h-2.33s-.05-.02-.05-.05v-.24s.02-.05.05-.05h2.33s.05.02.05.05v.24s-.02.05-.05.05Z"/>
      <path class="cls-25" d="M110.69,218.09c.15-.13.34-.2.58-.2h1.62s.05.02.05.05v.24s-.02.05-.05.05h-.14s-.01,0-.01,0c0,0,0,.01,0,.02.15.12.23.29.23.53,0,.18-.05.33-.15.46-.1.13-.28.19-.54.19-.27,0-.47-.08-.6-.24-.13-.16-.19-.36-.19-.62v-.33s0-.02-.02-.02h-.19c-.16,0-.29.04-.38.11s-.14.17-.14.29c0,.1.03.18.1.25.06.07.15.11.25.12.03,0,.05.02.05.05v.26s0,.03-.02.04-.02.01-.03,0c-.19-.02-.34-.09-.46-.23-.12-.14-.17-.31-.17-.51,0-.22.07-.4.22-.54ZM112.56,218.38c-.08-.09-.2-.14-.35-.14h-.4s-.02,0-.02.02v.34c0,.15.04.28.12.37.08.09.2.13.36.13.14,0,.25-.03.31-.1s.1-.16.1-.27c0-.13-.04-.24-.13-.34Z"/>
      <path class="cls-25" d="M109.63,214.83h.2s.05.02.05.05v.63s0,.02.02.02h3s.05.02.05.05v.24s-.02.05-.05.05h-3s-.02,0-.02.02v.6s-.02.05-.05.05h-.2s-.05-.02-.05-.05v-1.61s.02-.05.05-.05Z"/>
      <path class="cls-25" d="M111.86,212.97v1.09s0,.02.02.02h.35c.13,0,.24-.04.33-.11.08-.08.13-.17.13-.3,0-.1-.03-.19-.09-.26-.06-.07-.14-.12-.24-.14-.03,0-.04-.03-.04-.05v-.24s.01-.02.02-.03c0,0,.02-.01.04,0,.19.03.34.1.45.23s.17.3.17.51c0,.23-.07.41-.2.54-.13.14-.31.2-.53.2h-1.04c-.22,0-.39-.07-.53-.2-.14-.14-.2-.32-.2-.54s.07-.41.2-.55c.14-.14.31-.2.53-.2h.6s.05.02.05.05ZM110.9,213.97c.08.08.2.11.33.11h.32s.02,0,.02-.02v-.79s0-.02-.02-.02h-.32c-.14,0-.25.04-.33.12-.08.08-.13.18-.13.3s.04.22.13.3Z"/>
      <path class="cls-25" d="M110.54,211.39s.03-.03.06-.02l.24.05s.04.02.03.06c-.02.04-.02.08-.02.13,0,.03,0,.06,0,.07,0,.12.07.21.18.28.11.07.25.11.42.11h1.44s.05.02.05.05v.25s-.02.05-.05.05h-2.33s-.05-.02-.05-.05v-.25s.02-.05.05-.05h.29s.01,0,.01,0,0-.01,0-.02c-.24-.09-.36-.25-.36-.46,0-.08.02-.15.05-.21Z"/>
      <path class="cls-25" d="M110.54,209.98s.03-.03.06-.02l.24.05s.04.02.03.06c-.02.04-.02.08-.02.13,0,.03,0,.06,0,.07,0,.12.07.21.18.28.11.07.25.11.42.11h1.44s.05.02.05.05v.25s-.02.05-.05.05h-2.33s-.05-.02-.05-.05v-.25s.02-.05.05-.05h.29s.01,0,.01,0,0-.01,0-.02c-.24-.09-.36-.25-.36-.46,0-.08.02-.15.05-.21Z"/>
      <path class="cls-25" d="M110.69,208.36c.15-.13.34-.2.58-.2h1.62s.05.02.05.05v.24s-.02.05-.05.05h-.14s-.01,0-.01,0c0,0,0,.01,0,.02.15.12.23.29.23.53,0,.18-.05.33-.15.46-.1.13-.28.19-.54.19-.27,0-.47-.08-.6-.24-.13-.16-.19-.36-.19-.62v-.33s0-.02-.02-.02h-.19c-.16,0-.29.04-.38.11s-.14.17-.14.29c0,.1.03.18.1.25.06.07.15.11.25.12.03,0,.05.02.05.05v.26s0,.03-.02.04-.02.01-.03,0c-.19-.02-.34-.09-.46-.23-.12-.14-.17-.31-.17-.51,0-.22.07-.4.22-.54ZM112.56,208.65c-.08-.09-.2-.14-.35-.14h-.4s-.02,0-.02.02v.34c0,.15.04.28.12.37.08.09.2.13.36.13.14,0,.25-.03.31-.1s.1-.16.1-.27c0-.13-.04-.24-.13-.34Z"/>
      <path class="cls-25" d="M110.51,206.48v-.25s.02-.05.05-.05h2.33c.34,0,.6.08.78.24s.26.42.24.79c0,.03-.02.05-.05.05h-.21s-.05-.02-.05-.05c0-.26-.05-.43-.17-.54s-.31-.15-.57-.15h-.14s-.01,0-.01,0c0,0,0,.01,0,.02.08.05.14.12.18.21.04.08.06.17.06.27,0,.2-.07.36-.2.48-.13.12-.31.17-.53.17h-1.01c-.22,0-.4-.06-.54-.17-.13-.12-.2-.28-.2-.48,0-.1.02-.19.06-.27s.1-.15.18-.21c0,0,.01-.01.01-.02s0,0-.02,0h-.15s-.05-.02-.05-.05ZM112.53,206.64c-.08-.08-.19-.11-.33-.11h-.97c-.14,0-.25.04-.33.11s-.13.17-.13.29.04.22.13.3c.08.08.2.12.33.12h.97c.13,0,.24-.04.33-.12.08-.08.13-.18.13-.3s-.04-.22-.13-.29Z"/>
      <path class="cls-25" d="M112.9,205.68h-3.26s-.05-.02-.05-.05v-.25s.02-.05.05-.05h3.26s.05.02.05.05v.25s-.02.05-.05.05Z"/>
      <path class="cls-25" d="M110.01,204.76s-.11.07-.18.07c-.07,0-.13-.02-.17-.07-.05-.04-.07-.1-.07-.17s.02-.12.07-.17c.05-.04.1-.06.17-.06.07,0,.13.02.18.06s.07.1.07.17-.02.13-.07.17ZM112.9,204.76h-2.33s-.05-.02-.05-.05v-.24s.02-.05.05-.05h2.33s.05.02.05.05v.24s-.02.05-.05.05Z"/>
      <path class="cls-25" d="M112.78,203.66c-.13.14-.31.2-.53.2h-1.04c-.22,0-.39-.07-.53-.21-.14-.14-.2-.32-.2-.55s.07-.41.2-.55c.14-.14.31-.21.53-.21h1.04c.22,0,.4.07.53.21.13.14.2.32.2.55s-.07.41-.2.55ZM112.56,202.81c-.08-.08-.19-.12-.33-.12h-.99c-.14,0-.25.04-.33.12-.08.08-.13.18-.13.3s.04.22.13.3c.08.08.2.12.33.12h.99c.13,0,.24-.04.33-.12.08-.08.13-.18.13-.3s-.04-.22-.13-.3Z"/>
      <path class="cls-25" d="M109.58,200.54v-.26s.02-.05.05-.05h3.26s.05.02.05.05v.24s-.02.05-.05.05h-2.94s-.01,0-.01,0c0,0,0,0,0,.02l.18.4v.02s0,.04-.04.04h-.17s-.04-.01-.06-.03l-.25-.42s-.01-.04-.01-.06Z"/>
      <path class="cls-25" d="M112.93,199.47s-.02.01-.04,0l-2.99-.82s0,0-.01,0,0,0,0,.02v.88s0,.02.02.02h.2s.05.02.05.05v.19s-.02.05-.05.05h-.47s-.05-.02-.05-.05v-1.47s.02-.05.05-.05h.22s.03,0,.06,0l2.99.82s.04.02.04.05v.26s0,.03-.01.04Z"/>
    </g>
    <g>
      <path class="cls-25" d="M116.93,237.36c.17,0,.3,0,.4.03.2.03.36.12.47.26.12.14.18.32.18.53s-.06.4-.18.54-.28.23-.48.26c-.11.02-.23.03-.34.03-.03,0-.05-.02-.05-.05v-.25s.02-.05.05-.05c.11,0,.21,0,.28-.02.13-.03.24-.08.31-.16.08-.08.11-.19.11-.31s-.04-.22-.11-.31c-.07-.08-.17-.14-.3-.16-.1-.02-.22-.02-.38-.02-.18,0-.32.01-.43.03-.12.03-.22.08-.29.17-.07.08-.1.18-.1.29,0,.04.01.09.03.12,0,0,0,.02,0,.03,0,.02,0,.03-.02.04l-.12.12s-.04.02-.07,0l-1.01-.72s0,0-.01,0c0,0,0,0,0,.01v1.15s-.02.05-.05.05h-.2s-.05-.02-.05-.05v-1.52s.02-.05.05-.05h.22s.05,0,.06.02l.89.61s.02,0,.02-.01c.02-.15.09-.28.21-.39.12-.11.26-.18.43-.21.12-.03.27-.04.47-.04Z"/>
      <path class="cls-25" d="M117.76,236.71c-.16.15-.37.22-.62.22h-1.74c-.26,0-.46-.07-.62-.22-.16-.15-.24-.34-.24-.59s.08-.44.24-.59.37-.23.62-.23h1.74c.26,0,.46.08.62.23.16.15.24.35.24.59s-.08.44-.24.59ZM117.55,235.77c-.1-.09-.23-.13-.39-.13h-1.78c-.16,0-.29.04-.39.13-.1.09-.15.2-.15.35s.05.25.15.34c.1.09.23.13.39.13h1.78c.16,0,.29-.04.39-.13.1-.09.15-.2.15-.34s-.05-.26-.15-.35Z"/>
      <path class="cls-25" d="M114.58,234.51v-.26s.02-.05.05-.05h3.26s.05.02.05.05v.24s-.02.05-.05.05h-2.94s-.01,0-.01,0,0,0,0,.02l.18.4v.02s0,.04-.04.04h-.17s-.04-.01-.06-.03l-.25-.42s-.01-.04-.01-.06Z"/>
      <path class="cls-25" d="M117.93,233.44s-.02.01-.04,0l-2.99-.82s0,0-.01,0,0,0,0,.02v.88s0,.02.02.02h.2s.05.02.05.05v.19s-.02.05-.05.05h-.47s-.05-.02-.05-.05v-1.47s.02-.05.05-.05h.22s.03,0,.06,0l2.99.82s.04.02.04.05v.26s0,.03-.01.04Z"/>
      <path class="cls-25" d="M116.76,230.36h.21s.05.02.05.05v.15s0,.02.02.02h.85s.05.02.05.05v.25s-.02.05-.05.05h-.85s-.02,0-.02.02v1.09s-.02.05-.05.05h-.18s-.03,0-.06,0l-2.11-.72s-.04-.03-.04-.06v-.26s.02-.05.05-.04l2.05.69s.01,0,.02,0,0,0,0-.01v-.72s0-.02-.02-.02h-.73s-.05-.02-.05-.05v-.25s.02-.05.05-.05h.73s.02,0,.02-.02v-.15s.02-.05.05-.05Z"/>
      <path class="cls-25" d="M117.9,228.43l-3.26.7h0s-.04-.01-.04-.04v-.27s.01-.05.04-.05l2.68-.52s0,0,0,0,0,0,0,0l-2.68-.51s-.04-.02-.04-.05v-.26s.02-.05.05-.04l3.26.7s.04.02.04.05v.27s-.01.05-.04.05Z"/>
      <path class="cls-25" d="M116.86,225.5v1.09s0,.02.02.02h.35c.13,0,.24-.04.33-.11s.13-.17.13-.3c0-.1-.03-.19-.09-.26-.06-.07-.14-.12-.24-.14-.03,0-.04-.03-.04-.05v-.24s.01-.02.02-.03c0,0,.02-.01.04,0,.19.03.34.1.45.23.11.13.17.3.17.51,0,.23-.07.41-.2.54-.13.14-.31.2-.53.2h-1.04c-.22,0-.39-.07-.53-.2s-.2-.32-.2-.54.07-.41.2-.55.31-.2.53-.2h.6s.05.02.05.05ZM115.9,226.5c.08.08.2.11.33.11h.32s.02,0,.02-.02v-.79s0-.02-.02-.02h-.32c-.14,0-.25.04-.33.12-.08.08-.13.18-.13.3s.04.22.13.3Z"/>
      <path class="cls-25" d="M115.68,223.63c.13-.11.32-.16.56-.16h1.65s.05.02.05.05v.25s-.02.05-.05.05h-1.62c-.16,0-.28.03-.36.1-.09.07-.13.16-.13.28,0,.13.05.23.14.3.09.07.22.11.38.11h1.6s.05.02.05.05v.25s-.02.05-.05.05h-2.33s-.05-.02-.05-.05v-.25s.02-.05.05-.05h.16s.01,0,.01,0c0,0,0-.01,0-.01-.16-.12-.25-.29-.25-.5,0-.19.07-.35.2-.45Z"/>
      <path class="cls-25" d="M116.86,221.51v1.09s0,.02.02.02h.35c.13,0,.24-.04.33-.11s.13-.17.13-.3c0-.1-.03-.19-.09-.26-.06-.07-.14-.12-.24-.14-.03,0-.04-.03-.04-.05v-.24s.01-.02.02-.03c0,0,.02-.01.04,0,.19.03.34.1.45.23.11.13.17.3.17.51,0,.23-.07.41-.2.54-.13.14-.31.2-.53.2h-1.04c-.22,0-.39-.07-.53-.2s-.2-.32-.2-.54.07-.41.2-.55.31-.2.53-.2h.6s.05.02.05.05ZM115.9,222.51c.08.08.2.11.33.11h.32s.02,0,.02-.02v-.79s0-.02-.02-.02h-.32c-.14,0-.25.04-.33.12-.08.08-.13.18-.13.3s.04.22.13.3Z"/>
      <path class="cls-25" d="M117.9,221.09h-.23s-.04,0-.06-.01l-1.75-.98s-.01,0-.02,0c0,0,0,0,0,.01v.92s-.02.05-.05.05h-.22s-.05-.02-.05-.05v-1.3s.02-.05.05-.05h.23s.04,0,.06.01l1.75.99s.01,0,.02,0,0,0,0-.01v-.96s.02-.05.05-.05h.22s.05.02.05.05v1.33s-.02.05-.05.05Z"/>
      <path class="cls-25" d="M115.01,219.2s-.11.07-.18.07-.13-.02-.18-.07c-.05-.04-.07-.1-.07-.17s.02-.12.07-.17c.05-.04.11-.06.18-.06s.13.02.18.06c.05.04.07.1.07.17s-.02.13-.07.17ZM117.9,219.2h-2.33s-.05-.02-.05-.05v-.24s.02-.05.05-.05h2.33s.05.02.05.05v.24s-.02.05-.05.05Z"/>
      <path class="cls-25" d="M115.7,217.01c.15-.13.34-.2.58-.2h1.62s.05.02.05.05v.24s-.02.05-.05.05h-.14s-.01,0-.01,0c0,0,0,.01,0,.02.15.12.23.29.23.53,0,.18-.05.33-.15.46-.1.13-.28.19-.54.19-.27,0-.47-.08-.6-.24-.13-.16-.19-.36-.19-.62v-.33s0-.02-.02-.02h-.19c-.16,0-.29.04-.38.11-.1.07-.14.17-.14.29,0,.1.03.18.1.25.06.07.15.11.25.12.03,0,.05.02.05.05v.26s0,.03-.02.04c0,0-.02.01-.03,0-.19-.02-.34-.09-.46-.23-.12-.14-.18-.31-.18-.51,0-.22.07-.4.22-.54ZM117.56,217.29c-.08-.09-.2-.14-.35-.14h-.4s-.02,0-.02.02v.34c0,.15.04.28.12.37.08.09.2.13.36.13.14,0,.25-.03.31-.1.07-.07.1-.16.1-.27,0-.13-.04-.24-.13-.34Z"/>
      <path class="cls-25" d="M117.9,215.27h-3.26s-.05-.02-.05-.05v-.25s.02-.05.05-.05h3.26s.05.02.05.05v.25s-.02.05-.05.05Z"/>
      <path class="cls-25" d="M114.63,212.71h.2s.05.02.05.05v.63s0,.02.02.02h3s.05.02.05.05v.24s-.02.05-.05.05h-3s-.02,0-.02.02v.6s-.02.05-.05.05h-.2s-.05-.02-.05-.05v-1.61s.02-.05.05-.05Z"/>
      <path class="cls-25" d="M117.9,210.88l-.6.12s-.01,0-.01,0c0,0,0,0,0,.02v.87s0,.01,0,.02c0,0,0,0,.01,0l.6.12s.04.02.04.05v.25s0,.03-.01.04c0,0-.02,0-.04,0l-3.26-.72s-.04-.02-.04-.05v-.29s.01-.05.04-.05l3.26-.73h0s.04.01.04.04v.25s-.01.05-.04.05ZM117.01,211.84v-.75s0-.01-.02-.01l-1.85.38s-.01,0-.01,0c0,0,0,0,.01,0l1.85.38s.02,0,.02-.01Z"/>
      <path class="cls-25" d="M117.9,210.02h-3.26s-.05-.02-.05-.05v-.25s.02-.05.05-.05h3s.02,0,.02-.02v-1.1s.02-.05.05-.05h.2s.05.02.05.05v1.41s-.02.05-.05.05Z"/>
      <path class="cls-25" d="M117.9,208.12h-3.26s-.05-.02-.05-.05v-.25s.02-.05.05-.05h3.26s.05.02.05.05v.25s-.02.05-.05.05Z"/>
      <path class="cls-25" d="M117.9,205.76l-.6.12s-.01,0-.01,0c0,0,0,0,0,.02v.87s0,.01,0,.02c0,0,0,0,.01,0l.6.12s.04.02.04.05v.25s0,.03-.01.04c0,0-.02,0-.04,0l-3.26-.72s-.04-.02-.04-.05v-.29s.01-.05.04-.05l3.26-.73h0s.04.01.04.04v.25s-.01.05-.04.05ZM117.01,206.72v-.75s0-.01-.02-.01l-1.85.38s-.01,0-.01,0c0,0,0,0,.01,0l1.85.38s.02,0,.02-.01Z"/>
    </g>
  </g>
</svg>