<?xml version="1.0" encoding="UTF-8"?>
<svg id="Layer1" xmlns="http://www.w3.org/2000/svg" viewBox="0 0 128.06 234.64">
  <defs>
    <style>
      .cls-1, .cls-2, .cls-3, .cls-4, .cls-5, .cls-6, .cls-7, .cls-8, .cls-9, .cls-10, .cls-11, .cls-12 {
        isolation: isolate;
      }

      .cls-1, .cls-7, .cls-9, .cls-11 {
        font-weight: 700;
      }

      .cls-1, .cls-7, .cls-9, .cls-11 {
        font-family: Barlow-Bold, Barlow;
      }

      .cls-1, .cls-11 {
        font-size: 6.5px;
      }

      .cls-2 {
       font-family: Barlow-Medium, Barlow;
       font-size: 15px;
       font-weight: 500;
      }

      .cls-13 {
        stroke: #74bf44;
        stroke-dasharray: 2 3 2 3 2 3;
      }

      .cls-13, .cls-14 {
        stroke-width: .5px;
      }

      .cls-13, .cls-14, .cls-15, .cls-16, .cls-17 {
        fill: none;
      }

      .cls-18, .cls-11 {
        fill: #fff;
      }

      .cls-3 {
        font-size: 15.11px;
      }

      .cls-3, .cls-4 {
        font-family: BarlowCondensed-Medium, 'Barlow Condensed';
        font-weight: 500;
      }

      .cls-4 {
        font-size: 27.69px;
      }

      .cls-14 {
        stroke: #e50695;
      }

      .cls-5 {
        font-size: 7.65px;
      }

      .cls-5, .cls-6 {
        font-family: Barlow-Black, Barlow;
        font-weight: 800;
      }

      .cls-15 {
        stroke-width: .47px;
      }

      .cls-15, .cls-16, .cls-17 {
        stroke: #000;
        stroke-miterlimit: 10;
      }

      .cls-6, .cls-9 {
        font-size: 8.5px;
      }

      .cls-7 {
        font-size: 10px;
      }

      .cls-8, .cls-10, .cls-12 {
        font-size: 7.5px;
      }

      .cls-8, .cls-12 {
        font-family: Myriad-Roman, Myriad;
      }

      .cls-19 {
        letter-spacing: -.01em;
      }

      .cls-16 {
        stroke-width: .47px;
      }

      .cls-20 {
        letter-spacing: .03em;
      }

      .cls-17 {
        stroke-width: 1.2px;
      }

      .cls-10 {
        font-family: MyriadPro-Regular, 'Myriad Pro';
      }

      .cls-12 {
        letter-spacing: .11em;
      }
      .cls-dividerline{
          fill: #fff;
      }
      .cls-dividerline-red{
        stroke: #ed1c24;
      }
    .cls-variable-normal
    {
      isolation: isolate;
      font-weight: 700;
      font-size: 6.5px;
      font-family: Barlow-Bold, Barlow;
    }
      .cls-variable-highlight
    {
      isolation: isolate;
      font-weight: 700;
      font-size: 6.5px;
      font-family: Barlow-Bold, Barlow;
      fill: #fff;
    }
    </style>
  </defs>
  <text id="quantity" class="cls-2"  y="217" x="50%" text-anchor="middle"><tspan x="0" y="0"></tspan></text>
  <g id="Recycle">
    <path d="M10.93,135.41h-2.77c-.64,0-1.16-.52-1.16-1.16v-3.48c0-.64.52-1.16,1.16-1.16h2.77v5.8Z"/>
    <path d="M10.35,133.52h-1.17v-.63h-.47v.63h-.67v-.79h-.47v1.33h2.77v-.54h0ZM10.35,131.92h-1.1v-.18l1.1-.29v-.56l-1.22.36c-.11-.21-.36-.32-.73-.32-.27,0-.48.07-.61.2-.14.13-.2.32-.2.56v.79h2.77v-.55h0ZM8.04,131.92v-.2c0-.17.13-.25.4-.25s.41.08.41.25v.2h-.81Z"/>
    <path d="M16.1,161.5h9.33v-26.05c0-3.21-2.58-5.83-5.75-5.83h-9.33v26.05c0,3.21,2.58,5.83,5.75,5.83"/>
    <path class="cls-18" d="M16.1,160.91c-2.85,0-5.17-2.36-5.17-5.26v-25.47h8.74c2.85,0,5.17,2.36,5.17,5.26v25.47h-8.74Z"/>
    <path d="M10.35,155.65c0,3.21,2.58,5.83,5.75,5.83h9.33v-18.55l-7.53,3.71-7.53-3.71v12.71h0Z"/>
    <path d="M16.1,160.91c-2.85,0-5.17-2.36-5.17-5.26v-11.78l6.95,3.43,6.95-3.43v17.04h-8.74,0Z"/>
    <path class="cls-18" d="M21.23,157.36h-.46c.17-1.91.44-4.88.56-6.22.02-.14-.09-.26-.22-.27-.14-.02-.26.09-.27.22-.2,2.06-.72,7.94-.73,8.01,0,.1-.11.18-.22.18h-4.02c-.11,0-.21-.08-.22-.18,0-.06-.53-5.95-.73-8.01-.02-.14-.13-.24-.27-.22-.14.02-.24.14-.22.27.13,1.34.39,4.3.56,6.23h-.46c-.24,0-.43.19-.43.43v1.55c0,.24.2.43.43.43h.37c.18,0,.34-.11.4-.27.13.16.34.27.56.27h4.02c.23,0,.43-.11.56-.26.07.16.22.26.4.26h.37c.24,0,.43-.2.43-.43v-1.55c0-.24-.2-.43-.43-.43"/>
    <path class="cls-18" d="M21.49,149.99h-7.19v-.63h.53l.16-.06.65-.57s.1-.05.19-.05h4.13c.09,0,.16.02.19.05l.65.57.16.06h.52v.63h0ZM21.48,148.87h-.43l-.58-.51c-.12-.11-.31-.17-.51-.17h-4.13c-.2,0-.38.07-.51.17l-.58.51h-.43c-.27,0-.49.23-.49.52v.65c0,.09.02.18.07.26l.08.08c.08.06.17.08.27.08h7.35c.09,0,.19-.02.26-.08l.08-.08c.04-.08.07-.17.07-.26v-.65c0-.29-.22-.52-.49-.52"/>
    <path class="cls-18" d="M19.96,148.91h-4.13c-.11,0-.2.09-.2.2s.09.2.2.2h4.13c.11,0,.2-.09.2-.2s-.09-.2-.2-.2"/>
    <path class="cls-18" d="M19.92,153.63c-.05-.12-.2-.19-.32-.13-.12.05-.19.2-.13.32.08.2.13.43.13.65,0,.93-.76,1.7-1.7,1.7s-1.7-.76-1.7-1.7.76-1.7,1.7-1.7h.02l-.35.35c-.1.1-.1.25,0,.34l.17.07.17-.07.77-.77c.1-.1.1-.25,0-.34l-.77-.77c-.1-.1-.25-.1-.34,0-.1.1-.1.25,0,.34l.35.35h-.02c-1.21,0-2.19.98-2.19,2.18s.98,2.19,2.19,2.19,2.19-.98,2.19-2.19c0-.29-.06-.57-.16-.83"/>
    <path d="M10.93,135.41h-2.77c-.64,0-1.16-.52-1.16-1.16v-3.48c0-.64.52-1.16,1.16-1.16h2.77v5.8Z"/>
    <path class="cls-18" d="M10.35,133.52h-1.17v-.63h-.47v.63h-.67v-.79h-.47v1.33h2.77v-.54h0ZM10.35,131.92h-1.1v-.18l1.1-.29v-.56l-1.22.36c-.11-.21-.36-.32-.73-.32-.27,0-.48.07-.61.2-.14.13-.2.32-.2.56v.79h2.77v-.55h0ZM8.04,131.92v-.2c0-.17.13-.25.4-.25s.41.08.41.25v.2h-.81Z"/>
    <path d="M18.72,121.35c-.62.92-.09,2.12.55,2.73.59.56,1.06.69,1.12.7l.29-.57.87,2.36-2.44.5.33-.6-.33-.19c-1.03-.67-1.24-1.58-1.32-1.87-.12-.49-.3-1.95.93-3.07"/>
    <path d="M18.71,121.39c.44,1.01,1.74,1.21,2.61.99.76-.2,1.12-.51,1.19-.56h0l-.33-.57,2.45.54-.89,2.32-.33-.59-.32.17c-1.11.52-2,.21-2.27.12-.47-.16-1.82-.79-2.1-2.43"/>
    <path d="M23.05,118.93c-.17,1.21-.9,1.8-1.13,1.98-.39.32-1.64,1.1-3.17.46,1.1.17,1.96-.81,2.24-1.66.25-.75.18-1.24.16-1.31h0l-.65-.03,1.78-1.78,1.48,2-.67-.04-.02.37v.02Z"/>
    <path d="M15.61,117.91c-.56,0-1.01-.45-1.01-1.01s.46-1.01,1.01-1.01,1.01.45,1.01,1.01-.46,1.01-1.01,1.01"/>
    <path d="M14.04,122.84c.09-.24.21-.22.21-.22,0,0,.11-.02.18.21l.95,3.33c-.79-.23-1.51-.62-2.13-1.14l.78-2.18h0ZM16.99,113.96c-3.66,0-6.63,2.98-6.63,6.63s2.98,6.63,6.63,6.63c.2,0,.38-.02.58-.03l.05.67,1.21-1.18-1.36-1.04.05.7c-.17.02-.35.02-.53.02-.28,0-.56-.02-.83-.06l-.02-.18-.63-5.37c-.09-1.01.49-1.18.85-1.02l2.01.81c.23.1.34-.1.34-.1,0,0,.13-.2-.1-.35,0,0-2.74-1.82-3.33-1.93-.79-.15-1.59.5-1.76,1.34l-.97,4.77c-.83-1.01-1.34-2.3-1.34-3.71,0-3.19,2.6-5.79,5.79-5.79,1.7,0,3.24.74,4.3,1.92l.6-.61c-1.22-1.33-2.96-2.16-4.9-2.16"/>
    <path d="M15.43,135.74l.17.08.14-.05c.09-.07.11-.21.03-.3l-.07-.08c.08-.04.17-.07.26-.07.17,0,.34.07.45.21.2.25.17.62-.07.83-.11.09-.24.13-.38.13-.17,0-.34-.07-.45-.21-.14-.16-.16-.38-.1-.56l.02.03h0ZM14.6,134.74l.5.61c-.09.14-.15.29-.16.46-.02.27.06.54.23.74.2.24.48.37.79.37.24,0,.47-.08.65-.24.43-.36.49-1.01.13-1.44-.2-.24-.48-.37-.79-.37-.2,0-.38.06-.55.16l-.51-.61h0l.09-.02.03-.02h.05l2.13.23c.16.02.4.15.51.27l4.25,5.12c.07.07.05.19-.02.25l-2.81,2.33-.11.04-.14-.07-4.25-5.12c-.11-.12-.19-.39-.18-.55l.14-2.1v-.06h.02ZM22.31,139.73l-4.25-5.12c-.17-.21-.52-.4-.79-.43l-2.14-.23h-.1l-.65-1.45c-.05-.11-.18-.16-.29-.11l-.11.12v.16l.61,1.32h-.02l-.85-1.02c-.07-.09-.21-.11-.31-.03-.09.08-.11.21-.02.3l.88,1.06c-.06.14-.09.3-.1.44l-.14,2.1c-.02.27.11.65.28.86l4.25,5.12c.11.14.29.22.47.22.15,0,.29-.05.39-.14l2.81-2.33c.12-.11.2-.25.22-.42s-.03-.33-.14-.45"/>
  </g>
  <g id="madein">
    <path d="M108.7,161.41h-3.26s-.05-.02-.05-.05v-.25s.01-.04.04-.05l1.3-.54h.01v-.02l-1.31-.54s-.04-.03-.04-.05v-.25s.02-.05.05-.05h3.26s.05.02.05.05v.24s-.02.05-.05.05h-2.47l1.11.5s.04.02.04.04-.01.04-.04.05l-1.12.5h-.01,2.47s.05.02.05.05v.24s-.02.05-.05.05"/>
    <path d="M107.81,158.55v-.75s0-.02-.02-.02l-1.85.38h-.01.01l1.85.38h.02M108.7,157.59l-.6.12h-.01v.91h.01l.6.12s.04.02.04.05v.24s0,.03-.01.04h-.04l-3.26-.72s-.04-.03-.04-.05v-.29s.01-.05.04-.05l3.26-.73h.01s.04.02.04.04v.25s-.01.05-.04.05"/>
    <path d="M108.45,156.37v-.42c0-.14-.06-.25-.17-.34-.11-.08-.26-.13-.44-.13h-1.55c-.19,0-.34.04-.45.12s-.16.2-.16.35v.42s0,.02.02.02h2.73s.02,0,.02-.02M108.7,156.73h-3.26s-.05-.02-.05-.05v-.74c0-.25.08-.44.24-.59.16-.15.38-.22.65-.22h1.57c.27,0,.49.07.65.22s.24.34.24.59v.74s-.02.05-.05.05"/>
    <path d="M105.68,153.03v1.11s0,.02.02.02h1.19s.02,0,.02-.02v-.7s.02-.05.05-.05h.21s.05.02.05.05v.7s0,.02.02.02h1.2s.02,0,.02-.02v-1.11s.02-.05.05-.05h.2s.05.02.05.05v1.43s-.02.05-.05.05h-3.26s-.05-.02-.05-.05v-1.43s.02-.05.05-.05h.2s.05.02.05.05"/>
    <path d="M108.7,151.48h-3.26s-.05-.02-.05-.05v-.24s.02-.05.05-.05h3.26s.05.02.05.05v.24s-.02.05-.05.05"/>
    <path d="M108.7,150.45h-3.26s-.05-.02-.05-.05v-.25s.01-.04.04-.05l2.42-.97h.01-2.42s-.05-.02-.05-.05v-.24s.02-.05.05-.05h3.26s.05.02.05.05v.26s-.01.04-.04.05l-2.42.97h-.01,2.43s.05,0,.05.04v.24s-.02.05-.05.05"/>
    <path d="M108.7,147.12h-3.26s-.05-.02-.05-.05v-.24s.02-.05.05-.05h3.26s.05.02.05.05v.24s-.02.05-.05.05"/>
    <path d="M108.7,146.09h-3.26s-.05-.02-.05-.05v-.25s.01-.04.04-.05l2.42-.97h.01-2.42s-.05-.02-.05-.05v-.24s.02-.05.05-.05h3.26s.05.02.05.05v.26s-.01.04-.04.05l-2.42.97h-.01,2.43s.05,0,.05.04v.24s-.02.05-.05.05"/>
    <path d="M108.45,143.37v-.42c0-.14-.06-.25-.17-.34-.11-.08-.26-.13-.44-.13h-1.55c-.19,0-.34.04-.45.12s-.16.2-.16.35v.42s0,.02.02.02h2.73s.02,0,.02-.02M108.7,143.73h-3.26s-.05-.02-.05-.05v-.74c0-.25.08-.44.24-.59.16-.15.38-.22.65-.22h1.57c.27,0,.49.07.65.22s.24.34.24.59v.74s-.02.05-.05.05"/>
    <path d="M108.7,141.49h-3.26s-.05-.02-.05-.05v-.24s.02-.05.05-.05h3.26s.05.02.05.05v.24s-.02.05-.05.05"/>
    <path d="M107.81,140.09v-.75s0-.02-.02-.02l-1.85.38h-.01.01l1.85.39s.02,0,.02-.02M108.7,139.14l-.6.12h-.01v.91h.01l.6.12s.04.02.04.05v.24s0,.03-.01.04h-.04l-3.26-.72s-.04-.02-.04-.05v-.29s.01-.05.04-.05l3.26-.73h.01s.04,0,.04.04v.25s-.01.05-.04.05"/>
    <path d="M112.65,160.78c.8,0,1.6-.38,1.6-1.3s-.79-1.3-1.6-1.3-1.6.38-1.6,1.3.79,1.3,1.6,1.3M112.65,157.42c1.2,0,2.2.77,2.2,2.05s-1,2.05-2.2,2.05-2.2-.77-2.2-2.05,1-2.05,2.2-2.05"/>
    <polygon points="110.55 157.23 110.55 156.45 113.87 155.37 113.87 155.36 110.55 154.26 110.55 153.5 114.75 154.96 114.75 155.8 110.55 157.23"/>
    <path d="M113.35,152.58c.65,0,.9-.49.9-1.09,0-.66-.32-.91-.63-.91s-.45.18-.52.35c-.11.3-.19.69-.35,1.28-.19.73-.63.95-1.06.95-.84,0-1.23-.79-1.23-1.57,0-.89.46-1.64,1.34-1.64v.75c-.54.04-.74.41-.74.92,0,.35.12.79.55.79.29,0,.46-.2.54-.51.02-.07.26-1.01.32-1.23.16-.56.63-.83,1.07-.83.94,0,1.32.85,1.32,1.7,0,.98-.46,1.77-1.5,1.79v-.75h-.01Z"/>
    <path d="M113.35,148.53h-.2s-.05-.02-.05-.05v-1.1s.02-.05.05-.05h.2s.05.02.05.05v1.1s-.02.05-.05.05"/>
    <path d="M114.7,145.36l-3.26.7h0s-.04,0-.04-.04v-.27s.01-.05.04-.05l2.68-.52h.01-.01l-2.68-.51s-.04-.02-.04-.05v-.26s.02-.05.05-.04l3.26.7s.04.02.04.05v.27s-.01.05-.04.05"/>
    <path d="M114.7,143.8h-2.33s-.05-.02-.05-.05v-.24s.02-.05.05-.05h2.33s.05.02.05.05v.24s-.02.05-.05.05M111.81,143.8s-.11.07-.18.07-.13-.02-.18-.07c-.05-.04-.07-.1-.07-.17s.02-.12.07-.16c.05-.04.11-.07.18-.07s.13.02.18.07.07.1.07.16c0,.07-.02.13-.07.17"/>
    <path d="M114.36,141.9c-.08-.09-.2-.14-.35-.14h-.4s-.02,0-.02.02v.34c0,.15.04.28.12.37s.2.13.36.13c.14,0,.25-.03.31-.1.07-.07.1-.16.1-.27,0-.13-.04-.24-.13-.34M112.5,141.61c.15-.13.34-.2.58-.2h1.62s.05.02.05.05v.24s-.02.05-.05.05h-.15v.02c.15.12.23.29.23.53,0,.18-.05.33-.15.46s-.28.2-.54.2-.47-.08-.6-.24-.19-.36-.19-.62v-.33s0-.02-.02-.02h-.19c-.16,0-.29.04-.38.11-.1.07-.14.17-.14.29,0,.1.03.18.1.25.06.07.15.11.24.12.03,0,.05.02.05.05v.26s-.01.03-.02.04-.02,0-.03,0c-.19-.02-.34-.09-.46-.23s-.17-.31-.17-.51c0-.22.07-.4.22-.53"/>
    <path d="M111.43,138.35h.2s.05.02.05.05v.63s0,.02.02.02h2.99s.05.02.05.05v.24s-.02.05-.05.05h-2.99s-.02,0-.02.02v.6s-.02.05-.05.05h-.2s-.05-.02-.05-.05v-1.61s.02-.05.05-.05"/>
    <path d="M112.7,137.49c.08.08.2.11.33.11h.32s.02,0,.02-.02v-.79s0-.02-.02-.02h-.32c-.14,0-.25.04-.33.11-.09.08-.13.18-.13.3s.04.22.13.29M113.66,136.49v1.09s0,.02.02.02h.35c.13,0,.24-.04.33-.11.08-.07.13-.17.13-.29,0-.1-.03-.19-.09-.26-.06-.07-.14-.12-.24-.14-.03,0-.04-.03-.04-.05v-.24s.01-.03.02-.03h.04c.19.03.34.1.45.23.11.13.17.3.17.51,0,.23-.07.41-.2.54s-.31.2-.53.2h-1.04c-.22,0-.39-.07-.53-.2-.14-.14-.2-.32-.2-.54s.07-.41.2-.55c.14-.14.31-.2.53-.2h.6s.05.02.05.05"/>
    <path d="M112.35,134.91s.03-.03.06-.02l.25.05s.04.02.03.06c-.02.04-.02.08-.02.13v.07c0,.12.07.21.18.28.11.07.25.11.42.11h1.44s.05.02.05.05v.24s-.02.05-.05.05h-2.33s-.05-.02-.05-.05v-.24s.02-.05.05-.05h.3v-.02c-.24-.09-.36-.24-.36-.46,0-.08.02-.15.05-.21"/>
    <path d="M112.35,133.5s.03-.03.06-.02l.25.05s.04.02.03.06c-.02.04-.02.08-.02.13v.07c0,.12.07.21.18.28.11.07.25.11.42.11h1.44s.05.02.05.05v.24s-.02.05-.05.05h-2.33s-.05-.02-.05-.05v-.24s.02-.05.05-.05h.3v-.02c-.24-.09-.36-.24-.36-.46,0-.08.02-.15.05-.21"/>
    <path d="M114.36,132.17c-.08-.09-.2-.14-.35-.14h-.4s-.02,0-.02.02v.34c0,.15.04.28.12.37s.2.13.36.13c.14,0,.25-.03.31-.1.07-.07.1-.16.1-.27,0-.13-.04-.24-.13-.34M112.5,131.88c.15-.13.34-.2.58-.2h1.62s.05.02.05.05v.24s-.02.05-.05.05h-.15v.02c.15.12.23.29.23.53,0,.18-.05.33-.15.46s-.28.2-.54.2-.47-.08-.6-.24-.19-.36-.19-.62v-.33s0-.02-.02-.02h-.19c-.16,0-.29.04-.38.11-.1.07-.14.17-.14.29,0,.1.03.18.1.25.06.07.15.11.24.12.03,0,.05.02.05.05v.26s-.01.03-.02.04-.02,0-.03,0c-.19-.02-.34-.09-.46-.23s-.17-.31-.17-.51c0-.22.07-.4.22-.53"/>
    <path d="M114.34,130.16c-.09-.08-.19-.11-.33-.11h-.97c-.14,0-.25.04-.33.11s-.13.17-.13.29.04.22.13.3.2.12.33.12h.97c.14,0,.24-.04.33-.12.08-.08.13-.18.13-.3s-.04-.22-.13-.29M112.32,130v-.24s.02-.05.05-.05h2.33c.34,0,.6.08.78.24s.26.42.24.79c0,.03-.02.05-.05.05h-.21s-.05-.02-.05-.05c0-.26-.05-.43-.18-.54-.12-.1-.31-.15-.57-.15h-.15v.02c.08.05.14.12.18.21.04.08.06.17.06.27,0,.2-.07.36-.2.48-.14.12-.31.18-.53.18h-1.01c-.22,0-.4-.06-.54-.18-.13-.12-.2-.28-.2-.48,0-.1.02-.19.06-.27.04-.09.1-.16.18-.21,0,0,.01,0,.01-.02h-.17s-.05-.02-.05-.05"/>
    <path d="M114.7,129.2h-3.26s-.05-.02-.05-.05v-.24s.02-.05.05-.05h3.26s.05.02.05.05v.24s-.02.05-.05.05"/>
    <path d="M114.7,128.28h-2.33s-.05-.02-.05-.05v-.24s.02-.05.05-.05h2.33s.05.02.05.05v.24s-.02.05-.05.05M111.81,128.28s-.11.07-.18.07-.13-.02-.18-.07c-.05-.04-.07-.1-.07-.17s.02-.12.07-.17c.05-.04.11-.07.18-.07s.13.02.18.07c.05.04.07.1.07.17s-.02.13-.07.17"/>
    <path d="M114.36,126.33c-.09-.08-.19-.12-.33-.12h-.99c-.14,0-.25.04-.33.12s-.13.18-.13.3.04.22.13.3c.08.08.2.11.33.11h.99c.14,0,.24-.04.33-.11.08-.08.13-.18.13-.3s-.04-.22-.13-.3M114.58,127.18c-.13.14-.31.2-.53.2h-1.04c-.22,0-.39-.07-.53-.21s-.2-.32-.2-.55.07-.41.2-.55c.14-.14.31-.21.53-.21h1.04c.22,0,.4.07.53.21s.2.32.2.55-.07.41-.2.55"/>
    <path d="M111.39,124.06v-.26s.02-.05.05-.05h3.26s.05.02.05.05v.24s-.02.05-.05.05h-2.96v.02l.18.4v.02s-.01.04-.04.04h-.17s-.04,0-.06-.03l-.25-.42s-.01-.04-.01-.06"/>
    <path d="M114.73,122.99h-.04l-2.99-.82h-.01v.9s0,.02.02.02h.2s.05.02.05.05v.19s-.02.05-.05.05h-.47s-.05-.02-.05-.05v-1.47s.02-.05.05-.05h.28l2.99.82s.04.02.04.05v.26s0,.03-.01.04"/>
    <path d="M118.73,159.92c.17,0,.3,0,.4.03.2.03.36.12.47.26s.18.32.18.53-.06.4-.18.54-.28.23-.49.26c-.11.02-.23.03-.34.03-.03,0-.05-.02-.05-.05v-.24s.02-.05.05-.05c.11,0,.2,0,.28-.02.14-.02.24-.08.32-.16s.11-.19.11-.31-.04-.22-.11-.31c-.07-.08-.17-.14-.3-.16-.1-.02-.22-.02-.38-.02-.18,0-.32,0-.43.03-.12.03-.22.08-.29.16s-.1.18-.1.3c0,.04.01.09.03.12v.03s0,.03-.02.04l-.12.12s-.04.02-.07,0l-1.01-.72h-.01v1.17s-.02.05-.05.05h-.2s-.05-.02-.05-.05v-1.52s.02-.05.05-.05h.22s.05,0,.06.02l.89.61h.02c.02-.15.09-.28.21-.39s.26-.18.43-.21c.12-.03.27-.04.47-.04"/>
    <path d="M119.35,158.33c-.1-.09-.23-.13-.39-.13h-1.77c-.16,0-.29.04-.39.13s-.15.2-.15.35.05.26.15.34.23.13.39.13h1.77c.16,0,.3-.04.39-.13s.15-.2.15-.34-.05-.26-.15-.35M119.56,159.27c-.16.15-.37.22-.62.22h-1.74c-.26,0-.46-.07-.62-.22s-.24-.34-.24-.59.08-.45.24-.6c.16-.15.37-.23.62-.23h1.74c.26,0,.46.08.62.23s.24.35.24.6-.08.44-.24.59"/>
    <path d="M116.39,157.07v-.26s.02-.05.05-.05h3.26s.05.02.05.05v.24s-.02.05-.05.05h-2.96v.02l.18.4v.02s-.01.04-.04.04h-.17s-.04,0-.06-.03l-.25-.42s-.01-.04-.01-.06"/>
    <path d="M119.73,156h-.04l-2.99-.82h-.01v.9s0,.02.02.02h.2s.05.02.05.05v.19s-.02.05-.05.05h-.47s-.05-.02-.05-.05v-1.47s.02-.05.05-.05h.28l2.99.82s.04.02.04.05v.26s0,.03-.01.04"/>
    <path d="M118.57,152.92h.21s.05.02.05.05v.15s0,.02.02.02h.86s.05.02.05.05v.24s-.02.05-.05.05h-.86s-.02,0-.02.02v1.09s-.02.05-.05.05h-.24l-2.11-.72s-.04-.03-.04-.06v-.26s.02-.05.05-.04l2.05.69h.02v-.73s0-.02-.02-.02h-.73s-.05-.02-.05-.05v-.24s.02-.05.05-.05h.73s.02,0,.02-.02v-.15s.02-.05.05-.05"/>
    <path d="M119.7,150.99l-3.26.7h0s-.04-.02-.04-.04v-.27s.01-.05.04-.05l2.68-.52h.01-.01l-2.68-.51s-.04-.02-.04-.05v-.26s.02-.05.05-.04l3.26.7s.04.02.04.05v.27s-.01.05-.04.05"/>
    <path d="M117.7,149.06c.08.08.2.11.33.11h.32s.02,0,.02-.02v-.79s0-.02-.02-.02h-.32c-.14,0-.25.04-.33.12-.09.08-.13.18-.13.3s.04.22.13.29M118.66,148.06v1.09s0,.02.02.02h.35c.13,0,.24-.04.33-.11.08-.08.13-.17.13-.29,0-.1-.03-.19-.09-.26-.06-.07-.14-.12-.24-.14-.03,0-.04-.03-.04-.05v-.24s.01-.03.02-.03h.04c.19.03.34.1.45.23.11.13.17.3.17.51,0,.23-.07.41-.2.54s-.31.2-.53.2h-1.04c-.22,0-.39-.07-.53-.2-.14-.14-.2-.32-.2-.54s.07-.41.2-.55c.14-.14.31-.2.53-.2h.6s.05.02.05.05"/>
    <path d="M117.49,146.19c.13-.11.32-.16.56-.16h1.65s.05.02.05.05v.24s-.02.05-.05.05h-1.62c-.16,0-.28.03-.36.1-.09.07-.13.16-.13.28,0,.13.05.23.14.3s.22.11.38.11h1.6s.05.02.05.05v.24s-.02.05-.05.05h-2.33s-.05,0-.05-.05v-.24s.02-.05.05-.05h.17c-.16-.13-.24-.3-.24-.51s.07-.35.2-.45"/>
    <path d="M117.7,145.07c.08.08.2.11.33.11h.32s.02,0,.02-.02v-.79s0-.02-.02-.02h-.32c-.14,0-.25.04-.33.11-.09.08-.13.18-.13.3s.04.22.13.29M118.66,144.07v1.09s0,.02.02.02h.35c.13,0,.24-.04.33-.11.08-.08.13-.17.13-.29,0-.1-.03-.19-.09-.26-.06-.07-.14-.12-.24-.14-.03,0-.04-.03-.04-.05v-.24s.01-.03.02-.03h.04c.19.03.34.1.45.23.11.13.17.3.17.51,0,.23-.07.41-.2.54s-.31.2-.53.2h-1.04c-.22,0-.39-.07-.53-.2-.14-.14-.2-.32-.2-.54s.07-.41.2-.55c.14-.14.31-.2.53-.2h.6s.05.02.05.05"/>
    <path d="M119.7,143.65h-.29l-1.75-.98h-.02v.93s-.02.05-.05.05h-.22s-.05-.02-.05-.05v-1.3s.02-.05.05-.05h.23s.04,0,.06.02l1.75.99h.02v-.98s.02-.05.05-.05h.22s.05.02.05.05v1.33s-.02.05-.05.05"/>
    <path d="M119.7,141.76h-2.33s-.05-.02-.05-.05v-.24s.02-.05.05-.05h2.33s.05.02.05.05v.24s-.02.05-.05.05M116.81,141.76s-.11.07-.18.07-.13-.02-.18-.07c-.05-.04-.07-.1-.07-.17s.02-.12.07-.16c.05-.04.11-.07.18-.07s.13.02.18.07c.05.04.07.1.07.16,0,.07-.02.13-.07.17"/>
    <path d="M119.36,139.85c-.08-.09-.2-.14-.35-.14h-.4s-.02,0-.02.02v.34c0,.15.04.27.12.36s.2.13.36.13c.14,0,.25-.03.31-.1.07-.07.1-.16.1-.27,0-.13-.04-.24-.13-.34M117.5,139.57c.15-.13.34-.2.58-.2h1.62s.05.02.05.05v.24s-.02.05-.05.05h-.15v.02c.15.12.23.29.23.53,0,.18-.05.33-.15.46s-.28.2-.54.2-.47-.08-.6-.24-.19-.36-.19-.62v-.33s0-.02-.02-.02h-.19c-.16,0-.29.04-.38.11-.1.07-.14.17-.14.29,0,.1.03.18.1.25.06.07.15.11.24.12.03,0,.05.02.05.05v.26s-.01.03-.02.04-.02,0-.03,0c-.19-.02-.34-.09-.46-.23s-.17-.31-.17-.51c0-.22.07-.4.22-.53"/>
    <path d="M119.7,137.83h-3.26s-.05-.02-.05-.05v-.24s.02-.05.05-.05h3.26s.05.02.05.05v.24s-.02.05-.05.05"/>
    <path d="M116.43,135.27h.2s.05.02.05.05v.63s0,.02.02.02h2.99s.05.02.05.05v.24s-.02.05-.05.05h-2.99s-.02,0-.02.02v.6s-.02.05-.05.05h-.2s-.05-.02-.05-.05v-1.61s.02-.05.05-.05"/>
    <path d="M118.81,134.39v-.75s0-.02-.02-.02l-1.85.38h-.01.01l1.85.39s.02,0,.02-.02M119.7,133.44l-.6.12h-.01v.91h.01l.6.12s.04.02.04.05v.24s0,.03-.01.04h-.04l-3.26-.72s-.04-.02-.04-.05v-.29s.01-.05.04-.05l3.26-.73h.01s.04.02.04.04v.25s-.01.05-.04.05"/>
    <path d="M119.7,132.58h-3.26s-.05-.02-.05-.05v-.24s.02-.05.05-.05h2.99s.02,0,.02-.02v-1.1s.02-.05.05-.05h.2s.05.02.05.05v1.41s-.02.05-.05.05"/>
    <path d="M119.7,130.68h-3.26s-.05-.02-.05-.05v-.24s.02-.05.05-.05h3.26s.05.02.05.05v.24s-.02.05-.05.05"/>
    <path d="M118.81,129.28v-.75s0-.02-.02-.02l-1.85.38h-.01.01l1.85.39s.02,0,.02-.02M119.7,128.32l-.6.12h-.01v.91h.01l.6.12s.04.02.04.05v.24s0,.03-.01.04h-.04l-3.26-.72s-.04-.02-.04-.05v-.29s.01-.05.04-.05l3.26-.73h.01s.04.02.04.04v.25s-.01.05-.04.05"/>
  </g>
  <text id="sub_department" class="cls-8" transform="translate(31.94 116.68)"><tspan x="0" y="0"></tspan></text>
  <text id="department" class="cls-8" transform="translate(54.83 116.68)"><tspan x="0" y="0"></tspan></text>
  <text id="sku_code" class="cls-10" transform="translate(73.16 116.68)"><tspan x="0" y="0"></tspan></text>
  <text id="style_code" class="cls-8" transform="translate(51 153.14)"><tspan x="0" y="0"></tspan></text>
  <text id="commercial_ref" class="cls-8" transform="translate(46.2 162.74)"><tspan x="0" y="0"></tspan></text>
  <g id="Barcode">
    <rect x="32.5" y="118.63" width="0.7157894736842104" height="23" fill="cmyk(0,0,0,100)" />
<rect x="33.43157894736842" y="117.43" width="0.7157894736842104" height="23" fill="cmyk(0,0,0,100)" />
<rect x="36.294736842105266" y="117.43" width="1.4315789473684208" height="23" fill="cmyk(0,0,0,100)" />
<rect x="38.4421052631579" y="117.43" width="0.7157894736842104" height="23" fill="cmyk(0,0,0,100)" />
<rect x="39.87368421052632" y="117.43" width="2.147368421052631" height="23" fill="cmyk(0,0,0,100)" />
<rect x="43.452631578947376" y="117.43" width="0.7157894736842104" height="23" fill="cmyk(0,0,0,100)" />
<rect x="45.60000000000001" y="117.43" width="1.4315789473684208" height="23" fill="cmyk(0,0,0,100)" />
<rect x="48.46315789473685" y="117.43" width="0.7157894736842104" height="23" fill="cmyk(0,0,0,100)" />
<rect x="49.894736842105274" y="117.43" width="1.4315789473684208" height="23" fill="cmyk(0,0,0,100)" />
<rect x="52.75789473684212" y="117.43" width="1.4315789473684208" height="23" fill="cmyk(0,0,0,100)" />
<rect x="54.90526315789475" y="117.43" width="0.7157894736842104" height="23" fill="cmyk(0,0,0,100)" />
<rect x="58.484210526315806" y="117.43" width="0.7157894736842104" height="23" fill="cmyk(0,0,0,100)" />
<rect x="59.91578947368423" y="117.43" width="1.4315789473684208" height="23" fill="cmyk(0,0,0,100)" />
<rect x="63.49473684210528" y="117.43" width="0.7157894736842104" height="23" fill="cmyk(0,0,0,100)" />
<rect x="64.9263157894737" y="117.43" width="0.7157894736842104" height="23" fill="cmyk(0,0,0,100)" />
<rect x="66.35789473684213" y="117.43" width="0.7157894736842104" height="23" fill="cmyk(0,0,0,100)" />
<rect x="67.78947368421055" y="117.43" width="0.7157894736842104" height="23" fill="cmyk(0,0,0,100)" />
<rect x="70.65263157894739" y="117.43" width="0.7157894736842104" height="23" fill="cmyk(0,0,0,100)" />
<rect x="72.80000000000003" y="117.43" width="1.4315789473684208" height="23" fill="cmyk(0,0,0,100)" />
<rect x="75.66315789473687" y="117.43" width="1.4315789473684208" height="23" fill="cmyk(0,0,0,100)" />
<rect x="77.8105263157895" y="117.43" width="0.7157894736842104" height="23" fill="cmyk(0,0,0,100)" />
<rect x="79.95789473684214" y="117.43" width="0.7157894736842104" height="23" fill="cmyk(0,0,0,100)" />
<rect x="82.82105263157898" y="117.43" width="0.7157894736842104" height="23" fill="cmyk(0,0,0,100)" />
<rect x="85.68421052631582" y="117.43" width="0.7157894736842104" height="23" fill="cmyk(0,0,0,100)" />
<rect x="87.83157894736846" y="117.43" width="2.147368421052631" height="23" fill="cmyk(0,0,0,100)" />
<rect x="90.6947368421053" y="117.43" width="0.7157894736842104" height="23" fill="cmyk(0,0,0,100)" />
<rect x="92.84210526315793" y="117.43" width="2.147368421052631" height="23" fill="cmyk(0,0,0,100)" />
<rect x="95.70526315789478" y="117.43" width="0.7157894736842104" height="23" fill="cmyk(0,0,0,100)" />
<rect x="97.85263157894741" y="117.43" width="0.7157894736842104" height="23" fill="cmyk(0,0,0,100)" />
<rect x="99.28421052631583" y="117.43" width="0.7157894736842104" height="23" fill="cmyk(0,0,0,100)" />
  </g>
  <rect class="cls-18" x="35.03" y="137.64" width="29.44" height="4.06"/>
  <rect class="cls-18" x="67.46" y="137.64" width="29.43" height="4.08"/>
  <text id="bar1" class="cls-8" transform="translate(27.96 143.43)"><tspan x="0" y="0"></tspan></text>
  <text id="bar2" class="cls-12" transform="translate(36.26 143.43)"><tspan x="0" y="0"></tspan></text>
  <text id="bar3" class="cls-12" transform="translate(68.67 143.43)"><tspan x="0" y="0"></tspan></text>

    <!-- <text id="" class="" y="81.6%" x="50%" text-anchor="middle">
 <tspan class="cls-4" id="currency" ></tspan>

  
  <tspan class="cls-4" id="selling_price" xml:space="preserve"></tspan>
  <tspan class="cls-3" baseline-shift="sub" dx="-2.2%" dy="-5.0%" id="selling_price_fraction"></tspan>

  </text> -->
  <text id="currency" class="cls-4" transform="translate(38.28 189.89)"><tspan x="0" y="0"></tspan></text>
  <text id="selling_price" class="cls-4" transform="translate(52.46 189.89)"><tspan x="0" y="0" xml:space="preserve"> </tspan></text>
  <text id="selling_price_fraction" class="cls-3" transform="translate(70.38 182.37)"><tspan class="cls-19" x="0" y="0"></tspan><tspan class="cls-20" x="2.66" y="0"></tspan></text>
 
   <text id="variable_size_box" class="cls-variable-highlight" transform="translate(25.04 96.4)" text-anchor="middle" dominant-baseline="middle" style="display:none">
    <tspan x="0" y="0"></tspan>
  </text>
  <text id="variable_size_text" class="cls-variable-normal" transform="translate(25.04 96.4)" text-anchor="middle" dominant-baseline="middle" style="display:none">
    <tspan x="0" y="0"></tspan>
  </text>
  <g id="WOMAN" display="none">
    <text id="USA" data-name="USA" class="cls-9" text-anchor="end" x="49%" y="36%" ><tspan x="0" y="0"></tspan></text>
    <text id="IT" data-name="IT" class="cls-6" text-anchor="end"  x="49%" y="31%"><tspan x="0" y="0"></tspan></text>
    <text id="EUR" data-name="EUR" class="cls-9" text-anchor="end" x="91%" y="31%"><tspan x="0" y="0"></tspan></text>
    <text id="MEX" data-name="MEX" class="cls-9" text-anchor="end" x="91%"  y="36%"><tspan x="0" y="0"></tspan></text>
    <g>
      <path d="M12.09,72.84v-5.63c0-.11.05-.16.16-.16h1.28c.11,0,.16.05.16.16v5.63c0,.11-.05.16-.16.16h-1.28c-.11,0-.16-.05-.16-.16"/>
      <path d="M19.35,67.21v1.05c0,.11-.05.16-.16.16h-1.37s-.07.02-.07.07v4.34c0,.11-.05.16-.16.16h-1.27c-.11,0-.16-.05-.16-.16v-4.34s-.02-.07-.07-.07h-1.33c-.11,0-.16-.05-.16-.16v-1.05c0-.11.05-.16.16-.16h4.43c.11,0,.16.05.16.16"/>
    </g>
    <g>
      <path d="M71.55,68.1h-2.74s-.05.02-.05.05v1.3s.02.05.05.05h1.78c.1,0,.15.05.15.15v.74c0,.1-.05.14-.15.14h-1.78s-.05.02-.05.05v1.36s.02.05.05.05h2.74c.1,0,.15.05.15.15v.74c0,.1-.05.14-.15.14h-3.84c-.1,0-.14-.05-.14-.14v-5.66c0-.1.05-.15.14-.15h3.84c.1,0,.15.05.15.15v.74c0,.1-.05.14-.15.14"/>
      <path d="M73.95,72.83c-.33-.17-.59-.41-.77-.72-.18-.31-.28-.66-.28-1.07v-3.83c0-.1.05-.14.15-.14h.91c.1,0,.14.05.14.14v3.84c0,.3.09.54.28.73.18.18.43.28.73.28s.54-.09.73-.28c.18-.18.28-.43.28-.73v-3.84c0-.1.05-.14.14-.14h.91c.1,0,.14.05.14.14v3.83c0,.4-.09.76-.28,1.07-.18.31-.44.55-.77.72-.33.17-.71.26-1.15.26s-.82-.09-1.15-.26"/>
      <path d="M79.91,68.15v1.43s.02.05.05.05h1.11c.24,0,.43-.07.58-.21.15-.14.22-.32.22-.55s-.07-.41-.22-.56c-.15-.14-.34-.22-.58-.22h-1.11s-.05.02-.05.05M81.84,72.91l-1.05-2.31s-.03-.04-.06-.04h-.77s-.05.02-.05.05v2.27c0,.1-.05.14-.14.14h-.91c-.1,0-.14-.05-.14-.14v-5.67c0-.1.05-.14.14-.14h2.39c.36,0,.68.08.96.23.28.15.49.36.64.63.15.27.23.58.23.94,0,.39-.1.72-.29.99-.19.28-.46.47-.8.59-.02,0-.03.02-.03.03,0,.01,0,.03,0,.04l1.12,2.35s.02.05.02.08-.01.05-.03.07c-.02.02-.05.03-.09.03h-.96c-.07,0-.13-.04-.17-.11"/>
    </g>
    <g>
      <path d="M67.57,83.96v-5.66c0-.1.05-.15.14-.15h.91c.07,0,.13.03.17.09l1.23,1.99s.02.03.04.03c.02,0,.02,0,.03-.03l1.25-1.99c.04-.06.1-.09.17-.09h.91c.1,0,.14.05.14.15v5.66c0,.1-.05.14-.14.14h-.91c-.1,0-.14-.05-.14-.14v-3.68s0-.04-.02-.04c-.01,0-.03,0-.04.03l-.86,1.4c-.04.06-.1.09-.17.09h-.43c-.07,0-.13-.03-.17-.09l-.85-1.4s-.02-.03-.04-.03c-.02,0-.02.02-.02.04v3.68c0,.1-.05.14-.14.14h-.91c-.1,0-.14-.05-.14-.14"/>
      <path d="M78.01,79.19h-2.74s-.05.02-.05.05v1.3s.02.05.05.05h1.78c.1,0,.15.05.15.15v.74c0,.1-.05.14-.15.14h-1.78s-.05.02-.05.05v1.36s.02.05.05.05h2.74c.1,0,.14.05.14.14v.74c0,.1-.05.14-.14.14h-3.84c-.1,0-.14-.05-.14-.14v-5.66c0-.1.05-.14.14-.14h3.84c.1,0,.14.05.14.14v.74c0,.1-.05.15-.14.15"/>
      <path d="M79.21,84.08s-.03-.04-.03-.07,0-.05.03-.08l1.62-2.77s0-.04,0-.07l-1.62-2.77s-.03-.05-.03-.08c0-.03.01-.05.03-.07.02-.02.05-.03.09-.03h.99c.08,0,.15.03.18.1l1.08,1.9s.02.03.04.03c.01,0,.02,0,.03-.03l1.08-1.9c.03-.07.09-.1.18-.1h.98s.07,0,.09.03c.02.02.04.04.04.07,0,.02,0,.05-.03.08l-1.61,2.77s0,.05,0,.07l1.61,2.77s.03.05.03.08-.01.05-.04.07c-.02.02-.05.03-.09.03h-.98c-.09,0-.14-.03-.18-.1l-1.08-1.89s-.01-.03-.03-.03c-.01,0-.03,0-.04.03l-1.09,1.89c-.03.07-.09.1-.18.1h-.98s-.07,0-.09-.03"/>
    </g>
    <g>
      <path d="M13.28,83.92c-.33-.17-.59-.41-.77-.72-.18-.31-.28-.66-.28-1.07v-3.83c0-.1.05-.14.14-.14h.91c.1,0,.14.05.14.14v3.84c0,.3.09.54.28.73.18.18.43.28.73.28s.54-.09.73-.28c.18-.18.28-.43.28-.73v-3.84c0-.1.05-.14.14-.14h.91c.1,0,.15.05.15.14v3.83c0,.4-.09.76-.28,1.07-.18.31-.44.55-.77.72-.33.17-.71.26-1.15.26s-.82-.08-1.15-.26"/>
      <path d="M18.89,83.96c-.33-.15-.59-.35-.77-.62-.18-.27-.27-.58-.27-.93v-.14c0-.1.05-.15.14-.15h.89c.1,0,.15.04.15.11v.12c0,.23.1.42.31.57.21.16.48.23.81.23.3,0,.52-.06.67-.19.14-.13.22-.28.22-.47,0-.14-.05-.25-.14-.34-.09-.09-.21-.18-.36-.25-.15-.07-.4-.17-.74-.29-.39-.13-.71-.26-.97-.4-.26-.14-.48-.32-.66-.56-.18-.24-.27-.53-.27-.87s.09-.64.26-.89c.18-.26.42-.45.73-.59.31-.14.67-.2,1.08-.2.43,0,.82.08,1.16.23.34.15.61.37.8.64.19.28.28.59.28.96v.09c0,.1-.05.14-.15.14h-.89c-.1,0-.14-.03-.14-.08v-.09c0-.24-.1-.44-.29-.61s-.46-.25-.8-.25c-.27,0-.48.06-.63.17-.15.11-.22.27-.22.47,0,.14.04.26.13.36.08.1.21.18.39.26.17.08.44.18.8.31.4.15.71.28.94.39.23.11.44.28.62.51.18.23.28.52.28.88s-.09.65-.27.91c-.18.26-.43.46-.76.6-.33.14-.71.21-1.15.21s-.83-.07-1.17-.22"/>
      <path d="M25.08,82.23h1.5s.05-.02.04-.06l-.76-2.59s-.01-.03-.03-.03c-.01,0-.03.01-.04.03l-.76,2.59s0,.06.04.06M27.16,83.99l-.24-.79s-.02-.04-.05-.04h-2.08s-.05.01-.05.04l-.24.79c-.03.08-.08.12-.16.12h-.99c-.05,0-.09-.02-.11-.05-.02-.03-.03-.07,0-.11l1.81-5.67c.03-.08.08-.12.16-.12h1.25c.08,0,.13.04.16.12l1.81,5.67s0,.03,0,.05c0,.03-.01.06-.03.08-.02.02-.05.03-.09.03h-.99c-.08,0-.13-.04-.16-.12"/>
    </g>
  </g>
  <g id="MAN" display="none">
    <text id="USA" data-name="USA" class="cls-9" text-anchor="end" x="49%" y="36%" ><tspan x="0" y="0"></tspan></text>
    <text id="IT" data-name="IT" class="cls-6" text-anchor="end"  x="49%" y="31%"><tspan x="0" y="0"></tspan></text>
    <text id="EUR" data-name="EUR" class="cls-9" text-anchor="end" x="91%" y="31%"><tspan x="0" y="0"></tspan></text>
    <text id="MEX" data-name="MEX" class="cls-9" text-anchor="end" x="91%"  y="36%"><tspan x="0" y="0"></tspan></text>
    <g>
      <path d="M12.09,72.84v-5.63c0-.11.05-.16.16-.16h1.28c.11,0,.16.05.16.16v5.63c0,.11-.05.16-.16.16h-1.28c-.11,0-.16-.05-.16-.16"/>
      <path d="M19.35,67.21v1.05c0,.11-.05.16-.16.16h-1.37s-.07.02-.07.07v4.34c0,.11-.05.16-.16.16h-1.27c-.11,0-.16-.05-.16-.16v-4.34s-.02-.07-.07-.07h-1.33c-.11,0-.16-.05-.16-.16v-1.05c0-.11.05-.16.16-.16h4.43c.11,0,.16.05.16.16"/>
    </g>
    <g>
      <path d="M71.55,68.1h-2.74s-.05.02-.05.05v1.3s.02.05.05.05h1.78c.1,0,.15.05.15.15v.74c0,.1-.05.14-.15.14h-1.78s-.05.02-.05.05v1.36s.02.05.05.05h2.74c.1,0,.15.05.15.15v.74c0,.1-.05.14-.15.14h-3.84c-.1,0-.14-.05-.14-.14v-5.66c0-.1.05-.15.14-.15h3.84c.1,0,.15.05.15.15v.74c0,.1-.05.14-.15.14"/>
      <path d="M73.95,72.83c-.33-.17-.59-.41-.77-.72-.18-.31-.28-.66-.28-1.07v-3.83c0-.1.05-.14.15-.14h.91c.1,0,.14.05.14.14v3.84c0,.3.09.54.28.73.18.18.43.28.73.28s.54-.09.73-.28c.18-.18.28-.43.28-.73v-3.84c0-.1.05-.14.14-.14h.91c.1,0,.14.05.14.14v3.83c0,.4-.09.76-.28,1.07-.18.31-.44.55-.77.72-.33.17-.71.26-1.15.26s-.82-.09-1.15-.26"/>
      <path d="M79.91,68.15v1.43s.02.05.05.05h1.11c.24,0,.43-.07.58-.21.15-.14.22-.32.22-.55s-.07-.41-.22-.56c-.15-.14-.34-.22-.58-.22h-1.11s-.05.02-.05.05M81.84,72.91l-1.05-2.31s-.03-.04-.06-.04h-.77s-.05.02-.05.05v2.27c0,.1-.05.14-.14.14h-.91c-.1,0-.14-.05-.14-.14v-5.67c0-.1.05-.14.14-.14h2.39c.36,0,.68.08.96.23.28.15.49.36.64.63.15.27.23.58.23.94,0,.39-.1.72-.29.99-.19.28-.46.47-.8.59-.02,0-.03.02-.03.03,0,.01,0,.03,0,.04l1.12,2.35s.02.05.02.08-.01.05-.03.07c-.02.02-.05.03-.09.03h-.96c-.07,0-.13-.04-.17-.11"/>
    </g>
    <g>
      <path d="M67.57,83.96v-5.66c0-.1.05-.15.14-.15h.91c.07,0,.13.03.17.09l1.23,1.99s.02.03.04.03c.02,0,.02,0,.03-.03l1.25-1.99c.04-.06.1-.09.17-.09h.91c.1,0,.14.05.14.15v5.66c0,.1-.05.14-.14.14h-.91c-.1,0-.14-.05-.14-.14v-3.68s0-.04-.02-.04c-.01,0-.03,0-.04.03l-.86,1.4c-.04.06-.1.09-.17.09h-.43c-.07,0-.13-.03-.17-.09l-.85-1.4s-.02-.03-.04-.03c-.02,0-.02.02-.02.04v3.68c0,.1-.05.14-.14.14h-.91c-.1,0-.14-.05-.14-.14"/>
      <path d="M78.01,79.19h-2.74s-.05.02-.05.05v1.3s.02.05.05.05h1.78c.1,0,.15.05.15.15v.74c0,.1-.05.14-.15.14h-1.78s-.05.02-.05.05v1.36s.02.05.05.05h2.74c.1,0,.14.05.14.14v.74c0,.1-.05.14-.14.14h-3.84c-.1,0-.14-.05-.14-.14v-5.66c0-.1.05-.14.14-.14h3.84c.1,0,.14.05.14.14v.74c0,.1-.05.15-.14.15"/>
      <path d="M79.21,84.08s-.03-.04-.03-.07,0-.05.03-.08l1.62-2.77s0-.04,0-.07l-1.62-2.77s-.03-.05-.03-.08c0-.03.01-.05.03-.07.02-.02.05-.03.09-.03h.99c.08,0,.15.03.18.1l1.08,1.9s.02.03.04.03c.01,0,.02,0,.03-.03l1.08-1.9c.03-.07.09-.1.18-.1h.98s.07,0,.09.03c.02.02.04.04.04.07,0,.02,0,.05-.03.08l-1.61,2.77s0,.05,0,.07l1.61,2.77s.03.05.03.08-.01.05-.04.07c-.02.02-.05.03-.09.03h-.98c-.09,0-.14-.03-.18-.1l-1.08-1.89s-.01-.03-.03-.03c-.01,0-.03,0-.04.03l-1.09,1.89c-.03.07-.09.1-.18.1h-.98s-.07,0-.09-.03"/>
    </g>
    <g>
      <path d="M13.28,83.92c-.33-.17-.59-.41-.77-.72-.18-.31-.28-.66-.28-1.07v-3.83c0-.1.05-.14.14-.14h.91c.1,0,.14.05.14.14v3.84c0,.3.09.54.28.73.18.18.43.28.73.28s.54-.09.73-.28c.18-.18.28-.43.28-.73v-3.84c0-.1.05-.14.14-.14h.91c.1,0,.15.05.15.14v3.83c0,.4-.09.76-.28,1.07-.18.31-.44.55-.77.72-.33.17-.71.26-1.15.26s-.82-.08-1.15-.26"/>
      <path d="M18.89,83.96c-.33-.15-.59-.35-.77-.62-.18-.27-.27-.58-.27-.93v-.14c0-.1.05-.15.14-.15h.89c.1,0,.15.04.15.11v.12c0,.23.1.42.31.57.21.16.48.23.81.23.3,0,.52-.06.67-.19.14-.13.22-.28.22-.47,0-.14-.05-.25-.14-.34-.09-.09-.21-.18-.36-.25-.15-.07-.4-.17-.74-.29-.39-.13-.71-.26-.97-.4-.26-.14-.48-.32-.66-.56-.18-.24-.27-.53-.27-.87s.09-.64.26-.89c.18-.26.42-.45.73-.59.31-.14.67-.2,1.08-.2.43,0,.82.08,1.16.23.34.15.61.37.8.64.19.28.28.59.28.96v.09c0,.1-.05.14-.15.14h-.89c-.1,0-.14-.03-.14-.08v-.09c0-.24-.1-.44-.29-.61s-.46-.25-.8-.25c-.27,0-.48.06-.63.17-.15.11-.22.27-.22.47,0,.14.04.26.13.36.08.1.21.18.39.26.17.08.44.18.8.31.4.15.71.28.94.39.23.11.44.28.62.51.18.23.28.52.28.88s-.09.65-.27.91c-.18.26-.43.46-.76.6-.33.14-.71.21-1.15.21s-.83-.07-1.17-.22"/>
      <path d="M25.08,82.23h1.5s.05-.02.04-.06l-.76-2.59s-.01-.03-.03-.03c-.01,0-.03.01-.04.03l-.76,2.59s0,.06.04.06M27.16,83.99l-.24-.79s-.02-.04-.05-.04h-2.08s-.05.01-.05.04l-.24.79c-.03.08-.08.12-.16.12h-.99c-.05,0-.09-.02-.11-.05-.02-.03-.03-.07,0-.11l1.81-5.67c.03-.08.08-.12.16-.12h1.25c.08,0,.13.04.16.12l1.81,5.67s0,.03,0,.05c0,.03-.01.06-.03.08-.02.02-.05.03-.09.03h-.99c-.08,0-.13-.04-.16-.12"/>
    </g>
  </g>
  <g id="KIDS" display="none">
    <g>
      <path d="M68.61,84.02v-5.66c0-.1.05-.14.14-.14h.91c.1,0,.14.05.14.14v5.66c0,.1-.05.14-.14.14h-.91c-.1,0-.14-.05-.14-.14"/>
      <path d="M71.27,84.02v-5.66c0-.1.05-.14.14-.14h.88l.17.09,2.12,3.54.04.03.02-.04v-3.47c0-.1.05-.14.15-.14h.89c.1,0,.15.05.15.14v5.66c0,.1-.05.14-.15.14h-.87l-.17-.1-2.13-3.57-.04-.03-.02.04v3.51c0,.1-.04.14-.14.14h-.9c-.1,0-.14-.05-.14-.14"/>
    </g>
    <g>
      <path d="M12.4,84.02v-5.66c0-.1.05-.14.14-.14h.91c.1,0,.14.05.14.14v5.66c0,.1-.05.14-.14.14h-.91c-.1,0-.14-.05-.14-.14"/>
      <path d="M19.27,78.36v.75c0,.1-.05.15-.14.15h-1.47l-.05.05v4.72c0,.1-.05.14-.14.14h-.91c-.1,0-.14-.05-.14-.14v-4.72l-.05-.05h-1.43c-.1,0-.14-.05-.14-.15v-.75c0-.1.05-.14.14-.14h4.2c.1,0,.14.05.14.14"/>
    </g>
    <g>
      <path d="M69.54,72.88c-.34-.17-.59-.41-.77-.73-.18-.31-.27-.67-.27-1.08v-1.96c0-.41.09-.77.27-1.08s.44-.55.77-.72c.33-.17.72-.26,1.16-.26s.82.08,1.15.24.59.39.77.69.28.64.28,1.03c0,.05-.04.08-.14.09l-.91.06h-.03l-.12-.04v-.05c0-.3-.09-.54-.28-.72-.18-.18-.43-.27-.73-.27s-.55.09-.74.27c-.18.18-.28.42-.28.72v2.05c0,.29.09.53.28.71.18.18.43.27.74.27s.54-.09.73-.27c.18-.18.28-.42.28-.71l.04-.07.11-.02.91.04c.1,0,.14.03.14.04v.04c0,.39-.09.74-.28,1.04-.18.3-.44.53-.77.7s-.71.25-1.15.25-.83-.09-1.16-.26"/>
      <path d="M73.96,73.1v-5.66c0-.1.05-.15.14-.15h.91c.07,0,.13.03.17.09l1.23,1.99s.02.03.04.03c.01,0,.03,0,.03-.03l1.25-1.99c.04-.06.1-.09.17-.09h.91c.1,0,.14.05.14.15v5.66c0,.1-.05.14-.14.14h-.91c-.09,0-.14-.05-.14-.14v-3.68s0-.04-.02-.04-.03,0-.04.03l-.86,1.4c-.04.06-.1.09-.17.09h-.43c-.07,0-.13-.03-.17-.09l-.85-1.4s-.03-.03-.04-.03-.02.02-.02.04v3.68c0,.1-.05.14-.14.14h-.91c-.1,0-.14-.05-.14-.14"/>
    </g>
    <g>
      <path d="M13.75,72.87v-1.83l-.02-.09-1.62-3.67-.02-.08c0-.07.05-.11.14-.11h1.32c.09,0,.15.04.18.13l.74,1.96.04.03.04-.03.74-1.96c.03-.09.09-.13.18-.13h1.32c.09,0,.14.04.14.11l-.02.08-1.64,3.67-.02.09v1.83c0,.11-.05.16-.15.16h-1.2c-.1,0-.15-.05-.15-.16"/>
      <path d="M21.24,68.47h-2.36l-.07.07v.75l.07.07h1.44c.1,0,.15.05.15.16v1.04c0,.11-.05.16-.15.16h-1.44l-.07.07v.83l.07.07h2.36c.1,0,.15.05.15.16v1.04c0,.11-.05.16-.15.16h-3.79c-.1,0-.15-.05-.15-.16v-5.63c0-.11.05-.16.15-.16h3.79c.1,0,.15.05.15.16v1.05c0,.11-.05.16-.15.16"/>
      <path d="M23.59,70.96l.06.06h1l.05-.02v-.05l-.51-1.96-.04-.04-.04.04-.52,1.96v.02h0ZM25.22,72.92l-.16-.61-.07-.06h-1.68l-.07.06-.16.61c-.02.09-.08.14-.17.14h-1.31l-.12-.05v-.14l1.67-5.63c.03-.09.08-.14.17-.14h1.66c.09,0,.14.04.17.14l1.68,5.63v.06c0,.09-.04.13-.13.13h-1.31c-.09,0-.15-.05-.17-.14"/>
      <path d="M28.86,68.54v.94l.06.07h.74c.17,0,.31-.05.42-.15s.16-.23.16-.39-.05-.3-.16-.39c-.11-.1-.25-.15-.42-.15h-.74l-.06.07h0ZM30.17,72.93l-.87-2.12-.08-.05h-.29l-.06.07v2.06c0,.11-.05.16-.15.16h-1.21c-.1,0-.15-.05-.15-.16v-5.63c0-.11.05-.16.15-.16h2.41c.37,0,.69.08.97.24.28.16.49.38.65.67.15.29.23.62.23.99s-.08.69-.25.97-.41.48-.71.62l-.03.09.99,2.19.02.08-.13.1h-1.28l-.18-.12h-.03,0Z"/>
      <path d="M33.25,72.89c-.33-.16-.59-.38-.78-.67-.18-.29-.28-.62-.28-1v-.08c0-.11.05-.16.15-.16h1.19c.1,0,.15.03.15.09v.09c0,.15.08.29.24.42.15.12.35.19.59.19.2,0,.34-.04.43-.13s.13-.18.13-.29c0-.12-.05-.22-.16-.28s-.3-.14-.59-.23l-.23-.07c-.53-.17-.98-.4-1.34-.68s-.54-.69-.54-1.23c0-.36.09-.67.27-.95s.44-.49.76-.63c.32-.15.68-.22,1.08-.22.42,0,.8.08,1.14.25.34.16.61.4.81.7s.29.64.29,1.03v.04c0,.11-.05.16-.15.16h-1.19c-.1,0-.15-.02-.15-.07v-.07c0-.17-.07-.32-.22-.46s-.34-.21-.59-.21c-.17,0-.31.04-.41.11s-.15.18-.15.31c0,.1.04.19.11.26s.18.14.33.2.38.15.7.25c.04.02.23.08.57.18s.62.29.84.57c.23.28.34.61.34,1s-.09.69-.28.97c-.18.28-.44.49-.77.64s-.71.23-1.14.23-.82-.08-1.15-.23"/>
    </g>
    <text id="IT" data-name="IT" class="cls-9" text-anchor="end" x="49%" y="36%" ><tspan x="0" y="0"></tspan></text>
    <text id="YEARS" class="cls-6" text-anchor="end"  x="49%" y="31%"><tspan x="0" y="0"></tspan></text>
    <text id="CM" class="cls-9" text-anchor="end" x="91%" y="31%"><tspan x="0" y="0"></tspan></text>
    <text id="INCHES" class="cls-9" text-anchor="end" x="91%"  y="36%"><tspan x="0" y="0"></tspan></text>
  </g>
  <g id="FAGOTTINO" display="none">
    <g>
      <path d="M12.32,72.88v-5.63c0-.11.05-.16.14-.16h1.14c.08,0,.14.04.18.11l.93,1.67s.03.03.05.03.04-.01.05-.03l.92-1.67c.04-.07.09-.11.18-.11h1.14c.1,0,.15.05.15.16v5.63c0,.11-.05.16-.15.16h-1.15c-.1,0-.15-.05-.15-.16v-3s0-.05-.03-.06c-.02,0-.04,0-.05.03l-.47.88c-.04.07-.09.11-.18.11h-.54c-.08,0-.14-.04-.18-.11l-.47-.88s-.03-.03-.05-.03c-.02,0-.03.02-.03.06v3c0,.11-.05.16-.15.16h-1.15c-.1,0-.14-.05-.14-.16Z"/>
      <path d="M18.73,72.86c-.32-.19-.58-.46-.75-.8s-.27-.74-.27-1.19v-1.6c0-.44.09-.83.27-1.17s.43-.6.75-.79c.32-.19.7-.28,1.12-.28s.8.09,1.13.28c.32.19.58.45.75.79.18.34.27.73.27,1.17v1.6c0,.45-.09.85-.27,1.19-.18.34-.43.61-.75.8-.32.19-.7.28-1.13.28s-.8-.09-1.12-.28ZM20.37,71.54c.13-.16.2-.36.2-.62v-1.67c0-.26-.07-.47-.2-.62-.13-.16-.3-.23-.52-.23s-.38.08-.51.23c-.13.16-.19.36-.19.62v1.67c0,.26.06.47.19.62.13.16.3.23.51.23s.39-.08.52-.23Z"/>
      <path d="M22.53,72.88v-5.63c0-.11.05-.16.14-.16h1.1c.08,0,.14.04.18.11l1.51,2.81s.03.03.05.03c.02,0,.03-.02.03-.06v-2.74c0-.11.04-.16.14-.16h1.15c.1,0,.15.05.15.16v5.63c0,.11-.05.16-.15.16h-1.1c-.08,0-.14-.04-.18-.11l-1.51-2.86s-.03-.04-.05-.04c-.02,0-.03.02-.03.06v2.8c.01.11-.03.16-.13.16h-1.15c-.1,0-.14-.05-.14-.16Z"/>
      <path d="M31.68,67.25v1.05c0,.11-.05.16-.15.16h-1.23s-.06.02-.06.07v4.34c0,.11-.05.16-.15.16h-1.15c-.1,0-.14-.05-.14-.16v-4.34s-.02-.07-.06-.07h-1.19c-.1,0-.15-.05-.15-.16v-1.05c0-.11.05-.16.15-.16h3.99c.1,0,.15.05.15.16Z"/>
      <path d="M34.97,67.09h1.15c.1,0,.15.05.15.16v5.63c0,.11-.05.16-.15.16h-1.15c-.1,0-.14-.05-.14-.16v-2.1s-.02-.07-.06-.07h-1.15s-.06.02-.06.07v2.1c0,.11-.05.16-.15.16h-1.15c-.1,0-.14-.05-.14-.16v-5.63c0-.11.05-.16.14-.16h1.15c.1,0,.15.05.15.16v2.02s.02.07.06.07h1.15s.06-.02.06-.07v-2.02c0-.11.05-.16.14-.16Z"/>
      <path d="M37.69,72.87c-.32-.16-.56-.38-.73-.67-.17-.29-.26-.62-.26-1v-.08c0-.11.05-.16.15-.16h1.12c.1,0,.15.03.15.08v.09c0,.15.07.29.22.42s.33.19.56.19c.19,0,.32-.04.41-.13s.12-.19.12-.29c0-.12-.05-.22-.15-.28-.1-.06-.29-.14-.56-.23l-.22-.07c-.5-.17-.93-.4-1.27-.68s-.51-.69-.51-1.23c0-.36.09-.67.26-.95.17-.27.41-.49.71-.63.3-.15.64-.22,1.02-.22.4,0,.76.08,1.08.25.32.16.58.4.76.7.19.3.28.64.28,1.03v.04c0,.11-.05.16-.15.16h-1.12c-.1,0-.14-.02-.14-.07v-.07c0-.17-.07-.33-.21-.46s-.32-.21-.56-.21c-.16,0-.29.04-.39.11-.09.07-.14.18-.14.31,0,.1.03.19.1.26.07.07.17.14.32.2.14.07.36.15.66.25.04.02.22.08.54.18.32.1.58.29.8.57.21.27.32.61.32,1,0,.37-.09.69-.26.97-.17.28-.42.49-.73.64s-.67.23-1.08.23-.78-.08-1.09-.23Z"/>
    </g>
    <g>
      <path d="M67.9,72.84c-.33-.17-.59-.42-.77-.73-.18-.31-.27-.67-.27-1.08v-1.96c0-.41.09-.77.27-1.08.18-.31.44-.55.77-.72.33-.17.72-.25,1.16-.25s.82.08,1.15.24c.33.16.59.39.77.69s.28.64.28,1.03c0,.05-.04.08-.14.09l-.91.06h-.03c-.08,0-.12-.01-.12-.04v-.05c0-.3-.09-.54-.28-.72-.18-.18-.43-.27-.73-.27s-.55.09-.74.27c-.18.18-.28.42-.28.72v2.05c0,.29.09.53.28.71.18.18.43.27.74.27s.54-.09.73-.27c.18-.18.28-.42.28-.71,0-.03.01-.05.04-.07s.06-.03.11-.02l.91.04c.1.01.14.03.14.04v.04c0,.39-.09.74-.28,1.04-.18.3-.44.53-.77.7-.33.17-.72.25-1.15.25s-.83-.09-1.16-.26h0Z"/>
      <path d="M72.57,72.89v-5.66c0-.1.05-.14.14-.14h.91c.07,0,.13.03.17.09l1.23,1.99s.02.03.04.03c.01,0,.02,0,.03-.03l1.25-1.99c.04-.06.1-.09.17-.09h.91c.1,0,.14.05.14.14v5.66c0,.1-.05.14-.14.14h-.91c-.1,0-.14-.05-.14-.14v-3.68s0-.04-.02-.04c-.01,0-.03,0-.04.03l-.86,1.4c-.04.06-.1.09-.17.09h-.43c-.07,0-.13-.03-.17-.09l-.85-1.4s-.02-.03-.04-.03c-.01,0-.02.02-.02.04v3.68c0,.1-.05.14-.14.14h-.91c-.1,0-.14-.05-.14-.14h-.01Z"/>
    </g>
    <g>
      <path d="M66.97,83.98v-5.66c0-.1.05-.14.14-.14h.91c.1,0,.14.05.14.14v2.32s0,.04.02.04c.01,0,.03,0,.04-.02l1.94-2.41c.04-.06.1-.08.18-.08h1.03s.07,0,.09.02c.02.01.03.04.03.06s-.01.05-.04.09l-1.85,2.36s-.02.04,0,.07l1.96,3.17s.03.05.03.08c0,.06-.04.09-.12.09h-1.03c-.07,0-.13-.03-.17-.09l-1.49-2.41s-.02-.03-.03-.03c-.02,0-.03,0-.04.03l-.52.66s-.03.04-.03.06v1.64c0,.1-.05.14-.14.14h-.91c-.1,0-.14-.05-.14-.14h0Z"/>
      <path d="M73.65,83.93c-.33-.18-.59-.42-.78-.74-.18-.31-.28-.68-.28-1.09v-1.9c0-.41.09-.78.28-1.1.18-.32.44-.56.78-.74.33-.17.72-.26,1.16-.26s.81.08,1.14.25.59.4.77.69.28.62.28.97v.02c0,.1-.05.14-.14.14h-.91s-.08,0-.11-.02c-.03-.01-.04-.03-.04-.05v-.06c0-.26-.09-.48-.27-.66s-.42-.27-.72-.27-.55.09-.74.28c-.18.19-.28.44-.28.74v1.97c0,.31.1.55.3.74s.45.28.76.28.53-.08.71-.23c.18-.16.26-.37.26-.65v-.37s-.02-.05-.05-.05h-.9c-.1,0-.14-.05-.14-.14v-.7c0-.1.05-.14.14-.14h1.99c.1,0,.14.05.14.14v1.08c0,.43-.09.8-.27,1.12s-.44.56-.77.73c-.33.17-.72.25-1.15.25s-.82-.09-1.16-.26v.03Z"/>
    </g>
    <g>
      <path d="M12.32,83.98v-5.66c0-.1.05-.14.14-.14h.91c.1,0,.14.05.14.14v5.66c0,.1-.05.14-.14.14h-.91c-.1,0-.14-.05-.14-.14Z"/>
      <path d="M14.31,83.98v-5.66c0-.1.05-.14.14-.14h.88c.07,0,.13.03.17.09l2.12,3.54s.02.03.04.03c.01,0,.02-.02.02-.04v-3.47c0-.1.05-.14.14-.14h.89c.1,0,.14.05.14.14v5.66c0,.1-.05.14-.14.14h-.87c-.07,0-.12-.03-.17-.1l-2.13-3.57s-.02-.03-.04-.03c-.01,0-.02.02-.02.04v3.51c0,.1-.04.14-.14.14h-.9c-.1,0-.14-.05-.14-.14,0,0,.01,0,.01,0Z"/>
      <path d="M20.58,83.94c-.33-.17-.59-.42-.77-.73-.18-.31-.27-.67-.27-1.08v-1.96c0-.41.09-.77.27-1.08.18-.31.44-.55.77-.72s.72-.25,1.16-.25.82.08,1.15.24c.33.16.59.39.77.69s.28.64.28,1.03c0,.05-.04.08-.14.09l-.91.06h-.03c-.08,0-.12-.01-.12-.04v-.05c0-.3-.09-.54-.28-.72-.18-.18-.43-.27-.73-.27s-.55.09-.74.27c-.18.18-.28.42-.28.72v2.05c0,.29.09.53.28.71.18.18.43.27.74.27s.54-.09.73-.27c.18-.18.28-.42.28-.71,0-.03.01-.05.04-.07s.06-.03.11-.02l.91.04c.1.01.14.03.14.04v.04c0,.39-.09.74-.28,1.04-.18.3-.44.53-.77.7s-.72.25-1.15.25-.83-.09-1.16-.26h0Z"/>
      <path d="M27.88,78.18h.91c.1,0,.14.05.14.14v5.66c0,.1-.05.14-.14.14h-.91c-.1,0-.14-.05-.14-.14v-2.29s-.02-.05-.05-.05h-1.86s-.05.02-.05.05v2.29c0,.1-.05.14-.14.14h-.91c-.1,0-.14-.05-.14-.14v-5.66c0-.1.05-.14.14-.14h.91c.1,0,.14.05.14.14v2.24s.02.05.05.05h1.86s.05-.02.05-.05v-2.24c0-.1.05-.14.14-.14Z"/>
      <path d="M33.65,79.21h-2.74s-.05.02-.05.05v1.3s.02.05.05.05h1.78c.1,0,.14.05.14.14v.74c0,.1-.05.14-.14.14h-1.78s-.05.02-.05.05v1.36s.02.05.05.05h2.74c.1,0,.14.05.14.14v.74c0,.1-.05.14-.14.14h-3.84c-.1,0-.14-.05-.14-.14v-5.66c0-.1.05-.14.14-.14h3.84c.1,0,.14.05.14.14v.74c0,.1-.05.14-.14.14v.02Z"/>
      <path d="M35.22,83.97c-.33-.15-.59-.35-.77-.62-.18-.27-.27-.58-.27-.94v-.14c0-.1.05-.14.14-.14h.89c.1,0,.14.04.14.11v.12c0,.23.1.42.31.57.21.16.48.23.81.23.3,0,.52-.06.67-.19.14-.13.22-.29.22-.47,0-.14-.05-.25-.14-.34s-.21-.18-.37-.25c-.15-.07-.4-.17-.74-.29-.39-.13-.71-.26-.97-.4s-.48-.32-.66-.56-.27-.53-.27-.87.09-.64.26-.89.42-.45.74-.59c.31-.14.67-.2,1.08-.2s.82.08,1.16.23.6.37.79.64c.19.27.28.59.28.96v.08c0,.1-.05.14-.14.14h-.89c-.1,0-.14-.03-.14-.08v-.08c0-.24-.1-.44-.29-.61-.2-.17-.46-.25-.8-.25-.27,0-.48.06-.63.17s-.22.27-.22.47c0,.14.04.26.13.36.08.1.21.18.39.26s.44.18.8.31c.4.15.71.28.94.39s.44.28.62.51.28.52.28.88-.09.65-.27.91-.43.46-.76.6-.71.21-1.15.21-.83-.07-1.17-.22v-.02Z"/>
    </g>
    <text id="INCHES" data-name="INCHES" class="cls-9" text-anchor="end" x="49%" y="36%"><tspan x="0" y="0"></tspan></text>
    <text id="MONTHS" class="cls-5" text-anchor="end"  x="49%" y="31%"><tspan x="0" y="0"></tspan></text>
    <text id="CM" data-name="CM" class="cls-9" text-anchor="end" x="91%" y="31%"><tspan x="0" y="0"></tspan></text>
    <text id="KG" class="cls-9" text-anchor="end" x="91%"  y="36%"><tspan x="0" y="0"></tspan></text>
  </g>
  <g id="QR">
    <path d="M90.97,10.22h.37c.12,0,.22-.06.29-.16.07-.1.11-.25.12-.42v-1.49c0-.18-.04-.32-.11-.43-.07-.1-.17-.16-.3-.16h-.37s-.02,0-.02.02v2.62s0,.02.02.02M90.66,10.46v-3.14s.01-.05.04-.05h.64c.21,0,.38.08.51.23.13.16.19.36.19.62v1.51c0,.26-.06.47-.19.63-.13.16-.3.23-.51.23h-.64s-.04-.02-.04-.05"/>
    <path d="M92.47,10.46v-3.14s.01-.05.04-.05h.21s.04.02.04.05v3.14s-.01.05-.04.05h-.21s-.04-.02-.04-.05"/>
    <path d="M94.51,7.56h-.96s-.02,0-.02.02v1.15s0,.02.02.02h.6s.04.02.04.05v.2s-.02.05-.04.05h-.6s-.02,0-.02.02v1.41s-.01.05-.04.05h-.21s-.04-.02-.04-.05v-3.14s.01-.05.04-.05h1.23s.04.02.04.05v.19s-.01.05-.04.05"/>
    <path d="M96.07,7.56h-.96s-.02,0-.02.02v1.15s0,.02.02.02h.6s.04.02.04.05v.2s-.01.05-.04.05h-.6s-.02,0-.02.02v1.41s-.01.05-.04.05h-.21s-.04-.02-.04-.05v-3.14s.01-.05.04-.05h1.23s.04.02.04.05v.19s-.01.05-.04.05"/>
    <path d="M97.63,7.56h-.96s-.02,0-.02.02v1.15s0,.02.02.02h.61s.04.02.04.05v.2s-.01.05-.04.05h-.61s-.02,0-.02.02v1.15s0,.02.02.02h.96s.04.02.04.05v.19s-.01.05-.04.05h-1.23s-.04-.02-.04-.05v-3.14s.01-.05.04-.05h1.23s.04.02.04.05v.19s-.01.05-.04.05"/>
    <path d="M98.32,7.58v1.16s0,.02.02.02h.37c.13,0,.23-.05.31-.16.08-.11.12-.25.12-.43s-.04-.33-.12-.44-.18-.16-.31-.16h-.37s-.02,0-.02.02M99.13,10.47l-.43-1.44s0-.01-.02-.01h-.36s-.02,0-.02.02v1.42s-.01.05-.04.05h-.21s-.04-.02-.04-.05v-3.15s.01-.05.04-.05h.69c.2,0,.36.08.49.25.12.16.19.38.19.64,0,.2-.04.38-.12.52-.08.15-.18.24-.32.3-.01,0-.02.01-.01.02l.45,1.45v.02s0,.03-.03.03h-.22s-.04-.01-.05-.04"/>
    <path d="M101.02,7.56h-.96s-.02,0-.02.02v1.15s0,.02.02.02h.61s.04.02.04.05v.2s-.01.05-.04.05h-.61s-.02,0-.02.02v1.15s0,.02.02.02h.96s.04.02.04.05v.19s-.01.05-.04.05h-1.23s-.04-.02-.04-.05v-3.14s.01-.05.04-.05h1.23s.04.02.04.05v.19s-.01.05-.04.05"/>
    <path d="M101.4,10.46v-3.14s.01-.05.04-.05h.22s.04.01.05.04l.84,2.33s0,.01.01.01,0,0,0-.01v-2.32s.01-.05.04-.05h.21s.04.02.04.05v3.14s-.01.05-.04.05h-.22s-.04-.01-.05-.04l-.83-2.33s0-.01-.01-.01v2.33s-.01.05-.04.05h-.21s-.04-.02-.04-.05"/>
    <path d="M103.17,10.46v-.21s0-.03.01-.06l1.01-2.61v-.02h-.98s-.04-.02-.04-.05v-.19s.01-.05.04-.05h1.26s.04.02.04.05v.21s0,.03-.01.06l-1,2.61v.02h.97s.04.02.04.05v.19s-.01.05-.04.05h-1.26s-.04-.02-.04-.05"/>
    <path d="M104.85,10.46v-3.14s.01-.05.04-.05h.21s.04.02.04.05v3.14s-.01.05-.04.05h-.21s-.04-.02-.04-.05"/>
    <path d="M105.94,9.61h.65s.01,0,.01-.02l-.33-1.78h0s0-.01,0,0l-.33,1.78s0,.02.01.02M106.77,10.47l-.1-.57h0s0-.01-.01-.01h-.76l-.11.58s-.02.04-.04.04h-.21s-.02,0-.03-.01v-.04l.63-3.14s.02-.04.05-.04h.25s.04.01.05.04l.63,3.14h0s-.01.05-.04.05h-.22s-.04-.01-.05-.04"/>
    <path d="M108.1,10.46v-3.14s.01-.05.04-.05h.21s.04.02.04.05v3.14s-.01.05-.04.05h-.21s-.04-.02-.04-.05"/>
    <path d="M109.88,7.58v1.16s0,.02.02.02h.37c.13,0,.23-.05.31-.16.08-.11.12-.25.12-.43s-.04-.33-.12-.44-.18-.16-.31-.16h-.37s-.02,0-.02.02M110.7,10.47l-.43-1.44s0-.01-.02-.01h-.36s-.02,0-.02.02v1.42s-.01.05-.04.05h-.21s-.04-.02-.04-.05v-3.15s.01-.05.04-.05h.69c.2,0,.37.08.49.25.12.16.19.38.19.64,0,.2-.04.38-.12.52-.08.15-.18.24-.32.3-.01,0-.01.01-.01.02l.45,1.45v.02s0,.03-.03.03h-.22s-.04-.01-.05-.04"/>
    <path d="M111.31,10.46v-3.14s.01-.05.04-.05h.21s.04.02.04.05v3.14s-.01.05-.04.05h-.21s-.04-.02-.04-.05"/>
    <path d="M113.35,7.56h-.96s-.02,0-.02.02v1.15s0,.02.02.02h.6s.04.02.04.05v.2s-.01.05-.04.05h-.6s-.02,0-.02.02v1.41s-.01.05-.04.05h-.21s-.04-.02-.04-.05v-3.14s.01-.05.04-.05h1.23s.04.02.04.05v.19s-.01.05-.04.05"/>
    <path d="M113.64,10.46v-3.14s.01-.05.04-.05h.21s.04.02.04.05v3.14s-.01.05-.04.05h-.21s-.04-.02-.04-.05"/>
    <path d="M114.58,10.3c-.13-.16-.2-.38-.2-.65v-2.33s.01-.05.04-.05h.21s.04.02.04.05v2.37c0,.17.04.31.12.41.07.1.18.16.3.16s.23-.05.31-.16c.08-.1.12-.24.12-.41v-2.37s.01-.05.04-.05h.21s.04.02.04.05v2.33c0,.27-.06.48-.2.65-.13.16-.31.25-.52.25s-.39-.08-.52-.25"/>
    <path d="M117.59,7.32v.19s-.01.05-.04.05h-.55s-.02,0-.02.02v2.88s-.01.05-.04.05h-.21s-.04-.01-.04-.05v-2.88s0-.02-.02-.02h-.51s-.04-.02-.04-.05v-.19s.01-.05.04-.05h1.39s.04.02.04.05"/>
    <path d="M117.91,10.46v-3.14s.01-.05.04-.05h.21s.04.02.04.05v3.14s-.01.05-.04.05h-.21s-.04-.02-.04-.05"/>
    <path d="M90.45,45.93c-.13-.15-.19-.35-.19-.59v-.11s.01-.05.04-.05h.21s.04.02.04.05v.1c0,.16.04.3.11.4.07.1.17.15.29.15s.21-.05.29-.14.12-.22.12-.38c0-.1-.02-.19-.06-.27-.04-.07-.08-.14-.15-.2-.06-.06-.16-.14-.3-.26-.14-.11-.25-.21-.33-.29s-.15-.18-.2-.29c-.05-.11-.08-.25-.08-.4,0-.24.06-.43.19-.57.12-.14.29-.21.49-.21.21,0,.38.08.51.23.12.15.19.36.19.61v.12s-.01.05-.04.05h-.21s-.04-.02-.04-.05v-.12c0-.16-.04-.3-.11-.4-.07-.1-.17-.15-.29-.15-.11,0-.2.04-.27.13s-.11.21-.11.37c0,.1.01.18.05.25.03.07.08.14.14.21.06.06.16.15.28.25.17.14.29.25.37.33s.15.18.19.28.07.22.07.36c0,.25-.07.45-.2.61-.13.15-.3.23-.5.23s-.37-.07-.5-.23"/>
    <path d="M93.24,43.17h-.96s-.02,0-.02.02v1.15s0,.02.02.02h.61s.04.02.04.05v.2s-.01.05-.04.05h-.61s-.02,0-.02.02v1.15s0,.02.02.02h.96s.04.02.04.05v.19s-.01.05-.04.05h-1.23s-.04-.02-.04-.05v-3.14s.01-.05.04-.05h1.23s.04.02.04.05v.19s-.01.05-.04.05"/>
    <path d="M94.62,44.23c.08-.11.12-.26.12-.44s-.04-.33-.12-.45c-.08-.11-.18-.17-.3-.17h-.38s-.02,0-.02.02v1.19s0,.02.02.02h.38c.12,0,.23-.06.3-.17M94.84,43.13c.12.16.19.38.19.65s-.06.48-.18.64-.28.24-.48.24h-.43s-.02,0-.02.02v1.4s-.01.05-.04.05h-.21s-.04-.02-.04-.05v-3.15s.01-.05.04-.05h.69c.2,0,.37.08.49.25"/>
    <path d="M95.55,45.22h.65s.01,0,.01-.02l-.33-1.78h0l-.33,1.78s0,.02.01.02M96.38,46.08l-.1-.57h-.77l-.11.58s-.02.04-.04.04h-.24v-.04l.63-3.14s.02-.04.05-.04h.25s.04,0,.05.04l.63,3.14h0s-.01.05-.04.05h-.22s-.04,0-.05-.04"/>
    <path d="M97.3,43.19v1.16s0,.02.02.02h.37c.13,0,.23-.05.31-.16s.12-.25.12-.43-.04-.33-.12-.44c-.08-.11-.18-.16-.31-.16h-.37s-.02,0-.02.02M98.12,46.08l-.43-1.44h-.38s-.02,0-.02.02v1.42s-.01.05-.04.05h-.21s-.04-.02-.04-.05v-3.15s.01-.05.04-.05h.69c.2,0,.36.08.49.24s.19.38.19.64c0,.2-.04.38-.12.52-.08.15-.18.24-.32.3-.01,0-.02,0-.01.02l.45,1.45v.02s0,.03-.03.03h-.22s-.04,0-.05-.04"/>
    <path d="M99.09,45.22h.65s.01,0,.01-.02l-.33-1.78h0l-.33,1.78s0,.02.01.02M99.92,46.08l-.1-.57h-.77l-.11.58s-.02.04-.04.04h-.24v-.04l.63-3.14s.02-.04.05-.04h.25s.04,0,.05.04l.63,3.14h0s-.01.05-.04.05h-.22s-.04,0-.05-.04"/>
    <path d="M101.61,42.93v.19s-.01.05-.04.05h-.55s-.02,0-.02.02v2.88s-.01.05-.04.05h-.21s-.04-.02-.04-.05v-2.88s0-.02-.02-.02h-.51s-.04-.02-.04-.05v-.19s.01-.05.04-.05h1.39s.04.02.04.05"/>
    <path d="M103.2,43.17h-.96s-.02,0-.02.02v1.15s0,.02.02.02h.61s.04.02.04.05v.2s-.01.05-.04.05h-.61s-.02,0-.02.02v1.15s0,.02.02.02h.96s.04.02.04.05v.19s-.01.05-.04.05h-1.23s-.04-.02-.04-.05v-3.14s.01-.05.04-.05h1.23s.04.02.04.05v.19s-.01.05-.04.05"/>
    <path d="M105.62,42.93v.19s-.01.05-.04.05h-.55s-.02,0-.02.02v2.88s-.01.05-.04.05h-.21s-.04-.02-.04-.05v-2.88s0-.02-.02-.02h-.51s-.04-.02-.04-.05v-.19s.01-.05.04-.05h1.39s.04.02.04.05"/>
    <path d="M107.05,42.89h.21s.04.02.04.05v3.14s-.01.05-.04.05h-.21s-.04-.02-.04-.05v-1.41s0-.02-.02-.02h-.74s-.02,0-.02.02v1.41s-.01.05-.04.05h-.21s-.04-.02-.04-.05v-3.14s.01-.05.04-.05h.21s.04.02.04.05v1.4s0,.02.02.02h.74s.02,0,.02-.02v-1.4s.01-.05.04-.05"/>
    <path d="M109.02,43.17h-.96s-.02,0-.02.02v1.15s0,.02.02.02h.61s.04.02.04.05v.2s-.01.05-.04.05h-.61s-.02,0-.02.02v1.15s0,.02.02.02h.96s.04.02.04.05v.19s-.01.05-.04.05h-1.23s-.04-.02-.04-.05v-3.14s.01-.05.04-.05h1.23s.04.02.04.05v.19s-.01.05-.04.05"/>
    <path d="M110.49,46.08l-.55-3.14h0s.01-.05.04-.05h.22s.04,0,.04.04l.39,2.43h0l.34-2.43s.02-.04.04-.04h.19s.04,0,.04.04l.35,2.43h0l.36-2.43s.02-.04.04-.04h.25v.04l-.51,3.14s-.02.04-.05.04h-.2s-.04,0-.04-.04l-.35-2.44h-.01l-.34,2.44s-.02.04-.04.04h-.2s-.04,0-.05-.04"/>
    <path d="M112.69,45.22h.65s.01,0,.01-.02l-.33-1.78h0l-.33,1.78s0,.02.01.02M113.52,46.08l-.1-.57h-.77l-.11.58s-.02.04-.05.04h-.24v-.04l.63-3.14s.02-.04.05-.04h.25s.04,0,.04.04l.63,3.14h0s-.01.05-.04.05h-.21s-.04,0-.05-.04"/>
    <path d="M114.16,45.93c-.13-.15-.19-.35-.19-.59v-.11s.01-.05.04-.05h.21s.04.02.04.05v.1c0,.16.04.3.11.4.07.1.17.15.29.15s.21-.05.29-.14.12-.22.12-.38c0-.1-.02-.19-.06-.27-.04-.07-.09-.14-.15-.2-.06-.06-.16-.14-.3-.26-.14-.11-.25-.21-.33-.29s-.15-.18-.2-.29c-.05-.11-.08-.25-.08-.4,0-.24.06-.43.19-.57.12-.14.29-.21.49-.21.21,0,.38.08.51.23.13.15.19.36.19.61v.12s-.01.05-.04.05h-.21s-.04-.02-.04-.05v-.12c0-.16-.04-.3-.11-.4s-.17-.15-.29-.15c-.11,0-.2.04-.27.13s-.11.21-.11.37c0,.1.02.18.05.25.03.07.08.14.14.21.06.06.16.15.28.25.17.14.29.25.37.33s.14.18.19.28c.04.1.07.22.07.36,0,.25-.07.45-.19.61-.13.15-.3.23-.5.23s-.37-.07-.5-.23"/>
    <path d="M116.97,42.93v.19s-.01.05-.04.05h-.55s-.02,0-.02.02v2.88s-.01.05-.04.05h-.21s-.04-.02-.04-.05v-2.88s0-.02-.02-.02h-.51s-.04-.02-.04-.05v-.19s.01-.05.04-.05h1.39s.04.02.04.05"/>
    <path d="M118.56,43.17h-.96s-.02,0-.02.02v1.15s0,.02.02.02h.61s.04.02.04.05v.2s-.01.05-.04.05h-.61s-.02,0-.02.02v1.15s0,.02.02.02h.96s.04.02.04.05v.19s-.01.05-.04.05h-1.23s-.04-.02-.04-.05v-3.14s.01-.05.04-.05h1.23s.04.02.04.05v.19s-.01.05-.04.05"/>
    <path d="M90.26,13h.86v-.86h-.86v.86ZM91.97,12.14h-.86v.86h1.72v-.86h-.86ZM93.69,12.14h-.86v.86h1.72v-.86h-.86ZM95.41,12.14h-.86v.86h1.72v-.86h-.86Z"/>
    <rect x="97.13" y="12.14" width=".86" height=".86"/>
    <rect x="98.85" y="12.14" width=".86" height=".86"/>
    <rect x="100.56" y="12.14" width=".86" height=".86"/>
    <rect x="102.28" y="12.14" width=".86" height=".86"/>
    <path d="M104.86,13h.86v-.86h-.86v.86ZM105.72,13h.86v-.86h-.86v.86ZM106.58,13h.86v-.86h-.86v.86Z"/>
    <rect x="108.29" y="12.14" width=".86" height=".86"/>
    <polygon points="110.87 12.14 110.01 12.14 110.01 13 110.87 13 111.73 13 111.73 12.14 110.87 12.14"/>
    <path d="M117.74,13h.86v-.86h-.86v.86ZM116.88,13h.86v-.86h-.86v.86ZM116.03,13h.86v-.86h-.86v.86ZM115.17,13h.86v-.86h-.86v.86ZM114.31,13h.86v-.86h-.86v.86ZM113.45,13h.86v-.86h-.86v.86ZM112.59,13h.86v-.86h-.86v.86ZM90.26,13.86h.86v-.86h-.86v.86Z"/>
    <rect x="95.41" y="13" width=".86" height=".86"/>
    <rect x="97.13" y="13" width=".86" height=".86"/>
    <polygon points="99.7 13 98.85 13 98.85 13.86 99.71 13.86 100.56 13.86 100.56 13 99.7 13"/>
    <path d="M103.14,13.86h.86v-.86h-.86v.86ZM104.86,13h-.86v.86h1.72v-.86h-.86Z"/>
    <rect x="106.58" y="13" width=".86" height=".86"/>
    <rect x="110.87" y="13" width=".86" height=".86"/>
    <rect x="112.59" y="13" width=".86" height=".86"/>
    <path d="M117.74,13.86h.86v-.86h-.86v.86ZM90.26,14.72h.86v-.86h-.86v.86Z"/>
    <path d="M91.97,14.72h.86v-.86h-.86v.86ZM93.69,13.86h-.86v.86h1.72v-.86h-.86Z"/>
    <rect x="95.41" y="13.86" width=".86" height=".86"/>
    <rect x="97.13" y="13.86" width=".86" height=".86"/>
    <rect x="98.85" y="13.86" width=".86" height=".86"/>
    <path d="M101.42,13.86h-.86v.86h1.72v-.86h-.86ZM102.28,14.72h.86v-.86h-.86v.86Z"/>
    <rect x="104.86" y="13.86" width=".86" height=".86"/>
    <path d="M107.44,14.72h.86v-.86h-.86v.86ZM109.15,13.86h-.86v.86h1.72v-.86h-.86ZM110.87,13.86h-.86v.86h1.72v-.86h-.86Z"/>
    <rect x="112.59" y="13.86" width=".86" height=".86"/>
    <path d="M115.17,13.86h-.86v.86h1.72v-.86h-.86ZM116.03,14.72h.86v-.86h-.86v.86Z"/>
    <path d="M117.74,14.72h.86v-.86h-.86v.86ZM90.26,15.58h.86v-.86h-.86v.86Z"/>
    <path d="M91.97,15.58h.86v-.86h-.86v.86ZM93.69,14.72h-.86v.86h1.72v-.86h-.86Z"/>
    <rect x="95.41" y="14.72" width=".86" height=".86"/>
    <rect x="97.99" y="14.72" width=".86" height=".86"/>
    <path d="M101.42,14.72h-.86v.86h1.72v-.86h-.86ZM102.28,15.58h.86v-.86h-.86v.86Z"/>
    <rect x="104" y="14.72" width=".86" height=".86"/>
    <path d="M105.72,15.58h.86v-.86h-.86v.86ZM106.58,15.58h.86v-.86h-.86v.86Z"/>
    <path d="M109.15,15.58h.86v-.86h-.86v.86ZM110.87,14.72h-.86v.86h1.72v-.86h-.86Z"/>
    <rect x="112.59" y="14.72" width=".86" height=".86"/>
    <path d="M115.17,14.72h-.86v.86h1.72v-.86h-.86ZM116.03,15.58h.86v-.86h-.86v.86Z"/>
    <path d="M117.74,15.58h.86v-.86h-.86v.86ZM90.26,16.44h.86v-.86h-.86v.86Z"/>
    <path d="M91.97,16.44h.86v-.86h-.86v.86ZM93.69,15.58h-.86v.86h1.72v-.86h-.86Z"/>
    <rect x="95.41" y="15.58" width=".86" height=".86"/>
    <rect x="97.99" y="15.58" width=".86" height=".86"/>
    <rect x="99.7" y="15.58" width=".86" height=".86"/>
    <path d="M103.14,15.58h-.86v.86h1.72v-.86h-.86ZM104.86,15.58h-.86v.86h1.72v-.86h-.86Z"/>
    <rect x="107.44" y="15.58" width=".86" height=".86"/>
    <path d="M109.15,16.44h.86v-.86h-.86v.86ZM110.01,16.44h.86v-.86h-.86v.86Z"/>
    <rect x="112.59" y="15.58" width=".86" height=".86"/>
    <path d="M115.17,15.58h-.86v.86h1.72v-.86h-.86ZM116.03,16.44h.86v-.86h-.86v.86Z"/>
    <path d="M117.74,16.44h.86v-.86h-.86v.86ZM90.26,17.3h.86v-.86h-.86v.86Z"/>
    <rect x="95.41" y="16.44" width=".86" height=".86"/>
    <rect x="97.13" y="16.44" width=".86" height=".86"/>
    <rect x="101.42" y="16.44" width=".86" height=".86"/>
    <path d="M105.72,17.3h.86v-.86h-.86v.86ZM107.44,16.44h-.86v.86h1.72v-.86h-.86Z"/>
    <rect x="109.15" y="16.44" width=".86" height=".86"/>
    <rect x="110.87" y="16.44" width=".86" height=".86"/>
    <rect x="112.59" y="16.44" width=".86" height=".86"/>
    <path d="M117.74,17.3h.86v-.86h-.86v.86ZM95.41,18.16h.86v-.86h-.86v.86ZM94.55,18.16h.86v-.86h-.86v.86ZM93.69,18.16h.86v-.86h-.86v.86ZM92.83,18.16h.86v-.86h-.86v.86ZM91.97,18.16h.86v-.86h-.86v.86ZM91.12,18.16h.86v-.86h-.86v.86ZM90.26,18.16h.86v-.86h-.86v.86Z"/>
    <rect x="97.13" y="17.3" width=".86" height=".86"/>
    <rect x="98.85" y="17.3" width=".86" height=".86"/>
    <rect x="100.56" y="17.3" width=".86" height=".86"/>
    <rect x="102.28" y="17.3" width=".86" height=".86"/>
    <rect x="104" y="17.3" width=".86" height=".86"/>
    <rect x="105.72" y="17.3" width=".86" height=".86"/>
    <rect x="107.44" y="17.3" width=".86" height=".86"/>
    <rect x="109.15" y="17.3" width=".86" height=".86"/>
    <rect x="110.87" y="17.3" width=".86" height=".86"/>
    <path d="M113.45,17.3h-.86v.86h1.72v-.86h-.86ZM115.17,17.3h-.86v.86h1.72v-.86h-.86ZM116.88,17.3h-.86v.86h1.72v-.86h-.86ZM117.74,18.16h.86v-.86h-.86v.86Z"/>
    <rect x="97.13" y="18.15" width=".86" height=".86"/>
    <polygon points="99.7 18.15 98.85 18.15 98.85 19.01 99.71 19.01 100.56 19.01 100.56 18.15 99.7 18.15"/>
    <path d="M101.42,19.01h.86v-.86h-.86v.86ZM103.14,18.15h-.86v.86h1.72v-.86h-.86Z"/>
    <path d="M107.44,19.01h.86v-.86h-.86v.86ZM109.15,18.16h-.86v.86h1.72v-.86h-.86ZM110.01,19.01h.86v-.86h-.86v.86Z"/>
    <path d="M91.97,19.87h.86v-.86h-.86v.86ZM93.69,19.01h-.86v.86h1.72v-.86h-.86Z"/>
    <rect x="95.41" y="19.01" width=".86" height=".86"/>
    <path d="M97.13,19.87h.86v-.86h-.86v.86ZM97.99,19.87h.86v-.86h-.86v.86Z"/>
    <rect x="99.7" y="19.01" width=".86" height=".86"/>
    <path d="M103.14,19.01h-.86v.86h1.72v-.86h-.86ZM104.86,19.01h-.86v.86h1.72v-.86h-.86Z"/>
    <rect x="107.44" y="19.01" width=".86" height=".86"/>
    <path d="M109.15,19.87h.86v-.86h-.86v.86ZM110.87,19.01h-.86v.86h1.72v-.86h-.86ZM112.59,19.01h-.86v.86h1.72v-.86h-.86ZM113.45,19.87h.86v-.86h-.86v.86Z"/>
    <path d="M117.74,19.87h.86v-.86h-.86v.86ZM116.88,19.87h.86v-.86h-.86v.86ZM116.03,19.87h.86v-.86h-.86v.86ZM91.12,20.73h.86v-.86h-.86v.86ZM90.26,20.73h.86v-.86h-.86v.86Z"/>
    <polygon points="93.69 19.87 92.83 19.87 92.83 20.73 93.69 20.73 94.55 20.73 94.55 19.87 93.69 19.87"/>
    <path d="M97.13,19.87h-.86v.86h1.72v-.86h-.86ZM97.99,20.73h.86v-.86h-.86v.86Z"/>
    <rect x="99.7" y="19.87" width=".86" height=".86"/>
    <rect x="102.28" y="19.87" width=".86" height=".86"/>
    <rect x="105.72" y="19.87" width=".86" height=".86"/>
    <path d="M108.3,20.73h.86v-.86h-.86v.86ZM109.15,20.73h.86v-.86h-.86v.86ZM110.01,20.73h.86v-.86h-.86v.86ZM110.87,20.73h.86v-.86h-.86v.86ZM112.59,19.87h-.86v.86h1.72v-.86h-.86Z"/>
    <rect x="115.17" y="19.87" width=".86" height=".86"/>
    <path d="M117.74,20.73h.86v-.86h-.86v.86ZM95.41,21.59h.86v-.86h-.86v.86ZM94.55,21.59h.86v-.86h-.86v.86ZM93.69,21.59h.86v-.86h-.86v.86ZM92.83,21.59h.86v-.86h-.86v.86ZM91.97,21.59h.86v-.86h-.86v.86ZM91.12,21.59h.86v-.86h-.86v.86ZM90.26,21.59h.86v-.86h-.86v.86Z"/>
    <polygon points="101.42 20.73 100.56 20.73 100.56 21.59 101.42 21.59 102.28 21.59 102.28 20.73 101.42 20.73"/>
    <path d="M104.86,20.73h-.86v.86h1.72v-.86h-.86ZM105.72,21.59h.86v-.86h-.86v.86ZM106.58,21.59h.86v-.86h-.86v.86Z"/>
    <rect x="109.15" y="20.73" width=".86" height=".86"/>
    <rect x="110.87" y="20.73" width=".86" height=".86"/>
    <polygon points="113.45 20.73 112.59 20.73 112.59 21.59 113.45 21.59 114.31 21.59 114.31 20.73 113.45 20.73"/>
    <rect x="115.17" y="20.73" width=".86" height=".86"/>
    <rect x="116.88" y="20.73" width=".86" height=".86"/>
    <rect x="91.12" y="21.59" width=".86" height=".86"/>
    <rect x="93.69" y="21.59" width=".86" height=".86"/>
    <rect x="96.27" y="21.59" width=".86" height=".86"/>
    <rect x="97.99" y="21.59" width=".86" height=".86"/>
    <rect x="100.56" y="21.59" width=".86" height=".86"/>
    <polygon points="104.86 21.59 104 21.59 104 22.45 104.86 22.45 105.72 22.45 105.72 21.59 104.86 21.59"/>
    <rect x="106.58" y="21.59" width=".86" height=".86"/>
    <polygon points="109.15 21.59 108.29 21.59 108.29 22.45 109.15 22.45 110.01 22.45 110.01 21.59 109.15 21.59"/>
    <rect x="111.73" y="21.59" width=".86" height=".86"/>
    <path d="M115.17,22.45h.86v-.86h-.86v.86ZM116.03,22.45h.86v-.86h-.86v.86Z"/>
    <rect x="117.74" y="21.59" width=".86" height=".86"/>
    <path d="M91.97,22.45h-.86v.86h1.72v-.86h-.86ZM92.83,23.31h.86v-.86h-.86v.86Z"/>
    <rect x="95.41" y="22.45" width=".86" height=".86"/>
    <rect x="97.99" y="22.45" width=".86" height=".86"/>
    <rect x="101.42" y="22.45" width=".86" height=".86"/>
    <path d="M104.86,22.45h-.86v.86h1.72v-.86h-.86ZM105.72,23.31h.86v-.86h-.86v.86Z"/>
    <path d="M107.44,23.31h.86v-.86h-.86v.86ZM108.29,23.31h.86v-.86h-.86v.86Z"/>
    <path d="M110.87,23.31h.86v-.86h-.86v.86ZM111.73,23.31h.86v-.86h-.86v.86Z"/>
    <path d="M113.45,23.31h.86v-.86h-.86v.86ZM115.17,22.45h-.86v.86h1.72v-.86h-.86Z"/>
    <rect x="90.26" y="23.31" width=".86" height=".86"/>
    <rect x="91.97" y="23.31" width=".86" height=".86"/>
    <rect x="94.55" y="23.31" width=".86" height=".86"/>
    <path d="M97.13,24.17h.86v-.86h-.86v.86ZM97.99,24.17h.86v-.86h-.86v.86ZM99.7,23.31h-.86v.86h1.72v-.86h-.86Z"/>
    <rect x="102.28" y="23.31" width=".86" height=".86"/>
    <rect x="107.44" y="23.31" width=".86" height=".86"/>
    <rect x="110.01" y="23.31" width=".86" height=".86"/>
    <polygon points="112.59 23.31 111.73 23.31 111.73 24.17 112.59 24.17 113.45 24.17 113.45 23.31 112.59 23.31"/>
    <rect x="116.03" y="23.31" width=".86" height=".86"/>
    <path d="M117.74,24.17h.86v-.86h-.86v.86ZM91.12,25.03h.86v-.86h-.86v.86ZM90.26,25.03h.86v-.86h-.86v.86Z"/>
    <rect x="92.83" y="24.17" width=".86" height=".86"/>
    <rect x="95.41" y="24.17" width=".86" height=".86"/>
    <rect x="97.99" y="24.17" width=".86" height=".86"/>
    <path d="M99.7,25.03h.86v-.86h-.86v.86ZM101.42,24.17h-.86v.86h1.72v-.86h-.86ZM102.28,25.03h.86v-.86h-.86v.86Z"/>
    <path d="M105.72,25.03h.86v-.86h-.86v.86ZM106.58,25.03h.86v-.86h-.86v.86Z"/>
    <rect x="109.15" y="24.17" width=".86" height=".86"/>
    <polygon points="112.59 24.17 111.73 24.17 111.73 25.03 112.59 25.03 113.45 25.03 113.45 24.17 112.59 24.17"/>
    <rect x="115.17" y="24.17" width=".86" height=".86"/>
    <rect x="116.88" y="24.17" width=".86" height=".86"/>
    <rect x="90.26" y="25.03" width=".86" height=".86"/>
    <rect x="91.97" y="25.03" width=".86" height=".86"/>
    <rect x="94.55" y="25.03" width=".86" height=".86"/>
    <path d="M97.99,25.89h.86v-.86h-.86v.86ZM99.7,25.03h-.86v.86h1.72v-.86h-.86ZM100.56,25.89h.86v-.86h-.86v.86Z"/>
    <polygon points="103.14 25.03 102.28 25.03 102.28 25.89 103.14 25.89 104 25.89 104 25.03 103.14 25.03"/>
    <path d="M104.86,25.89h.86v-.86h-.86v.86ZM105.72,25.89h.86v-.86h-.86v.86ZM106.58,25.89h.86v-.86h-.86v.86Z"/>
    <polygon points="109.15 25.03 108.29 25.03 108.29 25.89 109.15 25.89 110.01 25.89 110.01 25.03 109.15 25.03"/>
    <polygon points="113.45 25.03 112.59 25.03 112.59 25.89 113.45 25.89 114.31 25.89 114.31 25.03 113.45 25.03"/>
    <path d="M115.17,25.89h.86v-.86h-.86v.86ZM116.88,25.03h-.86v.86h1.72v-.86h-.86Z"/>
    <polygon points="93.69 25.89 92.83 25.89 92.83 26.74 93.69 26.74 94.55 26.74 94.55 25.89 93.69 25.89"/>
    <path d="M95.41,26.74h.86v-.86h-.86v.86ZM97.13,25.89h-.86v.86h1.72v-.86h-.86Z"/>
    <rect x="98.85" y="25.89" width=".86" height=".86"/>
    <path d="M101.42,26.74h.86v-.86h-.86v.86ZM102.28,26.74h.86v-.86h-.86v.86Z"/>
    <rect x="104" y="25.89" width=".86" height=".86"/>
    <rect x="105.72" y="25.89" width=".86" height=".86"/>
    <rect x="111.73" y="25.89" width=".86" height=".86"/>
    <path d="M113.45,26.74h.86v-.86h-.86v.86ZM114.31,26.74h.86v-.86h-.86v.86Z"/>
    <rect x="90.26" y="26.75" width=".86" height=".86"/>
    <path d="M91.97,27.6h.86v-.86h-.86v.86ZM92.83,27.6h.86v-.86h-.86v.86Z"/>
    <path d="M97.13,27.6h.86v-.86h-.86v.86ZM97.99,27.6h.86v-.86h-.86v.86Z"/>
    <rect x="102.28" y="26.75" width=".86" height=".86"/>
    <path d="M104.86,26.74h-.86v.86h1.72v-.86h-.86ZM105.72,27.6h.86v-.86h-.86v.86ZM106.58,27.6h.86v-.86h-.86v.86Z"/>
    <rect x="108.29" y="26.75" width=".86" height=".86"/>
    <polygon points="110.87 26.74 110.01 26.74 110.01 27.6 110.87 27.6 111.73 27.6 111.73 26.74 110.87 26.74"/>
    <polygon points="113.45 26.74 112.59 26.74 112.59 27.6 113.45 27.6 114.31 27.6 114.31 26.74 113.45 26.74"/>
    <rect x="117.74" y="26.75" width=".86" height=".86"/>
    <path d="M91.97,27.6h-.86v.86h1.72v-.86h-.86ZM93.69,27.6h-.86v.86h1.72v-.86h-.86Z"/>
    <path d="M95.41,28.46h.86v-.86h-.86v.86ZM97.13,27.6h-.86v.86h1.72v-.86h-.86Z"/>
    <rect x="98.85" y="27.6" width=".86" height=".86"/>
    <polygon points="101.42 27.6 100.56 27.6 100.56 28.46 101.42 28.46 102.28 28.46 102.28 27.6 101.42 27.6"/>
    <rect x="103.14" y="27.6" width=".86" height=".86"/>
    <rect x="105.72" y="27.6" width=".86" height=".86"/>
    <path d="M107.44,28.46h.86v-.86h-.86v.86ZM109.15,27.6h-.86v.86h1.72v-.86h-.86Z"/>
    <rect x="111.73" y="27.6" width=".86" height=".86"/>
    <rect x="114.31" y="27.6" width=".86" height=".86"/>
    <polygon points="116.88 27.6 116.02 27.6 116.02 28.46 116.88 28.46 117.74 28.46 117.74 27.6 116.88 27.6"/>
    <rect x="91.97" y="28.46" width=".86" height=".86"/>
    <rect x="93.69" y="28.46" width=".86" height=".86"/>
    <rect x="98.85" y="28.46" width=".86" height=".86"/>
    <polygon points="101.42 28.46 100.56 28.46 100.56 29.32 101.42 29.32 102.28 29.32 102.28 28.46 101.42 28.46"/>
    <path d="M104.86,29.32h.86v-.86h-.86v.86ZM105.72,29.32h.86v-.86h-.86v.86ZM107.44,28.46h-.86v.86h1.72v-.86h-.86ZM108.29,29.32h.86v-.86h-.86v.86Z"/>
    <path d="M110.87,28.46h-.86v.86h1.72v-.86h-.86ZM112.59,28.46h-.86v.86h1.72v-.86h-.86ZM113.45,29.32h.86v-.86h-.86v.86Z"/>
    <path d="M115.17,29.32h.86v-.86h-.86v.86ZM116.88,28.46h-.86v.86h1.72v-.86h-.86Z"/>
    <rect x="90.26" y="29.32" width=".86" height=".86"/>
    <path d="M93.69,30.18h.86v-.86h-.86v.86ZM95.41,29.32h-.86v.86h1.72v-.86h-.86Z"/>
    <path d="M97.13,30.18h.86v-.86h-.86v.86ZM97.99,30.18h.86v-.86h-.86v.86ZM99.7,29.32h-.86v.86h1.72v-.86h-.86Z"/>
    <path d="M103.14,29.32h-.86v.86h1.72v-.86h-.86ZM104,30.18h.86v-.86h-.86v.86Z"/>
    <rect x="106.58" y="29.32" width=".86" height=".86"/>
    <path d="M110.87,30.18h.86v-.86h-.86v.86ZM111.73,30.18h.86v-.86h-.86v.86Z"/>
    <path d="M113.45,30.18h.86v-.86h-.86v.86ZM115.17,29.32h-.86v.86h1.72v-.86h-.86Z"/>
    <path d="M90.26,31.04h.86v-.86h-.86v.86ZM91.12,31.04h.86v-.86h-.86v.86Z"/>
    <rect x="97.13" y="30.18" width=".86" height=".86"/>
    <path d="M99.7,30.18h-.86v.86h1.72v-.86h-.86ZM101.42,30.18h-.86v.86h1.72v-.86h-.86Z"/>
    <path d="M107.44,30.18h-.86v.86h1.72v-.86h-.86ZM108.29,31.04h.86v-.86h-.86v.86Z"/>
    <rect x="110.01" y="30.18" width=".86" height=".86"/>
    <rect x="112.59" y="30.18" width=".86" height=".86"/>
    <path d="M115.17,31.04h.86v-.86h-.86v.86ZM116.03,31.04h.86v-.86h-.86v.86Z"/>
    <path d="M117.74,31.04h.86v-.86h-.86v.86ZM90.26,31.9h.86v-.86h-.86v.86Z"/>
    <path d="M91.97,31.9h.86v-.86h-.86v.86ZM92.83,31.9h.86v-.86h-.86v.86Z"/>
    <polygon points="95.41 31.04 94.55 31.04 94.55 31.9 95.41 31.9 96.27 31.9 96.27 31.04 95.41 31.04"/>
    <rect x="99.7" y="31.04" width=".86" height=".86"/>
    <path d="M104.86,31.04h-.86v.86h1.72v-.86h-.86ZM105.72,31.9h.86v-.86h-.86v.86ZM106.58,31.9h.86v-.86h-.86v.86Z"/>
    <rect x="108.29" y="31.04" width=".86" height=".86"/>
    <rect x="113.45" y="31.04" width=".86" height=".86"/>
    <path d="M115.17,31.9h.86v-.86h-.86v.86ZM116.88,31.04h-.86v.86h1.72v-.86h-.86Z"/>
    <rect x="90.26" y="31.9" width=".86" height=".86"/>
    <rect x="93.69" y="31.9" width=".86" height=".86"/>
    <polygon points="97.13 31.9 96.27 31.9 96.27 32.76 97.13 32.76 97.99 32.76 97.99 31.9 97.13 31.9"/>
    <path d="M99.7,31.9h-.86v.86h1.72v-.86h-.86ZM101.42,31.9h-.86v.86h1.72v-.86h-.86ZM103.14,31.9h-.86v.86h1.72v-.86h-.86Z"/>
    <rect x="106.58" y="31.9" width=".86" height=".86"/>
    <rect x="108.29" y="31.9" width=".86" height=".86"/>
    <rect x="110.87" y="31.9" width=".86" height=".86"/>
    <path d="M115.17,32.76h.86v-.86h-.86v.86ZM116.03,32.76h.86v-.86h-.86v.86Z"/>
    <path d="M117.74,32.76h.86v-.86h-.86v.86ZM90.26,33.62h.86v-.86h-.86v.86Z"/>
    <rect x="92.83" y="32.76" width=".86" height=".86"/>
    <rect x="95.41" y="32.76" width=".86" height=".86"/>
    <rect x="97.13" y="32.76" width=".86" height=".86"/>
    <polygon points="99.7 32.76 98.85 32.76 98.85 33.62 99.71 33.62 100.56 33.62 100.56 32.76 99.7 32.76"/>
    <rect x="101.42" y="32.76" width=".86" height=".86"/>
    <path d="M103.14,33.62h.86v-.86h-.86v.86ZM104,33.62h.86v-.86h-.86v.86Z"/>
    <polygon points="107.44 32.76 106.58 32.76 106.58 33.62 107.44 33.62 108.29 33.62 108.29 32.76 107.44 32.76"/>
    <path d="M109.15,33.62h.86v-.86h-.86v.86ZM110.87,32.76h-.86v.86h1.72v-.86h-.86ZM112.59,32.76h-.86v.86h1.72v-.86h-.86ZM113.45,33.62h.86v-.86h-.86v.86ZM114.31,33.62h.86v-.86h-.86v.86Z"/>
    <path d="M116.88,33.62h.86v-.86h-.86v.86ZM117.74,33.62h.86v-.86h-.86v.86Z"/>
    <path d="M97.13,34.47h.86v-.86h-.86v.86ZM97.99,34.47h.86v-.86h-.86v.86ZM98.85,34.47h.86v-.86h-.86v.86Z"/>
    <rect x="100.56" y="33.62" width=".86" height=".86"/>
    <polygon points="103.14 33.62 102.28 33.62 102.28 34.48 103.14 34.48 104 34.48 104 33.62 103.14 33.62"/>
    <path d="M105.72,34.48h.86v-.86h-.86v.86ZM107.44,33.62h-.86v.86h1.72v-.86h-.86Z"/>
    <polygon points="110.87 33.62 110.01 33.62 110.01 34.48 110.87 34.48 111.73 34.48 111.73 33.62 110.87 33.62"/>
    <path d="M117.74,34.48h.86v-.86h-.86v.86ZM116.88,34.48h.86v-.86h-.86v.86ZM116.03,34.48h.86v-.86h-.86v.86ZM115.17,34.48h.86v-.86h-.86v.86ZM114.31,34.48h.86v-.86h-.86v.86ZM95.41,35.33h.86v-.86h-.86v.86ZM94.55,35.33h.86v-.86h-.86v.86ZM93.69,35.33h.86v-.86h-.86v.86ZM92.83,35.33h.86v-.86h-.86v.86ZM91.97,35.33h.86v-.86h-.86v.86ZM91.12,35.33h.86v-.86h-.86v.86ZM90.26,35.33h.86v-.86h-.86v.86Z"/>
    <path d="M101.42,35.33h.86v-.86h-.86v.86ZM103.14,34.48h-.86v.86h1.72v-.86h-.86Z"/>
    <rect x="104.86" y="34.48" width=".86" height=".86"/>
    <path d="M109.15,35.33h.86v-.86h-.86v.86ZM110.87,34.48h-.86v.86h1.72v-.86h-.86Z"/>
    <rect x="112.59" y="34.48" width=".86" height=".86"/>
    <rect x="114.31" y="34.48" width=".86" height=".86"/>
    <rect x="116.88" y="34.48" width=".86" height=".86"/>
    <rect x="90.26" y="35.33" width=".86" height=".86"/>
    <rect x="95.41" y="35.33" width=".86" height=".86"/>
    <rect x="98.85" y="35.33" width=".86" height=".86"/>
    <polygon points="101.42 35.33 100.56 35.33 100.56 36.19 101.42 36.19 102.28 36.19 102.28 35.33 101.42 35.33"/>
    <path d="M103.14,36.19h.86v-.86h-.86v.86ZM104.86,35.33h-.86v.86h1.72v-.86h-.86Z"/>
    <rect x="106.58" y="35.33" width=".86" height=".86"/>
    <polygon points="110.87 35.33 110.01 35.33 110.01 36.19 110.87 36.19 111.73 36.19 111.73 35.33 110.87 35.33"/>
    <path d="M117.74,36.19h.86v-.86h-.86v.86ZM116.88,36.19h.86v-.86h-.86v.86ZM116.03,36.19h.86v-.86h-.86v.86ZM115.17,36.19h.86v-.86h-.86v.86ZM114.31,36.19h.86v-.86h-.86v.86ZM90.26,37.05h.86v-.86h-.86v.86Z"/>
    <path d="M91.97,37.05h.86v-.86h-.86v.86ZM93.69,36.19h-.86v.86h1.72v-.86h-.86Z"/>
    <rect x="95.41" y="36.19" width=".86" height=".86"/>
    <path d="M97.13,37.05h.86v-.86h-.86v.86ZM97.99,37.05h.86v-.86h-.86v.86ZM99.7,36.19h-.86v.86h1.72v-.86h-.86ZM101.42,36.19h-.86v.86h1.72v-.86h-.86Z"/>
    <rect x="104" y="36.19" width=".86" height=".86"/>
    <path d="M105.72,37.05h.86v-.86h-.86v.86ZM106.58,37.05h.86v-.86h-.86v.86Z"/>
    <polygon points="109.15 36.19 108.29 36.19 108.29 37.05 109.15 37.05 110.01 37.05 110.01 36.19 109.15 36.19"/>
    <path d="M110.87,37.05h.86v-.86h-.86v.86ZM112.59,36.19h-.86v.86h1.72v-.86h-.86ZM113.45,37.05h.86v-.86h-.86v.86ZM115.17,36.19h-.86v.86h1.72v-.86h-.86Z"/>
    <path d="M117.74,37.05h.86v-.86h-.86v.86ZM116.88,37.05h.86v-.86h-.86v.86ZM90.26,37.91h.86v-.86h-.86v.86Z"/>
    <path d="M91.97,37.91h.86v-.86h-.86v.86ZM93.69,37.05h-.86v.86h1.72v-.86h-.86Z"/>
    <rect x="95.41" y="37.05" width=".86" height=".86"/>
    <path d="M97.13,37.91h.86v-.86h-.86v.86ZM97.99,37.91h.86v-.86h-.86v.86Z"/>
    <rect x="100.56" y="37.05" width=".86" height=".86"/>
    <rect x="102.28" y="37.05" width=".86" height=".86"/>
    <rect x="105.72" y="37.05" width=".86" height=".86"/>
    <path d="M107.44,37.91h.86v-.86h-.86v.86ZM108.29,37.91h.86v-.86h-.86v.86Z"/>
    <path d="M110.87,37.05h-.86v.86h1.72v-.86h-.86ZM111.73,37.91h.86v-.86h-.86v.86Z"/>
    <rect x="114.31" y="37.05" width=".86" height=".86"/>
    <path d="M117.74,37.91h.86v-.86h-.86v.86ZM90.26,38.77h.86v-.86h-.86v.86Z"/>
    <path d="M91.97,38.77h.86v-.86h-.86v.86ZM93.69,37.91h-.86v.86h1.72v-.86h-.86Z"/>
    <rect x="95.41" y="37.91" width=".86" height=".86"/>
    <path d="M97.13,38.77h.86v-.86h-.86v.86ZM97.99,38.77h.86v-.86h-.86v.86ZM98.85,38.77h.86v-.86h-.86v.86Z"/>
    <rect x="100.56" y="37.91" width=".86" height=".86"/>
    <path d="M103.14,37.91h-.86v.86h1.72v-.86h-.86ZM104,38.77h.86v-.86h-.86v.86Z"/>
    <rect x="105.72" y="37.91" width=".86" height=".86"/>
    <path d="M107.44,38.77h.86v-.86h-.86v.86ZM109.15,37.91h-.86v.86h1.72v-.86h-.86Z"/>
    <polygon points="112.59 37.91 111.73 37.91 111.73 38.77 112.59 38.77 113.45 38.77 113.45 37.91 112.59 37.91"/>
    <rect x="115.17" y="37.91" width=".86" height=".86"/>
    <rect x="90.26" y="38.77" width=".86" height=".86"/>
    <rect x="95.41" y="38.77" width=".86" height=".86"/>
    <path d="M97.99,39.63h.86v-.86h-.86v.86ZM98.85,39.63h.86v-.86h-.86v.86Z"/>
    <path d="M101.42,39.63h.86v-.86h-.86v.86ZM103.14,38.77h-.86v.86h1.72v-.86h-.86Z"/>
    <path d="M104.86,39.63h.86v-.86h-.86v.86ZM105.72,39.63h.86v-.86h-.86v.86Z"/>
    <rect x="107.44" y="38.77" width=".86" height=".86"/>
    <rect x="113.45" y="38.77" width=".86" height=".86"/>
    <path d="M115.17,39.63h.86v-.86h-.86v.86ZM116.03,39.63h.86v-.86h-.86v.86Z"/>
    <path d="M90.26,40.49h.86v-.86h-.86v.86ZM91.97,39.63h-.86v.86h1.72v-.86h-.86ZM93.69,39.63h-.86v.86h1.72v-.86h-.86ZM95.41,39.63h-.86v.86h1.72v-.86h-.86Z"/>
    <rect x="97.99" y="39.63" width=".86" height=".86"/>
    <rect x="99.7" y="39.63" width=".86" height=".86"/>
    <rect x="102.28" y="39.63" width=".86" height=".86"/>
    <rect x="104.86" y="39.63" width=".86" height=".86"/>
    <polygon points="107.44 39.63 106.58 39.63 106.58 40.49 107.44 40.49 108.29 40.49 108.29 39.63 107.44 39.63"/>
    <polygon points="110.87 39.63 110.01 39.63 110.01 40.49 110.87 40.49 111.73 40.49 111.73 39.63 110.87 39.63"/>
    <rect x="112.59" y="39.63" width=".86" height=".86"/>
    <rect x="116.88" y="39.63" width=".86" height=".86"/>
  </g>
  <g id="FSC">
    <path d="M36.5,42.49H13.86c-.77,0-1.4-.63-1.4-1.4V8.67c0-.77.63-1.4,1.4-1.4h22.64c.77,0,1.4.63,1.4,1.4v32.42c0,.77-.63,1.4-1.4,1.4M13.86,7.52c-.63,0-1.15.51-1.15,1.15v32.42c0,.63.51,1.15,1.15,1.15h22.64c.63,0,1.14-.52,1.14-1.15V8.67c0-.63-.51-1.15-1.14-1.15H13.86Z"/>
    <path d="M30.42,9.6c.22,0,.4.08.56.23s.23.34.23.56-.08.4-.23.56c-.15.16-.34.23-.56.23s-.4-.08-.56-.23c-.15-.15-.23-.34-.23-.56s.08-.4.23-.56c.15-.16.34-.23.56-.23M30.42,11.05c.18,0,.34-.06.46-.19.13-.13.19-.28.2-.47,0-.18-.06-.34-.19-.46-.13-.13-.28-.19-.47-.19-.18,0-.34.06-.46.19-.13.13-.19.28-.19.47,0,.18.06.34.19.47.13.13.28.19.47.2M30.79,10.83h-.17c-.11-.19-.17-.3-.21-.33l-.12-.04h-.08v.36h-.14v-.85h.29l.2.02.11.08.04.13-.06.16-.18.08s.12.08.2.21l.1.17h.02,0ZM30.21,10.35h.17l.16-.03.04-.09-.04-.09-.17-.03h-.16v.26-.02Z"/>
    <path d="M25.52,9.41c-3.3,0-4.46,5.13-5.55,9.26-.39-.4-1.6-1.6-1.6-1.6-.24-.24-.52-.16-.69,0-.17.17-.2.49,0,.68,0,0,1.63,1.63,2.2,2.19.16.15.38.24.6.11.23-.14.26-.4.27-.4,1.93-8.64,3.64-9.28,4.76-9.28.94,0,2.02.69,2.02,2.09,1.4,0,2.28,1.84,1.15,2.98.94.45,1.35,1.01,1.35,1.71s-.59,1.43-1.45,1.42c-.85,0-1.29-.55-1.95-.55-.3,0-.49.24-.49.48v1.74h-1.26v-1.74c0-.27-.2-.49-.45-.49h-.11l-1.68.21c-.2.03-.39.25-.39.48,0,.27.22.49.52.49h.08l1.07-.14v1.72c0,.22.25.43.47.43h2.24c.26,0,.49-.22.49-.49v-1.57c.47.29,1.12.4,1.45.4,1.25,0,2.45-.99,2.44-2.43,0-1.31-1.01-1.97-1.01-1.97.59-1.57-.36-3.08-1.59-3.5-.45-1.62-1.83-2.24-2.89-2.24"/>
    <path d="M24.11,23.15c0,.41.45.65,1.2,1,.59.28.93.57.93.81,0,.38-.41.52-.79.52-.59,0-.94-.24-1.14-.77v-.05h-.06c-.11,0-.19,0-.24.06v.19l.12.54c.03.13.08.16.29.2.09.02.57.1.98.1,1.13,0,1.64-.46,1.64-.92,0-.33-.33-.65-1.04-1.01l-.32-.16c-.49-.23-.78-.37-.78-.61s.3-.4.74-.4c.57,0,.72.32.79.59v.05h.07c.13,0,.2-.01.25-.06l.03-.12-.04-.47c-.01-.15-.13-.17-.29-.2-.19-.04-.42-.08-.76-.08-.98,0-1.57.29-1.57.77"/>
    <path d="M27.37,24.1c0,.82.71,1.65,2.07,1.65.69,0,1.07-.16,1.36-.31l.08-.04-.13-.14-.1-.05-.07.02c-.1.05-.42.19-.99.19-.7,0-1.46-.46-1.46-1.47s.82-1.31,1.53-1.31c.51,0,.77.18.82.56v.06h.06c.06,0,.22,0,.22-.12v-.56c0-.14-.16-.16-.22-.17h-.07c-.16-.02-.32-.04-.73-.04-1.37,0-2.38.72-2.38,1.72"/>
    <path d="M22.24,22.41h-2.17l-.12.13s0,.14.14.14c.49,0,.51.04.52.23v1.71c0,.18,0,.47-.02.7,0,.07,0,.13-.44.13-.12,0-.19.02-.19.15,0,.03,0,.13.12.13h1.85c.1,0,.18-.01.18-.13,0-.14-.11-.15-.29-.15-.44,0-.44-.06-.45-.13,0-.21-.02-.5-.02-.7v-.39h.37c.56,0,.63.01.71.45.02.09.1.11.16.11.13,0,.15-.07.15-.1v-.16c-.01-.09-.03-.21-.03-.37v-.67c0-.1-.12-.1-.18-.1-.11,0-.13.07-.2.38-.03.12-.26.19-.64.19h-.33v-.98c0-.27.05-.27.1-.27.22,0,.74-.03.89-.03s.28.03.37.09c.28.17.42.29.51.36l.2.11s.16,0,.16-.1l-.05-.13c-.05-.1-.12-.27-.22-.52-.03-.08-.12-.08-.29-.08h-.79Z"/>
    <path d="M24.69,31.26h-.26v-1.71l-.59,1.71h-.24l-.59-1.74h-.01v1.74h-.26v-2.05h.4l.48,1.45c.06.16.08.26.09.3.02-.08.06-.19.11-.33l.49-1.42h.36v2.05h.02Z"/>
    <rect x="25.28" y="29.22" width=".27" height="2.05"/>
    <path d="M27.81,31.26h-.33l-.41-.58c-.1-.14-.16-.24-.19-.29,0,.02-.21.31-.62.87h-.33l.79-1.07-.7-.98h.32l.43.61.1.17c.04-.06.23-.32.57-.78h.3l-.72.96.78,1.08h.01Z"/>
    <path d="M20.25,39.88c-.08.07-.18.11-.29.11-.15,0-.28-.06-.37-.17s-.14-.31-.14-.58.05-.44.14-.55c.1-.11.22-.17.38-.17.11,0,.21.03.29.1.08.06.13.15.16.26l.42-.1c-.05-.17-.12-.3-.21-.4-.16-.16-.37-.23-.63-.23-.29,0-.53.1-.71.3-.18.2-.27.47-.27.83,0,.34.09.6.27.8.18.19.41.29.69.29.23,0,.41-.06.56-.17.15-.11.25-.29.32-.52l-.41-.13c-.03.16-.09.27-.17.34M17.27,40.18c.14.13.35.19.61.19.18,0,.33-.03.46-.08.12-.05.22-.13.28-.24.07-.11.1-.22.1-.34,0-.14-.03-.25-.08-.34-.06-.09-.13-.17-.23-.22-.1-.05-.25-.1-.46-.15-.21-.05-.34-.1-.39-.14-.04-.04-.06-.08-.06-.13s.02-.1.07-.13c.07-.05.17-.08.29-.08s.21.02.27.07c.06.05.1.13.12.24l.42-.02c0-.2-.08-.35-.21-.47-.13-.12-.33-.18-.6-.18-.16,0-.3.03-.41.07-.11.05-.2.12-.26.22-.06.09-.09.2-.09.31,0,.17.07.31.19.43.09.08.25.15.48.21.18.05.29.08.34.09.07.03.12.06.15.09.03.04.04.08.04.13,0,.08-.03.15-.1.21-.07.06-.17.09-.31.09-.13,0-.23-.03-.31-.1-.08-.07-.13-.17-.15-.31l-.41.04c.03.24.11.42.26.55M15.75,40.33v-.91h.88v-.36h-.88v-.51h1.02v-.36h-1.44v2.14h.43-.01Z"/>
    <path d="M21.47,38.47h.21l.05.03.02.05-.02.05-.05.03h-.21v-.19.02h0ZM21.47,39.06v-.29h.04l.1.03s.06.07.09.14l.06.11h.17l-.08-.14s-.04-.08-.05-.08l-.05-.05-.05-.03c.06,0,.1-.03.14-.07.03-.04.05-.08.05-.13l-.03-.1-.06-.07s-.06-.02-.11-.03h-.36v.69h.14v.02ZM21.88,38.25c.08.04.15.11.19.19.05.08.07.17.07.27s-.02.18-.07.26c-.04.08-.11.15-.19.19-.08.05-.17.07-.26.07s-.17-.02-.26-.07c-.08-.05-.14-.11-.19-.19-.04-.08-.07-.17-.07-.26s.02-.18.07-.27c.05-.08.11-.15.19-.19.08-.05.17-.07.25-.07s.17.02.25.07M21.31,38.14c-.1.05-.18.14-.24.24-.06.1-.09.21-.09.33s.03.22.08.32c.06.1.14.18.24.24s.21.09.32.09.22-.03.32-.09.18-.14.24-.24c.06-.1.09-.21.09-.32s-.03-.22-.09-.33-.14-.19-.24-.24c-.1-.06-.21-.08-.32-.08s-.22.03-.32.08"/>
    <path d="M24.43,39.88c-.08.07-.18.11-.29.11-.15,0-.28-.06-.37-.17s-.14-.31-.14-.58c0-.25.05-.44.15-.55s.22-.17.38-.17c.11,0,.21.03.29.1.08.06.13.15.15.26l.42-.1c-.05-.17-.12-.3-.22-.39-.16-.16-.37-.23-.63-.23-.29,0-.53.1-.71.3-.18.2-.27.47-.27.83,0,.34.09.6.27.8.18.19.41.29.69.29.22,0,.41-.06.56-.17.15-.11.25-.29.32-.52l-.41-.13c-.04.16-.09.27-.17.34"/>
    <path d="M33.62,38.59v-.38h1.41v.3c-.12.11-.23.28-.35.49-.12.21-.21.44-.27.68s-.09.46-.09.64h-.4c0-.3.07-.6.18-.91.12-.31.27-.58.46-.83h-.94ZM32.75,39.53v-.73l-.49.73h.49ZM32.75,40.32v-.43h-.88v-.36l.93-1.36h.35v1.36h.27v.36h-.27v.43h-.4ZM31.67,39.94v.38h-1.44c.02-.14.06-.28.14-.41s.23-.3.46-.52c.19-.17.3-.29.34-.35.06-.08.08-.17.08-.25,0-.09-.02-.16-.07-.21s-.12-.07-.2-.07-.15.03-.21.08c-.05.05-.08.14-.09.26l-.41-.04c.03-.23.1-.39.23-.49.13-.1.29-.15.48-.15.21,0,.38.06.5.17.12.11.18.26.18.43,0,.1-.02.19-.05.28-.03.09-.09.18-.16.27-.05.06-.14.16-.27.27-.13.12-.21.2-.25.24-.03.04-.06.08-.08.11h.82ZM29.66,40.32h-.41v-1.55c-.15.14-.33.25-.53.31v-.37c.11-.04.22-.1.35-.2.13-.1.21-.21.26-.34h.33v2.16h0ZM28.33,39.94v.38h-1.44c.02-.14.06-.28.14-.41s.23-.3.46-.52c.19-.17.3-.29.34-.35.06-.08.08-.17.08-.25,0-.09-.02-.16-.07-.21s-.12-.07-.2-.07-.15.03-.21.08c-.05.05-.08.14-.09.26l-.41-.04c.02-.23.1-.39.23-.49.13-.1.29-.15.48-.15.21,0,.38.06.5.17.12.11.18.26.18.43,0,.1-.02.19-.05.28-.03.09-.09.18-.17.27-.05.06-.14.16-.27.27-.13.12-.21.2-.25.24s-.06.08-.08.11h.83ZM26.33,40.32h-.41v-1.55c-.15.14-.33.25-.53.31v-.37c.11-.04.22-.1.35-.2.13-.1.21-.21.26-.34h.33v2.16h0Z"/>
    <path d="M22.53,35.31h.53s.09-.02.12-.04.06-.05.08-.09.03-.08.03-.13c0-.06-.01-.11-.04-.15s-.07-.08-.12-.09c-.05-.02-.13-.03-.23-.03h-.36v.54h-.01ZM22.53,34.58h.34c.09,0,.16,0,.2-.02.05-.02.09-.04.12-.08s.04-.08.04-.14c0-.05-.01-.1-.04-.14s-.06-.07-.11-.08c-.05-.02-.13-.02-.24-.02h-.32v.48h0ZM22.32,35.5v-1.57h.59c.12,0,.22.02.29.05.07.03.13.08.17.15s.06.14.06.21-.02.13-.05.19c-.04.06-.09.11-.17.14.09.03.17.08.22.14.05.07.08.15.08.24,0,.07-.01.14-.05.2-.03.06-.07.11-.12.15-.04.03-.1.06-.17.08s-.15.03-.25.03h-.6Z"/>
    <path d="M23.9,34.93c0,.15.03.26.1.33.06.07.14.11.24.11s.18-.04.24-.11.1-.18.1-.33-.03-.25-.1-.32c-.06-.07-.14-.11-.24-.11s-.18.04-.24.11-.1.18-.1.33M23.7,34.94c0-.21.06-.37.18-.47.1-.08.22-.13.36-.13.16,0,.29.05.38.15.1.1.15.24.15.43,0,.15-.02.26-.07.35-.04.08-.11.15-.19.2s-.18.07-.28.07c-.16,0-.29-.05-.39-.15-.1-.1-.15-.25-.15-.44"/>
    <path d="M25.73,34.92c-.07.03-.18.05-.32.07-.08,0-.14.02-.17.04-.03,0-.06.04-.08.06-.02.03-.03.06-.03.09,0,.05.02.09.06.13.04.03.1.05.17.05s.14-.02.2-.05c.06-.03.1-.08.13-.13.02-.04.03-.11.03-.19v-.07h.01ZM25.73,35.36c-.07.06-.14.1-.21.13s-.14.04-.21.04c-.12,0-.22-.03-.29-.09-.07-.06-.1-.14-.1-.23,0-.06.01-.11.04-.15.03-.05.06-.08.1-.11s.09-.05.14-.06c.04,0,.1-.02.17-.03.16-.02.27-.04.35-.07v-.05c0-.08-.02-.13-.05-.17-.05-.04-.12-.07-.22-.07-.09,0-.16.02-.2.05s-.08.09-.1.17l-.19-.03c.02-.08.05-.15.08-.2.04-.05.1-.09.17-.11.08-.03.16-.04.26-.04s.18,0,.24.03.1.05.13.09c.03.03.05.08.06.13,0,.03.01.09.01.18v.26c0,.18,0,.29.01.34,0,.05.03.09.05.14h-.2s-.03-.09-.04-.14"/>
    <path d="M26.22,35.5v-1.14h.17v.17c.04-.08.08-.13.12-.16s.08-.04.12-.04c.06,0,.13.02.2.06l-.07.18s-.1-.04-.14-.04-.08,0-.11.04c-.03.03-.06.06-.07.11-.02.07-.03.14-.03.23v.6h-.19Z"/>
    <path d="M27.08,34.93c0,.15.03.26.09.33.06.07.13.11.22.11s.16-.04.22-.1c.06-.07.09-.18.09-.32,0-.16-.03-.27-.09-.34s-.13-.11-.22-.11-.16.03-.22.11c-.06.07-.09.18-.09.33M27.7,35.5v-.14c-.07.11-.18.17-.32.17-.09,0-.18-.03-.25-.07-.08-.05-.14-.12-.18-.21s-.06-.19-.06-.31.02-.22.06-.31c.04-.09.09-.16.17-.21s.16-.08.25-.08c.07,0,.13.02.18.04.05.03.1.07.13.11v-.56h.19v1.57h-.18s.01,0,.01,0Z"/>
  </g>
  <g>
    <path class="cls-14" d="M.25.25v198.43h127.56V.25H.25ZM64.03,26.89c-2.82,0-5.1-2.28-5.1-5.1s2.28-5.1,5.1-5.1,5.1,2.28,5.1,5.1-2.29,5.1-5.1,5.1Z"/>
    <line class="cls-15" x1="11.1" y1="87.36" x2="116.96" y2="87.36"/>
    <line class="cls-15" x1="11.1" y1="64.33" x2="116.96" y2="64.33"/>
    <line class="cls-16" x1="64.03" y1="64.14" x2="64.03" y2="87.09" id="divider_line_01"/>
    <line class="cls-17" x1="11.1" y1="64.32" x2="116.96" y2="64.32"/>
    <line class="cls-17" x1="11.1" y1="48.61" x2="116.96" y2="48.61"/>
    <line class="cls-13" x1=".25" y1="166.3" x2="127.81" y2="166.3"/>
    <line class="cls-dividerline" x1="11.1" y1="48.61" x2="11.1" y2="64.33" id="apperal_line01"/>
    <line class="cls-dividerline" x1="116.96" y1="48.61" x2="116.96" y2="64.33" id="apperal_line02"/>   
    <rect class="cls-dividerline" x="11.1" y="88" width="105.88" height="22.61" id="size_rect"/>
  </g>
  <text id="apparel_categories" class="cls-7" x="50%" text-anchor="middle" y="60" ><tspan x="0" y="0"></tspan></text>
</svg>