<?xml version="1.0" encoding="UTF-8"?>
<svg id="Layer_1" data-name="Layer 1" data-size="15mm x 70mm" xmlns="http://www.w3.org/2000/svg" viewBox="0 0 125.61 267.53">
  <text transform="translate(35.98 234.79)"
    style="fill: #00a6ce; font-family: Barlow-SemiBold, Barlow; font-size: 13.14px; font-weight: 600;">
    <tspan x="0" y="0">15 mm</tspan>
  </text>
  <line x1="75.25" y1="219.81" x2="75.25" y2="209.02" style="fill: none; stroke: #1b9dd9; stroke-width: .44px;" />
  <line x1="31.77" y1="208.46" x2="31.77" y2="219.26" style="fill: none; stroke: #1b9dd9; stroke-width: .44px;" />
  <line x1="31.77" y1="213.26" x2="75.25" y2="213.81"
    style="fill: none; stroke: #1b9dd9; stroke-dasharray: 3.2 3.2; stroke-width: .43px;" />
  <rect x="30.58" y=".44" width="42.52" height="198.42" style="fill: #062638;" />
  <rect x="30.58" y=".44" width="42.52" height="198.43" style="fill: none; stroke: #e50695; stroke-width: .57px;" />
  <path d="M56.8,21.3c0,2.74-2.22,4.96-4.96,4.96s-4.96-2.22-4.96-4.96,2.22-4.96,4.96-4.96,4.96,2.22,4.96,4.96"
    style="fill: #fff;" />
  <path d="M56.8,21.3c0,2.74-2.22,4.96-4.96,4.96s-4.96-2.22-4.96-4.96,2.22-4.96,4.96-4.96,4.96,2.22,4.96,4.96"
    style="fill: none; stroke: #e50695; stroke-width: .5px;" />
  <rect x="82.81" y=".44" width="42.52" height="198.42" style="fill: #062638;" />
  <rect x="82.81" y=".44" width="42.52" height="198.43" style="fill: none; stroke: #e50695; stroke-width: .57px;" />
  <path d="M109.03,21.3c0,2.74-2.22,4.96-4.96,4.96s-4.96-2.22-4.96-4.96,2.22-4.96,4.96-4.96,4.96,2.22,4.96,4.96"
    style="fill: #fff;" />
  <path d="M109.03,21.3c0,2.74-2.22,4.96-4.96,4.96s-4.96-2.22-4.96-4.96,2.22-4.96,4.96-4.96,4.96,2.22,4.96,4.96"
    style="fill: none; stroke: #e50695; stroke-width: .5px;" />
  <path
    d="M90.43,38.96v-3.14s.01-.05.04-.05h.64c.21,0,.38.08.51.23.13.15.19.36.19.62v1.51c0,.26-.06.47-.19.63-.13.16-.3.23-.51.23h-.64s-.04-.01-.04-.05M90.74,38.72h.37c.12,0,.22-.06.29-.16.07-.11.11-.25.11-.43v-1.49c0-.18-.04-.32-.11-.43-.07-.11-.17-.16-.3-.16h-.37s-.02,0-.02.02v2.62s0,.02.02.02"
    style="fill: #fff;" />
  <path d="M92.24,38.96v-3.14s.01-.05.04-.05h.21s.04.01.04.05v3.14s-.01.05-.04.05h-.21s-.04-.02-.04-.05"
    style="fill: #fff;" />
  <path
    d="M94.28,36.06h-.96s-.02,0-.02.02v1.15s0,.02.02.02h.6s.04.02.04.05v.2s-.02.05-.04.05h-.6s-.02,0-.02.02v1.41s-.01.05-.04.05h-.21s-.04-.02-.04-.05v-3.14s.01-.05.04-.05h1.23s.04.01.04.05v.19s-.01.05-.04.05"
    style="fill: #fff;" />
  <path
    d="M95.84,36.06h-.96s-.02,0-.02.02v1.15s0,.02.02.02h.6s.04.02.04.05v.2s-.02.05-.04.05h-.6s-.02,0-.02.02v1.41s-.01.05-.04.05h-.21s-.04-.02-.04-.05v-3.14s.01-.05.04-.05h1.23s.04.01.04.05v.19s-.01.05-.04.05"
    style="fill: #fff;" />
  <path
    d="M97.4,36.06h-.96s-.02,0-.02.02v1.15s0,.02.02.02h.61s.04.02.04.05v.2s-.01.05-.04.05h-.61s-.02,0-.02.02v1.15s0,.02.02.02h.96s.04.02.04.05v.19s-.01.05-.04.05h-1.23s-.04-.02-.04-.05v-3.14s.01-.05.04-.05h1.23s.04.01.04.05v.19s-.01.05-.04.05"
    style="fill: #fff;" />
  <path
    d="M98.9,38.97l-.43-1.44s0-.01-.02-.01h-.36s-.02,0-.02.02v1.42s-.01.05-.04.05h-.21s-.04-.02-.04-.05v-3.14s.01-.05.04-.05h.68c.2,0,.37.08.49.24.12.16.19.38.19.64,0,.2-.04.38-.12.52-.08.14-.18.24-.32.3-.01,0-.01,0-.01.02l.45,1.45v.02s0,.03-.03.03h-.22s-.04-.01-.05-.04M98.08,36.07v1.16s0,.02.02.02h.37c.13,0,.23-.05.31-.16.08-.11.12-.25.12-.43s-.04-.33-.12-.44c-.08-.11-.18-.16-.31-.16h-.37s-.02,0-.02.02"
    style="fill: #fff;" />
  <path
    d="M100.78,36.06h-.96s-.02,0-.02.02v1.15s0,.02.02.02h.61s.04.02.04.05v.2s-.01.05-.04.05h-.61s-.02,0-.02.02v1.15s0,.02.02.02h.96s.04.02.04.05v.19s-.02.05-.04.05h-1.23s-.04-.02-.04-.05v-3.14s.01-.05.04-.05h1.23s.04.01.04.05v.19s-.02.05-.04.05"
    style="fill: #fff;" />
  <path
    d="M101.17,38.96v-3.14s.01-.05.04-.05h.22s.04.01.04.04l.84,2.33s0,.01.01.01,0,0,0-.01v-2.32s.01-.05.04-.05h.21s.04.01.04.05v3.14s-.01.05-.04.05h-.22s-.04-.01-.05-.04l-.84-2.33s0-.01-.01-.01c0,0,0,0,0,.02v2.31s0,.05-.04.05h-.21s-.04-.02-.04-.05"
    style="fill: #fff;" />
  <path
    d="M102.94,38.96v-.21s0-.03.01-.06l1.01-2.61s0-.01,0-.02c0,0,0,0-.01,0h-.97s-.04-.01-.04-.05v-.19s.01-.05.04-.05h1.26s.04.01.04.05v.21s0,.03-.01.06l-1.01,2.61s0,.01,0,.02c0,0,0,0,.01,0h.96s.04.02.04.05v.19s-.01.05-.04.05h-1.26s-.04-.02-.04-.05"
    style="fill: #fff;" />
  <path d="M104.62,38.96v-3.14s.01-.05.04-.05h.21s.04.01.04.05v3.14s-.01.05-.04.05h-.21s-.04-.02-.04-.05"
    style="fill: #fff;" />
  <path
    d="M106.54,38.96l-.1-.57s0-.01,0-.01c0,0,0,0-.01,0h-.75s-.01,0-.01,0c0,0,0,0,0,.01l-.11.57s-.02.04-.05.04h-.21s-.02,0-.03-.01c0,0,0-.02,0-.04l.63-3.14s.02-.04.05-.04h.25s.04.01.05.04l.63,3.14h0s-.01.05-.04.05h-.22s-.04-.01-.05-.04M105.71,38.1h.65s.01,0,.01-.02l-.33-1.78s0-.01,0-.01c0,0,0,0,0,.01l-.33,1.78s0,.02.01.02"
    style="fill: #fff;" />
  <path d="M107.87,38.96v-3.14s.01-.05.04-.05h.21s.04.01.04.05v3.14s-.01.05-.04.05h-.21s-.04-.02-.04-.05"
    style="fill: #fff;" />
  <path
    d="M110.47,38.97l-.43-1.44s0-.01-.02-.01h-.36s-.02,0-.02.02v1.42s-.01.05-.04.05h-.21s-.04-.02-.04-.05v-3.14s.01-.05.04-.05h.68c.2,0,.37.08.49.24.12.16.19.38.19.64,0,.2-.04.38-.12.52-.08.14-.18.24-.32.3-.01,0-.01,0-.01.02l.45,1.45v.02s0,.03-.03.03h-.22s-.04-.01-.05-.04M109.65,36.07v1.16s0,.02.02.02h.37c.13,0,.23-.05.31-.16.08-.11.12-.25.12-.43s-.04-.33-.12-.44c-.08-.11-.18-.16-.31-.16h-.37s-.02,0-.02.02"
    style="fill: #fff;" />
  <path d="M111.08,38.96v-3.14s.01-.05.04-.05h.21s.04.01.04.05v3.14s-.01.05-.04.05h-.21s-.04-.02-.04-.05"
    style="fill: #fff;" />
  <path
    d="M113.12,36.06h-.96s-.02,0-.02.02v1.15s0,.02.02.02h.6s.04.02.04.05v.2s-.02.05-.04.05h-.6s-.02,0-.02.02v1.41s-.01.05-.04.05h-.21s-.04-.02-.04-.05v-3.14s.01-.05.04-.05h1.23s.04.01.04.05v.19s-.01.05-.04.05"
    style="fill: #fff;" />
  <path d="M113.41,38.96v-3.14s.01-.05.04-.05h.21s.04.01.04.05v3.14s-.01.05-.04.05h-.21s-.04-.02-.04-.05"
    style="fill: #fff;" />
  <path
    d="M114.35,38.8c-.13-.16-.2-.38-.2-.65v-2.33s.01-.05.04-.05h.21s.04.02.04.05v2.37c0,.17.04.31.12.41.07.1.18.16.3.16s.23-.05.31-.16c.08-.1.12-.24.12-.41v-2.37s.01-.05.04-.05h.21s.04.02.04.05v2.33c0,.27-.07.48-.2.65-.13.16-.31.25-.52.25s-.39-.08-.52-.25"
    style="fill: #fff;" />
  <path
    d="M117.35,35.82v.19s-.01.05-.04.05h-.55s-.02,0-.02.02v2.88s-.01.05-.04.05h-.21s-.04-.01-.04-.05v-2.88s0-.02-.02-.02h-.51s-.04-.02-.04-.05v-.19s.01-.05.04-.05h1.39s.04.02.04.05"
    style="fill: #fff;" />
  <path d="M117.67,38.96v-3.14s.01-.05.04-.05h.21s.04.01.04.05v3.14s-.01.05-.04.05h-.21s-.04-.02-.04-.05"
    style="fill: #fff;" />
  <path
    d="M90.22,74.43c-.13-.15-.19-.35-.19-.59v-.11s.01-.05.04-.05h.21s.04.02.04.05v.1c0,.16.04.29.11.39.08.1.17.15.29.15s.21-.05.29-.14c.08-.1.12-.22.12-.38,0-.1-.02-.19-.06-.27-.04-.07-.09-.14-.15-.2-.06-.06-.16-.14-.3-.26-.14-.11-.25-.21-.33-.29-.08-.08-.15-.18-.2-.29-.05-.11-.08-.25-.08-.4,0-.24.06-.43.19-.57.12-.14.29-.21.49-.21.21,0,.38.08.5.23.12.15.19.36.19.61v.12s-.01.05-.04.05h-.21s-.04-.02-.04-.05v-.12c0-.16-.04-.29-.11-.39-.07-.1-.17-.15-.29-.15-.11,0-.2.04-.27.13-.07.09-.11.21-.11.37,0,.1.02.18.05.25.03.07.08.14.14.21.06.07.16.15.28.25.17.14.29.25.37.33.08.09.15.18.19.28.04.1.07.22.07.36,0,.25-.07.45-.2.61-.13.15-.3.23-.5.23s-.37-.08-.5-.23"
    style="fill: #fff;" />
  <path
    d="M93.01,71.67h-.96s-.02,0-.02.02v1.15s0,.02.02.02h.61s.04.02.04.05v.2s-.01.05-.04.05h-.61s-.02,0-.02.02v1.15s0,.02.02.02h.96s.04.02.04.05v.19s-.01.05-.04.05h-1.23s-.04-.02-.04-.05v-3.14s.01-.05.04-.05h1.23s.04.01.04.05v.19s-.01.05-.04.05"
    style="fill: #fff;" />
  <path
    d="M94.61,71.63c.12.17.19.38.19.65s-.06.48-.18.64c-.12.16-.28.24-.48.24h-.43s-.02,0-.02.02v1.39s-.01.05-.04.05h-.21s-.04-.02-.04-.05v-3.14s.02-.05.04-.05h.69c.2,0,.37.08.49.25M94.39,72.72c.08-.11.12-.26.12-.44s-.04-.33-.12-.45c-.08-.11-.18-.17-.3-.17h-.38s-.02,0-.02.02v1.19s0,.02.02.02h.38c.12,0,.23-.06.3-.17"
    style="fill: #fff;" />
  <path
    d="M96.15,74.58l-.1-.57s0-.01,0-.01c0,0,0,0-.01,0h-.75s-.01,0-.01,0c0,0,0,0,0,.01l-.11.57s-.02.04-.05.04h-.21s-.02,0-.03-.01c0,0,0-.02,0-.04l.63-3.14s.02-.04.05-.04h.25s.04.01.05.04l.63,3.14h0s-.01.05-.04.05h-.22s-.04-.01-.05-.04M95.32,73.72h.65s.01,0,.01-.02l-.33-1.78s0-.01,0-.01c0,0,0,0,0,.01l-.33,1.78s0,.02.01.02"
    style="fill: #fff;" />
  <path
    d="M97.89,74.58l-.43-1.44s0-.01-.02-.01h-.36s-.02,0-.02.02v1.42s-.01.05-.04.05h-.21s-.04-.02-.04-.05v-3.14s.01-.05.04-.05h.68c.2,0,.37.08.49.24.12.16.19.38.19.64,0,.2-.04.38-.12.52-.08.14-.18.24-.32.3-.01,0-.01,0-.01.02l.45,1.45v.02s0,.03-.03.03h-.22s-.04-.01-.05-.04M97.07,71.69v1.16s0,.02.02.02h.37c.13,0,.23-.05.31-.16.08-.11.12-.25.12-.43s-.04-.33-.12-.44c-.08-.11-.18-.16-.31-.16h-.37s-.02,0-.02.02"
    style="fill: #fff;" />
  <path
    d="M99.69,74.58l-.1-.57s0-.01,0-.01c0,0,0,0-.01,0h-.75s-.01,0-.01,0c0,0,0,0,0,.01l-.11.57s-.02.04-.05.04h-.21s-.02,0-.03-.01c0,0,0-.02,0-.04l.63-3.14s.02-.04.05-.04h.25s.04.01.05.04l.63,3.14h0s-.01.05-.04.05h-.22s-.04-.01-.05-.04M98.86,73.72h.65s.01,0,.01-.02l-.33-1.78s0-.01,0-.01c0,0,0,0,0,.01l-.33,1.78s0,.02.01.02"
    style="fill: #fff;" />
  <path
    d="M101.38,71.43v.19s-.01.05-.04.05h-.55s-.02,0-.02.02v2.88s-.01.05-.04.05h-.21s-.04-.01-.04-.05v-2.88s0-.02-.02-.02h-.52s-.04-.02-.04-.05v-.19s.01-.05.04-.05h1.39s.04.02.04.05"
    style="fill: #fff;" />
  <path
    d="M102.97,71.67h-.96s-.02,0-.02.02v1.15s0,.02.02.02h.61s.04.02.04.05v.2s-.01.05-.04.05h-.61s-.02,0-.02.02v1.15s0,.02.02.02h.96s.04.02.04.05v.19s-.01.05-.04.05h-1.23s-.04-.02-.04-.05v-3.14s.01-.05.04-.05h1.23s.04.01.04.05v.19s-.01.05-.04.05"
    style="fill: #fff;" />
  <path
    d="M105.39,71.43v.19s-.01.05-.04.05h-.55s-.02,0-.02.02v2.88s-.01.05-.04.05h-.21s-.04-.01-.04-.05v-2.88s0-.02-.02-.02h-.52s-.04-.02-.04-.05v-.19s.01-.05.04-.05h1.39s.04.02.04.05"
    style="fill: #fff;" />
  <path
    d="M106.82,71.38h.21s.04.02.04.05v3.14s-.01.05-.04.05h-.21s-.04-.02-.04-.05v-1.41s0-.02-.02-.02h-.74s-.02,0-.02.02v1.41s-.01.05-.04.05h-.21s-.04-.02-.04-.05v-3.14s.01-.05.04-.05h.21s.04.02.04.05v1.4s0,.02.02.02h.74s.02,0,.02-.02v-1.4s.01-.05.04-.05"
    style="fill: #fff;" />
  <path
    d="M108.79,71.67h-.96s-.02,0-.02.02v1.15s0,.02.02.02h.61s.04.02.04.05v.2s-.01.05-.04.05h-.61s-.02,0-.02.02v1.15s0,.02.02.02h.96s.04.02.04.05v.19s-.01.05-.04.05h-1.23s-.04-.02-.04-.05v-3.14s.01-.05.04-.05h1.23s.04.01.04.05v.19s-.01.05-.04.05"
    style="fill: #fff;" />
  <path
    d="M110.26,74.58l-.55-3.14h0s.01-.05.04-.05h.22s.04.01.04.04l.39,2.43s0,0,0,0,0,0,0,0l.34-2.43s.02-.04.04-.04h.19s.04.01.04.04l.35,2.43s0,0,0,0c0,0,0,0,0,0l.36-2.43s.02-.04.04-.04h.22s.02,0,.03.01c0,0,0,.02,0,.04l-.51,3.14s-.02.04-.05.04h-.2s-.04-.01-.04-.04l-.35-2.44s0,0-.01,0c0,0,0,0,0,0l-.34,2.44s-.02.04-.04.04h-.2s-.04-.01-.05-.04"
    style="fill: #fff;" />
  <path
    d="M113.29,74.58l-.1-.57s0-.01,0-.01c0,0,0,0-.01,0h-.75s-.01,0-.01,0c0,0,0,0,0,.01l-.11.57s-.02.04-.05.04h-.21s-.03,0-.03-.01c0,0,0-.02,0-.04l.63-3.14s.02-.04.05-.04h.25s.04.01.05.04l.63,3.14h0s-.01.05-.04.05h-.21s-.04-.01-.05-.04M112.46,73.72h.65s.01,0,.01-.02l-.33-1.78s0-.01,0-.01c0,0,0,0,0,.01l-.33,1.78s0,.02.01.02"
    style="fill: #fff;" />
  <path
    d="M113.93,74.43c-.13-.15-.19-.35-.19-.59v-.11s.01-.05.04-.05h.21s.04.02.04.05v.1c0,.16.04.29.11.39.08.1.17.15.29.15s.21-.05.29-.14c.08-.1.12-.22.12-.38,0-.1-.02-.19-.06-.27-.04-.07-.09-.14-.15-.2-.06-.06-.16-.14-.3-.26-.14-.11-.25-.21-.33-.29-.08-.08-.15-.18-.2-.29-.05-.11-.08-.25-.08-.4,0-.24.06-.43.19-.57.12-.14.29-.21.49-.21.21,0,.38.08.5.23.13.15.19.36.19.61v.12s-.01.05-.04.05h-.21s-.04-.02-.04-.05v-.12c0-.16-.04-.29-.11-.39-.07-.1-.17-.15-.29-.15-.11,0-.2.04-.27.13-.07.09-.11.21-.11.37,0,.1.02.18.05.25.03.07.08.14.14.21.06.07.16.15.28.25.17.14.29.25.37.33.08.09.15.18.19.28.04.1.07.22.07.36,0,.25-.07.45-.2.61-.13.15-.3.23-.5.23s-.37-.08-.5-.23"
    style="fill: #fff;" />
  <path
    d="M116.73,71.43v.19s-.01.05-.04.05h-.55s-.02,0-.02.02v2.88s-.01.05-.04.05h-.21s-.04-.01-.04-.05v-2.88s0-.02-.02-.02h-.52s-.04-.02-.04-.05v-.19s.01-.05.04-.05h1.39s.04.02.04.05"
    style="fill: #fff;" />
  <path
    d="M118.33,71.67h-.96s-.02,0-.02.02v1.15s0,.02.02.02h.61s.04.02.04.05v.2s-.01.05-.04.05h-.61s-.02,0-.02.02v1.15s0,.02.02.02h.96s.04.02.04.05v.19s-.01.05-.04.05h-1.23s-.04-.02-.04-.05v-3.14s.01-.05.04-.05h1.23s.04.01.04.05v.19s-.01.05-.04.05"
    style="fill: #fff;" />
  <rect x="89.22" y="40.23" width="29.76" height="29.98" style="fill: #fff;" />
  <rect x="89.95" y="41.04" width="28.35" height="28.35" style="fill: #fff;" />
  <path
    d="M89.95,41.89h.86v-.86h-.86v.86ZM90.81,41.89h.86v-.86h-.86v.86ZM91.67,41.89h.86v-.86h-.86v.86ZM92.53,41.89h.86v-.86h-.86v.86ZM93.39,41.89h.86v-.86h-.86v.86ZM94.25,41.89h.86v-.86h-.86v.86ZM95.11,41.89h.86v-.86h-.86v.86Z"
    style="fill: #062638;" />
  <rect x="95.97" y="41.04" width=".86" height=".86" style="fill: #fff;" />
  <rect x="96.83" y="41.04" width=".86" height=".86" style="fill: #062638;" />
  <rect x="97.68" y="41.04" width=".86" height=".86" style="fill: #fff;" />
  <rect x="98.54" y="41.04" width=".86" height=".86" style="fill: #062638;" />
  <rect x="99.4" y="41.04" width=".86" height=".86" style="fill: #fff;" />
  <rect x="100.26" y="41.04" width=".86" height=".86" style="fill: #062638;" />
  <rect x="101.12" y="41.04" width=".86" height=".86" style="fill: #fff;" />
  <rect x="101.98" y="41.04" width=".86" height=".86" style="fill: #062638;" />
  <path d="M102.84,41.89h.86v-.86h-.86v.86ZM103.7,41.89h.86v-.86h-.86v.86Z" style="fill: #fff;" />
  <path d="M104.56,41.89h.86v-.86h-.86v.86ZM105.41,41.89h.86v-.86h-.86v.86ZM106.27,41.89h.86v-.86h-.86v.86Z"
    style="fill: #062638;" />
  <rect x="107.13" y="41.04" width=".86" height=".86" style="fill: #fff;" />
  <rect x="107.99" y="41.04" width=".86" height=".86" style="fill: #062638;" />
  <rect x="108.85" y="41.04" width=".86" height=".86" style="fill: #fff;" />
  <path d="M109.71,41.89h.86v-.86h-.86v.86ZM110.57,41.89h.86v-.86h-.86v.86Z" style="fill: #062638;" />
  <rect x="111.43" y="41.04" width=".86" height=".86" style="fill: #fff;" />
  <path
    d="M89.95,41.89h.86v.86h-.86v-.86ZM117.44,41.04h.86v.86h-.86v-.86ZM116.58,41.04h.86v.86h-.86v-.86ZM115.72,41.04h.86v.86h-.86v-.86ZM114.86,41.04h.86v.86h-.86v-.86ZM114,41.04h.86v.86h-.86v-.86ZM113.15,41.04h.86v.86h-.86v-.86ZM112.29,41.04h.86v.86h-.86v-.86Z"
    style="fill: #062638;" />
  <path
    d="M90.81,42.75h.86v-.86h-.86v.86ZM91.67,42.75h.86v-.86h-.86v.86ZM92.53,42.75h.86v-.86h-.86v.86ZM93.39,42.75h.86v-.86h-.86v.86ZM94.25,42.75h.86v-.86h-.86v.86Z"
    style="fill: #fff;" />
  <rect x="95.11" y="41.9" width=".86" height=".86" style="fill: #062638;" />
  <rect x="95.97" y="41.9" width=".86" height=".86" style="fill: #fff;" />
  <rect x="96.83" y="41.9" width=".86" height=".86" style="fill: #062638;" />
  <rect x="97.68" y="41.9" width=".86" height=".86" style="fill: #fff;" />
  <path d="M98.54,42.75h.86v-.86h-.86v.86ZM99.4,42.75h.86v-.86h-.86v.86Z" style="fill: #062638;" />
  <path d="M100.26,42.75h.86v-.86h-.86v.86ZM101.12,42.75h.86v-.86h-.86v.86ZM101.98,42.75h.86v-.86h-.86v.86Z"
    style="fill: #fff;" />
  <path d="M102.84,42.75h.86v-.86h-.86v.86ZM104.55,41.9h-.86v.86h1.72v-.86h-.86Z" style="fill: #062638;" />
  <rect x="105.41" y="41.9" width=".86" height=".86" style="fill: #fff;" />
  <rect x="106.27" y="41.9" width=".86" height=".86" style="fill: #062638;" />
  <path
    d="M107.13,42.75h.86v-.86h-.86v.86ZM107.99,42.75h.86v-.86h-.86v.86ZM108.85,42.75h.86v-.86h-.86v.86ZM109.71,42.75h.86v-.86h-.86v.86Z"
    style="fill: #fff;" />
  <rect x="110.57" y="41.9" width=".86" height=".86" style="fill: #062638;" />
  <rect x="111.43" y="41.9" width=".86" height=".86" style="fill: #fff;" />
  <rect x="112.29" y="41.9" width=".86" height=".86" style="fill: #062638;" />
  <path
    d="M113.15,42.75h.86v-.86h-.86v.86ZM114,42.75h.86v-.86h-.86v.86ZM114.86,42.75h.86v-.86h-.86v.86ZM115.72,42.75h.86v-.86h-.86v.86ZM116.58,42.75h.86v-.86h-.86v.86Z"
    style="fill: #fff;" />
  <path d="M89.95,42.75h.86v.86h-.86v-.86ZM117.44,41.89h.86v.86h-.86v-.86Z" style="fill: #062638;" />
  <rect x="90.81" y="42.75" width=".86" height=".86" style="fill: #fff;" />
  <path d="M91.67,43.61h.86v-.86h-.86v.86ZM92.53,43.61h.86v-.86h-.86v.86ZM93.39,43.61h.86v-.86h-.86v.86Z"
    style="fill: #062638;" />
  <rect x="94.25" y="42.75" width=".86" height=".86" style="fill: #fff;" />
  <rect x="95.11" y="42.75" width=".86" height=".86" style="fill: #062638;" />
  <rect x="95.97" y="42.75" width=".86" height=".86" style="fill: #fff;" />
  <rect x="96.83" y="42.75" width=".86" height=".86" style="fill: #062638;" />
  <rect x="97.68" y="42.75" width=".86" height=".86" style="fill: #fff;" />
  <rect x="98.54" y="42.75" width=".86" height=".86" style="fill: #062638;" />
  <rect x="99.4" y="42.75" width=".86" height=".86" style="fill: #fff;" />
  <path d="M100.26,43.61h.86v-.86h-.86v.86ZM101.12,43.61h.86v-.86h-.86v.86ZM101.98,43.61h.86v-.86h-.86v.86Z"
    style="fill: #062638;" />
  <path d="M102.84,43.61h.86v-.86h-.86v.86ZM103.7,43.61h.86v-.86h-.86v.86Z" style="fill: #fff;" />
  <rect x="104.56" y="42.75" width=".86" height=".86" style="fill: #062638;" />
  <path d="M105.41,43.61h.86v-.86h-.86v.86ZM106.27,43.61h.86v-.86h-.86v.86Z" style="fill: #fff;" />
  <path
    d="M107.13,43.61h.86v-.86h-.86v.86ZM107.99,43.61h.86v-.86h-.86v.86ZM108.85,43.61h.86v-.86h-.86v.86ZM109.71,43.61h.86v-.86h-.86v.86ZM110.57,43.61h.86v-.86h-.86v.86Z"
    style="fill: #062638;" />
  <rect x="111.43" y="42.75" width=".86" height=".86" style="fill: #fff;" />
  <rect x="112.29" y="42.75" width=".86" height=".86" style="fill: #062638;" />
  <rect x="113.15" y="42.75" width=".86" height=".86" style="fill: #fff;" />
  <path d="M114,43.61h.86v-.86h-.86v.86ZM114.86,43.61h.86v-.86h-.86v.86ZM115.72,43.61h.86v-.86h-.86v.86Z"
    style="fill: #062638;" />
  <rect x="116.58" y="42.75" width=".86" height=".86" style="fill: #fff;" />
  <path d="M89.95,43.61h.86v.86h-.86v-.86ZM117.44,42.75h.86v.86h-.86v-.86Z" style="fill: #062638;" />
  <rect x="90.81" y="43.61" width=".86" height=".86" style="fill: #fff;" />
  <path d="M91.67,44.47h.86v-.86h-.86v.86ZM92.53,44.47h.86v-.86h-.86v.86ZM93.39,44.47h.86v-.86h-.86v.86Z"
    style="fill: #062638;" />
  <rect x="94.25" y="43.61" width=".86" height=".86" style="fill: #fff;" />
  <rect x="95.11" y="43.61" width=".86" height=".86" style="fill: #062638;" />
  <path d="M95.97,44.47h.86v-.86h-.86v.86ZM96.83,44.47h.86v-.86h-.86v.86Z" style="fill: #fff;" />
  <rect x="97.68" y="43.61" width=".86" height=".86" style="fill: #062638;" />
  <path d="M98.54,44.47h.86v-.86h-.86v.86ZM99.4,44.47h.86v-.86h-.86v.86Z" style="fill: #fff;" />
  <path d="M100.26,44.47h.86v-.86h-.86v.86ZM101.12,44.47h.86v-.86h-.86v.86ZM101.98,44.47h.86v-.86h-.86v.86Z"
    style="fill: #062638;" />
  <rect x="102.84" y="43.61" width=".86" height=".86" style="fill: #fff;" />
  <rect x="103.7" y="43.61" width=".86" height=".86" style="fill: #062638;" />
  <rect x="104.56" y="43.61" width=".86" height=".86" style="fill: #fff;" />
  <path d="M105.41,44.47h.86v-.86h-.86v.86ZM106.27,44.47h.86v-.86h-.86v.86Z" style="fill: #062638;" />
  <path d="M107.13,44.47h.86v-.86h-.86v.86ZM107.99,44.47h.86v-.86h-.86v.86Z" style="fill: #fff;" />
  <path d="M108.85,44.47h.86v-.86h-.86v.86ZM109.71,44.47h.86v-.86h-.86v.86ZM110.57,44.47h.86v-.86h-.86v.86Z"
    style="fill: #062638;" />
  <rect x="111.43" y="43.61" width=".86" height=".86" style="fill: #fff;" />
  <rect x="112.29" y="43.61" width=".86" height=".86" style="fill: #062638;" />
  <rect x="113.15" y="43.61" width=".86" height=".86" style="fill: #fff;" />
  <path d="M114,44.47h.86v-.86h-.86v.86ZM114.86,44.47h.86v-.86h-.86v.86ZM115.72,44.47h.86v-.86h-.86v.86Z"
    style="fill: #062638;" />
  <rect x="116.58" y="43.61" width=".86" height=".86" style="fill: #fff;" />
  <path d="M89.95,44.47h.86v.86h-.86v-.86ZM117.44,43.61h.86v.86h-.86v-.86Z" style="fill: #062638;" />
  <rect x="90.81" y="44.47" width=".86" height=".86" style="fill: #fff;" />
  <path d="M91.67,45.33h.86v-.86h-.86v.86ZM92.53,45.33h.86v-.86h-.86v.86ZM93.39,45.33h.86v-.86h-.86v.86Z"
    style="fill: #062638;" />
  <rect x="94.25" y="44.47" width=".86" height=".86" style="fill: #fff;" />
  <rect x="95.11" y="44.47" width=".86" height=".86" style="fill: #062638;" />
  <path d="M95.97,45.33h.86v-.86h-.86v.86ZM96.83,45.33h.86v-.86h-.86v.86Z" style="fill: #fff;" />
  <rect x="97.68" y="44.47" width=".86" height=".86" style="fill: #062638;" />
  <rect x="98.54" y="44.47" width=".86" height=".86" style="fill: #fff;" />
  <rect x="99.4" y="44.47" width=".86" height=".86" style="fill: #062638;" />
  <path d="M100.26,45.33h.86v-.86h-.86v.86ZM101.12,45.33h.86v-.86h-.86v.86Z" style="fill: #fff;" />
  <path d="M102.84,44.47h-.86v.86h1.72v-.86h-.86ZM104.55,44.47h-.86v.86h1.72v-.86h-.86Z" style="fill: #062638;" />
  <path d="M105.41,45.33h.86v-.86h-.86v.86ZM106.27,45.33h.86v-.86h-.86v.86Z" style="fill: #fff;" />
  <rect x="107.13" y="44.47" width=".86" height=".86" style="fill: #062638;" />
  <rect x="107.99" y="44.47" width=".86" height=".86" style="fill: #fff;" />
  <path d="M108.85,45.33h.86v-.86h-.86v.86ZM109.71,45.33h.86v-.86h-.86v.86Z" style="fill: #062638;" />
  <path d="M110.57,45.33h.86v-.86h-.86v.86ZM111.43,45.33h.86v-.86h-.86v.86Z" style="fill: #fff;" />
  <rect x="112.29" y="44.47" width=".86" height=".86" style="fill: #062638;" />
  <rect x="113.15" y="44.47" width=".86" height=".86" style="fill: #fff;" />
  <path d="M114,45.33h.86v-.86h-.86v.86ZM114.86,45.33h.86v-.86h-.86v.86ZM115.72,45.33h.86v-.86h-.86v.86Z"
    style="fill: #062638;" />
  <rect x="116.58" y="44.47" width=".86" height=".86" style="fill: #fff;" />
  <path d="M89.95,45.33h.86v.86h-.86v-.86ZM117.44,44.47h.86v.86h-.86v-.86Z" style="fill: #062638;" />
  <path
    d="M90.81,46.19h.86v-.86h-.86v.86ZM91.67,46.19h.86v-.86h-.86v.86ZM92.53,46.19h.86v-.86h-.86v.86ZM93.39,46.19h.86v-.86h-.86v.86ZM94.25,46.19h.86v-.86h-.86v.86Z"
    style="fill: #fff;" />
  <rect x="95.11" y="45.33" width=".86" height=".86" style="fill: #062638;" />
  <rect x="95.97" y="45.33" width=".86" height=".86" style="fill: #fff;" />
  <rect x="96.83" y="45.33" width=".86" height=".86" style="fill: #062638;" />
  <path
    d="M97.68,46.19h.86v-.86h-.86v.86ZM98.54,46.19h.86v-.86h-.86v.86ZM99.4,46.19h.86v-.86h-.86v.86ZM100.26,46.19h.86v-.86h-.86v.86Z"
    style="fill: #fff;" />
  <rect x="101.12" y="45.33" width=".86" height=".86" style="fill: #062638;" />
  <path d="M102.84,45.33h-.86v.86h1.72v-.86h-.86ZM104.55,45.33h-.86v.86h1.72v-.86h-.86Z" style="fill: #fff;" />
  <path d="M105.41,46.19h.86v-.86h-.86v.86ZM106.27,46.19h.86v-.86h-.86v.86ZM107.13,46.19h.86v-.86h-.86v.86Z"
    style="fill: #062638;" />
  <rect x="107.99" y="45.33" width=".86" height=".86" style="fill: #fff;" />
  <rect x="108.85" y="45.33" width=".86" height=".86" style="fill: #062638;" />
  <rect x="109.71" y="45.33" width=".86" height=".86" style="fill: #fff;" />
  <rect x="110.57" y="45.33" width=".86" height=".86" style="fill: #062638;" />
  <rect x="111.43" y="45.33" width=".86" height=".86" style="fill: #fff;" />
  <rect x="112.29" y="45.33" width=".86" height=".86" style="fill: #062638;" />
  <path
    d="M113.15,46.19h.86v-.86h-.86v.86ZM114,46.19h.86v-.86h-.86v.86ZM114.86,46.19h.86v-.86h-.86v.86ZM115.72,46.19h.86v-.86h-.86v.86ZM116.58,46.19h.86v-.86h-.86v.86Z"
    style="fill: #fff;" />
  <path
    d="M95.11,46.19h.86v.86h-.86v-.86ZM94.25,46.19h.86v.86h-.86v-.86ZM93.39,46.19h.86v.86h-.86v-.86ZM92.53,46.19h.86v.86h-.86v-.86ZM91.67,46.19h.86v.86h-.86v-.86ZM90.81,46.19h.86v.86h-.86v-.86ZM89.95,46.19h.86v.86h-.86v-.86ZM117.44,45.33h.86v.86h-.86v-.86Z"
    style="fill: #062638;" />
  <rect x="95.97" y="46.19" width=".86" height=".86" style="fill: #fff;" />
  <rect x="96.83" y="46.19" width=".86" height=".86" style="fill: #062638;" />
  <rect x="97.68" y="46.19" width=".86" height=".86" style="fill: #fff;" />
  <rect x="98.54" y="46.19" width=".86" height=".86" style="fill: #062638;" />
  <rect x="99.4" y="46.19" width=".86" height=".86" style="fill: #fff;" />
  <rect x="100.26" y="46.19" width=".86" height=".86" style="fill: #062638;" />
  <rect x="101.12" y="46.19" width=".86" height=".86" style="fill: #fff;" />
  <rect x="101.98" y="46.19" width=".86" height=".86" style="fill: #062638;" />
  <rect x="102.84" y="46.19" width=".86" height=".86" style="fill: #fff;" />
  <rect x="103.7" y="46.19" width=".86" height=".86" style="fill: #062638;" />
  <rect x="104.56" y="46.19" width=".86" height=".86" style="fill: #fff;" />
  <rect x="105.41" y="46.19" width=".86" height=".86" style="fill: #062638;" />
  <rect x="106.27" y="46.19" width=".86" height=".86" style="fill: #fff;" />
  <rect x="107.13" y="46.19" width=".86" height=".86" style="fill: #062638;" />
  <rect x="107.99" y="46.19" width=".86" height=".86" style="fill: #fff;" />
  <rect x="108.85" y="46.19" width=".86" height=".86" style="fill: #062638;" />
  <rect x="109.71" y="46.19" width=".86" height=".86" style="fill: #fff;" />
  <rect x="110.57" y="46.19" width=".86" height=".86" style="fill: #062638;" />
  <rect x="111.43" y="46.19" width=".86" height=".86" style="fill: #fff;" />
  <path
    d="M112.29,47.05h.86v-.86h-.86v.86ZM113.15,47.05h.86v-.86h-.86v.86ZM114,47.05h.86v-.86h-.86v.86ZM114.86,47.05h.86v-.86h-.86v.86ZM115.72,47.05h.86v-.86h-.86v.86ZM116.58,47.05h.86v-.86h-.86v.86ZM117.44,47.05h.86v-.86h-.86v.86Z"
    style="fill: #062638;" />
  <path
    d="M89.95,47.91h.86v-.86h-.86v.86ZM90.81,47.91h.86v-.86h-.86v.86ZM91.67,47.91h.86v-.86h-.86v.86ZM92.53,47.91h.86v-.86h-.86v.86ZM93.39,47.91h.86v-.86h-.86v.86ZM94.25,47.91h.86v-.86h-.86v.86ZM95.11,47.91h.86v-.86h-.86v.86ZM95.97,47.91h.86v-.86h-.86v.86Z"
    style="fill: #fff;" />
  <rect x="96.83" y="47.05" width=".86" height=".86" style="fill: #062638;" />
  <rect x="97.68" y="47.05" width=".86" height=".86" style="fill: #fff;" />
  <path d="M98.54,47.91h.86v-.86h-.86v.86ZM99.4,47.91h.86v-.86h-.86v.86Z" style="fill: #062638;" />
  <rect x="100.26" y="47.05" width=".86" height=".86" style="fill: #fff;" />
  <path d="M101.12,47.91h.86v-.86h-.86v.86ZM102.84,47.05h-.86v.86h1.72v-.86h-.86Z" style="fill: #062638;" />
  <path d="M104.56,47.05h-.86v.86h1.72v-.86h-.86ZM105.41,47.91h.86v-.86h-.86v.86ZM106.27,47.91h.86v-.86h-.86v.86Z"
    style="fill: #fff;" />
  <path
    d="M107.13,47.91h.86v-.86h-.86v.86ZM107.99,47.91h.86v-.86h-.86v.86ZM108.85,47.91h.86v-.86h-.86v.86ZM109.71,47.91h.86v-.86h-.86v.86Z"
    style="fill: #062638;" />
  <path
    d="M90.81,47.91h.86v.86h-.86v-.86ZM89.95,47.91h.86v.86h-.86v-.86ZM117.44,47.05h.86v.86h-.86v-.86ZM116.58,47.05h.86v.86h-.86v-.86ZM115.72,47.05h.86v.86h-.86v-.86ZM114.86,47.05h.86v.86h-.86v-.86ZM114,47.05h.86v.86h-.86v-.86ZM113.15,47.05h.86v.86h-.86v-.86ZM112.29,47.05h.86v.86h-.86v-.86ZM111.43,47.05h.86v.86h-.86v-.86ZM110.57,47.05h.86v.86h-.86v-.86Z"
    style="fill: #fff;" />
  <path d="M91.67,48.77h.86v-.86h-.86v.86ZM92.53,48.77h.86v-.86h-.86v.86ZM93.39,48.77h.86v-.86h-.86v.86Z"
    style="fill: #062638;" />
  <rect x="94.25" y="47.91" width=".86" height=".86" style="fill: #fff;" />
  <rect x="95.11" y="47.91" width=".86" height=".86" style="fill: #062638;" />
  <rect x="95.97" y="47.91" width=".86" height=".86" style="fill: #fff;" />
  <path d="M96.83,48.77h.86v-.86h-.86v.86ZM97.68,48.77h.86v-.86h-.86v.86Z" style="fill: #062638;" />
  <rect x="98.54" y="47.91" width=".86" height=".86" style="fill: #fff;" />
  <rect x="99.4" y="47.91" width=".86" height=".86" style="fill: #062638;" />
  <path d="M100.26,48.77h.86v-.86h-.86v.86ZM101.12,48.77h.86v-.86h-.86v.86Z" style="fill: #fff;" />
  <path d="M102.84,47.91h-.86v.86h1.72v-.86h-.86ZM104.55,47.91h-.86v.86h1.72v-.86h-.86Z" style="fill: #062638;" />
  <path d="M105.41,48.77h.86v-.86h-.86v.86ZM106.27,48.77h.86v-.86h-.86v.86Z" style="fill: #fff;" />
  <rect x="107.13" y="47.91" width=".86" height=".86" style="fill: #062638;" />
  <rect x="107.99" y="47.91" width=".86" height=".86" style="fill: #fff;" />
  <path
    d="M108.85,48.77h.86v-.86h-.86v.86ZM109.71,48.77h.86v-.86h-.86v.86ZM110.57,48.77h.86v-.86h-.86v.86ZM111.43,48.77h.86v-.86h-.86v.86ZM112.29,48.77h.86v-.86h-.86v.86ZM113.15,48.77h.86v-.86h-.86v.86Z"
    style="fill: #062638;" />
  <path d="M114,48.77h.86v-.86h-.86v.86ZM114.86,48.77h.86v-.86h-.86v.86Z" style="fill: #fff;" />
  <path
    d="M90.81,48.77h.86v.86h-.86v-.86ZM89.95,48.77h.86v.86h-.86v-.86ZM117.44,47.91h.86v.86h-.86v-.86ZM116.58,47.91h.86v.86h-.86v-.86ZM115.72,47.91h.86v.86h-.86v-.86Z"
    style="fill: #062638;" />
  <rect x="91.67" y="48.76" width=".86" height=".86" style="fill: #fff;" />
  <path d="M92.53,49.62h.86v-.86h-.86v.86ZM93.39,49.62h.86v-.86h-.86v.86Z" style="fill: #062638;" />
  <path d="M94.25,49.62h.86v-.86h-.86v.86ZM95.11,49.62h.86v-.86h-.86v.86Z" style="fill: #fff;" />
  <path d="M95.97,49.62h.86v-.86h-.86v.86ZM96.83,49.62h.86v-.86h-.86v.86ZM97.68,49.62h.86v-.86h-.86v.86Z"
    style="fill: #062638;" />
  <rect x="98.54" y="48.76" width=".86" height=".86" style="fill: #fff;" />
  <rect x="99.4" y="48.76" width=".86" height=".86" style="fill: #062638;" />
  <path d="M100.26,49.62h.86v-.86h-.86v.86ZM101.12,49.62h.86v-.86h-.86v.86Z" style="fill: #fff;" />
  <rect x="101.98" y="48.76" width=".86" height=".86" style="fill: #062638;" />
  <path d="M102.84,49.63h.86v-.86h-.86v.86ZM104.55,48.77h-.86v.86h1.72v-.86h-.86Z" style="fill: #fff;" />
  <rect x="105.41" y="48.76" width=".86" height=".86" style="fill: #062638;" />
  <path d="M106.27,49.62h.86v-.86h-.86v.86ZM107.13,49.62h.86v-.86h-.86v.86Z" style="fill: #fff;" />
  <path
    d="M107.99,49.62h.86v-.86h-.86v.86ZM108.85,49.62h.86v-.86h-.86v.86ZM109.71,49.62h.86v-.86h-.86v.86ZM110.57,49.62h.86v-.86h-.86v.86ZM111.43,49.62h.86v-.86h-.86v.86ZM112.29,49.62h.86v-.86h-.86v.86Z"
    style="fill: #062638;" />
  <path d="M113.15,49.62h.86v-.86h-.86v.86ZM114,49.62h.86v-.86h-.86v.86Z" style="fill: #fff;" />
  <rect x="114.86" y="48.76" width=".86" height=".86" style="fill: #062638;" />
  <path d="M115.72,49.62h.86v-.86h-.86v.86ZM116.58,49.62h.86v-.86h-.86v.86Z" style="fill: #fff;" />
  <path
    d="M95.11,49.62h.86v.86h-.86v-.86ZM94.25,49.62h.86v.86h-.86v-.86ZM93.39,49.62h.86v.86h-.86v-.86ZM92.53,49.62h.86v.86h-.86v-.86ZM91.67,49.62h.86v.86h-.86v-.86ZM90.81,49.62h.86v.86h-.86v-.86ZM89.95,49.62h.86v.86h-.86v-.86ZM117.44,48.77h.86v.86h-.86v-.86Z"
    style="fill: #062638;" />
  <path
    d="M95.97,50.48h.86v-.86h-.86v.86ZM96.83,50.48h.86v-.86h-.86v.86ZM97.68,50.48h.86v-.86h-.86v.86ZM98.54,50.48h.86v-.86h-.86v.86ZM99.4,50.48h.86v-.86h-.86v.86Z"
    style="fill: #fff;" />
  <path d="M100.26,50.48h.86v-.86h-.86v.86ZM101.12,50.48h.86v-.86h-.86v.86Z" style="fill: #062638;" />
  <polygon points="102.84 49.63 101.98 49.63 101.98 50.48 102.84 50.48 103.7 50.48 103.7 49.63 102.84 49.63"
    style="fill: #fff;" />
  <path d="M104.56,49.62h-.86v.86h1.72v-.86h-.86ZM105.41,50.48h.86v-.86h-.86v.86ZM106.27,50.48h.86v-.86h-.86v.86Z"
    style="fill: #062638;" />
  <path d="M107.13,50.48h.86v-.86h-.86v.86ZM107.99,50.48h.86v-.86h-.86v.86Z" style="fill: #fff;" />
  <rect x="108.85" y="49.62" width=".86" height=".86" style="fill: #062638;" />
  <rect x="109.71" y="49.62" width=".86" height=".86" style="fill: #fff;" />
  <rect x="110.57" y="49.62" width=".86" height=".86" style="fill: #062638;" />
  <rect x="111.43" y="49.62" width=".86" height=".86" style="fill: #fff;" />
  <path d="M112.29,50.48h.86v-.86h-.86v.86ZM113.15,50.48h.86v-.86h-.86v.86Z" style="fill: #062638;" />
  <rect x="114" y="49.62" width=".86" height=".86" style="fill: #fff;" />
  <rect x="114.86" y="49.62" width=".86" height=".86" style="fill: #062638;" />
  <rect x="115.72" y="49.62" width=".86" height=".86" style="fill: #fff;" />
  <rect x="116.58" y="49.62" width=".86" height=".86" style="fill: #062638;" />
  <path d="M89.95,50.48h.86v.86h-.86v-.86ZM117.44,49.62h.86v.86h-.86v-.86Z" style="fill: #fff;" />
  <rect x="90.81" y="50.48" width=".86" height=".86" style="fill: #062638;" />
  <path d="M91.67,51.34h.86v-.86h-.86v.86ZM92.53,51.34h.86v-.86h-.86v.86Z" style="fill: #fff;" />
  <rect x="93.39" y="50.48" width=".86" height=".86" style="fill: #062638;" />
  <path d="M94.25,51.34h.86v-.86h-.86v.86ZM95.11,51.34h.86v-.86h-.86v.86Z" style="fill: #fff;" />
  <rect x="95.97" y="50.48" width=".86" height=".86" style="fill: #062638;" />
  <rect x="96.83" y="50.48" width=".86" height=".86" style="fill: #fff;" />
  <rect x="97.68" y="50.48" width=".86" height=".86" style="fill: #062638;" />
  <path d="M98.54,51.34h.86v-.86h-.86v.86ZM99.4,51.34h.86v-.86h-.86v.86Z" style="fill: #fff;" />
  <rect x="100.26" y="50.48" width=".86" height=".86" style="fill: #062638;" />
  <path d="M101.12,51.34h.86v-.86h-.86v.86ZM102.84,50.48h-.86v.86h1.72v-.86h-.86Z" style="fill: #fff;" />
  <polygon points="104.55 50.48 103.7 50.48 103.7 51.34 104.56 51.34 105.41 51.34 105.41 50.48 104.55 50.48"
    style="fill: #062638;" />
  <rect x="105.41" y="50.48" width=".86" height=".86" style="fill: #fff;" />
  <rect x="106.27" y="50.48" width=".86" height=".86" style="fill: #062638;" />
  <rect x="107.13" y="50.48" width=".86" height=".86" style="fill: #fff;" />
  <path d="M107.99,51.34h.86v-.86h-.86v.86ZM108.85,51.34h.86v-.86h-.86v.86Z" style="fill: #062638;" />
  <path d="M109.71,51.34h.86v-.86h-.86v.86ZM110.57,51.34h.86v-.86h-.86v.86Z" style="fill: #fff;" />
  <rect x="111.43" y="50.48" width=".86" height=".86" style="fill: #062638;" />
  <path d="M112.29,51.34h.86v-.86h-.86v.86ZM113.15,51.34h.86v-.86h-.86v.86ZM114,51.34h.86v-.86h-.86v.86Z"
    style="fill: #fff;" />
  <path d="M114.86,51.34h.86v-.86h-.86v.86ZM115.72,51.34h.86v-.86h-.86v.86Z" style="fill: #062638;" />
  <rect x="116.58" y="50.48" width=".86" height=".86" style="fill: #fff;" />
  <rect x="117.44" y="50.48" width=".86" height=".86" style="fill: #062638;" />
  <rect x="89.95" y="51.34" width=".86" height=".86" style="fill: #fff;" />
  <path d="M90.81,52.2h.86v-.86h-.86v.86ZM91.67,52.2h.86v-.86h-.86v.86ZM92.53,52.2h.86v-.86h-.86v.86Z"
    style="fill: #062638;" />
  <path d="M93.39,52.2h.86v-.86h-.86v.86ZM94.25,52.2h.86v-.86h-.86v.86Z" style="fill: #fff;" />
  <rect x="95.11" y="51.34" width=".86" height=".86" style="fill: #062638;" />
  <path d="M95.97,52.2h.86v-.86h-.86v.86ZM96.83,52.2h.86v-.86h-.86v.86Z" style="fill: #fff;" />
  <rect x="97.68" y="51.34" width=".86" height=".86" style="fill: #062638;" />
  <path d="M98.54,52.2h.86v-.86h-.86v.86ZM99.4,52.2h.86v-.86h-.86v.86ZM100.26,52.2h.86v-.86h-.86v.86Z"
    style="fill: #fff;" />
  <rect x="101.12" y="51.34" width=".86" height=".86" style="fill: #062638;" />
  <polygon points="102.84 51.34 101.98 51.34 101.98 52.2 102.84 52.2 103.7 52.2 103.7 51.34 102.84 51.34"
    style="fill: #fff;" />
  <path d="M104.56,51.34h-.86v.86h1.72v-.86h-.86ZM105.41,52.2h.86v-.86h-.86v.86Z" style="fill: #062638;" />
  <rect x="106.27" y="51.34" width=".86" height=".86" style="fill: #fff;" />
  <path d="M107.13,52.2h.86v-.86h-.86v.86ZM107.99,52.2h.86v-.86h-.86v.86Z" style="fill: #062638;" />
  <path d="M108.85,52.2h.86v-.86h-.86v.86ZM109.71,52.2h.86v-.86h-.86v.86Z" style="fill: #fff;" />
  <path d="M110.57,52.2h.86v-.86h-.86v.86ZM111.43,52.2h.86v-.86h-.86v.86Z" style="fill: #062638;" />
  <rect x="112.29" y="51.34" width=".86" height=".86" style="fill: #fff;" />
  <path d="M113.15,52.2h.86v-.86h-.86v.86ZM114,52.2h.86v-.86h-.86v.86ZM114.86,52.2h.86v-.86h-.86v.86Z"
    style="fill: #062638;" />
  <path d="M115.72,52.2h.86v-.86h-.86v.86ZM116.58,52.2h.86v-.86h-.86v.86ZM117.44,52.2h.86v-.86h-.86v.86Z"
    style="fill: #fff;" />
  <rect x="89.95" y="52.2" width=".86" height=".86" style="fill: #062638;" />
  <rect x="90.81" y="52.2" width=".86" height=".86" style="fill: #fff;" />
  <rect x="91.67" y="52.2" width=".86" height=".86" style="fill: #062638;" />
  <path d="M92.53,53.06h.86v-.86h-.86v.86ZM93.39,53.06h.86v-.86h-.86v.86Z" style="fill: #fff;" />
  <rect x="94.25" y="52.2" width=".86" height=".86" style="fill: #062638;" />
  <path d="M95.11,53.06h.86v-.86h-.86v.86ZM95.97,53.06h.86v-.86h-.86v.86Z" style="fill: #fff;" />
  <path
    d="M96.83,53.06h.86v-.86h-.86v.86ZM97.68,53.06h.86v-.86h-.86v.86ZM98.54,53.06h.86v-.86h-.86v.86ZM99.4,53.06h.86v-.86h-.86v.86Z"
    style="fill: #062638;" />
  <path d="M100.26,53.06h.86v-.86h-.86v.86ZM101.12,53.06h.86v-.86h-.86v.86Z" style="fill: #fff;" />
  <rect x="101.98" y="52.2" width=".86" height=".86" style="fill: #062638;" />
  <path
    d="M102.84,53.06h.86v-.86h-.86v.86ZM104.56,52.2h-.86v.86h1.72v-.86h-.86ZM105.41,53.06h.86v-.86h-.86v.86ZM106.27,53.06h.86v-.86h-.86v.86Z"
    style="fill: #fff;" />
  <rect x="107.13" y="52.2" width=".86" height=".86" style="fill: #062638;" />
  <path d="M107.99,53.06h.86v-.86h-.86v.86ZM108.85,53.06h.86v-.86h-.86v.86Z" style="fill: #fff;" />
  <rect x="109.71" y="52.2" width=".86" height=".86" style="fill: #062638;" />
  <rect x="110.57" y="52.2" width=".86" height=".86" style="fill: #fff;" />
  <path d="M111.43,53.06h.86v-.86h-.86v.86ZM112.29,53.06h.86v-.86h-.86v.86Z" style="fill: #062638;" />
  <path d="M113.15,53.06h.86v-.86h-.86v.86ZM114,53.06h.86v-.86h-.86v.86ZM114.86,53.06h.86v-.86h-.86v.86Z"
    style="fill: #fff;" />
  <rect x="115.72" y="52.2" width=".86" height=".86" style="fill: #062638;" />
  <rect x="116.58" y="52.2" width=".86" height=".86" style="fill: #fff;" />
  <path d="M90.81,53.06h.86v.86h-.86v-.86ZM89.95,53.06h.86v.86h-.86v-.86ZM117.44,52.2h.86v.86h-.86v-.86Z"
    style="fill: #062638;" />
  <rect x="91.67" y="53.06" width=".86" height=".86" style="fill: #fff;" />
  <rect x="92.53" y="53.06" width=".86" height=".86" style="fill: #062638;" />
  <path d="M93.39,53.92h.86v-.86h-.86v.86ZM94.25,53.92h.86v-.86h-.86v.86Z" style="fill: #fff;" />
  <rect x="95.11" y="53.06" width=".86" height=".86" style="fill: #062638;" />
  <path d="M95.97,53.92h.86v-.86h-.86v.86ZM96.83,53.92h.86v-.86h-.86v.86Z" style="fill: #fff;" />
  <rect x="97.68" y="53.06" width=".86" height=".86" style="fill: #062638;" />
  <rect x="98.54" y="53.06" width=".86" height=".86" style="fill: #fff;" />
  <path
    d="M99.4,53.92h.86v-.86h-.86v.86ZM100.26,53.92h.86v-.86h-.86v.86ZM101.12,53.92h.86v-.86h-.86v.86ZM101.98,53.92h.86v-.86h-.86v.86Z"
    style="fill: #062638;" />
  <path d="M102.84,53.92h.86v-.86h-.86v.86ZM104.55,53.06h-.86v.86h1.72v-.86h-.86Z" style="fill: #fff;" />
  <path d="M105.41,53.92h.86v-.86h-.86v.86ZM106.27,53.92h.86v-.86h-.86v.86Z" style="fill: #062638;" />
  <path d="M107.13,53.92h.86v-.86h-.86v.86ZM107.99,53.92h.86v-.86h-.86v.86Z" style="fill: #fff;" />
  <rect x="108.85" y="53.06" width=".86" height=".86" style="fill: #062638;" />
  <path d="M109.71,53.92h.86v-.86h-.86v.86ZM110.57,53.92h.86v-.86h-.86v.86Z" style="fill: #fff;" />
  <path d="M111.43,53.92h.86v-.86h-.86v.86ZM112.29,53.92h.86v-.86h-.86v.86Z" style="fill: #062638;" />
  <path d="M113.15,53.92h.86v-.86h-.86v.86ZM114,53.92h.86v-.86h-.86v.86Z" style="fill: #fff;" />
  <rect x="114.86" y="53.06" width=".86" height=".86" style="fill: #062638;" />
  <rect x="115.72" y="53.06" width=".86" height=".86" style="fill: #fff;" />
  <rect x="116.58" y="53.06" width=".86" height=".86" style="fill: #062638;" />
  <rect x="117.44" y="53.06" width=".86" height=".86" style="fill: #fff;" />
  <rect x="89.95" y="53.92" width=".86" height=".86" style="fill: #062638;" />
  <rect x="90.81" y="53.92" width=".86" height=".86" style="fill: #fff;" />
  <rect x="91.67" y="53.92" width=".86" height=".86" style="fill: #062638;" />
  <path d="M92.53,54.78h.86v-.86h-.86v.86ZM93.39,54.78h.86v-.86h-.86v.86Z" style="fill: #fff;" />
  <rect x="94.25" y="53.92" width=".86" height=".86" style="fill: #062638;" />
  <path d="M95.11,54.78h.86v-.86h-.86v.86ZM95.97,54.78h.86v-.86h-.86v.86ZM96.83,54.78h.86v-.86h-.86v.86Z"
    style="fill: #fff;" />
  <path
    d="M97.68,54.78h.86v-.86h-.86v.86ZM98.54,54.78h.86v-.86h-.86v.86ZM99.4,54.78h.86v-.86h-.86v.86ZM100.26,54.78h.86v-.86h-.86v.86Z"
    style="fill: #062638;" />
  <rect x="101.12" y="53.92" width=".86" height=".86" style="fill: #fff;" />
  <polygon points="102.84 53.92 101.98 53.92 101.98 54.78 102.84 54.78 103.7 54.78 103.7 53.92 102.84 53.92"
    style="fill: #062638;" />
  <rect x="103.7" y="53.92" width=".86" height=".86" style="fill: #fff;" />
  <path d="M104.56,54.78h.86v-.86h-.86v.86ZM105.41,54.78h.86v-.86h-.86v.86ZM106.27,54.78h.86v-.86h-.86v.86Z"
    style="fill: #062638;" />
  <rect x="107.13" y="53.92" width=".86" height=".86" style="fill: #fff;" />
  <path d="M107.99,54.78h.86v-.86h-.86v.86ZM108.85,54.78h.86v-.86h-.86v.86Z" style="fill: #062638;" />
  <path d="M109.71,54.78h.86v-.86h-.86v.86ZM110.57,54.78h.86v-.86h-.86v.86ZM111.43,54.78h.86v-.86h-.86v.86Z"
    style="fill: #fff;" />
  <path d="M112.29,54.78h.86v-.86h-.86v.86ZM113.15,54.78h.86v-.86h-.86v.86Z" style="fill: #062638;" />
  <rect x="114" y="53.92" width=".86" height=".86" style="fill: #fff;" />
  <path d="M114.86,54.78h.86v-.86h-.86v.86ZM115.72,54.78h.86v-.86h-.86v.86ZM116.58,54.78h.86v-.86h-.86v.86Z"
    style="fill: #062638;" />
  <path
    d="M91.67,54.78h.86v.86h-.86v-.86ZM90.81,54.78h.86v.86h-.86v-.86ZM89.95,54.78h.86v.86h-.86v-.86ZM117.44,53.92h.86v.86h-.86v-.86Z"
    style="fill: #fff;" />
  <path d="M92.53,55.64h.86v-.86h-.86v.86ZM93.39,55.64h.86v-.86h-.86v.86Z" style="fill: #062638;" />
  <rect x="94.25" y="54.78" width=".86" height=".86" style="fill: #fff;" />
  <path d="M95.11,55.64h.86v-.86h-.86v.86ZM95.97,55.64h.86v-.86h-.86v.86ZM96.83,55.64h.86v-.86h-.86v.86Z"
    style="fill: #062638;" />
  <rect x="97.68" y="54.78" width=".86" height=".86" style="fill: #fff;" />
  <rect x="98.54" y="54.78" width=".86" height=".86" style="fill: #062638;" />
  <path d="M99.4,55.64h.86v-.86h-.86v.86ZM100.26,55.64h.86v-.86h-.86v.86Z" style="fill: #fff;" />
  <path d="M101.12,55.64h.86v-.86h-.86v.86ZM101.98,55.64h.86v-.86h-.86v.86Z" style="fill: #062638;" />
  <rect x="102.84" y="54.78" width=".86" height=".86" style="fill: #fff;" />
  <rect x="103.7" y="54.78" width=".86" height=".86" style="fill: #062638;" />
  <rect x="104.56" y="54.78" width=".86" height=".86" style="fill: #fff;" />
  <rect x="105.41" y="54.78" width=".86" height=".86" style="fill: #062638;" />
  <path
    d="M106.27,55.64h.86v-.86h-.86v.86ZM107.13,55.64h.86v-.86h-.86v.86ZM107.99,55.64h.86v-.86h-.86v.86ZM108.85,55.64h.86v-.86h-.86v.86ZM109.71,55.64h.86v-.86h-.86v.86ZM110.57,55.64h.86v-.86h-.86v.86Z"
    style="fill: #fff;" />
  <rect x="111.43" y="54.78" width=".86" height=".86" style="fill: #062638;" />
  <rect x="112.29" y="54.78" width=".86" height=".86" style="fill: #fff;" />
  <path d="M113.15,55.64h.86v-.86h-.86v.86ZM114,55.64h.86v-.86h-.86v.86Z" style="fill: #062638;" />
  <path
    d="M114.86,55.64h.86v-.86h-.86v.86ZM115.72,55.64h.86v-.86h-.86v.86ZM116.58,55.64h.86v-.86h-.86v.86ZM117.44,55.64h.86v-.86h-.86v.86Z"
    style="fill: #fff;" />
  <rect x="89.95" y="55.64" width=".86" height=".86" style="fill: #062638;" />
  <rect x="90.81" y="55.64" width=".86" height=".86" style="fill: #fff;" />
  <path d="M91.67,56.5h.86v-.86h-.86v.86ZM92.53,56.5h.86v-.86h-.86v.86Z" style="fill: #062638;" />
  <path
    d="M93.39,56.5h.86v-.86h-.86v.86ZM94.25,56.5h.86v-.86h-.86v.86ZM95.11,56.5h.86v-.86h-.86v.86ZM95.97,56.5h.86v-.86h-.86v.86Z"
    style="fill: #fff;" />
  <path d="M96.83,56.5h.86v-.86h-.86v.86ZM97.68,56.5h.86v-.86h-.86v.86Z" style="fill: #062638;" />
  <path
    d="M98.54,56.5h.86v-.86h-.86v.86ZM99.4,56.5h.86v-.86h-.86v.86ZM100.26,56.5h.86v-.86h-.86v.86ZM101.12,56.5h.86v-.86h-.86v.86Z"
    style="fill: #fff;" />
  <rect x="101.98" y="55.64" width=".86" height=".86" style="fill: #062638;" />
  <rect x="102.84" y="55.64" width=".86" height=".86" style="fill: #fff;" />
  <path d="M104.56,55.64h-.86v.86h1.72v-.86h-.86ZM105.41,56.5h.86v-.86h-.86v.86ZM106.27,56.5h.86v-.86h-.86v.86Z"
    style="fill: #062638;" />
  <rect x="107.13" y="55.64" width=".86" height=".86" style="fill: #fff;" />
  <rect x="107.99" y="55.64" width=".86" height=".86" style="fill: #062638;" />
  <rect x="108.85" y="55.64" width=".86" height=".86" style="fill: #fff;" />
  <path d="M109.71,56.5h.86v-.86h-.86v.86ZM110.57,56.5h.86v-.86h-.86v.86Z" style="fill: #062638;" />
  <rect x="111.43" y="55.64" width=".86" height=".86" style="fill: #fff;" />
  <path d="M112.29,56.5h.86v-.86h-.86v.86ZM113.15,56.5h.86v-.86h-.86v.86Z" style="fill: #062638;" />
  <path
    d="M114,56.5h.86v-.86h-.86v.86ZM114.86,56.5h.86v-.86h-.86v.86ZM115.72,56.5h.86v-.86h-.86v.86ZM116.58,56.5h.86v-.86h-.86v.86Z"
    style="fill: #fff;" />
  <rect x="117.44" y="55.64" width=".86" height=".86" style="fill: #062638;" />
  <rect x="89.95" y="56.5" width=".86" height=".86" style="fill: #fff;" />
  <path
    d="M90.81,57.36h.86v-.86h-.86v.86ZM91.67,57.36h.86v-.86h-.86v.86ZM92.53,57.36h.86v-.86h-.86v.86ZM93.39,57.36h.86v-.86h-.86v.86Z"
    style="fill: #062638;" />
  <rect x="94.25" y="56.5" width=".86" height=".86" style="fill: #fff;" />
  <path d="M95.11,57.36h.86v-.86h-.86v.86ZM95.97,57.36h.86v-.86h-.86v.86ZM96.83,57.36h.86v-.86h-.86v.86Z"
    style="fill: #062638;" />
  <rect x="97.68" y="56.5" width=".86" height=".86" style="fill: #fff;" />
  <rect x="98.54" y="56.5" width=".86" height=".86" style="fill: #062638;" />
  <rect x="99.4" y="56.5" width=".86" height=".86" style="fill: #fff;" />
  <path d="M100.26,57.36h.86v-.86h-.86v.86ZM101.12,57.36h.86v-.86h-.86v.86Z" style="fill: #062638;" />
  <rect x="101.98" y="56.5" width=".86" height=".86" style="fill: #fff;" />
  <rect x="102.84" y="56.5" width=".86" height=".86" style="fill: #062638;" />
  <polygon points="104.55 56.5 103.7 56.5 103.7 57.36 104.56 57.36 105.41 57.36 105.41 56.5 104.55 56.5"
    style="fill: #fff;" />
  <rect x="105.41" y="56.5" width=".86" height=".86" style="fill: #062638;" />
  <rect x="106.27" y="56.5" width=".86" height=".86" style="fill: #fff;" />
  <path d="M107.13,57.36h.86v-.86h-.86v.86ZM107.99,57.36h.86v-.86h-.86v.86ZM108.85,57.36h.86v-.86h-.86v.86Z"
    style="fill: #062638;" />
  <path d="M109.71,57.36h.86v-.86h-.86v.86ZM110.57,57.36h.86v-.86h-.86v.86Z" style="fill: #fff;" />
  <rect x="111.43" y="56.5" width=".86" height=".86" style="fill: #062638;" />
  <path d="M112.29,57.36h.86v-.86h-.86v.86ZM113.15,57.36h.86v-.86h-.86v.86Z" style="fill: #fff;" />
  <rect x="114" y="56.5" width=".86" height=".86" style="fill: #062638;" />
  <rect x="114.86" y="56.5" width=".86" height=".86" style="fill: #fff;" />
  <path d="M115.72,57.36h.86v-.86h-.86v.86ZM116.58,57.36h.86v-.86h-.86v.86Z" style="fill: #062638;" />
  <path d="M90.81,57.36h.86v.86h-.86v-.86ZM89.95,57.36h.86v.86h-.86v-.86ZM117.44,56.5h.86v.86h-.86v-.86Z"
    style="fill: #fff;" />
  <rect x="91.67" y="57.36" width=".86" height=".86" style="fill: #062638;" />
  <rect x="92.53" y="57.36" width=".86" height=".86" style="fill: #fff;" />
  <rect x="93.39" y="57.36" width=".86" height=".86" style="fill: #062638;" />
  <path
    d="M94.25,58.21h.86v-.86h-.86v.86ZM95.11,58.21h.86v-.86h-.86v.86ZM95.97,58.21h.86v-.86h-.86v.86ZM96.83,58.21h.86v-.86h-.86v.86ZM97.68,58.21h.86v-.86h-.86v.86Z"
    style="fill: #fff;" />
  <rect x="98.54" y="57.36" width=".86" height=".86" style="fill: #062638;" />
  <rect x="99.4" y="57.36" width=".86" height=".86" style="fill: #fff;" />
  <path d="M100.26,58.21h.86v-.86h-.86v.86ZM101.12,58.21h.86v-.86h-.86v.86Z" style="fill: #062638;" />
  <path d="M102.84,57.36h-.86v.86h1.72v-.86h-.86ZM103.7,58.21h.86v-.86h-.86v.86Z" style="fill: #fff;" />
  <path
    d="M104.56,58.21h.86v-.86h-.86v.86ZM105.41,58.21h.86v-.86h-.86v.86ZM106.27,58.21h.86v-.86h-.86v.86ZM107.13,58.21h.86v-.86h-.86v.86ZM107.99,58.21h.86v-.86h-.86v.86Z"
    style="fill: #062638;" />
  <rect x="108.85" y="57.36" width=".86" height=".86" style="fill: #fff;" />
  <path
    d="M109.71,58.21h.86v-.86h-.86v.86ZM110.57,58.21h.86v-.86h-.86v.86ZM111.43,58.21h.86v-.86h-.86v.86ZM112.29,58.21h.86v-.86h-.86v.86ZM113.15,58.21h.86v-.86h-.86v.86Z"
    style="fill: #062638;" />
  <rect x="114" y="57.36" width=".86" height=".86" style="fill: #fff;" />
  <path d="M114.86,58.21h.86v-.86h-.86v.86ZM115.72,58.21h.86v-.86h-.86v.86ZM116.58,58.21h.86v-.86h-.86v.86Z"
    style="fill: #062638;" />
  <rect x="117.44" y="57.36" width=".86" height=".86" style="fill: #fff;" />
  <rect x="89.95" y="58.21" width=".86" height=".86" style="fill: #062638;" />
  <path d="M90.81,59.07h.86v-.86h-.86v.86ZM91.67,59.07h.86v-.86h-.86v.86ZM92.53,59.07h.86v-.86h-.86v.86Z"
    style="fill: #fff;" />
  <path d="M93.39,59.07h.86v-.86h-.86v.86ZM94.25,59.07h.86v-.86h-.86v.86ZM95.11,59.07h.86v-.86h-.86v.86Z"
    style="fill: #062638;" />
  <rect x="95.97" y="58.21" width=".86" height=".86" style="fill: #fff;" />
  <path
    d="M96.83,59.07h.86v-.86h-.86v.86ZM97.68,59.07h.86v-.86h-.86v.86ZM98.54,59.07h.86v-.86h-.86v.86ZM99.4,59.07h.86v-.86h-.86v.86Z"
    style="fill: #062638;" />
  <path d="M100.26,59.07h.86v-.86h-.86v.86ZM101.12,59.07h.86v-.86h-.86v.86Z" style="fill: #fff;" />
  <path d="M102.84,58.21h-.86v.86h1.72v-.86h-.86ZM103.7,59.07h.86v-.86h-.86v.86Z" style="fill: #062638;" />
  <path d="M104.56,59.07h.86v-.86h-.86v.86ZM105.41,59.07h.86v-.86h-.86v.86Z" style="fill: #fff;" />
  <rect x="106.27" y="58.21" width=".86" height=".86" style="fill: #062638;" />
  <path
    d="M107.13,59.07h.86v-.86h-.86v.86ZM107.99,59.07h.86v-.86h-.86v.86ZM108.85,59.07h.86v-.86h-.86v.86ZM109.71,59.07h.86v-.86h-.86v.86Z"
    style="fill: #fff;" />
  <path d="M110.57,59.07h.86v-.86h-.86v.86ZM111.43,59.07h.86v-.86h-.86v.86Z" style="fill: #062638;" />
  <rect x="112.29" y="58.21" width=".86" height=".86" style="fill: #fff;" />
  <path d="M113.15,59.07h.86v-.86h-.86v.86ZM114,59.07h.86v-.86h-.86v.86ZM114.86,59.07h.86v-.86h-.86v.86Z"
    style="fill: #062638;" />
  <path d="M115.72,59.07h.86v-.86h-.86v.86ZM116.58,59.07h.86v-.86h-.86v.86ZM117.44,59.07h.86v-.86h-.86v.86Z"
    style="fill: #fff;" />
  <path d="M89.95,59.93h.86v-.86h-.86v.86ZM90.81,59.93h.86v-.86h-.86v.86Z" style="fill: #062638;" />
  <path
    d="M91.67,59.93h.86v-.86h-.86v.86ZM92.53,59.93h.86v-.86h-.86v.86ZM93.39,59.93h.86v-.86h-.86v.86ZM94.25,59.93h.86v-.86h-.86v.86ZM95.11,59.93h.86v-.86h-.86v.86ZM95.97,59.93h.86v-.86h-.86v.86Z"
    style="fill: #fff;" />
  <rect x="96.83" y="59.07" width=".86" height=".86" style="fill: #062638;" />
  <rect x="97.68" y="59.07" width=".86" height=".86" style="fill: #fff;" />
  <path
    d="M98.54,59.93h.86v-.86h-.86v.86ZM99.4,59.93h.86v-.86h-.86v.86ZM100.26,59.93h.86v-.86h-.86v.86ZM101.12,59.93h.86v-.86h-.86v.86Z"
    style="fill: #062638;" />
  <path d="M102.84,59.07h-.86v.86h1.72v-.86h-.86ZM104.56,59.07h-.86v.86h1.72v-.86h-.86ZM105.41,59.93h.86v-.86h-.86v.86Z"
    style="fill: #fff;" />
  <path d="M106.27,59.93h.86v-.86h-.86v.86ZM107.13,59.93h.86v-.86h-.86v.86ZM107.99,59.93h.86v-.86h-.86v.86Z"
    style="fill: #062638;" />
  <rect x="108.85" y="59.07" width=".86" height=".86" style="fill: #fff;" />
  <rect x="109.71" y="59.07" width=".86" height=".86" style="fill: #062638;" />
  <path d="M110.57,59.93h.86v-.86h-.86v.86ZM111.43,59.93h.86v-.86h-.86v.86Z" style="fill: #fff;" />
  <rect x="112.29" y="59.07" width=".86" height=".86" style="fill: #062638;" />
  <path d="M113.15,59.93h.86v-.86h-.86v.86ZM114,59.93h.86v-.86h-.86v.86Z" style="fill: #fff;" />
  <path d="M114.86,59.93h.86v-.86h-.86v.86ZM115.72,59.93h.86v-.86h-.86v.86Z" style="fill: #062638;" />
  <rect x="116.58" y="59.07" width=".86" height=".86" style="fill: #fff;" />
  <path d="M89.95,59.93h.86v.86h-.86v-.86ZM117.44,59.07h.86v.86h-.86v-.86Z" style="fill: #062638;" />
  <rect x="90.81" y="59.93" width=".86" height=".86" style="fill: #fff;" />
  <path d="M91.67,60.79h.86v-.86h-.86v.86ZM92.53,60.79h.86v-.86h-.86v.86Z" style="fill: #062638;" />
  <rect x="93.39" y="59.93" width=".86" height=".86" style="fill: #fff;" />
  <path d="M94.25,60.79h.86v-.86h-.86v.86ZM95.11,60.79h.86v-.86h-.86v.86Z" style="fill: #062638;" />
  <path
    d="M95.97,60.79h.86v-.86h-.86v.86ZM96.83,60.79h.86v-.86h-.86v.86ZM97.68,60.79h.86v-.86h-.86v.86ZM98.54,60.79h.86v-.86h-.86v.86Z"
    style="fill: #fff;" />
  <rect x="99.4" y="59.93" width=".86" height=".86" style="fill: #062638;" />
  <path d="M100.26,60.79h.86v-.86h-.86v.86ZM101.12,60.79h.86v-.86h-.86v.86ZM102.84,59.93h-.86v.86h1.72v-.86h-.86Z"
    style="fill: #fff;" />
  <path d="M104.56,59.93h-.86v.86h1.72v-.86h-.86ZM105.41,60.79h.86v-.86h-.86v.86ZM106.27,60.79h.86v-.86h-.86v.86Z"
    style="fill: #062638;" />
  <rect x="107.13" y="59.93" width=".86" height=".86" style="fill: #fff;" />
  <rect x="107.99" y="59.93" width=".86" height=".86" style="fill: #062638;" />
  <path
    d="M108.85,60.79h.86v-.86h-.86v.86ZM109.71,60.79h.86v-.86h-.86v.86ZM110.57,60.79h.86v-.86h-.86v.86ZM111.43,60.79h.86v-.86h-.86v.86ZM112.29,60.79h.86v-.86h-.86v.86Z"
    style="fill: #fff;" />
  <rect x="113.15" y="59.93" width=".86" height=".86" style="fill: #062638;" />
  <rect x="114" y="59.93" width=".86" height=".86" style="fill: #fff;" />
  <path d="M114.86,60.79h.86v-.86h-.86v.86ZM115.72,60.79h.86v-.86h-.86v.86ZM116.58,60.79h.86v-.86h-.86v.86Z"
    style="fill: #062638;" />
  <rect x="117.44" y="59.93" width=".86" height=".86" style="fill: #fff;" />
  <rect x="89.95" y="60.79" width=".86" height=".86" style="fill: #062638;" />
  <path d="M90.81,61.65h.86v-.86h-.86v.86ZM91.67,61.65h.86v-.86h-.86v.86ZM92.53,61.65h.86v-.86h-.86v.86Z"
    style="fill: #fff;" />
  <rect x="93.39" y="60.79" width=".86" height=".86" style="fill: #062638;" />
  <path d="M94.25,61.65h.86v-.86h-.86v.86ZM95.11,61.65h.86v-.86h-.86v.86Z" style="fill: #fff;" />
  <path d="M95.97,61.65h.86v-.86h-.86v.86ZM96.83,61.65h.86v-.86h-.86v.86Z" style="fill: #062638;" />
  <rect x="97.68" y="60.79" width=".86" height=".86" style="fill: #fff;" />
  <path
    d="M98.54,61.65h.86v-.86h-.86v.86ZM99.4,61.65h.86v-.86h-.86v.86ZM100.26,61.65h.86v-.86h-.86v.86ZM101.12,61.65h.86v-.86h-.86v.86ZM102.84,60.79h-.86v.86h1.72v-.86h-.86Z"
    style="fill: #062638;" />
  <path d="M104.56,60.79h-.86v.86h1.72v-.86h-.86ZM105.41,61.65h.86v-.86h-.86v.86Z" style="fill: #fff;" />
  <rect x="106.27" y="60.79" width=".86" height=".86" style="fill: #062638;" />
  <rect x="107.13" y="60.79" width=".86" height=".86" style="fill: #fff;" />
  <rect x="107.99" y="60.79" width=".86" height=".86" style="fill: #062638;" />
  <path d="M108.85,61.65h.86v-.86h-.86v.86ZM109.71,61.65h.86v-.86h-.86v.86Z" style="fill: #fff;" />
  <rect x="110.57" y="60.79" width=".86" height=".86" style="fill: #062638;" />
  <path
    d="M111.43,61.65h.86v-.86h-.86v.86ZM112.29,61.65h.86v-.86h-.86v.86ZM113.15,61.65h.86v-.86h-.86v.86ZM114,61.65h.86v-.86h-.86v.86Z"
    style="fill: #fff;" />
  <path d="M114.86,61.65h.86v-.86h-.86v.86ZM115.72,61.65h.86v-.86h-.86v.86Z" style="fill: #062638;" />
  <rect x="116.58" y="60.79" width=".86" height=".86" style="fill: #fff;" />
  <path d="M89.95,61.65h.86v.86h-.86v-.86ZM117.44,60.79h.86v.86h-.86v-.86Z" style="fill: #062638;" />
  <path d="M90.81,62.51h.86v-.86h-.86v.86ZM91.67,62.51h.86v-.86h-.86v.86Z" style="fill: #fff;" />
  <rect x="92.53" y="61.65" width=".86" height=".86" style="fill: #062638;" />
  <path d="M93.39,62.51h.86v-.86h-.86v.86ZM94.25,62.51h.86v-.86h-.86v.86Z" style="fill: #fff;" />
  <rect x="95.11" y="61.65" width=".86" height=".86" style="fill: #062638;" />
  <rect x="95.97" y="61.65" width=".86" height=".86" style="fill: #fff;" />
  <rect x="96.83" y="61.65" width=".86" height=".86" style="fill: #062638;" />
  <rect x="97.68" y="61.65" width=".86" height=".86" style="fill: #fff;" />
  <path d="M98.54,62.51h.86v-.86h-.86v.86ZM99.4,62.51h.86v-.86h-.86v.86Z" style="fill: #062638;" />
  <rect x="100.26" y="61.65" width=".86" height=".86" style="fill: #fff;" />
  <rect x="101.12" y="61.65" width=".86" height=".86" style="fill: #062638;" />
  <rect x="101.98" y="61.65" width=".86" height=".86" style="fill: #fff;" />
  <path d="M102.84,62.51h.86v-.86h-.86v.86ZM103.7,62.51h.86v-.86h-.86v.86Z" style="fill: #062638;" />
  <path d="M104.56,62.51h.86v-.86h-.86v.86ZM105.41,62.51h.86v-.86h-.86v.86Z" style="fill: #fff;" />
  <path d="M106.27,62.51h.86v-.86h-.86v.86ZM107.13,62.51h.86v-.86h-.86v.86Z" style="fill: #062638;" />
  <rect x="107.99" y="61.65" width=".86" height=".86" style="fill: #fff;" />
  <path
    d="M108.85,62.51h.86v-.86h-.86v.86ZM109.71,62.51h.86v-.86h-.86v.86ZM110.57,62.51h.86v-.86h-.86v.86ZM111.43,62.51h.86v-.86h-.86v.86ZM112.29,62.51h.86v-.86h-.86v.86ZM113.15,62.51h.86v-.86h-.86v.86ZM114,62.51h.86v-.86h-.86v.86Z"
    style="fill: #062638;" />
  <path d="M114.86,62.51h.86v-.86h-.86v.86ZM115.72,62.51h.86v-.86h-.86v.86Z" style="fill: #fff;" />
  <path d="M116.58,62.51h.86v-.86h-.86v.86ZM117.44,62.51h.86v-.86h-.86v.86Z" style="fill: #062638;" />
  <path
    d="M89.95,63.37h.86v-.86h-.86v.86ZM90.81,63.37h.86v-.86h-.86v.86ZM91.67,63.37h.86v-.86h-.86v.86ZM92.53,63.37h.86v-.86h-.86v.86ZM93.39,63.37h.86v-.86h-.86v.86ZM94.25,63.37h.86v-.86h-.86v.86ZM95.11,63.37h.86v-.86h-.86v.86ZM95.97,63.37h.86v-.86h-.86v.86Z"
    style="fill: #fff;" />
  <path d="M96.83,63.37h.86v-.86h-.86v.86ZM97.68,63.37h.86v-.86h-.86v.86ZM98.54,63.37h.86v-.86h-.86v.86Z"
    style="fill: #062638;" />
  <rect x="99.4" y="62.51" width=".86" height=".86" style="fill: #fff;" />
  <rect x="100.26" y="62.51" width=".86" height=".86" style="fill: #062638;" />
  <rect x="101.12" y="62.51" width=".86" height=".86" style="fill: #fff;" />
  <polygon points="102.84 62.51 101.98 62.51 101.98 63.37 102.84 63.37 103.7 63.37 103.7 62.51 102.84 62.51"
    style="fill: #062638;" />
  <polygon points="104.55 62.51 103.7 62.51 103.7 63.37 104.56 63.37 105.41 63.37 105.41 62.51 104.55 62.51"
    style="fill: #fff;" />
  <path d="M105.41,63.37h.86v-.86h-.86v.86ZM106.27,63.37h.86v-.86h-.86v.86ZM107.13,63.37h.86v-.86h-.86v.86Z"
    style="fill: #062638;" />
  <path d="M107.99,63.37h.86v-.86h-.86v.86ZM108.85,63.37h.86v-.86h-.86v.86Z" style="fill: #fff;" />
  <path d="M109.71,63.37h.86v-.86h-.86v.86ZM110.57,63.37h.86v-.86h-.86v.86Z" style="fill: #062638;" />
  <path d="M111.43,63.37h.86v-.86h-.86v.86ZM112.29,63.37h.86v-.86h-.86v.86ZM113.15,63.37h.86v-.86h-.86v.86Z"
    style="fill: #fff;" />
  <path
    d="M95.11,63.37h.86v.86h-.86v-.86ZM94.25,63.37h.86v.86h-.86v-.86ZM93.39,63.37h.86v.86h-.86v-.86ZM92.53,63.37h.86v.86h-.86v-.86ZM91.67,63.37h.86v.86h-.86v-.86ZM90.81,63.37h.86v.86h-.86v-.86ZM89.95,63.37h.86v.86h-.86v-.86ZM117.44,62.51h.86v.86h-.86v-.86ZM116.58,62.51h.86v.86h-.86v-.86ZM115.72,62.51h.86v.86h-.86v-.86ZM114.86,62.51h.86v.86h-.86v-.86ZM114,62.51h.86v.86h-.86v-.86Z"
    style="fill: #062638;" />
  <path
    d="M95.97,64.23h.86v-.86h-.86v.86ZM96.83,64.23h.86v-.86h-.86v.86ZM97.68,64.23h.86v-.86h-.86v.86ZM98.54,64.23h.86v-.86h-.86v.86ZM99.4,64.23h.86v-.86h-.86v.86ZM100.26,64.23h.86v-.86h-.86v.86Z"
    style="fill: #fff;" />
  <path d="M101.12,64.23h.86v-.86h-.86v.86ZM102.84,63.37h-.86v.86h1.72v-.86h-.86Z" style="fill: #062638;" />
  <rect x="103.7" y="63.37" width=".86" height=".86" style="fill: #fff;" />
  <rect x="104.56" y="63.37" width=".86" height=".86" style="fill: #062638;" />
  <path
    d="M105.41,64.23h.86v-.86h-.86v.86ZM106.27,64.23h.86v-.86h-.86v.86ZM107.13,64.23h.86v-.86h-.86v.86ZM107.99,64.23h.86v-.86h-.86v.86Z"
    style="fill: #fff;" />
  <path d="M108.85,64.23h.86v-.86h-.86v.86ZM109.71,64.23h.86v-.86h-.86v.86ZM110.57,64.23h.86v-.86h-.86v.86Z"
    style="fill: #062638;" />
  <rect x="111.43" y="63.37" width=".86" height=".86" style="fill: #fff;" />
  <rect x="112.29" y="63.37" width=".86" height=".86" style="fill: #062638;" />
  <rect x="113.15" y="63.37" width=".86" height=".86" style="fill: #fff;" />
  <rect x="114" y="63.37" width=".86" height=".86" style="fill: #062638;" />
  <path d="M114.86,64.23h.86v-.86h-.86v.86ZM115.72,64.23h.86v-.86h-.86v.86Z" style="fill: #fff;" />
  <rect x="116.58" y="63.37" width=".86" height=".86" style="fill: #062638;" />
  <rect x="117.44" y="63.37" width=".86" height=".86" style="fill: #fff;" />
  <rect x="89.95" y="64.23" width=".86" height=".86" style="fill: #062638;" />
  <path
    d="M90.81,65.09h.86v-.86h-.86v.86ZM91.67,65.09h.86v-.86h-.86v.86ZM92.53,65.09h.86v-.86h-.86v.86ZM93.39,65.09h.86v-.86h-.86v.86ZM94.25,65.09h.86v-.86h-.86v.86Z"
    style="fill: #fff;" />
  <rect x="95.11" y="64.23" width=".86" height=".86" style="fill: #062638;" />
  <path d="M95.97,65.09h.86v-.86h-.86v.86ZM96.83,65.09h.86v-.86h-.86v.86ZM97.68,65.09h.86v-.86h-.86v.86Z"
    style="fill: #fff;" />
  <rect x="98.54" y="64.23" width=".86" height=".86" style="fill: #062638;" />
  <rect x="99.4" y="64.23" width=".86" height=".86" style="fill: #fff;" />
  <path d="M100.26,65.09h.86v-.86h-.86v.86ZM101.12,65.09h.86v-.86h-.86v.86Z" style="fill: #062638;" />
  <rect x="101.98" y="64.23" width=".86" height=".86" style="fill: #fff;" />
  <path d="M102.84,65.09h.86v-.86h-.86v.86ZM104.55,64.23h-.86v.86h1.72v-.86h-.86Z" style="fill: #062638;" />
  <rect x="105.41" y="64.23" width=".86" height=".86" style="fill: #fff;" />
  <rect x="106.27" y="64.23" width=".86" height=".86" style="fill: #062638;" />
  <path d="M107.13,65.09h.86v-.86h-.86v.86ZM107.99,65.09h.86v-.86h-.86v.86ZM108.85,65.09h.86v-.86h-.86v.86Z"
    style="fill: #fff;" />
  <path d="M109.71,65.09h.86v-.86h-.86v.86ZM110.57,65.09h.86v-.86h-.86v.86Z" style="fill: #062638;" />
  <path d="M111.43,65.09h.86v-.86h-.86v.86ZM112.29,65.09h.86v-.86h-.86v.86ZM113.15,65.09h.86v-.86h-.86v.86Z"
    style="fill: #fff;" />
  <path
    d="M89.95,65.09h.86v.86h-.86v-.86ZM117.44,64.23h.86v.86h-.86v-.86ZM116.58,64.23h.86v.86h-.86v-.86ZM115.72,64.23h.86v.86h-.86v-.86ZM114.86,64.23h.86v.86h-.86v-.86ZM114,64.23h.86v.86h-.86v-.86Z"
    style="fill: #062638;" />
  <rect x="90.81" y="65.09" width=".86" height=".86" style="fill: #fff;" />
  <path d="M91.67,65.95h.86v-.86h-.86v.86ZM92.53,65.95h.86v-.86h-.86v.86ZM93.39,65.95h.86v-.86h-.86v.86Z"
    style="fill: #062638;" />
  <rect x="94.25" y="65.09" width=".86" height=".86" style="fill: #fff;" />
  <rect x="95.11" y="65.09" width=".86" height=".86" style="fill: #062638;" />
  <rect x="95.97" y="65.09" width=".86" height=".86" style="fill: #fff;" />
  <path
    d="M96.83,65.95h.86v-.86h-.86v.86ZM97.68,65.95h.86v-.86h-.86v.86ZM98.54,65.95h.86v-.86h-.86v.86ZM99.4,65.95h.86v-.86h-.86v.86ZM100.26,65.95h.86v-.86h-.86v.86ZM101.12,65.95h.86v-.86h-.86v.86Z"
    style="fill: #062638;" />
  <polygon points="102.84 65.09 101.98 65.09 101.98 65.95 102.84 65.95 103.7 65.95 103.7 65.09 102.84 65.09"
    style="fill: #fff;" />
  <rect x="103.7" y="65.09" width=".86" height=".86" style="fill: #062638;" />
  <rect x="104.56" y="65.09" width=".86" height=".86" style="fill: #fff;" />
  <path d="M105.41,65.95h.86v-.86h-.86v.86ZM106.27,65.95h.86v-.86h-.86v.86Z" style="fill: #062638;" />
  <rect x="107.13" y="65.09" width=".86" height=".86" style="fill: #fff;" />
  <path d="M107.99,65.95h.86v-.86h-.86v.86ZM108.85,65.95h.86v-.86h-.86v.86Z" style="fill: #062638;" />
  <rect x="109.71" y="65.09" width=".86" height=".86" style="fill: #fff;" />
  <path
    d="M110.57,65.95h.86v-.86h-.86v.86ZM111.43,65.95h.86v-.86h-.86v.86ZM112.29,65.95h.86v-.86h-.86v.86ZM113.15,65.95h.86v-.86h-.86v.86ZM114,65.95h.86v-.86h-.86v.86ZM114.86,65.95h.86v-.86h-.86v.86Z"
    style="fill: #062638;" />
  <rect x="115.72" y="65.09" width=".86" height=".86" style="fill: #fff;" />
  <path d="M89.95,65.95h.86v.86h-.86v-.86ZM117.44,65.09h.86v.86h-.86v-.86ZM116.58,65.09h.86v.86h-.86v-.86Z"
    style="fill: #062638;" />
  <rect x="90.81" y="65.95" width=".86" height=".86" style="fill: #fff;" />
  <path d="M91.67,66.8h.86v-.86h-.86v.86ZM92.53,66.8h.86v-.86h-.86v.86ZM93.39,66.8h.86v-.86h-.86v.86Z"
    style="fill: #062638;" />
  <rect x="94.25" y="65.95" width=".86" height=".86" style="fill: #fff;" />
  <rect x="95.11" y="65.95" width=".86" height=".86" style="fill: #062638;" />
  <rect x="95.97" y="65.95" width=".86" height=".86" style="fill: #fff;" />
  <path d="M96.83,66.8h.86v-.86h-.86v.86ZM97.68,66.8h.86v-.86h-.86v.86Z" style="fill: #062638;" />
  <path d="M98.54,66.8h.86v-.86h-.86v.86ZM99.4,66.8h.86v-.86h-.86v.86Z" style="fill: #fff;" />
  <rect x="100.26" y="65.95" width=".86" height=".86" style="fill: #062638;" />
  <rect x="101.12" y="65.95" width=".86" height=".86" style="fill: #fff;" />
  <rect x="101.98" y="65.95" width=".86" height=".86" style="fill: #062638;" />
  <path d="M102.84,66.8h.86v-.86h-.86v.86ZM104.55,65.95h-.86v.86h1.72v-.86h-.86Z" style="fill: #fff;" />
  <rect x="105.41" y="65.95" width=".86" height=".86" style="fill: #062638;" />
  <rect x="106.27" y="65.95" width=".86" height=".86" style="fill: #fff;" />
  <path d="M107.13,66.8h.86v-.86h-.86v.86ZM107.99,66.8h.86v-.86h-.86v.86Z" style="fill: #062638;" />
  <rect x="108.85" y="65.95" width=".86" height=".86" style="fill: #fff;" />
  <path d="M109.71,66.8h.86v-.86h-.86v.86ZM110.57,66.8h.86v-.86h-.86v.86ZM111.43,66.8h.86v-.86h-.86v.86Z"
    style="fill: #062638;" />
  <path d="M112.29,66.8h.86v-.86h-.86v.86ZM113.15,66.8h.86v-.86h-.86v.86Z" style="fill: #fff;" />
  <rect x="114" y="65.95" width=".86" height=".86" style="fill: #062638;" />
  <path d="M114.86,66.8h.86v-.86h-.86v.86ZM115.72,66.8h.86v-.86h-.86v.86ZM116.58,66.8h.86v-.86h-.86v.86Z"
    style="fill: #fff;" />
  <path d="M89.95,66.8h.86v.86h-.86v-.86ZM117.44,65.95h.86v.86h-.86v-.86Z" style="fill: #062638;" />
  <rect x="90.81" y="66.8" width=".86" height=".86" style="fill: #fff;" />
  <path d="M91.67,67.66h.86v-.86h-.86v.86ZM92.53,67.66h.86v-.86h-.86v.86ZM93.39,67.66h.86v-.86h-.86v.86Z"
    style="fill: #062638;" />
  <rect x="94.25" y="66.8" width=".86" height=".86" style="fill: #fff;" />
  <rect x="95.11" y="66.8" width=".86" height=".86" style="fill: #062638;" />
  <rect x="95.97" y="66.8" width=".86" height=".86" style="fill: #fff;" />
  <path d="M96.83,67.66h.86v-.86h-.86v.86ZM97.68,67.66h.86v-.86h-.86v.86ZM98.54,67.66h.86v-.86h-.86v.86Z"
    style="fill: #062638;" />
  <rect x="99.4" y="66.8" width=".86" height=".86" style="fill: #fff;" />
  <rect x="100.26" y="66.8" width=".86" height=".86" style="fill: #062638;" />
  <rect x="101.12" y="66.8" width=".86" height=".86" style="fill: #fff;" />
  <path d="M102.84,66.8h-.86v.86h1.72v-.86h-.86ZM103.7,67.66h.86v-.86h-.86v.86Z" style="fill: #062638;" />
  <rect x="104.56" y="66.8" width=".86" height=".86" style="fill: #fff;" />
  <rect x="105.41" y="66.8" width=".86" height=".86" style="fill: #062638;" />
  <rect x="106.27" y="66.8" width=".86" height=".86" style="fill: #fff;" />
  <path d="M107.13,67.66h.86v-.86h-.86v.86ZM107.99,67.66h.86v-.86h-.86v.86ZM108.85,67.66h.86v-.86h-.86v.86Z"
    style="fill: #062638;" />
  <path d="M109.71,67.66h.86v-.86h-.86v.86ZM110.57,67.66h.86v-.86h-.86v.86Z" style="fill: #fff;" />
  <path d="M111.43,67.66h.86v-.86h-.86v.86ZM112.29,67.66h.86v-.86h-.86v.86Z" style="fill: #062638;" />
  <path d="M113.15,67.66h.86v-.86h-.86v.86ZM114,67.66h.86v-.86h-.86v.86Z" style="fill: #fff;" />
  <rect x="114.86" y="66.8" width=".86" height=".86" style="fill: #062638;" />
  <path d="M115.72,67.66h.86v-.86h-.86v.86ZM116.58,67.66h.86v-.86h-.86v.86ZM117.44,67.66h.86v-.86h-.86v.86Z"
    style="fill: #fff;" />
  <rect x="89.95" y="67.66" width=".86" height=".86" style="fill: #062638;" />
  <path
    d="M90.81,68.52h.86v-.86h-.86v.86ZM91.67,68.52h.86v-.86h-.86v.86ZM92.53,68.52h.86v-.86h-.86v.86ZM93.39,68.52h.86v-.86h-.86v.86ZM94.25,68.52h.86v-.86h-.86v.86Z"
    style="fill: #fff;" />
  <rect x="95.11" y="67.66" width=".86" height=".86" style="fill: #062638;" />
  <path d="M95.97,68.52h.86v-.86h-.86v.86ZM96.83,68.52h.86v-.86h-.86v.86Z" style="fill: #fff;" />
  <path d="M97.68,68.52h.86v-.86h-.86v.86ZM98.54,68.52h.86v-.86h-.86v.86Z" style="fill: #062638;" />
  <path d="M99.4,68.52h.86v-.86h-.86v.86ZM100.26,68.52h.86v-.86h-.86v.86Z" style="fill: #fff;" />
  <path d="M101.12,68.52h.86v-.86h-.86v.86ZM102.84,67.66h-.86v.86h1.72v-.86h-.86Z" style="fill: #062638;" />
  <rect x="103.7" y="67.66" width=".86" height=".86" style="fill: #fff;" />
  <path d="M104.56,68.52h.86v-.86h-.86v.86ZM105.41,68.52h.86v-.86h-.86v.86Z" style="fill: #062638;" />
  <rect x="106.27" y="67.66" width=".86" height=".86" style="fill: #fff;" />
  <rect x="107.13" y="67.66" width=".86" height=".86" style="fill: #062638;" />
  <path
    d="M107.99,68.52h.86v-.86h-.86v.86ZM108.85,68.52h.86v-.86h-.86v.86ZM109.71,68.52h.86v-.86h-.86v.86ZM110.57,68.52h.86v-.86h-.86v.86ZM111.43,68.52h.86v-.86h-.86v.86ZM112.29,68.52h.86v-.86h-.86v.86Z"
    style="fill: #fff;" />
  <rect x="113.15" y="67.66" width=".86" height=".86" style="fill: #062638;" />
  <rect x="114" y="67.66" width=".86" height=".86" style="fill: #fff;" />
  <path d="M114.86,68.52h.86v-.86h-.86v.86ZM115.72,68.52h.86v-.86h-.86v.86Z" style="fill: #062638;" />
  <path d="M116.58,68.52h.86v-.86h-.86v.86ZM117.44,68.52h.86v-.86h-.86v.86Z" style="fill: #fff;" />
  <path
    d="M89.95,69.38h.86v-.86h-.86v.86ZM90.81,69.38h.86v-.86h-.86v.86ZM91.67,69.38h.86v-.86h-.86v.86ZM92.53,69.38h.86v-.86h-.86v.86ZM93.39,69.38h.86v-.86h-.86v.86ZM94.25,69.38h.86v-.86h-.86v.86ZM95.11,69.38h.86v-.86h-.86v.86Z"
    style="fill: #062638;" />
  <path d="M95.97,69.38h.86v-.86h-.86v.86ZM96.83,69.38h.86v-.86h-.86v.86Z" style="fill: #fff;" />
  <rect x="97.68" y="68.52" width=".86" height=".86" style="fill: #062638;" />
  <rect x="98.54" y="68.52" width=".86" height=".86" style="fill: #fff;" />
  <rect x="99.4" y="68.52" width=".86" height=".86" style="fill: #062638;" />
  <path d="M100.26,69.38h.86v-.86h-.86v.86ZM101.12,69.38h.86v-.86h-.86v.86Z" style="fill: #fff;" />
  <rect x="101.98" y="68.52" width=".86" height=".86" style="fill: #062638;" />
  <path d="M102.84,69.38h.86v-.86h-.86v.86ZM103.7,69.38h.86v-.86h-.86v.86Z" style="fill: #fff;" />
  <rect x="104.56" y="68.52" width=".86" height=".86" style="fill: #062638;" />
  <rect x="105.41" y="68.52" width=".86" height=".86" style="fill: #fff;" />
  <path d="M106.27,69.38h.86v-.86h-.86v.86ZM107.13,69.38h.86v-.86h-.86v.86Z" style="fill: #062638;" />
  <path d="M107.99,69.38h.86v-.86h-.86v.86ZM108.85,69.38h.86v-.86h-.86v.86Z" style="fill: #fff;" />
  <path d="M109.71,69.38h.86v-.86h-.86v.86ZM110.57,69.38h.86v-.86h-.86v.86Z" style="fill: #062638;" />
  <rect x="111.43" y="68.52" width=".86" height=".86" style="fill: #fff;" />
  <rect x="112.29" y="68.52" width=".86" height=".86" style="fill: #062638;" />
  <path
    d="M113.15,69.38h.86v-.86h-.86v.86ZM114,69.38h.86v-.86h-.86v.86ZM114.86,69.38h.86v-.86h-.86v.86ZM115.72,69.38h.86v-.86h-.86v.86Z"
    style="fill: #fff;" />
  <rect x="116.58" y="68.52" width=".86" height=".86" style="fill: #062638;" />
  <rect x="117.44" y="68.52" width=".86" height=".86" style="fill: #fff;" />
  <text transform="translate(56.23 154.48) rotate(-90)"
    style="fill: #eeb127; font-family: Barlow-Bold, Barlow; font-size: 13px; font-weight: 700;">
    <tspan x="0" y="0">LUNGO</tspan>
  </text>
  <text transform="translate(108.64 150.34) rotate(-90)"
    style="fill: #eeb127; font-family: Barlow-Bold, Barlow; font-size: 13px; font-weight: 700;">
    <tspan x="0" y="0" style="letter-spacing: 0em;">L</tspan>
    <tspan x="7.34" y="0">ONG</tspan>
  </text>
  <line x1="23.41" y1=".22" x2="10.52" y2=".22" style="fill: none; stroke: #1b9dd9; stroke-width: .44px;" />
  <line x1="23.41" y1="199.47" x2="10.52" y2="199.47" style="fill: none; stroke: #1b9dd9; stroke-width: .44px;" />
  <line x1="17.19" y1=".22" x2="17.19" y2="199.22"
    style="fill: none; stroke: #1b9dd9; stroke-dasharray: 3.2 3.2; stroke-width: .43px;" />
  <text transform="translate(12.18 123.64) rotate(-90)"
    style="fill: #1b9dd9; font-family: Barlow-Regular, Barlow; font-size: 14.33px;">
    <tspan x="0" y="0">70 mm</tspan>
  </text>
  <g>
    <path
      d="M63.52,70.84h-22.64c-.77,0-1.4-.63-1.4-1.4v-32.42c0-.77.63-1.4,1.4-1.4h22.64c.77,0,1.4.63,1.4,1.4v32.42c0,.77-.63,1.4-1.4,1.4M40.87,35.88c-.63,0-1.15.51-1.15,1.15v32.42c0,.63.51,1.15,1.15,1.15h22.64c.63,0,1.14-.52,1.14-1.15v-32.42c0-.63-.51-1.15-1.14-1.15h-22.64Z"
      style="fill: #fff;" />
    <path
      d="M57.44,37.96c.22,0,.4.08.56.23.16.15.23.34.23.56s-.08.4-.23.56c-.15.16-.34.23-.56.23s-.4-.08-.56-.23c-.15-.15-.23-.34-.23-.56s.08-.4.23-.56c.15-.16.34-.23.56-.23M57.43,39.41c.18,0,.34-.06.46-.19.13-.13.19-.28.2-.47,0-.18-.06-.34-.19-.46-.13-.13-.28-.19-.47-.19-.18,0-.34.06-.46.19-.13.13-.19.28-.19.47,0,.18.06.34.19.47.13.13.28.19.47.2M57.8,39.19h-.17c-.11-.19-.17-.3-.21-.33l-.12-.04h-.08v.36h-.14v-.85h.29l.2.02.11.08.04.13-.06.16-.18.08c.05.01.12.08.2.21l.1.17ZM57.23,38.71h.17l.16-.03.04-.09-.04-.09-.17-.03h-.16v.26Z"
      style="fill: #fff;" />
    <path
      d="M52.53,37.77c-3.3,0-4.46,5.13-5.55,9.26-.39-.4-1.6-1.6-1.6-1.6-.24-.24-.52-.16-.69,0-.17.17-.2.49,0,.68,0,0,1.63,1.63,2.2,2.19.16.15.38.24.6.11.23-.14.26-.4.27-.4,1.93-8.64,3.64-9.28,4.76-9.28.94,0,2.02.69,2.02,2.09,1.4,0,2.28,1.84,1.15,2.98.94.45,1.35,1.01,1.35,1.71s-.59,1.43-1.45,1.42c-.85,0-1.29-.55-1.95-.55-.3,0-.49.24-.49.48v1.74h-1.26v-1.74c0-.27-.2-.49-.45-.49h-.11l-1.68.21c-.2.03-.39.25-.39.48,0,.27.22.49.52.49h.08l1.07-.14v1.72c0,.22.25.43.47.43h2.24c.26,0,.49-.22.49-.49v-1.57c.47.29,1.12.4,1.45.4,1.25,0,2.45-.99,2.44-2.43,0-1.31-1.01-1.97-1.01-1.97.59-1.57-.36-3.08-1.59-3.5-.45-1.62-1.83-2.24-2.89-2.24"
      style="fill: #fff;" />
    <path
      d="M51.13,51.5c0,.41.45.65,1.2,1,.59.28.93.57.93.81,0,.38-.41.52-.79.52-.59,0-.94-.24-1.14-.77v-.05h-.06c-.11,0-.19,0-.24.06v.19s.12.54.12.54c.03.13.08.16.29.2.09.02.57.1.98.1,1.13,0,1.64-.46,1.64-.92,0-.33-.33-.65-1.04-1.01l-.32-.16c-.49-.23-.78-.37-.78-.61s.3-.4.74-.4c.57,0,.72.32.79.59v.05h.07c.13,0,.2-.01.25-.06l.03-.12-.04-.47c-.01-.15-.13-.17-.29-.2-.19-.04-.42-.08-.76-.08-.98,0-1.57.29-1.57.77"
      style="fill: #fff;" />
    <path
      d="M54.39,52.46c0,.82.71,1.65,2.07,1.65.69,0,1.07-.16,1.36-.31l.08-.04-.13-.14-.1-.05-.07.02c-.1.05-.42.19-.99.19-.7,0-1.46-.46-1.46-1.47s.82-1.31,1.53-1.31c.51,0,.77.18.82.56v.06h.06c.06,0,.22,0,.22-.12v-.56c0-.14-.16-.16-.22-.17h-.07c-.16-.02-.32-.04-.73-.04-1.37,0-2.38.72-2.38,1.72"
      style="fill: #fff;" />
    <path
      d="M49.26,50.77h-1.23s-.82,0-.82,0h-.12l-.12.13s0,.14.14.14c.49,0,.51.04.52.23v1.71c0,.18,0,.47-.02.7,0,.07,0,.13-.44.13-.12,0-.19.02-.19.15,0,.03,0,.13.12.13h1.85c.1,0,.18-.01.18-.13,0-.14-.11-.15-.29-.15-.44,0-.44-.06-.45-.13,0-.21-.02-.5-.02-.7v-.39h.37c.56,0,.63.01.71.45.02.09.1.11.16.11.13,0,.15-.07.15-.1v-.16c-.01-.09-.03-.21-.03-.37v-.67c0-.1-.12-.1-.18-.1-.11,0-.13.07-.2.38-.03.12-.26.19-.64.19h-.33v-.98c0-.27.05-.27.1-.27.22,0,.74-.03.89-.03.15,0,.28.03.37.09.28.17.42.29.51.36l.2.11s.16,0,.16-.1l-.05-.13c-.05-.1-.12-.27-.22-.52-.03-.08-.12-.08-.29-.08h-.77Z"
      style="fill: #fff;" />
    <path
      d="M51.71,59.62h-.26v-1.71l-.59,1.71h-.24l-.59-1.74h-.01v1.74h-.26v-2.05h.4l.48,1.45c.06.16.08.26.09.3.02-.08.06-.19.11-.33l.49-1.42h.36v2.05h0Z"
      style="fill: #fff;" />
    <rect x="52.3" y="57.57" width=".27" height="2.05" style="fill: #fff;" />
    <path
      d="M54.83,59.62h-.33l-.41-.58c-.1-.14-.16-.24-.19-.29,0,.02-.21.31-.62.87h-.33l.79-1.07-.7-.98h.32l.43.61.1.17c.04-.06.23-.32.57-.78h.3l-.72.96.78,1.08Z"
      style="fill: #fff;" />
    <path
      d="M47.27,68.24c-.08.07-.18.11-.29.11-.15,0-.28-.06-.37-.17s-.14-.31-.14-.58c0-.26.05-.44.14-.55.1-.11.22-.17.38-.17.11,0,.21.03.29.1.08.06.13.15.16.26l.42-.1c-.05-.17-.12-.3-.21-.4-.16-.16-.37-.23-.63-.23-.29,0-.53.1-.71.3-.18.2-.27.47-.27.83,0,.34.09.6.27.8.18.19.41.29.69.29.23,0,.41-.06.56-.17.15-.11.25-.29.32-.52l-.41-.13c-.03.16-.09.27-.17.34M44.29,68.54c.14.13.35.19.61.19.18,0,.33-.03.46-.08.12-.05.22-.13.28-.24.07-.11.1-.22.1-.34,0-.14-.03-.25-.08-.34-.06-.09-.13-.17-.23-.22-.1-.05-.25-.1-.46-.15-.21-.05-.34-.1-.39-.14-.04-.04-.06-.08-.06-.13,0-.05.02-.1.07-.13.07-.05.17-.08.29-.08s.21.02.27.07c.06.05.1.13.12.24l.42-.02c0-.2-.08-.35-.21-.47-.13-.12-.33-.18-.6-.18-.16,0-.3.03-.41.07-.11.05-.2.12-.26.22-.06.09-.09.2-.09.31,0,.17.07.31.19.43.09.08.25.15.48.21.18.05.29.08.34.09.07.03.12.06.15.09.03.04.04.08.04.13,0,.08-.03.15-.1.21-.07.06-.17.09-.31.09-.13,0-.23-.03-.31-.1-.08-.07-.13-.17-.15-.31l-.41.04c.03.24.11.42.26.55M42.77,68.69v-.91h.88v-.36h-.88v-.51h1.02v-.36h-1.44v2.14h.43Z"
      style="fill: #fff;" />
    <path
      d="M48.49,66.83h.06c.08,0,.13,0,.15.01l.05.03.02.05-.02.05-.05.03s-.07,0-.15,0h-.06v-.19ZM48.49,67.42v-.29h.04l.1.03s.06.07.09.14l.06.11h.17l-.08-.14s-.04-.08-.05-.08l-.05-.05-.05-.03c.06,0,.1-.03.14-.07.03-.04.05-.08.05-.13l-.03-.1-.06-.07s-.06-.02-.11-.03c-.02,0-.09,0-.22,0h-.14v.69h.14ZM48.9,66.61c.08.04.15.11.19.19.05.08.07.17.07.27s-.02.18-.07.26c-.04.08-.11.15-.19.19-.08.05-.17.07-.26.07s-.17-.02-.26-.07c-.08-.05-.14-.11-.19-.19-.04-.08-.07-.17-.07-.26s.02-.18.07-.27c.05-.08.11-.15.19-.19.08-.05.17-.07.25-.07s.17.02.25.07M48.33,66.5c-.1.05-.18.14-.24.24-.06.1-.09.21-.09.33s.03.22.08.32c.06.1.14.18.24.24.1.06.21.09.32.09s.22-.03.32-.09c.1-.06.18-.14.24-.24.06-.1.09-.21.09-.32s-.03-.22-.09-.33-.14-.19-.24-.24c-.1-.06-.21-.08-.32-.08s-.22.03-.32.08"
      style="fill: #fff;" />
    <path
      d="M51.44,68.24c-.08.07-.18.11-.29.11-.15,0-.28-.06-.37-.17s-.14-.31-.14-.58c0-.25.05-.44.15-.55s.22-.17.38-.17c.11,0,.21.03.29.1.08.06.13.15.15.26l.42-.1c-.05-.17-.12-.3-.22-.39-.16-.16-.37-.23-.63-.23-.29,0-.53.1-.71.3-.18.2-.27.47-.27.83,0,.34.09.6.27.8.18.19.41.29.69.29.22,0,.41-.06.56-.17.15-.11.25-.29.32-.52l-.41-.13c-.04.16-.09.27-.17.34"
      style="fill: #fff;" />
    <path
      d="M60.63,66.95v-.38h1.41v.3c-.12.11-.23.28-.35.49-.12.21-.21.44-.27.68-.06.24-.09.46-.09.64h-.4c0-.3.07-.6.18-.91.12-.31.27-.58.46-.83h-.94ZM59.77,67.89v-.73l-.49.73h.49ZM59.77,68.68v-.43h-.88v-.36l.93-1.36h.35v1.36h.27v.36h-.27v.43h-.4ZM58.69,68.3v.38h-1.44c.02-.14.06-.28.14-.41.08-.13.23-.3.46-.52.19-.17.3-.29.34-.35.06-.08.08-.17.08-.25,0-.09-.02-.16-.07-.21-.05-.05-.12-.07-.2-.07s-.15.03-.21.08c-.05.05-.08.14-.09.26l-.41-.04c.03-.23.1-.39.23-.49.13-.1.29-.15.48-.15.21,0,.38.06.5.17.12.11.18.26.18.43,0,.1-.02.19-.05.28-.03.09-.09.18-.16.27-.05.06-.14.16-.27.27-.13.12-.21.2-.25.24-.03.04-.06.08-.08.11h.82ZM56.68,68.68h-.41v-1.55c-.15.14-.33.25-.53.31v-.37c.11-.04.22-.1.35-.2.13-.1.21-.21.26-.34h.33v2.16ZM55.35,68.3v.38h-1.44c.02-.14.06-.28.14-.41.08-.13.23-.3.46-.52.19-.17.3-.29.34-.35.06-.08.08-.17.08-.25,0-.09-.02-.16-.07-.21-.05-.05-.12-.07-.2-.07s-.15.03-.21.08c-.05.05-.08.14-.09.26l-.41-.04c.02-.23.1-.39.23-.49.13-.1.29-.15.48-.15.21,0,.38.06.5.17.12.11.18.26.18.43,0,.1-.02.19-.05.28-.03.09-.09.18-.17.27-.05.06-.14.16-.27.27-.13.12-.21.2-.25.24-.04.04-.06.08-.08.11h.82ZM53.34,68.68h-.41v-1.55c-.15.14-.33.25-.53.31v-.37c.11-.04.22-.1.35-.2.13-.1.21-.21.26-.34h.33v2.16Z"
      style="fill: #fff;" />
    <path
      d="M49.55,63.67h.39c.07,0,.11,0,.14,0,.05,0,.09-.02.12-.04.03-.02.06-.05.08-.09.02-.04.03-.08.03-.13,0-.06-.01-.11-.04-.15-.03-.04-.07-.08-.12-.09-.05-.02-.13-.03-.23-.03h-.36v.54ZM49.55,62.94h.34c.09,0,.16,0,.2-.02.05-.02.09-.04.12-.08.03-.04.04-.08.04-.14,0-.05-.01-.1-.04-.14-.03-.04-.06-.07-.11-.08-.05-.02-.13-.02-.24-.02h-.32v.48ZM49.34,63.86v-1.57h.59c.12,0,.22.02.29.05.07.03.13.08.17.15.04.07.06.14.06.21,0,.07-.02.13-.05.19-.04.06-.09.11-.17.14.09.03.17.08.22.14.05.07.08.15.08.24,0,.07-.01.14-.05.2-.03.06-.07.11-.12.15-.04.03-.1.06-.17.08-.07.02-.15.03-.25.03h-.6Z"
      style="fill: #fff;" />
    <path
      d="M50.92,63.29c0,.15.03.26.1.33.06.07.14.11.24.11s.18-.04.24-.11c.06-.07.1-.18.1-.33s-.03-.25-.1-.32c-.06-.07-.14-.11-.24-.11s-.18.04-.24.11c-.06.07-.1.18-.1.33M50.72,63.29c0-.21.06-.37.18-.47.1-.08.22-.13.36-.13.16,0,.29.05.38.15.1.1.15.24.15.43,0,.15-.02.26-.07.35-.04.08-.11.15-.19.2-.08.05-.18.07-.28.07-.16,0-.29-.05-.39-.15-.1-.1-.15-.25-.15-.44"
      style="fill: #fff;" />
    <path
      d="M52.74,63.28c-.07.03-.18.05-.32.07-.08.01-.14.02-.17.04-.03.01-.06.04-.08.06-.02.03-.03.06-.03.09,0,.05.02.09.06.13.04.03.1.05.17.05s.14-.02.2-.05c.06-.03.1-.08.13-.13.02-.04.03-.11.03-.19v-.07ZM52.76,63.71c-.07.06-.14.1-.21.13s-.14.04-.21.04c-.12,0-.22-.03-.29-.09-.07-.06-.1-.14-.1-.23,0-.06.01-.11.04-.15.03-.05.06-.08.1-.11s.09-.05.14-.06c.04-.01.1-.02.17-.03.16-.02.27-.04.35-.07,0-.03,0-.04,0-.05,0-.08-.02-.13-.05-.17-.05-.04-.12-.07-.22-.07-.09,0-.16.02-.2.05-.04.03-.08.09-.1.17l-.19-.03c.02-.08.05-.15.08-.2.04-.05.1-.09.17-.11.08-.03.16-.04.26-.04s.18.01.24.03c.06.02.1.05.13.09.03.03.05.08.06.13,0,.03.01.09.01.18v.26c0,.18,0,.29.01.34,0,.05.03.09.05.14h-.2s-.03-.09-.04-.14"
      style="fill: #fff;" />
    <path
      d="M53.24,63.86v-1.14h.17v.17c.04-.08.08-.13.12-.16.04-.03.08-.04.12-.04.06,0,.13.02.2.06l-.07.18s-.1-.04-.14-.04c-.04,0-.08.01-.11.04-.03.03-.06.06-.07.11-.02.07-.03.14-.03.23v.6h-.19Z"
      style="fill: #fff;" />
    <path
      d="M54.1,63.29c0,.15.03.26.09.33.06.07.13.11.22.11s.16-.04.22-.1c.06-.07.09-.18.09-.32,0-.16-.03-.27-.09-.34-.06-.07-.13-.11-.22-.11s-.16.03-.22.11c-.06.07-.09.18-.09.33M54.71,63.86v-.14c-.07.11-.18.17-.32.17-.09,0-.18-.03-.25-.07-.08-.05-.14-.12-.18-.21-.04-.09-.06-.19-.06-.31s.02-.22.06-.31c.04-.09.09-.16.17-.21.08-.05.16-.08.25-.08.07,0,.13.02.18.04.05.03.1.07.13.11v-.56h.19v1.57h-.18Z"
      style="fill: #fff;" />
  </g>
  <text id="quantity" y="98%" x="62%"
    style="fill: #010101; font-family: Arial-BoldMT, Arial; font-size: 15px; font-weight: 700; isolation: isolate;"
    text-anchor="middle">
  </text>
</svg>