<?xml version="1.0" encoding="UTF-8"?>
<svg id="Layer_1" data-name="Layer 1" data-size="15mm x 100mm" xmlns="http://www.w3.org/2000/svg"
  viewBox="0 0 122.97 354.52">
  <path
    d="M91.21,75.7s-.03-.05-.03-.08v-.81s0-.03,0-.04c-.01,0-.02,0-.04,0l-.76.44s-.04.02-.05.02c-.04,0-.08-.02-.1-.06l-.25-.47s-.02-.04-.02-.06c0-.04.02-.07.06-.09l.76-.4s.03-.04,0-.05l-.76-.39s-.05-.03-.06-.06c0-.03,0-.06.01-.09l.25-.47s.04-.05.07-.06c.03,0,.05,0,.08.01l.76.43s.02,0,.04,0c.01,0,.02-.02.02-.04v-.79s0-.06.02-.08c.02-.02.05-.03.08-.03h.51s.06.01.08.03c.02.02.03.05.03.08v.79s0,.03,0,.04c.01,0,.02,0,.04,0l.76-.43s.04-.02.05-.02c.04,0,.08.02.1.06l.25.47s.02.04.02.06c0,.04-.02.06-.06.08l-.77.4s-.03.04,0,.05l.77.4s.05.03.06.06c0,.03,0,.06-.01.09l-.25.47s-.04.05-.07.06c-.03,0-.06,0-.09-.01l-.76-.44s-.02-.02-.04,0c-.01,0-.02.02-.02.04v.81s0,.06-.02.08c-.02.02-.05.03-.08.03h-.51s-.06-.01-.08-.03Z"
    style="fill: #eeb127;" />
  <rect x="27.93" y=".28" width="42.52" height="283.46" style="fill: #062638;" />
  <rect x="27.93" y=".28" width="42.52" height="283.46" style="fill: none; stroke: #e50695; stroke-width: .57px;" />
  <rect x="27.93" y=".28" width="42.52" height="283.46" style="fill: #062638;" />
  <rect x="27.93" y=".28" width="42.52" height="283.46" style="fill: none; stroke: #e50695; stroke-width: .57px;" />
  <g>
    <path d="M54.15,21.15c0,2.74-2.22,4.96-4.96,4.96s-4.96-2.22-4.96-4.96,2.22-4.96,4.96-4.96,4.96,2.22,4.96,4.96"
      style="fill: #fff;" />
    <path d="M54.15,21.15c0,2.74-2.22,4.96-4.96,4.96s-4.96-2.22-4.96-4.96,2.22-4.96,4.96-4.96,4.96,2.22,4.96,4.96"
      style="fill: none; stroke: #e50695; stroke-width: .5px;" />
  </g>
  <g>
    <path
      d="M54.06,243.68c-.22.52-.54.92-.95,1.2-.41.28-.89.42-1.44.42h-.29s-.08-.02-.11-.05-.05-.07-.05-.11v-1.48s.02-.08.05-.11c.03-.03.07-.04.11-.04h.2c.35,0,.64-.16.88-.48.24-.32.36-.75.36-1.3,0-.46-.1-.8-.29-1.03-.19-.22-.43-.34-.72-.34-.21,0-.38.07-.53.21-.14.14-.27.33-.38.57-.11.24-.26.62-.45,1.14-.2.58-.4,1.07-.61,1.48s-.49.74-.85,1.01c-.36.27-.8.41-1.33.41s-.98-.13-1.37-.4c-.39-.27-.69-.64-.9-1.12s-.31-1.03-.31-1.65c0-.66.12-1.25.35-1.76s.56-.92.98-1.21c.42-.29.91-.44,1.46-.44h.2s.08.01.11.04c.03.03.05.07.05.11v1.49s-.01.08-.05.11c-.03.03-.07.04-.11.04h-.1c-.36,0-.67.15-.93.45-.25.3-.38.71-.38,1.23,0,.41.09.73.26.96.17.23.41.34.72.34.22,0,.4-.07.55-.2.15-.13.28-.33.4-.6s.28-.67.47-1.23c.22-.62.42-1.1.6-1.45.17-.35.43-.67.77-.95.34-.28.79-.42,1.33-.42.82,0,1.46.3,1.93.9.47.6.71,1.41.71,2.43,0,.69-.11,1.3-.33,1.82Z"
      style="fill: #eeb127;" />
    <path
      d="M45.24,230.57s.07-.04.11-.04h1.27s.08.01.11.04c.03.03.04.07.04.11v2.33s.02.07.06.07h7.29s.08.01.11.04.04.07.04.11v1.52s-.01.08-.04.11-.07.05-.11.05h-7.29s-.06.02-.06.06v2.26s-.01.08-.04.11c-.03.03-.07.04-.11.04h-1.27s-.08-.01-.11-.04c-.03-.03-.04-.07-.04-.11v-6.55s.02-.08.04-.11Z"
      style="fill: #eeb127;" />
    <path
      d="M54.16,224.17l-1.27.39s-.05.04-.05.06v3.2s.02.05.05.06l1.27.38c.09.03.13.08.13.17v1.65c0,.05-.01.09-.04.12s-.08.03-.14.01l-8.79-2.81c-.09-.03-.13-.08-.13-.17v-2.04c0-.09.04-.14.13-.17l8.79-2.81s.04-.01.06-.01c.08,0,.12.05.12.14v1.65c0,.09-.04.14-.13.17ZM51.42,227.36v-2.29c0-.05-.03-.07-.08-.05l-3.86,1.17s-.05.02-.05.04c0,.02.02.03.05.04l3.86,1.14c.05,0,.08,0,.08-.05Z"
      style="fill: #eeb127;" />
    <path
      d="M45.19,214.64v-1.52s.02-.08.04-.11c.03-.03.07-.05.11-.05h8.79s.08.02.11.05.04.07.04.11v1.52s-.01.08-.04.11c-.03.03-.07.05-.11.05h-5.73s-.05,0-.05.03c0,.02.01.03.04.05l2.16,1.38c.07.04.1.1.1.18v.77c0,.08-.03.14-.1.18l-2.16,1.38s-.04.04-.03.05c0,.02.02.03.06.03h5.72s.08.02.11.05.04.07.04.11v1.52s-.01.08-.04.11c-.03.03-.07.05-.11.05h-8.79s-.08-.01-.11-.05c-.03-.03-.04-.07-.04-.11v-1.52c0-.08.04-.14.1-.18l3.03-1.95c.05-.03.05-.05,0-.08l-3.03-1.96c-.07-.04-.1-.1-.1-.18Z"
      style="fill: #eeb127;" />
    <path
      d="M45.53,205.73c.23-.43.57-.77.99-1.01.43-.24.92-.36,1.48-.36s1.03.12,1.44.37.74.59.97,1.04c.23.45.34.96.34,1.54v1.85s.02.07.06.07h3.32s.08.01.11.04c.03.03.04.07.04.11v1.52s-.01.08-.04.11-.07.05-.11.05h-8.8s-.08-.02-.11-.05c-.03-.03-.05-.07-.05-.11v-3.67c0-.57.12-1.08.35-1.51ZM48.94,206.55c-.23-.24-.53-.36-.9-.36s-.69.12-.92.36c-.23.24-.35.56-.35.96v1.65s.02.07.07.07h2.39s.07-.02.07-.07v-1.65c0-.4-.12-.72-.35-.96Z"
      style="fill: #eeb127;" />
    <path
      d="M54.16,197.94l-1.27.39s-.05.04-.05.06v3.2s.02.05.05.06l1.27.38c.09.03.13.08.13.17v1.65c0,.05-.01.09-.04.12s-.08.03-.14.01l-8.79-2.81c-.09-.03-.13-.08-.13-.17v-2.04c0-.09.04-.14.13-.17l8.79-2.81s.04-.01.06-.01c.08,0,.12.05.12.14v1.65c0,.09-.04.14-.13.17ZM51.42,201.14v-2.29c0-.05-.03-.07-.08-.05l-3.86,1.17s-.05.02-.05.04c0,.02.02.03.05.04l3.86,1.14c.05,0,.08,0,.08-.05Z"
      style="fill: #eeb127;" />
    <path
      d="M46.72,185.2s.05.07.05.11v4.25s.02.07.07.07h2.01s.07-.02.07-.07v-2.79s.01-.08.04-.11.07-.04.11-.04h1.26s.08.01.11.04c.03.03.04.07.04.11v2.79s.02.07.06.07h3.59s.08.02.11.05.04.07.04.11v1.52s-.01.08-.04.11c-.03.03-.07.05-.11.05h-8.79s-.08-.01-.11-.05c-.03-.03-.04-.07-.04-.11v-5.99s.02-.08.04-.11c.03-.03.07-.04.11-.04h1.26s.08.01.11.04Z"
      style="fill: #eeb127;" />
    <path
      d="M54.02,182.36c-.28.52-.67.92-1.16,1.2s-1.07.43-1.72.43h-2.78c-.64,0-1.21-.14-1.7-.43s-.88-.69-1.15-1.2-.41-1.11-.41-1.79.14-1.28.41-1.8.66-.92,1.15-1.2,1.06-.43,1.7-.43h2.78c.65,0,1.23.14,1.73.43.5.29.89.69,1.16,1.2.27.52.41,1.12.41,1.8s-.14,1.27-.42,1.79ZM52.41,179.42c-.3-.29-.71-.44-1.21-.44h-2.86c-.5,0-.91.15-1.22.44s-.46.68-.46,1.16.15.86.46,1.15c.31.29.71.44,1.22.44h2.86c.5,0,.91-.14,1.21-.44.3-.29.46-.67.46-1.15s-.15-.86-.46-1.16Z"
      style="fill: #eeb127;" />
    <path
      d="M54.06,174.05c-.22.52-.54.92-.95,1.2-.41.28-.89.42-1.44.42h-.29s-.08-.02-.11-.05-.05-.07-.05-.11v-1.48s.02-.08.05-.11c.03-.03.07-.04.11-.04h.2c.35,0,.64-.16.88-.48.24-.32.36-.75.36-1.3,0-.46-.1-.8-.29-1.03-.19-.22-.43-.34-.72-.34-.21,0-.38.07-.53.21-.14.14-.27.33-.38.57-.11.24-.26.62-.45,1.14-.2.58-.4,1.07-.61,1.48s-.49.74-.85,1.01c-.36.27-.8.41-1.33.41s-.98-.13-1.37-.4c-.39-.27-.69-.64-.9-1.12s-.31-1.03-.31-1.65c0-.66.12-1.25.35-1.76s.56-.92.98-1.21c.42-.29.91-.44,1.46-.44h.2s.08.01.11.04c.03.03.05.07.05.11v1.49s-.01.08-.05.11c-.03.03-.07.04-.11.04h-.1c-.36,0-.67.15-.93.45-.25.3-.38.71-.38,1.23,0,.41.09.73.26.96.17.23.41.34.72.34.22,0,.4-.07.55-.2.15-.13.28-.33.4-.6s.28-.67.47-1.23c.22-.62.42-1.1.6-1.45.17-.35.43-.67.77-.95.34-.28.79-.42,1.33-.42.82,0,1.46.3,1.93.9.47.6.71,1.41.71,2.43,0,.69-.11,1.3-.33,1.82Z"
      style="fill: #eeb127;" />
    <path
      d="M46.72,160.97s.05.07.05.11v4.25s.02.07.07.07h2.01s.07-.02.07-.07v-2.79s.01-.08.04-.11.07-.04.11-.04h1.26s.08.01.11.04c.03.03.04.07.04.11v2.79s.02.07.06.07h3.59s.08.02.11.05.04.07.04.11v1.52s-.01.08-.04.11c-.03.03-.07.05-.11.05h-8.79s-.08-.01-.11-.05c-.03-.03-.04-.07-.04-.11v-5.99s.02-.08.04-.11c.03-.03.07-.04.11-.04h1.26s.08.01.11.04Z"
      style="fill: #eeb127;" />
    <path
      d="M54.02,158.12c-.28.52-.67.92-1.16,1.2s-1.07.43-1.72.43h-2.78c-.64,0-1.21-.14-1.7-.43s-.88-.69-1.15-1.2-.41-1.11-.41-1.79.14-1.28.41-1.8.66-.92,1.15-1.2,1.06-.43,1.7-.43h2.78c.65,0,1.23.14,1.73.43.5.29.89.69,1.16,1.2.27.52.41,1.12.41,1.8s-.14,1.27-.42,1.79ZM52.41,155.18c-.3-.29-.71-.44-1.21-.44h-2.86c-.5,0-.91.15-1.22.44s-.46.68-.46,1.16.15.86.46,1.15c.31.29.71.44,1.22.44h2.86c.5,0,.91-.14,1.21-.44.3-.29.46-.67.46-1.15s-.15-.86-.46-1.16Z"
      style="fill: #eeb127;" />
    <path
      d="M54.17,146.3l-3.6,1.62s-.05.04-.05.08v1.21s.02.07.06.07h3.55s.08.02.11.05.04.07.04.11v1.52s-.01.08-.04.11c-.03.03-.07.05-.11.05h-8.79s-.08-.01-.11-.05c-.03-.03-.04-.07-.04-.11v-3.72c0-.55.11-1.04.34-1.46.23-.42.55-.75.96-.97.42-.23.9-.34,1.44-.34.59,0,1.09.15,1.51.44s.72.71.89,1.23c.02.04.05.06.09.04l3.68-1.77s.06-.03.08-.03c.07,0,.1.05.1.14v1.6c0,.09-.04.15-.12.18ZM46.83,149.27h2.22s.06-.02.06-.07v-1.7c0-.36-.11-.66-.32-.89s-.5-.34-.85-.34-.63.12-.85.34-.33.53-.33.89v1.7s.02.07.07.07Z"
      style="fill: #eeb127;" />
    <path
      d="M46.72,136.47s.05.07.05.11v4.26s.02.07.07.07h2.01s.07-.02.07-.07v-2.79s.01-.08.04-.11.07-.04.11-.04h1.26s.08.01.11.04c.03.03.04.07.04.11v2.79s.02.07.06.07h2.11s.07-.02.07-.07v-4.26s.02-.08.04-.11c.03-.03.07-.05.11-.05h1.26s.08.02.11.05.04.07.04.11v6.01s-.01.08-.04.11c-.03.03-.07.05-.11.05h-8.79s-.08-.01-.11-.05c-.03-.03-.04-.07-.04-.11v-6.01s.02-.08.04-.11c.03-.03.07-.05.11-.05h1.26s.08.02.11.05Z"
      style="fill: #eeb127;" />
    <path
      d="M54.06,133.48c-.22.52-.54.92-.95,1.2-.41.28-.89.42-1.44.42h-.29s-.08-.02-.11-.05-.05-.07-.05-.11v-1.48s.02-.08.05-.11c.03-.03.07-.04.11-.04h.2c.35,0,.64-.16.88-.48.24-.32.36-.75.36-1.3,0-.46-.1-.8-.29-1.03-.19-.22-.43-.34-.72-.34-.21,0-.38.07-.53.21-.14.14-.27.33-.38.57-.11.24-.26.62-.45,1.14-.2.58-.4,1.07-.61,1.48s-.49.74-.85,1.01c-.36.27-.8.41-1.33.41s-.98-.13-1.37-.4c-.39-.27-.69-.64-.9-1.12s-.31-1.03-.31-1.65c0-.66.12-1.25.35-1.76s.56-.92.98-1.21c.42-.29.91-.44,1.46-.44h.2s.08.01.11.04c.03.03.05.07.05.11v1.49s-.01.08-.05.11c-.03.03-.07.04-.11.04h-.1c-.36,0-.67.15-.93.45-.25.3-.38.71-.38,1.23,0,.41.09.73.26.96.17.23.41.34.72.34.22,0,.4-.07.55-.2.15-.13.28-.33.4-.6s.28-.67.47-1.23c.22-.62.42-1.1.6-1.45.17-.35.43-.67.77-.95.34-.28.79-.42,1.33-.42.82,0,1.46.3,1.93.9.47.6.71,1.41.71,2.43,0,.69-.11,1.3-.33,1.82Z"
      style="fill: #eeb127;" />
    <path
      d="M54,125.24c-.26.51-.63.91-1.11,1.18s-1.03.42-1.65.42h-3c-.62,0-1.17-.14-1.65-.42s-.84-.67-1.1-1.18c-.26-.51-.39-1.11-.39-1.78s.12-1.25.37-1.76c.25-.51.6-.9,1.05-1.18.45-.28.98-.42,1.58-.42.08,0,.13.05.14.16l.09,1.52v.03c0,.09-.05.13-.14.13-.46,0-.83.14-1.11.42-.28.28-.42.65-.42,1.11s.14.84.42,1.12c.28.28.65.42,1.11.42h3.13c.45,0,.81-.14,1.09-.42.28-.28.42-.66.42-1.12s-.14-.83-.42-1.11c-.28-.28-.64-.42-1.09-.42-.1,0-.14-.05-.14-.16l.06-1.52s.01-.08.04-.11.06-.05.09-.05c.6,0,1.13.14,1.59.42.46.28.81.68,1.07,1.18.25.51.38,1.09.38,1.76s-.13,1.27-.4,1.78Z"
      style="fill: #eeb127;" />
    <path
      d="M46.72,112.09s.05.07.05.11v4.26s.02.07.07.07h2.01s.07-.02.07-.07v-2.79s.01-.08.04-.11.07-.04.11-.04h1.26s.08.01.11.04c.03.03.04.07.04.11v2.79s.02.07.06.07h2.11s.07-.02.07-.07v-4.26s.02-.08.04-.11c.03-.03.07-.05.11-.05h1.26s.08.02.11.05.04.07.04.11v6.01s-.01.08-.04.11c-.03.03-.07.05-.11.05h-8.79s-.08-.01-.11-.05c-.03-.03-.04-.07-.04-.11v-6.01s.02-.08.04-.11c.03-.03.07-.05.11-.05h1.26s.08.02.11.05Z"
      style="fill: #eeb127;" />
    <path
      d="M45.24,105.12s-.04-.07-.04-.11v-1.52s.02-.08.04-.11c.03-.03.07-.04.11-.04h8.79s.08.01.11.04.04.07.04.11v1.47c0,.09-.03.15-.1.18l-5.56,3.37s-.04.03-.03.05c0,.02.02.03.06.03l5.49-.03s.08.02.11.05.04.07.04.11v1.52s-.01.08-.04.11c-.03.03-.07.05-.11.05h-8.79s-.08-.01-.11-.05c-.03-.03-.04-.07-.04-.11v-1.47c0-.09.04-.15.1-.18l5.54-3.35s.04-.03.03-.05-.02-.03-.06-.03h-5.46s-.08,0-.11-.03Z"
      style="fill: #eeb127;" />
    <path
      d="M45.24,94.98s.07-.04.11-.04h1.27s.08.01.11.04c.03.03.04.07.04.11v2.33s.02.07.06.07h7.29s.08.01.11.04.04.07.04.11v1.52s-.01.08-.04.11-.07.05-.11.05h-7.29s-.06.02-.06.06v2.26s-.01.08-.04.11c-.03.03-.07.04-.11.04h-1.27s-.08-.01-.11-.04c-.03-.03-.04-.07-.04-.11v-6.55s.02-.08.04-.11Z"
      style="fill: #eeb127;" />
    <path
      d="M46.72,87.1s.05.07.05.11v4.26s.02.07.07.07h2.01s.07-.02.07-.07v-2.79s.01-.08.04-.11.07-.04.11-.04h1.26s.08.01.11.04c.03.03.04.07.04.11v2.79s.02.07.06.07h2.11s.07-.02.07-.07v-4.26s.02-.08.04-.11c.03-.03.07-.05.11-.05h1.26s.08.02.11.05.04.07.04.11v6.01s-.01.08-.04.11c-.03.03-.07.05-.11.05h-8.79s-.08-.01-.11-.05c-.03-.03-.04-.07-.04-.11v-6.01s.02-.08.04-.11c.03-.03.07-.05.11-.05h1.26s.08.02.11.05Z"
      style="fill: #eeb127;" />
  </g>
  <rect x="80.16" y=".28" width="42.52" height="283.46" style="fill: #062638;" />
  <rect x="80.16" y=".28" width="42.52" height="283.46" style="fill: none; stroke: #e50695; stroke-width: .57px;" />
  <rect x="80.16" y=".28" width="42.52" height="283.46" style="fill: #062638;" />
  <rect x="80.16" y=".28" width="42.52" height="283.46" style="fill: none; stroke: #e50695; stroke-width: .57px;" />
  <g>
    <path d="M106.38,21.15c0,2.74-2.22,4.96-4.96,4.96s-4.96-2.22-4.96-4.96,2.22-4.96,4.96-4.96,4.96,2.22,4.96,4.96"
      style="fill: #fff;" />
    <path d="M106.38,21.15c0,2.74-2.22,4.96-4.96,4.96s-4.96-2.22-4.96-4.96,2.22-4.96,4.96-4.96,4.96,2.22,4.96,4.96"
      style="fill: none; stroke: #e50695; stroke-width: .5px;" />
  </g>
  <g>
    <path
      d="M106.4,242.11c-.27.51-.64.91-1.12,1.19-.48.28-1.04.42-1.67.42h-2.91c-.63,0-1.19-.14-1.68-.42-.49-.28-.86-.68-1.12-1.19-.26-.51-.4-1.1-.4-1.77s.13-1.24.39-1.75.61-.9,1.06-1.18c.45-.28.94-.42,1.49-.42h.09s.08.01.11.04c.03.03.04.07.04.11v1.52s-.02.08-.04.11c-.03.03-.07.05-.11.05h-.04c-.4,0-.73.14-1.01.42-.27.28-.41.65-.41,1.1s.14.84.44,1.12c.29.28.67.42,1.14.42h3.02c.47,0,.85-.15,1.14-.46.29-.3.43-.69.43-1.16s-.12-.81-.36-1.08c-.24-.27-.57-.4-.99-.4h-.58s-.07.02-.07.07v1.46s-.01.08-.05.11c-.03.03-.07.04-.11.04h-1.2s-.08-.01-.11-.04c-.03-.03-.05-.07-.05-.11v-3.17s.01-.08.05-.11.07-.04.11-.04h1.72c.66,0,1.23.14,1.72.42s.86.67,1.11,1.18c.25.51.38,1.09.38,1.76s-.13,1.26-.4,1.77Z"
      style="fill: #eeb127;" />
    <path
      d="M106.65,235.16s-.07.05-.11.05h-8.79s-.08-.01-.11-.05c-.03-.03-.05-.07-.05-.11v-1.52s.01-.08.05-.11c.03-.03.07-.05.11-.05h7.31s.06-.02.06-.07v-4.25s.02-.08.05-.11c.03-.03.07-.04.11-.04h1.26s.08.01.11.04.05.07.05.11v5.99s-.02.08-.05.11Z"
      style="fill: #eeb127;" />
    <path
      d="M106.42,226.04c-.28.52-.67.92-1.16,1.2-.5.29-1.07.43-1.72.43h-2.78c-.64,0-1.21-.14-1.7-.43s-.88-.69-1.15-1.2-.41-1.11-.41-1.79.14-1.28.41-1.8.66-.92,1.15-1.2,1.06-.43,1.7-.43h2.78c.65,0,1.23.14,1.73.43s.89.69,1.16,1.2c.27.52.41,1.12.41,1.8s-.14,1.27-.42,1.79ZM104.81,223.09c-.3-.29-.71-.44-1.21-.44h-2.86c-.5,0-.91.15-1.21.44s-.46.68-.46,1.16.15.86.46,1.15c.31.29.71.44,1.21.44h2.86c.5,0,.91-.14,1.21-.44.3-.29.45-.67.45-1.15s-.15-.86-.45-1.16Z"
      style="fill: #eeb127;" />
    <path
      d="M106.57,217.39l-8.8,2.3h-.05c-.08.01-.12-.03-.12-.13v-1.61c0-.09.04-.14.13-.17l5.29-1.23s.05-.02.05-.04-.02-.03-.05-.04l-5.28-1.2c-.1-.03-.14-.08-.14-.17v-1.57c0-.09.04-.16.13-.18l5.29-1.3s.04-.02.05-.04-.01-.03-.05-.04l-5.28-1.2c-.1-.03-.14-.08-.14-.17v-1.53c0-.12.06-.17.17-.14l8.8,2.13c.09.03.13.09.13.18v1.55c0,.09-.04.14-.13.17l-5.63,1.33s-.05.02-.05.04c0,.02.02.03.05.04l5.62,1.24c.1.02.14.07.14.17v1.44c0,.09-.04.16-.13.18Z"
      style="fill: #eeb127;" />
    <path
      d="M106.65,204.4s-.07.05-.11.05h-8.79s-.08-.01-.11-.05c-.03-.03-.05-.07-.05-.11v-1.52s.01-.08.05-.11c.03-.03.07-.05.11-.05h8.79s.08.02.11.05.05.07.05.11v1.52s-.02.08-.05.11Z"
      style="fill: #eeb127;" />
    <path
      d="M97.64,195.37s-.05-.07-.05-.11v-1.52s.01-.08.05-.11c.03-.03.07-.04.11-.04h8.79s.08.01.11.04.05.07.05.11v1.47c0,.09-.04.15-.1.18l-5.56,3.37s-.04.03-.03.05c0,.02.02.03.06.03l5.49-.03s.08.02.11.05.05.07.05.11v1.52s-.02.08-.05.11c-.03.03-.07.05-.11.05h-8.79s-.08-.01-.11-.05c-.03-.03-.05-.07-.05-.11v-1.47c0-.09.03-.15.1-.18l5.54-3.35s.04-.03.03-.05-.02-.03-.06-.03h-5.46s-.08,0-.11-.03Z"
      style="fill: #eeb127;" />
    <path
      d="M97.64,182.24s.07-.04.11-.04h1.27s.08.01.11.04c.03.03.05.07.05.11v2.33s.02.07.07.07h7.29s.08.01.11.04.05.07.05.11v1.52s-.02.08-.05.11-.07.05-.11.05h-7.29s-.07.02-.07.06v2.26s-.01.08-.05.11c-.03.03-.07.04-.11.04h-1.27s-.08-.01-.11-.04c-.03-.03-.05-.07-.05-.11v-6.55s.01-.08.05-.11Z"
      style="fill: #eeb127;" />
    <path
      d="M97.64,175.75s-.05-.07-.05-.11v-1.52s.01-.08.05-.11c.03-.03.07-.05.11-.05h8.79s.08.02.11.05.05.07.05.11v1.52s-.02.08-.05.11c-.03.03-.07.05-.11.05h-3.59s-.07.02-.07.06v2.87s.02.07.07.07h3.59s.08.02.11.05.05.07.05.11v1.52s-.02.08-.05.11c-.03.03-.07.05-.11.05h-8.79s-.08-.01-.11-.05c-.03-.03-.05-.07-.05-.11v-1.52s.01-.08.05-.11c.03-.03.07-.05.11-.05h3.5s.06-.02.06-.07v-2.87s-.02-.06-.06-.06h-3.5s-.08-.01-.11-.05Z"
      style="fill: #eeb127;" />
    <path
      d="M99.12,165.81s.04.07.04.11v4.26s.02.07.06.07h2.02s.06-.02.06-.07v-2.79s.02-.08.05-.11c.03-.03.07-.04.11-.04h1.26s.08.01.11.04c.03.03.05.07.05.11v2.79s.02.07.07.07h2.11s.06-.02.06-.07v-4.26s.02-.08.05-.11c.03-.03.07-.05.11-.05h1.26s.08.02.11.05.05.07.05.11v6.01s-.02.08-.05.11c-.03.03-.07.05-.11.05h-8.79s-.08-.01-.11-.05c-.03-.03-.05-.07-.05-.11v-6.01s.01-.08.05-.11c.03-.03.07-.05.11-.05h1.26s.08.02.11.05Z"
      style="fill: #eeb127;" />
    <path
      d="M106.65,161.09s-.07.05-.11.05h-8.79s-.08-.01-.11-.05c-.03-.03-.05-.07-.05-.11v-3.25c0-.65.12-1.22.34-1.71.23-.49.55-.87.97-1.14s.9-.4,1.44-.4h3.59c.54,0,1.03.13,1.44.4s.74.65.97,1.14c.23.49.35,1.06.35,1.71v3.25s-.02.08-.05.11ZM105.12,159.24v-1.57c0-.4-.13-.72-.4-.97-.27-.25-.63-.38-1.08-.38h-2.99c-.45,0-.81.12-1.08.37-.27.25-.4.58-.4.99v1.56s.02.07.06.07h5.82s.06-.02.06-.07Z"
      style="fill: #eeb127;" />
    <path
      d="M106.57,147.58l-1.27.39s-.05.04-.05.06v3.2s.02.05.05.06l1.27.38c.09.03.13.08.13.17v1.65c0,.05-.02.09-.05.12s-.08.03-.14.01l-8.79-2.81c-.09-.03-.13-.08-.13-.17v-2.04c0-.09.04-.14.13-.17l8.79-2.81s.04-.01.07-.01c.08,0,.12.05.12.14v1.65c0,.09-.04.14-.13.17ZM103.82,150.77v-2.29c0-.05-.03-.07-.08-.05l-3.86,1.17s-.05.02-.04.04c0,.02.02.03.04.04l3.86,1.14c.05,0,.08,0,.08-.05Z"
      style="fill: #eeb127;" />
    <path
      d="M106.58,139.27l-3.6,1.62s-.05.04-.05.08v1.21s.02.07.07.07h3.55s.08.02.11.05.05.07.05.11v1.52s-.02.08-.05.11c-.03.03-.07.05-.11.05h-8.79s-.08-.01-.11-.05c-.03-.03-.05-.07-.05-.11v-3.72c0-.55.11-1.04.34-1.46.23-.42.55-.75.96-.97s.9-.34,1.44-.34c.59,0,1.09.15,1.51.44s.72.71.89,1.23c.02.04.05.06.09.04l3.68-1.77s.06-.03.08-.03c.07,0,.1.05.1.14v1.6c0,.09-.04.15-.12.18ZM99.23,142.25h2.22s.07-.02.07-.07v-1.7c0-.36-.11-.66-.33-.89-.22-.23-.5-.34-.84-.34s-.63.12-.85.34c-.22.23-.33.53-.33.89v1.7s.02.07.06.07Z"
      style="fill: #eeb127;" />
    <path
      d="M106.65,135.67s-.07.05-.11.05h-8.79s-.08-.01-.11-.05c-.03-.03-.05-.07-.05-.11v-1.52s.01-.08.05-.11c.03-.03.07-.05.11-.05h3.64s.04,0,.05-.03c0-.02,0-.03-.02-.05l-3.73-3c-.06-.05-.09-.12-.09-.2v-1.72c0-.07.02-.11.06-.13s.08,0,.14.03l3.7,2.9s.07.03.09.01l4.93-3.07c.05-.02.08-.03.09-.03.06,0,.09.04.09.13v1.72c0,.09-.04.15-.1.18l-3.74,2.31s-.03.02-.03.04c0,.02,0,.04.03.05l1.03.82s.06.03.08.03h2.59s.08.02.11.05.05.07.05.11v1.52s-.02.08-.05.11Z"
      style="fill: #eeb127;" />
    <path
      d="M97.93,118.94c.23-.43.57-.77,1-1.01.43-.24.92-.36,1.47-.36s1.03.12,1.44.37.74.59.97,1.04.34.96.34,1.54v1.85s.02.07.07.07h3.32s.08.01.11.04.05.07.05.11v1.52s-.02.08-.05.11-.07.05-.11.05h-8.8s-.08-.02-.11-.05c-.03-.03-.04-.07-.04-.11v-3.67c0-.57.12-1.08.35-1.51ZM101.35,119.76c-.23-.24-.53-.36-.9-.36s-.69.12-.92.36c-.23.24-.35.56-.35.96v1.65s.02.07.06.07h2.39s.06-.02.06-.07v-1.65c0-.4-.11-.72-.34-.96Z"
      style="fill: #eeb127;" />
    <path
      d="M106.58,111.24l-3.6,1.62s-.05.04-.05.08v1.21s.02.07.07.07h3.55s.08.02.11.05.05.07.05.11v1.52s-.02.08-.05.11c-.03.03-.07.05-.11.05h-8.79s-.08-.01-.11-.05c-.03-.03-.05-.07-.05-.11v-3.72c0-.55.11-1.04.34-1.46.23-.42.55-.75.96-.97s.9-.34,1.44-.34c.59,0,1.09.15,1.51.44s.72.71.89,1.23c.02.04.05.06.09.04l3.68-1.77s.06-.03.08-.03c.07,0,.1.05.1.14v1.6c0,.09-.04.15-.12.18ZM99.23,114.22h2.22s.07-.02.07-.07v-1.7c0-.36-.11-.66-.33-.89-.22-.23-.5-.34-.84-.34s-.63.12-.85.34c-.22.23-.33.53-.33.89v1.7s.02.07.06.07Z"
      style="fill: #eeb127;" />
    <path
      d="M106.65,107.65s-.07.05-.11.05h-8.79s-.08-.01-.11-.05c-.03-.03-.05-.07-.05-.11v-1.52s.01-.08.05-.11c.03-.03.07-.05.11-.05h8.79s.08.02.11.05.05.07.05.11v1.52s-.02.08-.05.11Z"
      style="fill: #eeb127;" />
    <path
      d="M97.64,98.61s-.05-.07-.05-.11v-1.52s.01-.08.05-.11c.03-.03.07-.04.11-.04h8.79s.08.01.11.04.05.07.05.11v1.47c0,.09-.04.15-.1.18l-5.56,3.37s-.04.03-.03.05c0,.02.02.03.06.03l5.49-.03s.08.02.11.05.05.07.05.11v1.52s-.02.08-.05.11c-.03.03-.07.05-.11.05h-8.79s-.08-.01-.11-.05c-.03-.03-.05-.07-.05-.11v-1.47c0-.09.03-.15.1-.18l5.54-3.35s.04-.03.03-.05-.02-.03-.06-.03h-5.46s-.08,0-.11-.03Z"
      style="fill: #eeb127;" />
    <path
      d="M97.64,88.47s.07-.04.11-.04h1.27s.08.01.11.04c.03.03.05.07.05.11v2.33s.02.07.07.07h7.29s.08.01.11.04.05.07.05.11v1.52s-.02.08-.05.11-.07.05-.11.05h-7.29s-.07.02-.07.06v2.26s-.01.08-.05.11c-.03.03-.07.04-.11.04h-1.27s-.08-.01-.11-.04c-.03-.03-.05-.07-.05-.11v-6.55s.01-.08.05-.11Z"
      style="fill: #eeb127;" />
  </g>
  <path
    d="M87.78,38.81v-3.14s.01-.05.04-.05h.64c.21,0,.38.08.51.23.13.16.19.36.19.62v1.51c0,.26-.06.47-.19.63-.13.16-.3.23-.51.23h-.64s-.04-.01-.04-.05M88.09,38.57h.37c.12,0,.22-.06.29-.16.07-.11.11-.25.11-.43v-1.49c0-.18-.04-.32-.11-.43-.07-.11-.17-.16-.3-.16h-.37s-.02,0-.02.02v2.62s0,.02.02.02"
    style="fill: #fff;" />
  <path d="M89.59,38.81v-3.14s.01-.05.04-.05h.21s.04.02.04.05v3.14s-.02.05-.04.05h-.21s-.04-.02-.04-.05"
    style="fill: #fff;" />
  <path
    d="M91.63,35.91h-.96s-.02,0-.02.02v1.15s0,.02.02.02h.6s.04.02.04.05v.2s-.02.05-.04.05h-.6s-.02,0-.02.02v1.41s-.01.05-.04.05h-.21s-.04-.02-.04-.05v-3.14s.01-.05.04-.05h1.23s.04.01.04.05v.19s-.01.05-.04.05"
    style="fill: #fff;" />
  <path
    d="M93.19,35.91h-.96s-.02,0-.02.02v1.15s0,.02.02.02h.6s.04.02.04.05v.2s-.02.05-.04.05h-.6s-.02,0-.02.02v1.41s-.01.05-.04.05h-.21s-.04-.02-.04-.05v-3.14s.01-.05.04-.05h1.23s.04.01.04.05v.19s-.01.05-.04.05"
    style="fill: #fff;" />
  <path
    d="M94.75,35.91h-.96s-.02,0-.02.02v1.15s0,.02.02.02h.61s.04.02.04.05v.2s-.01.05-.04.05h-.61s-.02,0-.02.02v1.15s0,.02.02.02h.96s.04.02.04.05v.19s-.02.05-.04.05h-1.23s-.04-.02-.04-.05v-3.14s.01-.05.04-.05h1.23s.04.01.04.05v.19s-.02.05-.04.05"
    style="fill: #fff;" />
  <path
    d="M96.25,38.82l-.43-1.44s0-.01-.02-.01h-.36s-.02,0-.02.02v1.42s-.01.05-.04.05h-.21s-.04-.02-.04-.05v-3.15s.01-.05.04-.05h.68c.2,0,.37.08.49.24.12.16.19.38.19.64,0,.2-.04.38-.12.52-.08.15-.18.24-.32.3-.01,0-.01,0-.01.02l.45,1.45v.02s0,.03-.03.03h-.22s-.04-.01-.05-.04M95.43,35.92v1.16s0,.02.02.02h.37c.13,0,.23-.05.31-.16.08-.11.12-.25.12-.43s-.04-.33-.12-.44c-.08-.11-.18-.16-.31-.16h-.37s-.02,0-.02.02"
    style="fill: #fff;" />
  <path
    d="M98.14,35.91h-.96s-.02,0-.02.02v1.15s0,.02.02.02h.61s.04.02.04.05v.2s-.01.05-.04.05h-.61s-.02,0-.02.02v1.15s0,.02.02.02h.96s.04.02.04.05v.19s-.02.05-.04.05h-1.23s-.04-.02-.04-.05v-3.14s.01-.05.04-.05h1.23s.04.01.04.05v.19s-.02.05-.04.05"
    style="fill: #fff;" />
  <path
    d="M98.52,38.81v-3.14s.01-.05.04-.05h.22s.04.01.05.04l.84,2.33s0,.01.01.01,0,0,0-.01v-2.32s.01-.05.04-.05h.21s.04.02.04.05v3.14s-.01.05-.04.05h-.22s-.04-.01-.05-.04l-.84-2.33s0-.01-.01-.01c0,0,0,0,0,.02v2.31s-.01.05-.04.05h-.21s-.04-.02-.04-.05"
    style="fill: #fff;" />
  <path
    d="M100.29,38.81v-.21s0-.03.01-.06l1.01-2.61s0-.01,0-.02c0,0,0,0-.01,0h-.97s-.04-.02-.04-.05v-.19s.01-.05.04-.05h1.26s.04.02.04.05v.21s0,.03-.01.05l-1.01,2.61s0,.01,0,.02c0,0,0,0,.01,0h.96s.04.02.04.05v.19s-.01.05-.04.05h-1.26s-.04-.02-.04-.05"
    style="fill: #fff;" />
  <path d="M101.97,38.81v-3.14s.01-.05.04-.05h.21s.04.02.04.05v3.14s-.01.05-.04.05h-.21s-.04-.02-.04-.05"
    style="fill: #fff;" />
  <path
    d="M103.89,38.81l-.1-.57s0-.01,0-.01c0,0,0,0-.02,0h-.75s-.01,0-.01,0c0,0,0,0,0,.01l-.11.57s-.02.04-.05.04h-.21s-.02,0-.03-.01c0,0,0-.02,0-.04l.63-3.14s.02-.04.05-.04h.25s.04.01.05.04l.63,3.14h0s-.01.05-.04.05h-.22s-.04-.01-.05-.04M103.06,37.95h.65s.01,0,.01-.02l-.33-1.78s0-.01,0-.01c0,0,0,0,0,.01l-.33,1.78s0,.02.01.02"
    style="fill: #fff;" />
  <path d="M105.22,38.81v-3.14s.01-.05.04-.05h.21s.04.02.04.05v3.14s-.02.05-.04.05h-.21s-.04-.02-.04-.05"
    style="fill: #fff;" />
  <path
    d="M107.82,38.82l-.43-1.44s0-.01-.02-.01h-.36s-.02,0-.02.02v1.42s-.01.05-.04.05h-.21s-.04-.02-.04-.05v-3.15s.01-.05.04-.05h.68c.2,0,.37.08.49.24.12.16.19.38.19.64,0,.2-.04.38-.12.52-.08.15-.18.24-.32.3-.01,0-.01,0-.01.02l.45,1.45v.02s0,.03-.03.03h-.22s-.04-.01-.05-.04M107,35.92v1.16s0,.02.02.02h.37c.13,0,.23-.05.31-.16.08-.11.12-.25.12-.43s-.04-.33-.12-.44c-.08-.11-.18-.16-.31-.16h-.37s-.02,0-.02.02"
    style="fill: #fff;" />
  <path d="M108.43,38.81v-3.14s.01-.05.04-.05h.21s.04.02.04.05v3.14s-.01.05-.04.05h-.21s-.04-.02-.04-.05"
    style="fill: #fff;" />
  <path
    d="M110.47,35.91h-.96s-.02,0-.02.02v1.15s0,.02.02.02h.6s.04.02.04.05v.2s-.02.05-.04.05h-.6s-.02,0-.02.02v1.41s-.01.05-.04.05h-.21s-.04-.02-.04-.05v-3.14s.01-.05.04-.05h1.23s.04.01.04.05v.19s-.01.05-.04.05"
    style="fill: #fff;" />
  <path d="M110.76,38.81v-3.14s.01-.05.04-.05h.21s.04.02.04.05v3.14s-.01.05-.04.05h-.21s-.04-.02-.04-.05"
    style="fill: #fff;" />
  <path
    d="M111.7,38.65c-.13-.16-.2-.38-.2-.65v-2.33s.01-.05.04-.05h.21s.04.02.04.05v2.37c0,.17.04.31.11.41.08.1.18.16.3.16s.23-.05.31-.16c.08-.1.12-.24.12-.41v-2.37s.01-.05.04-.05h.21s.04.02.04.05v2.33c0,.27-.07.48-.2.65-.13.16-.31.25-.52.25s-.39-.08-.52-.25"
    style="fill: #fff;" />
  <path
    d="M114.7,35.67v.19s-.01.05-.04.05h-.55s-.02,0-.02.02v2.88s-.01.05-.04.05h-.21s-.04-.02-.04-.05v-2.88s0-.02-.02-.02h-.52s-.04-.02-.04-.05v-.19s.01-.05.04-.05h1.39s.04.02.04.05"
    style="fill: #fff;" />
  <path d="M115.03,38.81v-3.14s.01-.05.04-.05h.21s.04.02.04.05v3.14s-.01.05-.04.05h-.21s-.04-.02-.04-.05"
    style="fill: #fff;" />
  <path
    d="M87.57,74.28c-.13-.15-.19-.35-.19-.59v-.11s.01-.05.04-.05h.21s.04.02.04.05v.1c0,.16.04.29.11.4.08.1.17.15.29.15s.21-.05.29-.14c.08-.1.12-.22.12-.38,0-.1-.02-.19-.06-.27-.04-.07-.09-.14-.15-.2-.06-.06-.16-.14-.3-.26-.14-.11-.25-.21-.33-.29-.08-.08-.15-.18-.2-.29-.05-.11-.08-.25-.08-.4,0-.24.06-.43.19-.57.12-.14.29-.21.49-.21.21,0,.38.08.51.23.12.15.19.35.19.61v.12s-.01.05-.04.05h-.21s-.04-.02-.04-.05v-.12c0-.16-.04-.29-.11-.39-.07-.1-.17-.15-.29-.15-.11,0-.2.04-.27.13-.07.09-.11.21-.11.37,0,.1.02.18.05.25.03.07.08.14.14.21.06.07.16.15.28.25.17.14.29.25.37.33.08.09.15.18.19.28.04.1.07.22.07.36,0,.25-.07.46-.2.61-.13.15-.3.23-.5.23s-.37-.08-.5-.23"
    style="fill: #fff;" />
  <path
    d="M90.36,71.52h-.96s-.02,0-.02.02v1.15s0,.02.02.02h.61s.04.02.04.05v.2s-.01.05-.04.05h-.61s-.02,0-.02.02v1.15s0,.02.02.02h.96s.04.02.04.05v.19s-.01.05-.04.05h-1.23s-.04-.02-.04-.05v-3.14s.01-.05.04-.05h1.23s.04.01.04.05v.19s-.01.05-.04.05"
    style="fill: #fff;" />
  <path
    d="M91.96,71.48c.12.17.19.38.19.65s-.06.48-.18.64c-.12.16-.28.24-.48.24h-.43s-.02,0-.02.02v1.4s-.01.05-.04.05h-.21s-.04-.02-.04-.05v-3.15s.02-.05.04-.05h.69c.2,0,.37.08.49.25M91.74,72.57c.08-.11.12-.26.12-.44s-.04-.33-.12-.45c-.08-.11-.18-.17-.3-.17h-.38s-.02,0-.02.02v1.19s0,.02.02.02h.38c.12,0,.23-.06.3-.17"
    style="fill: #fff;" />
  <path
    d="M93.5,74.42l-.1-.57s0-.01,0-.01c0,0,0,0-.01,0h-.75s-.01,0-.01,0c0,0,0,0,0,.01l-.11.57s-.02.04-.05.04h-.21s-.02,0-.03-.01c0,0,0-.02,0-.04l.63-3.14s.02-.04.05-.04h.25s.04.01.05.04l.63,3.14h0s-.01.05-.04.05h-.22s-.04-.01-.05-.04M92.67,73.56h.65s.01,0,.01-.02l-.33-1.78s0-.01,0-.01c0,0,0,0,0,.01l-.33,1.78s0,.02.01.02"
    style="fill: #fff;" />
  <path
    d="M95.24,74.43l-.43-1.44s0-.01-.02-.01h-.36s-.02,0-.02.02v1.42s-.01.05-.04.05h-.21s-.04-.02-.04-.05v-3.15s.01-.05.04-.05h.68c.2,0,.37.08.49.24.12.16.19.38.19.64,0,.2-.04.38-.12.52-.08.15-.18.24-.32.3-.01,0-.01,0-.01.02l.45,1.45v.02s0,.03-.03.03h-.22s-.04-.01-.05-.04M94.42,71.53v1.16s0,.02.02.02h.38c.13,0,.23-.05.31-.16.08-.11.12-.25.12-.43s-.04-.33-.12-.44c-.08-.11-.18-.16-.31-.16h-.38s-.02,0-.02.02"
    style="fill: #fff;" />
  <path
    d="M97.04,74.42l-.1-.57s0-.01,0-.01c0,0,0,0-.02,0h-.75s-.01,0-.01,0c0,0,0,0,0,.01l-.11.57s-.02.04-.05.04h-.21s-.02,0-.03-.01c0,0,0-.02,0-.04l.63-3.14s.02-.04.05-.04h.25s.04.01.05.04l.63,3.14h0s-.01.05-.04.05h-.22s-.04-.01-.05-.04M96.21,73.56h.65s.01,0,.01-.02l-.33-1.78s0-.01,0-.01c0,0,0,0,0,.01l-.33,1.78s0,.02.01.02"
    style="fill: #fff;" />
  <path
    d="M98.73,71.28v.19s-.01.05-.04.05h-.55s-.02,0-.02.02v2.88s-.01.05-.04.05h-.21s-.04-.02-.04-.05v-2.88s0-.02-.02-.02h-.52s-.04-.02-.04-.05v-.19s.01-.05.04-.05h1.39s.04.02.04.05"
    style="fill: #fff;" />
  <path
    d="M100.32,71.52h-.96s-.02,0-.02.02v1.15s0,.02.02.02h.61s.04.02.04.05v.2s-.01.05-.04.05h-.61s-.02,0-.02.02v1.15s0,.02.02.02h.96s.04.02.04.05v.19s-.01.05-.04.05h-1.23s-.04-.02-.04-.05v-3.14s.01-.05.04-.05h1.23s.04.01.04.05v.19s-.01.05-.04.05"
    style="fill: #fff;" />
  <path
    d="M102.74,71.28v.19s-.01.05-.04.05h-.55s-.02,0-.02.02v2.88s-.01.05-.04.05h-.21s-.04-.02-.04-.05v-2.88s0-.02-.02-.02h-.52s-.04-.02-.04-.05v-.19s.01-.05.04-.05h1.39s.04.02.04.05"
    style="fill: #fff;" />
  <path
    d="M104.17,71.23h.21s.04.02.04.05v3.14s-.01.05-.04.05h-.21s-.04-.02-.04-.05v-1.41s0-.02-.02-.02h-.74s-.02,0-.02.02v1.41s-.01.05-.04.05h-.21s-.04-.02-.04-.05v-3.14s.01-.05.04-.05h.21s.04.02.04.05v1.4s0,.02.02.02h.74s.02,0,.02-.02v-1.4s.01-.05.04-.05"
    style="fill: #fff;" />
  <path
    d="M106.14,71.52h-.96s-.02,0-.02.02v1.15s0,.02.02.02h.61s.04.02.04.05v.2s-.01.05-.04.05h-.61s-.02,0-.02.02v1.15s0,.02.02.02h.96s.04.02.04.05v.19s-.01.05-.04.05h-1.23s-.04-.02-.04-.05v-3.14s.01-.05.04-.05h1.23s.04.01.04.05v.19s-.01.05-.04.05"
    style="fill: #fff;" />
  <path
    d="M107.61,74.42l-.55-3.14h0s.01-.05.04-.05h.22s.04.01.04.04l.39,2.43s0,0,0,0,0,0,0,0l.34-2.43s.02-.04.04-.04h.19s.04.01.04.04l.35,2.43s0,0,0,0c0,0,0,0,0,0l.36-2.43s.02-.04.04-.04h.22s.02,0,.03.01c0,0,0,.02,0,.04l-.51,3.14s-.02.04-.05.04h-.2s-.04-.01-.04-.04l-.35-2.44s0,0-.01,0c0,0,0,0,0,0l-.34,2.44s-.02.04-.04.04h-.2s-.04-.01-.05-.04"
    style="fill: #fff;" />
  <path
    d="M110.64,74.42l-.1-.57s0-.01,0-.01c0,0,0,0-.02,0h-.75s-.01,0-.01,0c0,0,0,0,0,.01l-.11.57s-.02.04-.05.04h-.21s-.03,0-.03-.01c0,0,0-.02,0-.04l.63-3.14s.02-.04.05-.04h.25s.04.01.04.04l.63,3.14h0s-.01.05-.04.05h-.21s-.04-.01-.05-.04M109.81,73.56h.65s.01,0,.01-.02l-.33-1.78s0-.01,0-.01c0,0,0,0,0,.01l-.33,1.78s0,.02.01.02"
    style="fill: #fff;" />
  <path
    d="M111.28,74.28c-.13-.15-.19-.35-.19-.59v-.11s.01-.05.04-.05h.21s.04.02.04.05v.1c0,.16.04.29.11.4.08.1.17.15.29.15s.21-.05.29-.14c.08-.1.12-.22.12-.38,0-.1-.02-.19-.06-.27-.04-.07-.09-.14-.15-.2-.06-.06-.16-.14-.3-.26-.14-.11-.25-.21-.33-.29-.08-.08-.15-.18-.2-.29-.05-.11-.08-.25-.08-.4,0-.24.06-.43.19-.57.12-.14.29-.21.49-.21.21,0,.38.08.51.23.13.15.19.35.19.61v.12s-.01.05-.04.05h-.21s-.04-.02-.04-.05v-.12c0-.16-.04-.29-.11-.39-.07-.1-.17-.15-.29-.15-.11,0-.2.04-.27.13-.07.09-.11.21-.11.37,0,.1.02.18.05.25.03.07.08.14.14.21.06.07.16.15.28.25.17.14.29.25.37.33.08.09.15.18.19.28.04.1.07.22.07.36,0,.25-.07.46-.2.61-.13.15-.3.23-.5.23s-.37-.08-.5-.23"
    style="fill: #fff;" />
  <path
    d="M114.09,71.28v.19s-.01.05-.04.05h-.55s-.02,0-.02.02v2.88s-.01.05-.04.05h-.21s-.04-.02-.04-.05v-2.88s0-.02-.02-.02h-.52s-.04-.02-.04-.05v-.19s.01-.05.04-.05h1.39s.04.02.04.05"
    style="fill: #fff;" />
  <path
    d="M115.68,71.52h-.96s-.02,0-.02.02v1.15s0,.02.02.02h.61s.04.02.04.05v.2s-.01.05-.04.05h-.61s-.02,0-.02.02v1.15s0,.02.02.02h.96s.04.02.04.05v.19s-.01.05-.04.05h-1.23s-.04-.02-.04-.05v-3.14s.01-.05.04-.05h1.23s.04.01.04.05v.19s-.01.05-.04.05"
    style="fill: #fff;" />
  <rect x="86.57" y="40.08" width="29.76" height="29.98" style="fill: #fff;" />
  <rect x="87.3" y="40.88" width="28.35" height="28.35" style="fill: #fff;" />
  <path
    d="M87.3,41.74h.86v-.86h-.86v.86ZM88.16,41.74h.86v-.86h-.86v.86ZM89.02,41.74h.86v-.86h-.86v.86ZM89.88,41.74h.86v-.86h-.86v.86ZM90.74,41.74h.86v-.86h-.86v.86ZM91.6,41.74h.86v-.86h-.86v.86ZM92.46,41.74h.86v-.86h-.86v.86Z"
    style="fill: #062638;" />
  <rect x="93.32" y="40.88" width=".86" height=".86" style="fill: #fff;" />
  <rect x="94.18" y="40.88" width=".86" height=".86" style="fill: #062638;" />
  <rect x="95.04" y="40.88" width=".86" height=".86" style="fill: #fff;" />
  <rect x="95.89" y="40.88" width=".86" height=".86" style="fill: #062638;" />
  <rect x="96.75" y="40.88" width=".86" height=".86" style="fill: #fff;" />
  <rect x="97.61" y="40.88" width=".86" height=".86" style="fill: #062638;" />
  <rect x="98.47" y="40.88" width=".86" height=".86" style="fill: #fff;" />
  <rect x="99.33" y="40.88" width=".86" height=".86" style="fill: #062638;" />
  <path d="M100.19,41.74h.86v-.86h-.86v.86ZM101.05,41.74h.86v-.86h-.86v.86Z" style="fill: #fff;" />
  <path d="M101.91,41.74h.86v-.86h-.86v.86ZM102.77,41.74h.86v-.86h-.86v.86ZM103.62,41.74h.86v-.86h-.86v.86Z"
    style="fill: #062638;" />
  <rect x="104.48" y="40.88" width=".86" height=".86" style="fill: #fff;" />
  <rect x="105.34" y="40.88" width=".86" height=".86" style="fill: #062638;" />
  <rect x="106.2" y="40.88" width=".86" height=".86" style="fill: #fff;" />
  <path d="M107.06,41.74h.86v-.86h-.86v.86ZM107.92,41.74h.86v-.86h-.86v.86Z" style="fill: #062638;" />
  <rect x="108.78" y="40.88" width=".86" height=".86" style="fill: #fff;" />
  <path
    d="M87.3,42.6h.86v-.86h-.86v.86ZM109.64,41.74h.86v-.86h-.86v.86ZM110.5,41.74h.86v-.86h-.86v.86ZM111.36,41.74h.86v-.86h-.86v.86ZM112.22,41.74h.86v-.86h-.86v.86ZM113.07,41.74h.86v-.86h-.86v.86ZM113.93,41.74h.86v-.86h-.86v.86ZM114.79,41.74h.86v-.86h-.86v.86Z"
    style="fill: #062638;" />
  <path
    d="M88.16,42.6h.86v-.86h-.86v.86ZM89.02,42.6h.86v-.86h-.86v.86ZM89.88,42.6h.86v-.86h-.86v.86ZM90.74,42.6h.86v-.86h-.86v.86ZM91.6,42.6h.86v-.86h-.86v.86Z"
    style="fill: #fff;" />
  <rect x="92.46" y="41.74" width=".86" height=".86" style="fill: #062638;" />
  <rect x="93.32" y="41.74" width=".86" height=".86" style="fill: #fff;" />
  <rect x="94.18" y="41.74" width=".86" height=".86" style="fill: #062638;" />
  <rect x="95.04" y="41.74" width=".86" height=".86" style="fill: #fff;" />
  <polygon points="96.75 41.74 95.89 41.74 95.89 42.6 96.75 42.6 97.61 42.6 97.61 41.74 96.75 41.74"
    style="fill: #062638;" />
  <path d="M97.61,42.6h.86v-.86h-.86v.86ZM98.47,42.6h.86v-.86h-.86v.86ZM99.33,42.6h.86v-.86h-.86v.86Z"
    style="fill: #fff;" />
  <path d="M100.19,42.6h.86v-.86h-.86v.86ZM101.05,42.6h.86v-.86h-.86v.86ZM101.91,42.6h.86v-.86h-.86v.86Z"
    style="fill: #062638;" />
  <rect x="102.77" y="41.74" width=".86" height=".86" style="fill: #fff;" />
  <rect x="103.62" y="41.74" width=".86" height=".86" style="fill: #062638;" />
  <path
    d="M104.48,42.6h.86v-.86h-.86v.86ZM105.34,42.6h.86v-.86h-.86v.86ZM106.2,42.6h.86v-.86h-.86v.86ZM107.06,42.6h.86v-.86h-.86v.86Z"
    style="fill: #fff;" />
  <rect x="107.92" y="41.74" width=".86" height=".86" style="fill: #062638;" />
  <rect x="108.78" y="41.74" width=".86" height=".86" style="fill: #fff;" />
  <rect x="109.64" y="41.74" width=".86" height=".86" style="fill: #062638;" />
  <path
    d="M110.5,42.6h.86v-.86h-.86v.86ZM111.36,42.6h.86v-.86h-.86v.86ZM112.22,42.6h.86v-.86h-.86v.86ZM113.07,42.6h.86v-.86h-.86v.86ZM113.93,42.6h.86v-.86h-.86v.86Z"
    style="fill: #fff;" />
  <path d="M87.3,43.46h.86v-.86h-.86v.86ZM114.79,42.6h.86v-.86h-.86v.86Z" style="fill: #062638;" />
  <rect x="88.16" y="42.6" width=".86" height=".86" style="fill: #fff;" />
  <path d="M89.02,43.46h.86v-.86h-.86v.86ZM89.88,43.46h.86v-.86h-.86v.86ZM90.74,43.46h.86v-.86h-.86v.86Z"
    style="fill: #062638;" />
  <rect x="91.6" y="42.6" width=".86" height=".86" style="fill: #fff;" />
  <rect x="92.46" y="42.6" width=".86" height=".86" style="fill: #062638;" />
  <rect x="93.32" y="42.6" width=".86" height=".86" style="fill: #fff;" />
  <rect x="94.18" y="42.6" width=".86" height=".86" style="fill: #062638;" />
  <rect x="95.04" y="42.6" width=".86" height=".86" style="fill: #fff;" />
  <rect x="95.89" y="42.6" width=".86" height=".86" style="fill: #062638;" />
  <rect x="96.75" y="42.6" width=".86" height=".86" style="fill: #fff;" />
  <path d="M97.61,43.46h.86v-.86h-.86v.86ZM98.47,43.46h.86v-.86h-.86v.86ZM99.33,43.46h.86v-.86h-.86v.86Z"
    style="fill: #062638;" />
  <path d="M100.19,43.46h.86v-.86h-.86v.86ZM101.05,43.46h.86v-.86h-.86v.86Z" style="fill: #fff;" />
  <rect x="101.91" y="42.6" width=".86" height=".86" style="fill: #062638;" />
  <path d="M102.77,43.46h.86v-.86h-.86v.86ZM103.62,43.46h.86v-.86h-.86v.86Z" style="fill: #fff;" />
  <path
    d="M104.48,43.46h.86v-.86h-.86v.86ZM105.34,43.46h.86v-.86h-.86v.86ZM106.2,43.46h.86v-.86h-.86v.86ZM107.06,43.46h.86v-.86h-.86v.86ZM107.92,43.46h.86v-.86h-.86v.86Z"
    style="fill: #062638;" />
  <rect x="108.78" y="42.6" width=".86" height=".86" style="fill: #fff;" />
  <rect x="109.64" y="42.6" width=".86" height=".86" style="fill: #062638;" />
  <rect x="110.5" y="42.6" width=".86" height=".86" style="fill: #fff;" />
  <path d="M111.36,43.46h.86v-.86h-.86v.86ZM112.22,43.46h.86v-.86h-.86v.86ZM113.07,43.46h.86v-.86h-.86v.86Z"
    style="fill: #062638;" />
  <rect x="113.93" y="42.6" width=".86" height=".86" style="fill: #fff;" />
  <path d="M87.3,44.32h.86v-.86h-.86v.86ZM114.79,43.46h.86v-.86h-.86v.86Z" style="fill: #062638;" />
  <rect x="88.16" y="43.46" width=".86" height=".86" style="fill: #fff;" />
  <path d="M89.02,44.32h.86v-.86h-.86v.86ZM89.88,44.32h.86v-.86h-.86v.86ZM90.74,44.32h.86v-.86h-.86v.86Z"
    style="fill: #062638;" />
  <rect x="91.6" y="43.46" width=".86" height=".86" style="fill: #fff;" />
  <rect x="92.46" y="43.46" width=".86" height=".86" style="fill: #062638;" />
  <path d="M93.32,44.32h.86v-.86h-.86v.86ZM94.18,44.32h.86v-.86h-.86v.86Z" style="fill: #fff;" />
  <rect x="95.04" y="43.46" width=".86" height=".86" style="fill: #062638;" />
  <polygon points="96.75 43.46 95.89 43.46 95.89 44.32 96.75 44.32 97.61 44.32 97.61 43.46 96.75 43.46"
    style="fill: #fff;" />
  <path d="M97.61,44.32h.86v-.86h-.86v.86ZM98.47,44.32h.86v-.86h-.86v.86ZM99.33,44.32h.86v-.86h-.86v.86Z"
    style="fill: #062638;" />
  <rect x="100.19" y="43.46" width=".86" height=".86" style="fill: #fff;" />
  <rect x="101.05" y="43.46" width=".86" height=".86" style="fill: #062638;" />
  <rect x="101.91" y="43.46" width=".86" height=".86" style="fill: #fff;" />
  <path d="M102.77,44.32h.86v-.86h-.86v.86ZM103.62,44.32h.86v-.86h-.86v.86Z" style="fill: #062638;" />
  <path d="M104.48,44.32h.86v-.86h-.86v.86ZM105.34,44.32h.86v-.86h-.86v.86Z" style="fill: #fff;" />
  <path d="M106.2,44.32h.86v-.86h-.86v.86ZM107.06,44.32h.86v-.86h-.86v.86ZM107.92,44.32h.86v-.86h-.86v.86Z"
    style="fill: #062638;" />
  <rect x="108.78" y="43.46" width=".86" height=".86" style="fill: #fff;" />
  <rect x="109.64" y="43.46" width=".86" height=".86" style="fill: #062638;" />
  <rect x="110.5" y="43.46" width=".86" height=".86" style="fill: #fff;" />
  <path d="M111.36,44.32h.86v-.86h-.86v.86ZM112.22,44.32h.86v-.86h-.86v.86ZM113.07,44.32h.86v-.86h-.86v.86Z"
    style="fill: #062638;" />
  <rect x="113.93" y="43.46" width=".86" height=".86" style="fill: #fff;" />
  <path d="M87.3,45.18h.86v-.86h-.86v.86ZM114.79,44.32h.86v-.86h-.86v.86Z" style="fill: #062638;" />
  <rect x="88.16" y="44.32" width=".86" height=".86" style="fill: #fff;" />
  <path d="M89.02,45.18h.86v-.86h-.86v.86ZM89.88,45.18h.86v-.86h-.86v.86ZM90.74,45.18h.86v-.86h-.86v.86Z"
    style="fill: #062638;" />
  <rect x="91.6" y="44.32" width=".86" height=".86" style="fill: #fff;" />
  <rect x="92.46" y="44.32" width=".86" height=".86" style="fill: #062638;" />
  <path d="M93.32,45.18h.86v-.86h-.86v.86ZM94.18,45.18h.86v-.86h-.86v.86Z" style="fill: #fff;" />
  <rect x="95.04" y="44.32" width=".86" height=".86" style="fill: #062638;" />
  <rect x="95.89" y="44.32" width=".86" height=".86" style="fill: #fff;" />
  <rect x="96.75" y="44.32" width=".86" height=".86" style="fill: #062638;" />
  <path d="M97.61,45.18h.86v-.86h-.86v.86ZM98.47,45.18h.86v-.86h-.86v.86Z" style="fill: #fff;" />
  <path
    d="M99.33,45.18h.86v-.86h-.86v.86ZM100.19,45.18h.86v-.86h-.86v.86ZM101.05,45.18h.86v-.86h-.86v.86ZM101.91,45.18h.86v-.86h-.86v.86Z"
    style="fill: #062638;" />
  <path d="M102.77,45.18h.86v-.86h-.86v.86ZM103.62,45.18h.86v-.86h-.86v.86Z" style="fill: #fff;" />
  <rect x="104.48" y="44.32" width=".86" height=".86" style="fill: #062638;" />
  <rect x="105.34" y="44.32" width=".86" height=".86" style="fill: #fff;" />
  <path d="M106.2,45.18h.86v-.86h-.86v.86ZM107.06,45.18h.86v-.86h-.86v.86Z" style="fill: #062638;" />
  <path d="M107.92,45.18h.86v-.86h-.86v.86ZM108.78,45.18h.86v-.86h-.86v.86Z" style="fill: #fff;" />
  <rect x="109.64" y="44.32" width=".86" height=".86" style="fill: #062638;" />
  <rect x="110.5" y="44.32" width=".86" height=".86" style="fill: #fff;" />
  <path d="M111.36,45.18h.86v-.86h-.86v.86ZM112.22,45.18h.86v-.86h-.86v.86ZM113.07,45.18h.86v-.86h-.86v.86Z"
    style="fill: #062638;" />
  <rect x="113.93" y="44.32" width=".86" height=".86" style="fill: #fff;" />
  <path d="M87.3,46.04h.86v-.86h-.86v.86ZM114.79,45.18h.86v-.86h-.86v.86Z" style="fill: #062638;" />
  <path
    d="M88.16,46.04h.86v-.86h-.86v.86ZM89.02,46.04h.86v-.86h-.86v.86ZM89.88,46.04h.86v-.86h-.86v.86ZM90.74,46.04h.86v-.86h-.86v.86ZM91.6,46.04h.86v-.86h-.86v.86Z"
    style="fill: #fff;" />
  <rect x="92.46" y="45.18" width=".86" height=".86" style="fill: #062638;" />
  <rect x="93.32" y="45.18" width=".86" height=".86" style="fill: #fff;" />
  <rect x="94.18" y="45.18" width=".86" height=".86" style="fill: #062638;" />
  <path d="M95.04,46.04h.86v-.86h-.86v.86ZM96.75,45.18h-.86v.86h1.72v-.86h-.86ZM97.61,46.04h.86v-.86h-.86v.86Z"
    style="fill: #fff;" />
  <rect x="98.47" y="45.18" width=".86" height=".86" style="fill: #062638;" />
  <path
    d="M99.33,46.04h.86v-.86h-.86v.86ZM100.19,46.04h.86v-.86h-.86v.86ZM101.05,46.04h.86v-.86h-.86v.86ZM101.91,46.04h.86v-.86h-.86v.86Z"
    style="fill: #fff;" />
  <path d="M102.77,46.04h.86v-.86h-.86v.86ZM103.62,46.04h.86v-.86h-.86v.86ZM104.48,46.04h.86v-.86h-.86v.86Z"
    style="fill: #062638;" />
  <rect x="105.34" y="45.18" width=".86" height=".86" style="fill: #fff;" />
  <rect x="106.2" y="45.18" width=".86" height=".86" style="fill: #062638;" />
  <rect x="107.06" y="45.18" width=".86" height=".86" style="fill: #fff;" />
  <rect x="107.92" y="45.18" width=".86" height=".86" style="fill: #062638;" />
  <rect x="108.78" y="45.18" width=".86" height=".86" style="fill: #fff;" />
  <rect x="109.64" y="45.18" width=".86" height=".86" style="fill: #062638;" />
  <path
    d="M110.5,46.04h.86v-.86h-.86v.86ZM111.36,46.04h.86v-.86h-.86v.86ZM112.22,46.04h.86v-.86h-.86v.86ZM113.07,46.04h.86v-.86h-.86v.86ZM113.93,46.04h.86v-.86h-.86v.86Z"
    style="fill: #fff;" />
  <path
    d="M87.3,46.9h.86v-.86h-.86v.86ZM88.16,46.9h.86v-.86h-.86v.86ZM89.02,46.9h.86v-.86h-.86v.86ZM89.88,46.9h.86v-.86h-.86v.86ZM90.74,46.9h.86v-.86h-.86v.86ZM91.6,46.9h.86v-.86h-.86v.86ZM92.46,46.9h.86v-.86h-.86v.86ZM114.79,46.04h.86v-.86h-.86v.86Z"
    style="fill: #062638;" />
  <rect x="93.32" y="46.04" width=".86" height=".86" style="fill: #fff;" />
  <rect x="94.18" y="46.04" width=".86" height=".86" style="fill: #062638;" />
  <rect x="95.04" y="46.04" width=".86" height=".86" style="fill: #fff;" />
  <rect x="95.89" y="46.04" width=".86" height=".86" style="fill: #062638;" />
  <rect x="96.75" y="46.04" width=".86" height=".86" style="fill: #fff;" />
  <rect x="97.61" y="46.04" width=".86" height=".86" style="fill: #062638;" />
  <rect x="98.47" y="46.04" width=".86" height=".86" style="fill: #fff;" />
  <rect x="99.33" y="46.04" width=".86" height=".86" style="fill: #062638;" />
  <rect x="100.19" y="46.04" width=".86" height=".86" style="fill: #fff;" />
  <rect x="101.05" y="46.04" width=".86" height=".86" style="fill: #062638;" />
  <rect x="101.91" y="46.04" width=".86" height=".86" style="fill: #fff;" />
  <rect x="102.77" y="46.04" width=".86" height=".86" style="fill: #062638;" />
  <rect x="103.62" y="46.04" width=".86" height=".86" style="fill: #fff;" />
  <rect x="104.48" y="46.04" width=".86" height=".86" style="fill: #062638;" />
  <rect x="105.34" y="46.04" width=".86" height=".86" style="fill: #fff;" />
  <rect x="106.2" y="46.04" width=".86" height=".86" style="fill: #062638;" />
  <rect x="107.06" y="46.04" width=".86" height=".86" style="fill: #fff;" />
  <rect x="107.92" y="46.04" width=".86" height=".86" style="fill: #062638;" />
  <rect x="108.78" y="46.04" width=".86" height=".86" style="fill: #fff;" />
  <path
    d="M109.64,46.9h.86v-.86h-.86v.86ZM110.5,46.9h.86v-.86h-.86v.86ZM111.36,46.9h.86v-.86h-.86v.86ZM112.22,46.9h.86v-.86h-.86v.86ZM113.07,46.9h.86v-.86h-.86v.86ZM113.93,46.9h.86v-.86h-.86v.86ZM114.79,46.9h.86v-.86h-.86v.86Z"
    style="fill: #062638;" />
  <path
    d="M87.3,47.76h.86v-.86h-.86v.86ZM88.16,47.76h.86v-.86h-.86v.86ZM89.02,47.76h.86v-.86h-.86v.86ZM89.88,47.76h.86v-.86h-.86v.86ZM90.74,47.76h.86v-.86h-.86v.86ZM91.6,47.76h.86v-.86h-.86v.86ZM92.46,47.76h.86v-.86h-.86v.86ZM93.32,47.76h.86v-.86h-.86v.86Z"
    style="fill: #fff;" />
  <rect x="94.18" y="46.9" width=".86" height=".86" style="fill: #062638;" />
  <rect x="95.04" y="46.9" width=".86" height=".86" style="fill: #fff;" />
  <polygon points="96.75 46.9 95.89 46.9 95.89 47.76 96.75 47.76 97.61 47.76 97.61 46.9 96.75 46.9"
    style="fill: #062638;" />
  <rect x="97.61" y="46.9" width=".86" height=".86" style="fill: #fff;" />
  <path d="M98.47,47.76h.86v-.86h-.86v.86ZM99.33,47.76h.86v-.86h-.86v.86ZM100.19,47.76h.86v-.86h-.86v.86Z"
    style="fill: #062638;" />
  <path
    d="M101.05,47.76h.86v-.86h-.86v.86ZM101.91,47.76h.86v-.86h-.86v.86ZM102.77,47.76h.86v-.86h-.86v.86ZM103.62,47.76h.86v-.86h-.86v.86Z"
    style="fill: #fff;" />
  <path
    d="M104.48,47.76h.86v-.86h-.86v.86ZM105.34,47.76h.86v-.86h-.86v.86ZM106.2,47.76h.86v-.86h-.86v.86ZM107.06,47.76h.86v-.86h-.86v.86Z"
    style="fill: #062638;" />
  <path
    d="M87.3,48.61h.86v-.86h-.86v.86ZM88.16,48.61h.86v-.86h-.86v.86ZM107.92,47.76h.86v-.86h-.86v.86ZM108.78,47.76h.86v-.86h-.86v.86ZM109.64,47.76h.86v-.86h-.86v.86ZM110.5,47.76h.86v-.86h-.86v.86ZM111.36,47.76h.86v-.86h-.86v.86ZM112.22,47.76h.86v-.86h-.86v.86ZM113.07,47.76h.86v-.86h-.86v.86ZM113.93,47.76h.86v-.86h-.86v.86ZM114.79,47.76h.86v-.86h-.86v.86Z"
    style="fill: #fff;" />
  <path d="M89.02,48.61h.86v-.86h-.86v.86ZM89.88,48.61h.86v-.86h-.86v.86ZM90.74,48.61h.86v-.86h-.86v.86Z"
    style="fill: #062638;" />
  <rect x="91.6" y="47.76" width=".86" height=".86" style="fill: #fff;" />
  <rect x="92.46" y="47.76" width=".86" height=".86" style="fill: #062638;" />
  <rect x="93.32" y="47.76" width=".86" height=".86" style="fill: #fff;" />
  <path d="M94.18,48.61h.86v-.86h-.86v.86ZM95.04,48.61h.86v-.86h-.86v.86Z" style="fill: #062638;" />
  <rect x="95.89" y="47.76" width=".86" height=".86" style="fill: #fff;" />
  <rect x="96.75" y="47.76" width=".86" height=".86" style="fill: #062638;" />
  <path d="M97.61,48.61h.86v-.86h-.86v.86ZM98.47,48.61h.86v-.86h-.86v.86Z" style="fill: #fff;" />
  <path
    d="M99.33,48.61h.86v-.86h-.86v.86ZM100.19,48.61h.86v-.86h-.86v.86ZM101.05,48.61h.86v-.86h-.86v.86ZM101.91,48.61h.86v-.86h-.86v.86Z"
    style="fill: #062638;" />
  <path d="M102.77,48.61h.86v-.86h-.86v.86ZM103.62,48.61h.86v-.86h-.86v.86Z" style="fill: #fff;" />
  <rect x="104.48" y="47.76" width=".86" height=".86" style="fill: #062638;" />
  <rect x="105.34" y="47.76" width=".86" height=".86" style="fill: #fff;" />
  <path
    d="M106.2,48.61h.86v-.86h-.86v.86ZM107.06,48.61h.86v-.86h-.86v.86ZM107.92,48.61h.86v-.86h-.86v.86ZM108.78,48.61h.86v-.86h-.86v.86ZM109.64,48.61h.86v-.86h-.86v.86ZM110.5,48.61h.86v-.86h-.86v.86Z"
    style="fill: #062638;" />
  <path d="M111.36,48.61h.86v-.86h-.86v.86ZM112.22,48.61h.86v-.86h-.86v.86Z" style="fill: #fff;" />
  <path
    d="M87.3,49.47h.86v-.86h-.86v.86ZM88.16,49.47h.86v-.86h-.86v.86ZM113.07,48.61h.86v-.86h-.86v.86ZM113.93,48.61h.86v-.86h-.86v.86ZM114.79,48.61h.86v-.86h-.86v.86Z"
    style="fill: #062638;" />
  <rect x="89.02" y="48.62" width=".86" height=".86" style="fill: #fff;" />
  <path d="M89.88,49.47h.86v-.86h-.86v.86ZM90.74,49.47h.86v-.86h-.86v.86Z" style="fill: #062638;" />
  <path d="M91.6,49.47h.86v-.86h-.86v.86ZM92.46,49.47h.86v-.86h-.86v.86Z" style="fill: #fff;" />
  <path d="M93.32,49.47h.86v-.86h-.86v.86ZM94.18,49.47h.86v-.86h-.86v.86ZM95.04,49.47h.86v-.86h-.86v.86Z"
    style="fill: #062638;" />
  <rect x="95.89" y="48.62" width=".86" height=".86" style="fill: #fff;" />
  <rect x="96.75" y="48.62" width=".86" height=".86" style="fill: #062638;" />
  <path d="M97.61,49.47h.86v-.86h-.86v.86ZM98.47,49.47h.86v-.86h-.86v.86Z" style="fill: #fff;" />
  <rect x="99.33" y="48.62" width=".86" height=".86" style="fill: #062638;" />
  <path d="M100.19,49.47h.86v-.86h-.86v.86ZM101.05,49.47h.86v-.86h-.86v.86ZM101.91,49.47h.86v-.86h-.86v.86Z"
    style="fill: #fff;" />
  <rect x="102.77" y="48.62" width=".86" height=".86" style="fill: #062638;" />
  <path d="M103.62,49.47h.86v-.86h-.86v.86ZM104.48,49.47h.86v-.86h-.86v.86Z" style="fill: #fff;" />
  <path
    d="M105.34,49.47h.86v-.86h-.86v.86ZM106.2,49.47h.86v-.86h-.86v.86ZM107.06,49.47h.86v-.86h-.86v.86ZM107.92,49.47h.86v-.86h-.86v.86ZM108.78,49.47h.86v-.86h-.86v.86ZM109.64,49.47h.86v-.86h-.86v.86Z"
    style="fill: #062638;" />
  <path d="M110.5,49.47h.86v-.86h-.86v.86ZM111.36,49.47h.86v-.86h-.86v.86Z" style="fill: #fff;" />
  <rect x="112.22" y="48.62" width=".86" height=".86" style="fill: #062638;" />
  <path d="M113.07,49.47h.86v-.86h-.86v.86ZM113.93,49.47h.86v-.86h-.86v.86Z" style="fill: #fff;" />
  <path
    d="M87.3,50.33h.86v-.86h-.86v.86ZM88.16,50.33h.86v-.86h-.86v.86ZM89.02,50.33h.86v-.86h-.86v.86ZM89.88,50.33h.86v-.86h-.86v.86ZM90.74,50.33h.86v-.86h-.86v.86ZM91.6,50.33h.86v-.86h-.86v.86ZM92.46,50.33h.86v-.86h-.86v.86ZM114.79,49.47h.86v-.86h-.86v.86Z"
    style="fill: #062638;" />
  <path
    d="M93.32,50.33h.86v-.86h-.86v.86ZM94.17,50.33h.86v-.86h-.86v.86ZM95.03,50.33h.86v-.86h-.86v.86ZM96.75,49.47h-.86v.86h1.72v-.86h-.86Z"
    style="fill: #fff;" />
  <path d="M97.61,50.33h.86v-.86h-.86v.86ZM98.47,50.33h.86v-.86h-.86v.86Z" style="fill: #062638;" />
  <path d="M99.33,50.33h.86v-.86h-.86v.86ZM100.19,50.33h.86v-.86h-.86v.86Z" style="fill: #fff;" />
  <path
    d="M101.05,50.33h.86v-.86h-.86v.86ZM101.91,50.33h.86v-.86h-.86v.86ZM102.77,50.33h.86v-.86h-.86v.86ZM103.62,50.33h.86v-.86h-.86v.86Z"
    style="fill: #062638;" />
  <path d="M104.48,50.33h.86v-.86h-.86v.86ZM105.34,50.33h.86v-.86h-.86v.86Z" style="fill: #fff;" />
  <rect x="106.2" y="49.47" width=".86" height=".86" style="fill: #062638;" />
  <rect x="107.06" y="49.47" width=".86" height=".86" style="fill: #fff;" />
  <rect x="107.92" y="49.47" width=".86" height=".86" style="fill: #062638;" />
  <rect x="108.78" y="49.47" width=".86" height=".86" style="fill: #fff;" />
  <path d="M109.64,50.33h.86v-.86h-.86v.86ZM110.5,50.33h.86v-.86h-.86v.86Z" style="fill: #062638;" />
  <rect x="111.36" y="49.47" width=".86" height=".86" style="fill: #fff;" />
  <rect x="112.22" y="49.47" width=".86" height=".86" style="fill: #062638;" />
  <rect x="113.07" y="49.47" width=".86" height=".86" style="fill: #fff;" />
  <rect x="113.93" y="49.47" width=".86" height=".86" style="fill: #062638;" />
  <path d="M87.3,51.19h.86v-.86h-.86v.86ZM114.79,50.33h.86v-.86h-.86v.86Z" style="fill: #fff;" />
  <rect x="88.16" y="50.33" width=".86" height=".86" style="fill: #062638;" />
  <path d="M89.02,51.19h.86v-.86h-.86v.86ZM89.88,51.19h.86v-.86h-.86v.86Z" style="fill: #fff;" />
  <rect x="90.74" y="50.33" width=".86" height=".86" style="fill: #062638;" />
  <path d="M91.6,51.19h.86v-.86h-.86v.86ZM92.46,51.19h.86v-.86h-.86v.86Z" style="fill: #fff;" />
  <rect x="93.32" y="50.33" width=".86" height=".86" style="fill: #062638;" />
  <rect x="94.18" y="50.33" width=".86" height=".86" style="fill: #fff;" />
  <rect x="95.04" y="50.33" width=".86" height=".86" style="fill: #062638;" />
  <polygon points="96.75 50.33 95.89 50.33 95.89 51.19 96.75 51.19 97.61 51.19 97.61 50.33 96.75 50.33"
    style="fill: #fff;" />
  <rect x="97.61" y="50.33" width=".86" height=".86" style="fill: #062638;" />
  <path d="M98.47,51.19h.86v-.86h-.86v.86ZM99.33,51.19h.86v-.86h-.86v.86ZM100.19,51.19h.86v-.86h-.86v.86Z"
    style="fill: #fff;" />
  <path d="M101.05,51.19h.86v-.86h-.86v.86ZM101.91,51.19h.86v-.86h-.86v.86Z" style="fill: #062638;" />
  <rect x="102.77" y="50.33" width=".86" height=".86" style="fill: #fff;" />
  <rect x="103.62" y="50.33" width=".86" height=".86" style="fill: #062638;" />
  <rect x="104.48" y="50.33" width=".86" height=".86" style="fill: #fff;" />
  <path d="M105.34,51.19h.86v-.86h-.86v.86ZM106.2,51.19h.86v-.86h-.86v.86Z" style="fill: #062638;" />
  <path d="M107.06,51.19h.86v-.86h-.86v.86ZM107.92,51.19h.86v-.86h-.86v.86Z" style="fill: #fff;" />
  <rect x="108.78" y="50.33" width=".86" height=".86" style="fill: #062638;" />
  <path d="M109.64,51.19h.86v-.86h-.86v.86ZM110.5,51.19h.86v-.86h-.86v.86ZM111.36,51.19h.86v-.86h-.86v.86Z"
    style="fill: #fff;" />
  <path d="M112.22,51.19h.86v-.86h-.86v.86ZM113.07,51.19h.86v-.86h-.86v.86Z" style="fill: #062638;" />
  <rect x="113.93" y="50.33" width=".86" height=".86" style="fill: #fff;" />
  <rect x="114.79" y="50.33" width=".86" height=".86" style="fill: #062638;" />
  <rect x="87.3" y="51.19" width=".86" height=".86" style="fill: #fff;" />
  <path d="M88.16,52.05h.86v-.86h-.86v.86ZM89.02,52.05h.86v-.86h-.86v.86ZM89.88,52.05h.86v-.86h-.86v.86Z"
    style="fill: #062638;" />
  <path d="M90.74,52.05h.86v-.86h-.86v.86ZM91.6,52.05h.86v-.86h-.86v.86Z" style="fill: #fff;" />
  <rect x="92.46" y="51.19" width=".86" height=".86" style="fill: #062638;" />
  <path d="M93.32,52.05h.86v-.86h-.86v.86ZM94.18,52.05h.86v-.86h-.86v.86Z" style="fill: #fff;" />
  <rect x="95.04" y="51.19" width=".86" height=".86" style="fill: #062638;" />
  <path d="M96.75,51.19h-.86v.86h1.72v-.86h-.86ZM97.61,52.05h.86v-.86h-.86v.86Z" style="fill: #fff;" />
  <rect x="98.47" y="51.19" width=".86" height=".86" style="fill: #062638;" />
  <path d="M99.33,52.05h.86v-.86h-.86v.86ZM100.19,52.05h.86v-.86h-.86v.86Z" style="fill: #fff;" />
  <path d="M101.05,52.05h.86v-.86h-.86v.86ZM101.91,52.05h.86v-.86h-.86v.86ZM102.77,52.05h.86v-.86h-.86v.86Z"
    style="fill: #062638;" />
  <rect x="103.62" y="51.19" width=".86" height=".86" style="fill: #fff;" />
  <path d="M104.48,52.05h.86v-.86h-.86v.86ZM105.34,52.05h.86v-.86h-.86v.86Z" style="fill: #062638;" />
  <path d="M106.2,52.05h.86v-.86h-.86v.86ZM107.06,52.05h.86v-.86h-.86v.86Z" style="fill: #fff;" />
  <path d="M107.92,52.05h.86v-.86h-.86v.86ZM108.78,52.05h.86v-.86h-.86v.86Z" style="fill: #062638;" />
  <rect x="109.64" y="51.19" width=".86" height=".86" style="fill: #fff;" />
  <path d="M110.5,52.05h.86v-.86h-.86v.86ZM111.36,52.05h.86v-.86h-.86v.86ZM112.22,52.05h.86v-.86h-.86v.86Z"
    style="fill: #062638;" />
  <path d="M113.07,52.05h.86v-.86h-.86v.86ZM113.93,52.05h.86v-.86h-.86v.86ZM114.79,52.05h.86v-.86h-.86v.86Z"
    style="fill: #fff;" />
  <rect x="87.3" y="52.05" width=".86" height=".86" style="fill: #062638;" />
  <rect x="88.16" y="52.05" width=".86" height=".86" style="fill: #fff;" />
  <rect x="89.02" y="52.05" width=".86" height=".86" style="fill: #062638;" />
  <path d="M89.88,52.91h.86v-.86h-.86v.86ZM90.74,52.91h.86v-.86h-.86v.86Z" style="fill: #fff;" />
  <rect x="91.6" y="52.05" width=".86" height=".86" style="fill: #062638;" />
  <path d="M92.46,52.91h.86v-.86h-.86v.86ZM93.32,52.91h.86v-.86h-.86v.86Z" style="fill: #fff;" />
  <path d="M94.17,52.91h.86v-.86h-.86v.86ZM95.03,52.91h.86v-.86h-.86v.86ZM96.75,52.05h-.86v.86h1.72v-.86h-.86Z"
    style="fill: #062638;" />
  <path d="M97.61,52.91h.86v-.86h-.86v.86ZM98.47,52.91h.86v-.86h-.86v.86Z" style="fill: #fff;" />
  <rect x="99.33" y="52.05" width=".86" height=".86" style="fill: #062638;" />
  <path
    d="M100.19,52.91h.86v-.86h-.86v.86ZM101.05,52.91h.86v-.86h-.86v.86ZM101.91,52.91h.86v-.86h-.86v.86ZM102.77,52.91h.86v-.86h-.86v.86ZM103.62,52.91h.86v-.86h-.86v.86Z"
    style="fill: #fff;" />
  <rect x="104.48" y="52.05" width=".86" height=".86" style="fill: #062638;" />
  <path d="M105.34,52.91h.86v-.86h-.86v.86ZM106.2,52.91h.86v-.86h-.86v.86Z" style="fill: #fff;" />
  <rect x="107.06" y="52.05" width=".86" height=".86" style="fill: #062638;" />
  <rect x="107.92" y="52.05" width=".86" height=".86" style="fill: #fff;" />
  <path d="M108.78,52.91h.86v-.86h-.86v.86ZM109.64,52.91h.86v-.86h-.86v.86Z" style="fill: #062638;" />
  <path d="M110.5,52.91h.86v-.86h-.86v.86ZM111.36,52.91h.86v-.86h-.86v.86ZM112.22,52.91h.86v-.86h-.86v.86Z"
    style="fill: #fff;" />
  <rect x="113.07" y="52.05" width=".86" height=".86" style="fill: #062638;" />
  <rect x="113.93" y="52.05" width=".86" height=".86" style="fill: #fff;" />
  <path d="M87.3,53.77h.86v-.86h-.86v.86ZM88.16,53.77h.86v-.86h-.86v.86ZM114.79,52.91h.86v-.86h-.86v.86Z"
    style="fill: #062638;" />
  <rect x="89.02" y="52.91" width=".86" height=".86" style="fill: #fff;" />
  <rect x="89.88" y="52.91" width=".86" height=".86" style="fill: #062638;" />
  <path d="M90.74,53.77h.86v-.86h-.86v.86ZM91.6,53.77h.86v-.86h-.86v.86Z" style="fill: #fff;" />
  <rect x="92.46" y="52.91" width=".86" height=".86" style="fill: #062638;" />
  <path d="M93.32,53.77h.86v-.86h-.86v.86ZM94.18,53.77h.86v-.86h-.86v.86Z" style="fill: #fff;" />
  <rect x="95.04" y="52.91" width=".86" height=".86" style="fill: #062638;" />
  <rect x="95.89" y="52.91" width=".86" height=".86" style="fill: #fff;" />
  <path
    d="M96.75,53.77h.86v-.86h-.86v.86ZM97.61,53.77h.86v-.86h-.86v.86ZM98.47,53.77h.86v-.86h-.86v.86ZM99.33,53.77h.86v-.86h-.86v.86Z"
    style="fill: #062638;" />
  <path d="M100.19,53.77h.86v-.86h-.86v.86ZM101.05,53.77h.86v-.86h-.86v.86ZM101.91,53.77h.86v-.86h-.86v.86Z"
    style="fill: #fff;" />
  <path d="M102.77,53.77h.86v-.86h-.86v.86ZM103.62,53.77h.86v-.86h-.86v.86Z" style="fill: #062638;" />
  <path d="M104.48,53.77h.86v-.86h-.86v.86ZM105.34,53.77h.86v-.86h-.86v.86Z" style="fill: #fff;" />
  <rect x="106.2" y="52.91" width=".86" height=".86" style="fill: #062638;" />
  <path d="M107.06,53.77h.86v-.86h-.86v.86ZM107.92,53.77h.86v-.86h-.86v.86Z" style="fill: #fff;" />
  <path d="M108.78,53.77h.86v-.86h-.86v.86ZM109.64,53.77h.86v-.86h-.86v.86Z" style="fill: #062638;" />
  <path d="M110.5,53.77h.86v-.86h-.86v.86ZM111.36,53.77h.86v-.86h-.86v.86Z" style="fill: #fff;" />
  <rect x="112.22" y="52.91" width=".86" height=".86" style="fill: #062638;" />
  <rect x="113.07" y="52.91" width=".86" height=".86" style="fill: #fff;" />
  <rect x="113.93" y="52.91" width=".86" height=".86" style="fill: #062638;" />
  <rect x="114.79" y="52.91" width=".86" height=".86" style="fill: #fff;" />
  <rect x="87.3" y="53.77" width=".86" height=".86" style="fill: #062638;" />
  <rect x="88.16" y="53.77" width=".86" height=".86" style="fill: #fff;" />
  <rect x="89.02" y="53.77" width=".86" height=".86" style="fill: #062638;" />
  <path d="M89.88,54.63h.86v-.86h-.86v.86ZM90.74,54.63h.86v-.86h-.86v.86Z" style="fill: #fff;" />
  <rect x="91.6" y="53.77" width=".86" height=".86" style="fill: #062638;" />
  <path d="M92.46,54.63h.86v-.86h-.86v.86ZM93.32,54.63h.86v-.86h-.86v.86ZM94.18,54.63h.86v-.86h-.86v.86Z"
    style="fill: #fff;" />
  <path d="M95.04,54.63h.86v-.86h-.86v.86ZM96.75,53.77h-.86v.86h1.72v-.86h-.86ZM97.61,54.63h.86v-.86h-.86v.86Z"
    style="fill: #062638;" />
  <rect x="98.47" y="53.77" width=".86" height=".86" style="fill: #fff;" />
  <path d="M99.33,54.63h.86v-.86h-.86v.86ZM100.19,54.63h.86v-.86h-.86v.86Z" style="fill: #062638;" />
  <rect x="101.05" y="53.77" width=".86" height=".86" style="fill: #fff;" />
  <path d="M101.91,54.63h.86v-.86h-.86v.86ZM102.77,54.63h.86v-.86h-.86v.86ZM103.62,54.63h.86v-.86h-.86v.86Z"
    style="fill: #062638;" />
  <rect x="104.48" y="53.77" width=".86" height=".86" style="fill: #fff;" />
  <path d="M105.34,54.63h.86v-.86h-.86v.86ZM106.2,54.63h.86v-.86h-.86v.86Z" style="fill: #062638;" />
  <path d="M107.06,54.63h.86v-.86h-.86v.86ZM107.92,54.63h.86v-.86h-.86v.86ZM108.78,54.63h.86v-.86h-.86v.86Z"
    style="fill: #fff;" />
  <path d="M109.64,54.63h.86v-.86h-.86v.86ZM110.5,54.63h.86v-.86h-.86v.86Z" style="fill: #062638;" />
  <rect x="111.36" y="53.77" width=".86" height=".86" style="fill: #fff;" />
  <path d="M112.22,54.63h.86v-.86h-.86v.86ZM113.07,54.63h.86v-.86h-.86v.86ZM113.93,54.63h.86v-.86h-.86v.86Z"
    style="fill: #062638;" />
  <path
    d="M87.3,55.49h.86v-.86h-.86v.86ZM88.16,55.49h.86v-.86h-.86v.86ZM89.02,55.49h.86v-.86h-.86v.86ZM114.79,54.63h.86v-.86h-.86v.86Z"
    style="fill: #fff;" />
  <path d="M89.88,55.49h.86v-.86h-.86v.86ZM90.74,55.49h.86v-.86h-.86v.86Z" style="fill: #062638;" />
  <rect x="91.6" y="54.63" width=".86" height=".86" style="fill: #fff;" />
  <path d="M92.46,55.49h.86v-.86h-.86v.86ZM93.32,55.49h.86v-.86h-.86v.86ZM94.18,55.49h.86v-.86h-.86v.86Z"
    style="fill: #062638;" />
  <rect x="95.04" y="54.63" width=".86" height=".86" style="fill: #fff;" />
  <rect x="95.89" y="54.63" width=".86" height=".86" style="fill: #062638;" />
  <path d="M96.75,55.49h.86v-.86h-.86v.86ZM97.61,55.49h.86v-.86h-.86v.86Z" style="fill: #fff;" />
  <path d="M98.47,55.49h.86v-.86h-.86v.86ZM99.33,55.49h.86v-.86h-.86v.86Z" style="fill: #062638;" />
  <rect x="100.19" y="54.63" width=".86" height=".86" style="fill: #fff;" />
  <rect x="101.05" y="54.63" width=".86" height=".86" style="fill: #062638;" />
  <rect x="101.91" y="54.63" width=".86" height=".86" style="fill: #fff;" />
  <rect x="102.77" y="54.63" width=".86" height=".86" style="fill: #062638;" />
  <path
    d="M103.62,55.49h.86v-.86h-.86v.86ZM104.48,55.49h.86v-.86h-.86v.86ZM105.34,55.49h.86v-.86h-.86v.86ZM106.2,55.49h.86v-.86h-.86v.86ZM107.06,55.49h.86v-.86h-.86v.86ZM107.92,55.49h.86v-.86h-.86v.86Z"
    style="fill: #fff;" />
  <rect x="108.78" y="54.63" width=".86" height=".86" style="fill: #062638;" />
  <rect x="109.64" y="54.63" width=".86" height=".86" style="fill: #fff;" />
  <path d="M110.5,55.49h.86v-.86h-.86v.86ZM111.36,55.49h.86v-.86h-.86v.86Z" style="fill: #062638;" />
  <path
    d="M112.22,55.49h.86v-.86h-.86v.86ZM113.07,55.49h.86v-.86h-.86v.86ZM113.93,55.49h.86v-.86h-.86v.86ZM114.79,55.49h.86v-.86h-.86v.86Z"
    style="fill: #fff;" />
  <rect x="87.3" y="55.49" width=".86" height=".86" style="fill: #062638;" />
  <rect x="88.16" y="55.49" width=".86" height=".86" style="fill: #fff;" />
  <path d="M89.02,56.35h.86v-.86h-.86v.86ZM89.88,56.35h.86v-.86h-.86v.86Z" style="fill: #062638;" />
  <path
    d="M90.74,56.35h.86v-.86h-.86v.86ZM91.6,56.35h.86v-.86h-.86v.86ZM92.46,56.35h.86v-.86h-.86v.86ZM93.32,56.35h.86v-.86h-.86v.86Z"
    style="fill: #fff;" />
  <path d="M94.18,56.35h.86v-.86h-.86v.86ZM95.04,56.35h.86v-.86h-.86v.86Z" style="fill: #062638;" />
  <path d="M96.75,55.49h-.86v.86h1.72v-.86h-.86ZM97.61,56.35h.86v-.86h-.86v.86ZM98.47,56.35h.86v-.86h-.86v.86Z"
    style="fill: #fff;" />
  <rect x="99.33" y="55.49" width=".86" height=".86" style="fill: #062638;" />
  <rect x="100.19" y="55.49" width=".86" height=".86" style="fill: #fff;" />
  <path
    d="M101.05,56.35h.86v-.86h-.86v.86ZM101.91,56.35h.86v-.86h-.86v.86ZM102.77,56.35h.86v-.86h-.86v.86ZM103.62,56.35h.86v-.86h-.86v.86Z"
    style="fill: #062638;" />
  <rect x="104.48" y="55.49" width=".86" height=".86" style="fill: #fff;" />
  <rect x="105.34" y="55.49" width=".86" height=".86" style="fill: #062638;" />
  <rect x="106.2" y="55.49" width=".86" height=".86" style="fill: #fff;" />
  <path d="M107.06,56.35h.86v-.86h-.86v.86ZM107.92,56.35h.86v-.86h-.86v.86Z" style="fill: #062638;" />
  <rect x="108.78" y="55.49" width=".86" height=".86" style="fill: #fff;" />
  <path d="M109.64,56.35h.86v-.86h-.86v.86ZM110.5,56.35h.86v-.86h-.86v.86Z" style="fill: #062638;" />
  <path
    d="M111.36,56.35h.86v-.86h-.86v.86ZM112.22,56.35h.86v-.86h-.86v.86ZM113.07,56.35h.86v-.86h-.86v.86ZM113.93,56.35h.86v-.86h-.86v.86Z"
    style="fill: #fff;" />
  <rect x="114.79" y="55.49" width=".86" height=".86" style="fill: #062638;" />
  <rect x="87.3" y="56.35" width=".86" height=".86" style="fill: #fff;" />
  <path
    d="M88.16,57.21h.86v-.86h-.86v.86ZM89.02,57.21h.86v-.86h-.86v.86ZM89.88,57.21h.86v-.86h-.86v.86ZM90.74,57.21h.86v-.86h-.86v.86Z"
    style="fill: #062638;" />
  <rect x="91.6" y="56.35" width=".86" height=".86" style="fill: #fff;" />
  <path d="M92.46,57.21h.86v-.86h-.86v.86ZM93.32,57.21h.86v-.86h-.86v.86ZM94.18,57.21h.86v-.86h-.86v.86Z"
    style="fill: #062638;" />
  <rect x="95.04" y="56.35" width=".86" height=".86" style="fill: #fff;" />
  <rect x="95.89" y="56.35" width=".86" height=".86" style="fill: #062638;" />
  <rect x="96.75" y="56.35" width=".86" height=".86" style="fill: #fff;" />
  <path d="M97.61,57.21h.86v-.86h-.86v.86ZM98.47,57.21h.86v-.86h-.86v.86Z" style="fill: #062638;" />
  <rect x="99.33" y="56.35" width=".86" height=".86" style="fill: #fff;" />
  <rect x="100.19" y="56.35" width=".86" height=".86" style="fill: #062638;" />
  <path d="M101.05,57.21h.86v-.86h-.86v.86ZM101.91,57.21h.86v-.86h-.86v.86Z" style="fill: #fff;" />
  <rect x="102.77" y="56.35" width=".86" height=".86" style="fill: #062638;" />
  <rect x="103.62" y="56.35" width=".86" height=".86" style="fill: #fff;" />
  <path d="M104.48,57.21h.86v-.86h-.86v.86ZM105.34,57.21h.86v-.86h-.86v.86ZM106.2,57.21h.86v-.86h-.86v.86Z"
    style="fill: #062638;" />
  <path d="M107.06,57.21h.86v-.86h-.86v.86ZM107.92,57.21h.86v-.86h-.86v.86Z" style="fill: #fff;" />
  <rect x="108.78" y="56.35" width=".86" height=".86" style="fill: #062638;" />
  <path d="M109.64,57.21h.86v-.86h-.86v.86ZM110.5,57.21h.86v-.86h-.86v.86Z" style="fill: #fff;" />
  <rect x="111.36" y="56.35" width=".86" height=".86" style="fill: #062638;" />
  <rect x="112.22" y="56.35" width=".86" height=".86" style="fill: #fff;" />
  <path d="M113.07,57.21h.86v-.86h-.86v.86ZM113.93,57.21h.86v-.86h-.86v.86Z" style="fill: #062638;" />
  <path d="M87.3,58.06h.86v-.86h-.86v.86ZM88.16,58.06h.86v-.86h-.86v.86ZM114.79,57.21h.86v-.86h-.86v.86Z"
    style="fill: #fff;" />
  <rect x="89.02" y="57.2" width=".86" height=".86" style="fill: #062638;" />
  <rect x="89.88" y="57.2" width=".86" height=".86" style="fill: #fff;" />
  <rect x="90.74" y="57.2" width=".86" height=".86" style="fill: #062638;" />
  <path
    d="M91.6,58.06h.86v-.86h-.86v.86ZM92.46,58.06h.86v-.86h-.86v.86ZM93.32,58.06h.86v-.86h-.86v.86ZM94.18,58.06h.86v-.86h-.86v.86ZM95.04,58.06h.86v-.86h-.86v.86Z"
    style="fill: #fff;" />
  <rect x="95.89" y="57.2" width=".86" height=".86" style="fill: #062638;" />
  <rect x="96.75" y="57.2" width=".86" height=".86" style="fill: #fff;" />
  <path d="M97.61,58.06h.86v-.86h-.86v.86ZM98.47,58.06h.86v-.86h-.86v.86Z" style="fill: #062638;" />
  <path d="M99.33,58.06h.86v-.86h-.86v.86ZM100.19,58.06h.86v-.86h-.86v.86ZM101.05,58.06h.86v-.86h-.86v.86Z"
    style="fill: #fff;" />
  <path
    d="M101.91,58.06h.86v-.86h-.86v.86ZM102.77,58.06h.86v-.86h-.86v.86ZM103.62,58.06h.86v-.86h-.86v.86ZM104.48,58.06h.86v-.86h-.86v.86ZM105.34,58.06h.86v-.86h-.86v.86Z"
    style="fill: #062638;" />
  <rect x="106.2" y="57.2" width=".86" height=".86" style="fill: #fff;" />
  <path
    d="M107.06,58.06h.86v-.86h-.86v.86ZM107.92,58.06h.86v-.86h-.86v.86ZM108.78,58.06h.86v-.86h-.86v.86ZM109.64,58.06h.86v-.86h-.86v.86ZM110.5,58.06h.86v-.86h-.86v.86Z"
    style="fill: #062638;" />
  <rect x="111.36" y="57.2" width=".86" height=".86" style="fill: #fff;" />
  <path d="M112.22,58.06h.86v-.86h-.86v.86ZM113.07,58.06h.86v-.86h-.86v.86ZM113.93,58.06h.86v-.86h-.86v.86Z"
    style="fill: #062638;" />
  <rect x="114.79" y="57.2" width=".86" height=".86" style="fill: #fff;" />
  <rect x="87.3" y="58.06" width=".86" height=".86" style="fill: #062638;" />
  <path d="M88.16,58.92h.86v-.86h-.86v.86ZM89.02,58.92h.86v-.86h-.86v.86ZM89.88,58.92h.86v-.86h-.86v.86Z"
    style="fill: #fff;" />
  <path d="M90.74,58.92h.86v-.86h-.86v.86ZM91.6,58.92h.86v-.86h-.86v.86ZM92.46,58.92h.86v-.86h-.86v.86Z"
    style="fill: #062638;" />
  <rect x="93.32" y="58.06" width=".86" height=".86" style="fill: #fff;" />
  <path d="M94.17,58.92h.86v-.86h-.86v.86ZM95.03,58.92h.86v-.86h-.86v.86ZM96.75,58.06h-.86v.86h1.72v-.86h-.86Z"
    style="fill: #062638;" />
  <path d="M97.61,58.92h.86v-.86h-.86v.86ZM98.47,58.92h.86v-.86h-.86v.86Z" style="fill: #fff;" />
  <path d="M99.33,58.92h.86v-.86h-.86v.86ZM100.19,58.92h.86v-.86h-.86v.86ZM101.05,58.92h.86v-.86h-.86v.86Z"
    style="fill: #062638;" />
  <path d="M101.91,58.92h.86v-.86h-.86v.86ZM102.77,58.92h.86v-.86h-.86v.86Z" style="fill: #fff;" />
  <rect x="103.62" y="58.06" width=".86" height=".86" style="fill: #062638;" />
  <path
    d="M104.48,58.92h.86v-.86h-.86v.86ZM105.34,58.92h.86v-.86h-.86v.86ZM106.2,58.92h.86v-.86h-.86v.86ZM107.06,58.92h.86v-.86h-.86v.86Z"
    style="fill: #fff;" />
  <path d="M107.92,58.92h.86v-.86h-.86v.86ZM108.78,58.92h.86v-.86h-.86v.86Z" style="fill: #062638;" />
  <rect x="109.64" y="58.06" width=".86" height=".86" style="fill: #fff;" />
  <path d="M110.5,58.92h.86v-.86h-.86v.86ZM111.36,58.92h.86v-.86h-.86v.86ZM112.22,58.92h.86v-.86h-.86v.86Z"
    style="fill: #062638;" />
  <path d="M113.07,58.92h.86v-.86h-.86v.86ZM113.93,58.92h.86v-.86h-.86v.86ZM114.79,58.92h.86v-.86h-.86v.86Z"
    style="fill: #fff;" />
  <path d="M87.3,59.78h.86v-.86h-.86v.86ZM88.16,59.78h.86v-.86h-.86v.86Z" style="fill: #062638;" />
  <path
    d="M89.02,59.78h.86v-.86h-.86v.86ZM89.88,59.78h.86v-.86h-.86v.86ZM90.74,59.78h.86v-.86h-.86v.86ZM91.6,59.78h.86v-.86h-.86v.86ZM92.46,59.78h.86v-.86h-.86v.86ZM93.32,59.78h.86v-.86h-.86v.86Z"
    style="fill: #fff;" />
  <rect x="94.18" y="58.92" width=".86" height=".86" style="fill: #062638;" />
  <rect x="95.04" y="58.92" width=".86" height=".86" style="fill: #fff;" />
  <path d="M96.75,58.92h-.86v.86h1.72v-.86h-.86ZM97.61,59.78h.86v-.86h-.86v.86ZM98.47,59.78h.86v-.86h-.86v.86Z"
    style="fill: #062638;" />
  <path
    d="M99.33,59.78h.86v-.86h-.86v.86ZM100.19,59.78h.86v-.86h-.86v.86ZM101.05,59.78h.86v-.86h-.86v.86ZM101.91,59.78h.86v-.86h-.86v.86ZM102.77,59.78h.86v-.86h-.86v.86Z"
    style="fill: #fff;" />
  <path d="M103.62,59.78h.86v-.86h-.86v.86ZM104.48,59.78h.86v-.86h-.86v.86ZM105.34,59.78h.86v-.86h-.86v.86Z"
    style="fill: #062638;" />
  <rect x="106.2" y="58.92" width=".86" height=".86" style="fill: #fff;" />
  <rect x="107.06" y="58.92" width=".86" height=".86" style="fill: #062638;" />
  <path d="M107.92,59.78h.86v-.86h-.86v.86ZM108.78,59.78h.86v-.86h-.86v.86Z" style="fill: #fff;" />
  <rect x="109.64" y="58.92" width=".86" height=".86" style="fill: #062638;" />
  <path d="M110.5,59.78h.86v-.86h-.86v.86ZM111.36,59.78h.86v-.86h-.86v.86Z" style="fill: #fff;" />
  <path d="M112.22,59.78h.86v-.86h-.86v.86ZM113.07,59.78h.86v-.86h-.86v.86Z" style="fill: #062638;" />
  <rect x="113.93" y="58.92" width=".86" height=".86" style="fill: #fff;" />
  <path d="M87.3,60.64h.86v-.86h-.86v.86ZM114.79,59.78h.86v-.86h-.86v.86Z" style="fill: #062638;" />
  <rect x="88.16" y="59.78" width=".86" height=".86" style="fill: #fff;" />
  <path d="M89.02,60.64h.86v-.86h-.86v.86ZM89.88,60.64h.86v-.86h-.86v.86Z" style="fill: #062638;" />
  <rect x="90.74" y="59.78" width=".86" height=".86" style="fill: #fff;" />
  <path d="M91.6,60.64h.86v-.86h-.86v.86ZM92.46,60.64h.86v-.86h-.86v.86Z" style="fill: #062638;" />
  <path
    d="M93.32,60.64h.86v-.86h-.86v.86ZM94.18,60.64h.86v-.86h-.86v.86ZM95.04,60.64h.86v-.86h-.86v.86ZM95.89,60.64h.86v-.86h-.86v.86Z"
    style="fill: #fff;" />
  <rect x="96.75" y="59.78" width=".86" height=".86" style="fill: #062638;" />
  <path
    d="M97.61,60.64h.86v-.86h-.86v.86ZM98.47,60.64h.86v-.86h-.86v.86ZM99.33,60.64h.86v-.86h-.86v.86ZM100.19,60.64h.86v-.86h-.86v.86Z"
    style="fill: #fff;" />
  <path
    d="M101.05,60.64h.86v-.86h-.86v.86ZM101.91,60.64h.86v-.86h-.86v.86ZM102.77,60.64h.86v-.86h-.86v.86ZM103.62,60.64h.86v-.86h-.86v.86Z"
    style="fill: #062638;" />
  <rect x="104.48" y="59.78" width=".86" height=".86" style="fill: #fff;" />
  <rect x="105.34" y="59.78" width=".86" height=".86" style="fill: #062638;" />
  <path
    d="M106.2,60.64h.86v-.86h-.86v.86ZM107.06,60.64h.86v-.86h-.86v.86ZM107.92,60.64h.86v-.86h-.86v.86ZM108.78,60.64h.86v-.86h-.86v.86ZM109.64,60.64h.86v-.86h-.86v.86Z"
    style="fill: #fff;" />
  <rect x="110.5" y="59.78" width=".86" height=".86" style="fill: #062638;" />
  <rect x="111.36" y="59.78" width=".86" height=".86" style="fill: #fff;" />
  <path d="M112.22,60.64h.86v-.86h-.86v.86ZM113.07,60.64h.86v-.86h-.86v.86ZM113.93,60.64h.86v-.86h-.86v.86Z"
    style="fill: #062638;" />
  <rect x="114.79" y="59.78" width=".86" height=".86" style="fill: #fff;" />
  <rect x="87.3" y="60.64" width=".86" height=".86" style="fill: #062638;" />
  <path d="M88.16,61.5h.86v-.86h-.86v.86ZM89.02,61.5h.86v-.86h-.86v.86ZM89.88,61.5h.86v-.86h-.86v.86Z"
    style="fill: #fff;" />
  <rect x="90.74" y="60.64" width=".86" height=".86" style="fill: #062638;" />
  <path d="M91.6,61.5h.86v-.86h-.86v.86ZM92.46,61.5h.86v-.86h-.86v.86Z" style="fill: #fff;" />
  <path d="M93.32,61.5h.86v-.86h-.86v.86ZM94.18,61.5h.86v-.86h-.86v.86Z" style="fill: #062638;" />
  <rect x="95.04" y="60.64" width=".86" height=".86" style="fill: #fff;" />
  <path
    d="M96.75,60.64h-.86v.86h1.72v-.86h-.86ZM97.61,61.5h.86v-.86h-.86v.86ZM98.47,61.5h.86v-.86h-.86v.86ZM99.33,61.5h.86v-.86h-.86v.86ZM100.19,61.5h.86v-.86h-.86v.86Z"
    style="fill: #062638;" />
  <path d="M101.05,61.5h.86v-.86h-.86v.86ZM101.91,61.5h.86v-.86h-.86v.86ZM102.77,61.5h.86v-.86h-.86v.86Z"
    style="fill: #fff;" />
  <rect x="103.62" y="60.64" width=".86" height=".86" style="fill: #062638;" />
  <rect x="104.48" y="60.64" width=".86" height=".86" style="fill: #fff;" />
  <rect x="105.34" y="60.64" width=".86" height=".86" style="fill: #062638;" />
  <path d="M106.2,61.5h.86v-.86h-.86v.86ZM107.06,61.5h.86v-.86h-.86v.86Z" style="fill: #fff;" />
  <rect x="107.92" y="60.64" width=".86" height=".86" style="fill: #062638;" />
  <path
    d="M108.78,61.5h.86v-.86h-.86v.86ZM109.64,61.5h.86v-.86h-.86v.86ZM110.5,61.5h.86v-.86h-.86v.86ZM111.36,61.5h.86v-.86h-.86v.86Z"
    style="fill: #fff;" />
  <path d="M112.22,61.5h.86v-.86h-.86v.86ZM113.07,61.5h.86v-.86h-.86v.86Z" style="fill: #062638;" />
  <rect x="113.93" y="60.64" width=".86" height=".86" style="fill: #fff;" />
  <path d="M87.3,62.36h.86v-.86h-.86v.86ZM114.79,61.5h.86v-.86h-.86v.86Z" style="fill: #062638;" />
  <path d="M88.16,62.36h.86v-.86h-.86v.86ZM89.02,62.36h.86v-.86h-.86v.86Z" style="fill: #fff;" />
  <rect x="89.88" y="61.5" width=".86" height=".86" style="fill: #062638;" />
  <path d="M90.74,62.36h.86v-.86h-.86v.86ZM91.6,62.36h.86v-.86h-.86v.86Z" style="fill: #fff;" />
  <rect x="92.46" y="61.5" width=".86" height=".86" style="fill: #062638;" />
  <rect x="93.32" y="61.5" width=".86" height=".86" style="fill: #fff;" />
  <rect x="94.18" y="61.5" width=".86" height=".86" style="fill: #062638;" />
  <rect x="95.04" y="61.5" width=".86" height=".86" style="fill: #fff;" />
  <polygon points="96.75 61.5 95.89 61.5 95.89 62.36 96.75 62.36 97.61 62.36 97.61 61.5 96.75 61.5"
    style="fill: #062638;" />
  <rect x="97.61" y="61.5" width=".86" height=".86" style="fill: #fff;" />
  <rect x="98.47" y="61.5" width=".86" height=".86" style="fill: #062638;" />
  <rect x="99.33" y="61.5" width=".86" height=".86" style="fill: #fff;" />
  <path d="M100.19,62.36h.86v-.86h-.86v.86ZM101.05,62.36h.86v-.86h-.86v.86Z" style="fill: #062638;" />
  <path d="M101.91,62.36h.86v-.86h-.86v.86ZM102.77,62.36h.86v-.86h-.86v.86Z" style="fill: #fff;" />
  <path d="M103.62,62.36h.86v-.86h-.86v.86ZM104.48,62.36h.86v-.86h-.86v.86Z" style="fill: #062638;" />
  <rect x="105.34" y="61.5" width=".86" height=".86" style="fill: #fff;" />
  <path
    d="M106.2,62.36h.86v-.86h-.86v.86ZM107.06,62.36h.86v-.86h-.86v.86ZM107.92,62.36h.86v-.86h-.86v.86ZM108.78,62.36h.86v-.86h-.86v.86ZM109.64,62.36h.86v-.86h-.86v.86ZM110.5,62.36h.86v-.86h-.86v.86ZM111.36,62.36h.86v-.86h-.86v.86Z"
    style="fill: #062638;" />
  <path d="M112.22,62.36h.86v-.86h-.86v.86ZM113.07,62.36h.86v-.86h-.86v.86Z" style="fill: #fff;" />
  <path d="M113.93,62.36h.86v-.86h-.86v.86ZM114.79,62.36h.86v-.86h-.86v.86Z" style="fill: #062638;" />
  <path
    d="M87.3,63.22h.86v-.86h-.86v.86ZM88.16,63.22h.86v-.86h-.86v.86ZM89.02,63.22h.86v-.86h-.86v.86ZM89.88,63.22h.86v-.86h-.86v.86ZM90.74,63.22h.86v-.86h-.86v.86ZM91.6,63.22h.86v-.86h-.86v.86ZM92.46,63.22h.86v-.86h-.86v.86ZM93.32,63.22h.86v-.86h-.86v.86Z"
    style="fill: #fff;" />
  <path d="M94.18,63.22h.86v-.86h-.86v.86ZM95.04,63.22h.86v-.86h-.86v.86ZM95.89,63.22h.86v-.86h-.86v.86Z"
    style="fill: #062638;" />
  <rect x="96.75" y="62.36" width=".86" height=".86" style="fill: #fff;" />
  <rect x="97.61" y="62.36" width=".86" height=".86" style="fill: #062638;" />
  <rect x="98.47" y="62.36" width=".86" height=".86" style="fill: #fff;" />
  <path d="M99.33,63.22h.86v-.86h-.86v.86ZM100.19,63.22h.86v-.86h-.86v.86Z" style="fill: #062638;" />
  <path d="M101.05,63.22h.86v-.86h-.86v.86ZM101.91,63.22h.86v-.86h-.86v.86Z" style="fill: #fff;" />
  <path d="M102.77,63.22h.86v-.86h-.86v.86ZM103.62,63.22h.86v-.86h-.86v.86ZM104.48,63.22h.86v-.86h-.86v.86Z"
    style="fill: #062638;" />
  <path d="M105.34,63.22h.86v-.86h-.86v.86ZM106.2,63.22h.86v-.86h-.86v.86Z" style="fill: #fff;" />
  <path d="M107.06,63.22h.86v-.86h-.86v.86ZM107.92,63.22h.86v-.86h-.86v.86Z" style="fill: #062638;" />
  <path d="M108.78,63.22h.86v-.86h-.86v.86ZM109.64,63.22h.86v-.86h-.86v.86ZM110.5,63.22h.86v-.86h-.86v.86Z"
    style="fill: #fff;" />
  <path
    d="M87.3,64.08h.86v-.86h-.86v.86ZM88.16,64.08h.86v-.86h-.86v.86ZM89.02,64.08h.86v-.86h-.86v.86ZM89.88,64.08h.86v-.86h-.86v.86ZM90.74,64.08h.86v-.86h-.86v.86ZM91.6,64.08h.86v-.86h-.86v.86ZM92.46,64.08h.86v-.86h-.86v.86ZM111.36,63.22h.86v-.86h-.86v.86ZM112.22,63.22h.86v-.86h-.86v.86ZM113.07,63.22h.86v-.86h-.86v.86ZM113.93,63.22h.86v-.86h-.86v.86ZM114.79,63.22h.86v-.86h-.86v.86Z"
    style="fill: #062638;" />
  <path
    d="M93.32,64.08h.86v-.86h-.86v.86ZM94.18,64.08h.86v-.86h-.86v.86ZM95.04,64.08h.86v-.86h-.86v.86ZM96.75,63.22h-.86v.86h1.72v-.86h-.86ZM97.61,64.08h.86v-.86h-.86v.86Z"
    style="fill: #fff;" />
  <path d="M98.47,64.08h.86v-.86h-.86v.86ZM99.33,64.08h.86v-.86h-.86v.86ZM100.19,64.08h.86v-.86h-.86v.86Z"
    style="fill: #062638;" />
  <rect x="101.05" y="63.22" width=".86" height=".86" style="fill: #fff;" />
  <rect x="101.91" y="63.22" width=".86" height=".86" style="fill: #062638;" />
  <path
    d="M102.77,64.08h.86v-.86h-.86v.86ZM103.62,64.08h.86v-.86h-.86v.86ZM104.48,64.08h.86v-.86h-.86v.86ZM105.34,64.08h.86v-.86h-.86v.86Z"
    style="fill: #fff;" />
  <path d="M106.2,64.08h.86v-.86h-.86v.86ZM107.06,64.08h.86v-.86h-.86v.86ZM107.92,64.08h.86v-.86h-.86v.86Z"
    style="fill: #062638;" />
  <rect x="108.78" y="63.22" width=".86" height=".86" style="fill: #fff;" />
  <rect x="109.64" y="63.22" width=".86" height=".86" style="fill: #062638;" />
  <rect x="110.5" y="63.22" width=".86" height=".86" style="fill: #fff;" />
  <rect x="111.36" y="63.22" width=".86" height=".86" style="fill: #062638;" />
  <path d="M112.22,64.08h.86v-.86h-.86v.86ZM113.07,64.08h.86v-.86h-.86v.86Z" style="fill: #fff;" />
  <rect x="113.93" y="63.22" width=".86" height=".86" style="fill: #062638;" />
  <rect x="114.79" y="63.22" width=".86" height=".86" style="fill: #fff;" />
  <rect x="87.3" y="64.08" width=".86" height=".86" style="fill: #062638;" />
  <path
    d="M88.16,64.94h.86v-.86h-.86v.86ZM89.02,64.94h.86v-.86h-.86v.86ZM89.88,64.94h.86v-.86h-.86v.86ZM90.74,64.94h.86v-.86h-.86v.86ZM91.6,64.94h.86v-.86h-.86v.86Z"
    style="fill: #fff;" />
  <rect x="92.46" y="64.08" width=".86" height=".86" style="fill: #062638;" />
  <path d="M93.32,64.94h.86v-.86h-.86v.86ZM94.18,64.94h.86v-.86h-.86v.86ZM95.04,64.94h.86v-.86h-.86v.86Z"
    style="fill: #fff;" />
  <rect x="95.89" y="64.08" width=".86" height=".86" style="fill: #062638;" />
  <rect x="96.75" y="64.08" width=".86" height=".86" style="fill: #fff;" />
  <path d="M97.61,64.94h.86v-.86h-.86v.86ZM98.47,64.94h.86v-.86h-.86v.86Z" style="fill: #062638;" />
  <rect x="99.33" y="64.08" width=".86" height=".86" style="fill: #fff;" />
  <path d="M100.19,64.94h.86v-.86h-.86v.86ZM101.05,64.94h.86v-.86h-.86v.86ZM101.91,64.94h.86v-.86h-.86v.86Z"
    style="fill: #062638;" />
  <rect x="102.77" y="64.08" width=".86" height=".86" style="fill: #fff;" />
  <rect x="103.62" y="64.08" width=".86" height=".86" style="fill: #062638;" />
  <path d="M104.48,64.94h.86v-.86h-.86v.86ZM105.34,64.94h.86v-.86h-.86v.86ZM106.2,64.94h.86v-.86h-.86v.86Z"
    style="fill: #fff;" />
  <path d="M107.06,64.94h.86v-.86h-.86v.86ZM107.92,64.94h.86v-.86h-.86v.86Z" style="fill: #062638;" />
  <path d="M108.78,64.94h.86v-.86h-.86v.86ZM109.64,64.94h.86v-.86h-.86v.86ZM110.5,64.94h.86v-.86h-.86v.86Z"
    style="fill: #fff;" />
  <path
    d="M87.3,65.79h.86v-.86h-.86v.86ZM111.36,64.94h.86v-.86h-.86v.86ZM112.22,64.94h.86v-.86h-.86v.86ZM113.07,64.94h.86v-.86h-.86v.86ZM113.93,64.94h.86v-.86h-.86v.86ZM114.79,64.94h.86v-.86h-.86v.86Z"
    style="fill: #062638;" />
  <rect x="88.16" y="64.94" width=".86" height=".86" style="fill: #fff;" />
  <path d="M89.02,65.79h.86v-.86h-.86v.86ZM89.88,65.79h.86v-.86h-.86v.86ZM90.74,65.79h.86v-.86h-.86v.86Z"
    style="fill: #062638;" />
  <rect x="91.6" y="64.94" width=".86" height=".86" style="fill: #fff;" />
  <rect x="92.46" y="64.94" width=".86" height=".86" style="fill: #062638;" />
  <rect x="93.32" y="64.94" width=".86" height=".86" style="fill: #fff;" />
  <path
    d="M94.18,65.79h.86v-.86h-.86v.86ZM95.04,65.79h.86v-.86h-.86v.86ZM96.75,64.94h-.86v.86h1.72v-.86h-.86ZM97.61,65.79h.86v-.86h-.86v.86ZM98.47,65.79h.86v-.86h-.86v.86Z"
    style="fill: #062638;" />
  <path d="M99.33,65.79h.86v-.86h-.86v.86ZM100.19,65.79h.86v-.86h-.86v.86Z" style="fill: #fff;" />
  <rect x="101.05" y="64.94" width=".86" height=".86" style="fill: #062638;" />
  <rect x="101.91" y="64.94" width=".86" height=".86" style="fill: #fff;" />
  <path d="M102.77,65.79h.86v-.86h-.86v.86ZM103.62,65.79h.86v-.86h-.86v.86Z" style="fill: #062638;" />
  <rect x="104.48" y="64.94" width=".86" height=".86" style="fill: #fff;" />
  <path d="M105.34,65.79h.86v-.86h-.86v.86ZM106.2,65.79h.86v-.86h-.86v.86Z" style="fill: #062638;" />
  <rect x="107.06" y="64.94" width=".86" height=".86" style="fill: #fff;" />
  <path
    d="M107.92,65.79h.86v-.86h-.86v.86ZM108.78,65.79h.86v-.86h-.86v.86ZM109.64,65.79h.86v-.86h-.86v.86ZM110.5,65.79h.86v-.86h-.86v.86ZM111.36,65.79h.86v-.86h-.86v.86ZM112.22,65.79h.86v-.86h-.86v.86Z"
    style="fill: #062638;" />
  <rect x="113.07" y="64.94" width=".86" height=".86" style="fill: #fff;" />
  <path d="M87.3,66.65h.86v-.86h-.86v.86ZM113.93,65.79h.86v-.86h-.86v.86ZM114.79,65.79h.86v-.86h-.86v.86Z"
    style="fill: #062638;" />
  <rect x="88.16" y="65.8" width=".86" height=".86" style="fill: #fff;" />
  <path d="M89.02,66.65h.86v-.86h-.86v.86ZM89.88,66.65h.86v-.86h-.86v.86ZM90.74,66.65h.86v-.86h-.86v.86Z"
    style="fill: #062638;" />
  <rect x="91.6" y="65.8" width=".86" height=".86" style="fill: #fff;" />
  <rect x="92.46" y="65.8" width=".86" height=".86" style="fill: #062638;" />
  <rect x="93.32" y="65.8" width=".86" height=".86" style="fill: #fff;" />
  <path d="M94.18,66.65h.86v-.86h-.86v.86ZM95.04,66.65h.86v-.86h-.86v.86Z" style="fill: #062638;" />
  <polygon points="96.75 65.79 95.89 65.79 95.89 66.65 96.75 66.65 97.61 66.65 97.61 65.79 96.75 65.79"
    style="fill: #fff;" />
  <rect x="97.61" y="65.8" width=".86" height=".86" style="fill: #062638;" />
  <rect x="98.47" y="65.8" width=".86" height=".86" style="fill: #fff;" />
  <rect x="99.33" y="65.8" width=".86" height=".86" style="fill: #062638;" />
  <path d="M100.19,66.65h.86v-.86h-.86v.86ZM101.05,66.65h.86v-.86h-.86v.86ZM101.91,66.65h.86v-.86h-.86v.86Z"
    style="fill: #fff;" />
  <rect x="102.77" y="65.8" width=".86" height=".86" style="fill: #062638;" />
  <rect x="103.62" y="65.8" width=".86" height=".86" style="fill: #fff;" />
  <path d="M104.48,66.65h.86v-.86h-.86v.86ZM105.34,66.65h.86v-.86h-.86v.86Z" style="fill: #062638;" />
  <rect x="106.2" y="65.8" width=".86" height=".86" style="fill: #fff;" />
  <path d="M107.06,66.65h.86v-.86h-.86v.86ZM107.92,66.65h.86v-.86h-.86v.86ZM108.78,66.65h.86v-.86h-.86v.86Z"
    style="fill: #062638;" />
  <path d="M109.64,66.65h.86v-.86h-.86v.86ZM110.5,66.65h.86v-.86h-.86v.86Z" style="fill: #fff;" />
  <rect x="111.36" y="65.8" width=".86" height=".86" style="fill: #062638;" />
  <path d="M112.22,66.65h.86v-.86h-.86v.86ZM113.07,66.65h.86v-.86h-.86v.86ZM113.93,66.65h.86v-.86h-.86v.86Z"
    style="fill: #fff;" />
  <path d="M87.3,67.51h.86v-.86h-.86v.86ZM114.79,66.65h.86v-.86h-.86v.86Z" style="fill: #062638;" />
  <rect x="88.16" y="66.65" width=".86" height=".86" style="fill: #fff;" />
  <path d="M89.02,67.51h.86v-.86h-.86v.86ZM89.88,67.51h.86v-.86h-.86v.86ZM90.74,67.51h.86v-.86h-.86v.86Z"
    style="fill: #062638;" />
  <rect x="91.6" y="66.65" width=".86" height=".86" style="fill: #fff;" />
  <rect x="92.46" y="66.65" width=".86" height=".86" style="fill: #062638;" />
  <rect x="93.32" y="66.65" width=".86" height=".86" style="fill: #fff;" />
  <path d="M94.18,67.51h.86v-.86h-.86v.86ZM95.04,67.51h.86v-.86h-.86v.86ZM95.89,67.51h.86v-.86h-.86v.86Z"
    style="fill: #062638;" />
  <rect x="96.75" y="66.65" width=".86" height=".86" style="fill: #fff;" />
  <rect x="97.61" y="66.65" width=".86" height=".86" style="fill: #062638;" />
  <rect x="98.47" y="66.65" width=".86" height=".86" style="fill: #fff;" />
  <path d="M99.33,67.51h.86v-.86h-.86v.86ZM100.19,67.51h.86v-.86h-.86v.86ZM101.05,67.51h.86v-.86h-.86v.86Z"
    style="fill: #062638;" />
  <rect x="101.91" y="66.65" width=".86" height=".86" style="fill: #fff;" />
  <rect x="102.77" y="66.65" width=".86" height=".86" style="fill: #062638;" />
  <rect x="103.62" y="66.65" width=".86" height=".86" style="fill: #fff;" />
  <path d="M104.48,67.51h.86v-.86h-.86v.86ZM105.34,67.51h.86v-.86h-.86v.86ZM106.2,67.51h.86v-.86h-.86v.86Z"
    style="fill: #062638;" />
  <path d="M107.06,67.51h.86v-.86h-.86v.86ZM107.92,67.51h.86v-.86h-.86v.86Z" style="fill: #fff;" />
  <path d="M108.78,67.51h.86v-.86h-.86v.86ZM109.64,67.51h.86v-.86h-.86v.86Z" style="fill: #062638;" />
  <path d="M110.5,67.51h.86v-.86h-.86v.86ZM111.36,67.51h.86v-.86h-.86v.86Z" style="fill: #fff;" />
  <rect x="112.22" y="66.65" width=".86" height=".86" style="fill: #062638;" />
  <path d="M113.07,67.51h.86v-.86h-.86v.86ZM113.93,67.51h.86v-.86h-.86v.86ZM114.79,67.51h.86v-.86h-.86v.86Z"
    style="fill: #fff;" />
  <rect x="87.3" y="67.51" width=".86" height=".86" style="fill: #062638;" />
  <path
    d="M88.16,68.37h.86v-.86h-.86v.86ZM89.02,68.37h.86v-.86h-.86v.86ZM89.88,68.37h.86v-.86h-.86v.86ZM90.74,68.37h.86v-.86h-.86v.86ZM91.6,68.37h.86v-.86h-.86v.86Z"
    style="fill: #fff;" />
  <rect x="92.46" y="67.51" width=".86" height=".86" style="fill: #062638;" />
  <path d="M93.32,68.37h.86v-.86h-.86v.86ZM94.18,68.37h.86v-.86h-.86v.86Z" style="fill: #fff;" />
  <path d="M95.04,68.37h.86v-.86h-.86v.86ZM95.89,68.37h.86v-.86h-.86v.86Z" style="fill: #062638;" />
  <path d="M96.75,68.37h.86v-.86h-.86v.86ZM97.61,68.37h.86v-.86h-.86v.86Z" style="fill: #fff;" />
  <path d="M98.47,68.37h.86v-.86h-.86v.86ZM99.33,68.37h.86v-.86h-.86v.86ZM100.19,68.37h.86v-.86h-.86v.86Z"
    style="fill: #062638;" />
  <rect x="101.05" y="67.51" width=".86" height=".86" style="fill: #fff;" />
  <path d="M101.91,68.37h.86v-.86h-.86v.86ZM102.77,68.37h.86v-.86h-.86v.86Z" style="fill: #062638;" />
  <rect x="103.62" y="67.51" width=".86" height=".86" style="fill: #fff;" />
  <rect x="104.48" y="67.51" width=".86" height=".86" style="fill: #062638;" />
  <path
    d="M105.34,68.37h.86v-.86h-.86v.86ZM106.2,68.37h.86v-.86h-.86v.86ZM107.06,68.37h.86v-.86h-.86v.86ZM107.92,68.37h.86v-.86h-.86v.86ZM108.78,68.37h.86v-.86h-.86v.86ZM109.64,68.37h.86v-.86h-.86v.86Z"
    style="fill: #fff;" />
  <rect x="110.5" y="67.51" width=".86" height=".86" style="fill: #062638;" />
  <rect x="111.36" y="67.51" width=".86" height=".86" style="fill: #fff;" />
  <path d="M112.22,68.37h.86v-.86h-.86v.86ZM113.07,68.37h.86v-.86h-.86v.86Z" style="fill: #062638;" />
  <path d="M113.93,68.37h.86v-.86h-.86v.86ZM114.79,68.37h.86v-.86h-.86v.86Z" style="fill: #fff;" />
  <path
    d="M87.3,69.23h.86v-.86h-.86v.86ZM88.16,69.23h.86v-.86h-.86v.86ZM89.02,69.23h.86v-.86h-.86v.86ZM89.88,69.23h.86v-.86h-.86v.86ZM90.74,69.23h.86v-.86h-.86v.86ZM91.6,69.23h.86v-.86h-.86v.86ZM92.46,69.23h.86v-.86h-.86v.86Z"
    style="fill: #062638;" />
  <path d="M93.32,69.23h.86v-.86h-.86v.86ZM94.18,69.23h.86v-.86h-.86v.86Z" style="fill: #fff;" />
  <rect x="95.04" y="68.37" width=".86" height=".86" style="fill: #062638;" />
  <rect x="95.89" y="68.37" width=".86" height=".86" style="fill: #fff;" />
  <rect x="96.75" y="68.37" width=".86" height=".86" style="fill: #062638;" />
  <path d="M97.61,69.23h.86v-.86h-.86v.86ZM98.47,69.23h.86v-.86h-.86v.86Z" style="fill: #fff;" />
  <rect x="99.33" y="68.37" width=".86" height=".86" style="fill: #062638;" />
  <path d="M100.19,69.23h.86v-.86h-.86v.86ZM101.05,69.23h.86v-.86h-.86v.86Z" style="fill: #fff;" />
  <rect x="101.91" y="68.37" width=".86" height=".86" style="fill: #062638;" />
  <rect x="102.77" y="68.37" width=".86" height=".86" style="fill: #fff;" />
  <path d="M103.62,69.23h.86v-.86h-.86v.86ZM104.48,69.23h.86v-.86h-.86v.86Z" style="fill: #062638;" />
  <path d="M105.34,69.23h.86v-.86h-.86v.86ZM106.2,69.23h.86v-.86h-.86v.86Z" style="fill: #fff;" />
  <path d="M107.06,69.23h.86v-.86h-.86v.86ZM107.92,69.23h.86v-.86h-.86v.86Z" style="fill: #062638;" />
  <rect x="108.78" y="68.37" width=".86" height=".86" style="fill: #fff;" />
  <rect x="109.64" y="68.37" width=".86" height=".86" style="fill: #062638;" />
  <path
    d="M110.5,69.23h.86v-.86h-.86v.86ZM111.36,69.23h.86v-.86h-.86v.86ZM112.22,69.23h.86v-.86h-.86v.86ZM113.07,69.23h.86v-.86h-.86v.86Z"
    style="fill: #fff;" />
  <rect x="113.93" y="68.37" width=".86" height=".86" style="fill: #062638;" />
  <rect x="114.79" y="68.37" width=".86" height=".86" style="fill: #fff;" />
  <g>
    <path
      d="M60.91,70.67h-22.64c-.77,0-1.4-.63-1.4-1.4v-32.42c0-.77.63-1.4,1.4-1.4h22.64c.77,0,1.4.63,1.4,1.4v32.42c0,.77-.63,1.4-1.4,1.4M38.27,35.7c-.63,0-1.15.51-1.15,1.15v32.42c0,.63.51,1.15,1.15,1.15h22.64c.63,0,1.14-.52,1.14-1.15v-32.42c0-.63-.51-1.15-1.14-1.15h-22.64Z"
      style="fill: #fff;" />
    <path
      d="M54.83,37.78c.22,0,.4.08.56.23.16.15.23.34.23.56s-.08.4-.23.56c-.15.16-.34.23-.56.23s-.4-.08-.56-.23c-.15-.15-.23-.34-.23-.56s.08-.4.23-.56c.15-.16.34-.23.56-.23M54.83,39.23c.18,0,.34-.06.46-.19.13-.13.19-.28.2-.47,0-.18-.06-.34-.19-.46-.13-.13-.28-.19-.47-.19-.18,0-.34.06-.46.19-.13.13-.19.28-.19.47,0,.18.06.34.19.47.13.13.28.19.47.2M55.2,39.01h-.17c-.11-.19-.17-.3-.21-.33l-.12-.04h-.08v.36h-.14v-.85h.29l.2.02.11.08.04.13-.06.16-.18.08c.05.01.12.08.2.21l.1.17ZM54.62,38.53h.17l.16-.03.04-.09-.04-.09-.17-.03h-.16v.26Z"
      style="fill: #fff;" />
    <path
      d="M49.93,37.59c-3.3,0-4.46,5.13-5.55,9.26-.39-.4-1.6-1.6-1.6-1.6-.24-.24-.52-.16-.69,0-.17.17-.2.49,0,.68,0,0,1.63,1.63,2.2,2.19.16.15.38.24.6.11.23-.14.26-.4.27-.4,1.93-8.64,3.64-9.28,4.76-9.28.94,0,2.02.69,2.02,2.09,1.4,0,2.28,1.84,1.15,2.98.94.45,1.35,1.01,1.35,1.71s-.59,1.43-1.45,1.42c-.85,0-1.29-.55-1.95-.55-.3,0-.49.24-.49.48v1.74h-1.26v-1.74c0-.27-.2-.49-.45-.49h-.11l-1.68.21c-.2.03-.39.25-.39.48,0,.27.22.49.52.49h.08l1.07-.14v1.72c0,.22.25.43.47.43h2.24c.26,0,.49-.22.49-.49v-1.57c.47.29,1.12.4,1.45.4,1.25,0,2.45-.99,2.44-2.43,0-1.31-1.01-1.97-1.01-1.97.59-1.57-.36-3.08-1.59-3.5-.45-1.62-1.83-2.24-2.89-2.24"
      style="fill: #fff;" />
    <path
      d="M48.52,51.33c0,.41.45.65,1.2,1,.59.28.93.57.93.81,0,.38-.41.52-.79.52-.59,0-.94-.24-1.14-.77v-.05h-.06c-.11,0-.19,0-.24.06v.19s.12.54.12.54c.03.13.08.16.29.2.09.02.57.1.98.1,1.13,0,1.64-.46,1.64-.92,0-.33-.33-.65-1.04-1.01l-.32-.16c-.49-.23-.78-.37-.78-.61s.3-.4.74-.4c.57,0,.72.32.79.59v.05h.07c.13,0,.2-.01.25-.06l.03-.12-.04-.47c-.01-.15-.13-.17-.29-.2-.19-.04-.42-.08-.76-.08-.98,0-1.57.29-1.57.77"
      style="fill: #fff;" />
    <path
      d="M51.79,52.28c0,.82.71,1.65,2.07,1.65.69,0,1.07-.16,1.36-.31l.08-.04-.13-.14-.1-.05-.07.02c-.1.05-.42.19-.99.19-.7,0-1.46-.46-1.46-1.47s.82-1.31,1.53-1.31c.51,0,.77.18.82.56v.06h.06c.06,0,.22,0,.22-.12v-.56c0-.14-.16-.16-.22-.17h-.07c-.16-.02-.32-.04-.73-.04-1.37,0-2.38.72-2.38,1.72"
      style="fill: #fff;" />
    <path
      d="M46.65,50.6h-1.23s-.82,0-.82,0h-.12l-.12.13s0,.14.14.14c.49,0,.51.04.52.23v1.71c0,.18,0,.47-.02.7,0,.07,0,.13-.44.13-.12,0-.19.02-.19.15,0,.03,0,.13.12.13h1.85c.1,0,.18-.01.18-.13,0-.14-.11-.15-.29-.15-.44,0-.44-.06-.45-.13,0-.21-.02-.5-.02-.7v-.39h.37c.56,0,.63.01.71.45.02.09.1.11.16.11.13,0,.15-.07.15-.1v-.16c-.01-.09-.03-.21-.03-.37v-.67c0-.1-.12-.1-.18-.1-.11,0-.13.07-.2.38-.03.12-.26.19-.64.19h-.33v-.98c0-.27.05-.27.1-.27.22,0,.74-.03.89-.03.15,0,.28.03.37.09.28.17.42.29.51.36l.2.11s.16,0,.16-.1l-.05-.13c-.05-.1-.12-.27-.22-.52-.03-.08-.12-.08-.29-.08h-.77Z"
      style="fill: #fff;" />
    <path
      d="M49.1,59.44h-.26v-1.71l-.59,1.71h-.24l-.59-1.74h-.01v1.74h-.26v-2.05h.4l.48,1.45c.06.16.08.26.09.3.02-.08.06-.19.11-.33l.49-1.42h.36v2.05h0Z"
      style="fill: #fff;" />
    <rect x="49.7" y="57.4" width=".27" height="2.05" style="fill: #fff;" />
    <path
      d="M52.23,59.44h-.33l-.41-.58c-.1-.14-.16-.24-.19-.29,0,.02-.21.31-.62.87h-.33l.79-1.07-.7-.98h.32l.43.61.1.17c.04-.06.23-.32.57-.78h.3l-.72.96.78,1.08Z"
      style="fill: #fff;" />
    <path
      d="M44.67,68.07c-.08.07-.18.11-.29.11-.15,0-.28-.06-.37-.17s-.14-.31-.14-.58c0-.26.05-.44.14-.55.1-.11.22-.17.38-.17.11,0,.21.03.29.1.08.06.13.15.16.26l.42-.1c-.05-.17-.12-.3-.21-.4-.16-.16-.37-.23-.63-.23-.29,0-.53.1-.71.3-.18.2-.27.47-.27.83,0,.34.09.6.27.8.18.19.41.29.69.29.23,0,.41-.06.56-.17.15-.11.25-.29.32-.52l-.41-.13c-.03.16-.09.27-.17.34M41.68,68.36c.14.13.35.19.61.19.18,0,.33-.03.46-.08.12-.05.22-.13.28-.24.07-.11.1-.22.1-.34,0-.14-.03-.25-.08-.34-.06-.09-.13-.17-.23-.22-.1-.05-.25-.1-.46-.15-.21-.05-.34-.1-.39-.14-.04-.04-.06-.08-.06-.13,0-.05.02-.1.07-.13.07-.05.17-.08.29-.08s.21.02.27.07c.06.05.1.13.12.24l.42-.02c0-.2-.08-.35-.21-.47-.13-.12-.33-.18-.6-.18-.16,0-.3.03-.41.07-.11.05-.2.12-.26.22-.06.09-.09.2-.09.31,0,.17.07.31.19.43.09.08.25.15.48.21.18.05.29.08.34.09.07.03.12.06.15.09.03.04.04.08.04.13,0,.08-.03.15-.1.21-.07.06-.17.09-.31.09-.13,0-.23-.03-.31-.1-.08-.07-.13-.17-.15-.31l-.41.04c.03.24.11.42.26.55M40.17,68.51v-.91h.88v-.36h-.88v-.51h1.02v-.36h-1.44v2.14h.43Z"
      style="fill: #fff;" />
    <path
      d="M45.89,66.66h.06c.08,0,.13,0,.15.01l.05.03.02.05-.02.05-.05.03s-.07,0-.15,0h-.06v-.19ZM45.89,67.24v-.29h.04l.1.03s.06.07.09.14l.06.11h.17l-.08-.14s-.04-.08-.05-.08l-.05-.05-.05-.03c.06,0,.1-.03.14-.07.03-.04.05-.08.05-.13l-.03-.1-.06-.07s-.06-.02-.11-.03c-.02,0-.09,0-.22,0h-.14v.69h.14ZM46.29,66.43c.08.04.15.11.19.19.05.08.07.17.07.27s-.02.18-.07.26c-.04.08-.11.15-.19.19-.08.05-.17.07-.26.07s-.17-.02-.26-.07c-.08-.05-.14-.11-.19-.19-.04-.08-.07-.17-.07-.26s.02-.18.07-.27c.05-.08.11-.15.19-.19.08-.05.17-.07.25-.07s.17.02.25.07M45.72,66.32c-.1.05-.18.14-.24.24-.06.1-.09.21-.09.33s.03.22.08.32c.06.1.14.18.24.24.1.06.21.09.32.09s.22-.03.32-.09c.1-.06.18-.14.24-.24.06-.1.09-.21.09-.32s-.03-.22-.09-.33-.14-.19-.24-.24c-.1-.06-.21-.08-.32-.08s-.22.03-.32.08"
      style="fill: #fff;" />
    <path
      d="M48.84,68.07c-.08.07-.18.11-.29.11-.15,0-.28-.06-.37-.17s-.14-.31-.14-.58c0-.25.05-.44.15-.55s.22-.17.38-.17c.11,0,.21.03.29.1.08.06.13.15.15.26l.42-.1c-.05-.17-.12-.3-.22-.39-.16-.16-.37-.23-.63-.23-.29,0-.53.1-.71.3-.18.2-.27.47-.27.83,0,.34.09.6.27.8.18.19.41.29.69.29.22,0,.41-.06.56-.17.15-.11.25-.29.32-.52l-.41-.13c-.04.16-.09.27-.17.34"
      style="fill: #fff;" />
    <path
      d="M58.03,66.77v-.38h1.41v.3c-.12.11-.23.28-.35.49-.12.21-.21.44-.27.68-.06.24-.09.46-.09.64h-.4c0-.3.07-.6.18-.91.12-.31.27-.58.46-.83h-.94ZM57.17,67.71v-.73l-.49.73h.49ZM57.17,68.51v-.43h-.88v-.36l.93-1.36h.35v1.36h.27v.36h-.27v.43h-.4ZM56.09,68.12v.38h-1.44c.02-.14.06-.28.14-.41.08-.13.23-.3.46-.52.19-.17.3-.29.34-.35.06-.08.08-.17.08-.25,0-.09-.02-.16-.07-.21-.05-.05-.12-.07-.2-.07s-.15.03-.21.08c-.05.05-.08.14-.09.26l-.41-.04c.03-.23.1-.39.23-.49.13-.1.29-.15.48-.15.21,0,.38.06.5.17.12.11.18.26.18.43,0,.1-.02.19-.05.28-.03.09-.09.18-.16.27-.05.06-.14.16-.27.27-.13.12-.21.2-.25.24-.03.04-.06.08-.08.11h.82ZM54.08,68.51h-.41v-1.55c-.15.14-.33.25-.53.31v-.37c.11-.04.22-.1.35-.2.13-.1.21-.21.26-.34h.33v2.16ZM52.75,68.12v.38h-1.44c.02-.14.06-.28.14-.41.08-.13.23-.3.46-.52.19-.17.3-.29.34-.35.06-.08.08-.17.08-.25,0-.09-.02-.16-.07-.21-.05-.05-.12-.07-.2-.07s-.15.03-.21.08c-.05.05-.08.14-.09.26l-.41-.04c.02-.23.1-.39.23-.49.13-.1.29-.15.48-.15.21,0,.38.06.5.17.12.11.18.26.18.43,0,.1-.02.19-.05.28-.03.09-.09.18-.17.27-.05.06-.14.16-.27.27-.13.12-.21.2-.25.24-.04.04-.06.08-.08.11h.82ZM50.74,68.51h-.41v-1.55c-.15.14-.33.25-.53.31v-.37c.11-.04.22-.1.35-.2.13-.1.21-.21.26-.34h.33v2.16Z"
      style="fill: #fff;" />
    <path
      d="M46.95,63.49h.39c.07,0,.11,0,.14,0,.05,0,.09-.02.12-.04.03-.02.06-.05.08-.09.02-.04.03-.08.03-.13,0-.06-.01-.11-.04-.15-.03-.04-.07-.08-.12-.09-.05-.02-.13-.03-.23-.03h-.36v.54ZM46.95,62.77h.34c.09,0,.16,0,.2-.02.05-.02.09-.04.12-.08.03-.04.04-.08.04-.14,0-.05-.01-.1-.04-.14-.03-.04-.06-.07-.11-.08-.05-.02-.13-.02-.24-.02h-.32v.48ZM46.74,63.68v-1.57h.59c.12,0,.22.02.29.05.07.03.13.08.17.15.04.07.06.14.06.21,0,.07-.02.13-.05.19-.04.06-.09.11-.17.14.09.03.17.08.22.14.05.07.08.15.08.24,0,.07-.01.14-.05.2-.03.06-.07.11-.12.15-.04.03-.1.06-.17.08-.07.02-.15.03-.25.03h-.6Z"
      style="fill: #fff;" />
    <path
      d="M48.32,63.11c0,.15.03.26.1.33.06.07.14.11.24.11s.18-.04.24-.11c.06-.07.1-.18.1-.33s-.03-.25-.1-.32c-.06-.07-.14-.11-.24-.11s-.18.04-.24.11c-.06.07-.1.18-.1.33M48.12,63.11c0-.21.06-.37.18-.47.1-.08.22-.13.36-.13.16,0,.29.05.38.15.1.1.15.24.15.43,0,.15-.02.26-.07.35-.04.08-.11.15-.19.2-.08.05-.18.07-.28.07-.16,0-.29-.05-.39-.15-.1-.1-.15-.25-.15-.44"
      style="fill: #fff;" />
    <path
      d="M50.14,63.11c-.07.03-.18.05-.32.07-.08.01-.14.02-.17.04-.03.01-.06.04-.08.06-.02.03-.03.06-.03.09,0,.05.02.09.06.13.04.03.1.05.17.05s.14-.02.2-.05c.06-.03.1-.08.13-.13.02-.04.03-.11.03-.19v-.07ZM50.16,63.54c-.07.06-.14.1-.21.13s-.14.04-.21.04c-.12,0-.22-.03-.29-.09-.07-.06-.1-.14-.1-.23,0-.06.01-.11.04-.15.03-.05.06-.08.1-.11s.09-.05.14-.06c.04-.01.1-.02.17-.03.16-.02.27-.04.35-.07,0-.03,0-.04,0-.05,0-.08-.02-.13-.05-.17-.05-.04-.12-.07-.22-.07-.09,0-.16.02-.2.05-.04.03-.08.09-.1.17l-.19-.03c.02-.08.05-.15.08-.2.04-.05.1-.09.17-.11.08-.03.16-.04.26-.04s.18.01.24.03c.06.02.1.05.13.09.03.03.05.08.06.13,0,.03.01.09.01.18v.26c0,.18,0,.29.01.34,0,.05.03.09.05.14h-.2s-.03-.09-.04-.14"
      style="fill: #fff;" />
    <path
      d="M50.64,63.68v-1.14h.17v.17c.04-.08.08-.13.12-.16.04-.03.08-.04.12-.04.06,0,.13.02.2.06l-.07.18s-.1-.04-.14-.04c-.04,0-.08.01-.11.04-.03.03-.06.06-.07.11-.02.07-.03.14-.03.23v.6h-.19Z"
      style="fill: #fff;" />
    <path
      d="M51.5,63.11c0,.15.03.26.09.33.06.07.13.11.22.11s.16-.04.22-.1c.06-.07.09-.18.09-.32,0-.16-.03-.27-.09-.34-.06-.07-.13-.11-.22-.11s-.16.03-.22.11c-.06.07-.09.18-.09.33M52.11,63.68v-.14c-.07.11-.18.17-.32.17-.09,0-.18-.03-.25-.07-.08-.05-.14-.12-.18-.21-.04-.09-.06-.19-.06-.31s.02-.22.06-.31c.04-.09.09-.16.17-.21.08-.05.16-.08.25-.08.07,0,.13.02.18.04.05.03.1.07.13.11v-.56h.19v1.57h-.18Z"
      style="fill: #fff;" />
  </g>
  <text id="quantity" y="98.4%" x="63%"
    style="fill: #010101; font-family: Arial-BoldMT, Arial; font-size: 15px; font-weight: 700; isolation: isolate;"
    text-anchor="middle">
  </text>

  <g>
    <text transform="translate(11.17 166.17) rotate(-90)"
      style="fill: #00a6ce; font-family: Barlow-SemiBold, Barlow; font-size: 13.14px; font-weight: 600;">
      <tspan x="0" y="0">100 mm</tspan>
    </text>
    <line x1="22.4" y1=".28" x2="9.51" y2=".28" style="fill: none; stroke: #1b9dd9; stroke-width: .44px;" />
    <line x1="22.4" y1="283.99" x2="9.51" y2="283.99" style="fill: none; stroke: #1b9dd9; stroke-width: .44px;" />
    <line x1="16.17" y1=".28" x2="16.17" y2="283.75"
      style="fill: none; stroke: #1b9dd9; stroke-dasharray: 3.2 3.2; stroke-width: .43px;" />
    <text transform="translate(31.18 323.31)"
      style="fill: #00a6ce; font-family: Barlow-SemiBold, Barlow; font-size: 13.14px; font-weight: 600;">
      <tspan x="0" y="0">15 mm</tspan>
    </text>
    <line x1="70.45" y1="308.33" x2="70.45" y2="297.53" style="fill: none; stroke: #1b9dd9; stroke-width: .44px;" />
    <line x1="26.97" y1="296.98" x2="26.97" y2="307.78" style="fill: none; stroke: #1b9dd9; stroke-width: .44px;" />
    <line x1="26.97" y1="301.78" x2="70.45" y2="302.33"
      style="fill: none; stroke: #1b9dd9; stroke-dasharray: 3.2 3.2; stroke-width: .43px;" />
  </g>
</svg>