<?xml version="1.0" encoding="UTF-8"?>
<svg id="Layer_1" data-name="Layer 1" data-size="15mm x 100mm" xmlns="http://www.w3.org/2000/svg"
  viewBox="0 0 147.05 354.88">
  <path
    d="M60.25,21.11c0-2.35-1.9-4.25-4.25-4.25s-4.25,1.91-4.25,4.25,1.91,4.25,4.25,4.25,4.25-1.9,4.25-4.25M77.26,283.86h-42.52V.4h42.52v283.46Z"
    style="fill: #fdb927;" />
  <path
    d="M60.25,21.11c0-2.35-1.9-4.25-4.25-4.25s-4.25,1.9-4.25,4.25,1.9,4.25,4.25,4.25,4.25-1.9,4.25-4.25ZM77.26,283.86h-42.52V.4h42.52v283.46Z"
    style="fill: none; stroke: #e50695; stroke-width: .73px;" />
  <rect x="71.56" y=".41" width="5.64" height="283.42" style="fill: #00243c;" />
  <rect x="71.56" y=".41" width="5.64" height="283.42" style="fill: none; stroke: #052339; stroke-width: .5px;" />
  <path
    d="M59.01,270.9c-.29.69-.71,1.22-1.26,1.6-.55.37-1.18.56-1.91.56h-.38c-.06,0-.11-.02-.15-.06-.04-.04-.06-.09-.06-.15v-1.97c0-.06.02-.11.06-.15.04-.04.09-.06.15-.06h.26c.46,0,.85-.21,1.17-.64.32-.43.47-1,.47-1.73,0-.61-.13-1.07-.39-1.36-.26-.3-.58-.45-.96-.45-.28,0-.51.09-.7.28-.19.18-.36.43-.5.75-.14.32-.34.82-.6,1.51-.27.77-.53,1.43-.81,1.96-.28.54-.65.99-1.13,1.35-.48.36-1.07.54-1.77.54s-1.3-.18-1.81-.54c-.52-.36-.92-.85-1.19-1.49-.28-.63-.41-1.36-.41-2.19,0-.88.16-1.66.47-2.34.31-.69.75-1.22,1.3-1.61.56-.39,1.21-.58,1.94-.58h.26c.06,0,.11.02.15.06.04.04.06.09.06.15v1.99c0,.06-.02.11-.06.15-.04.04-.09.06-.15.06h-.14c-.48,0-.9.2-1.24.6-.34.4-.51.94-.51,1.63,0,.54.11.97.35,1.27.23.3.55.46.95.46.29,0,.53-.09.73-.27.2-.18.37-.44.53-.8.16-.35.37-.89.63-1.63.3-.82.56-1.46.79-1.93.23-.47.57-.89,1.03-1.26.45-.37,1.04-.56,1.77-.56,1.08,0,1.94.4,2.57,1.19.63.8.94,1.87.94,3.23,0,.92-.15,1.73-.44,2.42"
    style="fill: #00243c;" />
  <path
    d="M47.67,255.35c.31-.58.75-1.02,1.32-1.34.57-.32,1.22-.48,1.96-.48s1.37.16,1.92.49c.55.33.98.79,1.29,1.38.31.59.46,1.28.46,2.05v2.45c0,.06.03.09.09.09h4.41c.06,0,.11.02.15.06.04.04.06.09.06.15v2.02c0,.06-.02.11-.06.15-.04.04-.09.06-.15.06h-11.7c-.06,0-.11-.02-.15-.06-.04-.04-.06-.09-.06-.15v-4.87c0-.76.16-1.43.47-2M52.2,256.43c-.31-.32-.71-.48-1.2-.48s-.92.16-1.23.48c-.31.32-.47.75-.47,1.28v2.19c0,.06.03.09.09.09h3.18c.06,0,.09-.03.09-.09v-2.19c0-.53-.15-.96-.46-1.28"
    style="fill: #00243c;" />
  <path
    d="M49.25,243.69s.06.09.06.15v5.67c0,.06.03.09.09.09h2.68c.06,0,.09-.03.09-.09v-3.71c0-.06.02-.11.06-.15.04-.04.09-.06.15-.06h1.68c.06,0,.11.02.15.06.04.04.06.09.06.15v3.71c0,.06.03.09.09.09h2.8c.06,0,.09-.03.09-.09v-5.67c0-.06.02-.11.06-.15.04-.04.09-.06.15-.06h1.68c.06,0,.11.02.15.06.04.04.06.09.06.15v7.98c0,.06-.02.11-.06.15-.04.04-.09.06-.15.06h-11.68c-.06,0-.11-.02-.15-.06-.04-.04-.06-.09-.06-.15v-7.98c0-.06.02-.11.06-.15.04-.04.09-.06.15-.06h1.68c.06,0,.11.02.15.06"
    style="fill: #00243c;" />
  <path
    d="M58.92,240.05c-.35.68-.84,1.2-1.48,1.57-.63.37-1.36.55-2.19.55h-3.99c-.83,0-1.56-.18-2.19-.55-.63-.37-1.12-.89-1.47-1.57-.35-.68-.52-1.47-.52-2.37s.16-1.67.49-2.34c.33-.67.79-1.2,1.4-1.57.6-.38,1.3-.56,2.1-.56.1,0,.17.07.19.21l.12,2.02v.04c0,.11-.06.17-.19.17-.61,0-1.1.19-1.47.56-.37.38-.55.87-.55,1.48s.18,1.12.55,1.49c.37.38.86.56,1.47.56h4.16c.6,0,1.08-.19,1.45-.56.37-.37.55-.87.55-1.49s-.18-1.1-.55-1.48c-.37-.37-.85-.56-1.45-.56-.13,0-.19-.07-.19-.21l.09-2.02c0-.06.02-.11.05-.15.03-.04.08-.06.12-.06.79,0,1.5.19,2.11.56.61.37,1.08.9,1.42,1.57.34.67.5,1.45.5,2.34s-.17,1.69-.53,2.37"
    style="fill: #00243c;" />
  <path
    d="M59.25,231.37s-.09.06-.15.06h-11.68c-.06,0-.11-.02-.15-.06-.04-.04-.06-.09-.06-.15v-2.02c0-.06.02-.11.06-.15.04-.04.09-.06.15-.06h11.68c.06,0,.11.02.15.06.04.04.06.09.06.15v2.02c0,.06-.02.11-.06.15"
    style="fill: #00243c;" />
  <path
    d="M59.14,219.42l-1.69.52s-.07.05-.07.09v4.25s.02.06.07.09l1.69.5c.12.04.17.11.17.23v2.19c0,.07-.02.12-.06.16-.04.03-.1.04-.18.02l-11.68-3.73c-.12-.03-.17-.11-.17-.22v-2.71c0-.11.06-.19.17-.22l11.68-3.73s.05-.02.09-.02c.1,0,.16.06.16.19v2.19c0,.12-.06.19-.17.23M55.49,223.67v-3.04c0-.07-.03-.09-.1-.07l-5.13,1.55s-.07.03-.06.05c0,.02.03.04.06.05l5.13,1.52c.07.01.1-.01.1-.07"
    style="fill: #00243c;" />
  <path
    d="M59.25,215.23s-.09.06-.15.06h-11.68c-.06,0-.11-.02-.15-.06-.04-.04-.06-.09-.06-.15v-2.02c0-.06.02-.11.06-.15.04-.04.09-.06.15-.06h9.71c.06,0,.09-.03.09-.09v-5.65c0-.06.02-.11.06-.15.04-.04.09-.06.15-.06h1.68c.06,0,.11.02.15.06.04.04.06.09.06.15v7.97c0,.06-.02.11-.06.15"
    style="fill: #00243c;" />
  <path
    d="M47.67,194.95c.31-.58.75-1.02,1.32-1.34.57-.32,1.22-.48,1.96-.48s1.37.16,1.92.49c.55.33.98.79,1.29,1.38.31.59.46,1.28.46,2.05v2.45c0,.06.03.09.09.09h4.41c.06,0,.11.02.15.06.04.04.06.09.06.15v2.02c0,.06-.02.11-.06.15-.04.04-.09.06-.15.06h-11.7c-.06,0-.11-.02-.15-.06-.04-.04-.06-.09-.06-.15v-4.87c0-.76.16-1.43.47-2M52.2,196.04c-.31-.32-.71-.48-1.2-.48s-.92.16-1.23.48c-.31.32-.47.75-.47,1.28v2.19c0,.06.03.09.09.09h3.18c.06,0,.09-.03.09-.09v-2.19c0-.53-.15-.96-.46-1.28"
    style="fill: #00243c;" />
  <path
    d="M59.16,185.24l-4.79,2.16s-.07.06-.07.1v1.61c0,.06.03.09.09.09h4.72c.06,0,.11.02.15.06.04.04.06.09.06.15v2.02c0,.06-.02.11-.06.15-.04.04-.09.06-.15.06h-11.68c-.06,0-.11-.02-.15-.06-.04-.04-.06-.09-.06-.15v-4.94c0-.74.15-1.39.45-1.94.3-.56.73-.99,1.28-1.3.55-.31,1.19-.46,1.92-.46.78,0,1.45.2,2.01.59.56.39.95.94,1.18,1.64.02.06.06.08.12.05l4.89-2.35s.08-.03.1-.03c.09,0,.14.06.14.19v2.12c0,.12-.05.2-.15.24M49.39,189.2h2.95c.06,0,.09-.03.09-.09v-2.26c0-.48-.15-.88-.43-1.18-.29-.3-.66-.46-1.12-.46s-.84.15-1.13.46c-.29.31-.44.7-.44,1.18v2.26c0,.06.03.09.09.09"
    style="fill: #00243c;" />
  <path
    d="M59.25,180.97s-.09.06-.15.06h-11.68c-.06,0-.11-.02-.15-.06-.04-.04-.06-.09-.06-.15v-2.02c0-.06.02-.11.06-.15.04-.04.09-.06.15-.06h11.68c.06,0,.11.02.15.06.04.04.06.09.06.15v2.02c0,.06-.02.11-.06.15"
    style="fill: #00243c;" />
  <path
    d="M58.92,174.6c-.35.68-.84,1.2-1.48,1.57-.63.37-1.36.55-2.19.55h-3.99c-.83,0-1.56-.18-2.19-.55-.63-.37-1.12-.89-1.47-1.57-.35-.68-.52-1.47-.52-2.37s.16-1.67.49-2.34c.33-.67.79-1.2,1.4-1.57.6-.38,1.3-.56,2.1-.56.1,0,.17.07.19.21l.12,2.02v.04c0,.11-.06.17-.19.17-.61,0-1.1.19-1.47.56-.37.38-.55.87-.55,1.48s.18,1.12.55,1.49c.37.38.86.56,1.47.56h4.16c.6,0,1.08-.19,1.45-.56.37-.37.55-.87.55-1.49s-.18-1.1-.55-1.48c-.37-.37-.85-.56-1.45-.56-.13,0-.19-.07-.19-.21l.09-2.02c0-.06.02-.11.05-.15.03-.04.08-.06.12-.06.79,0,1.5.19,2.11.56.61.37,1.08.9,1.42,1.57.34.67.5,1.45.5,2.34s-.17,1.69-.53,2.37"
    style="fill: #00243c;" />
  <path
    d="M49.25,157.64s.06.09.06.15v5.67c0,.06.03.09.09.09h2.68c.06,0,.09-.03.09-.09v-3.71c0-.06.02-.11.06-.15.04-.04.09-.06.15-.06h1.68c.06,0,.11.02.15.06.04.04.06.09.06.15v3.71c0,.06.03.09.09.09h2.8c.06,0,.09-.03.09-.09v-5.67c0-.06.02-.11.06-.15.04-.04.09-.06.15-.06h1.68c.06,0,.11.02.15.06.04.04.06.09.06.15v7.98c0,.06-.02.11-.06.15-.04.04-.09.06-.15.06h-11.68c-.06,0-.11-.02-.15-.06-.04-.04-.06-.09-.06-.15v-7.98c0-.06.02-.11.06-.15.04-.04.09-.06.15-.06h1.68c.06,0,.11.02.15.06"
    style="fill: #00243c;" />
  <path
    d="M129.68,21.07c0-2.35-1.9-4.25-4.25-4.25s-4.25,1.91-4.25,4.25,1.9,4.25,4.25,4.25,4.25-1.9,4.25-4.25M146.69,283.83h-42.52V.36h42.52v283.46Z"
    style="fill: #fdb927;" />
  <path
    d="M129.68,21.07c0-2.35-1.9-4.25-4.25-4.25s-4.25,1.91-4.25,4.25,1.9,4.25,4.25,4.25,4.25-1.9,4.25-4.25ZM146.69,283.83h-42.52V.37h42.52v283.46Z"
    style="fill: none; stroke: #e50695; stroke-width: .73px;" />
  <rect x="140.99" y=".37" width="5.64" height="283.42" style="fill: #00243c;" />
  <rect x="140.99" y=".37" width="5.64" height="283.42" style="fill: none; stroke: #052339; stroke-width: .5px;" />
  <path
    d="M130.64,270.86c-.29.69-.71,1.22-1.26,1.6-.55.37-1.18.56-1.91.56h-.38c-.06,0-.11-.02-.15-.06-.04-.04-.06-.09-.06-.15v-1.97c0-.06.02-.11.06-.15.04-.04.09-.06.15-.06h.26c.46,0,.85-.21,1.17-.64.32-.43.47-1,.47-1.73,0-.61-.13-1.07-.39-1.36-.26-.3-.58-.45-.96-.45-.28,0-.51.09-.7.28-.19.18-.36.43-.5.75-.14.32-.34.82-.6,1.51-.27.77-.53,1.43-.81,1.96-.28.54-.65.99-1.13,1.35-.48.36-1.07.54-1.77.54s-1.3-.18-1.81-.54c-.52-.36-.92-.85-1.19-1.49-.28-.63-.41-1.36-.41-2.19,0-.88.16-1.66.47-2.34.31-.69.75-1.22,1.3-1.61.56-.39,1.21-.58,1.94-.58h.26c.06,0,.11.02.15.06.04.04.06.09.06.15v1.99c0,.06-.02.11-.06.15-.04.04-.09.06-.15.06h-.14c-.48,0-.9.2-1.24.6-.34.4-.51.94-.51,1.63,0,.54.11.97.35,1.27.23.3.55.46.95.46.29,0,.53-.09.73-.27.2-.18.37-.44.53-.8.16-.35.37-.89.63-1.63.3-.82.56-1.46.79-1.93.23-.47.57-.89,1.03-1.26.45-.37,1.04-.56,1.77-.56,1.08,0,1.94.4,2.57,1.19.63.8.94,1.87.94,3.23,0,.92-.15,1.73-.44,2.42"
    style="fill: #00243c;" />
  <path
    d="M119.3,255.31c.31-.58.75-1.02,1.32-1.34.57-.32,1.22-.48,1.96-.48s1.37.16,1.92.49c.55.33.98.79,1.29,1.38.31.59.46,1.28.46,2.05v2.45c0,.06.03.09.09.09h4.41c.06,0,.11.02.15.06.04.04.06.09.06.15v2.02c0,.06-.02.11-.06.15-.04.04-.09.06-.15.06h-11.7c-.06,0-.11-.02-.15-.06-.04-.04-.06-.09-.06-.15v-4.87c0-.76.16-1.43.47-2M123.83,256.4c-.31-.32-.71-.48-1.2-.48s-.92.16-1.23.48c-.31.32-.47.75-.47,1.28v2.19c0,.06.03.09.09.09h3.18c.06,0,.09-.03.09-.09v-2.19c0-.53-.15-.96-.46-1.28"
    style="fill: #00243c;" />
  <path
    d="M120.88,243.66s.06.09.06.15v5.67c0,.06.03.09.09.09h2.68c.06,0,.09-.03.09-.09v-3.71c0-.06.02-.11.06-.15.04-.04.09-.06.15-.06h1.68c.06,0,.11.02.15.06.04.04.06.09.06.15v3.71c0,.06.03.09.09.09h2.8c.06,0,.09-.03.09-.09v-5.67c0-.06.02-.11.06-.15.04-.04.09-.06.15-.06h1.68c.06,0,.11.02.15.06.04.04.06.09.06.15v7.98c0,.06-.02.11-.06.15-.04.04-.09.06-.15.06h-11.68c-.06,0-.11-.02-.15-.06-.04-.04-.06-.09-.06-.15v-7.98c0-.06.02-.11.06-.15.04-.04.09-.06.15-.06h1.68c.06,0,.11.02.15.06"
    style="fill: #00243c;" />
  <path
    d="M130.56,240.02c-.35.68-.84,1.2-1.48,1.57-.63.37-1.36.55-2.19.55h-3.99c-.83,0-1.56-.18-2.19-.55-.63-.37-1.12-.89-1.47-1.57-.35-.68-.52-1.47-.52-2.37s.16-1.67.49-2.34c.33-.67.79-1.2,1.4-1.57.6-.38,1.3-.56,2.1-.56.1,0,.17.07.19.21l.12,2.02v.04c0,.11-.06.17-.19.17-.61,0-1.1.19-1.47.56-.37.38-.55.87-.55,1.48s.18,1.12.55,1.49c.37.38.86.56,1.47.56h4.16c.6,0,1.08-.19,1.45-.56.37-.37.55-.87.55-1.49s-.18-1.1-.55-1.48c-.37-.37-.85-.56-1.45-.56-.13,0-.19-.07-.19-.21l.09-2.02c0-.06.02-.11.05-.15.03-.04.08-.06.12-.06.79,0,1.5.19,2.11.56.61.37,1.08.9,1.42,1.57.34.67.5,1.45.5,2.34s-.17,1.69-.53,2.37"
    style="fill: #00243c;" />
  <path
    d="M130.88,231.34s-.09.06-.15.06h-11.68c-.06,0-.11-.02-.15-.06-.04-.04-.06-.09-.06-.15v-2.02c0-.06.02-.11.06-.15.04-.04.09-.06.15-.06h11.68c.06,0,.11.02.15.06.04.04.06.09.06.15v2.02c0,.06-.02.11-.06.15"
    style="fill: #00243c;" />
  <path
    d="M130.77,219.39l-1.69.52s-.07.05-.07.09v4.25s.02.06.07.09l1.69.5c.12.04.17.11.17.23v2.19c0,.07-.02.12-.06.16-.04.03-.1.04-.18.02l-11.68-3.73c-.12-.03-.17-.11-.17-.22v-2.71c0-.11.06-.19.17-.22l11.68-3.73s.05-.02.09-.02c.1,0,.16.06.16.19v2.19c0,.12-.06.19-.17.23M127.12,223.64v-3.04c0-.07-.03-.09-.1-.07l-5.13,1.55s-.07.03-.06.05c0,.02.03.04.06.05l5.13,1.52c.07.01.1-.01.1-.07"
    style="fill: #00243c;" />
  <path
    d="M130.88,215.2s-.09.06-.15.06h-11.68c-.06,0-.11-.02-.15-.06-.04-.04-.06-.09-.06-.15v-2.02c0-.06.02-.11.06-.15.04-.04.09-.06.15-.06h9.71c.06,0,.09-.03.09-.09v-5.65c0-.06.02-.11.06-.15.04-.04.09-.06.15-.06h1.68c.06,0,.11.02.15.06.04.04.06.09.06.15v7.97c0,.06-.02.11-.06.15"
    style="fill: #00243c;" />
  <path
    d="M119.3,194.92c.31-.58.75-1.02,1.32-1.34.57-.32,1.22-.48,1.96-.48s1.37.16,1.92.49c.55.33.98.79,1.29,1.38.31.59.46,1.28.46,2.05v2.45c0,.06.03.09.09.09h4.41c.06,0,.11.02.15.06.04.04.06.09.06.15v2.02c0,.06-.02.11-.06.15-.04.04-.09.06-.15.06h-11.7c-.06,0-.11-.02-.15-.06-.04-.04-.06-.09-.06-.15v-4.87c0-.76.16-1.43.47-2M123.83,196.01c-.31-.32-.71-.48-1.2-.48s-.92.16-1.23.48c-.31.32-.47.75-.47,1.28v2.19c0,.06.03.09.09.09h3.18c.06,0,.09-.03.09-.09v-2.19c0-.53-.15-.96-.46-1.28"
    style="fill: #00243c;" />
  <path
    d="M130.79,185.21l-4.79,2.16s-.07.06-.07.1v1.61c0,.06.03.09.09.09h4.72c.06,0,.11.02.15.06.04.04.06.09.06.15v2.02c0,.06-.02.11-.06.15-.04.04-.09.06-.15.06h-11.68c-.06,0-.11-.02-.15-.06-.04-.04-.06-.09-.06-.15v-4.94c0-.74.15-1.39.45-1.94.3-.56.73-.99,1.28-1.3.55-.31,1.19-.46,1.92-.46.78,0,1.45.2,2.01.59.56.39.95.94,1.18,1.64.02.06.06.08.12.05l4.89-2.35s.08-.03.1-.03c.09,0,.14.06.14.19v2.12c0,.12-.05.2-.15.24M121.02,189.17h2.95c.06,0,.09-.03.09-.09v-2.26c0-.48-.15-.88-.43-1.18-.29-.3-.66-.46-1.12-.46s-.84.15-1.13.46c-.29.31-.44.7-.44,1.18v2.26c0,.06.03.09.09.09"
    style="fill: #00243c;" />
  <path
    d="M130.88,180.93s-.09.06-.15.06h-11.68c-.06,0-.11-.02-.15-.06-.04-.04-.06-.09-.06-.15v-2.02c0-.06.02-.11.06-.15.04-.04.09-.06.15-.06h11.68c.06,0,.11.02.15.06.04.04.06.09.06.15v2.02c0,.06-.02.11-.06.15"
    style="fill: #00243c;" />
  <path
    d="M130.56,174.57c-.35.68-.84,1.2-1.48,1.57-.63.37-1.36.55-2.19.55h-3.99c-.83,0-1.56-.18-2.19-.55-.63-.37-1.12-.89-1.47-1.57-.35-.68-.52-1.47-.52-2.37s.16-1.67.49-2.34c.33-.67.79-1.2,1.4-1.57.6-.38,1.3-.56,2.1-.56.1,0,.17.07.19.21l.12,2.02v.04c0,.11-.06.17-.19.17-.61,0-1.1.19-1.47.56-.37.38-.55.87-.55,1.48s.18,1.12.55,1.49c.37.38.86.56,1.47.56h4.16c.6,0,1.08-.19,1.45-.56.37-.37.55-.87.55-1.49s-.18-1.1-.55-1.48c-.37-.37-.85-.56-1.45-.56-.13,0-.19-.07-.19-.21l.09-2.02c0-.06.02-.11.05-.15.03-.04.08-.06.12-.06.79,0,1.5.19,2.11.56.61.37,1.08.9,1.42,1.57.34.67.5,1.45.5,2.34s-.17,1.69-.53,2.37"
    style="fill: #00243c;" />
  <path
    d="M120.88,157.61s.06.09.06.15v5.67c0,.06.03.09.09.09h2.68c.06,0,.09-.03.09-.09v-3.71c0-.06.02-.11.06-.15.04-.04.09-.06.15-.06h1.68c.06,0,.11.02.15.06.04.04.06.09.06.15v3.71c0,.06.03.09.09.09h2.8c.06,0,.09-.03.09-.09v-5.67c0-.06.02-.11.06-.15.04-.04.09-.06.15-.06h1.68c.06,0,.11.02.15.06.04.04.06.09.06.15v7.98c0,.06-.02.11-.06.15-.04.04-.09.06-.15.06h-11.68c-.06,0-.11-.02-.15-.06-.04-.04-.06-.09-.06-.15v-7.98c0-.06.02-.11.06-.15.04-.04.09-.06.15-.06h1.68c.06,0,.11.02.15.06"
    style="fill: #00243c;" />
  <g>
    <path
      d="M.13,121.17v-.77c0-.1.05-.14.14-.14h9.75c.1,0,.14.05.14.14v.73c0,.1-.05.14-.14.14H1.29s-.03,0-.04.02c0,.01,0,.03,0,.05l.62,1.52v.06c.01.06-.02.1-.1.11l-.54.07h-.03s-.1-.03-.14-.1l-.87-1.65c-.03-.06-.04-.12-.04-.19Z"
      style="fill: #00aeef;" />
    <path
      d="M9.51,117.09c-.53.54-1.23.82-2.11.82H2.88c-.88,0-1.58-.27-2.1-.82-.52-.54-.78-1.28-.78-2.19s.26-1.67.79-2.22,1.22-.83,2.09-.83h4.53c.88,0,1.58.28,2.11.83.53.55.79,1.29.79,2.22s-.26,1.65-.79,2.19ZM8.88,113.42c-.35-.37-.83-.56-1.42-.56H2.84c-.58,0-1.05.18-1.4.55-.35.37-.53.86-.53,1.48s.18,1.08.53,1.45c.35.36.82.54,1.4.54h4.63c.59,0,1.07-.18,1.42-.54.35-.36.53-.85.53-1.45s-.18-1.1-.53-1.48Z"
      style="fill: #00aeef;" />
    <path
      d="M9.51,108.99c-.53.54-1.23.82-2.11.82H2.88c-.88,0-1.58-.27-2.1-.82-.52-.54-.78-1.28-.78-2.19s.26-1.67.79-2.22,1.22-.83,2.09-.83h4.53c.88,0,1.58.28,2.11.83.53.55.79,1.29.79,2.22s-.26,1.65-.79,2.19ZM8.88,105.32c-.35-.37-.83-.56-1.42-.56H2.84c-.58,0-1.05.18-1.4.55-.35.37-.53.86-.53,1.48s.18,1.08.53,1.45c.35.36.82.54,1.4.54h4.63c.59,0,1.07-.18,1.42-.54.35-.36.53-.85.53-1.45s-.18-1.1-.53-1.48Z"
      style="fill: #00aeef;" />
    <path
      d="M3.45,89.68c.43-.42,1.02-.62,1.76-.62h4.8c.1,0,.14.05.14.14v.72c0,.1-.05.14-.14.14h-4.6c-.53,0-.94.15-1.25.45s-.47.69-.47,1.18.15.92.46,1.23.72.47,1.23.47h4.63c.1,0,.14.05.14.14v.73c0,.1-.05.14-.14.14h-4.6c-.53,0-.94.15-1.25.44-.31.3-.47.69-.47,1.19s.15.91.46,1.21.72.45,1.23.45h4.63c.1,0,.14.05.14.14v.73c0,.1-.05.14-.14.14H3.05c-.09,0-.14-.05-.14-.14v-.73c0-.1.05-.14.14-.14h.57s.03,0,.04-.02c0-.01,0-.03-.02-.05-.28-.21-.48-.48-.62-.81s-.21-.69-.21-1.1c0-.5.1-.92.3-1.28.2-.35.49-.62.87-.8.05-.02.05-.04,0-.07-.39-.21-.69-.51-.88-.89-.2-.38-.29-.82-.29-1.3,0-.72.21-1.28.64-1.7Z"
      style="fill: #00aeef;" />
    <path
      d="M3.45,77.83c.43-.42,1.02-.62,1.76-.62h4.8c.1,0,.14.05.14.14v.72c0,.1-.05.14-.14.14h-4.6c-.53,0-.94.15-1.25.45s-.47.69-.47,1.18.15.92.46,1.23.72.47,1.23.47h4.63c.1,0,.14.05.14.14v.73c0,.1-.05.14-.14.14h-4.6c-.53,0-.94.15-1.25.44-.31.3-.47.69-.47,1.19s.15.91.46,1.21.72.45,1.23.45h4.63c.1,0,.14.05.14.14v.73c0,.1-.05.14-.14.14H3.05c-.09,0-.14-.05-.14-.14v-.73c0-.1.05-.14.14-.14h.57s.03,0,.04-.02c0-.01,0-.03-.02-.05-.28-.21-.48-.48-.62-.81s-.21-.69-.21-1.1c0-.5.1-.92.3-1.28.2-.35.49-.62.87-.8.05-.02.05-.04,0-.07-.39-.21-.69-.51-.88-.89-.2-.38-.29-.82-.29-1.3,0-.72.21-1.28.64-1.7Z"
      style="fill: #00aeef;" />
  </g>
  <line x1="19.41" y1="283.86" x2="6.62" y2="283.86" style="fill: none; stroke: #00aeef; stroke-width: .44px;" />
  <g>
    <line x1="19.41" y1=".4" x2="6.62" y2=".4" style="fill: none; stroke: #00aeef; stroke-width: .44px;" />
    <line x1="13.24" y1=".4" x2="13.24" y2="283.99"
      style="fill: none; stroke: #00aeef; stroke-dasharray: 3.82 3.82; stroke-width: .51px;" />
  </g>
  <g>
    <path
      d="M40.1,316.8h.77c.1,0,.14.05.14.14v9.74c0,.1-.05.14-.14.14h-.73c-.1,0-.14-.05-.14-.14v-8.73s0-.03-.02-.04c-.01,0-.03,0-.05,0l-1.52.62h-.06c-.06.01-.1-.02-.11-.1l-.07-.54v-.03s.03-.1.1-.14l1.65-.87c.06-.03.12-.04.19-.04Z"
      style="fill: #00aeef;" />
    <path
      d="M49,323.74c0,.47-.04.87-.13,1.2-.16.61-.49,1.1-.97,1.45-.49.36-1.07.54-1.76.54s-1.26-.17-1.73-.52c-.48-.34-.8-.8-.97-1.38-.07-.21-.11-.42-.13-.63v-.03c0-.08.04-.12.13-.12h.76c.1,0,.15.05.16.14,0,.06.02.15.06.29.1.41.29.74.59.98.3.24.68.37,1.12.37s.84-.13,1.15-.39.51-.61.61-1.06c.06-.22.09-.51.09-.86,0-.32-.02-.63-.07-.93-.07-.44-.26-.77-.57-1-.32-.23-.71-.34-1.18-.34-.42,0-.8.1-1.13.29-.33.19-.55.44-.65.76-.03.09-.08.13-.16.13h-.77c-.1,0-.14-.05-.14-.14v-5.55c0-.1.05-.14.14-.14h5.02c.1,0,.14.05.14.14v.6c0,.1-.05.14-.14.14h-4.08s-.06.02-.06.06v3.47s0,.03,0,.04c.01,0,.03,0,.05-.01.24-.22.52-.39.85-.51.32-.12.67-.18,1.03-.18.68,0,1.25.16,1.72.49.47.33.77.79.9,1.4.09.42.13.85.13,1.29Z"
      style="fill: #00aeef;" />
    <path
      d="M62.77,320.13c.42.43.62,1.02.62,1.76v4.8c0,.1-.05.14-.14.14h-.72c-.1,0-.14-.05-.14-.14v-4.6c0-.53-.15-.94-.45-1.25s-.69-.47-1.18-.47-.92.15-1.23.46c-.31.31-.47.72-.47,1.23v4.63c0,.1-.05.14-.14.14h-.73c-.1,0-.14-.05-.14-.14v-4.6c0-.53-.15-.94-.44-1.25-.3-.31-.69-.47-1.19-.47s-.91.15-1.21.46c-.3.31-.45.72-.45,1.23v4.63c0,.1-.05.14-.14.14h-.73c-.1,0-.14-.05-.14-.14v-6.96c0-.1.05-.14.14-.14h.73c.1,0,.14.05.14.14v.57s0,.03.02.04c.01,0,.03,0,.05-.02.21-.28.48-.48.81-.62s.69-.21,1.1-.21c.5,0,.92.1,1.28.3.35.2.62.49.8.87.02.05.04.05.07,0,.21-.39.51-.68.89-.88.38-.2.82-.29,1.3-.29.72,0,1.28.21,1.7.64Z"
      style="fill: #00aeef;" />
    <path
      d="M74.62,320.13c.42.43.62,1.02.62,1.76v4.8c0,.1-.05.14-.14.14h-.72c-.1,0-.14-.05-.14-.14v-4.6c0-.53-.15-.94-.45-1.25s-.69-.47-1.18-.47-.92.15-1.23.46c-.31.31-.47.72-.47,1.23v4.63c0,.1-.05.14-.14.14h-.73c-.1,0-.14-.05-.14-.14v-4.6c0-.53-.15-.94-.44-1.25-.3-.31-.69-.47-1.19-.47s-.91.15-1.21.46c-.3.31-.45.72-.45,1.23v4.63c0,.1-.05.14-.14.14h-.73c-.1,0-.14-.05-.14-.14v-6.96c0-.1.05-.14.14-.14h.73c.1,0,.14.05.14.14v.57s0,.03.02.04c.01,0,.03,0,.05-.02.21-.28.48-.48.81-.62s.69-.21,1.1-.21c.5,0,.92.1,1.28.3.35.2.62.49.8.87.02.05.04.05.07,0,.21-.39.51-.68.89-.88.38-.2.82-.29,1.3-.29.72,0,1.28.21,1.7.64Z"
      style="fill: #00aeef;" />
  </g>
  <line x1="77.64" y1="310.33" x2="77.64" y2="299.54" style="fill: none; stroke: #00aeef; stroke-width: .44px;" />
  <line x1="34.28" y1="299.54" x2="34.28" y2="310.33" style="fill: none; stroke: #00aeef; stroke-width: .44px;" />
  <line x1="34.28" y1="304.33" x2="76.82" y2="304.33"
    style="fill: none; stroke: #00aeef; stroke-dasharray: 3.87 3.87; stroke-width: .51px;" />
  <rect x="107.83" y="40.9" width="30.05" height="30.05" style="fill: #fdb927;" />
  <path
    d="M109.07,39.99v-3.14s.01-.05.04-.05h.64c.21,0,.38.08.51.23.13.16.19.36.19.62v1.51c0,.26-.06.47-.19.63-.13.16-.3.23-.51.23h-.64s-.04-.01-.04-.05M109.38,39.75h.37c.12,0,.22-.06.29-.16.07-.11.11-.25.11-.43v-1.49c0-.18-.04-.32-.11-.43-.07-.11-.17-.16-.3-.16h-.37s-.02,0-.02.02v2.62s0,.02.02.02"
    style="fill: #00243c;" />
  <path d="M110.88,39.99v-3.14s.01-.05.04-.05h.21s.04.02.04.05v3.14s-.02.05-.04.05h-.21s-.04-.02-.04-.05"
    style="fill: #00243c;" />
  <path
    d="M112.92,37.09h-.96s-.02,0-.02.02v1.15s0,.02.02.02h.6s.04.02.04.05v.2s-.02.05-.04.05h-.6s-.02,0-.02.02v1.41s-.01.05-.04.05h-.21s-.04-.02-.04-.05v-3.14s.01-.05.04-.05h1.23s.04.01.04.05v.19s-.01.05-.04.05"
    style="fill: #00243c;" />
  <path
    d="M114.48,37.09h-.96s-.02,0-.02.02v1.15s0,.02.02.02h.6s.04.02.04.05v.2s-.02.05-.04.05h-.6s-.02,0-.02.02v1.41s-.01.05-.04.05h-.21s-.04-.02-.04-.05v-3.14s.01-.05.04-.05h1.23s.04.01.04.05v.19s-.01.05-.04.05"
    style="fill: #00243c;" />
  <path
    d="M116.05,37.09h-.96s-.02,0-.02.02v1.15s0,.02.02.02h.61s.04.02.04.05v.2s-.01.05-.04.05h-.61s-.02,0-.02.02v1.15s0,.02.02.02h.96s.04.02.04.05v.19s-.02.05-.04.05h-1.23s-.04-.02-.04-.05v-3.14s.01-.05.04-.05h1.23s.04.01.04.05v.19s-.02.05-.04.05"
    style="fill: #00243c;" />
  <path
    d="M117.55,40l-.43-1.44s0-.01-.02-.01h-.36s-.02,0-.02.02v1.42s-.01.05-.04.05h-.21s-.04-.02-.04-.05v-3.15s.01-.05.04-.05h.68c.2,0,.37.08.49.24.12.16.19.38.19.64,0,.2-.04.38-.12.52-.08.15-.18.24-.32.3-.01,0-.01,0-.01.02l.45,1.45v.02s0,.03-.03.03h-.22s-.04-.01-.05-.04M116.73,37.11v1.16s0,.02.02.02h.37c.13,0,.23-.05.31-.16.08-.11.12-.25.12-.43s-.04-.33-.12-.44c-.08-.11-.18-.16-.31-.16h-.37s-.02,0-.02.02"
    style="fill: #00243c;" />
  <path
    d="M119.43,37.09h-.96s-.02,0-.02.02v1.15s0,.02.02.02h.61s.04.02.04.05v.2s-.01.05-.04.05h-.61s-.02,0-.02.02v1.15s0,.02.02.02h.96s.04.02.04.05v.19s-.02.05-.04.05h-1.23s-.04-.02-.04-.05v-3.14s.01-.05.04-.05h1.23s.04.01.04.05v.19s-.02.05-.04.05"
    style="fill: #00243c;" />
  <path
    d="M119.82,39.99v-3.14s.01-.05.04-.05h.22s.04.01.05.04l.84,2.33s0,.01.01.01,0,0,0-.01v-2.32s.01-.05.04-.05h.21s.04.02.04.05v3.14s-.01.05-.04.05h-.22s-.04-.01-.05-.04l-.84-2.33s0-.01-.01-.01c0,0,0,0,0,.02v2.31s-.01.05-.04.05h-.21s-.04-.02-.04-.05"
    style="fill: #00243c;" />
  <path
    d="M121.58,39.99v-.21s0-.03.01-.06l1.01-2.61s0-.01,0-.02c0,0,0,0-.01,0h-.97s-.04-.02-.04-.05v-.19s.01-.05.04-.05h1.26s.04.02.04.05v.21s0,.03-.01.06l-1.01,2.61s0,.01,0,.02c0,0,0,0,.01,0h.96s.04.02.04.05v.19s-.01.05-.04.05h-1.26s-.04-.02-.04-.05"
    style="fill: #00243c;" />
  <path d="M123.27,39.99v-3.14s.01-.05.04-.05h.21s.04.02.04.05v3.14s-.01.05-.04.05h-.21s-.04-.02-.04-.05"
    style="fill: #00243c;" />
  <path
    d="M125.19,40l-.1-.57s0-.01,0-.01c0,0,0,0-.02,0h-.75s-.01,0-.01,0c0,0,0,0,0,.01l-.11.57s-.02.04-.05.04h-.21s-.02,0-.03-.01c0,0,0-.02,0-.04l.63-3.14s.02-.04.05-.04h.25s.04.01.05.04l.63,3.14h0s-.01.05-.04.05h-.22s-.04-.01-.05-.04M124.36,39.14h.65s.01,0,.01-.02l-.33-1.78s0-.01,0-.01c0,0,0,0,0,.01l-.33,1.78s0,.02.01.02"
    style="fill: #00243c;" />
  <path d="M126.52,39.99v-3.14s.01-.05.04-.05h.21s.04.02.04.05v3.14s-.02.05-.04.05h-.21s-.04-.02-.04-.05"
    style="fill: #00243c;" />
  <path
    d="M129.12,40l-.43-1.44s0-.01-.02-.01h-.36s-.02,0-.02.02v1.42s-.01.05-.04.05h-.21s-.04-.02-.04-.05v-3.15s.01-.05.04-.05h.68c.2,0,.37.08.49.24.12.16.19.38.19.64,0,.2-.04.38-.12.52-.08.15-.18.24-.32.3-.01,0-.01,0-.01.02l.45,1.45v.02s0,.03-.03.03h-.22s-.04-.01-.05-.04M128.3,37.11v1.16s0,.02.02.02h.37c.13,0,.23-.05.31-.16.08-.11.12-.25.12-.43s-.04-.33-.12-.44c-.08-.11-.18-.16-.31-.16h-.37s-.02,0-.02.02"
    style="fill: #00243c;" />
  <path d="M129.72,39.99v-3.14s.01-.05.04-.05h.21s.04.02.04.05v3.14s-.01.05-.04.05h-.21s-.04-.02-.04-.05"
    style="fill: #00243c;" />
  <path
    d="M131.76,37.09h-.96s-.02,0-.02.02v1.15s0,.02.02.02h.6s.04.02.04.05v.2s-.02.05-.04.05h-.6s-.02,0-.02.02v1.41s-.01.05-.04.05h-.21s-.04-.02-.04-.05v-3.14s.01-.05.04-.05h1.23s.04.01.04.05v.19s-.01.05-.04.05"
    style="fill: #00243c;" />
  <path d="M132.05,39.99v-3.14s.01-.05.04-.05h.21s.04.02.04.05v3.14s-.01.05-.04.05h-.21s-.04-.02-.04-.05"
    style="fill: #00243c;" />
  <path
    d="M133,39.83c-.13-.16-.2-.38-.2-.65v-2.33s.01-.05.04-.05h.21s.04.02.04.05v2.37c0,.17.04.31.11.41.08.1.18.16.3.16s.23-.05.31-.16c.08-.1.12-.24.12-.41v-2.37s.01-.05.04-.05h.21s.04.02.04.05v2.33c0,.27-.07.48-.2.65-.13.16-.31.25-.52.25s-.39-.08-.52-.25"
    style="fill: #00243c;" />
  <path
    d="M136,36.85v.19s-.01.05-.04.05h-.55s-.02,0-.02.02v2.88s-.01.05-.04.05h-.21s-.04-.02-.04-.05v-2.88s0-.02-.02-.02h-.52s-.04-.02-.04-.05v-.19s.01-.05.04-.05h1.39s.04.02.04.05"
    style="fill: #00243c;" />
  <path d="M136.32,39.99v-3.14s.01-.05.04-.05h.21s.04.02.04.05v3.14s-.01.05-.04.05h-.21s-.04-.02-.04-.05"
    style="fill: #00243c;" />
  <path
    d="M108.87,75.46c-.13-.15-.19-.35-.19-.59v-.11s.01-.05.04-.05h.21s.04.02.04.05v.1c0,.16.04.29.11.4.08.1.17.15.29.15s.21-.05.29-.14c.08-.1.12-.22.12-.38,0-.1-.02-.19-.06-.27-.04-.07-.09-.14-.15-.2-.06-.06-.16-.14-.3-.26-.14-.11-.25-.21-.33-.29-.08-.08-.15-.18-.2-.29-.05-.11-.08-.25-.08-.4,0-.24.06-.43.19-.57.12-.14.29-.21.49-.21.21,0,.38.08.51.23.12.15.19.35.19.61v.12s-.01.05-.04.05h-.21s-.04-.02-.04-.05v-.12c0-.16-.04-.29-.11-.39-.07-.1-.17-.15-.29-.15-.11,0-.2.04-.27.13-.07.09-.11.21-.11.37,0,.1.02.18.05.25.03.07.08.14.14.21.06.07.16.15.28.25.17.14.29.25.37.33.08.09.15.18.19.28.04.1.07.22.07.36,0,.25-.07.46-.2.61-.13.15-.3.23-.5.23s-.37-.08-.5-.23"
    style="fill: #00243c;" />
  <path
    d="M111.66,72.7h-.96s-.02,0-.02.02v1.15s0,.02.02.02h.61s.04.02.04.05v.2s-.01.05-.04.05h-.61s-.02,0-.02.02v1.15s0,.02.02.02h.96s.04.02.04.05v.19s-.01.05-.04.05h-1.23s-.04-.02-.04-.05v-3.14s.01-.05.04-.05h1.23s.04.01.04.05v.19s-.01.05-.04.05"
    style="fill: #00243c;" />
  <path
    d="M113.26,72.66c.12.16.19.38.19.65s-.06.48-.18.64c-.12.16-.28.24-.48.24h-.43s-.02,0-.02.02v1.4s-.01.05-.04.05h-.21s-.04-.02-.04-.05v-3.15s.02-.05.04-.05h.69c.2,0,.37.08.49.25M113.03,73.76c.08-.11.12-.26.12-.44s-.04-.33-.12-.45c-.08-.11-.18-.17-.3-.17h-.38s-.02,0-.02.02v1.19s0,.02.02.02h.38c.12,0,.23-.06.3-.17"
    style="fill: #00243c;" />
  <path
    d="M114.8,75.61l-.1-.57s0-.01,0-.01c0,0,0,0-.01,0h-.75s-.01,0-.01,0c0,0,0,0,0,.01l-.11.57s-.02.04-.05.04h-.21s-.02,0-.03-.01c0,0,0-.02,0-.04l.63-3.14s.02-.04.05-.04h.25s.04.01.05.04l.63,3.14h0s-.01.05-.04.05h-.22s-.04-.01-.05-.04M113.97,74.75h.65s.01,0,.01-.02l-.33-1.78s0-.01,0-.01c0,0,0,0,0,.01l-.33,1.78s0,.02.01.02"
    style="fill: #00243c;" />
  <path
    d="M116.53,75.61l-.43-1.44s0-.01-.02-.01h-.36s-.02,0-.02.02v1.42s-.01.05-.04.05h-.21s-.04-.02-.04-.05v-3.15s.01-.05.04-.05h.68c.2,0,.37.08.49.24.12.16.19.38.19.64,0,.2-.04.38-.12.52-.08.15-.18.24-.32.3-.01,0-.01,0-.01.02l.45,1.45v.02s0,.03-.03.03h-.22s-.04-.01-.05-.04M115.71,72.72v1.16s0,.02.02.02h.38c.13,0,.23-.05.31-.16.08-.11.12-.25.12-.43s-.04-.33-.12-.44c-.08-.11-.18-.16-.31-.16h-.38s-.02,0-.02.02"
    style="fill: #00243c;" />
  <path
    d="M118.34,75.61l-.1-.57s0-.01,0-.01c0,0,0,0-.02,0h-.75s-.01,0-.01,0c0,0,0,0,0,.01l-.11.57s-.02.04-.05.04h-.21s-.02,0-.03-.01c0,0,0-.02,0-.04l.63-3.14s.02-.04.05-.04h.25s.04.01.05.04l.63,3.14h0s-.01.05-.04.05h-.22s-.04-.01-.05-.04M117.51,74.75h.65s.01,0,.01-.02l-.33-1.78s0-.01,0-.01c0,0,0,0,0,.01l-.33,1.78s0,.02.01.02"
    style="fill: #00243c;" />
  <path
    d="M120.02,72.46v.19s-.01.05-.04.05h-.55s-.02,0-.02.02v2.88s-.01.05-.04.05h-.21s-.04-.02-.04-.05v-2.88s0-.02-.02-.02h-.52s-.04-.02-.04-.05v-.19s.01-.05.04-.05h1.39s.04.02.04.05"
    style="fill: #00243c;" />
  <path
    d="M121.62,72.7h-.96s-.02,0-.02.02v1.15s0,.02.02.02h.61s.04.02.04.05v.2s-.01.05-.04.05h-.61s-.02,0-.02.02v1.15s0,.02.02.02h.96s.04.02.04.05v.19s-.01.05-.04.05h-1.23s-.04-.02-.04-.05v-3.14s.01-.05.04-.05h1.23s.04.01.04.05v.19s-.01.05-.04.05"
    style="fill: #00243c;" />
  <path
    d="M124.03,72.46v.19s-.01.05-.04.05h-.55s-.02,0-.02.02v2.88s-.01.05-.04.05h-.21s-.04-.02-.04-.05v-2.88s0-.02-.02-.02h-.52s-.04-.02-.04-.05v-.19s.01-.05.04-.05h1.39s.04.02.04.05"
    style="fill: #00243c;" />
  <path
    d="M125.46,72.42h.21s.04.02.04.05v3.14s-.01.05-.04.05h-.21s-.04-.02-.04-.05v-1.41s0-.02-.02-.02h-.74s-.02,0-.02.02v1.41s-.01.05-.04.05h-.21s-.04-.02-.04-.05v-3.14s.01-.05.04-.05h.21s.04.02.04.05v1.4s0,.02.02.02h.74s.02,0,.02-.02v-1.4s.01-.05.04-.05"
    style="fill: #00243c;" />
  <path
    d="M127.44,72.7h-.96s-.02,0-.02.02v1.15s0,.02.02.02h.61s.04.02.04.05v.2s-.01.05-.04.05h-.61s-.02,0-.02.02v1.15s0,.02.02.02h.96s.04.02.04.05v.19s-.01.05-.04.05h-1.23s-.04-.02-.04-.05v-3.14s.01-.05.04-.05h1.23s.04.01.04.05v.19s-.01.05-.04.05"
    style="fill: #00243c;" />
  <path
    d="M128.9,75.61l-.55-3.14h0s.01-.05.04-.05h.22s.04.01.04.04l.39,2.43s0,0,0,0,0,0,0,0l.34-2.43s.02-.04.04-.04h.19s.04.01.04.04l.35,2.43s0,0,0,0c0,0,0,0,0,0l.36-2.43s.02-.04.04-.04h.22s.02,0,.03.01c0,0,0,.02,0,.04l-.51,3.14s-.02.04-.05.04h-.2s-.04-.01-.04-.04l-.35-2.44s0,0-.01,0c0,0,0,0,0,0l-.34,2.44s-.02.04-.04.04h-.2s-.04-.01-.05-.04"
    style="fill: #00243c;" />
  <path
    d="M131.94,75.61l-.1-.57s0-.01,0-.01c0,0,0,0-.02,0h-.75s-.01,0-.01,0c0,0,0,0,0,.01l-.11.57s-.02.04-.05.04h-.21s-.03,0-.03-.01c0,0,0-.02,0-.04l.63-3.14s.02-.04.05-.04h.25s.04.01.04.04l.63,3.14h0s-.01.05-.04.05h-.21s-.04-.01-.05-.04M131.11,74.75h.65s.01,0,.01-.02l-.33-1.78s0-.01,0-.01c0,0,0,0,0,.01l-.33,1.78s0,.02.01.02"
    style="fill: #00243c;" />
  <path
    d="M132.58,75.46c-.13-.15-.19-.35-.19-.59v-.11s.01-.05.04-.05h.21s.04.02.04.05v.1c0,.16.04.29.11.4.08.1.17.15.29.15s.21-.05.29-.14c.08-.1.12-.22.12-.38,0-.1-.02-.19-.06-.27-.04-.07-.09-.14-.15-.2-.06-.06-.16-.14-.3-.26-.14-.11-.25-.21-.33-.29-.08-.08-.15-.18-.2-.29-.05-.11-.08-.25-.08-.4,0-.24.06-.43.19-.57.12-.14.29-.21.49-.21.21,0,.38.08.51.23.13.15.19.35.19.61v.12s-.01.05-.04.05h-.21s-.04-.02-.04-.05v-.12c0-.16-.04-.29-.11-.39-.07-.1-.17-.15-.29-.15-.11,0-.2.04-.27.13-.07.09-.11.21-.11.37,0,.1.02.18.05.25.03.07.08.14.14.21.06.07.16.15.28.25.17.14.29.25.37.33.08.09.15.18.19.28.04.1.07.22.07.36,0,.25-.07.46-.2.61-.13.15-.3.23-.5.23s-.37-.08-.5-.23"
    style="fill: #00243c;" />
  <path
    d="M135.38,72.46v.19s-.01.05-.04.05h-.55s-.02,0-.02.02v2.88s-.01.05-.04.05h-.21s-.04-.02-.04-.05v-2.88s0-.02-.02-.02h-.52s-.04-.02-.04-.05v-.19s.01-.05.04-.05h1.39s.04.02.04.05"
    style="fill: #00243c;" />
  <path
    d="M136.98,72.7h-.96s-.02,0-.02.02v1.15s0,.02.02.02h.61s.04.02.04.05v.2s-.01.05-.04.05h-.61s-.02,0-.02.02v1.15s0,.02.02.02h.96s.04.02.04.05v.19s-.02.05-.04.05h-1.23s-.04-.02-.04-.05v-3.14s.01-.05.04-.05h1.23s.04.01.04.05v.19s-.02.05-.04.05"
    style="fill: #00243c;" />
  <rect x="108.67" y="41.67" width="28.35" height="28.35" style="fill: #fdb927;" />
  <path
    d="M108.67,42.53h.86v-.86h-.86v.86ZM109.53,42.53h.86v-.86h-.86v.86ZM110.39,42.53h.86v-.86h-.86v.86ZM111.25,42.53h.86v-.86h-.86v.86ZM112.11,42.53h.86v-.86h-.86v.86ZM112.97,42.53h.86v-.86h-.86v.86ZM113.82,42.53h.86v-.86h-.86v.86Z"
    style="fill: #00243c;" />
  <rect x="114.68" y="41.67" width=".86" height=".86" style="fill: #fdb927;" />
  <rect x="115.54" y="41.67" width=".86" height=".86" style="fill: #00243c;" />
  <rect x="116.4" y="41.67" width=".86" height=".86" style="fill: #fdb927;" />
  <rect x="117.26" y="41.67" width=".86" height=".86" style="fill: #00243c;" />
  <rect x="118.12" y="41.67" width=".86" height=".86" style="fill: #fdb927;" />
  <rect x="118.98" y="41.67" width=".86" height=".86" style="fill: #00243c;" />
  <rect x="119.84" y="41.67" width=".86" height=".86" style="fill: #fdb927;" />
  <rect x="120.7" y="41.67" width=".86" height=".86" style="fill: #00243c;" />
  <path d="M121.56,42.53h.86v-.86h-.86v.86ZM122.42,42.53h.86v-.86h-.86v.86Z" style="fill: #fdb927;" />
  <path d="M123.27,42.53h.86v-.86h-.86v.86ZM124.13,42.53h.86v-.86h-.86v.86ZM124.99,42.53h.86v-.86h-.86v.86Z"
    style="fill: #00243c;" />
  <rect x="125.85" y="41.67" width=".86" height=".86" style="fill: #fdb927;" />
  <rect x="126.71" y="41.67" width=".86" height=".86" style="fill: #00243c;" />
  <rect x="127.57" y="41.67" width=".86" height=".86" style="fill: #fdb927;" />
  <path d="M128.43,42.53h.86v-.86h-.86v.86ZM129.29,42.53h.86v-.86h-.86v.86Z" style="fill: #00243c;" />
  <rect x="130.15" y="41.67" width=".86" height=".86" style="fill: #fdb927;" />
  <path
    d="M108.67,43.39h.86v-.86h-.86v.86ZM131,42.53h.86v-.86h-.86v.86ZM131.86,42.53h.86v-.86h-.86v.86ZM132.72,42.53h.86v-.86h-.86v.86ZM133.58,42.53h.86v-.86h-.86v.86ZM134.44,42.53h.86v-.86h-.86v.86ZM135.3,42.53h.86v-.86h-.86v.86ZM136.16,42.53h.86v-.86h-.86v.86Z"
    style="fill: #00243c;" />
  <path
    d="M109.53,43.39h.86v-.86h-.86v.86ZM110.39,43.39h.86v-.86h-.86v.86ZM111.25,43.39h.86v-.86h-.86v.86ZM112.11,43.39h.86v-.86h-.86v.86ZM112.97,43.39h.86v-.86h-.86v.86Z"
    style="fill: #fdb927;" />
  <rect x="113.82" y="42.53" width=".86" height=".86" style="fill: #00243c;" />
  <rect x="114.68" y="42.53" width=".86" height=".86" style="fill: #fdb927;" />
  <rect x="115.54" y="42.53" width=".86" height=".86" style="fill: #00243c;" />
  <rect x="116.4" y="42.53" width=".86" height=".86" style="fill: #fdb927;" />
  <path d="M117.26,43.39h.86v-.86h-.86v.86ZM118.12,43.39h.86v-.86h-.86v.86Z" style="fill: #00243c;" />
  <path d="M118.98,43.39h.86v-.86h-.86v.86ZM119.84,43.39h.86v-.86h-.86v.86ZM120.7,43.39h.86v-.86h-.86v.86Z"
    style="fill: #fdb927;" />
  <path d="M121.56,43.39h.86v-.86h-.86v.86ZM122.42,43.39h.86v-.86h-.86v.86ZM123.27,43.39h.86v-.86h-.86v.86Z"
    style="fill: #00243c;" />
  <rect x="124.13" y="42.53" width=".86" height=".86" style="fill: #fdb927;" />
  <rect x="124.99" y="42.53" width=".86" height=".86" style="fill: #00243c;" />
  <path
    d="M125.85,43.39h.86v-.86h-.86v.86ZM126.71,43.39h.86v-.86h-.86v.86ZM127.57,43.39h.86v-.86h-.86v.86ZM128.43,43.39h.86v-.86h-.86v.86Z"
    style="fill: #fdb927;" />
  <rect x="129.29" y="42.53" width=".86" height=".86" style="fill: #00243c;" />
  <rect x="130.15" y="42.53" width=".86" height=".86" style="fill: #fdb927;" />
  <rect x="131" y="42.53" width=".86" height=".86" style="fill: #00243c;" />
  <path
    d="M131.86,43.39h.86v-.86h-.86v.86ZM132.72,43.39h.86v-.86h-.86v.86ZM133.58,43.39h.86v-.86h-.86v.86ZM134.44,43.39h.86v-.86h-.86v.86ZM135.3,43.39h.86v-.86h-.86v.86Z"
    style="fill: #fdb927;" />
  <path d="M108.67,44.25h.86v-.86h-.86v.86ZM136.16,43.39h.86v-.86h-.86v.86Z" style="fill: #00243c;" />
  <rect x="109.53" y="43.39" width=".86" height=".86" style="fill: #fdb927;" />
  <path d="M110.39,44.25h.86v-.86h-.86v.86ZM111.25,44.25h.86v-.86h-.86v.86ZM112.11,44.25h.86v-.86h-.86v.86Z"
    style="fill: #00243c;" />
  <rect x="112.97" y="43.39" width=".86" height=".86" style="fill: #fdb927;" />
  <rect x="113.82" y="43.39" width=".86" height=".86" style="fill: #00243c;" />
  <rect x="114.68" y="43.39" width=".86" height=".86" style="fill: #fdb927;" />
  <rect x="115.54" y="43.39" width=".86" height=".86" style="fill: #00243c;" />
  <rect x="116.4" y="43.39" width=".86" height=".86" style="fill: #fdb927;" />
  <rect x="117.26" y="43.39" width=".86" height=".86" style="fill: #00243c;" />
  <rect x="118.12" y="43.39" width=".86" height=".86" style="fill: #fdb927;" />
  <path d="M118.98,44.25h.86v-.86h-.86v.86ZM119.84,44.25h.86v-.86h-.86v.86ZM120.7,44.25h.86v-.86h-.86v.86Z"
    style="fill: #00243c;" />
  <path d="M121.56,44.25h.86v-.86h-.86v.86ZM122.42,44.25h.86v-.86h-.86v.86Z" style="fill: #fdb927;" />
  <rect x="123.27" y="43.39" width=".86" height=".86" style="fill: #00243c;" />
  <path d="M124.13,44.25h.86v-.86h-.86v.86ZM124.99,44.25h.86v-.86h-.86v.86Z" style="fill: #fdb927;" />
  <path
    d="M125.85,44.25h.86v-.86h-.86v.86ZM126.71,44.25h.86v-.86h-.86v.86ZM127.57,44.25h.86v-.86h-.86v.86ZM128.43,44.25h.86v-.86h-.86v.86ZM129.29,44.25h.86v-.86h-.86v.86Z"
    style="fill: #00243c;" />
  <rect x="130.15" y="43.39" width=".86" height=".86" style="fill: #fdb927;" />
  <rect x="131" y="43.39" width=".86" height=".86" style="fill: #00243c;" />
  <rect x="131.86" y="43.39" width=".86" height=".86" style="fill: #fdb927;" />
  <path d="M132.72,44.25h.86v-.86h-.86v.86ZM133.58,44.25h.86v-.86h-.86v.86ZM134.44,44.25h.86v-.86h-.86v.86Z"
    style="fill: #00243c;" />
  <rect x="135.3" y="43.39" width=".86" height=".86" style="fill: #fdb927;" />
  <path d="M108.67,45.11h.86v-.86h-.86v.86ZM136.16,44.25h.86v-.86h-.86v.86Z" style="fill: #00243c;" />
  <rect x="109.53" y="44.25" width=".86" height=".86" style="fill: #fdb927;" />
  <path d="M110.39,45.11h.86v-.86h-.86v.86ZM111.25,45.11h.86v-.86h-.86v.86ZM112.11,45.11h.86v-.86h-.86v.86Z"
    style="fill: #00243c;" />
  <rect x="112.97" y="44.25" width=".86" height=".86" style="fill: #fdb927;" />
  <rect x="113.82" y="44.25" width=".86" height=".86" style="fill: #00243c;" />
  <path d="M114.68,45.11h.86v-.86h-.86v.86ZM115.54,45.11h.86v-.86h-.86v.86Z" style="fill: #fdb927;" />
  <rect x="116.4" y="44.25" width=".86" height=".86" style="fill: #00243c;" />
  <path d="M117.26,45.11h.86v-.86h-.86v.86ZM118.12,45.11h.86v-.86h-.86v.86Z" style="fill: #fdb927;" />
  <path d="M118.98,45.11h.86v-.86h-.86v.86ZM119.84,45.11h.86v-.86h-.86v.86ZM120.7,45.11h.86v-.86h-.86v.86Z"
    style="fill: #00243c;" />
  <rect x="121.56" y="44.25" width=".86" height=".86" style="fill: #fdb927;" />
  <rect x="122.42" y="44.25" width=".86" height=".86" style="fill: #00243c;" />
  <rect x="123.27" y="44.25" width=".86" height=".86" style="fill: #fdb927;" />
  <path d="M124.13,45.11h.86v-.86h-.86v.86ZM124.99,45.11h.86v-.86h-.86v.86Z" style="fill: #00243c;" />
  <path d="M125.85,45.11h.86v-.86h-.86v.86ZM126.71,45.11h.86v-.86h-.86v.86Z" style="fill: #fdb927;" />
  <path d="M127.57,45.11h.86v-.86h-.86v.86ZM128.43,45.11h.86v-.86h-.86v.86ZM129.29,45.11h.86v-.86h-.86v.86Z"
    style="fill: #00243c;" />
  <rect x="130.15" y="44.25" width=".86" height=".86" style="fill: #fdb927;" />
  <rect x="131" y="44.25" width=".86" height=".86" style="fill: #00243c;" />
  <rect x="131.86" y="44.25" width=".86" height=".86" style="fill: #fdb927;" />
  <path d="M132.72,45.11h.86v-.86h-.86v.86ZM133.58,45.11h.86v-.86h-.86v.86ZM134.44,45.11h.86v-.86h-.86v.86Z"
    style="fill: #00243c;" />
  <rect x="135.3" y="44.25" width=".86" height=".86" style="fill: #fdb927;" />
  <path d="M108.67,45.97h.86v-.86h-.86v.86ZM136.16,45.11h.86v-.86h-.86v.86Z" style="fill: #00243c;" />
  <rect x="109.53" y="45.11" width=".86" height=".86" style="fill: #fdb927;" />
  <path d="M110.39,45.97h.86v-.86h-.86v.86ZM111.25,45.97h.86v-.86h-.86v.86ZM112.11,45.97h.86v-.86h-.86v.86Z"
    style="fill: #00243c;" />
  <rect x="112.97" y="45.11" width=".86" height=".86" style="fill: #fdb927;" />
  <rect x="113.82" y="45.11" width=".86" height=".86" style="fill: #00243c;" />
  <path d="M114.68,45.97h.86v-.86h-.86v.86ZM115.54,45.97h.86v-.86h-.86v.86Z" style="fill: #fdb927;" />
  <rect x="116.4" y="45.11" width=".86" height=".86" style="fill: #00243c;" />
  <rect x="117.26" y="45.11" width=".86" height=".86" style="fill: #fdb927;" />
  <rect x="118.12" y="45.11" width=".86" height=".86" style="fill: #00243c;" />
  <path d="M118.98,45.97h.86v-.86h-.86v.86ZM119.84,45.97h.86v-.86h-.86v.86Z" style="fill: #fdb927;" />
  <path
    d="M120.7,45.97h.86v-.86h-.86v.86ZM121.56,45.97h.86v-.86h-.86v.86ZM122.42,45.97h.86v-.86h-.86v.86ZM123.27,45.97h.86v-.86h-.86v.86Z"
    style="fill: #00243c;" />
  <path d="M124.13,45.97h.86v-.86h-.86v.86ZM124.99,45.97h.86v-.86h-.86v.86Z" style="fill: #fdb927;" />
  <rect x="125.85" y="45.11" width=".86" height=".86" style="fill: #00243c;" />
  <rect x="126.71" y="45.11" width=".86" height=".86" style="fill: #fdb927;" />
  <path d="M127.57,45.97h.86v-.86h-.86v.86ZM128.43,45.97h.86v-.86h-.86v.86Z" style="fill: #00243c;" />
  <polygon points="130.15 45.11 129.29 45.11 129.29 45.97 130.15 45.97 131 45.97 131 45.11 130.15 45.11"
    style="fill: #fdb927;" />
  <rect x="131" y="45.11" width=".86" height=".86" style="fill: #00243c;" />
  <rect x="131.86" y="45.11" width=".86" height=".86" style="fill: #fdb927;" />
  <path d="M132.72,45.97h.86v-.86h-.86v.86ZM133.58,45.97h.86v-.86h-.86v.86ZM134.44,45.97h.86v-.86h-.86v.86Z"
    style="fill: #00243c;" />
  <rect x="135.3" y="45.11" width=".86" height=".86" style="fill: #fdb927;" />
  <path d="M108.67,46.83h.86v-.86h-.86v.86ZM136.16,45.97h.86v-.86h-.86v.86Z" style="fill: #00243c;" />
  <path
    d="M109.53,46.83h.86v-.86h-.86v.86ZM110.39,46.83h.86v-.86h-.86v.86ZM111.25,46.83h.86v-.86h-.86v.86ZM112.11,46.83h.86v-.86h-.86v.86ZM112.97,46.83h.86v-.86h-.86v.86Z"
    style="fill: #fdb927;" />
  <rect x="113.82" y="45.97" width=".86" height=".86" style="fill: #00243c;" />
  <rect x="114.68" y="45.97" width=".86" height=".86" style="fill: #fdb927;" />
  <rect x="115.54" y="45.97" width=".86" height=".86" style="fill: #00243c;" />
  <path
    d="M116.4,46.83h.86v-.86h-.86v.86ZM117.26,46.83h.86v-.86h-.86v.86ZM118.12,46.83h.86v-.86h-.86v.86ZM118.98,46.83h.86v-.86h-.86v.86Z"
    style="fill: #fdb927;" />
  <rect x="119.84" y="45.97" width=".86" height=".86" style="fill: #00243c;" />
  <path
    d="M120.7,46.83h.86v-.86h-.86v.86ZM121.56,46.83h.86v-.86h-.86v.86ZM122.42,46.83h.86v-.86h-.86v.86ZM123.27,46.83h.86v-.86h-.86v.86Z"
    style="fill: #fdb927;" />
  <path d="M124.13,46.83h.86v-.86h-.86v.86ZM124.99,46.83h.86v-.86h-.86v.86ZM125.85,46.83h.86v-.86h-.86v.86Z"
    style="fill: #00243c;" />
  <rect x="126.71" y="45.97" width=".86" height=".86" style="fill: #fdb927;" />
  <rect x="127.57" y="45.97" width=".86" height=".86" style="fill: #00243c;" />
  <rect x="128.43" y="45.97" width=".86" height=".86" style="fill: #fdb927;" />
  <rect x="129.29" y="45.97" width=".86" height=".86" style="fill: #00243c;" />
  <rect x="130.15" y="45.97" width=".86" height=".86" style="fill: #fdb927;" />
  <rect x="131" y="45.97" width=".86" height=".86" style="fill: #00243c;" />
  <path
    d="M131.86,46.83h.86v-.86h-.86v.86ZM132.72,46.83h.86v-.86h-.86v.86ZM133.58,46.83h.86v-.86h-.86v.86ZM134.44,46.83h.86v-.86h-.86v.86ZM135.3,46.83h.86v-.86h-.86v.86Z"
    style="fill: #fdb927;" />
  <path
    d="M108.67,47.68h.86v-.86h-.86v.86ZM109.53,47.68h.86v-.86h-.86v.86ZM110.39,47.68h.86v-.86h-.86v.86ZM111.25,47.68h.86v-.86h-.86v.86ZM112.11,47.68h.86v-.86h-.86v.86ZM112.97,47.68h.86v-.86h-.86v.86ZM113.82,47.68h.86v-.86h-.86v.86ZM136.16,46.83h.86v-.86h-.86v.86Z"
    style="fill: #00243c;" />
  <rect x="114.68" y="46.83" width=".86" height=".86" style="fill: #fdb927;" />
  <rect x="115.54" y="46.83" width=".86" height=".86" style="fill: #00243c;" />
  <rect x="116.4" y="46.83" width=".86" height=".86" style="fill: #fdb927;" />
  <rect x="117.26" y="46.83" width=".86" height=".86" style="fill: #00243c;" />
  <rect x="118.12" y="46.83" width=".86" height=".86" style="fill: #fdb927;" />
  <rect x="118.98" y="46.83" width=".86" height=".86" style="fill: #00243c;" />
  <rect x="119.84" y="46.83" width=".86" height=".86" style="fill: #fdb927;" />
  <rect x="120.7" y="46.83" width=".86" height=".86" style="fill: #00243c;" />
  <rect x="121.56" y="46.83" width=".86" height=".86" style="fill: #fdb927;" />
  <rect x="122.42" y="46.83" width=".86" height=".86" style="fill: #00243c;" />
  <rect x="123.27" y="46.83" width=".86" height=".86" style="fill: #fdb927;" />
  <rect x="124.13" y="46.83" width=".86" height=".86" style="fill: #00243c;" />
  <rect x="124.99" y="46.83" width=".86" height=".86" style="fill: #fdb927;" />
  <rect x="125.85" y="46.83" width=".86" height=".86" style="fill: #00243c;" />
  <rect x="126.71" y="46.83" width=".86" height=".86" style="fill: #fdb927;" />
  <rect x="127.57" y="46.83" width=".86" height=".86" style="fill: #00243c;" />
  <rect x="128.43" y="46.83" width=".86" height=".86" style="fill: #fdb927;" />
  <rect x="129.29" y="46.83" width=".86" height=".86" style="fill: #00243c;" />
  <rect x="130.15" y="46.83" width=".86" height=".86" style="fill: #fdb927;" />
  <path
    d="M131,47.68h.86v-.86h-.86v.86ZM131.86,47.68h.86v-.86h-.86v.86ZM132.72,47.68h.86v-.86h-.86v.86ZM133.58,47.68h.86v-.86h-.86v.86ZM134.44,47.68h.86v-.86h-.86v.86ZM135.3,47.68h.86v-.86h-.86v.86ZM136.16,47.68h.86v-.86h-.86v.86Z"
    style="fill: #00243c;" />
  <path
    d="M108.67,48.54h.86v-.86h-.86v.86ZM109.53,48.54h.86v-.86h-.86v.86ZM110.39,48.54h.86v-.86h-.86v.86ZM111.25,48.54h.86v-.86h-.86v.86ZM112.11,48.54h.86v-.86h-.86v.86ZM112.97,48.54h.86v-.86h-.86v.86ZM113.82,48.54h.86v-.86h-.86v.86ZM114.68,48.54h.86v-.86h-.86v.86Z"
    style="fill: #fdb927;" />
  <rect x="115.54" y="47.68" width=".86" height=".86" style="fill: #00243c;" />
  <rect x="116.4" y="47.68" width=".86" height=".86" style="fill: #fdb927;" />
  <path d="M117.26,48.54h.86v-.86h-.86v.86ZM118.12,48.54h.86v-.86h-.86v.86Z" style="fill: #00243c;" />
  <rect x="118.98" y="47.68" width=".86" height=".86" style="fill: #fdb927;" />
  <path d="M119.84,48.54h.86v-.86h-.86v.86ZM120.7,48.54h.86v-.86h-.86v.86ZM121.56,48.54h.86v-.86h-.86v.86Z"
    style="fill: #00243c;" />
  <path
    d="M122.42,48.54h.86v-.86h-.86v.86ZM123.27,48.54h.86v-.86h-.86v.86ZM124.13,48.54h.86v-.86h-.86v.86ZM124.99,48.54h.86v-.86h-.86v.86Z"
    style="fill: #fdb927;" />
  <path
    d="M125.85,48.54h.86v-.86h-.86v.86ZM126.71,48.54h.86v-.86h-.86v.86ZM127.57,48.54h.86v-.86h-.86v.86ZM128.43,48.54h.86v-.86h-.86v.86Z"
    style="fill: #00243c;" />
  <path
    d="M108.67,49.4h.86v-.86h-.86v.86ZM109.53,49.4h.86v-.86h-.86v.86ZM130.15,47.68h-.86v.86h1.72v-.86h-.86ZM131,48.54h.86v-.86h-.86v.86ZM131.86,48.54h.86v-.86h-.86v.86ZM132.72,48.54h.86v-.86h-.86v.86ZM133.58,48.54h.86v-.86h-.86v.86ZM134.44,48.54h.86v-.86h-.86v.86ZM135.3,48.54h.86v-.86h-.86v.86ZM136.16,48.54h.86v-.86h-.86v.86Z"
    style="fill: #fdb927;" />
  <path d="M110.39,49.4h.86v-.86h-.86v.86ZM111.25,49.4h.86v-.86h-.86v.86ZM112.11,49.4h.86v-.86h-.86v.86Z"
    style="fill: #00243c;" />
  <rect x="112.97" y="48.54" width=".86" height=".86" style="fill: #fdb927;" />
  <rect x="113.82" y="48.54" width=".86" height=".86" style="fill: #00243c;" />
  <rect x="114.68" y="48.54" width=".86" height=".86" style="fill: #fdb927;" />
  <path d="M115.54,49.4h.86v-.86h-.86v.86ZM116.4,49.4h.86v-.86h-.86v.86Z" style="fill: #00243c;" />
  <rect x="117.26" y="48.54" width=".86" height=".86" style="fill: #fdb927;" />
  <rect x="118.12" y="48.54" width=".86" height=".86" style="fill: #00243c;" />
  <path d="M118.98,49.4h.86v-.86h-.86v.86ZM119.84,49.4h.86v-.86h-.86v.86Z" style="fill: #fdb927;" />
  <path
    d="M120.7,49.4h.86v-.86h-.86v.86ZM121.56,49.4h.86v-.86h-.86v.86ZM122.42,49.4h.86v-.86h-.86v.86ZM123.27,49.4h.86v-.86h-.86v.86Z"
    style="fill: #00243c;" />
  <path d="M124.13,49.4h.86v-.86h-.86v.86ZM124.99,49.4h.86v-.86h-.86v.86Z" style="fill: #fdb927;" />
  <rect x="125.85" y="48.54" width=".86" height=".86" style="fill: #00243c;" />
  <rect x="126.71" y="48.54" width=".86" height=".86" style="fill: #fdb927;" />
  <path
    d="M127.57,49.4h.86v-.86h-.86v.86ZM128.43,49.4h.86v-.86h-.86v.86ZM130.15,48.54h-.86v.86h1.72v-.86h-.86ZM131,49.4h.86v-.86h-.86v.86ZM131.86,49.4h.86v-.86h-.86v.86Z"
    style="fill: #00243c;" />
  <path d="M132.72,49.4h.86v-.86h-.86v.86ZM133.58,49.4h.86v-.86h-.86v.86Z" style="fill: #fdb927;" />
  <path
    d="M108.67,50.26h.86v-.86h-.86v.86ZM109.53,50.26h.86v-.86h-.86v.86ZM134.44,49.4h.86v-.86h-.86v.86ZM135.3,49.4h.86v-.86h-.86v.86ZM136.16,49.4h.86v-.86h-.86v.86Z"
    style="fill: #00243c;" />
  <rect x="110.39" y="49.4" width=".86" height=".86" style="fill: #fdb927;" />
  <path d="M111.25,50.26h.86v-.86h-.86v.86ZM112.11,50.26h.86v-.86h-.86v.86Z" style="fill: #00243c;" />
  <path d="M112.97,50.26h.86v-.86h-.86v.86ZM113.82,50.26h.86v-.86h-.86v.86Z" style="fill: #fdb927;" />
  <path d="M114.68,50.26h.86v-.86h-.86v.86ZM115.54,50.26h.86v-.86h-.86v.86ZM116.4,50.26h.86v-.86h-.86v.86Z"
    style="fill: #00243c;" />
  <rect x="117.26" y="49.4" width=".86" height=".86" style="fill: #fdb927;" />
  <rect x="118.12" y="49.4" width=".86" height=".86" style="fill: #00243c;" />
  <path d="M118.98,50.26h.86v-.86h-.86v.86ZM119.84,50.26h.86v-.86h-.86v.86Z" style="fill: #fdb927;" />
  <rect x="120.7" y="49.4" width=".86" height=".86" style="fill: #00243c;" />
  <path d="M121.56,50.26h.86v-.86h-.86v.86ZM122.42,50.26h.86v-.86h-.86v.86ZM123.27,50.26h.86v-.86h-.86v.86Z"
    style="fill: #fdb927;" />
  <rect x="124.13" y="49.4" width=".86" height=".86" style="fill: #00243c;" />
  <path d="M124.99,50.26h.86v-.86h-.86v.86ZM125.85,50.26h.86v-.86h-.86v.86Z" style="fill: #fdb927;" />
  <path
    d="M126.71,50.26h.86v-.86h-.86v.86ZM127.57,50.26h.86v-.86h-.86v.86ZM128.43,50.26h.86v-.86h-.86v.86ZM130.15,49.4h-.86v.86h1.72v-.86h-.86ZM131,50.26h.86v-.86h-.86v.86Z"
    style="fill: #00243c;" />
  <path d="M131.86,50.26h.86v-.86h-.86v.86ZM132.72,50.26h.86v-.86h-.86v.86Z" style="fill: #fdb927;" />
  <rect x="133.58" y="49.4" width=".86" height=".86" style="fill: #00243c;" />
  <path d="M134.44,50.26h.86v-.86h-.86v.86ZM135.3,50.26h.86v-.86h-.86v.86Z" style="fill: #fdb927;" />
  <path
    d="M108.67,51.12h.86v-.86h-.86v.86ZM109.53,51.12h.86v-.86h-.86v.86ZM110.39,51.12h.86v-.86h-.86v.86ZM111.25,51.12h.86v-.86h-.86v.86ZM112.11,51.12h.86v-.86h-.86v.86ZM112.97,51.12h.86v-.86h-.86v.86ZM113.82,51.12h.86v-.86h-.86v.86ZM136.16,50.26h.86v-.86h-.86v.86Z"
    style="fill: #00243c;" />
  <path
    d="M114.68,51.12h.86v-.86h-.86v.86ZM115.54,51.12h.86v-.86h-.86v.86ZM116.4,51.12h.86v-.86h-.86v.86ZM117.26,51.12h.86v-.86h-.86v.86ZM118.12,51.12h.86v-.86h-.86v.86Z"
    style="fill: #fdb927;" />
  <path d="M118.98,51.12h.86v-.86h-.86v.86ZM119.84,51.12h.86v-.86h-.86v.86Z" style="fill: #00243c;" />
  <path d="M120.7,51.12h.86v-.86h-.86v.86ZM121.56,51.12h.86v-.86h-.86v.86Z" style="fill: #fdb927;" />
  <path
    d="M122.42,51.12h.86v-.86h-.86v.86ZM123.27,51.12h.86v-.86h-.86v.86ZM124.13,51.12h.86v-.86h-.86v.86ZM124.99,51.12h.86v-.86h-.86v.86Z"
    style="fill: #00243c;" />
  <path d="M125.85,51.12h.86v-.86h-.86v.86ZM126.71,51.12h.86v-.86h-.86v.86Z" style="fill: #fdb927;" />
  <rect x="127.57" y="50.26" width=".86" height=".86" style="fill: #00243c;" />
  <rect x="128.43" y="50.26" width=".86" height=".86" style="fill: #fdb927;" />
  <rect x="129.29" y="50.26" width=".86" height=".86" style="fill: #00243c;" />
  <rect x="130.15" y="50.26" width=".86" height=".86" style="fill: #fdb927;" />
  <path d="M131,51.12h.86v-.86h-.86v.86ZM131.86,51.12h.86v-.86h-.86v.86Z" style="fill: #00243c;" />
  <rect x="132.72" y="50.26" width=".86" height=".86" style="fill: #fdb927;" />
  <rect x="133.58" y="50.26" width=".86" height=".86" style="fill: #00243c;" />
  <rect x="134.44" y="50.26" width=".86" height=".86" style="fill: #fdb927;" />
  <rect x="135.3" y="50.26" width=".86" height=".86" style="fill: #00243c;" />
  <path d="M108.67,51.98h.86v-.86h-.86v.86ZM136.16,51.12h.86v-.86h-.86v.86Z" style="fill: #fdb927;" />
  <rect x="109.53" y="51.12" width=".86" height=".86" style="fill: #00243c;" />
  <path d="M110.39,51.98h.86v-.86h-.86v.86ZM111.25,51.98h.86v-.86h-.86v.86Z" style="fill: #fdb927;" />
  <rect x="112.11" y="51.12" width=".86" height=".86" style="fill: #00243c;" />
  <path d="M112.97,51.98h.86v-.86h-.86v.86ZM113.82,51.98h.86v-.86h-.86v.86Z" style="fill: #fdb927;" />
  <rect x="114.68" y="51.12" width=".86" height=".86" style="fill: #00243c;" />
  <rect x="115.54" y="51.12" width=".86" height=".86" style="fill: #fdb927;" />
  <rect x="116.4" y="51.12" width=".86" height=".86" style="fill: #00243c;" />
  <path d="M117.26,51.98h.86v-.86h-.86v.86ZM118.12,51.98h.86v-.86h-.86v.86Z" style="fill: #fdb927;" />
  <rect x="118.98" y="51.12" width=".86" height=".86" style="fill: #00243c;" />
  <path d="M119.84,51.98h.86v-.86h-.86v.86ZM120.7,51.98h.86v-.86h-.86v.86ZM121.56,51.98h.86v-.86h-.86v.86Z"
    style="fill: #fdb927;" />
  <path d="M122.42,51.98h.86v-.86h-.86v.86ZM123.27,51.98h.86v-.86h-.86v.86Z" style="fill: #00243c;" />
  <rect x="124.13" y="51.12" width=".86" height=".86" style="fill: #fdb927;" />
  <rect x="124.99" y="51.12" width=".86" height=".86" style="fill: #00243c;" />
  <rect x="125.85" y="51.12" width=".86" height=".86" style="fill: #fdb927;" />
  <path d="M126.71,51.98h.86v-.86h-.86v.86ZM127.57,51.98h.86v-.86h-.86v.86Z" style="fill: #00243c;" />
  <path d="M128.43,51.98h.86v-.86h-.86v.86ZM129.29,51.98h.86v-.86h-.86v.86Z" style="fill: #fdb927;" />
  <rect x="130.15" y="51.12" width=".86" height=".86" style="fill: #00243c;" />
  <path d="M131,51.98h.86v-.86h-.86v.86ZM131.86,51.98h.86v-.86h-.86v.86ZM132.72,51.98h.86v-.86h-.86v.86Z"
    style="fill: #fdb927;" />
  <path d="M133.58,51.98h.86v-.86h-.86v.86ZM134.44,51.98h.86v-.86h-.86v.86Z" style="fill: #00243c;" />
  <rect x="135.3" y="51.12" width=".86" height=".86" style="fill: #fdb927;" />
  <rect x="136.16" y="51.12" width=".86" height=".86" style="fill: #00243c;" />
  <rect x="108.67" y="51.98" width=".86" height=".86" style="fill: #fdb927;" />
  <path d="M109.53,52.84h.86v-.86h-.86v.86ZM110.39,52.84h.86v-.86h-.86v.86ZM111.25,52.84h.86v-.86h-.86v.86Z"
    style="fill: #00243c;" />
  <path d="M112.11,52.84h.86v-.86h-.86v.86ZM112.97,52.84h.86v-.86h-.86v.86Z" style="fill: #fdb927;" />
  <rect x="113.82" y="51.98" width=".86" height=".86" style="fill: #00243c;" />
  <path d="M114.68,52.84h.86v-.86h-.86v.86ZM115.54,52.84h.86v-.86h-.86v.86Z" style="fill: #fdb927;" />
  <rect x="116.4" y="51.98" width=".86" height=".86" style="fill: #00243c;" />
  <path d="M117.26,52.84h.86v-.86h-.86v.86ZM118.12,52.84h.86v-.86h-.86v.86ZM118.98,52.84h.86v-.86h-.86v.86Z"
    style="fill: #fdb927;" />
  <rect x="119.84" y="51.98" width=".86" height=".86" style="fill: #00243c;" />
  <path d="M120.7,52.84h.86v-.86h-.86v.86ZM121.56,52.84h.86v-.86h-.86v.86Z" style="fill: #fdb927;" />
  <path d="M122.42,52.84h.86v-.86h-.86v.86ZM123.27,52.84h.86v-.86h-.86v.86ZM124.13,52.84h.86v-.86h-.86v.86Z"
    style="fill: #00243c;" />
  <rect x="124.99" y="51.98" width=".86" height=".86" style="fill: #fdb927;" />
  <path d="M125.85,52.84h.86v-.86h-.86v.86ZM126.71,52.84h.86v-.86h-.86v.86Z" style="fill: #00243c;" />
  <path d="M127.57,52.84h.86v-.86h-.86v.86ZM128.43,52.84h.86v-.86h-.86v.86Z" style="fill: #fdb927;" />
  <polygon points="130.15 51.98 129.29 51.98 129.29 52.84 130.15 52.84 131 52.84 131 51.98 130.15 51.98"
    style="fill: #00243c;" />
  <rect x="131" y="51.98" width=".86" height=".86" style="fill: #fdb927;" />
  <path d="M131.86,52.84h.86v-.86h-.86v.86ZM132.72,52.84h.86v-.86h-.86v.86ZM133.58,52.84h.86v-.86h-.86v.86Z"
    style="fill: #00243c;" />
  <path d="M134.44,52.84h.86v-.86h-.86v.86ZM135.3,52.84h.86v-.86h-.86v.86ZM136.16,52.84h.86v-.86h-.86v.86Z"
    style="fill: #fdb927;" />
  <rect x="108.67" y="52.84" width=".86" height=".86" style="fill: #00243c;" />
  <rect x="109.53" y="52.84" width=".86" height=".86" style="fill: #fdb927;" />
  <rect x="110.39" y="52.84" width=".86" height=".86" style="fill: #00243c;" />
  <path d="M111.25,53.7h.86v-.86h-.86v.86ZM112.11,53.7h.86v-.86h-.86v.86Z" style="fill: #fdb927;" />
  <rect x="112.97" y="52.84" width=".86" height=".86" style="fill: #00243c;" />
  <path d="M113.82,53.7h.86v-.86h-.86v.86ZM114.68,53.7h.86v-.86h-.86v.86Z" style="fill: #fdb927;" />
  <path
    d="M115.54,53.7h.86v-.86h-.86v.86ZM116.4,53.7h.86v-.86h-.86v.86ZM117.26,53.7h.86v-.86h-.86v.86ZM118.12,53.7h.86v-.86h-.86v.86Z"
    style="fill: #00243c;" />
  <path d="M118.98,53.7h.86v-.86h-.86v.86ZM119.84,53.7h.86v-.86h-.86v.86Z" style="fill: #fdb927;" />
  <rect x="120.7" y="52.84" width=".86" height=".86" style="fill: #00243c;" />
  <path
    d="M121.56,53.7h.86v-.86h-.86v.86ZM122.42,53.7h.86v-.86h-.86v.86ZM123.27,53.7h.86v-.86h-.86v.86ZM124.13,53.7h.86v-.86h-.86v.86ZM124.99,53.7h.86v-.86h-.86v.86Z"
    style="fill: #fdb927;" />
  <rect x="125.85" y="52.84" width=".86" height=".86" style="fill: #00243c;" />
  <path d="M126.71,53.7h.86v-.86h-.86v.86ZM127.57,53.7h.86v-.86h-.86v.86Z" style="fill: #fdb927;" />
  <rect x="128.43" y="52.84" width=".86" height=".86" style="fill: #00243c;" />
  <rect x="129.29" y="52.84" width=".86" height=".86" style="fill: #fdb927;" />
  <path d="M130.15,53.7h.86v-.86h-.86v.86ZM131,53.7h.86v-.86h-.86v.86Z" style="fill: #00243c;" />
  <path d="M131.86,53.7h.86v-.86h-.86v.86ZM132.72,53.7h.86v-.86h-.86v.86ZM133.58,53.7h.86v-.86h-.86v.86Z"
    style="fill: #fdb927;" />
  <rect x="134.44" y="52.84" width=".86" height=".86" style="fill: #00243c;" />
  <rect x="135.3" y="52.84" width=".86" height=".86" style="fill: #fdb927;" />
  <path d="M108.67,54.56h.86v-.86h-.86v.86ZM109.53,54.56h.86v-.86h-.86v.86ZM136.16,53.7h.86v-.86h-.86v.86Z"
    style="fill: #00243c;" />
  <rect x="110.39" y="53.7" width=".86" height=".86" style="fill: #fdb927;" />
  <rect x="111.25" y="53.7" width=".86" height=".86" style="fill: #00243c;" />
  <path d="M112.11,54.56h.86v-.86h-.86v.86ZM112.97,54.56h.86v-.86h-.86v.86Z" style="fill: #fdb927;" />
  <rect x="113.82" y="53.7" width=".86" height=".86" style="fill: #00243c;" />
  <path d="M114.68,54.56h.86v-.86h-.86v.86ZM115.54,54.56h.86v-.86h-.86v.86Z" style="fill: #fdb927;" />
  <rect x="116.4" y="53.7" width=".86" height=".86" style="fill: #00243c;" />
  <rect x="117.26" y="53.7" width=".86" height=".86" style="fill: #fdb927;" />
  <path
    d="M118.12,54.56h.86v-.86h-.86v.86ZM118.98,54.56h.86v-.86h-.86v.86ZM119.84,54.56h.86v-.86h-.86v.86ZM120.7,54.56h.86v-.86h-.86v.86Z"
    style="fill: #00243c;" />
  <path d="M121.56,54.56h.86v-.86h-.86v.86ZM122.42,54.56h.86v-.86h-.86v.86ZM123.27,54.56h.86v-.86h-.86v.86Z"
    style="fill: #fdb927;" />
  <path d="M124.13,54.56h.86v-.86h-.86v.86ZM124.99,54.56h.86v-.86h-.86v.86Z" style="fill: #00243c;" />
  <path d="M125.85,54.56h.86v-.86h-.86v.86ZM126.71,54.56h.86v-.86h-.86v.86Z" style="fill: #fdb927;" />
  <rect x="127.57" y="53.7" width=".86" height=".86" style="fill: #00243c;" />
  <path d="M128.43,54.56h.86v-.86h-.86v.86ZM129.29,54.56h.86v-.86h-.86v.86Z" style="fill: #fdb927;" />
  <path d="M130.15,54.56h.86v-.86h-.86v.86ZM131,54.56h.86v-.86h-.86v.86Z" style="fill: #00243c;" />
  <path d="M131.86,54.56h.86v-.86h-.86v.86ZM132.72,54.56h.86v-.86h-.86v.86Z" style="fill: #fdb927;" />
  <rect x="133.58" y="53.7" width=".86" height=".86" style="fill: #00243c;" />
  <rect x="134.44" y="53.7" width=".86" height=".86" style="fill: #fdb927;" />
  <rect x="135.3" y="53.7" width=".86" height=".86" style="fill: #00243c;" />
  <rect x="136.16" y="53.7" width=".86" height=".86" style="fill: #fdb927;" />
  <rect x="108.67" y="54.56" width=".86" height=".86" style="fill: #00243c;" />
  <rect x="109.53" y="54.56" width=".86" height=".86" style="fill: #fdb927;" />
  <rect x="110.39" y="54.56" width=".86" height=".86" style="fill: #00243c;" />
  <path d="M111.25,55.42h.86v-.86h-.86v.86ZM112.11,55.42h.86v-.86h-.86v.86Z" style="fill: #fdb927;" />
  <rect x="112.97" y="54.56" width=".86" height=".86" style="fill: #00243c;" />
  <path d="M113.82,55.42h.86v-.86h-.86v.86ZM114.68,55.42h.86v-.86h-.86v.86ZM115.54,55.42h.86v-.86h-.86v.86Z"
    style="fill: #fdb927;" />
  <path
    d="M116.4,55.42h.86v-.86h-.86v.86ZM117.26,55.42h.86v-.86h-.86v.86ZM118.12,55.42h.86v-.86h-.86v.86ZM118.98,55.42h.86v-.86h-.86v.86Z"
    style="fill: #00243c;" />
  <rect x="119.84" y="54.56" width=".86" height=".86" style="fill: #fdb927;" />
  <path d="M120.7,55.42h.86v-.86h-.86v.86ZM121.56,55.42h.86v-.86h-.86v.86Z" style="fill: #00243c;" />
  <rect x="122.42" y="54.56" width=".86" height=".86" style="fill: #fdb927;" />
  <path d="M123.27,55.42h.86v-.86h-.86v.86ZM124.13,55.42h.86v-.86h-.86v.86ZM124.99,55.42h.86v-.86h-.86v.86Z"
    style="fill: #00243c;" />
  <rect x="125.85" y="54.56" width=".86" height=".86" style="fill: #fdb927;" />
  <path d="M126.71,55.42h.86v-.86h-.86v.86ZM127.57,55.42h.86v-.86h-.86v.86Z" style="fill: #00243c;" />
  <path d="M128.43,55.42h.86v-.86h-.86v.86ZM130.15,54.56h-.86v.86h1.72v-.86h-.86Z" style="fill: #fdb927;" />
  <path d="M131,55.42h.86v-.86h-.86v.86ZM131.86,55.42h.86v-.86h-.86v.86Z" style="fill: #00243c;" />
  <rect x="132.72" y="54.56" width=".86" height=".86" style="fill: #fdb927;" />
  <path d="M133.58,55.42h.86v-.86h-.86v.86ZM134.44,55.42h.86v-.86h-.86v.86ZM135.3,55.42h.86v-.86h-.86v.86Z"
    style="fill: #00243c;" />
  <path
    d="M108.67,56.27h.86v-.86h-.86v.86ZM109.53,56.27h.86v-.86h-.86v.86ZM110.39,56.27h.86v-.86h-.86v.86ZM136.16,55.42h.86v-.86h-.86v.86Z"
    style="fill: #fdb927;" />
  <path d="M111.25,56.27h.86v-.86h-.86v.86ZM112.11,56.27h.86v-.86h-.86v.86Z" style="fill: #00243c;" />
  <rect x="112.97" y="55.42" width=".86" height=".86" style="fill: #fdb927;" />
  <path d="M113.82,56.27h.86v-.86h-.86v.86ZM114.68,56.27h.86v-.86h-.86v.86ZM115.54,56.27h.86v-.86h-.86v.86Z"
    style="fill: #00243c;" />
  <rect x="116.4" y="55.42" width=".86" height=".86" style="fill: #fdb927;" />
  <rect x="117.26" y="55.42" width=".86" height=".86" style="fill: #00243c;" />
  <path d="M118.12,56.27h.86v-.86h-.86v.86ZM118.98,56.27h.86v-.86h-.86v.86Z" style="fill: #fdb927;" />
  <path d="M119.84,56.27h.86v-.86h-.86v.86ZM120.7,56.27h.86v-.86h-.86v.86Z" style="fill: #00243c;" />
  <rect x="121.56" y="55.42" width=".86" height=".86" style="fill: #fdb927;" />
  <rect x="122.42" y="55.42" width=".86" height=".86" style="fill: #00243c;" />
  <rect x="123.27" y="55.42" width=".86" height=".86" style="fill: #fdb927;" />
  <rect x="124.13" y="55.42" width=".86" height=".86" style="fill: #00243c;" />
  <path
    d="M124.99,56.27h.86v-.86h-.86v.86ZM125.85,56.27h.86v-.86h-.86v.86ZM126.71,56.27h.86v-.86h-.86v.86ZM127.57,56.27h.86v-.86h-.86v.86ZM128.43,56.27h.86v-.86h-.86v.86ZM129.29,56.27h.86v-.86h-.86v.86Z"
    style="fill: #fdb927;" />
  <rect x="130.15" y="55.42" width=".86" height=".86" style="fill: #00243c;" />
  <rect x="131" y="55.42" width=".86" height=".86" style="fill: #fdb927;" />
  <path d="M131.86,56.27h.86v-.86h-.86v.86ZM132.72,56.27h.86v-.86h-.86v.86Z" style="fill: #00243c;" />
  <path
    d="M133.58,56.27h.86v-.86h-.86v.86ZM134.44,56.27h.86v-.86h-.86v.86ZM135.3,56.27h.86v-.86h-.86v.86ZM136.16,56.27h.86v-.86h-.86v.86Z"
    style="fill: #fdb927;" />
  <rect x="108.67" y="56.28" width=".86" height=".86" style="fill: #00243c;" />
  <rect x="109.53" y="56.28" width=".86" height=".86" style="fill: #fdb927;" />
  <path d="M110.39,57.13h.86v-.86h-.86v.86ZM111.25,57.13h.86v-.86h-.86v.86Z" style="fill: #00243c;" />
  <path
    d="M112.11,57.13h.86v-.86h-.86v.86ZM112.97,57.13h.86v-.86h-.86v.86ZM113.82,57.13h.86v-.86h-.86v.86ZM114.68,57.13h.86v-.86h-.86v.86Z"
    style="fill: #fdb927;" />
  <path d="M115.54,57.13h.86v-.86h-.86v.86ZM116.4,57.13h.86v-.86h-.86v.86Z" style="fill: #00243c;" />
  <path
    d="M117.26,57.13h.86v-.86h-.86v.86ZM118.12,57.13h.86v-.86h-.86v.86ZM118.98,57.13h.86v-.86h-.86v.86ZM119.84,57.13h.86v-.86h-.86v.86Z"
    style="fill: #fdb927;" />
  <rect x="120.7" y="56.28" width=".86" height=".86" style="fill: #00243c;" />
  <rect x="121.56" y="56.28" width=".86" height=".86" style="fill: #fdb927;" />
  <path
    d="M122.42,57.13h.86v-.86h-.86v.86ZM123.27,57.13h.86v-.86h-.86v.86ZM124.13,57.13h.86v-.86h-.86v.86ZM124.99,57.13h.86v-.86h-.86v.86Z"
    style="fill: #00243c;" />
  <rect x="125.85" y="56.28" width=".86" height=".86" style="fill: #fdb927;" />
  <rect x="126.71" y="56.28" width=".86" height=".86" style="fill: #00243c;" />
  <rect x="127.57" y="56.28" width=".86" height=".86" style="fill: #fdb927;" />
  <path d="M128.43,57.13h.86v-.86h-.86v.86ZM129.29,57.13h.86v-.86h-.86v.86Z" style="fill: #00243c;" />
  <rect x="130.15" y="56.28" width=".86" height=".86" style="fill: #fdb927;" />
  <path d="M131,57.13h.86v-.86h-.86v.86ZM131.86,57.13h.86v-.86h-.86v.86Z" style="fill: #00243c;" />
  <path
    d="M132.72,57.13h.86v-.86h-.86v.86ZM133.58,57.13h.86v-.86h-.86v.86ZM134.44,57.13h.86v-.86h-.86v.86ZM135.3,57.13h.86v-.86h-.86v.86Z"
    style="fill: #fdb927;" />
  <rect x="136.16" y="56.28" width=".86" height=".86" style="fill: #00243c;" />
  <rect x="108.67" y="57.13" width=".86" height=".86" style="fill: #fdb927;" />
  <path
    d="M109.53,57.99h.86v-.86h-.86v.86ZM110.39,57.99h.86v-.86h-.86v.86ZM111.25,57.99h.86v-.86h-.86v.86ZM112.11,57.99h.86v-.86h-.86v.86Z"
    style="fill: #00243c;" />
  <rect x="112.97" y="57.13" width=".86" height=".86" style="fill: #fdb927;" />
  <path d="M113.82,57.99h.86v-.86h-.86v.86ZM114.68,57.99h.86v-.86h-.86v.86ZM115.54,57.99h.86v-.86h-.86v.86Z"
    style="fill: #00243c;" />
  <rect x="116.4" y="57.13" width=".86" height=".86" style="fill: #fdb927;" />
  <rect x="117.26" y="57.13" width=".86" height=".86" style="fill: #00243c;" />
  <rect x="118.12" y="57.13" width=".86" height=".86" style="fill: #fdb927;" />
  <path d="M118.98,57.99h.86v-.86h-.86v.86ZM119.84,57.99h.86v-.86h-.86v.86Z" style="fill: #00243c;" />
  <rect x="120.7" y="57.13" width=".86" height=".86" style="fill: #fdb927;" />
  <rect x="121.56" y="57.13" width=".86" height=".86" style="fill: #00243c;" />
  <path d="M122.42,57.99h.86v-.86h-.86v.86ZM123.27,57.99h.86v-.86h-.86v.86Z" style="fill: #fdb927;" />
  <rect x="124.13" y="57.13" width=".86" height=".86" style="fill: #00243c;" />
  <rect x="124.99" y="57.13" width=".86" height=".86" style="fill: #fdb927;" />
  <path d="M125.85,57.99h.86v-.86h-.86v.86ZM126.71,57.99h.86v-.86h-.86v.86ZM127.57,57.99h.86v-.86h-.86v.86Z"
    style="fill: #00243c;" />
  <path d="M128.43,57.99h.86v-.86h-.86v.86ZM129.29,57.99h.86v-.86h-.86v.86Z" style="fill: #fdb927;" />
  <rect x="130.15" y="57.13" width=".86" height=".86" style="fill: #00243c;" />
  <path d="M131,57.99h.86v-.86h-.86v.86ZM131.86,57.99h.86v-.86h-.86v.86Z" style="fill: #fdb927;" />
  <rect x="132.72" y="57.13" width=".86" height=".86" style="fill: #00243c;" />
  <rect x="133.58" y="57.13" width=".86" height=".86" style="fill: #fdb927;" />
  <path d="M134.44,57.99h.86v-.86h-.86v.86ZM135.3,57.99h.86v-.86h-.86v.86Z" style="fill: #00243c;" />
  <path d="M108.67,58.85h.86v-.86h-.86v.86ZM109.53,58.85h.86v-.86h-.86v.86ZM136.16,57.99h.86v-.86h-.86v.86Z"
    style="fill: #fdb927;" />
  <rect x="110.39" y="57.99" width=".86" height=".86" style="fill: #00243c;" />
  <rect x="111.25" y="57.99" width=".86" height=".86" style="fill: #fdb927;" />
  <rect x="112.11" y="57.99" width=".86" height=".86" style="fill: #00243c;" />
  <path
    d="M112.97,58.85h.86v-.86h-.86v.86ZM113.82,58.85h.86v-.86h-.86v.86ZM114.68,58.85h.86v-.86h-.86v.86ZM115.54,58.85h.86v-.86h-.86v.86ZM116.4,58.85h.86v-.86h-.86v.86Z"
    style="fill: #fdb927;" />
  <rect x="117.26" y="57.99" width=".86" height=".86" style="fill: #00243c;" />
  <rect x="118.12" y="57.99" width=".86" height=".86" style="fill: #fdb927;" />
  <path d="M118.98,58.85h.86v-.86h-.86v.86ZM119.84,58.85h.86v-.86h-.86v.86Z" style="fill: #00243c;" />
  <path d="M120.7,58.85h.86v-.86h-.86v.86ZM121.56,58.85h.86v-.86h-.86v.86ZM122.42,58.85h.86v-.86h-.86v.86Z"
    style="fill: #fdb927;" />
  <path
    d="M123.27,58.85h.86v-.86h-.86v.86ZM124.13,58.85h.86v-.86h-.86v.86ZM124.99,58.85h.86v-.86h-.86v.86ZM125.85,58.85h.86v-.86h-.86v.86ZM126.71,58.85h.86v-.86h-.86v.86Z"
    style="fill: #00243c;" />
  <rect x="127.57" y="57.99" width=".86" height=".86" style="fill: #fdb927;" />
  <path
    d="M128.43,58.85h.86v-.86h-.86v.86ZM130.15,57.99h-.86v.86h1.72v-.86h-.86ZM131,58.85h.86v-.86h-.86v.86ZM131.86,58.85h.86v-.86h-.86v.86Z"
    style="fill: #00243c;" />
  <rect x="132.72" y="57.99" width=".86" height=".86" style="fill: #fdb927;" />
  <path d="M133.58,58.85h.86v-.86h-.86v.86ZM134.44,58.85h.86v-.86h-.86v.86ZM135.3,58.85h.86v-.86h-.86v.86Z"
    style="fill: #00243c;" />
  <rect x="136.16" y="57.99" width=".86" height=".86" style="fill: #fdb927;" />
  <rect x="108.67" y="58.85" width=".86" height=".86" style="fill: #00243c;" />
  <path d="M109.53,59.71h.86v-.86h-.86v.86ZM110.39,59.71h.86v-.86h-.86v.86ZM111.25,59.71h.86v-.86h-.86v.86Z"
    style="fill: #fdb927;" />
  <path d="M112.11,59.71h.86v-.86h-.86v.86ZM112.97,59.71h.86v-.86h-.86v.86ZM113.82,59.71h.86v-.86h-.86v.86Z"
    style="fill: #00243c;" />
  <rect x="114.68" y="58.85" width=".86" height=".86" style="fill: #fdb927;" />
  <path
    d="M115.54,59.71h.86v-.86h-.86v.86ZM116.4,59.71h.86v-.86h-.86v.86ZM117.26,59.71h.86v-.86h-.86v.86ZM118.12,59.71h.86v-.86h-.86v.86Z"
    style="fill: #00243c;" />
  <path d="M118.98,59.71h.86v-.86h-.86v.86ZM119.84,59.71h.86v-.86h-.86v.86Z" style="fill: #fdb927;" />
  <path d="M120.7,59.71h.86v-.86h-.86v.86ZM121.56,59.71h.86v-.86h-.86v.86ZM122.42,59.71h.86v-.86h-.86v.86Z"
    style="fill: #00243c;" />
  <path d="M123.27,59.71h.86v-.86h-.86v.86ZM124.13,59.71h.86v-.86h-.86v.86Z" style="fill: #fdb927;" />
  <rect x="124.99" y="58.85" width=".86" height=".86" style="fill: #00243c;" />
  <path
    d="M125.85,59.71h.86v-.86h-.86v.86ZM126.71,59.71h.86v-.86h-.86v.86ZM127.57,59.71h.86v-.86h-.86v.86ZM128.43,59.71h.86v-.86h-.86v.86Z"
    style="fill: #fdb927;" />
  <polygon points="130.15 58.85 129.29 58.85 129.29 59.71 130.15 59.71 131 59.71 131 58.85 130.15 58.85"
    style="fill: #00243c;" />
  <rect x="131" y="58.85" width=".86" height=".86" style="fill: #fdb927;" />
  <path d="M131.86,59.71h.86v-.86h-.86v.86ZM132.72,59.71h.86v-.86h-.86v.86ZM133.58,59.71h.86v-.86h-.86v.86Z"
    style="fill: #00243c;" />
  <path d="M134.44,59.71h.86v-.86h-.86v.86ZM135.3,59.71h.86v-.86h-.86v.86ZM136.16,59.71h.86v-.86h-.86v.86Z"
    style="fill: #fdb927;" />
  <path d="M108.67,60.57h.86v-.86h-.86v.86ZM109.53,60.57h.86v-.86h-.86v.86Z" style="fill: #00243c;" />
  <path
    d="M110.39,60.57h.86v-.86h-.86v.86ZM111.25,60.57h.86v-.86h-.86v.86ZM112.11,60.57h.86v-.86h-.86v.86ZM112.97,60.57h.86v-.86h-.86v.86ZM113.82,60.57h.86v-.86h-.86v.86ZM114.68,60.57h.86v-.86h-.86v.86Z"
    style="fill: #fdb927;" />
  <rect x="115.54" y="59.71" width=".86" height=".86" style="fill: #00243c;" />
  <rect x="116.4" y="59.71" width=".86" height=".86" style="fill: #fdb927;" />
  <path
    d="M117.26,60.57h.86v-.86h-.86v.86ZM118.12,60.57h.86v-.86h-.86v.86ZM118.98,60.57h.86v-.86h-.86v.86ZM119.84,60.57h.86v-.86h-.86v.86Z"
    style="fill: #00243c;" />
  <path
    d="M120.7,60.57h.86v-.86h-.86v.86ZM121.56,60.57h.86v-.86h-.86v.86ZM122.42,60.57h.86v-.86h-.86v.86ZM123.27,60.57h.86v-.86h-.86v.86ZM124.13,60.57h.86v-.86h-.86v.86Z"
    style="fill: #fdb927;" />
  <path d="M124.99,60.57h.86v-.86h-.86v.86ZM125.85,60.57h.86v-.86h-.86v.86ZM126.71,60.57h.86v-.86h-.86v.86Z"
    style="fill: #00243c;" />
  <rect x="127.57" y="59.71" width=".86" height=".86" style="fill: #fdb927;" />
  <rect x="128.43" y="59.71" width=".86" height=".86" style="fill: #00243c;" />
  <polygon points="130.15 59.71 129.29 59.71 129.29 60.57 130.15 60.57 131 60.57 131 59.71 130.15 59.71"
    style="fill: #fdb927;" />
  <rect x="131" y="59.71" width=".86" height=".86" style="fill: #00243c;" />
  <path d="M131.86,60.57h.86v-.86h-.86v.86ZM132.72,60.57h.86v-.86h-.86v.86Z" style="fill: #fdb927;" />
  <path d="M133.58,60.57h.86v-.86h-.86v.86ZM134.44,60.57h.86v-.86h-.86v.86Z" style="fill: #00243c;" />
  <rect x="135.3" y="59.71" width=".86" height=".86" style="fill: #fdb927;" />
  <path d="M108.67,61.43h.86v-.86h-.86v.86ZM136.16,60.57h.86v-.86h-.86v.86Z" style="fill: #00243c;" />
  <rect x="109.53" y="60.57" width=".86" height=".86" style="fill: #fdb927;" />
  <path d="M110.39,61.43h.86v-.86h-.86v.86ZM111.25,61.43h.86v-.86h-.86v.86Z" style="fill: #00243c;" />
  <rect x="112.11" y="60.57" width=".86" height=".86" style="fill: #fdb927;" />
  <path d="M112.97,61.43h.86v-.86h-.86v.86ZM113.82,61.43h.86v-.86h-.86v.86Z" style="fill: #00243c;" />
  <path
    d="M114.68,61.43h.86v-.86h-.86v.86ZM115.54,61.43h.86v-.86h-.86v.86ZM116.4,61.43h.86v-.86h-.86v.86ZM117.26,61.43h.86v-.86h-.86v.86Z"
    style="fill: #fdb927;" />
  <rect x="118.12" y="60.57" width=".86" height=".86" style="fill: #00243c;" />
  <path
    d="M118.98,61.43h.86v-.86h-.86v.86ZM119.84,61.43h.86v-.86h-.86v.86ZM120.7,61.43h.86v-.86h-.86v.86ZM121.56,61.43h.86v-.86h-.86v.86Z"
    style="fill: #fdb927;" />
  <path
    d="M122.42,61.43h.86v-.86h-.86v.86ZM123.27,61.43h.86v-.86h-.86v.86ZM124.13,61.43h.86v-.86h-.86v.86ZM124.99,61.43h.86v-.86h-.86v.86Z"
    style="fill: #00243c;" />
  <rect x="125.85" y="60.57" width=".86" height=".86" style="fill: #fdb927;" />
  <rect x="126.71" y="60.57" width=".86" height=".86" style="fill: #00243c;" />
  <path
    d="M127.57,61.43h.86v-.86h-.86v.86ZM128.43,61.43h.86v-.86h-.86v.86ZM130.15,60.57h-.86v.86h1.72v-.86h-.86ZM131,61.43h.86v-.86h-.86v.86Z"
    style="fill: #fdb927;" />
  <rect x="131.86" y="60.57" width=".86" height=".86" style="fill: #00243c;" />
  <rect x="132.72" y="60.57" width=".86" height=".86" style="fill: #fdb927;" />
  <path d="M133.58,61.43h.86v-.86h-.86v.86ZM134.44,61.43h.86v-.86h-.86v.86ZM135.3,61.43h.86v-.86h-.86v.86Z"
    style="fill: #00243c;" />
  <rect x="136.16" y="60.57" width=".86" height=".86" style="fill: #fdb927;" />
  <rect x="108.67" y="61.43" width=".86" height=".86" style="fill: #00243c;" />
  <path d="M109.53,62.29h.86v-.86h-.86v.86ZM110.39,62.29h.86v-.86h-.86v.86ZM111.25,62.29h.86v-.86h-.86v.86Z"
    style="fill: #fdb927;" />
  <rect x="112.11" y="61.43" width=".86" height=".86" style="fill: #00243c;" />
  <path d="M112.97,62.29h.86v-.86h-.86v.86ZM113.82,62.29h.86v-.86h-.86v.86Z" style="fill: #fdb927;" />
  <path d="M114.68,62.29h.86v-.86h-.86v.86ZM115.54,62.29h.86v-.86h-.86v.86Z" style="fill: #00243c;" />
  <rect x="116.4" y="61.43" width=".86" height=".86" style="fill: #fdb927;" />
  <path
    d="M117.26,62.29h.86v-.86h-.86v.86ZM118.12,62.29h.86v-.86h-.86v.86ZM118.98,62.29h.86v-.86h-.86v.86ZM119.84,62.29h.86v-.86h-.86v.86ZM120.7,62.29h.86v-.86h-.86v.86ZM121.56,62.29h.86v-.86h-.86v.86Z"
    style="fill: #00243c;" />
  <path d="M122.42,62.29h.86v-.86h-.86v.86ZM123.27,62.29h.86v-.86h-.86v.86ZM124.13,62.29h.86v-.86h-.86v.86Z"
    style="fill: #fdb927;" />
  <rect x="124.99" y="61.43" width=".86" height=".86" style="fill: #00243c;" />
  <rect x="125.85" y="61.43" width=".86" height=".86" style="fill: #fdb927;" />
  <rect x="126.71" y="61.43" width=".86" height=".86" style="fill: #00243c;" />
  <path d="M127.57,62.29h.86v-.86h-.86v.86ZM128.43,62.29h.86v-.86h-.86v.86Z" style="fill: #fdb927;" />
  <rect x="129.29" y="61.43" width=".86" height=".86" style="fill: #00243c;" />
  <path
    d="M130.15,62.29h.86v-.86h-.86v.86ZM131,62.29h.86v-.86h-.86v.86ZM131.86,62.29h.86v-.86h-.86v.86ZM132.72,62.29h.86v-.86h-.86v.86Z"
    style="fill: #fdb927;" />
  <path d="M133.58,62.29h.86v-.86h-.86v.86ZM134.44,62.29h.86v-.86h-.86v.86Z" style="fill: #00243c;" />
  <rect x="135.3" y="61.43" width=".86" height=".86" style="fill: #fdb927;" />
  <path d="M108.67,63.15h.86v-.86h-.86v.86ZM136.16,62.29h.86v-.86h-.86v.86Z" style="fill: #00243c;" />
  <path d="M109.53,63.15h.86v-.86h-.86v.86ZM110.39,63.15h.86v-.86h-.86v.86Z" style="fill: #fdb927;" />
  <rect x="111.25" y="62.29" width=".86" height=".86" style="fill: #00243c;" />
  <path d="M112.11,63.15h.86v-.86h-.86v.86ZM112.97,63.15h.86v-.86h-.86v.86Z" style="fill: #fdb927;" />
  <rect x="113.82" y="62.29" width=".86" height=".86" style="fill: #00243c;" />
  <rect x="114.68" y="62.29" width=".86" height=".86" style="fill: #fdb927;" />
  <rect x="115.54" y="62.29" width=".86" height=".86" style="fill: #00243c;" />
  <rect x="116.4" y="62.29" width=".86" height=".86" style="fill: #fdb927;" />
  <path d="M117.26,63.15h.86v-.86h-.86v.86ZM118.12,63.15h.86v-.86h-.86v.86Z" style="fill: #00243c;" />
  <rect x="118.98" y="62.29" width=".86" height=".86" style="fill: #fdb927;" />
  <rect x="119.84" y="62.29" width=".86" height=".86" style="fill: #00243c;" />
  <rect x="120.7" y="62.29" width=".86" height=".86" style="fill: #fdb927;" />
  <path d="M121.56,63.15h.86v-.86h-.86v.86ZM122.42,63.15h.86v-.86h-.86v.86Z" style="fill: #00243c;" />
  <path d="M123.27,63.15h.86v-.86h-.86v.86ZM124.13,63.15h.86v-.86h-.86v.86Z" style="fill: #fdb927;" />
  <path d="M124.99,63.15h.86v-.86h-.86v.86ZM125.85,63.15h.86v-.86h-.86v.86Z" style="fill: #00243c;" />
  <rect x="126.71" y="62.29" width=".86" height=".86" style="fill: #fdb927;" />
  <path
    d="M127.57,63.15h.86v-.86h-.86v.86ZM128.43,63.15h.86v-.86h-.86v.86ZM130.15,62.29h-.86v.86h1.72v-.86h-.86ZM131,63.15h.86v-.86h-.86v.86ZM131.86,63.15h.86v-.86h-.86v.86ZM132.72,63.15h.86v-.86h-.86v.86Z"
    style="fill: #00243c;" />
  <path d="M133.58,63.15h.86v-.86h-.86v.86ZM134.44,63.15h.86v-.86h-.86v.86Z" style="fill: #fdb927;" />
  <path d="M135.3,63.15h.86v-.86h-.86v.86ZM136.16,63.15h.86v-.86h-.86v.86Z" style="fill: #00243c;" />
  <path
    d="M108.67,64.01h.86v-.86h-.86v.86ZM109.53,64.01h.86v-.86h-.86v.86ZM110.39,64.01h.86v-.86h-.86v.86ZM111.25,64.01h.86v-.86h-.86v.86ZM112.11,64.01h.86v-.86h-.86v.86ZM112.97,64.01h.86v-.86h-.86v.86ZM113.82,64.01h.86v-.86h-.86v.86ZM114.68,64.01h.86v-.86h-.86v.86Z"
    style="fill: #fdb927;" />
  <path d="M115.54,64.01h.86v-.86h-.86v.86ZM116.4,64.01h.86v-.86h-.86v.86ZM117.26,64.01h.86v-.86h-.86v.86Z"
    style="fill: #00243c;" />
  <rect x="118.12" y="63.15" width=".86" height=".86" style="fill: #fdb927;" />
  <rect x="118.98" y="63.15" width=".86" height=".86" style="fill: #00243c;" />
  <rect x="119.84" y="63.15" width=".86" height=".86" style="fill: #fdb927;" />
  <path d="M120.7,64.01h.86v-.86h-.86v.86ZM121.56,64.01h.86v-.86h-.86v.86Z" style="fill: #00243c;" />
  <path d="M122.42,64.01h.86v-.86h-.86v.86ZM123.27,64.01h.86v-.86h-.86v.86Z" style="fill: #fdb927;" />
  <path d="M124.13,64.01h.86v-.86h-.86v.86ZM124.99,64.01h.86v-.86h-.86v.86ZM125.85,64.01h.86v-.86h-.86v.86Z"
    style="fill: #00243c;" />
  <path d="M126.71,64.01h.86v-.86h-.86v.86ZM127.57,64.01h.86v-.86h-.86v.86Z" style="fill: #fdb927;" />
  <path d="M128.43,64.01h.86v-.86h-.86v.86ZM129.29,64.01h.86v-.86h-.86v.86Z" style="fill: #00243c;" />
  <path d="M130.15,64.01h.86v-.86h-.86v.86ZM131,64.01h.86v-.86h-.86v.86ZM131.86,64.01h.86v-.86h-.86v.86Z"
    style="fill: #fdb927;" />
  <path
    d="M108.67,64.86h.86v-.86h-.86v.86ZM109.53,64.86h.86v-.86h-.86v.86ZM110.39,64.86h.86v-.86h-.86v.86ZM111.25,64.86h.86v-.86h-.86v.86ZM112.11,64.86h.86v-.86h-.86v.86ZM112.97,64.86h.86v-.86h-.86v.86ZM113.82,64.86h.86v-.86h-.86v.86ZM132.72,64.01h.86v-.86h-.86v.86ZM133.58,64.01h.86v-.86h-.86v.86ZM134.44,64.01h.86v-.86h-.86v.86ZM135.3,64.01h.86v-.86h-.86v.86ZM136.16,64.01h.86v-.86h-.86v.86Z"
    style="fill: #00243c;" />
  <path
    d="M114.68,64.86h.86v-.86h-.86v.86ZM115.54,64.86h.86v-.86h-.86v.86ZM116.4,64.86h.86v-.86h-.86v.86ZM117.26,64.86h.86v-.86h-.86v.86ZM118.12,64.86h.86v-.86h-.86v.86ZM118.98,64.86h.86v-.86h-.86v.86Z"
    style="fill: #fdb927;" />
  <path d="M119.84,64.86h.86v-.86h-.86v.86ZM120.7,64.86h.86v-.86h-.86v.86ZM121.56,64.86h.86v-.86h-.86v.86Z"
    style="fill: #00243c;" />
  <rect x="122.42" y="64.01" width=".86" height=".86" style="fill: #fdb927;" />
  <rect x="123.27" y="64.01" width=".86" height=".86" style="fill: #00243c;" />
  <path
    d="M124.13,64.86h.86v-.86h-.86v.86ZM124.99,64.86h.86v-.86h-.86v.86ZM125.85,64.86h.86v-.86h-.86v.86ZM126.71,64.86h.86v-.86h-.86v.86Z"
    style="fill: #fdb927;" />
  <path d="M127.57,64.86h.86v-.86h-.86v.86ZM128.43,64.86h.86v-.86h-.86v.86ZM129.29,64.86h.86v-.86h-.86v.86Z"
    style="fill: #00243c;" />
  <rect x="130.15" y="64.01" width=".86" height=".86" style="fill: #fdb927;" />
  <rect x="131" y="64.01" width=".86" height=".86" style="fill: #00243c;" />
  <rect x="131.86" y="64.01" width=".86" height=".86" style="fill: #fdb927;" />
  <rect x="132.72" y="64.01" width=".86" height=".86" style="fill: #00243c;" />
  <path d="M133.58,64.86h.86v-.86h-.86v.86ZM134.44,64.86h.86v-.86h-.86v.86Z" style="fill: #fdb927;" />
  <rect x="135.3" y="64.01" width=".86" height=".86" style="fill: #00243c;" />
  <rect x="136.16" y="64.01" width=".86" height=".86" style="fill: #fdb927;" />
  <rect x="108.67" y="64.86" width=".86" height=".86" style="fill: #00243c;" />
  <path
    d="M109.53,65.72h.86v-.86h-.86v.86ZM110.39,65.72h.86v-.86h-.86v.86ZM111.25,65.72h.86v-.86h-.86v.86ZM112.11,65.72h.86v-.86h-.86v.86ZM112.97,65.72h.86v-.86h-.86v.86Z"
    style="fill: #fdb927;" />
  <rect x="113.82" y="64.86" width=".86" height=".86" style="fill: #00243c;" />
  <path d="M114.68,65.72h.86v-.86h-.86v.86ZM115.54,65.72h.86v-.86h-.86v.86ZM116.4,65.72h.86v-.86h-.86v.86Z"
    style="fill: #fdb927;" />
  <rect x="117.26" y="64.86" width=".86" height=".86" style="fill: #00243c;" />
  <rect x="118.12" y="64.86" width=".86" height=".86" style="fill: #fdb927;" />
  <path d="M118.98,65.72h.86v-.86h-.86v.86ZM119.84,65.72h.86v-.86h-.86v.86Z" style="fill: #00243c;" />
  <rect x="120.7" y="64.86" width=".86" height=".86" style="fill: #fdb927;" />
  <path d="M121.56,65.72h.86v-.86h-.86v.86ZM122.42,65.72h.86v-.86h-.86v.86ZM123.27,65.72h.86v-.86h-.86v.86Z"
    style="fill: #00243c;" />
  <rect x="124.13" y="64.86" width=".86" height=".86" style="fill: #fdb927;" />
  <rect x="124.99" y="64.86" width=".86" height=".86" style="fill: #00243c;" />
  <path d="M125.85,65.72h.86v-.86h-.86v.86ZM126.71,65.72h.86v-.86h-.86v.86ZM127.57,65.72h.86v-.86h-.86v.86Z"
    style="fill: #fdb927;" />
  <path d="M128.43,65.72h.86v-.86h-.86v.86ZM129.29,65.72h.86v-.86h-.86v.86Z" style="fill: #00243c;" />
  <path d="M130.15,65.72h.86v-.86h-.86v.86ZM131,65.72h.86v-.86h-.86v.86ZM131.86,65.72h.86v-.86h-.86v.86Z"
    style="fill: #fdb927;" />
  <path
    d="M108.67,66.58h.86v-.86h-.86v.86ZM132.72,65.72h.86v-.86h-.86v.86ZM133.58,65.72h.86v-.86h-.86v.86ZM134.44,65.72h.86v-.86h-.86v.86ZM135.3,65.72h.86v-.86h-.86v.86ZM136.16,65.72h.86v-.86h-.86v.86Z"
    style="fill: #00243c;" />
  <rect x="109.53" y="65.72" width=".86" height=".86" style="fill: #fdb927;" />
  <path d="M110.39,66.58h.86v-.86h-.86v.86ZM111.25,66.58h.86v-.86h-.86v.86ZM112.11,66.58h.86v-.86h-.86v.86Z"
    style="fill: #00243c;" />
  <rect x="112.97" y="65.72" width=".86" height=".86" style="fill: #fdb927;" />
  <rect x="113.82" y="65.72" width=".86" height=".86" style="fill: #00243c;" />
  <rect x="114.68" y="65.72" width=".86" height=".86" style="fill: #fdb927;" />
  <path
    d="M115.54,66.58h.86v-.86h-.86v.86ZM116.4,66.58h.86v-.86h-.86v.86ZM117.26,66.58h.86v-.86h-.86v.86ZM118.12,66.58h.86v-.86h-.86v.86ZM118.98,66.58h.86v-.86h-.86v.86ZM119.84,66.58h.86v-.86h-.86v.86Z"
    style="fill: #00243c;" />
  <path d="M120.7,66.58h.86v-.86h-.86v.86ZM121.56,66.58h.86v-.86h-.86v.86Z" style="fill: #fdb927;" />
  <rect x="122.42" y="65.72" width=".86" height=".86" style="fill: #00243c;" />
  <rect x="123.27" y="65.72" width=".86" height=".86" style="fill: #fdb927;" />
  <path d="M124.13,66.58h.86v-.86h-.86v.86ZM124.99,66.58h.86v-.86h-.86v.86Z" style="fill: #00243c;" />
  <rect x="125.85" y="65.72" width=".86" height=".86" style="fill: #fdb927;" />
  <path d="M126.71,66.58h.86v-.86h-.86v.86ZM127.57,66.58h.86v-.86h-.86v.86Z" style="fill: #00243c;" />
  <rect x="128.43" y="65.72" width=".86" height=".86" style="fill: #fdb927;" />
  <path
    d="M130.15,65.72h-.86v.86h1.72v-.86h-.86ZM131,66.58h.86v-.86h-.86v.86ZM131.86,66.58h.86v-.86h-.86v.86ZM132.72,66.58h.86v-.86h-.86v.86ZM133.58,66.58h.86v-.86h-.86v.86Z"
    style="fill: #00243c;" />
  <rect x="134.44" y="65.72" width=".86" height=".86" style="fill: #fdb927;" />
  <path d="M108.67,67.44h.86v-.86h-.86v.86ZM135.3,66.58h.86v-.86h-.86v.86ZM136.16,66.58h.86v-.86h-.86v.86Z"
    style="fill: #00243c;" />
  <rect x="109.53" y="66.58" width=".86" height=".86" style="fill: #fdb927;" />
  <path d="M110.39,67.44h.86v-.86h-.86v.86ZM111.25,67.44h.86v-.86h-.86v.86ZM112.11,67.44h.86v-.86h-.86v.86Z"
    style="fill: #00243c;" />
  <rect x="112.97" y="66.58" width=".86" height=".86" style="fill: #fdb927;" />
  <rect x="113.82" y="66.58" width=".86" height=".86" style="fill: #00243c;" />
  <rect x="114.68" y="66.58" width=".86" height=".86" style="fill: #fdb927;" />
  <path d="M115.54,67.44h.86v-.86h-.86v.86ZM116.4,67.44h.86v-.86h-.86v.86Z" style="fill: #00243c;" />
  <path d="M117.26,67.44h.86v-.86h-.86v.86ZM118.12,67.44h.86v-.86h-.86v.86Z" style="fill: #fdb927;" />
  <rect x="118.98" y="66.58" width=".86" height=".86" style="fill: #00243c;" />
  <rect x="119.84" y="66.58" width=".86" height=".86" style="fill: #fdb927;" />
  <rect x="120.7" y="66.58" width=".86" height=".86" style="fill: #00243c;" />
  <path d="M121.56,67.44h.86v-.86h-.86v.86ZM122.42,67.44h.86v-.86h-.86v.86ZM123.27,67.44h.86v-.86h-.86v.86Z"
    style="fill: #fdb927;" />
  <rect x="124.13" y="66.58" width=".86" height=".86" style="fill: #00243c;" />
  <rect x="124.99" y="66.58" width=".86" height=".86" style="fill: #fdb927;" />
  <path d="M125.85,67.44h.86v-.86h-.86v.86ZM126.71,67.44h.86v-.86h-.86v.86Z" style="fill: #00243c;" />
  <rect x="127.57" y="66.58" width=".86" height=".86" style="fill: #fdb927;" />
  <path d="M128.43,67.44h.86v-.86h-.86v.86ZM130.15,66.58h-.86v.86h1.72v-.86h-.86Z" style="fill: #00243c;" />
  <path d="M131,67.44h.86v-.86h-.86v.86ZM131.86,67.44h.86v-.86h-.86v.86Z" style="fill: #fdb927;" />
  <rect x="132.72" y="66.58" width=".86" height=".86" style="fill: #00243c;" />
  <path d="M133.58,67.44h.86v-.86h-.86v.86ZM134.44,67.44h.86v-.86h-.86v.86ZM135.3,67.44h.86v-.86h-.86v.86Z"
    style="fill: #fdb927;" />
  <path d="M108.67,68.3h.86v-.86h-.86v.86ZM136.16,67.44h.86v-.86h-.86v.86Z" style="fill: #00243c;" />
  <rect x="109.53" y="67.44" width=".86" height=".86" style="fill: #fdb927;" />
  <path d="M110.39,68.3h.86v-.86h-.86v.86ZM111.25,68.3h.86v-.86h-.86v.86ZM112.11,68.3h.86v-.86h-.86v.86Z"
    style="fill: #00243c;" />
  <rect x="112.97" y="67.44" width=".86" height=".86" style="fill: #fdb927;" />
  <rect x="113.82" y="67.44" width=".86" height=".86" style="fill: #00243c;" />
  <rect x="114.68" y="67.44" width=".86" height=".86" style="fill: #fdb927;" />
  <path d="M115.54,68.3h.86v-.86h-.86v.86ZM116.4,68.3h.86v-.86h-.86v.86ZM117.26,68.3h.86v-.86h-.86v.86Z"
    style="fill: #00243c;" />
  <rect x="118.12" y="67.44" width=".86" height=".86" style="fill: #fdb927;" />
  <rect x="118.98" y="67.44" width=".86" height=".86" style="fill: #00243c;" />
  <rect x="119.84" y="67.44" width=".86" height=".86" style="fill: #fdb927;" />
  <path d="M120.7,68.3h.86v-.86h-.86v.86ZM121.56,68.3h.86v-.86h-.86v.86ZM122.42,68.3h.86v-.86h-.86v.86Z"
    style="fill: #00243c;" />
  <rect x="123.27" y="67.44" width=".86" height=".86" style="fill: #fdb927;" />
  <rect x="124.13" y="67.44" width=".86" height=".86" style="fill: #00243c;" />
  <rect x="124.99" y="67.44" width=".86" height=".86" style="fill: #fdb927;" />
  <path d="M125.85,68.3h.86v-.86h-.86v.86ZM126.71,68.3h.86v-.86h-.86v.86ZM127.57,68.3h.86v-.86h-.86v.86Z"
    style="fill: #00243c;" />
  <path d="M128.43,68.3h.86v-.86h-.86v.86ZM129.29,68.3h.86v-.86h-.86v.86Z" style="fill: #fdb927;" />
  <path d="M130.15,68.3h.86v-.86h-.86v.86ZM131,68.3h.86v-.86h-.86v.86Z" style="fill: #00243c;" />
  <path d="M131.86,68.3h.86v-.86h-.86v.86ZM132.72,68.3h.86v-.86h-.86v.86Z" style="fill: #fdb927;" />
  <rect x="133.58" y="67.44" width=".86" height=".86" style="fill: #00243c;" />
  <path d="M134.44,68.3h.86v-.86h-.86v.86ZM135.3,68.3h.86v-.86h-.86v.86ZM136.16,68.3h.86v-.86h-.86v.86Z"
    style="fill: #fdb927;" />
  <rect x="108.67" y="68.3" width=".86" height=".86" style="fill: #00243c;" />
  <path
    d="M109.53,69.16h.86v-.86h-.86v.86ZM110.39,69.16h.86v-.86h-.86v.86ZM111.25,69.16h.86v-.86h-.86v.86ZM112.11,69.16h.86v-.86h-.86v.86ZM112.97,69.16h.86v-.86h-.86v.86Z"
    style="fill: #fdb927;" />
  <rect x="113.82" y="68.3" width=".86" height=".86" style="fill: #00243c;" />
  <path d="M114.68,69.16h.86v-.86h-.86v.86ZM115.54,69.16h.86v-.86h-.86v.86Z" style="fill: #fdb927;" />
  <path d="M116.4,69.16h.86v-.86h-.86v.86ZM117.26,69.16h.86v-.86h-.86v.86Z" style="fill: #00243c;" />
  <path d="M118.12,69.16h.86v-.86h-.86v.86ZM118.98,69.16h.86v-.86h-.86v.86Z" style="fill: #fdb927;" />
  <path d="M119.84,69.16h.86v-.86h-.86v.86ZM120.7,69.16h.86v-.86h-.86v.86ZM121.56,69.16h.86v-.86h-.86v.86Z"
    style="fill: #00243c;" />
  <rect x="122.42" y="68.3" width=".86" height=".86" style="fill: #fdb927;" />
  <path d="M123.27,69.16h.86v-.86h-.86v.86ZM124.13,69.16h.86v-.86h-.86v.86Z" style="fill: #00243c;" />
  <rect x="124.99" y="68.3" width=".86" height=".86" style="fill: #fdb927;" />
  <rect x="125.85" y="68.3" width=".86" height=".86" style="fill: #00243c;" />
  <path
    d="M126.71,69.16h.86v-.86h-.86v.86ZM127.57,69.16h.86v-.86h-.86v.86ZM128.43,69.16h.86v-.86h-.86v.86ZM130.15,68.3h-.86v.86h1.72v-.86h-.86ZM131,69.16h.86v-.86h-.86v.86Z"
    style="fill: #fdb927;" />
  <rect x="131.86" y="68.3" width=".86" height=".86" style="fill: #00243c;" />
  <rect x="132.72" y="68.3" width=".86" height=".86" style="fill: #fdb927;" />
  <path d="M133.58,69.16h.86v-.86h-.86v.86ZM134.44,69.16h.86v-.86h-.86v.86Z" style="fill: #00243c;" />
  <path d="M135.3,69.16h.86v-.86h-.86v.86ZM136.16,69.16h.86v-.86h-.86v.86Z" style="fill: #fdb927;" />
  <path
    d="M108.67,70.02h.86v-.86h-.86v.86ZM109.53,70.02h.86v-.86h-.86v.86ZM110.39,70.02h.86v-.86h-.86v.86ZM111.25,70.02h.86v-.86h-.86v.86ZM112.11,70.02h.86v-.86h-.86v.86ZM112.97,70.02h.86v-.86h-.86v.86ZM113.82,70.02h.86v-.86h-.86v.86Z"
    style="fill: #00243c;" />
  <path d="M114.68,70.02h.86v-.86h-.86v.86ZM115.54,70.02h.86v-.86h-.86v.86Z" style="fill: #fdb927;" />
  <rect x="116.4" y="69.16" width=".86" height=".86" style="fill: #00243c;" />
  <rect x="117.26" y="69.16" width=".86" height=".86" style="fill: #fdb927;" />
  <rect x="118.12" y="69.16" width=".86" height=".86" style="fill: #00243c;" />
  <path d="M118.98,70.02h.86v-.86h-.86v.86ZM119.84,70.02h.86v-.86h-.86v.86Z" style="fill: #fdb927;" />
  <rect x="120.7" y="69.16" width=".86" height=".86" style="fill: #00243c;" />
  <path d="M121.56,70.02h.86v-.86h-.86v.86ZM122.42,70.02h.86v-.86h-.86v.86Z" style="fill: #fdb927;" />
  <rect x="123.27" y="69.16" width=".86" height=".86" style="fill: #00243c;" />
  <rect x="124.13" y="69.16" width=".86" height=".86" style="fill: #fdb927;" />
  <path d="M124.99,70.02h.86v-.86h-.86v.86ZM125.85,70.02h.86v-.86h-.86v.86Z" style="fill: #00243c;" />
  <path d="M126.71,70.02h.86v-.86h-.86v.86ZM127.57,70.02h.86v-.86h-.86v.86Z" style="fill: #fdb927;" />
  <path d="M128.43,70.02h.86v-.86h-.86v.86ZM129.29,70.02h.86v-.86h-.86v.86Z" style="fill: #00243c;" />
  <rect x="130.15" y="69.16" width=".86" height=".86" style="fill: #fdb927;" />
  <rect x="131" y="69.16" width=".86" height=".86" style="fill: #00243c;" />
  <path
    d="M131.86,70.02h.86v-.86h-.86v.86ZM132.72,70.02h.86v-.86h-.86v.86ZM133.58,70.02h.86v-.86h-.86v.86ZM134.44,70.02h.86v-.86h-.86v.86Z"
    style="fill: #fdb927;" />
  <rect x="135.3" y="69.16" width=".86" height=".86" style="fill: #00243c;" />
  <rect x="136.16" y="69.16" width=".86" height=".86" style="fill: #fdb927;" />
  <g>
    <path
      d="M65.05,73.24h-22.64c-.77,0-1.4-.63-1.4-1.4v-32.42c0-.77.63-1.4,1.4-1.4h22.64c.77,0,1.4.63,1.4,1.4v32.42c0,.77-.63,1.4-1.4,1.4M42.41,38.28c-.63,0-1.15.51-1.15,1.15v32.42c0,.63.51,1.15,1.15,1.15h22.64c.63,0,1.14-.52,1.14-1.15v-32.42c0-.63-.51-1.15-1.14-1.15h-22.64Z"
      style="fill: #00243c;" />
    <path
      d="M58.97,40.36c.22,0,.4.08.56.23.16.15.23.34.23.56s-.08.4-.23.56c-.15.16-.34.23-.56.23s-.4-.08-.56-.23c-.15-.15-.23-.34-.23-.56s.08-.4.23-.56c.15-.16.34-.23.56-.23M58.97,41.81c.18,0,.34-.06.46-.19.13-.13.19-.28.2-.47,0-.18-.06-.34-.19-.46-.13-.13-.28-.19-.47-.19-.18,0-.34.06-.46.19-.13.13-.19.28-.19.47,0,.18.06.34.19.47.13.13.28.19.47.2M59.34,41.59h-.17c-.11-.19-.17-.3-.21-.33l-.12-.04h-.08v.36h-.14v-.85h.29l.2.02.11.08.04.13-.06.16-.18.08c.05.01.12.08.2.21l.1.17ZM58.76,41.11h.17l.16-.03.04-.09-.04-.09-.17-.03h-.16v.26Z"
      style="fill: #00243c;" />
    <path
      d="M54.07,40.17c-3.3,0-4.46,5.13-5.55,9.26-.39-.4-1.6-1.6-1.6-1.6-.24-.24-.52-.16-.69,0-.17.17-.2.49,0,.68,0,0,1.63,1.63,2.2,2.19.16.15.38.24.6.11.23-.14.26-.4.27-.4,1.93-8.64,3.64-9.28,4.76-9.28.94,0,2.02.69,2.02,2.09,1.4,0,2.28,1.84,1.15,2.98.94.45,1.35,1.01,1.35,1.71s-.59,1.43-1.45,1.42c-.85,0-1.29-.55-1.95-.55-.3,0-.49.24-.49.48v1.74h-1.26v-1.74c0-.27-.2-.49-.45-.49h-.11l-1.68.21c-.2.03-.39.25-.39.48,0,.27.22.49.52.49h.08l1.07-.14v1.72c0,.22.25.43.47.43h2.24c.26,0,.49-.22.49-.49v-1.57c.47.29,1.12.4,1.45.4,1.25,0,2.45-.99,2.44-2.43,0-1.31-1.01-1.97-1.01-1.97.59-1.57-.36-3.08-1.59-3.5-.45-1.62-1.83-2.24-2.89-2.24"
      style="fill: #00243c;" />
    <path
      d="M52.66,53.9c0,.41.45.65,1.2,1,.59.28.93.57.93.81,0,.38-.41.52-.79.52-.59,0-.94-.24-1.14-.77v-.05h-.06c-.11,0-.19,0-.24.06v.19s.12.54.12.54c.03.13.08.16.29.2.09.02.57.1.98.1,1.13,0,1.64-.46,1.64-.92,0-.33-.33-.65-1.04-1.01l-.32-.16c-.49-.23-.78-.37-.78-.61s.3-.4.74-.4c.57,0,.72.32.79.59v.05h.07c.13,0,.2-.01.25-.06l.03-.12-.04-.47c-.01-.15-.13-.17-.29-.2-.19-.04-.42-.08-.76-.08-.98,0-1.57.29-1.57.77"
      style="fill: #00243c;" />
    <path
      d="M55.93,54.86c0,.82.71,1.65,2.07,1.65.69,0,1.07-.16,1.36-.31l.08-.04-.13-.14-.1-.05-.07.02c-.1.05-.42.19-.99.19-.7,0-1.46-.46-1.46-1.47s.82-1.31,1.53-1.31c.51,0,.77.18.82.56v.06h.06c.06,0,.22,0,.22-.12v-.56c0-.14-.16-.16-.22-.17h-.07c-.16-.02-.32-.04-.73-.04-1.37,0-2.38.72-2.38,1.72"
      style="fill: #00243c;" />
    <path
      d="M50.79,53.17h-1.23s-.82,0-.82,0h-.12l-.12.13s0,.14.14.14c.49,0,.51.04.52.23v1.71c0,.18,0,.47-.02.7,0,.07,0,.13-.44.13-.12,0-.19.02-.19.15,0,.03,0,.13.12.13h1.85c.1,0,.18-.01.18-.13,0-.14-.11-.15-.29-.15-.44,0-.44-.06-.45-.13,0-.21-.02-.5-.02-.7v-.39h.37c.56,0,.63.01.71.45.02.09.1.11.16.11.13,0,.15-.07.15-.1v-.16c-.01-.09-.03-.21-.03-.37v-.67c0-.1-.12-.1-.18-.1-.11,0-.13.07-.2.38-.03.12-.26.19-.64.19h-.33v-.98c0-.27.05-.27.1-.27.22,0,.74-.03.89-.03.15,0,.28.03.37.09.28.17.42.29.51.36l.2.11s.16,0,.16-.1l-.05-.13c-.05-.1-.12-.27-.22-.52-.03-.08-.12-.08-.29-.08h-.77Z"
      style="fill: #00243c;" />
    <path
      d="M53.24,62.02h-.26v-1.71l-.59,1.71h-.24l-.59-1.74h-.01v1.74h-.26v-2.05h.4l.48,1.45c.06.16.08.26.09.3.02-.08.06-.19.11-.33l.49-1.42h.36v2.05h0Z"
      style="fill: #00243c;" />
    <rect x="53.83" y="59.97" width=".27" height="2.05" style="fill: #00243c;" />
    <path
      d="M56.36,62.02h-.33l-.41-.58c-.1-.14-.16-.24-.19-.29,0,.02-.21.31-.62.87h-.33l.79-1.07-.7-.98h.32l.43.61.1.17c.04-.06.23-.32.57-.78h.3l-.72.96.78,1.08Z"
      style="fill: #00243c;" />
    <path
      d="M48.81,70.64c-.08.07-.18.11-.29.11-.15,0-.28-.06-.37-.17s-.14-.31-.14-.58c0-.26.05-.44.14-.55.1-.11.22-.17.38-.17.11,0,.21.03.29.1.08.06.13.15.16.26l.42-.1c-.05-.17-.12-.3-.21-.4-.16-.16-.37-.23-.63-.23-.29,0-.53.1-.71.3-.18.2-.27.47-.27.83,0,.34.09.6.27.8.18.19.41.29.69.29.23,0,.41-.06.56-.17.15-.11.25-.29.32-.52l-.41-.13c-.03.16-.09.27-.17.34M45.82,70.94c.14.13.35.19.61.19.18,0,.33-.03.46-.08.12-.05.22-.13.28-.24.07-.11.1-.22.1-.34,0-.14-.03-.25-.08-.34-.06-.09-.13-.17-.23-.22-.1-.05-.25-.1-.46-.15-.21-.05-.34-.1-.39-.14-.04-.04-.06-.08-.06-.13,0-.05.02-.1.07-.13.07-.05.17-.08.29-.08s.21.02.27.07c.06.05.1.13.12.24l.42-.02c0-.2-.08-.35-.21-.47-.13-.12-.33-.18-.6-.18-.16,0-.3.03-.41.07-.11.05-.2.12-.26.22-.06.09-.09.2-.09.31,0,.17.07.31.19.43.09.08.25.15.48.21.18.05.29.08.34.09.07.03.12.06.15.09.03.04.04.08.04.13,0,.08-.03.15-.1.21-.07.06-.17.09-.31.09-.13,0-.23-.03-.31-.1-.08-.07-.13-.17-.15-.31l-.41.04c.03.24.11.42.26.55M44.31,71.09v-.91h.88v-.36h-.88v-.51h1.02v-.36h-1.44v2.14h.43Z"
      style="fill: #00243c;" />
    <path
      d="M50.03,69.23h.06c.08,0,.13,0,.15.01l.05.03.02.05-.02.05-.05.03s-.07,0-.15,0h-.06v-.19ZM50.03,69.82v-.29h.04l.1.03s.06.07.09.14l.06.11h.17l-.08-.14s-.04-.08-.05-.08l-.05-.05-.05-.03c.06,0,.1-.03.14-.07.03-.04.05-.08.05-.13l-.03-.1-.06-.07s-.06-.02-.11-.03c-.02,0-.09,0-.22,0h-.14v.69h.14ZM50.43,69.01c.08.04.15.11.19.19.05.08.07.17.07.27s-.02.18-.07.26c-.04.08-.11.15-.19.19-.08.05-.17.07-.26.07s-.17-.02-.26-.07c-.08-.05-.14-.11-.19-.19-.04-.08-.07-.17-.07-.26s.02-.18.07-.27c.05-.08.11-.15.19-.19.08-.05.17-.07.25-.07s.17.02.25.07M49.86,68.9c-.1.05-.18.14-.24.24-.06.1-.09.21-.09.33s.03.22.08.32c.06.1.14.18.24.24.1.06.21.09.32.09s.22-.03.32-.09c.1-.06.18-.14.24-.24.06-.1.09-.21.09-.32s-.03-.22-.09-.33-.14-.19-.24-.24c-.1-.06-.21-.08-.32-.08s-.22.03-.32.08"
      style="fill: #00243c;" />
    <path
      d="M52.98,70.64c-.08.07-.18.11-.29.11-.15,0-.28-.06-.37-.17s-.14-.31-.14-.58c0-.25.05-.44.15-.55s.22-.17.38-.17c.11,0,.21.03.29.1.08.06.13.15.15.26l.42-.1c-.05-.17-.12-.3-.22-.39-.16-.16-.37-.23-.63-.23-.29,0-.53.1-.71.3-.18.2-.27.47-.27.83,0,.34.09.6.27.8.18.19.41.29.69.29.22,0,.41-.06.56-.17.15-.11.25-.29.32-.52l-.41-.13c-.04.16-.09.27-.17.34"
      style="fill: #00243c;" />
    <path
      d="M62.17,69.35v-.38h1.41v.3c-.12.11-.23.28-.35.49-.12.21-.21.44-.27.68-.06.24-.09.46-.09.64h-.4c0-.3.07-.6.18-.91.12-.31.27-.58.46-.83h-.94ZM61.31,70.29v-.73l-.49.73h.49ZM61.31,71.08v-.43h-.88v-.36l.93-1.36h.35v1.36h.27v.36h-.27v.43h-.4ZM60.22,70.7v.38h-1.44c.02-.14.06-.28.14-.41.08-.13.23-.3.46-.52.19-.17.3-.29.34-.35.06-.08.08-.17.08-.25,0-.09-.02-.16-.07-.21-.05-.05-.12-.07-.2-.07s-.15.03-.21.08c-.05.05-.08.14-.09.26l-.41-.04c.03-.23.1-.39.23-.49.13-.1.29-.15.48-.15.21,0,.38.06.5.17.12.11.18.26.18.43,0,.1-.02.19-.05.28-.03.09-.09.18-.16.27-.05.06-.14.16-.27.27-.13.12-.21.2-.25.24-.03.04-.06.08-.08.11h.82ZM58.22,71.08h-.41v-1.55c-.15.14-.33.25-.53.31v-.37c.11-.04.22-.1.35-.2.13-.1.21-.21.26-.34h.33v2.16ZM56.89,70.7v.38h-1.44c.02-.14.06-.28.14-.41.08-.13.23-.3.46-.52.19-.17.3-.29.34-.35.06-.08.08-.17.08-.25,0-.09-.02-.16-.07-.21-.05-.05-.12-.07-.2-.07s-.15.03-.21.08c-.05.05-.08.14-.09.26l-.41-.04c.02-.23.1-.39.23-.49.13-.1.29-.15.48-.15.21,0,.38.06.5.17.12.11.18.26.18.43,0,.1-.02.19-.05.28-.03.09-.09.18-.17.27-.05.06-.14.16-.27.27-.13.12-.21.2-.25.24-.04.04-.06.08-.08.11h.82ZM54.88,71.08h-.41v-1.55c-.15.14-.33.25-.53.31v-.37c.11-.04.22-.1.35-.2.13-.1.21-.21.26-.34h.33v2.16Z"
      style="fill: #00243c;" />
    <path
      d="M51.08,66.07h.39c.07,0,.11,0,.14,0,.05,0,.09-.02.12-.04.03-.02.06-.05.08-.09.02-.04.03-.08.03-.13,0-.06-.01-.11-.04-.15-.03-.04-.07-.08-.12-.09-.05-.02-.13-.03-.23-.03h-.36v.54ZM51.08,65.34h.34c.09,0,.16,0,.2-.02.05-.02.09-.04.12-.08.03-.04.04-.08.04-.14,0-.05-.01-.1-.04-.14-.03-.04-.06-.07-.11-.08-.05-.02-.13-.02-.24-.02h-.32v.48ZM50.88,66.26v-1.57h.59c.12,0,.22.02.29.05.07.03.13.08.17.15.04.07.06.14.06.21,0,.07-.02.13-.05.19-.04.06-.09.11-.17.14.09.03.17.08.22.14.05.07.08.15.08.24,0,.07-.01.14-.05.2-.03.06-.07.11-.12.15-.04.03-.1.06-.17.08-.07.02-.15.03-.25.03h-.6Z"
      style="fill: #00243c;" />
    <path
      d="M52.45,65.68c0,.15.03.26.1.33.06.07.14.11.24.11s.18-.04.24-.11c.06-.07.1-.18.1-.33s-.03-.25-.1-.32c-.06-.07-.14-.11-.24-.11s-.18.04-.24.11c-.06.07-.1.18-.1.33M52.26,65.68c0-.21.06-.37.18-.47.1-.08.22-.13.36-.13.16,0,.29.05.38.15.1.1.15.24.15.43,0,.15-.02.26-.07.35-.04.08-.11.15-.19.2-.08.05-.18.07-.28.07-.16,0-.29-.05-.39-.15-.1-.1-.15-.25-.15-.44"
      style="fill: #00243c;" />
    <path
      d="M54.28,65.68c-.07.03-.18.05-.32.07-.08.01-.14.02-.17.04-.03.01-.06.04-.08.06-.02.03-.03.06-.03.09,0,.05.02.09.06.13.04.03.1.05.17.05s.14-.02.2-.05c.06-.03.1-.08.13-.13.02-.04.03-.11.03-.19v-.07ZM54.3,66.11c-.07.06-.14.1-.21.13s-.14.04-.21.04c-.12,0-.22-.03-.29-.09-.07-.06-.1-.14-.1-.23,0-.06.01-.11.04-.15.03-.05.06-.08.1-.11s.09-.05.14-.06c.04-.01.1-.02.17-.03.16-.02.27-.04.35-.07,0-.03,0-.04,0-.05,0-.08-.02-.13-.05-.17-.05-.04-.12-.07-.22-.07-.09,0-.16.02-.2.05-.04.03-.08.09-.1.17l-.19-.03c.02-.08.05-.15.08-.2.04-.05.1-.09.17-.11.08-.03.16-.04.26-.04s.18.01.24.03c.06.02.1.05.13.09.03.03.05.08.06.13,0,.03.01.09.01.18v.26c0,.18,0,.29.01.34,0,.05.03.09.05.14h-.2s-.03-.09-.04-.14"
      style="fill: #00243c;" />
    <path
      d="M54.77,66.26v-1.14h.17v.17c.04-.08.08-.13.12-.16.04-.03.08-.04.12-.04.06,0,.13.02.2.06l-.07.18s-.1-.04-.14-.04c-.04,0-.08.01-.11.04-.03.03-.06.06-.07.11-.02.07-.03.14-.03.23v.6h-.19Z"
      style="fill: #00243c;" />
    <path
      d="M55.64,65.69c0,.15.03.26.09.33.06.07.13.11.22.11s.16-.04.22-.1c.06-.07.09-.18.09-.32,0-.16-.03-.27-.09-.34-.06-.07-.13-.11-.22-.11s-.16.03-.22.11c-.06.07-.09.18-.09.33M56.25,66.26v-.14c-.07.11-.18.17-.32.17-.09,0-.18-.03-.25-.07-.08-.05-.14-.12-.18-.21-.04-.09-.06-.19-.06-.31s.02-.22.06-.31c.04-.09.09-.16.17-.21.08-.05.16-.08.25-.08.07,0,.13.02.18.04.05.03.1.07.13.11v-.56h.19v1.57h-.18Z"
      style="fill: #00243c;" />
  </g>
  <text id="quantity" y="98%" x="59%"
    style="font-family: Arial-BoldMT, Arial; font-size: 15px; font-weight: 700; isolation: isolate;"
    text-anchor="middle">
  </text>
</svg>