<?xml version="1.0" encoding="UTF-8"?>
<svg id="Layer_1" data-name="Layer 1" data-size="15mm x 70mm" xmlns="http://www.w3.org/2000/svg"
  viewBox="0 0 150.12 265.83">
  <path
    d="M63.94,21.12c0-2.74-2.22-4.96-4.96-4.96s-4.96,2.22-4.96,4.96,2.22,4.96,4.96,4.96,4.96-2.22,4.96-4.96M80.24,198.79h-42.52V.36h42.52v198.42Z"
    style="fill: #fdb927;" />
  <path
    d="M63.95,21.12c0-2.74-2.22-4.96-4.96-4.96s-4.96,2.22-4.96,4.96,2.22,4.96,4.96,4.96,4.96-2.22,4.96-4.96ZM80.24,198.79h-42.52V.37h42.52v198.42Z"
    style="fill: none; stroke: #e50695; stroke-width: .73px;" />
  <path
    d="M133.45,21.12c0-2.74-2.22-4.96-4.96-4.96s-4.96,2.22-4.96,4.96,2.22,4.96,4.96,4.96,4.96-2.22,4.96-4.96M149.75,198.79h-42.52V.36h42.52v198.42Z"
    style="fill: #fdb927;" />
  <path
    d="M133.45,21.12c0-2.74-2.22-4.96-4.96-4.96s-4.96,2.22-4.96,4.96,2.22,4.96,4.96,4.96,4.96-2.22,4.96-4.96ZM149.75,198.79h-42.52V.37h42.52v198.42Z"
    style="fill: none; stroke: #e50695; stroke-width: .73px;" />
  <rect x="74.61" y=".36" width="5.64" height="198.42" style="fill: #00243c;" />
  <rect x="74.61" y=".37" width="5.64" height="198.42" style="fill: none; stroke: #052339; stroke-width: .5px;" />
  <rect x="144.11" y=".36" width="5.64" height="198.42" style="fill: #00243c;" />
  <rect x="144.11" y=".37" width="5.64" height="198.42" style="fill: none; stroke: #052339; stroke-width: .5px;" />
  <path
    d="M61.55,184.96c-.26.62-.64,1.1-1.14,1.44-.49.34-1.07.5-1.72.5h-.34c-.05,0-.1-.02-.13-.05-.04-.04-.05-.08-.05-.13v-1.77c0-.05.02-.1.05-.13.04-.04.08-.05.13-.05h.23c.41,0,.77-.19,1.05-.57.28-.38.43-.9.43-1.56,0-.55-.12-.96-.35-1.23-.23-.27-.52-.4-.86-.4-.25,0-.46.08-.63.25-.17.17-.32.39-.45.68-.13.29-.31.74-.54,1.36-.24.7-.48,1.28-.73,1.77-.25.48-.59.89-1.02,1.21-.43.33-.96.49-1.59.49s-1.17-.16-1.63-.48c-.47-.32-.82-.77-1.07-1.34-.25-.57-.37-1.23-.37-1.98,0-.79.14-1.49.42-2.11.28-.62.67-1.1,1.17-1.45.5-.35,1.09-.52,1.75-.52h.23c.05,0,.1.02.13.06.04.04.05.08.05.13v1.79c0,.05-.02.1-.05.13-.04.04-.08.06-.13.06h-.12c-.43,0-.81.18-1.11.54-.31.36-.46.85-.46,1.47,0,.49.1.87.31,1.14.21.27.49.41.86.41.26,0,.48-.08.65-.24.18-.16.33-.4.47-.71.14-.32.33-.81.57-1.47.27-.74.51-1.32.72-1.73.21-.42.52-.8.93-1.14.41-.34.94-.51,1.59-.51.97,0,1.74.36,2.31,1.07.57.71.85,1.68.85,2.91,0,.83-.13,1.55-.4,2.18"
    style="fill: #00243c;" />
  <path
    d="M51.34,170.96c.28-.52.68-.92,1.19-1.21.51-.28,1.1-.43,1.76-.43s1.23.15,1.73.44c.5.3.88.71,1.16,1.24.28.53.41,1.15.41,1.84v2.21c0,.05.03.08.08.08h3.97c.05,0,.1.02.13.05s.05.08.05.13v1.82c0,.05-.02.1-.05.13-.04.04-.08.05-.13.05h-10.53c-.05,0-.1-.02-.13-.05-.04-.04-.05-.08-.05-.13v-4.39c0-.68.14-1.29.42-1.8M55.42,171.94c-.28-.29-.64-.43-1.08-.43s-.82.15-1.1.43c-.28.29-.42.67-.42,1.15v1.98c0,.05.03.08.08.08h2.86c.05,0,.08-.03.08-.08v-1.98c0-.48-.14-.86-.41-1.15"
    style="fill: #00243c;" />
  <path
    d="M52.76,160.47s.05.08.05.13v5.1c0,.05.02.08.08.08h2.41c.05,0,.08-.03.08-.08v-3.34c0-.05.02-.1.05-.13.04-.04.08-.05.13-.05h1.51c.05,0,.1.02.13.05.04.04.05.08.05.13v3.34c0,.05.03.08.08.08h2.52c.05,0,.08-.03.08-.08v-5.1c0-.05.02-.1.06-.13.04-.04.08-.05.13-.05h1.51c.05,0,.09.02.13.05.04.04.05.08.05.13v7.18c0,.05-.02.1-.05.13-.04.04-.08.06-.13.06h-10.51c-.05,0-.1-.02-.13-.06-.04-.04-.05-.08-.05-.13v-7.18c0-.05.02-.1.05-.13.04-.04.08-.05.13-.05h1.51c.05,0,.1.02.13.05"
    style="fill: #00243c;" />
  <path
    d="M61.47,157.2c-.32.61-.76,1.08-1.33,1.42-.57.33-1.23.5-1.98.5h-3.59c-.75,0-1.4-.17-1.98-.5-.57-.33-1.01-.8-1.32-1.42-.31-.61-.47-1.32-.47-2.13s.15-1.5.44-2.11c.3-.61.71-1.08,1.26-1.42.54-.34,1.17-.51,1.89-.51.09,0,.15.06.17.19l.11,1.82v.03c0,.1-.06.15-.17.15-.55,0-.99.17-1.32.51-.33.34-.5.78-.5,1.33s.17,1.01.5,1.35c.33.34.77.5,1.32.5h3.75c.54,0,.97-.17,1.31-.5.33-.34.5-.79.5-1.35s-.17-.99-.5-1.33c-.33-.34-.77-.51-1.31-.51-.11,0-.17-.06-.17-.19l.08-1.82c0-.05.02-.1.05-.13.03-.04.07-.06.11-.06.72,0,1.35.17,1.9.51s.97.81,1.27,1.42c.3.61.45,1.31.45,2.11s-.16,1.52-.47,2.13"
    style="fill: #00243c;" />
  <path
    d="M61.77,149.38s-.08.05-.13.05h-10.51c-.05,0-.1-.02-.13-.05-.04-.04-.05-.08-.05-.13v-1.82c0-.05.02-.1.05-.13s.08-.05.13-.05h10.51c.05,0,.1.02.13.05s.05.08.05.13v1.82c0,.05-.02.1-.05.13"
    style="fill: #00243c;" />
  <path
    d="M61.67,138.63l-1.52.47s-.06.05-.06.08v3.82s.02.06.06.08l1.52.45c.1.03.15.1.15.2v1.97c0,.06-.02.11-.05.14-.04.03-.09.04-.16.02l-10.51-3.36c-.1-.03-.16-.1-.16-.2v-2.44c0-.1.05-.17.16-.2l10.51-3.36s.05-.01.08-.01c.09,0,.14.06.14.17v1.98c0,.1-.05.17-.15.2M58.38,142.45v-2.74c0-.06-.03-.08-.09-.06l-4.62,1.4s-.06.03-.05.05c0,.02.02.04.05.05l4.62,1.37c.06.01.09-.01.09-.06"
    style="fill: #00243c;" />
  <path
    d="M61.77,134.86s-.08.06-.13.06h-10.51c-.05,0-.1-.02-.13-.06-.04-.04-.05-.08-.05-.13v-1.82c0-.05.02-.1.05-.13s.08-.05.13-.05h8.74c.05,0,.08-.03.08-.08v-5.09c0-.05.02-.1.05-.13.04-.04.08-.05.13-.05h1.51c.05,0,.1.02.13.05.04.04.05.08.05.13v7.17c0,.05-.02.1-.05.13"
    style="fill: #00243c;" />
  <path
    d="M51.34,116.61c.28-.52.68-.92,1.19-1.21.51-.28,1.1-.43,1.76-.43s1.23.15,1.73.44c.5.3.88.71,1.16,1.24.28.54.41,1.15.41,1.84v2.21c0,.05.03.08.08.08h3.97c.05,0,.1.02.13.05s.05.08.05.13v1.82c0,.05-.02.1-.05.13-.04.04-.08.05-.13.05h-10.53c-.05,0-.1-.02-.13-.05-.04-.04-.05-.08-.05-.13v-4.39c0-.68.14-1.29.42-1.8M55.42,117.59c-.28-.29-.64-.44-1.08-.44s-.82.15-1.1.44c-.28.29-.42.67-.42,1.15v1.98c0,.05.03.08.08.08h2.86c.05,0,.08-.03.08-.08v-1.98c0-.48-.14-.86-.41-1.15"
    style="fill: #00243c;" />
  <path
    d="M61.68,107.87l-4.31,1.94s-.06.05-.06.09v1.45c0,.05.03.08.08.08h4.25c.05,0,.1.02.13.06.04.04.05.08.05.13v1.82c0,.05-.02.1-.05.13-.04.04-.08.06-.13.06h-10.51c-.05,0-.1-.02-.13-.06-.04-.04-.05-.08-.05-.13v-4.45c0-.66.13-1.25.4-1.75.27-.5.65-.89,1.15-1.17.5-.27,1.07-.41,1.73-.41.71,0,1.31.18,1.81.53.5.35.86.85,1.07,1.48.02.05.06.07.11.05l4.4-2.11s.07-.03.09-.03c.08,0,.12.06.12.17v1.91c0,.1-.05.18-.14.22M52.89,111.43h2.66c.05,0,.08-.02.08-.08v-2.04c0-.44-.13-.79-.39-1.07-.26-.27-.59-.41-1.01-.41s-.75.14-1.02.41c-.26.27-.4.63-.4,1.07v2.04c0,.05.03.08.08.08"
    style="fill: #00243c;" />
  <path
    d="M61.77,104.02s-.08.06-.13.06h-10.51c-.05,0-.1-.02-.13-.06-.04-.04-.05-.08-.05-.13v-1.82c0-.05.02-.1.05-.13s.08-.05.13-.05h10.51c.05,0,.1.02.13.05s.05.08.05.13v1.82c0,.05-.02.1-.05.13"
    style="fill: #00243c;" />
  <path
    d="M61.47,98.29c-.32.61-.76,1.08-1.33,1.42-.57.33-1.23.5-1.98.5h-3.59c-.75,0-1.4-.17-1.98-.5-.57-.33-1.01-.8-1.32-1.42-.31-.61-.47-1.32-.47-2.13s.15-1.5.44-2.11c.3-.61.71-1.08,1.26-1.42.54-.34,1.17-.51,1.89-.51.09,0,.15.06.17.19l.11,1.82v.03c0,.1-.06.15-.17.15-.55,0-.99.17-1.32.51-.33.34-.5.78-.5,1.33s.17,1.01.5,1.35c.33.34.77.5,1.32.5h3.75c.54,0,.97-.17,1.31-.5.33-.34.5-.79.5-1.35s-.17-.99-.5-1.33c-.33-.34-.77-.51-1.31-.51-.11,0-.17-.06-.17-.19l.08-1.82c0-.05.02-.1.05-.13.03-.04.07-.06.11-.06.72,0,1.35.17,1.9.51s.97.81,1.27,1.42c.3.61.45,1.31.45,2.11s-.16,1.52-.47,2.13"
    style="fill: #00243c;" />
  <path
    d="M52.76,83.02s.05.08.05.13v5.1c0,.05.02.08.08.08h2.41c.05,0,.08-.03.08-.08v-3.34c0-.05.02-.1.05-.13.04-.04.08-.05.13-.05h1.51c.05,0,.1.02.13.05.04.04.05.08.05.13v3.34c0,.05.03.08.08.08h2.52c.05,0,.08-.03.08-.08v-5.1c0-.05.02-.1.06-.13s.08-.05.13-.05h1.51c.05,0,.09.02.13.05.04.04.05.08.05.13v7.18c0,.05-.02.1-.05.13-.04.04-.08.06-.13.06h-10.51c-.05,0-.1-.02-.13-.06-.04-.04-.05-.08-.05-.13v-7.18c0-.05.02-.1.05-.13.04-.04.08-.05.13-.05h1.51c.05,0,.1.02.13.05"
    style="fill: #00243c;" />
  <path
    d="M130.86,184.96c-.26.62-.64,1.1-1.14,1.44-.49.34-1.07.5-1.72.5h-.34c-.05,0-.1-.02-.13-.05-.04-.04-.05-.08-.05-.13v-1.77c0-.05.02-.1.05-.13.04-.04.08-.05.13-.05h.23c.41,0,.77-.19,1.05-.57.28-.38.43-.9.43-1.56,0-.55-.12-.96-.35-1.23-.23-.27-.52-.4-.86-.4-.25,0-.46.08-.63.25-.17.17-.32.39-.45.68-.13.29-.31.74-.54,1.36-.24.7-.48,1.28-.73,1.77-.25.48-.59.89-1.02,1.21-.43.33-.96.49-1.59.49s-1.17-.16-1.63-.48c-.47-.32-.82-.77-1.07-1.34-.25-.57-.37-1.23-.37-1.98,0-.79.14-1.49.42-2.11.28-.62.67-1.1,1.17-1.45.5-.35,1.09-.52,1.75-.52h.23c.05,0,.1.02.13.06.04.04.05.08.05.13v1.79c0,.05-.02.1-.05.13-.04.04-.08.06-.13.06h-.12c-.43,0-.81.18-1.11.54-.31.36-.46.85-.46,1.47,0,.49.1.87.31,1.14.21.27.49.41.86.41.26,0,.48-.08.65-.24.18-.16.33-.4.47-.71.14-.32.33-.81.57-1.47.27-.74.51-1.32.72-1.73.21-.42.52-.8.93-1.14.41-.34.94-.51,1.59-.51.97,0,1.74.36,2.31,1.07.57.71.85,1.68.85,2.91,0,.83-.13,1.55-.4,2.18"
    style="fill: #00243c;" />
  <path
    d="M120.65,170.96c.28-.52.68-.92,1.19-1.21.51-.28,1.1-.43,1.76-.43s1.23.15,1.73.44c.5.3.88.71,1.16,1.24.28.53.41,1.15.41,1.84v2.21c0,.05.03.08.08.08h3.97c.05,0,.1.02.13.05s.05.08.05.13v1.82c0,.05-.02.1-.05.13-.04.04-.08.05-.13.05h-10.53c-.05,0-.1-.02-.13-.05-.04-.04-.05-.08-.05-.13v-4.39c0-.68.14-1.29.42-1.8M124.73,171.94c-.28-.29-.64-.43-1.08-.43s-.82.15-1.1.43c-.28.29-.42.67-.42,1.15v1.98c0,.05.03.08.08.08h2.86c.05,0,.08-.03.08-.08v-1.98c0-.48-.14-.86-.41-1.15"
    style="fill: #00243c;" />
  <path
    d="M122.08,160.47s.05.08.05.13v5.1c0,.05.03.08.08.08h2.41c.05,0,.08-.03.08-.08v-3.34c0-.05.02-.1.05-.13.04-.04.08-.05.13-.05h1.51c.05,0,.1.02.13.05.04.04.05.08.05.13v3.34c0,.05.03.08.08.08h2.52c.05,0,.08-.03.08-.08v-5.1c0-.05.02-.1.06-.13.04-.04.08-.05.13-.05h1.51c.05,0,.09.02.13.05.04.04.05.08.05.13v7.18c0,.05-.02.1-.05.13-.04.04-.08.06-.13.06h-10.51c-.05,0-.1-.02-.13-.06-.04-.04-.05-.08-.05-.13v-7.18c0-.05.02-.1.05-.13.04-.04.08-.05.13-.05h1.51c.05,0,.1.02.13.05"
    style="fill: #00243c;" />
  <path
    d="M130.78,157.2c-.32.61-.76,1.08-1.33,1.42-.57.33-1.23.5-1.98.5h-3.59c-.75,0-1.4-.17-1.98-.5-.57-.33-1.01-.8-1.32-1.42-.31-.61-.47-1.32-.47-2.13s.15-1.5.44-2.11c.3-.61.71-1.08,1.26-1.42.54-.34,1.17-.51,1.89-.51.09,0,.15.06.17.19l.11,1.82v.03c0,.1-.06.15-.17.15-.55,0-.99.17-1.32.51-.33.34-.5.78-.5,1.33s.17,1.01.5,1.35c.33.34.77.5,1.32.5h3.75c.54,0,.97-.17,1.31-.5.33-.34.5-.79.5-1.35s-.17-.99-.5-1.33c-.33-.34-.77-.51-1.31-.51-.11,0-.17-.06-.17-.19l.08-1.82c0-.05.02-.1.05-.13.03-.04.07-.06.11-.06.72,0,1.35.17,1.9.51s.97.81,1.27,1.42c.3.61.45,1.31.45,2.11s-.16,1.52-.47,2.13"
    style="fill: #00243c;" />
  <path
    d="M131.08,149.38s-.08.05-.13.05h-10.51c-.05,0-.1-.02-.13-.05-.04-.04-.05-.08-.05-.13v-1.82c0-.05.02-.1.05-.13s.08-.05.13-.05h10.51c.05,0,.1.02.13.05s.05.08.05.13v1.82c0,.05-.02.1-.05.13"
    style="fill: #00243c;" />
  <path
    d="M130.98,138.63l-1.52.47s-.06.05-.06.08v3.82s.02.06.06.08l1.52.45c.1.03.15.1.15.2v1.97c0,.06-.02.11-.05.14-.04.03-.09.04-.16.02l-10.51-3.36c-.1-.03-.16-.1-.16-.2v-2.44c0-.1.05-.17.16-.2l10.51-3.36s.05-.01.08-.01c.09,0,.14.06.14.17v1.98c0,.1-.05.17-.15.2M127.7,142.45v-2.74c0-.06-.03-.08-.09-.06l-4.62,1.4s-.06.03-.05.05c0,.02.02.04.05.05l4.62,1.37c.06.01.09-.01.09-.06"
    style="fill: #00243c;" />
  <path
    d="M131.08,134.86s-.08.06-.13.06h-10.51c-.05,0-.1-.02-.13-.06-.04-.04-.05-.08-.05-.13v-1.82c0-.05.02-.1.05-.13s.08-.05.13-.05h8.74c.05,0,.08-.03.08-.08v-5.09c0-.05.02-.1.05-.13.04-.04.08-.05.13-.05h1.51c.05,0,.1.02.13.05.04.04.05.08.05.13v7.17c0,.05-.02.1-.05.13"
    style="fill: #00243c;" />
  <path
    d="M120.65,116.61c.28-.52.68-.92,1.19-1.21.51-.28,1.1-.43,1.76-.43s1.23.15,1.73.44c.5.3.88.71,1.16,1.24.28.54.41,1.15.41,1.84v2.21c0,.05.03.08.08.08h3.97c.05,0,.1.02.13.05s.05.08.05.13v1.82c0,.05-.02.1-.05.13-.04.04-.08.05-.13.05h-10.53c-.05,0-.1-.02-.13-.05-.04-.04-.05-.08-.05-.13v-4.39c0-.68.14-1.29.42-1.8M124.73,117.59c-.28-.29-.64-.44-1.08-.44s-.82.15-1.1.44c-.28.29-.42.67-.42,1.15v1.98c0,.05.03.08.08.08h2.86c.05,0,.08-.03.08-.08v-1.98c0-.48-.14-.86-.41-1.15"
    style="fill: #00243c;" />
  <path
    d="M130.99,107.87l-4.31,1.94s-.06.05-.06.09v1.45c0,.05.03.08.08.08h4.25c.05,0,.1.02.13.06.04.04.05.08.05.13v1.82c0,.05-.02.1-.05.13-.04.04-.08.06-.13.06h-10.51c-.05,0-.1-.02-.13-.06-.04-.04-.05-.08-.05-.13v-4.45c0-.66.13-1.25.4-1.75.27-.5.65-.89,1.15-1.17.5-.27,1.07-.41,1.73-.41.71,0,1.31.18,1.81.53.5.35.86.85,1.07,1.48.02.05.06.07.11.05l4.4-2.11s.07-.03.09-.03c.08,0,.12.06.12.17v1.91c0,.1-.05.18-.14.22M122.21,111.43h2.66c.05,0,.08-.02.08-.08v-2.04c0-.44-.13-.79-.39-1.07-.26-.27-.59-.41-1.01-.41s-.75.14-1.02.41-.4.63-.4,1.07v2.04c0,.05.03.08.08.08"
    style="fill: #00243c;" />
  <path
    d="M131.08,104.02s-.08.06-.13.06h-10.51c-.05,0-.1-.02-.13-.06-.04-.04-.05-.08-.05-.13v-1.82c0-.05.02-.1.05-.13s.08-.05.13-.05h10.51c.05,0,.1.02.13.05s.05.08.05.13v1.82c0,.05-.02.1-.05.13"
    style="fill: #00243c;" />
  <path
    d="M130.78,98.29c-.32.61-.76,1.08-1.33,1.42-.57.33-1.23.5-1.98.5h-3.59c-.75,0-1.4-.17-1.98-.5-.57-.33-1.01-.8-1.32-1.42-.31-.61-.47-1.32-.47-2.13s.15-1.5.44-2.11c.3-.61.71-1.08,1.26-1.42.54-.34,1.17-.51,1.89-.51.09,0,.15.06.17.19l.11,1.82v.03c0,.1-.06.15-.17.15-.55,0-.99.17-1.32.51-.33.34-.5.78-.5,1.33s.17,1.01.5,1.35c.33.34.77.5,1.32.5h3.75c.54,0,.97-.17,1.31-.5.33-.34.5-.79.5-1.35s-.17-.99-.5-1.33c-.33-.34-.77-.51-1.31-.51-.11,0-.17-.06-.17-.19l.08-1.82c0-.05.02-.1.05-.13.03-.04.07-.06.11-.06.72,0,1.35.17,1.9.51s.97.81,1.27,1.42c.3.61.45,1.31.45,2.11s-.16,1.52-.47,2.13"
    style="fill: #00243c;" />
  <path
    d="M122.08,83.02s.05.08.05.13v5.1c0,.05.03.08.08.08h2.41c.05,0,.08-.03.08-.08v-3.34c0-.05.02-.1.05-.13.04-.04.08-.05.13-.05h1.51c.05,0,.1.02.13.05.04.04.05.08.05.13v3.34c0,.05.03.08.08.08h2.52c.05,0,.08-.03.08-.08v-5.1c0-.05.02-.1.06-.13s.08-.05.13-.05h1.51c.05,0,.09.02.13.05.04.04.05.08.05.13v7.18c0,.05-.02.1-.05.13-.04.04-.08.06-.13.06h-10.51c-.05,0-.1-.02-.13-.06-.04-.04-.05-.08-.05-.13v-7.18c0-.05.02-.1.05-.13.04-.04.08-.05.13-.05h1.51c.05,0,.1.02.13.05"
    style="fill: #00243c;" />
  <g>
    <path
      d="M10.11,118.78s-.07.03-.12,0l-8.9-3.31s-.04,0-.05,0c-.01,0-.02.02-.02.04v3.87s.02.06.06.06h.66c.1,0,.14.05.14.14v.59c0,.1-.05.14-.14.14H.27c-.09-.01-.14-.06-.14-.16v-5.65c0-.1.05-.14.14-.14h.66s.1,0,.17.03l8.94,3.3c.08.03.12.09.12.17v.8s-.02.08-.05.11Z"
      style="fill: #00aeef;" />
    <path
      d="M9.51,112.22c-.53.54-1.23.82-2.11.82H2.88c-.88,0-1.58-.27-2.1-.82-.52-.54-.78-1.28-.78-2.19s.26-1.67.79-2.22,1.22-.83,2.09-.83h4.53c.88,0,1.58.28,2.11.83.53.55.79,1.29.79,2.22s-.26,1.65-.79,2.19ZM8.88,108.55c-.35-.37-.83-.56-1.42-.56H2.84c-.58,0-1.05.18-1.4.55-.35.37-.53.86-.53,1.48s.18,1.08.53,1.45.82.54,1.4.54h4.63c.59,0,1.07-.18,1.42-.54s.53-.85.53-1.45-.18-1.1-.53-1.48Z"
      style="fill: #00aeef;" />
    <path
      d="M3.45,92.91c.43-.42,1.02-.62,1.76-.62h4.8c.1,0,.14.05.14.14v.72c0,.1-.05.14-.14.14h-4.6c-.53,0-.94.15-1.25.45s-.47.7-.47,1.18.15.91.46,1.22.72.47,1.23.47h4.63c.1,0,.14.05.14.14v.73c0,.1-.05.14-.14.14h-4.6c-.53,0-.94.15-1.25.44s-.47.69-.47,1.19.15.91.46,1.21.72.45,1.23.45h4.63c.1,0,.14.05.14.14v.73c0,.1-.05.14-.14.14H3.05c-.09,0-.14-.05-.14-.14v-.73c0-.1.05-.14.14-.14h.57s.03,0,.04-.02,0-.03-.02-.05c-.28-.21-.48-.48-.62-.81-.14-.33-.21-.7-.21-1.1,0-.5.1-.92.3-1.28s.49-.62.87-.8c.05-.02.05-.04,0-.07-.39-.21-.69-.51-.88-.89-.2-.38-.29-.82-.29-1.3,0-.72.21-1.28.64-1.7Z"
      style="fill: #00aeef;" />
    <path
      d="M3.45,81.06c.43-.42,1.02-.62,1.76-.62h4.8c.1,0,.14.05.14.14v.72c0,.1-.05.14-.14.14h-4.6c-.53,0-.94.15-1.25.45s-.47.7-.47,1.18.15.91.46,1.22.72.47,1.23.47h4.63c.1,0,.14.05.14.14v.73c0,.1-.05.14-.14.14h-4.6c-.53,0-.94.15-1.25.44s-.47.69-.47,1.19.15.91.46,1.21.72.45,1.23.45h4.63c.1,0,.14.05.14.14v.73c0,.1-.05.14-.14.14H3.05c-.09,0-.14-.05-.14-.14v-.73c0-.1.05-.14.14-.14h.57s.03,0,.04-.02,0-.03-.02-.05c-.28-.21-.48-.48-.62-.81-.14-.33-.21-.7-.21-1.1,0-.5.1-.92.3-1.28s.49-.62.87-.8c.05-.02.05-.04,0-.07-.39-.21-.69-.51-.88-.89-.2-.38-.29-.82-.29-1.3,0-.72.21-1.28.64-1.7Z"
      style="fill: #00aeef;" />
  </g>
  <line x1="19.46" y1=".31" x2="6.57" y2=".31" style="fill: none; stroke: #00aeef; stroke-width: .44px;" />
  <line x1="18.84" y1="201.52" x2="5.95" y2="201.52" style="fill: none; stroke: #00aeef; stroke-width: .44px;" />
  <line x1="13.24" y1=".31" x2="13.24" y2="201.53"
    style="fill: none; stroke: #00aeef; stroke-dasharray: 3.23 3.23; stroke-width: .43px;" />
  <g>
    <path
      d="M43.69,227.75h.77c.09,0,.14.05.14.14v9.74c0,.1-.05.14-.14.14h-.73c-.1,0-.14-.05-.14-.14v-8.73s0-.03-.02-.04c-.01,0-.03,0-.05,0l-1.52.62h-.06c-.06.01-.1-.02-.12-.1l-.07-.54v-.03s.03-.1.1-.14l1.65-.87c.06-.03.12-.04.19-.04Z"
      style="fill: #00aeef;" />
    <path
      d="M52.59,234.68c0,.47-.04.87-.13,1.2-.16.61-.49,1.1-.97,1.45-.49.36-1.08.54-1.76.54s-1.26-.17-1.73-.52c-.48-.34-.8-.8-.97-1.38-.07-.21-.11-.42-.13-.63v-.03c0-.08.04-.12.13-.12h.76c.1,0,.15.05.16.14,0,.06.02.15.06.29.1.41.29.74.59.98.3.24.68.37,1.12.37s.84-.13,1.15-.39c.31-.26.51-.61.61-1.06.06-.22.09-.51.09-.86,0-.32-.02-.63-.07-.93-.07-.44-.26-.77-.57-1-.32-.23-.71-.34-1.17-.34-.42,0-.8.1-1.13.29-.33.19-.55.44-.64.76-.03.09-.08.13-.16.13h-.77c-.1,0-.14-.05-.14-.14v-5.55c0-.1.05-.14.14-.14h5.02c.1,0,.14.05.14.14v.6c0,.1-.05.14-.14.14h-4.08s-.06.02-.06.06v3.47s0,.03,0,.04c.01,0,.03,0,.05-.01.24-.22.52-.39.85-.51.32-.12.67-.18,1.03-.18.68,0,1.25.16,1.72.49.47.33.77.79.9,1.4.09.42.13.85.13,1.29Z"
      style="fill: #00aeef;" />
    <path
      d="M66.35,231.07c.42.43.62,1.02.62,1.76v4.8c0,.1-.05.14-.14.14h-.72c-.1,0-.14-.05-.14-.14v-4.6c0-.53-.15-.94-.45-1.25s-.7-.47-1.18-.47-.91.15-1.22.46c-.31.31-.47.72-.47,1.23v4.63c0,.1-.05.14-.14.14h-.73c-.1,0-.14-.05-.14-.14v-4.6c0-.53-.15-.94-.44-1.25s-.69-.47-1.19-.47-.91.15-1.21.46c-.3.31-.45.72-.45,1.23v4.63c0,.1-.05.14-.14.14h-.73c-.1,0-.14-.05-.14-.14v-6.96c0-.1.05-.14.14-.14h.73c.1,0,.14.05.14.14v.57s0,.03.02.04.03,0,.05-.02c.21-.28.48-.48.81-.62.33-.14.7-.21,1.1-.21.5,0,.92.1,1.28.3.35.2.62.49.8.87.02.05.04.05.07,0,.21-.39.51-.68.89-.88.38-.2.82-.29,1.3-.29.72,0,1.28.21,1.7.64Z"
      style="fill: #00aeef;" />
    <path
      d="M78.21,231.07c.42.43.62,1.02.62,1.76v4.8c0,.1-.05.14-.14.14h-.72c-.1,0-.14-.05-.14-.14v-4.6c0-.53-.15-.94-.45-1.25s-.7-.47-1.18-.47-.91.15-1.22.46c-.31.31-.47.72-.47,1.23v4.63c0,.1-.05.14-.14.14h-.73c-.1,0-.14-.05-.14-.14v-4.6c0-.53-.15-.94-.44-1.25s-.69-.47-1.19-.47-.91.15-1.21.46c-.3.31-.45.72-.45,1.23v4.63c0,.1-.05.14-.14.14h-.73c-.1,0-.14-.05-.14-.14v-6.96c0-.1.05-.14.14-.14h.73c.1,0,.14.05.14.14v.57s0,.03.02.04.03,0,.05-.02c.21-.28.48-.48.81-.62.33-.14.7-.21,1.1-.21.5,0,.92.1,1.28.3.35.2.62.49.8.87.02.05.04.05.07,0,.21-.39.51-.68.89-.88.38-.2.82-.29,1.3-.29.72,0,1.28.21,1.7.64Z"
      style="fill: #00aeef;" />
  </g>
  <line x1="81.23" y1="221.28" x2="81.23" y2="210.48" style="fill: none; stroke: #00aeef; stroke-width: .44px;" />
  <line x1="37.87" y1="210.48" x2="37.87" y2="221.28" style="fill: none; stroke: #00aeef; stroke-width: .44px;" />
  <line x1="37.87" y1="215.28" x2="80.41" y2="215.28"
    style="fill: none; stroke: #00aeef; stroke-dasharray: 3.87 3.87; stroke-width: .51px;" />
  <rect x="110.8" y="36.21" width="30.05" height="30.05" style="fill: #fdb927;" />
  <path
    d="M112.05,35.3v-3.14s.01-.05.04-.05h.64c.21,0,.38.08.51.23.13.16.19.36.19.62v1.51c0,.26-.06.47-.19.63-.13.16-.3.23-.51.23h-.64s-.04-.01-.04-.05M112.36,35.06h.37c.12,0,.22-.06.29-.16.07-.11.11-.25.11-.43v-1.49c0-.18-.04-.32-.11-.43-.07-.11-.17-.16-.3-.16h-.37s-.02,0-.02.02v2.62s0,.02.02.02"
    style="fill: #00243c;" />
  <path d="M113.86,35.3v-3.14s.01-.05.04-.05h.21s.04.02.04.05v3.14s-.02.05-.04.05h-.21s-.04-.02-.04-.05"
    style="fill: #00243c;" />
  <path
    d="M115.9,32.4h-.96s-.02,0-.02.02v1.15s0,.02.02.02h.6s.04.02.04.05v.2s-.02.05-.04.05h-.6s-.02,0-.02.02v1.41s-.01.05-.04.05h-.21s-.04-.02-.04-.05v-3.14s.01-.05.04-.05h1.23s.04.01.04.05v.19s-.01.05-.04.05"
    style="fill: #00243c;" />
  <path
    d="M117.45,32.4h-.96s-.02,0-.02.02v1.15s0,.02.02.02h.6s.04.02.04.05v.2s-.02.05-.04.05h-.6s-.02,0-.02.02v1.41s-.01.05-.04.05h-.21s-.04-.02-.04-.05v-3.14s.01-.05.04-.05h1.23s.04.01.04.05v.19s-.01.05-.04.05"
    style="fill: #00243c;" />
  <path
    d="M119.02,32.4h-.96s-.02,0-.02.02v1.15s0,.02.02.02h.61s.04.02.04.05v.2s-.01.05-.04.05h-.61s-.02,0-.02.02v1.15s0,.02.02.02h.96s.04.02.04.05v.19s-.01.05-.04.05h-1.23s-.04-.02-.04-.05v-3.14s.01-.05.04-.05h1.23s.04.01.04.05v.19s-.01.05-.04.05"
    style="fill: #00243c;" />
  <path
    d="M120.52,35.31l-.43-1.44s0-.01-.02-.01h-.36s-.02,0-.02.02v1.42s-.01.05-.04.05h-.21s-.04-.02-.04-.05v-3.15s.01-.05.04-.05h.68c.2,0,.37.08.49.24.12.16.19.38.19.64,0,.2-.04.38-.12.52-.08.15-.18.24-.32.3-.01,0-.01,0-.01.02l.45,1.45v.02s0,.03-.03.03h-.22s-.04-.01-.05-.04M119.7,32.42v1.16s0,.02.02.02h.37c.13,0,.23-.05.31-.16.08-.11.12-.25.12-.43s-.04-.33-.12-.44c-.08-.11-.18-.16-.31-.16h-.37s-.02,0-.02.02"
    style="fill: #00243c;" />
  <path
    d="M122.4,32.4h-.96s-.02,0-.02.02v1.15s0,.02.02.02h.61s.04.02.04.05v.2s-.01.05-.04.05h-.61s-.02,0-.02.02v1.15s0,.02.02.02h.96s.04.02.04.05v.19s-.02.05-.04.05h-1.23s-.04-.02-.04-.05v-3.14s.01-.05.04-.05h1.23s.04.01.04.05v.19s-.02.05-.04.05"
    style="fill: #00243c;" />
  <path
    d="M122.79,35.3v-3.14s.01-.05.04-.05h.22s.04.01.04.04l.84,2.33s0,.01.01.01,0,0,0-.01v-2.32s.01-.05.04-.05h.21s.04.02.04.05v3.14s-.01.05-.04.05h-.22s-.04-.01-.05-.04l-.84-2.33s0-.01-.01-.01c0,0,0,0,0,.02v2.31s-.01.05-.04.05h-.21s-.04-.02-.04-.05"
    style="fill: #00243c;" />
  <path
    d="M124.56,35.3v-.21s0-.03.01-.06l1.01-2.61s0-.01,0-.02c0,0,0,0-.01,0h-.97s-.04-.02-.04-.05v-.19s.01-.05.04-.05h1.26s.04.02.04.05v.21s0,.03-.01.06l-1.01,2.61s0,.01,0,.02c0,0,0,0,.01,0h.96s.04.02.04.05v.19s-.01.05-.04.05h-1.26s-.04-.02-.04-.05"
    style="fill: #00243c;" />
  <path d="M126.24,35.3v-3.14s.01-.05.04-.05h.21s.04.02.04.05v3.14s-.01.05-.04.05h-.21s-.04-.02-.04-.05"
    style="fill: #00243c;" />
  <path
    d="M128.16,35.31l-.1-.57s0-.01,0-.01c0,0,0,0-.02,0h-.75s-.01,0-.01,0c0,0,0,0,0,.01l-.11.57s-.02.04-.05.04h-.21s-.02,0-.03-.01c0,0,0-.02,0-.04l.63-3.14s.02-.04.05-.04h.25s.04.01.05.04l.63,3.14h0s-.01.05-.04.05h-.22s-.04-.01-.05-.04M127.33,34.45h.65s.01,0,.01-.02l-.33-1.78s0-.01,0-.01c0,0,0,0,0,.01l-.33,1.78s0,.02.01.02"
    style="fill: #00243c;" />
  <path d="M129.49,35.3v-3.14s.01-.05.04-.05h.21s.04.02.04.05v3.14s-.02.05-.04.05h-.21s-.04-.02-.04-.05"
    style="fill: #00243c;" />
  <path
    d="M132.09,35.31l-.43-1.44s0-.01-.02-.01h-.36s-.02,0-.02.02v1.42s-.01.05-.04.05h-.21s-.04-.02-.04-.05v-3.15s.01-.05.04-.05h.68c.2,0,.37.08.49.24.12.16.19.38.19.64,0,.2-.04.38-.12.52-.08.15-.18.24-.32.3-.01,0-.01,0-.01.02l.45,1.45v.02s0,.03-.03.03h-.22s-.04-.01-.05-.04M131.27,32.42v1.16s0,.02.02.02h.37c.13,0,.23-.05.31-.16.08-.11.12-.25.12-.43s-.04-.33-.12-.44c-.08-.11-.18-.16-.31-.16h-.37s-.02,0-.02.02"
    style="fill: #00243c;" />
  <path d="M132.7,35.3v-3.14s.01-.05.04-.05h.21s.04.02.04.05v3.14s-.01.05-.04.05h-.21s-.04-.02-.04-.05"
    style="fill: #00243c;" />
  <path
    d="M134.74,32.4h-.96s-.02,0-.02.02v1.15s0,.02.02.02h.6s.04.02.04.05v.2s-.02.05-.04.05h-.6s-.02,0-.02.02v1.41s-.01.05-.04.05h-.21s-.04-.02-.04-.05v-3.14s.01-.05.04-.05h1.23s.04.01.04.05v.19s-.01.05-.04.05"
    style="fill: #00243c;" />
  <path d="M135.03,35.3v-3.14s.01-.05.04-.05h.21s.04.02.04.05v3.14s-.01.05-.04.05h-.21s-.04-.02-.04-.05"
    style="fill: #00243c;" />
  <path
    d="M135.97,35.14c-.13-.16-.2-.38-.2-.65v-2.33s.01-.05.04-.05h.21s.04.02.04.05v2.37c0,.17.04.31.11.41.08.1.18.16.3.16s.23-.05.31-.16c.08-.1.12-.24.12-.41v-2.37s.01-.05.04-.05h.21s.04.02.04.05v2.33c0,.27-.07.48-.2.65-.13.16-.31.25-.52.25s-.39-.08-.52-.25"
    style="fill: #00243c;" />
  <path
    d="M138.97,32.16v.19s-.01.05-.04.05h-.55s-.02,0-.02.02v2.88s-.01.05-.04.05h-.21s-.04-.02-.04-.05v-2.88s0-.02-.02-.02h-.52s-.04-.02-.04-.05v-.19s.01-.05.04-.05h1.39s.04.02.04.05"
    style="fill: #00243c;" />
  <path d="M139.29,35.3v-3.14s.01-.05.04-.05h.21s.04.02.04.05v3.14s-.01.05-.04.05h-.21s-.04-.02-.04-.05"
    style="fill: #00243c;" />
  <path
    d="M111.84,70.77c-.13-.15-.19-.35-.19-.59v-.11s.01-.05.04-.05h.21s.04.02.04.05v.1c0,.16.04.29.11.4.08.1.17.15.29.15s.21-.05.29-.14c.08-.1.12-.22.12-.38,0-.1-.02-.19-.06-.27-.04-.07-.09-.14-.15-.2-.06-.06-.16-.14-.3-.26-.14-.11-.25-.21-.33-.29-.08-.08-.15-.18-.2-.29-.05-.11-.08-.25-.08-.4,0-.24.06-.43.19-.57.12-.14.29-.21.49-.21.21,0,.38.08.51.23.12.15.19.35.19.61v.12s-.01.05-.04.05h-.21s-.04-.02-.04-.05v-.12c0-.16-.04-.29-.11-.39-.07-.1-.17-.15-.29-.15-.11,0-.2.04-.27.13-.07.09-.11.21-.11.37,0,.1.02.18.05.25.03.07.08.14.14.21.06.07.16.15.28.25.17.14.29.25.37.33.08.09.15.18.19.28.04.1.07.22.07.36,0,.25-.07.46-.2.61-.13.15-.3.23-.5.23s-.37-.08-.5-.23"
    style="fill: #00243c;" />
  <path
    d="M114.63,68.02h-.96s-.02,0-.02.02v1.15s0,.02.02.02h.61s.04.02.04.05v.2s-.01.05-.04.05h-.61s-.02,0-.02.02v1.15s0,.02.02.02h.96s.04.02.04.05v.19s-.01.05-.04.05h-1.23s-.04-.02-.04-.05v-3.14s.01-.05.04-.05h1.23s.04.01.04.05v.19s-.01.05-.04.05"
    style="fill: #00243c;" />
  <path
    d="M116.23,67.97c.12.16.19.38.19.65s-.06.48-.18.64c-.12.16-.28.24-.48.24h-.43s-.02,0-.02.02v1.4s-.01.05-.04.05h-.21s-.04-.02-.04-.05v-3.15s.02-.05.04-.05h.69c.2,0,.37.08.49.25M116.01,69.07c.08-.11.12-.26.12-.44s-.04-.33-.12-.45c-.08-.11-.18-.17-.3-.17h-.38s-.02,0-.02.02v1.19s0,.02.02.02h.38c.12,0,.23-.06.3-.17"
    style="fill: #00243c;" />
  <path
    d="M117.77,70.92l-.1-.57s0-.01,0-.01c0,0,0,0-.02,0h-.75s-.01,0-.01,0c0,0,0,0,0,.01l-.11.57s-.02.04-.05.04h-.21s-.02,0-.03-.01c0,0,0-.02,0-.04l.63-3.14s.02-.04.05-.04h.25s.04.01.05.04l.63,3.14h0s-.01.05-.04.05h-.22s-.04-.01-.05-.04M116.94,70.06h.65s.01,0,.01-.02l-.33-1.78s0-.01,0-.01c0,0,0,0,0,.01l-.33,1.78s0,.02.01.02"
    style="fill: #00243c;" />
  <path
    d="M119.51,70.93l-.43-1.44s0-.01-.02-.01h-.36s-.02,0-.02.02v1.42s-.01.05-.04.05h-.21s-.04-.02-.04-.05v-3.15s.01-.05.04-.05h.68c.2,0,.37.08.49.24.12.16.19.38.19.64,0,.2-.04.38-.12.52-.08.15-.18.24-.32.3-.01,0-.01,0-.01.02l.45,1.45v.02s0,.03-.03.03h-.22s-.04-.01-.05-.04M118.69,68.03v1.16s0,.02.02.02h.37c.13,0,.23-.05.31-.16.08-.11.12-.25.12-.43s-.04-.33-.12-.44c-.08-.11-.18-.16-.31-.16h-.37s-.02,0-.02.02"
    style="fill: #00243c;" />
  <path
    d="M121.31,70.92l-.1-.57s0-.01,0-.01c0,0,0,0-.02,0h-.75s-.01,0-.01,0c0,0,0,0,0,.01l-.11.57s-.02.04-.05.04h-.21s-.02,0-.03-.01c0,0,0-.02,0-.04l.63-3.14s.02-.04.05-.04h.25s.04.01.05.04l.63,3.14h0s-.01.05-.04.05h-.22s-.04-.01-.05-.04M120.48,70.06h.65s.01,0,.01-.02l-.33-1.78s0-.01,0-.01c0,0,0,0,0,.01l-.33,1.78s0,.02.01.02"
    style="fill: #00243c;" />
  <path
    d="M123,67.78v.19s-.01.05-.04.05h-.55s-.02,0-.02.02v2.88s-.01.05-.04.05h-.21s-.04-.02-.04-.05v-2.88s0-.02-.02-.02h-.52s-.04-.02-.04-.05v-.19s.01-.05.04-.05h1.39s.04.02.04.05"
    style="fill: #00243c;" />
  <path
    d="M124.59,68.02h-.96s-.02,0-.02.02v1.15s0,.02.02.02h.61s.04.02.04.05v.2s-.01.05-.04.05h-.61s-.02,0-.02.02v1.15s0,.02.02.02h.96s.04.02.04.05v.19s-.01.05-.04.05h-1.23s-.04-.02-.04-.05v-3.14s.01-.05.04-.05h1.23s.04.01.04.05v.19s-.01.05-.04.05"
    style="fill: #00243c;" />
  <path
    d="M127.01,67.78v.19s-.01.05-.04.05h-.55s-.02,0-.02.02v2.88s-.01.05-.04.05h-.21s-.04-.02-.04-.05v-2.88s0-.02-.02-.02h-.52s-.04-.02-.04-.05v-.19s.01-.05.04-.05h1.39s.04.02.04.05"
    style="fill: #00243c;" />
  <path
    d="M128.43,67.73h.21s.04.02.04.05v3.14s-.01.05-.04.05h-.21s-.04-.02-.04-.05v-1.41s0-.02-.02-.02h-.74s-.02,0-.02.02v1.41s-.01.05-.04.05h-.21s-.04-.02-.04-.05v-3.14s.01-.05.04-.05h.21s.04.02.04.05v1.4s0,.02.02.02h.74s.02,0,.02-.02v-1.4s.02-.05.04-.05"
    style="fill: #00243c;" />
  <path
    d="M130.41,68.02h-.96s-.02,0-.02.02v1.15s0,.02.02.02h.61s.04.02.04.05v.2s-.01.05-.04.05h-.61s-.02,0-.02.02v1.15s0,.02.02.02h.96s.04.02.04.05v.19s-.01.05-.04.05h-1.23s-.04-.02-.04-.05v-3.14s.01-.05.04-.05h1.23s.04.01.04.05v.19s-.01.05-.04.05"
    style="fill: #00243c;" />
  <path
    d="M131.88,70.92l-.55-3.14h0s.01-.05.04-.05h.22s.04.01.04.04l.39,2.43s0,0,0,0,0,0,0,0l.34-2.43s.02-.04.04-.04h.19s.04.01.04.04l.35,2.43s0,0,0,0c0,0,0,0,0,0l.36-2.43s.02-.04.04-.04h.22s.02,0,.03.01c0,0,0,.02,0,.04l-.51,3.14s-.02.04-.05.04h-.2s-.04-.01-.04-.04l-.35-2.44s0,0-.01,0c0,0,0,0,0,0l-.34,2.44s-.02.04-.04.04h-.2s-.04-.01-.05-.04"
    style="fill: #00243c;" />
  <path
    d="M134.91,70.92l-.1-.57s0-.01,0-.01c0,0,0,0-.02,0h-.75s-.01,0-.01,0c0,0,0,0,0,.01l-.11.57s-.02.04-.05.04h-.21s-.03,0-.03-.01c0,0,0-.02,0-.04l.63-3.14s.02-.04.05-.04h.25s.04.01.04.04l.63,3.14h0s-.01.05-.04.05h-.21s-.04-.01-.05-.04M134.08,70.06h.65s.01,0,.01-.02l-.33-1.78s0-.01,0-.01c0,0,0,0,0,.01l-.33,1.78s0,.02.01.02"
    style="fill: #00243c;" />
  <path
    d="M135.55,70.77c-.13-.15-.19-.35-.19-.59v-.11s.01-.05.04-.05h.21s.04.02.04.05v.1c0,.16.04.29.11.4.08.1.17.15.29.15s.21-.05.29-.14c.08-.1.12-.22.12-.38,0-.1-.02-.19-.06-.27-.04-.07-.09-.14-.15-.2-.06-.06-.16-.14-.3-.26-.14-.11-.25-.21-.33-.29-.08-.08-.15-.18-.2-.29-.05-.11-.08-.25-.08-.4,0-.24.06-.43.19-.57.12-.14.29-.21.49-.21.21,0,.38.08.51.23.13.15.19.35.19.61v.12s-.01.05-.04.05h-.21s-.04-.02-.04-.05v-.12c0-.16-.04-.29-.11-.39-.07-.1-.17-.15-.29-.15-.11,0-.2.04-.27.13-.07.09-.11.21-.11.37,0,.1.02.18.05.25.03.07.08.14.14.21.06.07.16.15.28.25.17.14.29.25.37.33.08.09.15.18.19.28.04.1.07.22.07.36,0,.25-.07.46-.2.61-.13.15-.3.23-.5.23s-.37-.08-.5-.23"
    style="fill: #00243c;" />
  <path
    d="M138.35,67.78v.19s-.01.05-.04.05h-.55s-.02,0-.02.02v2.88s-.01.05-.04.05h-.21s-.04-.02-.04-.05v-2.88s0-.02-.02-.02h-.52s-.04-.02-.04-.05v-.19s.01-.05.04-.05h1.39s.04.02.04.05"
    style="fill: #00243c;" />
  <path
    d="M139.95,68.02h-.96s-.02,0-.02.02v1.15s0,.02.02.02h.61s.04.02.04.05v.2s-.01.05-.04.05h-.61s-.02,0-.02.02v1.15s0,.02.02.02h.96s.04.02.04.05v.19s-.02.05-.04.05h-1.23s-.04-.02-.04-.05v-3.14s.01-.05.04-.05h1.23s.04.01.04.05v.19s-.02.05-.04.05"
    style="fill: #00243c;" />
  <rect x="111.64" y="36.98" width="28.35" height="28.34" style="fill: #fdb927;" />
  <path
    d="M111.64,37.84h.86v-.86h-.86v.86ZM112.5,37.84h.86v-.86h-.86v.86ZM113.36,37.84h.86v-.86h-.86v.86ZM114.22,37.84h.86v-.86h-.86v.86ZM115.08,37.84h.86v-.86h-.86v.86ZM115.94,37.84h.86v-.86h-.86v.86ZM116.8,37.84h.86v-.86h-.86v.86Z"
    style="fill: #00243c;" />
  <rect x="117.66" y="36.98" width=".86" height=".86" style="fill: #fdb927;" />
  <rect x="118.51" y="36.98" width=".86" height=".86" style="fill: #00243c;" />
  <rect x="119.37" y="36.98" width=".86" height=".86" style="fill: #fdb927;" />
  <rect x="120.23" y="36.98" width=".86" height=".86" style="fill: #00243c;" />
  <rect x="121.09" y="36.98" width=".86" height=".86" style="fill: #fdb927;" />
  <rect x="121.95" y="36.98" width=".86" height=".86" style="fill: #00243c;" />
  <rect x="122.81" y="36.98" width=".86" height=".86" style="fill: #fdb927;" />
  <rect x="123.67" y="36.98" width=".86" height=".86" style="fill: #00243c;" />
  <path d="M124.53,37.84h.86v-.86h-.86v.86ZM125.39,37.84h.86v-.86h-.86v.86Z" style="fill: #fdb927;" />
  <path d="M126.25,37.84h.86v-.86h-.86v.86ZM127.1,37.84h.86v-.86h-.86v.86ZM127.96,37.84h.86v-.86h-.86v.86Z"
    style="fill: #00243c;" />
  <rect x="128.82" y="36.98" width=".86" height=".86" style="fill: #fdb927;" />
  <rect x="129.68" y="36.98" width=".86" height=".86" style="fill: #00243c;" />
  <rect x="130.54" y="36.98" width=".86" height=".86" style="fill: #fdb927;" />
  <path d="M131.4,37.84h.86v-.86h-.86v.86ZM132.26,37.84h.86v-.86h-.86v.86Z" style="fill: #00243c;" />
  <rect x="133.12" y="36.98" width=".86" height=".86" style="fill: #fdb927;" />
  <path
    d="M111.64,38.7h.86v-.86h-.86v.86ZM133.98,37.84h.86v-.86h-.86v.86ZM134.84,37.84h.86v-.86h-.86v.86ZM135.7,37.84h.86v-.86h-.86v.86ZM136.55,37.84h.86v-.86h-.86v.86ZM137.41,37.84h.86v-.86h-.86v.86ZM138.27,37.84h.86v-.86h-.86v.86ZM139.13,37.84h.86v-.86h-.86v.86Z"
    style="fill: #00243c;" />
  <path
    d="M112.5,38.7h.86v-.86h-.86v.86ZM113.36,38.7h.86v-.86h-.86v.86ZM114.22,38.7h.86v-.86h-.86v.86ZM115.08,38.7h.86v-.86h-.86v.86ZM115.94,38.7h.86v-.86h-.86v.86Z"
    style="fill: #fdb927;" />
  <rect x="116.8" y="37.84" width=".86" height=".86" style="fill: #00243c;" />
  <rect x="117.66" y="37.84" width=".86" height=".86" style="fill: #fdb927;" />
  <rect x="118.51" y="37.84" width=".86" height=".86" style="fill: #00243c;" />
  <rect x="119.37" y="37.84" width=".86" height=".86" style="fill: #fdb927;" />
  <path d="M120.23,38.7h.86v-.86h-.86v.86ZM121.09,38.7h.86v-.86h-.86v.86Z" style="fill: #00243c;" />
  <path d="M121.95,38.7h.86v-.86h-.86v.86ZM122.81,38.7h.86v-.86h-.86v.86ZM123.67,38.7h.86v-.86h-.86v.86Z"
    style="fill: #fdb927;" />
  <path d="M124.53,38.7h.86v-.86h-.86v.86ZM125.39,38.7h.86v-.86h-.86v.86ZM126.25,38.7h.86v-.86h-.86v.86Z"
    style="fill: #00243c;" />
  <rect x="127.1" y="37.84" width=".86" height=".86" style="fill: #fdb927;" />
  <rect x="127.96" y="37.84" width=".86" height=".86" style="fill: #00243c;" />
  <path
    d="M128.82,38.7h.86v-.86h-.86v.86ZM129.68,38.7h.86v-.86h-.86v.86ZM130.54,38.7h.86v-.86h-.86v.86ZM131.4,38.7h.86v-.86h-.86v.86Z"
    style="fill: #fdb927;" />
  <rect x="132.26" y="37.84" width=".86" height=".86" style="fill: #00243c;" />
  <rect x="133.12" y="37.84" width=".86" height=".86" style="fill: #fdb927;" />
  <rect x="133.98" y="37.84" width=".86" height=".86" style="fill: #00243c;" />
  <path
    d="M134.84,38.7h.86v-.86h-.86v.86ZM135.7,38.7h.86v-.86h-.86v.86ZM136.55,38.7h.86v-.86h-.86v.86ZM137.41,38.7h.86v-.86h-.86v.86ZM138.27,38.7h.86v-.86h-.86v.86Z"
    style="fill: #fdb927;" />
  <path d="M111.64,39.56h.86v-.86h-.86v.86ZM139.13,38.7h.86v-.86h-.86v.86Z" style="fill: #00243c;" />
  <rect x="112.5" y="38.7" width=".86" height=".86" style="fill: #fdb927;" />
  <path d="M113.36,39.56h.86v-.86h-.86v.86ZM114.22,39.56h.86v-.86h-.86v.86ZM115.08,39.56h.86v-.86h-.86v.86Z"
    style="fill: #00243c;" />
  <rect x="115.94" y="38.7" width=".86" height=".86" style="fill: #fdb927;" />
  <rect x="116.8" y="38.7" width=".86" height=".86" style="fill: #00243c;" />
  <rect x="117.66" y="38.7" width=".86" height=".86" style="fill: #fdb927;" />
  <rect x="118.51" y="38.7" width=".86" height=".86" style="fill: #00243c;" />
  <rect x="119.37" y="38.7" width=".86" height=".86" style="fill: #fdb927;" />
  <rect x="120.23" y="38.7" width=".86" height=".86" style="fill: #00243c;" />
  <rect x="121.09" y="38.7" width=".86" height=".86" style="fill: #fdb927;" />
  <path d="M121.95,39.56h.86v-.86h-.86v.86ZM122.81,39.56h.86v-.86h-.86v.86ZM123.67,39.56h.86v-.86h-.86v.86Z"
    style="fill: #00243c;" />
  <path d="M124.53,39.56h.86v-.86h-.86v.86ZM125.39,39.56h.86v-.86h-.86v.86Z" style="fill: #fdb927;" />
  <rect x="126.25" y="38.7" width=".86" height=".86" style="fill: #00243c;" />
  <path d="M127.1,39.56h.86v-.86h-.86v.86ZM127.96,39.56h.86v-.86h-.86v.86Z" style="fill: #fdb927;" />
  <path
    d="M128.82,39.56h.86v-.86h-.86v.86ZM129.68,39.56h.86v-.86h-.86v.86ZM130.54,39.56h.86v-.86h-.86v.86ZM131.4,39.56h.86v-.86h-.86v.86ZM132.26,39.56h.86v-.86h-.86v.86Z"
    style="fill: #00243c;" />
  <rect x="133.12" y="38.7" width=".86" height=".86" style="fill: #fdb927;" />
  <rect x="133.98" y="38.7" width=".86" height=".86" style="fill: #00243c;" />
  <rect x="134.84" y="38.7" width=".86" height=".86" style="fill: #fdb927;" />
  <path d="M135.7,39.56h.86v-.86h-.86v.86ZM136.55,39.56h.86v-.86h-.86v.86ZM137.41,39.56h.86v-.86h-.86v.86Z"
    style="fill: #00243c;" />
  <rect x="138.27" y="38.7" width=".86" height=".86" style="fill: #fdb927;" />
  <path d="M111.64,40.42h.86v-.86h-.86v.86ZM139.13,39.56h.86v-.86h-.86v.86Z" style="fill: #00243c;" />
  <rect x="112.5" y="39.56" width=".86" height=".86" style="fill: #fdb927;" />
  <path d="M113.36,40.42h.86v-.86h-.86v.86ZM114.22,40.42h.86v-.86h-.86v.86ZM115.08,40.42h.86v-.86h-.86v.86Z"
    style="fill: #00243c;" />
  <rect x="115.94" y="39.56" width=".86" height=".86" style="fill: #fdb927;" />
  <rect x="116.8" y="39.56" width=".86" height=".86" style="fill: #00243c;" />
  <path d="M117.66,40.42h.86v-.86h-.86v.86ZM118.51,40.42h.86v-.86h-.86v.86Z" style="fill: #fdb927;" />
  <rect x="119.37" y="39.56" width=".86" height=".86" style="fill: #00243c;" />
  <path d="M120.23,40.42h.86v-.86h-.86v.86ZM121.09,40.42h.86v-.86h-.86v.86Z" style="fill: #fdb927;" />
  <path d="M121.95,40.42h.86v-.86h-.86v.86ZM122.81,40.42h.86v-.86h-.86v.86ZM123.67,40.42h.86v-.86h-.86v.86Z"
    style="fill: #00243c;" />
  <rect x="124.53" y="39.56" width=".86" height=".86" style="fill: #fdb927;" />
  <rect x="125.39" y="39.56" width=".86" height=".86" style="fill: #00243c;" />
  <rect x="126.25" y="39.56" width=".86" height=".86" style="fill: #fdb927;" />
  <path d="M127.1,40.42h.86v-.86h-.86v.86ZM127.96,40.42h.86v-.86h-.86v.86Z" style="fill: #00243c;" />
  <path d="M128.82,40.42h.86v-.86h-.86v.86ZM129.68,40.42h.86v-.86h-.86v.86Z" style="fill: #fdb927;" />
  <path d="M130.54,40.42h.86v-.86h-.86v.86ZM131.4,40.42h.86v-.86h-.86v.86ZM132.26,40.42h.86v-.86h-.86v.86Z"
    style="fill: #00243c;" />
  <rect x="133.12" y="39.56" width=".86" height=".86" style="fill: #fdb927;" />
  <rect x="133.98" y="39.56" width=".86" height=".86" style="fill: #00243c;" />
  <rect x="134.84" y="39.56" width=".86" height=".86" style="fill: #fdb927;" />
  <path d="M135.7,40.42h.86v-.86h-.86v.86ZM136.55,40.42h.86v-.86h-.86v.86ZM137.41,40.42h.86v-.86h-.86v.86Z"
    style="fill: #00243c;" />
  <rect x="138.27" y="39.56" width=".86" height=".86" style="fill: #fdb927;" />
  <path d="M111.64,41.28h.86v-.86h-.86v.86ZM139.13,40.42h.86v-.86h-.86v.86Z" style="fill: #00243c;" />
  <rect x="112.5" y="40.42" width=".86" height=".86" style="fill: #fdb927;" />
  <path d="M113.36,41.28h.86v-.86h-.86v.86ZM114.22,41.28h.86v-.86h-.86v.86ZM115.08,41.28h.86v-.86h-.86v.86Z"
    style="fill: #00243c;" />
  <rect x="115.94" y="40.42" width=".86" height=".86" style="fill: #fdb927;" />
  <rect x="116.8" y="40.42" width=".86" height=".86" style="fill: #00243c;" />
  <path d="M117.66,41.28h.86v-.86h-.86v.86ZM118.51,41.28h.86v-.86h-.86v.86Z" style="fill: #fdb927;" />
  <rect x="119.37" y="40.42" width=".86" height=".86" style="fill: #00243c;" />
  <rect x="120.23" y="40.42" width=".86" height=".86" style="fill: #fdb927;" />
  <rect x="121.09" y="40.42" width=".86" height=".86" style="fill: #00243c;" />
  <path d="M121.95,41.28h.86v-.86h-.86v.86ZM122.81,41.28h.86v-.86h-.86v.86Z" style="fill: #fdb927;" />
  <path
    d="M123.67,41.28h.86v-.86h-.86v.86ZM124.53,41.28h.86v-.86h-.86v.86ZM125.39,41.28h.86v-.86h-.86v.86ZM126.25,41.28h.86v-.86h-.86v.86Z"
    style="fill: #00243c;" />
  <path d="M127.1,41.28h.86v-.86h-.86v.86ZM127.96,41.28h.86v-.86h-.86v.86Z" style="fill: #fdb927;" />
  <rect x="128.82" y="40.42" width=".86" height=".86" style="fill: #00243c;" />
  <rect x="129.68" y="40.42" width=".86" height=".86" style="fill: #fdb927;" />
  <path d="M130.54,41.28h.86v-.86h-.86v.86ZM131.4,41.28h.86v-.86h-.86v.86Z" style="fill: #00243c;" />
  <path d="M132.26,41.28h.86v-.86h-.86v.86ZM133.12,41.28h.86v-.86h-.86v.86Z" style="fill: #fdb927;" />
  <rect x="133.98" y="40.42" width=".86" height=".86" style="fill: #00243c;" />
  <rect x="134.84" y="40.42" width=".86" height=".86" style="fill: #fdb927;" />
  <path d="M135.7,41.28h.86v-.86h-.86v.86ZM136.55,41.28h.86v-.86h-.86v.86ZM137.41,41.28h.86v-.86h-.86v.86Z"
    style="fill: #00243c;" />
  <rect x="138.27" y="40.42" width=".86" height=".86" style="fill: #fdb927;" />
  <path d="M111.64,42.14h.86v-.86h-.86v.86ZM139.13,41.28h.86v-.86h-.86v.86Z" style="fill: #00243c;" />
  <path
    d="M112.5,42.14h.86v-.86h-.86v.86ZM113.36,42.14h.86v-.86h-.86v.86ZM114.22,42.14h.86v-.86h-.86v.86ZM115.08,42.14h.86v-.86h-.86v.86ZM115.94,42.14h.86v-.86h-.86v.86Z"
    style="fill: #fdb927;" />
  <rect x="116.8" y="41.28" width=".86" height=".86" style="fill: #00243c;" />
  <rect x="117.66" y="41.28" width=".86" height=".86" style="fill: #fdb927;" />
  <rect x="118.51" y="41.28" width=".86" height=".86" style="fill: #00243c;" />
  <path
    d="M119.37,42.14h.86v-.86h-.86v.86ZM120.23,42.14h.86v-.86h-.86v.86ZM121.09,42.14h.86v-.86h-.86v.86ZM121.95,42.14h.86v-.86h-.86v.86Z"
    style="fill: #fdb927;" />
  <rect x="122.81" y="41.28" width=".86" height=".86" style="fill: #00243c;" />
  <path
    d="M123.67,42.14h.86v-.86h-.86v.86ZM124.53,42.14h.86v-.86h-.86v.86ZM125.39,42.14h.86v-.86h-.86v.86ZM126.25,42.14h.86v-.86h-.86v.86Z"
    style="fill: #fdb927;" />
  <path d="M127.1,42.14h.86v-.86h-.86v.86ZM127.96,42.14h.86v-.86h-.86v.86ZM128.82,42.14h.86v-.86h-.86v.86Z"
    style="fill: #00243c;" />
  <rect x="129.68" y="41.28" width=".86" height=".86" style="fill: #fdb927;" />
  <rect x="130.54" y="41.28" width=".86" height=".86" style="fill: #00243c;" />
  <rect x="131.4" y="41.28" width=".86" height=".86" style="fill: #fdb927;" />
  <rect x="132.26" y="41.28" width=".86" height=".86" style="fill: #00243c;" />
  <rect x="133.12" y="41.28" width=".86" height=".86" style="fill: #fdb927;" />
  <rect x="133.98" y="41.28" width=".86" height=".86" style="fill: #00243c;" />
  <path
    d="M134.84,42.14h.86v-.86h-.86v.86ZM135.7,42.14h.86v-.86h-.86v.86ZM136.55,42.14h.86v-.86h-.86v.86ZM137.41,42.14h.86v-.86h-.86v.86ZM138.27,42.14h.86v-.86h-.86v.86Z"
    style="fill: #fdb927;" />
  <path
    d="M111.64,43h.86v-.86h-.86v.86ZM112.5,43h.86v-.86h-.86v.86ZM113.36,43h.86v-.86h-.86v.86ZM114.22,43h.86v-.86h-.86v.86ZM115.08,43h.86v-.86h-.86v.86ZM115.94,43h.86v-.86h-.86v.86ZM116.8,43h.86v-.86h-.86v.86ZM139.13,42.14h.86v-.86h-.86v.86Z"
    style="fill: #00243c;" />
  <rect x="117.66" y="42.14" width=".86" height=".86" style="fill: #fdb927;" />
  <rect x="118.51" y="42.14" width=".86" height=".86" style="fill: #00243c;" />
  <rect x="119.37" y="42.14" width=".86" height=".86" style="fill: #fdb927;" />
  <rect x="120.23" y="42.14" width=".86" height=".86" style="fill: #00243c;" />
  <rect x="121.09" y="42.14" width=".86" height=".86" style="fill: #fdb927;" />
  <rect x="121.95" y="42.14" width=".86" height=".86" style="fill: #00243c;" />
  <rect x="122.81" y="42.14" width=".86" height=".86" style="fill: #fdb927;" />
  <rect x="123.67" y="42.14" width=".86" height=".86" style="fill: #00243c;" />
  <rect x="124.53" y="42.14" width=".86" height=".86" style="fill: #fdb927;" />
  <rect x="125.39" y="42.14" width=".86" height=".86" style="fill: #00243c;" />
  <rect x="126.25" y="42.14" width=".86" height=".86" style="fill: #fdb927;" />
  <rect x="127.1" y="42.14" width=".86" height=".86" style="fill: #00243c;" />
  <rect x="127.96" y="42.14" width=".86" height=".86" style="fill: #fdb927;" />
  <rect x="128.82" y="42.14" width=".86" height=".86" style="fill: #00243c;" />
  <rect x="129.68" y="42.14" width=".86" height=".86" style="fill: #fdb927;" />
  <rect x="130.54" y="42.14" width=".86" height=".86" style="fill: #00243c;" />
  <rect x="131.4" y="42.14" width=".86" height=".86" style="fill: #fdb927;" />
  <rect x="132.26" y="42.14" width=".86" height=".86" style="fill: #00243c;" />
  <rect x="133.12" y="42.14" width=".86" height=".86" style="fill: #fdb927;" />
  <path
    d="M133.98,43h.86v-.86h-.86v.86ZM134.84,43h.86v-.86h-.86v.86ZM135.7,43h.86v-.86h-.86v.86ZM136.55,43h.86v-.86h-.86v.86ZM137.41,43h.86v-.86h-.86v.86ZM138.27,43h.86v-.86h-.86v.86ZM139.13,43h.86v-.86h-.86v.86Z"
    style="fill: #00243c;" />
  <path
    d="M111.64,43.86h.86v-.86h-.86v.86ZM112.5,43.86h.86v-.86h-.86v.86ZM113.36,43.86h.86v-.86h-.86v.86ZM114.22,43.86h.86v-.86h-.86v.86ZM115.08,43.86h.86v-.86h-.86v.86ZM115.94,43.86h.86v-.86h-.86v.86ZM117.66,43h-.86v.86h1.72v-.86h-.86Z"
    style="fill: #fdb927;" />
  <rect x="118.51" y="43" width=".86" height=".86" style="fill: #00243c;" />
  <rect x="119.37" y="43" width=".86" height=".86" style="fill: #fdb927;" />
  <path d="M120.23,43.86h.86v-.86h-.86v.86ZM121.09,43.86h.86v-.86h-.86v.86Z" style="fill: #00243c;" />
  <rect x="121.95" y="43" width=".86" height=".86" style="fill: #fdb927;" />
  <path d="M122.81,43.86h.86v-.86h-.86v.86ZM123.67,43.86h.86v-.86h-.86v.86ZM124.53,43.86h.86v-.86h-.86v.86Z"
    style="fill: #00243c;" />
  <path
    d="M125.39,43.86h.86v-.86h-.86v.86ZM126.25,43.86h.86v-.86h-.86v.86ZM127.1,43.86h.86v-.86h-.86v.86ZM127.96,43.86h.86v-.86h-.86v.86Z"
    style="fill: #fdb927;" />
  <path
    d="M128.82,43.86h.86v-.86h-.86v.86ZM129.68,43.86h.86v-.86h-.86v.86ZM130.54,43.86h.86v-.86h-.86v.86ZM131.4,43.86h.86v-.86h-.86v.86Z"
    style="fill: #00243c;" />
  <path
    d="M111.64,44.71h.86v-.86h-.86v.86ZM112.5,44.71h.86v-.86h-.86v.86ZM132.26,43.86h.86v-.86h-.86v.86ZM133.12,43.86h.86v-.86h-.86v.86ZM133.98,43.86h.86v-.86h-.86v.86ZM134.84,43.86h.86v-.86h-.86v.86ZM135.7,43.86h.86v-.86h-.86v.86ZM136.55,43.86h.86v-.86h-.86v.86ZM137.41,43.86h.86v-.86h-.86v.86ZM138.27,43.86h.86v-.86h-.86v.86ZM139.13,43.86h.86v-.86h-.86v.86Z"
    style="fill: #fdb927;" />
  <path d="M113.36,44.71h.86v-.86h-.86v.86ZM114.22,44.71h.86v-.86h-.86v.86ZM115.08,44.71h.86v-.86h-.86v.86Z"
    style="fill: #00243c;" />
  <rect x="115.94" y="43.86" width=".86" height=".86" style="fill: #fdb927;" />
  <rect x="116.8" y="43.86" width=".86" height=".86" style="fill: #00243c;" />
  <rect x="117.66" y="43.86" width=".86" height=".86" style="fill: #fdb927;" />
  <path d="M118.51,44.71h.86v-.86h-.86v.86ZM119.37,44.71h.86v-.86h-.86v.86Z" style="fill: #00243c;" />
  <rect x="120.23" y="43.86" width=".86" height=".86" style="fill: #fdb927;" />
  <rect x="121.09" y="43.86" width=".86" height=".86" style="fill: #00243c;" />
  <path d="M121.95,44.71h.86v-.86h-.86v.86ZM122.81,44.71h.86v-.86h-.86v.86Z" style="fill: #fdb927;" />
  <path
    d="M123.67,44.71h.86v-.86h-.86v.86ZM124.53,44.71h.86v-.86h-.86v.86ZM125.39,44.71h.86v-.86h-.86v.86ZM126.25,44.71h.86v-.86h-.86v.86Z"
    style="fill: #00243c;" />
  <path d="M127.1,44.71h.86v-.86h-.86v.86ZM127.96,44.71h.86v-.86h-.86v.86Z" style="fill: #fdb927;" />
  <rect x="128.82" y="43.86" width=".86" height=".86" style="fill: #00243c;" />
  <rect x="129.68" y="43.86" width=".86" height=".86" style="fill: #fdb927;" />
  <path
    d="M130.54,44.71h.86v-.86h-.86v.86ZM131.4,44.71h.86v-.86h-.86v.86ZM132.26,44.71h.86v-.86h-.86v.86ZM133.12,44.71h.86v-.86h-.86v.86ZM133.98,44.71h.86v-.86h-.86v.86ZM134.84,44.71h.86v-.86h-.86v.86Z"
    style="fill: #00243c;" />
  <path d="M135.7,44.71h.86v-.86h-.86v.86ZM136.55,44.71h.86v-.86h-.86v.86Z" style="fill: #fdb927;" />
  <path
    d="M111.64,45.57h.86v-.86h-.86v.86ZM112.5,45.57h.86v-.86h-.86v.86ZM137.41,44.71h.86v-.86h-.86v.86ZM138.27,44.71h.86v-.86h-.86v.86ZM139.13,44.71h.86v-.86h-.86v.86Z"
    style="fill: #00243c;" />
  <rect x="113.36" y="44.71" width=".86" height=".86" style="fill: #fdb927;" />
  <path d="M114.22,45.57h.86v-.86h-.86v.86ZM115.08,45.57h.86v-.86h-.86v.86Z" style="fill: #00243c;" />
  <path d="M115.94,45.57h.86v-.86h-.86v.86ZM116.8,45.57h.86v-.86h-.86v.86Z" style="fill: #fdb927;" />
  <path d="M117.66,45.57h.86v-.86h-.86v.86ZM118.51,45.57h.86v-.86h-.86v.86ZM119.37,45.57h.86v-.86h-.86v.86Z"
    style="fill: #00243c;" />
  <rect x="120.23" y="44.71" width=".86" height=".86" style="fill: #fdb927;" />
  <rect x="121.09" y="44.71" width=".86" height=".86" style="fill: #00243c;" />
  <path d="M121.95,45.57h.86v-.86h-.86v.86ZM122.81,45.57h.86v-.86h-.86v.86Z" style="fill: #fdb927;" />
  <rect x="123.67" y="44.71" width=".86" height=".86" style="fill: #00243c;" />
  <path d="M124.53,45.57h.86v-.86h-.86v.86ZM125.39,45.57h.86v-.86h-.86v.86ZM126.25,45.57h.86v-.86h-.86v.86Z"
    style="fill: #fdb927;" />
  <rect x="127.1" y="44.71" width=".86" height=".86" style="fill: #00243c;" />
  <path d="M127.96,45.57h.86v-.86h-.86v.86ZM128.82,45.57h.86v-.86h-.86v.86Z" style="fill: #fdb927;" />
  <path
    d="M129.68,45.57h.86v-.86h-.86v.86ZM130.54,45.57h.86v-.86h-.86v.86ZM131.4,45.57h.86v-.86h-.86v.86ZM132.26,45.57h.86v-.86h-.86v.86ZM133.12,45.57h.86v-.86h-.86v.86ZM133.98,45.57h.86v-.86h-.86v.86Z"
    style="fill: #00243c;" />
  <path d="M134.84,45.57h.86v-.86h-.86v.86ZM135.7,45.57h.86v-.86h-.86v.86Z" style="fill: #fdb927;" />
  <rect x="136.55" y="44.71" width=".86" height=".86" style="fill: #00243c;" />
  <path d="M137.41,45.57h.86v-.86h-.86v.86ZM138.27,45.57h.86v-.86h-.86v.86Z" style="fill: #fdb927;" />
  <path
    d="M111.64,46.43h.86v-.86h-.86v.86ZM112.5,46.43h.86v-.86h-.86v.86ZM113.36,46.43h.86v-.86h-.86v.86ZM114.22,46.43h.86v-.86h-.86v.86ZM115.08,46.43h.86v-.86h-.86v.86ZM115.94,46.43h.86v-.86h-.86v.86ZM116.8,46.43h.86v-.86h-.86v.86ZM139.13,45.57h.86v-.86h-.86v.86Z"
    style="fill: #00243c;" />
  <path
    d="M117.66,46.43h.86v-.86h-.86v.86ZM118.51,46.43h.86v-.86h-.86v.86ZM119.37,46.43h.86v-.86h-.86v.86ZM120.23,46.43h.86v-.86h-.86v.86ZM121.09,46.43h.86v-.86h-.86v.86Z"
    style="fill: #fdb927;" />
  <path d="M121.95,46.43h.86v-.86h-.86v.86ZM122.81,46.43h.86v-.86h-.86v.86Z" style="fill: #00243c;" />
  <path d="M123.67,46.43h.86v-.86h-.86v.86ZM124.53,46.43h.86v-.86h-.86v.86Z" style="fill: #fdb927;" />
  <path
    d="M125.39,46.43h.86v-.86h-.86v.86ZM126.25,46.43h.86v-.86h-.86v.86ZM127.1,46.43h.86v-.86h-.86v.86ZM127.96,46.43h.86v-.86h-.86v.86Z"
    style="fill: #00243c;" />
  <path d="M128.82,46.43h.86v-.86h-.86v.86ZM129.68,46.43h.86v-.86h-.86v.86Z" style="fill: #fdb927;" />
  <rect x="130.54" y="45.57" width=".86" height=".86" style="fill: #00243c;" />
  <rect x="131.4" y="45.57" width=".86" height=".86" style="fill: #fdb927;" />
  <rect x="132.26" y="45.57" width=".86" height=".86" style="fill: #00243c;" />
  <rect x="133.12" y="45.57" width=".86" height=".86" style="fill: #fdb927;" />
  <path d="M133.98,46.43h.86v-.86h-.86v.86ZM134.84,46.43h.86v-.86h-.86v.86Z" style="fill: #00243c;" />
  <rect x="135.7" y="45.57" width=".86" height=".86" style="fill: #fdb927;" />
  <rect x="136.55" y="45.57" width=".86" height=".86" style="fill: #00243c;" />
  <rect x="137.41" y="45.57" width=".86" height=".86" style="fill: #fdb927;" />
  <rect x="138.27" y="45.57" width=".86" height=".86" style="fill: #00243c;" />
  <path d="M111.64,47.29h.86v-.86h-.86v.86ZM139.13,46.43h.86v-.86h-.86v.86Z" style="fill: #fdb927;" />
  <rect x="112.5" y="46.43" width=".86" height=".86" style="fill: #00243c;" />
  <path d="M113.36,47.29h.86v-.86h-.86v.86ZM114.22,47.29h.86v-.86h-.86v.86Z" style="fill: #fdb927;" />
  <rect x="115.08" y="46.43" width=".86" height=".86" style="fill: #00243c;" />
  <path d="M115.94,47.29h.86v-.86h-.86v.86ZM116.8,47.29h.86v-.86h-.86v.86Z" style="fill: #fdb927;" />
  <rect x="117.66" y="46.43" width=".86" height=".86" style="fill: #00243c;" />
  <rect x="118.51" y="46.43" width=".86" height=".86" style="fill: #fdb927;" />
  <rect x="119.37" y="46.43" width=".86" height=".86" style="fill: #00243c;" />
  <path d="M120.23,47.29h.86v-.86h-.86v.86ZM121.09,47.29h.86v-.86h-.86v.86Z" style="fill: #fdb927;" />
  <rect x="121.95" y="46.43" width=".86" height=".86" style="fill: #00243c;" />
  <path d="M122.81,47.29h.86v-.86h-.86v.86ZM123.67,47.29h.86v-.86h-.86v.86ZM124.53,47.29h.86v-.86h-.86v.86Z"
    style="fill: #fdb927;" />
  <path d="M125.39,47.29h.86v-.86h-.86v.86ZM126.25,47.29h.86v-.86h-.86v.86Z" style="fill: #00243c;" />
  <rect x="127.1" y="46.43" width=".86" height=".86" style="fill: #fdb927;" />
  <rect x="127.96" y="46.43" width=".86" height=".86" style="fill: #00243c;" />
  <rect x="128.82" y="46.43" width=".86" height=".86" style="fill: #fdb927;" />
  <path d="M129.68,47.29h.86v-.86h-.86v.86ZM130.54,47.29h.86v-.86h-.86v.86Z" style="fill: #00243c;" />
  <path d="M131.4,47.29h.86v-.86h-.86v.86ZM132.26,47.29h.86v-.86h-.86v.86Z" style="fill: #fdb927;" />
  <rect x="133.12" y="46.43" width=".86" height=".86" style="fill: #00243c;" />
  <path d="M133.98,47.29h.86v-.86h-.86v.86ZM134.84,47.29h.86v-.86h-.86v.86ZM135.7,47.29h.86v-.86h-.86v.86Z"
    style="fill: #fdb927;" />
  <path d="M136.55,47.29h.86v-.86h-.86v.86ZM137.41,47.29h.86v-.86h-.86v.86Z" style="fill: #00243c;" />
  <rect x="138.27" y="46.43" width=".86" height=".86" style="fill: #fdb927;" />
  <rect x="139.13" y="46.43" width=".86" height=".86" style="fill: #00243c;" />
  <rect x="111.64" y="47.29" width=".86" height=".86" style="fill: #fdb927;" />
  <path d="M112.5,48.15h.86v-.86h-.86v.86ZM113.36,48.15h.86v-.86h-.86v.86ZM114.22,48.15h.86v-.86h-.86v.86Z"
    style="fill: #00243c;" />
  <path d="M115.08,48.15h.86v-.86h-.86v.86ZM115.94,48.15h.86v-.86h-.86v.86Z" style="fill: #fdb927;" />
  <rect x="116.8" y="47.29" width=".86" height=".86" style="fill: #00243c;" />
  <path d="M117.66,48.15h.86v-.86h-.86v.86ZM118.51,48.15h.86v-.86h-.86v.86Z" style="fill: #fdb927;" />
  <rect x="119.37" y="47.29" width=".86" height=".86" style="fill: #00243c;" />
  <path d="M120.23,48.15h.86v-.86h-.86v.86ZM121.09,48.15h.86v-.86h-.86v.86ZM121.95,48.15h.86v-.86h-.86v.86Z"
    style="fill: #fdb927;" />
  <rect x="122.81" y="47.29" width=".86" height=".86" style="fill: #00243c;" />
  <path d="M123.67,48.15h.86v-.86h-.86v.86ZM124.53,48.15h.86v-.86h-.86v.86Z" style="fill: #fdb927;" />
  <path d="M125.39,48.15h.86v-.86h-.86v.86ZM126.25,48.15h.86v-.86h-.86v.86ZM127.1,48.15h.86v-.86h-.86v.86Z"
    style="fill: #00243c;" />
  <rect x="127.96" y="47.29" width=".86" height=".86" style="fill: #fdb927;" />
  <path d="M128.82,48.15h.86v-.86h-.86v.86ZM129.68,48.15h.86v-.86h-.86v.86Z" style="fill: #00243c;" />
  <path d="M130.54,48.15h.86v-.86h-.86v.86ZM131.4,48.15h.86v-.86h-.86v.86Z" style="fill: #fdb927;" />
  <path d="M132.26,48.15h.86v-.86h-.86v.86ZM133.12,48.15h.86v-.86h-.86v.86Z" style="fill: #00243c;" />
  <rect x="133.98" y="47.29" width=".86" height=".86" style="fill: #fdb927;" />
  <path d="M134.84,48.15h.86v-.86h-.86v.86ZM135.7,48.15h.86v-.86h-.86v.86ZM136.55,48.15h.86v-.86h-.86v.86Z"
    style="fill: #00243c;" />
  <path d="M137.41,48.15h.86v-.86h-.86v.86ZM138.27,48.15h.86v-.86h-.86v.86ZM139.13,48.15h.86v-.86h-.86v.86Z"
    style="fill: #fdb927;" />
  <rect x="111.64" y="48.15" width=".86" height=".86" style="fill: #00243c;" />
  <rect x="112.5" y="48.15" width=".86" height=".86" style="fill: #fdb927;" />
  <rect x="113.36" y="48.15" width=".86" height=".86" style="fill: #00243c;" />
  <path d="M114.22,49.01h.86v-.86h-.86v.86ZM115.08,49.01h.86v-.86h-.86v.86Z" style="fill: #fdb927;" />
  <rect x="115.94" y="48.15" width=".86" height=".86" style="fill: #00243c;" />
  <polygon points="117.66 48.15 116.8 48.15 116.8 49.01 117.66 49.01 118.51 49.01 118.51 48.15 117.66 48.15"
    style="fill: #fdb927;" />
  <path
    d="M118.51,49.01h.86v-.86h-.86v.86ZM119.37,49.01h.86v-.86h-.86v.86ZM120.23,49.01h.86v-.86h-.86v.86ZM121.09,49.01h.86v-.86h-.86v.86Z"
    style="fill: #00243c;" />
  <path d="M121.95,49.01h.86v-.86h-.86v.86ZM122.81,49.01h.86v-.86h-.86v.86Z" style="fill: #fdb927;" />
  <rect x="123.67" y="48.15" width=".86" height=".86" style="fill: #00243c;" />
  <path
    d="M124.53,49.01h.86v-.86h-.86v.86ZM125.39,49.01h.86v-.86h-.86v.86ZM126.25,49.01h.86v-.86h-.86v.86ZM127.1,49.01h.86v-.86h-.86v.86ZM127.96,49.01h.86v-.86h-.86v.86Z"
    style="fill: #fdb927;" />
  <rect x="128.82" y="48.15" width=".86" height=".86" style="fill: #00243c;" />
  <path d="M129.68,49.01h.86v-.86h-.86v.86ZM130.54,49.01h.86v-.86h-.86v.86Z" style="fill: #fdb927;" />
  <rect x="131.4" y="48.15" width=".86" height=".86" style="fill: #00243c;" />
  <rect x="132.26" y="48.15" width=".86" height=".86" style="fill: #fdb927;" />
  <path d="M133.12,49.01h.86v-.86h-.86v.86ZM133.98,49.01h.86v-.86h-.86v.86Z" style="fill: #00243c;" />
  <path d="M134.84,49.01h.86v-.86h-.86v.86ZM135.7,49.01h.86v-.86h-.86v.86ZM136.55,49.01h.86v-.86h-.86v.86Z"
    style="fill: #fdb927;" />
  <rect x="137.41" y="48.15" width=".86" height=".86" style="fill: #00243c;" />
  <rect x="138.27" y="48.15" width=".86" height=".86" style="fill: #fdb927;" />
  <path d="M111.64,49.87h.86v-.86h-.86v.86ZM112.5,49.87h.86v-.86h-.86v.86ZM139.13,49.01h.86v-.86h-.86v.86Z"
    style="fill: #00243c;" />
  <rect x="113.36" y="49.01" width=".86" height=".86" style="fill: #fdb927;" />
  <rect x="114.22" y="49.01" width=".86" height=".86" style="fill: #00243c;" />
  <path d="M115.08,49.87h.86v-.86h-.86v.86ZM115.94,49.87h.86v-.86h-.86v.86Z" style="fill: #fdb927;" />
  <rect x="116.8" y="49.01" width=".86" height=".86" style="fill: #00243c;" />
  <path d="M117.66,49.87h.86v-.86h-.86v.86ZM118.51,49.87h.86v-.86h-.86v.86Z" style="fill: #fdb927;" />
  <rect x="119.37" y="49.01" width=".86" height=".86" style="fill: #00243c;" />
  <rect x="120.23" y="49.01" width=".86" height=".86" style="fill: #fdb927;" />
  <path
    d="M121.09,49.87h.86v-.86h-.86v.86ZM121.95,49.87h.86v-.86h-.86v.86ZM122.81,49.87h.86v-.86h-.86v.86ZM123.67,49.87h.86v-.86h-.86v.86Z"
    style="fill: #00243c;" />
  <path d="M124.53,49.87h.86v-.86h-.86v.86ZM125.39,49.87h.86v-.86h-.86v.86ZM126.25,49.87h.86v-.86h-.86v.86Z"
    style="fill: #fdb927;" />
  <path d="M127.1,49.87h.86v-.86h-.86v.86ZM127.96,49.87h.86v-.86h-.86v.86Z" style="fill: #00243c;" />
  <path d="M128.82,49.87h.86v-.86h-.86v.86ZM129.68,49.87h.86v-.86h-.86v.86Z" style="fill: #fdb927;" />
  <rect x="130.54" y="49.01" width=".86" height=".86" style="fill: #00243c;" />
  <path d="M131.4,49.87h.86v-.86h-.86v.86ZM132.26,49.87h.86v-.86h-.86v.86Z" style="fill: #fdb927;" />
  <path d="M133.12,49.87h.86v-.86h-.86v.86ZM133.98,49.87h.86v-.86h-.86v.86Z" style="fill: #00243c;" />
  <path d="M134.84,49.87h.86v-.86h-.86v.86ZM135.7,49.87h.86v-.86h-.86v.86Z" style="fill: #fdb927;" />
  <rect x="136.55" y="49.01" width=".86" height=".86" style="fill: #00243c;" />
  <rect x="137.41" y="49.01" width=".86" height=".86" style="fill: #fdb927;" />
  <rect x="138.27" y="49.01" width=".86" height=".86" style="fill: #00243c;" />
  <rect x="139.13" y="49.01" width=".86" height=".86" style="fill: #fdb927;" />
  <rect x="111.64" y="49.87" width=".86" height=".86" style="fill: #00243c;" />
  <rect x="112.5" y="49.87" width=".86" height=".86" style="fill: #fdb927;" />
  <rect x="113.36" y="49.87" width=".86" height=".86" style="fill: #00243c;" />
  <path d="M114.22,50.73h.86v-.86h-.86v.86ZM115.08,50.73h.86v-.86h-.86v.86Z" style="fill: #fdb927;" />
  <rect x="115.94" y="49.87" width=".86" height=".86" style="fill: #00243c;" />
  <path d="M117.66,49.87h-.86v.86h1.72v-.86h-.86ZM118.51,50.73h.86v-.86h-.86v.86Z" style="fill: #fdb927;" />
  <path
    d="M119.37,50.73h.86v-.86h-.86v.86ZM120.23,50.73h.86v-.86h-.86v.86ZM121.09,50.73h.86v-.86h-.86v.86ZM121.95,50.73h.86v-.86h-.86v.86Z"
    style="fill: #00243c;" />
  <rect x="122.81" y="49.87" width=".86" height=".86" style="fill: #fdb927;" />
  <path d="M123.67,50.73h.86v-.86h-.86v.86ZM124.53,50.73h.86v-.86h-.86v.86Z" style="fill: #00243c;" />
  <rect x="125.39" y="49.87" width=".86" height=".86" style="fill: #fdb927;" />
  <path d="M126.25,50.73h.86v-.86h-.86v.86ZM127.1,50.73h.86v-.86h-.86v.86ZM127.96,50.73h.86v-.86h-.86v.86Z"
    style="fill: #00243c;" />
  <rect x="128.82" y="49.87" width=".86" height=".86" style="fill: #fdb927;" />
  <path d="M129.68,50.73h.86v-.86h-.86v.86ZM130.54,50.73h.86v-.86h-.86v.86Z" style="fill: #00243c;" />
  <path d="M131.4,50.73h.86v-.86h-.86v.86ZM132.26,50.73h.86v-.86h-.86v.86ZM133.12,50.73h.86v-.86h-.86v.86Z"
    style="fill: #fdb927;" />
  <path d="M133.98,50.73h.86v-.86h-.86v.86ZM134.84,50.73h.86v-.86h-.86v.86Z" style="fill: #00243c;" />
  <rect x="135.7" y="49.87" width=".86" height=".86" style="fill: #fdb927;" />
  <path d="M136.55,50.73h.86v-.86h-.86v.86ZM137.41,50.73h.86v-.86h-.86v.86ZM138.27,50.73h.86v-.86h-.86v.86Z"
    style="fill: #00243c;" />
  <path
    d="M111.64,51.59h.86v-.86h-.86v.86ZM112.5,51.59h.86v-.86h-.86v.86ZM113.36,51.59h.86v-.86h-.86v.86ZM139.13,50.73h.86v-.86h-.86v.86Z"
    style="fill: #fdb927;" />
  <path d="M114.22,51.59h.86v-.86h-.86v.86ZM115.08,51.59h.86v-.86h-.86v.86Z" style="fill: #00243c;" />
  <rect x="115.94" y="50.73" width=".86" height=".86" style="fill: #fdb927;" />
  <path d="M117.66,50.73h-.86v.86h1.72v-.86h-.86ZM118.51,51.59h.86v-.86h-.86v.86Z" style="fill: #00243c;" />
  <rect x="119.37" y="50.73" width=".86" height=".86" style="fill: #fdb927;" />
  <rect x="120.23" y="50.73" width=".86" height=".86" style="fill: #00243c;" />
  <path d="M121.09,51.59h.86v-.86h-.86v.86ZM121.95,51.59h.86v-.86h-.86v.86Z" style="fill: #fdb927;" />
  <path d="M122.81,51.59h.86v-.86h-.86v.86ZM123.67,51.59h.86v-.86h-.86v.86Z" style="fill: #00243c;" />
  <rect x="124.53" y="50.73" width=".86" height=".86" style="fill: #fdb927;" />
  <rect x="125.39" y="50.73" width=".86" height=".86" style="fill: #00243c;" />
  <rect x="126.25" y="50.73" width=".86" height=".86" style="fill: #fdb927;" />
  <rect x="127.1" y="50.73" width=".86" height=".86" style="fill: #00243c;" />
  <path
    d="M127.96,51.59h.86v-.86h-.86v.86ZM128.82,51.59h.86v-.86h-.86v.86ZM129.68,51.59h.86v-.86h-.86v.86ZM130.54,51.59h.86v-.86h-.86v.86ZM131.4,51.59h.86v-.86h-.86v.86ZM132.26,51.59h.86v-.86h-.86v.86Z"
    style="fill: #fdb927;" />
  <rect x="133.12" y="50.73" width=".86" height=".86" style="fill: #00243c;" />
  <rect x="133.98" y="50.73" width=".86" height=".86" style="fill: #fdb927;" />
  <path d="M134.84,51.59h.86v-.86h-.86v.86ZM135.7,51.59h.86v-.86h-.86v.86Z" style="fill: #00243c;" />
  <path
    d="M136.55,51.59h.86v-.86h-.86v.86ZM137.41,51.59h.86v-.86h-.86v.86ZM138.27,51.59h.86v-.86h-.86v.86ZM139.13,51.59h.86v-.86h-.86v.86Z"
    style="fill: #fdb927;" />
  <rect x="111.64" y="51.59" width=".86" height=".86" style="fill: #00243c;" />
  <rect x="112.5" y="51.59" width=".86" height=".86" style="fill: #fdb927;" />
  <path d="M113.36,52.45h.86v-.86h-.86v.86ZM114.22,52.45h.86v-.86h-.86v.86Z" style="fill: #00243c;" />
  <path d="M115.08,52.45h.86v-.86h-.86v.86ZM115.94,52.45h.86v-.86h-.86v.86ZM117.66,51.59h-.86v.86h1.72v-.86h-.86Z"
    style="fill: #fdb927;" />
  <path d="M118.51,52.45h.86v-.86h-.86v.86ZM119.37,52.45h.86v-.86h-.86v.86Z" style="fill: #00243c;" />
  <path
    d="M120.23,52.45h.86v-.86h-.86v.86ZM121.09,52.45h.86v-.86h-.86v.86ZM121.95,52.45h.86v-.86h-.86v.86ZM122.81,52.45h.86v-.86h-.86v.86Z"
    style="fill: #fdb927;" />
  <rect x="123.67" y="51.59" width=".86" height=".86" style="fill: #00243c;" />
  <rect x="124.53" y="51.59" width=".86" height=".86" style="fill: #fdb927;" />
  <path
    d="M125.39,52.45h.86v-.86h-.86v.86ZM126.25,52.45h.86v-.86h-.86v.86ZM127.1,52.45h.86v-.86h-.86v.86ZM127.96,52.45h.86v-.86h-.86v.86Z"
    style="fill: #00243c;" />
  <rect x="128.82" y="51.59" width=".86" height=".86" style="fill: #fdb927;" />
  <rect x="129.68" y="51.59" width=".86" height=".86" style="fill: #00243c;" />
  <rect x="130.54" y="51.59" width=".86" height=".86" style="fill: #fdb927;" />
  <path d="M131.4,52.45h.86v-.86h-.86v.86ZM132.26,52.45h.86v-.86h-.86v.86Z" style="fill: #00243c;" />
  <rect x="133.12" y="51.59" width=".86" height=".86" style="fill: #fdb927;" />
  <path d="M133.98,52.45h.86v-.86h-.86v.86ZM134.84,52.45h.86v-.86h-.86v.86Z" style="fill: #00243c;" />
  <path
    d="M135.7,52.45h.86v-.86h-.86v.86ZM136.55,52.45h.86v-.86h-.86v.86ZM137.41,52.45h.86v-.86h-.86v.86ZM138.27,52.45h.86v-.86h-.86v.86Z"
    style="fill: #fdb927;" />
  <rect x="139.13" y="51.59" width=".86" height=".86" style="fill: #00243c;" />
  <rect x="111.64" y="52.45" width=".86" height=".86" style="fill: #fdb927;" />
  <path
    d="M112.5,53.3h.86v-.86h-.86v.86ZM113.36,53.3h.86v-.86h-.86v.86ZM114.22,53.3h.86v-.86h-.86v.86ZM115.08,53.3h.86v-.86h-.86v.86Z"
    style="fill: #00243c;" />
  <rect x="115.94" y="52.45" width=".86" height=".86" style="fill: #fdb927;" />
  <path d="M117.66,52.45h-.86v.86h1.72v-.86h-.86ZM118.51,53.3h.86v-.86h-.86v.86Z" style="fill: #00243c;" />
  <rect x="119.37" y="52.45" width=".86" height=".86" style="fill: #fdb927;" />
  <rect x="120.23" y="52.45" width=".86" height=".86" style="fill: #00243c;" />
  <rect x="121.09" y="52.45" width=".86" height=".86" style="fill: #fdb927;" />
  <path d="M121.95,53.3h.86v-.86h-.86v.86ZM122.81,53.3h.86v-.86h-.86v.86Z" style="fill: #00243c;" />
  <rect x="123.67" y="52.45" width=".86" height=".86" style="fill: #fdb927;" />
  <rect x="124.53" y="52.45" width=".86" height=".86" style="fill: #00243c;" />
  <path d="M125.39,53.3h.86v-.86h-.86v.86ZM126.25,53.3h.86v-.86h-.86v.86Z" style="fill: #fdb927;" />
  <rect x="127.1" y="52.45" width=".86" height=".86" style="fill: #00243c;" />
  <rect x="127.96" y="52.45" width=".86" height=".86" style="fill: #fdb927;" />
  <path d="M128.82,53.3h.86v-.86h-.86v.86ZM129.68,53.3h.86v-.86h-.86v.86ZM130.54,53.3h.86v-.86h-.86v.86Z"
    style="fill: #00243c;" />
  <path d="M131.4,53.3h.86v-.86h-.86v.86ZM132.26,53.3h.86v-.86h-.86v.86Z" style="fill: #fdb927;" />
  <rect x="133.12" y="52.45" width=".86" height=".86" style="fill: #00243c;" />
  <path d="M133.98,53.3h.86v-.86h-.86v.86ZM134.84,53.3h.86v-.86h-.86v.86Z" style="fill: #fdb927;" />
  <rect x="135.7" y="52.45" width=".86" height=".86" style="fill: #00243c;" />
  <rect x="136.55" y="52.45" width=".86" height=".86" style="fill: #fdb927;" />
  <path d="M137.41,53.3h.86v-.86h-.86v.86ZM138.27,53.3h.86v-.86h-.86v.86Z" style="fill: #00243c;" />
  <path d="M111.64,54.16h.86v-.86h-.86v.86ZM112.5,54.16h.86v-.86h-.86v.86ZM139.13,53.3h.86v-.86h-.86v.86Z"
    style="fill: #fdb927;" />
  <rect x="113.36" y="53.31" width=".86" height=".86" style="fill: #00243c;" />
  <rect x="114.22" y="53.31" width=".86" height=".86" style="fill: #fdb927;" />
  <rect x="115.08" y="53.31" width=".86" height=".86" style="fill: #00243c;" />
  <path
    d="M115.94,54.16h.86v-.86h-.86v.86ZM117.66,53.3h-.86v.86h1.72v-.86h-.86ZM118.51,54.16h.86v-.86h-.86v.86ZM119.37,54.16h.86v-.86h-.86v.86Z"
    style="fill: #fdb927;" />
  <rect x="120.23" y="53.31" width=".86" height=".86" style="fill: #00243c;" />
  <rect x="121.09" y="53.31" width=".86" height=".86" style="fill: #fdb927;" />
  <path d="M121.95,54.16h.86v-.86h-.86v.86ZM122.81,54.16h.86v-.86h-.86v.86Z" style="fill: #00243c;" />
  <path d="M123.67,54.16h.86v-.86h-.86v.86ZM124.53,54.16h.86v-.86h-.86v.86ZM125.39,54.16h.86v-.86h-.86v.86Z"
    style="fill: #fdb927;" />
  <path
    d="M126.25,54.16h.86v-.86h-.86v.86ZM127.1,54.16h.86v-.86h-.86v.86ZM127.96,54.16h.86v-.86h-.86v.86ZM128.82,54.16h.86v-.86h-.86v.86ZM129.68,54.16h.86v-.86h-.86v.86Z"
    style="fill: #00243c;" />
  <rect x="130.54" y="53.31" width=".86" height=".86" style="fill: #fdb927;" />
  <path
    d="M131.4,54.16h.86v-.86h-.86v.86ZM132.26,54.16h.86v-.86h-.86v.86ZM133.12,54.16h.86v-.86h-.86v.86ZM133.98,54.16h.86v-.86h-.86v.86ZM134.84,54.16h.86v-.86h-.86v.86Z"
    style="fill: #00243c;" />
  <rect x="135.7" y="53.31" width=".86" height=".86" style="fill: #fdb927;" />
  <path d="M136.55,54.16h.86v-.86h-.86v.86ZM137.41,54.16h.86v-.86h-.86v.86ZM138.27,54.16h.86v-.86h-.86v.86Z"
    style="fill: #00243c;" />
  <rect x="139.13" y="53.31" width=".86" height=".86" style="fill: #fdb927;" />
  <rect x="111.64" y="54.16" width=".86" height=".86" style="fill: #00243c;" />
  <path d="M112.5,55.02h.86v-.86h-.86v.86ZM113.36,55.02h.86v-.86h-.86v.86ZM114.22,55.02h.86v-.86h-.86v.86Z"
    style="fill: #fdb927;" />
  <path d="M115.08,55.02h.86v-.86h-.86v.86ZM115.94,55.02h.86v-.86h-.86v.86ZM116.8,55.02h.86v-.86h-.86v.86Z"
    style="fill: #00243c;" />
  <rect x="117.66" y="54.16" width=".86" height=".86" style="fill: #fdb927;" />
  <path
    d="M118.51,55.02h.86v-.86h-.86v.86ZM119.37,55.02h.86v-.86h-.86v.86ZM120.23,55.02h.86v-.86h-.86v.86ZM121.09,55.02h.86v-.86h-.86v.86Z"
    style="fill: #00243c;" />
  <path d="M121.95,55.02h.86v-.86h-.86v.86ZM122.81,55.02h.86v-.86h-.86v.86Z" style="fill: #fdb927;" />
  <path d="M123.67,55.02h.86v-.86h-.86v.86ZM124.53,55.02h.86v-.86h-.86v.86ZM125.39,55.02h.86v-.86h-.86v.86Z"
    style="fill: #00243c;" />
  <path d="M126.25,55.02h.86v-.86h-.86v.86ZM127.1,55.02h.86v-.86h-.86v.86Z" style="fill: #fdb927;" />
  <rect x="127.96" y="54.16" width=".86" height=".86" style="fill: #00243c;" />
  <path
    d="M128.82,55.02h.86v-.86h-.86v.86ZM129.68,55.02h.86v-.86h-.86v.86ZM130.54,55.02h.86v-.86h-.86v.86ZM131.4,55.02h.86v-.86h-.86v.86Z"
    style="fill: #fdb927;" />
  <path d="M132.26,55.02h.86v-.86h-.86v.86ZM133.12,55.02h.86v-.86h-.86v.86Z" style="fill: #00243c;" />
  <rect x="133.98" y="54.16" width=".86" height=".86" style="fill: #fdb927;" />
  <path d="M134.84,55.02h.86v-.86h-.86v.86ZM135.7,55.02h.86v-.86h-.86v.86ZM136.55,55.02h.86v-.86h-.86v.86Z"
    style="fill: #00243c;" />
  <path d="M137.41,55.02h.86v-.86h-.86v.86ZM138.27,55.02h.86v-.86h-.86v.86ZM139.13,55.02h.86v-.86h-.86v.86Z"
    style="fill: #fdb927;" />
  <path d="M111.64,55.88h.86v-.86h-.86v.86ZM112.5,55.88h.86v-.86h-.86v.86Z" style="fill: #00243c;" />
  <path
    d="M113.36,55.88h.86v-.86h-.86v.86ZM114.22,55.88h.86v-.86h-.86v.86ZM115.08,55.88h.86v-.86h-.86v.86ZM115.94,55.88h.86v-.86h-.86v.86ZM117.66,55.02h-.86v.86h1.72v-.86h-.86Z"
    style="fill: #fdb927;" />
  <rect x="118.51" y="55.02" width=".86" height=".86" style="fill: #00243c;" />
  <rect x="119.37" y="55.02" width=".86" height=".86" style="fill: #fdb927;" />
  <path
    d="M120.23,55.88h.86v-.86h-.86v.86ZM121.09,55.88h.86v-.86h-.86v.86ZM121.95,55.88h.86v-.86h-.86v.86ZM122.81,55.88h.86v-.86h-.86v.86Z"
    style="fill: #00243c;" />
  <path
    d="M123.67,55.88h.86v-.86h-.86v.86ZM124.53,55.88h.86v-.86h-.86v.86ZM125.39,55.88h.86v-.86h-.86v.86ZM126.25,55.88h.86v-.86h-.86v.86ZM127.1,55.88h.86v-.86h-.86v.86Z"
    style="fill: #fdb927;" />
  <path d="M127.96,55.88h.86v-.86h-.86v.86ZM128.82,55.88h.86v-.86h-.86v.86ZM129.68,55.88h.86v-.86h-.86v.86Z"
    style="fill: #00243c;" />
  <rect x="130.54" y="55.02" width=".86" height=".86" style="fill: #fdb927;" />
  <rect x="131.4" y="55.02" width=".86" height=".86" style="fill: #00243c;" />
  <path d="M132.26,55.88h.86v-.86h-.86v.86ZM133.12,55.88h.86v-.86h-.86v.86Z" style="fill: #fdb927;" />
  <rect x="133.98" y="55.02" width=".86" height=".86" style="fill: #00243c;" />
  <path d="M134.84,55.88h.86v-.86h-.86v.86ZM135.7,55.88h.86v-.86h-.86v.86Z" style="fill: #fdb927;" />
  <path d="M136.55,55.88h.86v-.86h-.86v.86ZM137.41,55.88h.86v-.86h-.86v.86Z" style="fill: #00243c;" />
  <rect x="138.27" y="55.02" width=".86" height=".86" style="fill: #fdb927;" />
  <path d="M111.64,56.74h.86v-.86h-.86v.86ZM139.13,55.88h.86v-.86h-.86v.86Z" style="fill: #00243c;" />
  <rect x="112.5" y="55.88" width=".86" height=".86" style="fill: #fdb927;" />
  <path d="M113.36,56.74h.86v-.86h-.86v.86ZM114.22,56.74h.86v-.86h-.86v.86Z" style="fill: #00243c;" />
  <rect x="115.08" y="55.88" width=".86" height=".86" style="fill: #fdb927;" />
  <path d="M115.94,56.74h.86v-.86h-.86v.86ZM116.8,56.74h.86v-.86h-.86v.86Z" style="fill: #00243c;" />
  <path
    d="M117.66,56.74h.86v-.86h-.86v.86ZM118.51,56.74h.86v-.86h-.86v.86ZM119.37,56.74h.86v-.86h-.86v.86ZM120.23,56.74h.86v-.86h-.86v.86Z"
    style="fill: #fdb927;" />
  <rect x="121.09" y="55.88" width=".86" height=".86" style="fill: #00243c;" />
  <path
    d="M121.95,56.74h.86v-.86h-.86v.86ZM122.81,56.74h.86v-.86h-.86v.86ZM123.67,56.74h.86v-.86h-.86v.86ZM124.53,56.74h.86v-.86h-.86v.86Z"
    style="fill: #fdb927;" />
  <path
    d="M125.39,56.74h.86v-.86h-.86v.86ZM126.25,56.74h.86v-.86h-.86v.86ZM127.1,56.74h.86v-.86h-.86v.86ZM127.96,56.74h.86v-.86h-.86v.86Z"
    style="fill: #00243c;" />
  <rect x="128.82" y="55.88" width=".86" height=".86" style="fill: #fdb927;" />
  <rect x="129.68" y="55.88" width=".86" height=".86" style="fill: #00243c;" />
  <path
    d="M130.54,56.74h.86v-.86h-.86v.86ZM131.4,56.74h.86v-.86h-.86v.86ZM132.26,56.74h.86v-.86h-.86v.86ZM133.12,56.74h.86v-.86h-.86v.86ZM133.98,56.74h.86v-.86h-.86v.86Z"
    style="fill: #fdb927;" />
  <rect x="134.84" y="55.88" width=".86" height=".86" style="fill: #00243c;" />
  <rect x="135.7" y="55.88" width=".86" height=".86" style="fill: #fdb927;" />
  <path d="M136.55,56.74h.86v-.86h-.86v.86ZM137.41,56.74h.86v-.86h-.86v.86ZM138.27,56.74h.86v-.86h-.86v.86Z"
    style="fill: #00243c;" />
  <rect x="139.13" y="55.88" width=".86" height=".86" style="fill: #fdb927;" />
  <rect x="111.64" y="56.74" width=".86" height=".86" style="fill: #00243c;" />
  <path d="M112.5,57.6h.86v-.86h-.86v.86ZM113.36,57.6h.86v-.86h-.86v.86ZM114.22,57.6h.86v-.86h-.86v.86Z"
    style="fill: #fdb927;" />
  <rect x="115.08" y="56.74" width=".86" height=".86" style="fill: #00243c;" />
  <path d="M115.94,57.6h.86v-.86h-.86v.86ZM116.8,57.6h.86v-.86h-.86v.86Z" style="fill: #fdb927;" />
  <path d="M117.66,57.6h.86v-.86h-.86v.86ZM118.51,57.6h.86v-.86h-.86v.86Z" style="fill: #00243c;" />
  <rect x="119.37" y="56.74" width=".86" height=".86" style="fill: #fdb927;" />
  <path
    d="M120.23,57.6h.86v-.86h-.86v.86ZM121.09,57.6h.86v-.86h-.86v.86ZM121.95,57.6h.86v-.86h-.86v.86ZM122.81,57.6h.86v-.86h-.86v.86ZM123.67,57.6h.86v-.86h-.86v.86ZM124.53,57.6h.86v-.86h-.86v.86Z"
    style="fill: #00243c;" />
  <path d="M125.39,57.6h.86v-.86h-.86v.86ZM126.25,57.6h.86v-.86h-.86v.86ZM127.1,57.6h.86v-.86h-.86v.86Z"
    style="fill: #fdb927;" />
  <rect x="127.96" y="56.74" width=".86" height=".86" style="fill: #00243c;" />
  <rect x="128.82" y="56.74" width=".86" height=".86" style="fill: #fdb927;" />
  <rect x="129.68" y="56.74" width=".86" height=".86" style="fill: #00243c;" />
  <path d="M130.54,57.6h.86v-.86h-.86v.86ZM131.4,57.6h.86v-.86h-.86v.86Z" style="fill: #fdb927;" />
  <rect x="132.26" y="56.74" width=".86" height=".86" style="fill: #00243c;" />
  <path
    d="M133.12,57.6h.86v-.86h-.86v.86ZM133.98,57.6h.86v-.86h-.86v.86ZM134.84,57.6h.86v-.86h-.86v.86ZM135.7,57.6h.86v-.86h-.86v.86Z"
    style="fill: #fdb927;" />
  <path d="M136.55,57.6h.86v-.86h-.86v.86ZM137.41,57.6h.86v-.86h-.86v.86Z" style="fill: #00243c;" />
  <rect x="138.27" y="56.74" width=".86" height=".86" style="fill: #fdb927;" />
  <path d="M111.64,58.46h.86v-.86h-.86v.86ZM139.13,57.6h.86v-.86h-.86v.86Z" style="fill: #00243c;" />
  <path d="M112.5,58.46h.86v-.86h-.86v.86ZM113.36,58.46h.86v-.86h-.86v.86Z" style="fill: #fdb927;" />
  <rect x="114.22" y="57.6" width=".86" height=".86" style="fill: #00243c;" />
  <path d="M115.08,58.46h.86v-.86h-.86v.86ZM115.94,58.46h.86v-.86h-.86v.86Z" style="fill: #fdb927;" />
  <rect x="116.8" y="57.6" width=".86" height=".86" style="fill: #00243c;" />
  <rect x="117.66" y="57.6" width=".86" height=".86" style="fill: #fdb927;" />
  <rect x="118.51" y="57.6" width=".86" height=".86" style="fill: #00243c;" />
  <rect x="119.37" y="57.6" width=".86" height=".86" style="fill: #fdb927;" />
  <path d="M120.23,58.46h.86v-.86h-.86v.86ZM121.09,58.46h.86v-.86h-.86v.86Z" style="fill: #00243c;" />
  <rect x="121.95" y="57.6" width=".86" height=".86" style="fill: #fdb927;" />
  <rect x="122.81" y="57.6" width=".86" height=".86" style="fill: #00243c;" />
  <rect x="123.67" y="57.6" width=".86" height=".86" style="fill: #fdb927;" />
  <path d="M124.53,58.46h.86v-.86h-.86v.86ZM125.39,58.46h.86v-.86h-.86v.86Z" style="fill: #00243c;" />
  <path d="M126.25,58.46h.86v-.86h-.86v.86ZM127.1,58.46h.86v-.86h-.86v.86Z" style="fill: #fdb927;" />
  <path d="M127.96,58.46h.86v-.86h-.86v.86ZM128.82,58.46h.86v-.86h-.86v.86Z" style="fill: #00243c;" />
  <rect x="129.68" y="57.6" width=".86" height=".86" style="fill: #fdb927;" />
  <path
    d="M130.54,58.46h.86v-.86h-.86v.86ZM131.4,58.46h.86v-.86h-.86v.86ZM132.26,58.46h.86v-.86h-.86v.86ZM133.12,58.46h.86v-.86h-.86v.86ZM133.98,58.46h.86v-.86h-.86v.86ZM134.84,58.46h.86v-.86h-.86v.86ZM135.7,58.46h.86v-.86h-.86v.86Z"
    style="fill: #00243c;" />
  <path d="M136.55,58.46h.86v-.86h-.86v.86ZM137.41,58.46h.86v-.86h-.86v.86Z" style="fill: #fdb927;" />
  <path d="M138.27,58.46h.86v-.86h-.86v.86ZM139.13,58.46h.86v-.86h-.86v.86Z" style="fill: #00243c;" />
  <path
    d="M111.64,59.32h.86v-.86h-.86v.86ZM112.5,59.32h.86v-.86h-.86v.86ZM113.36,59.32h.86v-.86h-.86v.86ZM114.22,59.32h.86v-.86h-.86v.86ZM115.08,59.32h.86v-.86h-.86v.86ZM115.94,59.32h.86v-.86h-.86v.86ZM117.66,58.46h-.86v.86h1.72v-.86h-.86Z"
    style="fill: #fdb927;" />
  <path d="M118.51,59.32h.86v-.86h-.86v.86ZM119.37,59.32h.86v-.86h-.86v.86ZM120.23,59.32h.86v-.86h-.86v.86Z"
    style="fill: #00243c;" />
  <rect x="121.09" y="58.46" width=".86" height=".86" style="fill: #fdb927;" />
  <rect x="121.95" y="58.46" width=".86" height=".86" style="fill: #00243c;" />
  <rect x="122.81" y="58.46" width=".86" height=".86" style="fill: #fdb927;" />
  <path d="M123.67,59.32h.86v-.86h-.86v.86ZM124.53,59.32h.86v-.86h-.86v.86Z" style="fill: #00243c;" />
  <path d="M125.39,59.32h.86v-.86h-.86v.86ZM126.25,59.32h.86v-.86h-.86v.86Z" style="fill: #fdb927;" />
  <path d="M127.1,59.32h.86v-.86h-.86v.86ZM127.96,59.32h.86v-.86h-.86v.86ZM128.82,59.32h.86v-.86h-.86v.86Z"
    style="fill: #00243c;" />
  <path d="M129.68,59.32h.86v-.86h-.86v.86ZM130.54,59.32h.86v-.86h-.86v.86Z" style="fill: #fdb927;" />
  <path d="M131.4,59.32h.86v-.86h-.86v.86ZM132.26,59.32h.86v-.86h-.86v.86Z" style="fill: #00243c;" />
  <path d="M133.12,59.32h.86v-.86h-.86v.86ZM133.98,59.32h.86v-.86h-.86v.86ZM134.84,59.32h.86v-.86h-.86v.86Z"
    style="fill: #fdb927;" />
  <path
    d="M111.64,60.18h.86v-.86h-.86v.86ZM112.5,60.18h.86v-.86h-.86v.86ZM113.36,60.18h.86v-.86h-.86v.86ZM114.22,60.18h.86v-.86h-.86v.86ZM115.08,60.18h.86v-.86h-.86v.86ZM115.94,60.18h.86v-.86h-.86v.86ZM116.8,60.18h.86v-.86h-.86v.86ZM135.7,59.32h.86v-.86h-.86v.86ZM136.55,59.32h.86v-.86h-.86v.86ZM137.41,59.32h.86v-.86h-.86v.86ZM138.27,59.32h.86v-.86h-.86v.86ZM139.13,59.32h.86v-.86h-.86v.86Z"
    style="fill: #00243c;" />
  <path
    d="M117.66,60.18h.86v-.86h-.86v.86ZM118.51,60.18h.86v-.86h-.86v.86ZM119.37,60.18h.86v-.86h-.86v.86ZM120.23,60.18h.86v-.86h-.86v.86ZM121.09,60.18h.86v-.86h-.86v.86ZM121.95,60.18h.86v-.86h-.86v.86Z"
    style="fill: #fdb927;" />
  <path d="M122.81,60.18h.86v-.86h-.86v.86ZM123.67,60.18h.86v-.86h-.86v.86ZM124.53,60.18h.86v-.86h-.86v.86Z"
    style="fill: #00243c;" />
  <rect x="125.39" y="59.32" width=".86" height=".86" style="fill: #fdb927;" />
  <rect x="126.25" y="59.32" width=".86" height=".86" style="fill: #00243c;" />
  <path
    d="M127.1,60.18h.86v-.86h-.86v.86ZM127.96,60.18h.86v-.86h-.86v.86ZM128.82,60.18h.86v-.86h-.86v.86ZM129.68,60.18h.86v-.86h-.86v.86Z"
    style="fill: #fdb927;" />
  <path d="M130.54,60.18h.86v-.86h-.86v.86ZM131.4,60.18h.86v-.86h-.86v.86ZM132.26,60.18h.86v-.86h-.86v.86Z"
    style="fill: #00243c;" />
  <rect x="133.12" y="59.32" width=".86" height=".86" style="fill: #fdb927;" />
  <rect x="133.98" y="59.32" width=".86" height=".86" style="fill: #00243c;" />
  <rect x="134.84" y="59.32" width=".86" height=".86" style="fill: #fdb927;" />
  <rect x="135.7" y="59.32" width=".86" height=".86" style="fill: #00243c;" />
  <path d="M136.55,60.18h.86v-.86h-.86v.86ZM137.41,60.18h.86v-.86h-.86v.86Z" style="fill: #fdb927;" />
  <rect x="138.27" y="59.32" width=".86" height=".86" style="fill: #00243c;" />
  <rect x="139.13" y="59.32" width=".86" height=".86" style="fill: #fdb927;" />
  <rect x="111.64" y="60.18" width=".86" height=".86" style="fill: #00243c;" />
  <path
    d="M112.5,61.04h.86v-.86h-.86v.86ZM113.36,61.04h.86v-.86h-.86v.86ZM114.22,61.04h.86v-.86h-.86v.86ZM115.08,61.04h.86v-.86h-.86v.86ZM115.94,61.04h.86v-.86h-.86v.86Z"
    style="fill: #fdb927;" />
  <rect x="116.8" y="60.18" width=".86" height=".86" style="fill: #00243c;" />
  <path d="M117.66,61.04h.86v-.86h-.86v.86ZM118.51,61.04h.86v-.86h-.86v.86ZM119.37,61.04h.86v-.86h-.86v.86Z"
    style="fill: #fdb927;" />
  <rect x="120.23" y="60.18" width=".86" height=".86" style="fill: #00243c;" />
  <rect x="121.09" y="60.18" width=".86" height=".86" style="fill: #fdb927;" />
  <path d="M121.95,61.04h.86v-.86h-.86v.86ZM122.81,61.04h.86v-.86h-.86v.86Z" style="fill: #00243c;" />
  <rect x="123.67" y="60.18" width=".86" height=".86" style="fill: #fdb927;" />
  <path d="M124.53,61.04h.86v-.86h-.86v.86ZM125.39,61.04h.86v-.86h-.86v.86ZM126.25,61.04h.86v-.86h-.86v.86Z"
    style="fill: #00243c;" />
  <rect x="127.1" y="60.18" width=".86" height=".86" style="fill: #fdb927;" />
  <rect x="127.96" y="60.18" width=".86" height=".86" style="fill: #00243c;" />
  <path d="M128.82,61.04h.86v-.86h-.86v.86ZM129.68,61.04h.86v-.86h-.86v.86ZM130.54,61.04h.86v-.86h-.86v.86Z"
    style="fill: #fdb927;" />
  <path d="M131.4,61.04h.86v-.86h-.86v.86ZM132.26,61.04h.86v-.86h-.86v.86Z" style="fill: #00243c;" />
  <path d="M133.12,61.04h.86v-.86h-.86v.86ZM133.98,61.04h.86v-.86h-.86v.86ZM134.84,61.04h.86v-.86h-.86v.86Z"
    style="fill: #fdb927;" />
  <path
    d="M111.64,61.9h.86v-.86h-.86v.86ZM135.7,61.04h.86v-.86h-.86v.86ZM136.55,61.04h.86v-.86h-.86v.86ZM137.41,61.04h.86v-.86h-.86v.86ZM138.27,61.04h.86v-.86h-.86v.86ZM139.13,61.04h.86v-.86h-.86v.86Z"
    style="fill: #00243c;" />
  <rect x="112.5" y="61.04" width=".86" height=".86" style="fill: #fdb927;" />
  <path d="M113.36,61.9h.86v-.86h-.86v.86ZM114.22,61.9h.86v-.86h-.86v.86ZM115.08,61.9h.86v-.86h-.86v.86Z"
    style="fill: #00243c;" />
  <rect x="115.94" y="61.04" width=".86" height=".86" style="fill: #fdb927;" />
  <rect x="116.8" y="61.04" width=".86" height=".86" style="fill: #00243c;" />
  <rect x="117.66" y="61.04" width=".86" height=".86" style="fill: #fdb927;" />
  <path
    d="M118.51,61.9h.86v-.86h-.86v.86ZM119.37,61.9h.86v-.86h-.86v.86ZM120.23,61.9h.86v-.86h-.86v.86ZM121.09,61.9h.86v-.86h-.86v.86ZM121.95,61.9h.86v-.86h-.86v.86ZM122.81,61.9h.86v-.86h-.86v.86Z"
    style="fill: #00243c;" />
  <path d="M123.67,61.9h.86v-.86h-.86v.86ZM124.53,61.9h.86v-.86h-.86v.86Z" style="fill: #fdb927;" />
  <rect x="125.39" y="61.04" width=".86" height=".86" style="fill: #00243c;" />
  <rect x="126.25" y="61.04" width=".86" height=".86" style="fill: #fdb927;" />
  <path d="M127.1,61.9h.86v-.86h-.86v.86ZM127.96,61.9h.86v-.86h-.86v.86Z" style="fill: #00243c;" />
  <rect x="128.82" y="61.04" width=".86" height=".86" style="fill: #fdb927;" />
  <path d="M129.68,61.9h.86v-.86h-.86v.86ZM130.54,61.9h.86v-.86h-.86v.86Z" style="fill: #00243c;" />
  <rect x="131.4" y="61.04" width=".86" height=".86" style="fill: #fdb927;" />
  <path
    d="M132.26,61.9h.86v-.86h-.86v.86ZM133.12,61.9h.86v-.86h-.86v.86ZM133.98,61.9h.86v-.86h-.86v.86ZM134.84,61.9h.86v-.86h-.86v.86ZM135.7,61.9h.86v-.86h-.86v.86ZM136.55,61.9h.86v-.86h-.86v.86Z"
    style="fill: #00243c;" />
  <rect x="137.41" y="61.04" width=".86" height=".86" style="fill: #fdb927;" />
  <path d="M111.64,62.75h.86v-.86h-.86v.86ZM138.27,61.9h.86v-.86h-.86v.86ZM139.13,61.9h.86v-.86h-.86v.86Z"
    style="fill: #00243c;" />
  <rect x="112.5" y="61.89" width=".86" height=".86" style="fill: #fdb927;" />
  <path d="M113.36,62.75h.86v-.86h-.86v.86ZM114.22,62.75h.86v-.86h-.86v.86ZM115.08,62.75h.86v-.86h-.86v.86Z"
    style="fill: #00243c;" />
  <rect x="115.94" y="61.89" width=".86" height=".86" style="fill: #fdb927;" />
  <rect x="116.8" y="61.89" width=".86" height=".86" style="fill: #00243c;" />
  <rect x="117.66" y="61.89" width=".86" height=".86" style="fill: #fdb927;" />
  <path d="M118.51,62.75h.86v-.86h-.86v.86ZM119.37,62.75h.86v-.86h-.86v.86Z" style="fill: #00243c;" />
  <path d="M120.23,62.75h.86v-.86h-.86v.86ZM121.09,62.75h.86v-.86h-.86v.86Z" style="fill: #fdb927;" />
  <rect x="121.95" y="61.89" width=".86" height=".86" style="fill: #00243c;" />
  <rect x="122.81" y="61.89" width=".86" height=".86" style="fill: #fdb927;" />
  <rect x="123.67" y="61.89" width=".86" height=".86" style="fill: #00243c;" />
  <path d="M124.53,62.75h.86v-.86h-.86v.86ZM125.39,62.75h.86v-.86h-.86v.86ZM126.25,62.75h.86v-.86h-.86v.86Z"
    style="fill: #fdb927;" />
  <rect x="127.1" y="61.89" width=".86" height=".86" style="fill: #00243c;" />
  <rect x="127.96" y="61.89" width=".86" height=".86" style="fill: #fdb927;" />
  <path d="M128.82,62.75h.86v-.86h-.86v.86ZM129.68,62.75h.86v-.86h-.86v.86Z" style="fill: #00243c;" />
  <rect x="130.54" y="61.89" width=".86" height=".86" style="fill: #fdb927;" />
  <path d="M131.4,62.75h.86v-.86h-.86v.86ZM132.26,62.75h.86v-.86h-.86v.86ZM133.12,62.75h.86v-.86h-.86v.86Z"
    style="fill: #00243c;" />
  <path d="M133.98,62.75h.86v-.86h-.86v.86ZM134.84,62.75h.86v-.86h-.86v.86Z" style="fill: #fdb927;" />
  <rect x="135.7" y="61.89" width=".86" height=".86" style="fill: #00243c;" />
  <path d="M136.55,62.75h.86v-.86h-.86v.86ZM137.41,62.75h.86v-.86h-.86v.86ZM138.27,62.75h.86v-.86h-.86v.86Z"
    style="fill: #fdb927;" />
  <path d="M111.64,63.61h.86v-.86h-.86v.86ZM139.13,62.75h.86v-.86h-.86v.86Z" style="fill: #00243c;" />
  <rect x="112.5" y="62.75" width=".86" height=".86" style="fill: #fdb927;" />
  <path d="M113.36,63.61h.86v-.86h-.86v.86ZM114.22,63.61h.86v-.86h-.86v.86ZM115.08,63.61h.86v-.86h-.86v.86Z"
    style="fill: #00243c;" />
  <rect x="115.94" y="62.75" width=".86" height=".86" style="fill: #fdb927;" />
  <rect x="116.8" y="62.75" width=".86" height=".86" style="fill: #00243c;" />
  <rect x="117.66" y="62.75" width=".86" height=".86" style="fill: #fdb927;" />
  <path d="M118.51,63.61h.86v-.86h-.86v.86ZM119.37,63.61h.86v-.86h-.86v.86ZM120.23,63.61h.86v-.86h-.86v.86Z"
    style="fill: #00243c;" />
  <rect x="121.09" y="62.75" width=".86" height=".86" style="fill: #fdb927;" />
  <rect x="121.95" y="62.75" width=".86" height=".86" style="fill: #00243c;" />
  <rect x="122.81" y="62.75" width=".86" height=".86" style="fill: #fdb927;" />
  <path d="M123.67,63.61h.86v-.86h-.86v.86ZM124.53,63.61h.86v-.86h-.86v.86ZM125.39,63.61h.86v-.86h-.86v.86Z"
    style="fill: #00243c;" />
  <rect x="126.25" y="62.75" width=".86" height=".86" style="fill: #fdb927;" />
  <rect x="127.1" y="62.75" width=".86" height=".86" style="fill: #00243c;" />
  <rect x="127.96" y="62.75" width=".86" height=".86" style="fill: #fdb927;" />
  <path d="M128.82,63.61h.86v-.86h-.86v.86ZM129.68,63.61h.86v-.86h-.86v.86ZM130.54,63.61h.86v-.86h-.86v.86Z"
    style="fill: #00243c;" />
  <path d="M131.4,63.61h.86v-.86h-.86v.86ZM132.26,63.61h.86v-.86h-.86v.86Z" style="fill: #fdb927;" />
  <path d="M133.12,63.61h.86v-.86h-.86v.86ZM133.98,63.61h.86v-.86h-.86v.86Z" style="fill: #00243c;" />
  <path d="M134.84,63.61h.86v-.86h-.86v.86ZM135.7,63.61h.86v-.86h-.86v.86Z" style="fill: #fdb927;" />
  <rect x="136.55" y="62.75" width=".86" height=".86" style="fill: #00243c;" />
  <path d="M137.41,63.61h.86v-.86h-.86v.86ZM138.27,63.61h.86v-.86h-.86v.86ZM139.13,63.61h.86v-.86h-.86v.86Z"
    style="fill: #fdb927;" />
  <rect x="111.64" y="63.61" width=".86" height=".86" style="fill: #00243c;" />
  <path
    d="M112.5,64.47h.86v-.86h-.86v.86ZM113.36,64.47h.86v-.86h-.86v.86ZM114.22,64.47h.86v-.86h-.86v.86ZM115.08,64.47h.86v-.86h-.86v.86ZM115.94,64.47h.86v-.86h-.86v.86Z"
    style="fill: #fdb927;" />
  <rect x="116.8" y="63.61" width=".86" height=".86" style="fill: #00243c;" />
  <path d="M117.66,64.47h.86v-.86h-.86v.86ZM118.51,64.47h.86v-.86h-.86v.86Z" style="fill: #fdb927;" />
  <path d="M119.37,64.47h.86v-.86h-.86v.86ZM120.23,64.47h.86v-.86h-.86v.86Z" style="fill: #00243c;" />
  <path d="M121.09,64.47h.86v-.86h-.86v.86ZM121.95,64.47h.86v-.86h-.86v.86Z" style="fill: #fdb927;" />
  <path d="M122.81,64.47h.86v-.86h-.86v.86ZM123.67,64.47h.86v-.86h-.86v.86ZM124.53,64.47h.86v-.86h-.86v.86Z"
    style="fill: #00243c;" />
  <rect x="125.39" y="63.61" width=".86" height=".86" style="fill: #fdb927;" />
  <path d="M126.25,64.47h.86v-.86h-.86v.86ZM127.1,64.47h.86v-.86h-.86v.86Z" style="fill: #00243c;" />
  <rect x="127.96" y="63.61" width=".86" height=".86" style="fill: #fdb927;" />
  <rect x="128.82" y="63.61" width=".86" height=".86" style="fill: #00243c;" />
  <path
    d="M129.68,64.47h.86v-.86h-.86v.86ZM130.54,64.47h.86v-.86h-.86v.86ZM131.4,64.47h.86v-.86h-.86v.86ZM132.26,64.47h.86v-.86h-.86v.86ZM133.12,64.47h.86v-.86h-.86v.86ZM133.98,64.47h.86v-.86h-.86v.86Z"
    style="fill: #fdb927;" />
  <rect x="134.84" y="63.61" width=".86" height=".86" style="fill: #00243c;" />
  <rect x="135.7" y="63.61" width=".86" height=".86" style="fill: #fdb927;" />
  <path d="M136.55,64.47h.86v-.86h-.86v.86ZM137.41,64.47h.86v-.86h-.86v.86Z" style="fill: #00243c;" />
  <path d="M138.27,64.47h.86v-.86h-.86v.86ZM139.13,64.47h.86v-.86h-.86v.86Z" style="fill: #fdb927;" />
  <path
    d="M111.64,65.33h.86v-.86h-.86v.86ZM112.5,65.33h.86v-.86h-.86v.86ZM113.36,65.33h.86v-.86h-.86v.86ZM114.22,65.33h.86v-.86h-.86v.86ZM115.08,65.33h.86v-.86h-.86v.86ZM115.94,65.33h.86v-.86h-.86v.86ZM116.8,65.33h.86v-.86h-.86v.86Z"
    style="fill: #00243c;" />
  <path d="M117.66,65.33h.86v-.86h-.86v.86ZM118.51,65.33h.86v-.86h-.86v.86Z" style="fill: #fdb927;" />
  <rect x="119.37" y="64.47" width=".86" height=".86" style="fill: #00243c;" />
  <rect x="120.23" y="64.47" width=".86" height=".86" style="fill: #fdb927;" />
  <rect x="121.09" y="64.47" width=".86" height=".86" style="fill: #00243c;" />
  <path d="M121.95,65.33h.86v-.86h-.86v.86ZM122.81,65.33h.86v-.86h-.86v.86Z" style="fill: #fdb927;" />
  <rect x="123.67" y="64.47" width=".86" height=".86" style="fill: #00243c;" />
  <path d="M124.53,65.33h.86v-.86h-.86v.86ZM125.39,65.33h.86v-.86h-.86v.86Z" style="fill: #fdb927;" />
  <rect x="126.25" y="64.47" width=".86" height=".86" style="fill: #00243c;" />
  <rect x="127.1" y="64.47" width=".86" height=".86" style="fill: #fdb927;" />
  <path d="M127.96,65.33h.86v-.86h-.86v.86ZM128.82,65.33h.86v-.86h-.86v.86Z" style="fill: #00243c;" />
  <path d="M129.68,65.33h.86v-.86h-.86v.86ZM130.54,65.33h.86v-.86h-.86v.86Z" style="fill: #fdb927;" />
  <path d="M131.4,65.33h.86v-.86h-.86v.86ZM132.26,65.33h.86v-.86h-.86v.86Z" style="fill: #00243c;" />
  <rect x="133.12" y="64.47" width=".86" height=".86" style="fill: #fdb927;" />
  <rect x="133.98" y="64.47" width=".86" height=".86" style="fill: #00243c;" />
  <path
    d="M134.84,65.33h.86v-.86h-.86v.86ZM135.7,65.33h.86v-.86h-.86v.86ZM136.55,65.33h.86v-.86h-.86v.86ZM137.41,65.33h.86v-.86h-.86v.86Z"
    style="fill: #fdb927;" />
  <rect x="138.27" y="64.47" width=".86" height=".86" style="fill: #00243c;" />
  <rect x="139.13" y="64.47" width=".86" height=".86" style="fill: #fdb927;" />
  <g>
    <path
      d="M68.43,67.16h-22.64c-.77,0-1.4-.63-1.4-1.4v-32.42c0-.77.63-1.4,1.4-1.4h22.64c.77,0,1.4.63,1.4,1.4v32.42c0,.77-.63,1.4-1.4,1.4M45.78,32.19c-.63,0-1.15.51-1.15,1.15v32.42c0,.63.51,1.15,1.15,1.15h22.64c.63,0,1.14-.52,1.14-1.15v-32.42c0-.63-.51-1.15-1.14-1.15h-22.64Z"
      style="fill: #00243c;" />
    <path
      d="M62.35,34.28c.22,0,.4.08.56.23.16.15.23.34.23.56s-.08.4-.23.56c-.15.16-.34.23-.56.23s-.4-.08-.56-.23c-.15-.15-.23-.34-.23-.56s.08-.4.23-.56c.15-.16.34-.23.56-.23M62.35,35.73c.18,0,.34-.06.46-.19.13-.13.19-.28.2-.47,0-.18-.06-.34-.19-.46-.13-.13-.28-.19-.47-.19-.18,0-.34.06-.46.19-.13.13-.19.28-.19.47,0,.18.06.34.19.47.13.13.28.19.47.2M62.72,35.5h-.17c-.11-.19-.17-.3-.21-.33l-.12-.04h-.08v.36h-.14v-.85h.29l.2.02.11.08.04.13-.06.16-.18.08c.05.01.12.08.2.21l.1.17ZM62.14,35.03h.17l.16-.03.04-.09-.04-.09-.17-.03h-.16v.26Z"
      style="fill: #00243c;" />
    <path
      d="M57.45,34.09c-3.3,0-4.46,5.13-5.55,9.26-.39-.4-1.6-1.6-1.6-1.6-.24-.24-.52-.16-.69,0-.17.17-.2.49,0,.68,0,0,1.63,1.63,2.2,2.19.16.15.38.24.6.11.23-.14.26-.4.27-.4,1.93-8.64,3.64-9.28,4.76-9.28.94,0,2.02.69,2.02,2.09,1.4,0,2.28,1.84,1.15,2.98.94.45,1.35,1.01,1.35,1.71s-.59,1.43-1.45,1.42c-.85,0-1.29-.55-1.95-.55-.3,0-.49.24-.49.48v1.74h-1.26v-1.74c0-.27-.2-.49-.45-.49h-.11l-1.68.21c-.2.03-.39.25-.39.48,0,.27.22.49.52.49h.08l1.07-.14v1.72c0,.22.25.43.47.43h2.24c.26,0,.49-.22.49-.49v-1.57c.47.29,1.12.4,1.45.4,1.25,0,2.45-.99,2.44-2.43,0-1.31-1.01-1.97-1.01-1.97.59-1.57-.36-3.08-1.59-3.5-.45-1.62-1.83-2.24-2.89-2.24"
      style="fill: #00243c;" />
    <path
      d="M56.04,47.82c0,.41.45.65,1.2,1,.59.28.93.57.93.81,0,.38-.41.52-.79.52-.59,0-.94-.24-1.14-.77v-.05h-.06c-.11,0-.19,0-.24.06v.19s.12.54.12.54c.03.13.08.16.29.2.09.02.57.1.98.1,1.13,0,1.64-.46,1.64-.92,0-.33-.33-.65-1.04-1.01l-.32-.16c-.49-.23-.78-.37-.78-.61s.3-.4.74-.4c.57,0,.72.32.79.59v.05h.07c.13,0,.2-.01.25-.06l.03-.12-.04-.47c-.01-.15-.13-.17-.29-.2-.19-.04-.42-.08-.76-.08-.98,0-1.57.29-1.57.77"
      style="fill: #00243c;" />
    <path
      d="M59.3,48.78c0,.82.71,1.65,2.07,1.65.69,0,1.07-.16,1.36-.31l.08-.04-.13-.14-.1-.05-.07.02c-.1.05-.42.19-.99.19-.7,0-1.46-.46-1.46-1.47s.82-1.31,1.53-1.31c.51,0,.77.18.82.56v.06h.06c.06,0,.22,0,.22-.12v-.56c0-.14-.16-.16-.22-.17h-.07c-.16-.02-.32-.04-.73-.04-1.37,0-2.38.72-2.38,1.72"
      style="fill: #00243c;" />
    <path
      d="M54.17,47.09h-1.23s-.82,0-.82,0h-.12l-.12.13s0,.14.14.14c.49,0,.51.04.52.23v1.71c0,.18,0,.47-.02.7,0,.07,0,.13-.44.13-.12,0-.19.02-.19.15,0,.03,0,.13.12.13h1.85c.1,0,.18-.01.18-.13,0-.14-.11-.15-.29-.15-.44,0-.44-.06-.45-.13,0-.21-.02-.5-.02-.7v-.39h.37c.56,0,.63.01.71.45.02.09.1.11.16.11.13,0,.15-.07.15-.1v-.16c-.01-.09-.03-.21-.03-.37v-.67c0-.1-.12-.1-.18-.1-.11,0-.13.07-.2.38-.03.12-.26.19-.64.19h-.33v-.98c0-.27.05-.27.1-.27.22,0,.74-.03.89-.03.15,0,.28.03.37.09.28.17.42.29.51.36l.2.11s.16,0,.16-.1l-.05-.13c-.05-.1-.12-.27-.22-.52-.03-.08-.12-.08-.29-.08h-.77Z"
      style="fill: #00243c;" />
    <path
      d="M56.62,55.94h-.26v-1.71l-.59,1.71h-.24l-.59-1.74h-.01v1.74h-.26v-2.05h.4l.48,1.45c.06.16.08.26.09.3.02-.08.06-.19.11-.33l.49-1.42h.36v2.05h0Z"
      style="fill: #00243c;" />
    <rect x="57.21" y="53.89" width=".27" height="2.05" style="fill: #00243c;" />
    <path
      d="M59.74,55.94h-.33l-.41-.58c-.1-.14-.16-.24-.19-.29,0,.02-.21.31-.62.87h-.33l.79-1.07-.7-.98h.32l.43.61.1.17c.04-.06.23-.32.57-.78h.3l-.72.96.78,1.08Z"
      style="fill: #00243c;" />
    <path
      d="M52.18,64.56c-.08.07-.18.11-.29.11-.15,0-.28-.06-.37-.17s-.14-.31-.14-.58c0-.26.05-.44.14-.55.1-.11.22-.17.38-.17.11,0,.21.03.29.1.08.06.13.15.16.26l.42-.1c-.05-.17-.12-.3-.21-.4-.16-.16-.37-.23-.63-.23-.29,0-.53.1-.71.3-.18.2-.27.47-.27.83,0,.34.09.6.27.8.18.19.41.29.69.29.23,0,.41-.06.56-.17.15-.11.25-.29.32-.52l-.41-.13c-.03.16-.09.27-.17.34M49.2,64.85c.14.13.35.19.61.19.18,0,.33-.03.46-.08.12-.05.22-.13.28-.24.07-.11.1-.22.1-.34,0-.14-.03-.25-.08-.34-.06-.09-.13-.17-.23-.22-.1-.05-.25-.1-.46-.15-.21-.05-.34-.1-.39-.14-.04-.04-.06-.08-.06-.13,0-.05.02-.1.07-.13.07-.05.17-.08.29-.08s.21.02.27.07c.06.05.1.13.12.24l.42-.02c0-.2-.08-.35-.21-.47-.13-.12-.33-.18-.6-.18-.16,0-.3.03-.41.07-.11.05-.2.12-.26.22-.06.09-.09.2-.09.31,0,.17.07.31.19.43.09.08.25.15.48.21.18.05.29.08.34.09.07.03.12.06.15.09.03.04.04.08.04.13,0,.08-.03.15-.1.21-.07.06-.17.09-.31.09-.13,0-.23-.03-.31-.1-.08-.07-.13-.17-.15-.31l-.41.04c.03.24.11.42.26.55M47.68,65v-.91h.88v-.36h-.88v-.51h1.02v-.36h-1.44v2.14h.43Z"
      style="fill: #00243c;" />
    <path
      d="M53.4,63.15h.06c.08,0,.13,0,.15.01l.05.03.02.05-.02.05-.05.03s-.07,0-.15,0h-.06v-.19ZM53.4,63.73v-.29h.04l.1.03s.06.07.09.14l.06.11h.17l-.08-.14s-.04-.08-.05-.08l-.05-.05-.05-.03c.06,0,.1-.03.14-.07.03-.04.05-.08.05-.13l-.03-.1-.06-.07s-.06-.02-.11-.03c-.02,0-.09,0-.22,0h-.14v.69h.14ZM53.81,62.92c.08.04.15.11.19.19.05.08.07.17.07.27s-.02.18-.07.26c-.04.08-.11.15-.19.19-.08.05-.17.07-.26.07s-.17-.02-.26-.07c-.08-.05-.14-.11-.19-.19-.04-.08-.07-.17-.07-.26s.02-.18.07-.27c.05-.08.11-.15.19-.19.08-.05.17-.07.25-.07s.17.02.25.07M53.24,62.81c-.1.05-.18.14-.24.24-.06.1-.09.21-.09.33s.03.22.08.32c.06.1.14.18.24.24.1.06.21.09.32.09s.22-.03.32-.09c.1-.06.18-.14.24-.24.06-.1.09-.21.09-.32s-.03-.22-.09-.33-.14-.19-.24-.24c-.1-.06-.21-.08-.32-.08s-.22.03-.32.08"
      style="fill: #00243c;" />
    <path
      d="M56.35,64.56c-.08.07-.18.11-.29.11-.15,0-.28-.06-.37-.17s-.14-.31-.14-.58c0-.25.05-.44.15-.55s.22-.17.38-.17c.11,0,.21.03.29.1.08.06.13.15.15.26l.42-.1c-.05-.17-.12-.3-.22-.39-.16-.16-.37-.23-.63-.23-.29,0-.53.1-.71.3-.18.2-.27.47-.27.83,0,.34.09.6.27.8.18.19.41.29.69.29.22,0,.41-.06.56-.17.15-.11.25-.29.32-.52l-.41-.13c-.04.16-.09.27-.17.34"
      style="fill: #00243c;" />
    <path
      d="M65.54,63.26v-.38h1.41v.3c-.12.11-.23.28-.35.49-.12.21-.21.44-.27.68-.06.24-.09.46-.09.64h-.4c0-.3.07-.6.18-.91.12-.31.27-.58.46-.83h-.94ZM64.68,64.21v-.73l-.49.73h.49ZM64.68,65v-.43h-.88v-.36l.93-1.36h.35v1.36h.27v.36h-.27v.43h-.4ZM63.6,64.62v.38h-1.44c.02-.14.06-.28.14-.41.08-.13.23-.3.46-.52.19-.17.3-.29.34-.35.06-.08.08-.17.08-.25,0-.09-.02-.16-.07-.21-.05-.05-.12-.07-.2-.07s-.15.03-.21.08c-.05.05-.08.14-.09.26l-.41-.04c.03-.23.1-.39.23-.49.13-.1.29-.15.48-.15.21,0,.38.06.5.17.12.11.18.26.18.43,0,.1-.02.19-.05.28-.03.09-.09.18-.16.27-.05.06-.14.16-.27.27-.13.12-.21.2-.25.24-.03.04-.06.08-.08.11h.82ZM61.59,65h-.41v-1.55c-.15.14-.33.25-.53.31v-.37c.11-.04.22-.1.35-.2.13-.1.21-.21.26-.34h.33v2.16ZM60.26,64.62v.38h-1.44c.02-.14.06-.28.14-.41.08-.13.23-.3.46-.52.19-.17.3-.29.34-.35.06-.08.08-.17.08-.25,0-.09-.02-.16-.07-.21-.05-.05-.12-.07-.2-.07s-.15.03-.21.08c-.05.05-.08.14-.09.26l-.41-.04c.02-.23.1-.39.23-.49.13-.1.29-.15.48-.15.21,0,.38.06.5.17.12.11.18.26.18.43,0,.1-.02.19-.05.28-.03.09-.09.18-.17.27-.05.06-.14.16-.27.27-.13.12-.21.2-.25.24-.04.04-.06.08-.08.11h.82ZM58.26,65h-.41v-1.55c-.15.14-.33.25-.53.31v-.37c.11-.04.22-.1.35-.2.13-.1.21-.21.26-.34h.33v2.16Z"
      style="fill: #00243c;" />
    <path
      d="M54.46,59.98h.39c.07,0,.11,0,.14,0,.05,0,.09-.02.12-.04.03-.02.06-.05.08-.09.02-.04.03-.08.03-.13,0-.06-.01-.11-.04-.15-.03-.04-.07-.08-.12-.09-.05-.02-.13-.03-.23-.03h-.36v.54ZM54.46,59.26h.34c.09,0,.16,0,.2-.02.05-.02.09-.04.12-.08.03-.04.04-.08.04-.14,0-.05-.01-.1-.04-.14-.03-.04-.06-.07-.11-.08-.05-.02-.13-.02-.24-.02h-.32v.48ZM54.25,60.17v-1.57h.59c.12,0,.22.02.29.05.07.03.13.08.17.15.04.07.06.14.06.21,0,.07-.02.13-.05.19-.04.06-.09.11-.17.14.09.03.17.08.22.14.05.07.08.15.08.24,0,.07-.01.14-.05.2-.03.06-.07.11-.12.15-.04.03-.1.06-.17.08-.07.02-.15.03-.25.03h-.6Z"
      style="fill: #00243c;" />
    <path
      d="M55.83,59.6c0,.15.03.26.1.33.06.07.14.11.24.11s.18-.04.24-.11c.06-.07.1-.18.1-.33s-.03-.25-.1-.32c-.06-.07-.14-.11-.24-.11s-.18.04-.24.11c-.06.07-.1.18-.1.33M55.63,59.6c0-.21.06-.37.18-.47.1-.08.22-.13.36-.13.16,0,.29.05.38.15.1.1.15.24.15.43,0,.15-.02.26-.07.35-.04.08-.11.15-.19.2-.08.05-.18.07-.28.07-.16,0-.29-.05-.39-.15-.1-.1-.15-.25-.15-.44"
      style="fill: #00243c;" />
    <path
      d="M57.66,59.6c-.07.03-.18.05-.32.07-.08.01-.14.02-.17.04-.03.01-.06.04-.08.06-.02.03-.03.06-.03.09,0,.05.02.09.06.13.04.03.1.05.17.05s.14-.02.2-.05c.06-.03.1-.08.13-.13.02-.04.03-.11.03-.19v-.07ZM57.67,60.03c-.07.06-.14.1-.21.13s-.14.04-.21.04c-.12,0-.22-.03-.29-.09-.07-.06-.1-.14-.1-.23,0-.06.01-.11.04-.15.03-.05.06-.08.1-.11s.09-.05.14-.06c.04-.01.1-.02.17-.03.16-.02.27-.04.35-.07,0-.03,0-.04,0-.05,0-.08-.02-.13-.05-.17-.05-.04-.12-.07-.22-.07-.09,0-.16.02-.2.05-.04.03-.08.09-.1.17l-.19-.03c.02-.08.05-.15.08-.2.04-.05.1-.09.17-.11.08-.03.16-.04.26-.04s.18.01.24.03c.06.02.1.05.13.09.03.03.05.08.06.13,0,.03.01.09.01.18v.26c0,.18,0,.29.01.34,0,.05.03.09.05.14h-.2s-.03-.09-.04-.14"
      style="fill: #00243c;" />
    <path
      d="M58.15,60.17v-1.14h.17v.17c.04-.08.08-.13.12-.16.04-.03.08-.04.12-.04.06,0,.13.02.2.06l-.07.18s-.1-.04-.14-.04c-.04,0-.08.01-.11.04-.03.03-.06.06-.07.11-.02.07-.03.14-.03.23v.6h-.19Z"
      style="fill: #00243c;" />
    <path
      d="M59.01,59.6c0,.15.03.26.09.33.06.07.13.11.22.11s.16-.04.22-.1c.06-.07.09-.18.09-.32,0-.16-.03-.27-.09-.34-.06-.07-.13-.11-.22-.11s-.16.03-.22.11c-.06.07-.09.18-.09.33M59.62,60.17v-.14c-.07.11-.18.17-.32.17-.09,0-.18-.03-.25-.07-.08-.05-.14-.12-.18-.21-.04-.09-.06-.19-.06-.31s.02-.22.06-.31c.04-.09.09-.16.17-.21.08-.05.16-.08.25-.08.07,0,.13.02.18.04.05.03.1.07.13.11v-.56h.19v1.57h-.18Z"
      style="fill: #00243c;" />
  </g>
  <text id="quantity" y="98%" x="59%"
    style="font-family: Arial-BoldMT, Arial; font-size: 15px; font-weight: 700; isolation: isolate;"
    text-anchor="middle">
  </text>

</svg>