<?xml version="1.0" encoding="UTF-8"?>
<svg id="Layer_1" data-name="Layer 1" data-size="24mm x 50mm" xmlns="http://www.w3.org/2000/svg"
  viewBox="0 0 162.53 245.6">

 <text id="quantity" y="96%" x="50%"
    style="font-family: Arial-BoldMT, Arial; font-size: 15px; font-weight: 700; isolation: isolate;"
    text-anchor="middle">
  </text>
  <rect x="39.32" y=".25" width="68.03" height="161.54" style="fill: #fff;" />
  <rect x="39.32" y=".25" width="68.03" height="161.54" style="fill: none; stroke: #e50695; stroke-width: .5px;" />
  <text transform="translate(115.86 46)"
    style="fill: #101820; font-family: Barlow-SemiBold, Barlow; font-size: 13.14px; font-weight: 600;">
    <tspan x="0" y="0">Front</tspan>
  </text>
  <text transform="translate(115.86 118.55)"
    style="fill: #101820; font-family: Barlow-SemiBold, Barlow; font-size: 13.14px; font-weight: 600;">
    <tspan x="0" y="0">Back</tspan>
  </text>
  <line x1="39.48" y1="176.61" x2="107.79" y2="176.61"
    style="fill: none; stroke: #38d430; stroke-dasharray: 2.19 2.19; stroke-width: .99px;" />
  <rect x="38.98" y="173.38" width=".99" height="6.45" style="fill: #38d430;" />
  <rect x="107.3" y="173.38" width=".99" height="6.45" style="fill: #38d430;" />
  <text transform="translate(54.3 195.32)"
    style="fill: #00a6ce; font-family: Barlow-Regular, Barlow; font-size: 14.33px;">
    <tspan x="0" y="0">24 mm</tspan>
  </text>
  <line x1="21.7" y1="12.81" x2="21.7" y2="79.94"
    style="fill: none; stroke: #38d430; stroke-dasharray: 2.19 2.19; stroke-width: .99px;" />
  <rect x="18.48" y="12.31" width="6.45" height=".99" style="fill: #38d430;" />
  <rect x="18.48" y="79.45" width="6.45" height=".99" style="fill: #38d430;" />
  <text transform="translate(12.18 63.87) rotate(-90)"
    style="fill: #38d430; font-family: Barlow-Regular, Barlow; font-size: 14.33px;">
    <tspan x="0" y="0">25 mm</tspan>
  </text>
  <line x1="21.7" y1="83.05" x2="21.7" y2="150.18"
    style="fill: none; stroke: #38d430; stroke-dasharray: 2.19 2.19; stroke-width: .99px;" />
  <rect x="18.48" y="82.55" width="6.45" height=".99" style="fill: #38d430;" />
  <rect x="18.48" y="149.68" width="6.45" height=".99" style="fill: #38d430;" />
  <text transform="translate(12.18 132.69) rotate(-90)"
    style="fill: #38d430; font-family: Barlow-Regular, Barlow; font-size: 14.33px;">
    <tspan x="0" y="0">25 mm</tspan>
  </text>
  <text transform="translate(115.86 78.71)"
    style="fill: #ec1c24; font-family: Barlow-SemiBold, Barlow; font-size: 9px; font-weight: 600;">
    <tspan x="0" y="0">PIEGATURA</tspan>
  </text>
  <text transform="translate(115.86 88.4)"
    style="fill: #ec1c24; font-family: Barlow-SemiBold, Barlow; font-size: 9px; font-weight: 600;">
    <tspan x="0" y="0">FOLD</tspan>
  </text>
  <text transform="translate(115.86 11.66)"
    style="fill: #38d430; font-family: Barlow-SemiBold, Barlow; font-size: 9px; font-weight: 600;">
    <tspan x="0" y="0">CUCITURA</tspan>
  </text>
  <text transform="translate(115.86 21.35)"
    style="fill: #38d430; font-family: Barlow-SemiBold, Barlow; font-size: 9px; font-weight: 600;">
    <tspan x="0" y="0">SEAM</tspan>
  </text>
  <text transform="translate(115.86 150.4)"
    style="fill: #38d430; font-family: Barlow-SemiBold, Barlow; font-size: 9px; font-weight: 600;">
    <tspan x="0" y="0">CUCITURA</tspan>
  </text>
  <text transform="translate(115.86 160.1)"
    style="fill: #38d430; font-family: Barlow-SemiBold, Barlow; font-size: 9px; font-weight: 600;">
    <tspan x="0" y="0">SEAM</tspan>
  </text>
  <line x1="32.22" y1="9.16" x2="114.45" y2="9.16"
    style="fill: none; stroke: #38d430; stroke-dasharray: 2.19 2.19; stroke-width: .99px;" />
  <line x1="32.22" y1="151.55" x2="114.45" y2="151.55"
    style="fill: none; stroke: #38d430; stroke-dasharray: 2.19 2.19; stroke-width: .99px;" />
  <line x1="30.86" y1="81.09" x2="115.8" y2="81.09" style="fill: none; stroke: #ec1c24; stroke-dasharray: 3 3;" />
  <path
    d="M65.39,45.39c-.45-1.77-2.07-4.02-4.47-5.87-4.27-3.29-11.33-5.78-17.12-4.08-.38.1-1.04.99-1.08,1.45-.04.55.91.76,1.65.61.19-.05.56-.08.47-.37-.28-.39-.78-.24-1.05-.45.1-.18.37-.18.57-.27,3.72-.57,6.53.01,9.74,1.32,3.52,1.49,7.64,3.53,9.11,7.42.45,1.43.15,3.4-1.11,4.32-2.32,1.79-6.01,1.98-8.85,1.36-.06-1.79.06-3.42.05-5.32,2.02.03,4.93.4,5.39,1.21.08.14-.07.4-.28.51-.43.22-.85.47-.75.62.12.21,1,.57,1.39.4.51-.23.98-.74,1.17-1.3.17-.51-.04-1.21-.41-1.56-1.4-1.35-5.25-1.67-6.47-1.62,0,0-.07-1.79-.11-2.42-.08-1.06-.87-1.82-1.02-1.46-.54,1.27-.63,3.11-.7,3.92-.54.09-1.54.21-2.9.71-.77.28-1.69.63-2.38,1.28-.34.32-.42.93-.28,1.3.5,1.33,3.11,3.51,5.3,4.51.08.66.08,1.64.5,1.84.34.16.63.24,1.03.12.45-.13.47-.99.5-1.23,3.3.9,7.17.76,9.96-1.18,2.24-1.69,2.59-4.01,2.14-5.76M51.25,50.27c-1.58-.55-3.62-1.72-4.58-3.1-.26-.37-.31-.7.42-.98,1.29-.5,3.37-.63,4.34-.63-.06,1.27-.15,3.19-.18,4.7"
    style="fill: #00adbb;" />
  <path
    d="M68.04,45.09c.26,2.04.28,6.01.05,6.5-.17.35-.72.36-1.08.25-.76-.2-.57-1.14-.64-1.8.04-1.9.06-3.83.42-5.62.07-.34.19-.47.48-.47.29,0,.71.67.77,1.14"
    style="fill: #00adbb;" />
  <path
    d="M70.11,49.67c.32.63,2.13.76,2.87.66,1.61-.21,2.51-.82,2.62-1.32.17-.73-.95-.96-1.75-1.14-1.42-.32-2.71-.12-4.12-.46-.37-.09-.54-.31-.58-.64-.08-.7.15-1.47.64-1.84,1.4-1.08,5.82-1.31,7.22-.58.25.13.14.53-.01.73-.31.43-.96.3-1.52.35-1.61.15-3.3.01-4.77.52-.24.08-.2.51.29.58,1.94.29,4.92.1,5.54,1.48.32.7.24,2.21-.27,2.72-1.14,1.15-3.33,1.09-4.27.89-.64-.13-2.2-.67-2.63-2.02-.09-.5.09-.89.4-1.13.84-.63,1.87-.46,2.99-.3.66.09,1.7.49,1.78.66.15.3.07.59-1.22.74-1.33.12-2.02-1.09-3-.6-.18.09-.29.54-.21.69"
    style="fill: #00adbb;" />
  <path
    d="M79.26,44.75c1.01.95,2.09,3.21,2.87,4.35.15.21.4.08.4-.14.03-2.01-.77-3.59-1.03-5.44-.02-.17-.1-.55.09-.58.46-.06.87.52,1.15.87.99,1.22,1.49,3.61,1.25,5.47-.08.59-.4,1.85-.95,2.09-.27.11-.93.18-1.15.03-.98-.7-2.25-4.18-2.64-4.15-.1,0-.18.14-.21.44-.12.98-.22,3.58-.22,3.58-.08.61-.53.55-.73.55-.38,0-.68-.22-.71-.43-.14-.87-.09-2.11.02-3,.13-1.11.49-2.57.93-3.4.22-.42.69-.44.93-.22"
    style="fill: #00adbb;" />
  <path
    d="M85.67,47.34l.57-1.32c-.39-.09-1.25-.45-1.4-1.13,0-.11.59-.27.84-.3,1.82-.2,3.07-.37,4.67-.3.34.02,1.28,1.08,1.04,1.48-.17.28-1.51.24-2.04.22-.52-.02-1.51.07-1.51.07l-.48,1.25c.78-.03,2.03-.15,2.37.07.14.09.15.73.09.88-.17.37-1.03.25-1.55.25-.55,0-1.44.05-1.44.05.04-.08-.67,1.36-.51,1.67.13.26,2.73-.46,3.37-.35.42.08.71.77.45,1-1.2,1.06-3.16,1.94-4.25,1.61-1.01-.31-1.45-1.34-1.25-2.16.16-.64.53-1.81.53-1.81-.03-.01-.19-.11-.25-.85-.02-.28.78-.34.78-.33"
    style="fill: #00adbb;" />
  <path
    d="M98.25,45.38c-.27-.3-.83-.53-1.28-.37-1.17.42-1.85,1.26-2.74,2.21-.58.65-1.2,1.7-1.61,2.27-.14-.12-.19-.49-.18-.78.21-1.7,2.04-2.99,1.84-4.49-.04-.29-.74.35-.93.54-1.21,1.33-2.29,3.01-2.06,4.93.08.66.46,1.3.46,1.3,0,0-1.34,2.63-1.73,4.41-.2.9-.25,1.8.02,2.46.28.61,1.34,1.42,1.45.92.47-2.26,1.2-4.53,1.91-6.62,0,0,.45.15.97.1,1.9-.17,3.67-1.79,4.19-3.78.31-1.12.35-2.24-.31-3.11M96.61,49.57c-.69.56-1.59.99-2.3.91.39-.66.83-1.45,1.37-2.16.38-.51,1.17-1.45,1.8-1.8.19-.11.32.13.32.45-.02,1.04-.43,1.95-1.19,2.6"
    style="fill: #00adbb;" />
  <path
    d="M72.05,38.02c-.26-.23-.71-.29-1.08-.26-.18-1.01-2.25-.91-3.06-.72-1.53.37-2.55,1.35-3.12,2.41-.4.76-.2,1.89.35,2.22-.09.2-.09.53-.06.71.07.42.44.81.73.82.27,0,.51-.62.6-.71.7.19,1.48.34,2.33.15,1.69-.38,2.95-1.53,3.46-2.66.31-.69.35-1.5-.16-1.96M65.82,40.64c-.2-.21-.14-.66-.03-.86.1-.18.28-.44.48-.63.29-.27.59-.48.96-.65.18-.09.59-.18.83-.1-.86.53-1.74,1.46-2.24,2.24M69.4,41.23c-.91.34-2.01.2-2.3.08.78-1.3,2.21-2.46,3.18-2.62.52-.09.97-.08,1.08.31.16.6-.33,1.62-1.95,2.23"
    style="fill: #00adbb;" />
  <path
    d="M51.6,120.27c-1.32,0-2.47-.48-3.4-1.42-.94-.94-1.42-2.08-1.42-3.4s.48-2.47,1.42-3.4c.94-.94,2.08-1.42,3.4-1.42s2.46.48,3.4,1.42c.94.94,1.42,2.09,1.42,3.4s-.48,2.46-1.42,3.4c-.94.94-2.08,1.42-3.4,1.42M51.6,111.46c-1.09,0-2.04.4-2.81,1.17-.78.78-1.17,1.73-1.17,2.82s.39,2.04,1.17,2.82c.78.78,1.72,1.18,2.81,1.18s2.04-.4,2.81-1.18c.78-.78,1.18-1.73,1.18-2.82s-.4-2.04-1.18-2.82c-.77-.78-1.72-1.17-2.81-1.17M51.62,118.25c-.71,0-1.31-.27-1.78-.81-.46-.53-.7-1.2-.7-2.01,0-.76.23-1.4.7-1.91.46-.51,1.07-.77,1.82-.77.91,0,1.61.49,2.09,1.45l.06.13-.83.22-.04-.09c-.28-.64-.7-.95-1.29-.95-.47,0-.85.16-1.15.5-.31.33-.46.78-.46,1.33,0,.64.15,1.17.44,1.55.28.38.65.57,1.11.57.7,0,1.17-.39,1.43-1.18l.04-.12.77.28-.03.11c-.14.52-.42.94-.81,1.24-.39.3-.86.46-1.37.46"
    style="fill: #00adbb;" />
  <path
    d="M61.01,120.04v-8.83h3.13c1.54,0,2.74.42,3.57,1.24.82.82,1.24,1.89,1.24,3.18s-.41,2.33-1.22,3.16c-.81.83-1.98,1.25-3.46,1.25h-3.24ZM64.22,119.25c1.07,0,1.98-.33,2.69-.99.71-.66,1.07-1.54,1.07-2.63s-.36-1.94-1.06-2.62c-.7-.67-1.62-1.01-2.75-1.01h-2.26v7.25h2.3Z"
    style="fill: #00adbb;" />
  <path d="M70.23,114.14h.85v5.9h-.85v-5.9ZM70.23,111.2h.85v1.27h-.85v-1.27Z" style="fill: #00adbb;" />
  <path
    d="M74.05,120.15c-.59,0-1.18-.18-1.76-.53l-.06-.69v-.2l.17.09c.65.33,1.23.5,1.72.5.32,0,.58-.09.78-.25.2-.16.29-.36.29-.62,0-.17-.06-.32-.19-.47-.09-.1-.36-.29-1.13-.6-.67-.27-1.1-.52-1.3-.79-.21-.27-.31-.57-.31-.9,0-.47.19-.87.57-1.19.38-.32.84-.48,1.37-.48.48,0,1.01.17,1.57.5l.06.75v.22l-.19-.12c-.55-.37-1.05-.56-1.48-.56-.32,0-.57.08-.79.25-.2.16-.3.35-.3.59,0,.16.06.31.18.45.09.1.36.28,1.13.58.67.26,1.1.52,1.31.81.21.29.32.61.32.96,0,.47-.2.88-.58,1.2-.38.32-.85.48-1.4.48"
    style="fill: #00adbb;" />
  <path
    d="M80.95,120.04v-3.34c0-1.24-.47-1.84-1.42-1.84-.7,0-1.29.39-1.75,1.15l.02,4.03h-.84v-5.9h.84v.8c.42-.59,1.03-.91,1.77-.91.67,0,1.22.22,1.62.65.4.43.6,1.03.6,1.78v3.57h-.84Z"
    style="fill: #00adbb;" />
  <path
    d="M85.8,120.15c-.85,0-1.56-.3-2.11-.89-.55-.59-.83-1.34-.83-2.24s.26-1.58.77-2.14c.51-.57,1.17-.85,1.95-.85.73,0,1.36.26,1.86.77.51.51.76,1.21.76,2.08v.12h-4.47c0,.06,0,.12,0,.18,0,.6.21,1.11.64,1.52.43.42.93.62,1.52.62.68,0,1.37-.27,2.03-.82l.19-.16v.93c-.71.61-1.47.87-2.3.87M87.21,116.27c-.23-.95-.76-1.42-1.64-1.42-.44,0-.81.13-1.13.4-.29.24-.49.58-.6,1.01h3.37Z"
    style="fill: #00adbb;" />
  <polygon
    points="88.79 122.94 90.86 118.77 88.38 114.14 89.21 114.14 91.26 117.95 93.11 114.21 93.84 114.14 94.03 114.14 89.68 122.94 88.79 122.94"
    style="fill: #00adbb;" />
</svg>