<?xml version="1.0" encoding="UTF-8"?>
<svg id="Layer_1" data-name="Layer 1" data-size="30mm x 30mm" xmlns="http://www.w3.org/2000/svg"
  viewBox="0 0 167.13 153.83">


<text id="quantity" y="97%" x="50%"
style="font-family: Arial-BoldMT, Arial; font-size: 15px; font-weight: 700; isolation: isolate;"
text-anchor="middle">
</text>
 
  <rect x="43.16" y="2.05" width="84.79" height="96.13"
    style="fill: #fff; stroke: #000; stroke-miterlimit: 10; stroke-width: .18px;" />
  <g>
    <path
      d="M118.37,33.95l-.28-.36-7.46-9.68-.17-.22h-.25s-.63,0-.63,0h-.89s-.23.32-.23.32c-.2-.2-.33-.33-.33-.33h-1.02s-.55,0-.55,0h-.27s-.32.49-.32.49l.15.22.2.31c-.37-.44-.87-1.03-.87-1.03h-1.07s-.93,0-.93,0h-.24s-.29.51-.29.51l.07.19c.2.51.4,1.02.6,1.53l-1.19-2-.14-.23h-2.65s-.25.52-.25.52l.05.19.38,1.5c-.53-.68-1.07-1.35-1.61-2.03l-.15-.19h-.26s-2.28,0-2.28,0h-.34s-.21.55-.21.55l.11.25,1.05,2.6-1.03.03h-.23c.41-1.01-.41-1.97-1.21-2.5-.95-.62-2.1-.84-3.21-.92-.66-.04-1.32-.03-1.97-.03h-.36s-3.7,0-3.7,0h-.41s-.07.61-.07.61l.06.28c.06.32.13.64.19.96-1.12-1.19-2.73-1.64-4.3-1.78-.46-.04-.92-.06-1.39-.06h-.7s-.65,0-.65,0h-.1s-2.68,0-2.68,0h-.48s0,.15,0,.15v.15s-.02,1.17-.02,1.17c-.68-.65-1.6-.98-2.51-1.18-.95-.21-1.93-.28-2.9-.3-.58-.01-1.15,0-1.73,0h-.54s-.02.11-.02.11c-1.56-.18-3.17-.2-4.69.21-1.37.37-2.72,1.21-3.14,2.64-.39,1.32.19,2.64.73,3.83.58,1.29,1.25,2.72.79,4.16-.21.64-.64,1.2-1.21,1.55-.6.37-1.33.54-2.03.53-.18,0-.36-.02-.54-.05l-.96-.16-.25.76c-.46,1.4-.91,2.8-1.37,4.2l-.16.5.62.57.6.04c.66.04,1.33-.03,1.98-.16.67-.13,1.33-.31,1.96-.55,1.25-.47,2.42-1.16,3.46-1.99.58-.46,1.12-.98,1.61-1.54l-.09.5-.13.71.35.58.91-.27c1.31-.38,2.62-.74,3.94-1.09l.54-.14.04-.42.62-7.01c1.51-.42,3.01-1.01,4.06-2.23l-.1,7.35v.52s0,.04,0,.04l.11.58.69-.16c1.1-.25,2.2-.49,3.3-.72l.52-.11.4-.08c.22-.06.45-.1.67-.14.29-.06.58-.12.87-.19.55-.12,1.08-.28,1.59-.5,1.05-.44,2.12-1.09,2.76-2.06.37-.56.63-1.21.78-1.87.2,1,.4,2,.6,3l.09.44.51-.08c1.41-.22,2.83-.42,4.25-.58l.46-.05c.77-.09,1.55-.17,2.33-.24l.42-.04.25-.53-.13-.38-.56-1.59c-.13-.38-.27-.76-.4-1.14.74.96,1.23,2.08,1.69,3.2l.14.35.39-.03c.78-.06,1.55-.11,2.33-.16l.46-.03.3-.51-.22-.41c-.63-1.18-1.26-2.39-2.07-3.46l.82-.04h.12s1.76,4.05,1.76,4.05l.15.34.37-.02c.72-.03,1.43-.05,2.15-.07h.42s.29-.42.29-.42c.03.05.07.1.1.15l.18.25h.28c.33,0,.65,0,.97,0h.34s.35-.45.35-.45c.02.05.05.09.07.14l.16.31h.34c1.38.02,2.77.06,4.15.14l.38.02.41-.43c.05.07.1.14.15.22l.18.26.28.02c.67.05,1.33.11,2,.17l.16.02.28.03c.51.05,1.02.11,1.53.17l.44.06.32-.29c.05.06.11.12.16.19l.18.21.22.04c.59.1,1.19.2,1.78.32l.47.1.54-.43-.35-.45ZM64.69,30.53s0,0,0,0h0s0,0,0,0c0,0,0,0,0,0M64.86,30.92s-.02-.04-.02-.06l-.03-.08s-.02-.05-.03-.07v-.04s-.03-.04-.03-.04l-.02-.06-.05-.11-.04-.09-.06-.14-.02-.04c-.17-.4-.36-.79-.57-1.17-.21-.38-.44-.74-.64-1.12-.08-.27-.11-.56-.05-.83v-.02s0-.02,0-.02c.09-.46.53-.68.95-.76.48-.09.97-.07,1.45,0l-.84,4.66ZM70.31,26.93s0,0,0,0c-.05.16-.14.31-.25.44.02-.26.05-.52.07-.78.08.06.15.13.21.21,0,.04-.01.08-.03.13M82.29,30.36c-.07.43-.23.86-.52,1.19l-.63-4.72c.51.39.8,1,.95,1.61.15.62.21,1.28.2,1.91M87.72,26.21l-.12-.43c.26,0,.51-.01.77-.01l.41,1.44-.79.02-.27-1.02ZM89.15,31.53c-.17-.63-.34-1.25-.5-1.88l.82-.04.52,1.84c-.28.02-.56.05-.84.08M91.96,26.84l-.21-.6c.06.06.11.12.15.19-.01-.02-.02-.03,0,0,.02.04.01.02,0,0,.07.11.12.23.15.35-.03.02-.06.04-.09.06M94.55,27.81s0,0,0-.01v.02s0,0,0,0M94.73,27.33s0,.01,0-.03c0,0,0,0,0,0,0,.01,0,.02,0,.03"
      style="fill: #ec1c24;" />
    <path
      d="M118.37,33.95l-7.91-10.26h-1.77s1.48,2.02,1.48,2.02c-.62-.62-2.04-2.02-2.04-2.02h-1.84s3.66,5.37,3.66,5.37c-1.1-1.35-2.21-2.69-3.34-4.02-.33-.38-1.15-1.35-1.15-1.35h-2.24s1.15,2.83,1.71,4.14c.16.38.33.76.49,1.14l-3.15-5.28h-2.65s.79,3,.79,3c-.74-.94-2.38-3-2.38-3h-2.87s1.41,3.38,1.41,3.38l-1.49.04h-.24c.24-.51.08-1.1-.22-1.55-.29-.44-.72-.79-1.17-1.06-.99-.58-2.15-.77-3.28-.81-.57-.02-1.15-.02-1.72-.02h-.37s-3.7,0-3.7,0h-.41s.06.28.06.28c.13.62.25,1.24.38,1.85-.53-.66-1.23-1.17-2.01-1.49-.79-.33-1.64-.5-2.48-.58-.48-.05-.97-.07-1.45-.07h-.7s-3.91,0-3.91,0v.3s-.02,1.17-.02,1.17c-.69-.66-1.65-.99-2.57-1.19-.95-.2-1.92-.27-2.89-.29-.56-.01-1.12,0-1.68,0h-.54s-.02.11-.02.11c-1.42-.16-2.89-.19-4.29.11-1.31.28-2.65.92-3.3,2.15-.35.66-.44,1.4-.32,2.12.12.77.44,1.48.75,2.19.6,1.32,1.3,2.76.85,4.24-.21.67-.65,1.24-1.26,1.6-.59.35-1.29.51-1.97.5-.19,0-.37-.02-.56-.05l-.96-.16-.25.76c-.46,1.4-.91,2.8-1.37,4.2l-.16.5.62.04c.74.05,1.49-.04,2.21-.19.73-.15,1.46-.36,2.15-.64,1.38-.56,2.67-1.35,3.79-2.34.63-.55,1.21-1.16,1.7-1.84l-.33,1.84-.13.71.94-.27c1.34-.38,2.69-.75,4.04-1.09l.55-.14.04-.43.66-7.07c1.57-.43,3.19-1.04,4.25-2.34l-.12,8.68,5.02-1.05c.22-.06.46-.09.68-.14.3-.06.59-.12.89-.19.56-.12,1.1-.28,1.62-.5,1.06-.44,2.15-1.09,2.81-2.06.38-.56.64-1.22.79-1.88.2,1.01.41,2.01.61,3.02l.09.44.52-.08c1.44-.21,2.88-.41,4.32-.57l.46-.05c.79-.09,1.57-.17,2.36-.24l.43-.04-.13-.38-.56-1.59c-.28-.79-.55-1.58-.83-2.37.57.48.99,1.12,1.36,1.76.39.69.71,1.42,1.02,2.15l.15.35.4-.03c.79-.06,1.57-.11,2.36-.15l.46-.02-.22-.41c-.36-.68-.73-1.37-1.13-2.03-.4-.68-.83-1.35-1.35-1.94l1.49-.07h.12s1.81,4.07,1.81,4.07l.15.34h.38c.73-.04,1.45-.06,2.18-.07h.43s-.21-.4-.21-.4c-.44-.83-.88-1.66-1.32-2.48.65.86,1.3,1.73,1.93,2.61l.18.26h.29c.33,0,.66,0,.99,0h.34s-.11-.31-.11-.31c-.29-.87-.56-1.75-.82-2.63.45.88.9,1.75,1.35,2.63l.16.32h.34c1.4.02,2.8.07,4.2.15l.39.02-.2-.36c-.34-.61-.68-1.21-1.01-1.82.14,0,.28,0,.43.01.45.65.9,1.3,1.35,1.95l.18.26.28.02c.68.05,1.35.11,2.02.18l.16.02.28.03c.52.05,1.03.11,1.55.18l.44.06-.3-.41-1.98-2.75c.94,1,1.87,2.02,2.77,3.06l.18.21.23.04c.6.1,1.2.21,1.8.33l.48.1-.34-.45ZM64.85,31c-.11-.35-.24-.7-.39-1.04-.26-.59-.6-1.15-.92-1.71-.32-.55-.69-1.22-.53-1.88v-.02s0-.02,0-.02c.13-.52.62-.72,1.11-.78.28-.04.57-.05.85-.03.22.01.48.02.69.09l.15.03-.96,5.36ZM70.31,26.93s0,.01,0,0c-.08.28-.27.5-.5.68v-.02c.05-.55.11-1.11.16-1.66.32.24.45.61.34,1,0-.02.02-.07,0,0M82.3,30.26s0-.06,0-.07c0,0,0,.03,0,.07-.02.13,0,.07,0,0-.06.47-.22.93-.54,1.29l-.72-5.42c.62.4.95,1.1,1.11,1.8.09.39.13.79.16,1.19.03.38.03.76-.01,1.14M87.45,25.2h.13c.31,0,.62-.01.93-.01l.59,2.01-1.1.03-.55-2.03ZM90.02,31.45s0,0,0,0h0c-.29.02-.58.05-.87.08-.22-.81-.44-1.62-.66-2.43l1.13-.05.69,2.38c-.1,0-.21.02-.3.03h0s0,0,0,0ZM92.24,26.53s0,0,0,0c0,0,0,0,0,0,0,.03,0,.01,0,0-.04.14-.15.24-.27.31l-.52-1.48c.25.1.47.26.62.48.13.19.24.46.17.69M92.24,26.51s0,0,0,0M94.36,27.7c.16-.13.3-.28.41-.45l.06.16.35.88c-.26-.22-.54-.42-.83-.59M107.72,29.07l-.31-.56c.04.05.07.1.11.15t0,0s0,0,0,0c.02.02.01.01,0,0,.1.13.19.27.29.4-.03,0-.07,0-.1,0"
      style="fill: #ec1c24;" />
    <path
      d="M110.38,23.91l7.71,10.07c-.15-.03-.3-.06-.44-.09-.15-.03-.3-.06-.45-.08-.15-.03-.3-.05-.45-.08-.15-.03-.31-.05-.46-.08-.67-.77-1.31-1.49-1.9-2.13-.58-.63-1.11-1.19-1.56-1.65-.44-.46-.81-.83-1.08-1.1s-.42-.42-.45-.45l3.66,5.11c-.16-.02-.31-.04-.46-.06-.15-.02-.3-.04-.44-.05-.15-.02-.29-.03-.45-.05-.15-.02-.31-.03-.48-.05l-6.4-9.31h1.36c.3.29.67.67,1.07,1.06.4.4.84.84,1.24,1.24.41.41.79.78,1.07,1.07.29.29.48.48.52.52l-2.87-3.89h1.27ZM97.17,28.47l-.47-1.13-1.49.05.47,1.15,1.49-.06ZM88.54,30.95c-.09-.35-.18-.7-.26-1.01-.08-.31-.15-.59-.21-.79-.05-.2-.09-.34-.09-.36l1.58-.07-.35-1.21-1.55.05s-.04-.15-.09-.34c-.05-.19-.12-.44-.19-.72-.07-.27-.15-.56-.22-.84-.07-.27-.14-.53-.19-.74.13,0,.26,0,.38,0,.12,0,.24,0,.36,0,.12,0,.24,0,.36,0,.12,0,.25,0,.38,0-.02-.08-.05-.19-.09-.29-.03-.11-.06-.21-.09-.31-.03-.1-.05-.19-.07-.25-.02-.07-.03-.11-.03-.12h-3.72c.01.07.09.41.2.96.12.56.28,1.34.48,2.25.2.95.43,2.05.68,3.2.26,1.21.53,2.47.78,3.66.41-.06.8-.11,1.17-.16.38-.05.74-.1,1.1-.15.36-.05.71-.09,1.05-.13.34-.04.69-.08,1.03-.12-.04-.15-.09-.29-.13-.43-.04-.14-.08-.28-.12-.42-.04-.14-.08-.27-.12-.41-.04-.13-.08-.27-.12-.4-.15.01-.28.02-.42.04-.14.01-.27.03-.4.04-.13.01-.27.03-.4.04-.14.01-.28.03-.43.04-.08-.3-.17-.64-.26-1M74.3,36.22c.3-.07.67-.14,1.04-.22.37-.08.75-.15,1.09-.22.34-.07.64-.13.86-.18.22-.04.47-.11.48-.11l-.66-11.55h-2.78s-.04,12.28-.04,12.28ZM62.45,26.16c.04-.12.13-.26.28-.41.15-.15.37-.29.7-.4.32-.11.74-.18,1.29-.19.14,0,.29,0,.42.01.13.01.26.02.37.04.11.01.2.03.27.04.07.01.11.02.12.02l.22-1.21s-.08-.01-.19-.02c-.11-.01-.26-.03-.44-.04-.18-.01-.39-.03-.62-.04-.23-.01-.48-.02-.73-.02-1.03,0-1.85.12-2.51.31-.67.19-1.17.45-1.54.73-.38.28-.63.59-.8.86-.17.28-.26.51-.3.66-.1.33-.14.67-.13,1,.01.34.08.67.17,1.01.1.34.23.67.37,1,.14.33.3.67.45.99.12.26.24.53.36.8.11.28.22.56.3.85.08.29.15.59.18.9.03.31.03.63-.02.96-.04.29-.13.6-.26.9-.14.3-.32.6-.57.88-.25.28-.56.54-.95.76-.39.22-.85.4-1.39.53-.05.01-.11.02-.16.03-.05,0-.11.02-.16.03-.05,0-.11.02-.16.02-.05,0-.1.01-.16.02-.1.01-.21.02-.31.02-.1,0-.2,0-.31,0-.1,0-.2,0-.3-.02-.1,0-.2-.02-.29-.04,0,.03-.06.2-.15.47-.08.27-.2.63-.33,1.04-.13.42-.28.88-.42,1.34-.15.47-.29.93-.41,1.32.09,0,.18.01.27.01.09,0,.19,0,.28,0,.1,0,.19,0,.29-.02.1,0,.2-.02.3-.03.15-.02.31-.04.47-.07.16-.03.31-.06.47-.09.16-.03.31-.07.46-.11.15-.04.3-.08.45-.12.57-.17,1.12-.4,1.65-.65.52-.25,1.01-.54,1.46-.85.45-.31.87-.63,1.25-.97.38-.33.72-.67,1.02-1.01.71-.82,1.17-1.62,1.45-2.4.27-.75.37-1.48.34-2.19-.02-.69-.17-1.34-.38-1.97-.21-.61-.49-1.2-.8-1.74-.12-.21-.25-.43-.38-.65-.13-.22-.25-.45-.35-.68-.1-.23-.17-.46-.21-.69-.04-.23-.04-.46.02-.69,0-.01,0-.1.05-.22M112.93,33.2c-.16-.02-.33-.03-.49-.05-.17-.02-.33-.03-.5-.05-.17-.01-.33-.03-.5-.04-.17-.01-.34-.03-.5-.04-.14-.2-.28-.4-.41-.59-.13-.19-.26-.38-.39-.56-.13-.18-.25-.36-.37-.53-.12-.17-.24-.35-.36-.52-.09,0-1.04-.04-1.05-.04.09.17.18.33.28.5.09.17.19.34.29.52.1.18.2.36.3.54.1.19.21.38.32.58-.17,0-.33-.02-.5-.03-.17,0-.33-.02-.5-.03-.17,0-.34-.02-.51-.02-.17,0-.34-.01-.51-.02-.51-1.1-.96-2.07-1.36-2.95-.38-.85-.72-1.62-1.03-2.33-.3-.69-.57-1.33-.82-1.93-.25-.59-.48-1.15-.7-1.7h1.76c.46.53.92,1.08,1.41,1.66.5.6,1.03,1.23,1.61,1.93.59.72,1.24,1.52,1.97,2.43.75.94,1.6,2.01,2.57,3.25M108.34,29.36s-2.33-3.02-2.36-3.06l1.56,3.05M94.04,27.46c.1-.08.19-.16.26-.25.08-.09.14-.18.19-.29.05-.1.08-.21.09-.33.02-.18,0-.36-.07-.54-.06-.18-.15-.35-.27-.52-.12-.17-.27-.33-.45-.48-.17-.15-.37-.29-.59-.41-.28-.15-.57-.27-.86-.37-.3-.1-.61-.17-.92-.22-.31-.05-.62-.08-.94-.1-.31-.02-.62-.03-.92-.03h-.32c-.11,0-.23,0-.33,0h-.27s-.12,0-.12,0c.37,1.24.66,2.21.9,3.02.25.83.44,1.47.62,2.06.18.6.35,1.15.54,1.81.2.68.44,1.47.78,2.59.21-.02.41-.04.62-.07.2-.02.4-.04.6-.06.2-.02.39-.04.58-.05.19-.02.38-.03.56-.05-.16-.47-.32-.92-.46-1.35-.15-.42-.29-.83-.42-1.22-.13-.39-.26-.76-.39-1.13-.12-.36-.24-.71-.36-1.06.25.09.47.22.68.36.21.14.4.31.57.48.17.18.33.36.48.55.15.19.28.39.4.57.13.21.26.42.38.63.12.21.23.43.34.65.11.22.22.45.32.67.1.23.2.46.3.69.2-.01.4-.03.6-.04.2-.01.39-.03.59-.04.2-.01.39-.02.59-.03.19-.01.39-.02.58-.03-.16-.31-.35-.67-.56-1.05-.2-.37-.42-.76-.66-1.15-.23-.38-.47-.75-.72-1.09-.24-.33-.49-.64-.75-.89-.11-.11-.23-.21-.34-.31-.12-.1-.23-.19-.35-.27-.12-.08-.25-.17-.38-.24-.13-.08-.27-.15-.42-.22.12-.07.22-.14.32-.22M91.73,27.31l-.81-2.37c.19.04.38.09.55.15.17.06.33.14.48.24.14.09.27.2.38.33.11.13.19.27.25.44.06.17.08.31.07.44-.01.13-.06.24-.14.34-.08.1-.19.18-.32.25-.13.07-.29.13-.46.19M101.13,28.06c-.31-.4-.6-.79-.89-1.15-.28-.36-.55-.71-.82-1.05-.26-.34-.52-.66-.78-.99-.25-.32-.5-.63-.75-.94h-2.29s4.01,8.9,4.01,8.9c.18,0,.36-.01.54-.02.18,0,.36-.01.54-.02.18,0,.36,0,.55-.01.18,0,.36,0,.55,0-.3-.58-.59-1.12-.86-1.63-.27-.5-.52-.98-.76-1.44-.24-.45-.47-.88-.69-1.3-.22-.41-.43-.81-.64-1.19,0,0,.16.19.42.52.26.33.62.79,1.04,1.33.42.55.9,1.17,1.38,1.81.49.65.98,1.3,1.4,1.89.08,0,.16,0,.25,0s.16,0,.25,0h.25c.08,0,.16,0,.25,0-.19-.58-.39-1.23-.59-1.88-.19-.63-.37-1.25-.52-1.79-.15-.53-.28-1-.37-1.34-.09-.33-.15-.55-.16-.59.02.04.13.25.3.59.17.34.41.8.69,1.34.28.55.6,1.16.93,1.79.33.65.68,1.3.99,1.9.17,0,.34,0,.51,0,.17,0,.34,0,.51.01.17,0,.34,0,.51.01.17,0,.34.01.51.02l-5.25-8.9h-2.11s1.12,4.14,1.12,4.14ZM67.7,23.94h-.03s-.02,0-.03,0h-.03c-.08,0-.16,0-.24,0s-.16,0-.24,0h-.24c-.08,0-.16,0-.24,0l-2.48,14.77c.34-.1.69-.19,1.03-.28.34-.09.68-.18,1.01-.27.34-.09.67-.18,1-.26.33-.09.66-.17.99-.25l.77-7.4c.24-.06.47-.12.71-.19.23-.06.46-.13.68-.2.22-.07.43-.15.64-.23.21-.08.41-.18.61-.28.57-.3,1.06-.66,1.44-1.04.38-.38.66-.78.8-1.18.14-.39.15-.79.01-1.16-.14-.37-.44-.72-.92-1.03-.34-.21-.71-.38-1.11-.51-.4-.13-.83-.23-1.27-.3-.45-.07-.91-.11-1.39-.14-.48-.03-.97-.04-1.46-.04h-.03ZM70.84,26.97c-.04.15-.11.3-.21.43-.09.14-.21.26-.36.38-.14.12-.31.23-.49.33-.19.1-.39.19-.61.27.03-.29.06-.57.09-.85.03-.27.05-.53.08-.78.03-.25.05-.5.08-.74.02-.24.05-.47.07-.71.27.07.5.16.7.26.19.11.35.23.46.38.11.14.19.3.22.47.03.17.02.35-.03.54M77.79,23.94l.8,11.4s.09-.02.2-.04c.11-.02.27-.05.45-.09.18-.04.38-.08.58-.12.2-.04.4-.08.59-.13.29-.06.62-.16.97-.29.35-.13.71-.29,1.07-.48.35-.19.7-.41,1.01-.66.31-.25.58-.53.79-.83.24-.35.42-.72.56-1.09.14-.37.23-.74.29-1.11.06-.37.08-.74.07-1.1,0-.36-.04-.71-.1-1.05-.05-.33-.13-.66-.24-.99-.11-.32-.25-.64-.43-.94-.18-.3-.39-.58-.64-.85-.25-.26-.55-.5-.9-.72-.31-.18-.63-.33-.98-.45-.34-.12-.7-.21-1.07-.28-.37-.07-.75-.12-1.14-.15-.39-.03-.78-.04-1.18-.04h-.7ZM81.36,32.42l-.85-6.84s.15.02.32.08c.18.06.41.16.65.34.24.18.49.44.7.8.22.37.4.86.5,1.51.07.46.12.9.13,1.3,0,.41-.02.79-.11,1.13-.09.35-.23.67-.45.94-.22.28-.51.53-.89.74"
      style="fill: #fff;" />
    <path
      d="M54.68,41.4s-.05,0-.08,0c-.1,0-.19,0-.28-.01h-.1s1.36-4.34,1.36-4.34h.07c.09.03.19.04.29.05.1,0,.2.02.29.02.1,0,.2,0,.3,0,.1,0,.21,0,.31-.02.05,0,.1,0,.15-.02.05,0,.1-.01.16-.02.05,0,.1-.02.16-.03.05,0,.11-.02.16-.03.51-.11.97-.29,1.37-.52.36-.21.67-.46.93-.75.23-.26.42-.55.56-.86.13-.28.21-.57.26-.87.04-.31.05-.63.02-.95-.03-.29-.09-.58-.18-.89-.07-.26-.17-.53-.3-.84-.11-.27-.24-.54-.35-.8l-.11-.25c-.11-.24-.23-.5-.34-.75-.17-.39-.29-.71-.37-1.01-.11-.37-.16-.7-.18-1.02-.01-.36.03-.7.13-1.03.05-.16.14-.41.31-.68.21-.33.48-.63.82-.88.43-.32.95-.57,1.57-.74.72-.2,1.57-.31,2.53-.31.23,0,.48,0,.74.02.2.01.41.02.63.04.15.01.3.03.44.04.11.01.18.02.19.02h.08s-.25,1.39-.25,1.39l-.08-.02s-.05,0-.11-.02c-.07-.01-.16-.03-.27-.04-.12-.02-.25-.03-.37-.04-.15-.01-.29-.01-.42-.01-.5,0-.92.07-1.27.18-.28.09-.5.22-.67.38-.12.11-.21.24-.26.38-.04.1-.05.17-.05.19h0c-.05.22-.06.44-.02.67.03.21.1.43.21.67.11.25.24.49.34.67.06.1.11.2.17.3.07.12.14.24.21.36.35.61.61,1.19.8,1.76.23.68.36,1.35.38,1.99.03.75-.09,1.5-.35,2.22-.3.82-.79,1.64-1.46,2.42-.31.35-.65.7-1.02,1.02-.39.35-.82.68-1.26.98-.47.32-.97.61-1.47.86-.55.27-1.1.49-1.66.66-.15.04-.31.09-.45.12-.16.04-.31.08-.47.11s-.32.07-.47.09c-.16.03-.32.05-.47.07-.1.01-.2.02-.3.03-.1,0-.2.01-.29.02-.07,0-.14,0-.21,0M54.43,41.24c.05,0,.11,0,.17,0,.09,0,.18,0,.28,0,.09,0,.19,0,.29-.02.1,0,.2-.02.29-.03.15-.02.31-.04.47-.07.15-.03.31-.06.47-.09.15-.03.31-.07.46-.11.15-.04.3-.08.45-.12.55-.17,1.1-.39,1.64-.65.5-.24.99-.53,1.46-.85.43-.29.85-.62,1.24-.96.36-.32.7-.66,1.01-1.01.66-.77,1.14-1.57,1.43-2.37.25-.7.37-1.42.34-2.16-.02-.63-.15-1.28-.38-1.95-.19-.56-.45-1.12-.79-1.73-.07-.12-.13-.24-.21-.36-.06-.1-.12-.2-.17-.3-.11-.19-.24-.43-.35-.69-.11-.26-.18-.49-.22-.71-.04-.25-.03-.49.02-.72,0-.04.02-.13.06-.23.06-.16.16-.31.3-.44.18-.18.43-.32.73-.42.36-.12.8-.19,1.31-.19.13,0,.28,0,.43.02.12,0,.25.02.38.04.11.01.2.03.27.04.01,0,.03,0,.04,0l.19-1.05s-.06,0-.1-.01c-.11-.01-.26-.03-.44-.04-.21-.02-.42-.03-.62-.04-.25-.01-.5-.02-.73-.02-.95,0-1.79.1-2.49.3-.6.17-1.11.41-1.52.71-.32.24-.58.52-.78.84-.16.26-.25.5-.29.65-.1.31-.14.63-.13.97.01.31.07.63.17.99.08.3.2.61.37.99.11.25.22.5.34.74l.11.25c.12.25.24.53.36.8.13.31.23.59.31.86.09.32.15.62.18.92.03.33.03.67-.02.98-.05.31-.14.62-.27.92-.15.33-.34.63-.58.9-.27.3-.6.56-.97.78-.41.24-.89.42-1.41.53-.06.01-.11.02-.17.03-.05.01-.11.02-.16.03-.05,0-.11.02-.16.02-.05,0-.11.01-.16.02-.11,0-.21.02-.32.02-.1,0-.21,0-.31,0-.1,0-.2-.01-.3-.02-.08,0-.15-.02-.23-.03l-1.26,4.01ZM64.08,38.82l2.51-14.96h1.08s.06,0,.06,0c.55,0,1.03.01,1.46.04.52.03.97.08,1.4.14.48.07.9.17,1.28.3.42.14.8.31,1.13.52.48.31.8.67.95,1.07.15.38.14.79-.01,1.22-.15.41-.42.81-.82,1.21-.39.39-.9.75-1.46,1.05-.19.1-.39.19-.61.28-.2.08-.41.16-.65.24-.21.07-.43.13-.68.2-.19.05-.39.11-.65.17l-.77,7.4h-.05c-.33.1-.66.18-.99.27-.33.09-.67.17-1,.26-.34.09-.67.18-1.01.27-.34.09-.68.19-1.03.28l-.12.03ZM66.72,24.03l-2.44,14.58c.3-.09.61-.17.91-.25.34-.09.68-.18,1.02-.27.34-.09.67-.18,1-.26.31-.08.63-.16.94-.24l.77-7.4h.05c.29-.09.5-.15.7-.2.25-.07.47-.14.67-.2.23-.08.44-.15.64-.23.22-.09.41-.18.6-.27.55-.29,1.04-.65,1.43-1.03.38-.38.64-.76.78-1.15.14-.39.14-.76.01-1.11-.14-.37-.44-.7-.89-.99-.32-.2-.68-.37-1.09-.5-.37-.12-.8-.22-1.26-.29-.42-.07-.87-.11-1.38-.14-.43-.02-.9-.04-1.45-.04h-1.01ZM74.22,36.31l.04-12.45h2.93s.67,11.69.67,11.69l-.09.02c-.07.02-.28.07-.46.11h-.01c-.22.05-.52.11-.85.18-.34.07-.72.15-1.09.22-.37.08-.74.15-1.04.22l-.1.02ZM74.42,24.02l-.04,12.1c.28-.06.61-.13.94-.2.37-.08.75-.15,1.09-.22.33-.07.63-.13.85-.17h.01c.15-.03.33-.08.41-.1l-.66-11.4h-2.62ZM78.52,35.44l-.81-11.58h.79c.42,0,.82.01,1.18.04.41.03.79.08,1.15.15.39.07.75.17,1.08.28.36.12.69.28.99.46.34.21.65.46.92.73.25.26.47.55.65.86.17.29.32.61.43.95.11.31.19.65.25,1,.06.36.09.72.1,1.06,0,.38-.02.75-.07,1.11-.06.39-.16.77-.29,1.13-.15.39-.34.76-.57,1.11-.21.3-.48.58-.81.85-.3.24-.64.47-1.02.67-.34.18-.7.35-1.08.49-.34.12-.67.22-.98.29-.19.04-.39.08-.59.13-.2.04-.4.08-.58.12-.18.04-.33.07-.45.09-.12.02-.19.04-.2.04l-.09.02ZM77.88,24.02l.78,11.23s.07-.01.11-.02c.12-.02.27-.05.45-.09.18-.04.38-.08.58-.12.2-.04.4-.08.59-.12.3-.07.63-.16.96-.28.37-.14.73-.3,1.06-.48.37-.2.71-.42,1-.66.32-.26.58-.53.78-.82.22-.34.41-.7.55-1.08.13-.35.22-.72.28-1.1.05-.35.08-.71.07-1.08,0-.34-.04-.69-.1-1.04-.06-.34-.14-.67-.24-.97-.11-.33-.25-.64-.42-.92-.18-.3-.39-.58-.63-.83-.26-.27-.55-.5-.88-.71-.29-.17-.61-.32-.96-.44-.32-.11-.68-.21-1.06-.28-.35-.07-.73-.12-1.13-.15-.36-.03-.76-.04-1.17-.04h-.62ZM118.29,34.11l-.21-.04c-.15-.03-.29-.06-.44-.09-.15-.03-.3-.06-.45-.08-.15-.03-.3-.05-.45-.08-.15-.03-.3-.05-.46-.08h-.03s-.02-.03-.02-.03c-.61-.7-1.25-1.41-1.9-2.12-.51-.56-1.04-1.11-1.56-1.65-.34-.35-.63-.65-.85-.87l3.21,4.49-.18-.03c-.16-.02-.31-.04-.46-.06-.15-.02-.3-.04-.44-.05-.15-.02-.29-.03-.45-.05l-.67-.07c-.16-.02-.33-.03-.49-.05-.16-.02-.33-.03-.5-.05-.17-.01-.33-.03-.5-.04-.17-.01-.34-.03-.5-.04h-.04s-1.2-1.72-1.2-1.72c-.11-.16-.23-.32-.34-.48-.15,0-.63-.02-.87-.03.07.13.14.25.21.38.09.17.19.34.29.52.1.18.2.36.3.54l.39.7h-.14c-.17-.02-.33-.03-.5-.04-.17,0-.34-.02-.5-.03-.17,0-.34-.02-.5-.02-.17,0-.34-.01-.51-.02h-.15c-.17-.01-.34-.02-.51-.02-.17,0-.34,0-.51-.01-.17,0-.34,0-.51-.01-.17,0-.34,0-.51,0h-.05s-.02-.04-.02-.04c-.31-.59-.65-1.25-.98-1.9-.33-.63-.65-1.25-.93-1.79-.25-.49-.47-.92-.64-1.25.08.3.2.71.33,1.19.18.63.36,1.24.52,1.79.22.72.41,1.35.59,1.88l.03.1h-.85s-.29,0-.29,0l-.02-.03c-.39-.54-.86-1.17-1.4-1.89-.43-.57-.9-1.18-1.38-1.81-.34-.43-.66-.85-.93-1.19.08.15.16.29.24.44.22.42.45.85.69,1.3.24.46.5.93.76,1.44.27.51.56,1.05.86,1.63l.06.12h-.13c-.18,0-.36,0-.55.01-.18,0-.36,0-.54.01-.18,0-.36,0-.54.01-.18,0-.36.01-.54.02h-.05s-4.08-9.05-4.08-9.05h2.45s.03.04.03.04c.24.31.49.62.74.93.25.32.51.65.77.98.27.34.54.69.82,1.05.21.27.42.54.64.83l-1.04-3.85h2.26s.02.04.02.04l5.1,8.65c-.43-.92-.82-1.78-1.2-2.61-.37-.81-.7-1.57-1.03-2.33-.28-.64-.55-1.27-.82-1.93-.22-.52-.44-1.06-.7-1.7l-.04-.11h1.91s.02.03.02.03c.51.6.95,1.11,1.41,1.67.56.66,1.09,1.3,1.61,1.94.64.78,1.29,1.58,1.97,2.43.76.95,1.56,1.96,2.43,3.08l-6.29-9.15h1.55s.02.02.02.02c.3.3.67.67,1.07,1.07l2.08,2.08-2.33-3.17h1.47s.02.03.02.03l7.84,10.24ZM116.33,33.58c.14.02.29.05.43.07.15.03.3.05.45.08.15.03.3.06.45.08.08.02.16.03.24.05l-7.56-9.87h-1.07s2.77,3.76,2.77,3.76l-.12.1-2.82-2.83c-.39-.39-.75-.75-1.04-1.04h-1.18s6.29,9.16,6.29,9.16l.44.05c.15.02.3.03.45.05.15.02.29.03.44.05.09.01.19.02.28.04l-3.55-4.96.12-.1s.2.19.45.45c.23.23.61.61,1.08,1.1.52.54,1.05,1.1,1.56,1.65.65.7,1.29,1.41,1.89,2.11M110.98,32.95c.16.01.31.03.47.04.17.01.34.03.5.04.17.01.33.03.5.05.1.01.21.02.31.03-.88-1.13-1.69-2.15-2.45-3.11-.69-.86-1.33-1.65-1.97-2.43-.52-.64-1.05-1.27-1.61-1.93-.46-.54-.89-1.05-1.39-1.64h-1.6c.24.59.45,1.1.65,1.59.28.66.55,1.3.82,1.93.33.76.66,1.52,1.03,2.33.41.92.85,1.87,1.33,2.9.15,0,.31.01.46.02.17,0,.34.01.51.02.17,0,.34.02.5.03.12,0,.24.01.36.02l-.25-.45c-.1-.19-.2-.37-.3-.55-.1-.18-.19-.35-.29-.52-.09-.17-.18-.34-.27-.5l-.07-.12h.24c.25.02.89.04.95.04h.04s.02.03.02.03c.12.17.24.34.36.52l1.15,1.66ZM105.38,32.69c.15,0,.31,0,.46,0,.17,0,.34,0,.51.01.17,0,.34,0,.51.01.12,0,.24,0,.36.01l-5.15-8.74h-1.96s1.2,4.43,1.2,4.43l-.25-.33c-.31-.4-.6-.79-.89-1.15-.28-.36-.55-.71-.82-1.05-.26-.34-.52-.66-.77-.98-.24-.31-.48-.61-.72-.91h-2.13s3.93,8.74,3.93,8.74c.16,0,.33-.01.49-.02.18,0,.36-.01.54-.02.18,0,.36,0,.54-.01.14,0,.28,0,.42,0-.28-.53-.54-1.04-.8-1.52-.27-.5-.52-.98-.76-1.44-.24-.45-.47-.88-.69-1.3-.22-.41-.43-.81-.64-1.19l-.06-.11h.13c.05,0,.05,0,.48.54.28.36.65.83,1.04,1.33.48.62.95,1.23,1.38,1.81.53.7.99,1.32,1.37,1.85h.2s.63,0,.63,0c-.17-.51-.35-1.1-.55-1.78-.17-.56-.34-1.16-.52-1.79-.16-.57-.29-1.04-.37-1.34-.09-.32-.15-.53-.16-.58l-.2-.73.64,1.25c.17.34.41.8.69,1.34.28.54.6,1.16.93,1.79.33.63.66,1.27.96,1.85M86.52,34.09v-.07c-.27-1.19-.54-2.45-.79-3.66l-1.38-6.51h3.87s.33,1.13.33,1.13l-1.48.02.65,2.48,1.55-.05.4,1.37-1.59.07.78,3,.36-.04c.14-.01.27-.03.4-.04.13-.01.27-.02.4-.04.14-.01.28-.02.42-.04h.07s.53,1.8.53,1.8h-.09c-.34.05-.68.09-1.03.13-.35.04-.69.09-1.05.13-.36.05-.72.1-1.1.15-.38.05-.77.11-1.17.16h-.07ZM84.55,24.01l1.34,6.32c.25,1.18.51,2.42.76,3.59.38-.05.74-.11,1.1-.15.38-.05.74-.1,1.1-.15.36-.05.71-.09,1.05-.13.31-.04.62-.07.93-.11l-.44-1.5c-.12.01-.24.02-.36.03-.14.01-.27.02-.4.04-.13.01-.27.03-.4.04l-.5.05-.87-3.32,1.58-.07-.31-1.06-1.55.05-.73-2.8,1.48-.02-.24-.82h-3.56ZM91.31,33.49l-2.89-9.64h1.16c.34,0,.65,0,.93.02.34.02.65.05.95.1.33.05.64.13.93.22.32.1.61.23.88.38.22.12.42.26.6.42.18.16.33.32.46.49.13.18.23.36.29.55.06.2.09.39.07.57-.01.12-.04.24-.09.35-.05.1-.11.21-.2.31-.08.09-.17.18-.28.26-.06.05-.13.1-.21.15.1.05.2.1.3.16.13.08.26.16.39.25.12.08.24.17.36.27.11.09.23.19.35.31.24.24.5.54.76.9.23.31.47.68.72,1.09.21.34.42.72.66,1.15.21.38.39.73.56,1.05l.06.11h-.12c-.19.02-.39.03-.58.04-.2.01-.39.02-.59.03-.2.01-.39.02-.59.04-.2.01-.4.03-.6.04h-.06s-.02-.05-.02-.05c-.11-.27-.21-.49-.3-.69-.11-.24-.21-.46-.31-.67-.11-.23-.23-.45-.34-.65-.12-.22-.25-.43-.37-.62-.14-.21-.27-.4-.4-.57-.16-.21-.31-.39-.47-.55-.18-.18-.37-.34-.56-.47-.16-.11-.33-.2-.5-.28.1.29.2.59.3.89l1.3,3.8h-.1c-.18.02-.37.04-.56.06-.19.02-.38.04-.58.05-.2.02-.4.04-.6.06-.2.02-.41.04-.62.06h-.07ZM88.63,24l2.79,9.31c.19-.02.37-.04.55-.06.2-.02.4-.04.6-.06.2-.02.39-.04.58-.05.16-.01.31-.03.46-.04l-1.23-3.6c-.12-.36-.24-.71-.36-1.05l-.06-.16.16.06c.24.09.47.22.69.37.2.14.39.3.58.49.17.17.32.35.49.56.13.17.26.36.4.58.13.2.26.41.38.63.12.21.23.42.34.66.1.21.21.43.32.67.09.19.17.4.28.64.18-.01.36-.02.54-.04.2-.01.4-.02.59-.04.2-.01.39-.02.59-.03.15,0,.3-.02.46-.02-.15-.29-.32-.6-.5-.94-.24-.43-.45-.8-.66-1.14-.25-.41-.49-.77-.71-1.08-.26-.35-.51-.65-.74-.88-.12-.11-.23-.21-.34-.3-.12-.1-.23-.18-.35-.27-.12-.09-.25-.16-.38-.24-.13-.08-.27-.15-.42-.21l-.14-.06.13-.08c.12-.07.22-.15.32-.22.1-.08.18-.16.25-.24.07-.09.13-.18.17-.27.04-.1.07-.2.08-.3.01-.16,0-.33-.06-.51-.05-.17-.14-.34-.26-.5-.12-.16-.26-.32-.43-.47-.17-.15-.36-.28-.57-.4-.26-.14-.54-.27-.85-.36-.28-.09-.58-.16-.91-.21-.29-.05-.59-.08-.93-.1-.28-.02-.58-.03-.92-.03h-.94ZM81.3,32.54l-.88-7.06h.1c.06.02.18.04.34.1.24.08.46.2.67.35.29.21.53.49.72.82.25.42.42.94.51,1.53.08.5.12.93.13,1.31,0,.44-.03.82-.11,1.16-.1.37-.25.69-.47.97-.23.3-.53.55-.92.76l-.1.06ZM80.61,25.67l.82,6.62c.32-.19.57-.4.76-.66.2-.26.35-.56.44-.92.08-.32.12-.69.11-1.11,0-.37-.05-.79-.13-1.29-.09-.58-.26-1.08-.49-1.48-.18-.32-.41-.58-.68-.78-.19-.14-.4-.26-.63-.33-.08-.03-.15-.05-.21-.06M108.28,29.41c-.07-.09-1.15-1.49-1.82-2.37l1.16,2.27-.14.07-1.56-3.05.14-.08s2.33,3.03,2.36,3.06l-.13.1ZM95.63,28.62l-.54-1.3,1.66-.05.53,1.29-1.66.07ZM95.33,27.47l.41.99,1.32-.06-.4-.97-1.32.04ZM69.08,28.51l.34-3.29.09.02c.27.07.52.16.72.27.2.11.36.24.48.4.12.15.2.32.24.51.03.18.02.38-.03.58-.05.16-.12.31-.22.46-.1.14-.22.27-.37.4-.14.12-.31.24-.5.34-.19.1-.4.2-.62.28l-.12.04ZM69.56,25.41l-.3,2.85c.17-.07.34-.14.48-.22.18-.1.34-.21.48-.32.14-.12.25-.24.34-.37.09-.13.16-.27.2-.41.05-.18.06-.35.03-.51-.03-.16-.1-.3-.2-.44-.11-.14-.26-.26-.44-.36-.17-.09-.37-.17-.59-.23M91.68,27.41l-.88-2.58.14.03c.2.04.39.09.56.15.18.07.35.15.49.24.15.1.29.22.4.35.12.14.21.29.27.46.06.17.09.33.07.48-.01.14-.07.27-.16.38-.08.1-.19.19-.34.27-.13.07-.28.13-.47.19l-.07.02ZM91.04,25.04l.74,2.17c.14-.05.27-.1.37-.16.13-.07.22-.15.29-.23.07-.09.11-.18.12-.29.01-.12,0-.26-.06-.41-.06-.15-.14-.29-.24-.42-.1-.12-.22-.22-.36-.32-.13-.09-.29-.16-.46-.23-.12-.05-.26-.09-.4-.12"
      style="fill: #fff;" />
    <path
      d="M105.32,23.91v.09s.01,0,.01,0h0s0,0,.01.01h.01c1.27,1.51,2.29,2.72,3.21,3.85.56.68,1.14,1.4,1.73,2.14.76.96,1.56,1.97,2.44,3.09-.41-.04-.83-.08-1.25-.12-.12-.01-.23-.02-.35-.03-.02,0-.04,0-.06,0-.03,0-.07,0-.09,0-.02-.01-.05-.06-.06-.09,0-.02-.02-.03-.03-.04-.14-.2-.27-.4-.41-.59-.27-.39-.55-.79-.82-1.18l-.1-.15s-.01-.02-.02-.03c-.04-.06-.07-.11-.11-.13-.02-.01-.05-.01-.07-.01,0,0-.02,0-.03,0,0,0-.01,0-.02,0h-.28s-.05-.01-.05-.01h-.18c-.15-.01-.31-.02-.46-.02h-.15s.07.13.07.13c.38.7.77,1.4,1.11,2.01-.34-.02-.69-.04-1.04-.06-.2,0-.4-.02-.6-.03h-.16s0,0,0,0c0,0,0,0,0-.01h0s-.13-.3-.13-.3c-.33-.71-.64-1.37-.93-2.03-.65-1.44-1.24-2.78-1.8-4.11-.29-.69-.6-1.42-.95-2.29h.77s.31,0,.31,0h.31s.19,0,.19,0h0s0,0,0,0v-.09M108.52,29.45l-.11-.14s-2.32-3.01-2.36-3.06l-.63-.85.48.94,1.56,3.05.02.05h.05s.79.01.79.01h.18M109.28,24h1.06s7.55,9.86,7.55,9.86c-.5-.1-1.02-.19-1.55-.28-1.32-1.52-2.72-3.03-4.15-4.48-.22-.23-.52-.52-.83-.82l-.7-.68.56.79,3.54,4.95c-.47-.06-.94-.11-1.4-.16l-.19-.02-6.29-9.14h1.16c1.01,1,2.03,2.02,3.01,3.01l.23.23.62.62.81.82-.68-.93-2.77-3.76M89.57,24.01c.34,0,.64,0,.92.03.34.02.64.05.93.1.32.05.63.13.9.21.31.1.59.22.85.36.21.12.4.25.57.4.17.15.31.3.43.47.12.17.21.33.26.5.06.17.08.34.06.51-.03.29-.2.56-.51.81-.09.07-.19.14-.31.22l-.14.08.15.07c.52.24,1.02.59,1.48,1.02.22.22.44.47.68.8.75,1,1.35,2.13,1.92,3.23-.7.04-1.43.08-2.16.13-.1-.24-.19-.44-.28-.64-.11-.25-.21-.47-.32-.68-.12-.23-.23-.45-.34-.65-.12-.22-.25-.43-.38-.63-.43-.67-1.13-1.61-2.16-2l-.17-.07.06.18c.12.36.25.72.37,1.07.27.78.54,1.57.8,2.35l.42,1.23c-.71.06-1.44.13-2.18.21l-.6-2-1.1-3.66-1.09-3.64h0s.14,0,.14,0h.13s.14,0,.14,0h.2s.05,0,.05,0h.27M91.68,27.41l.08-.02c.19-.06.34-.12.47-.19.15-.08.26-.17.34-.27.09-.11.14-.24.16-.38.01-.14-.01-.31-.07-.48-.23-.61-.84-1.04-1.72-1.21l-.15-.03.05.14.81,2.37.03.08M88.1,24.01l.23.8h-.63s-.74.01-.74.01h-.11s.03.11.03.11c.23.87.45,1.73.68,2.6v.04s.03.07.03.07h.07s1.48-.05,1.48-.05l.3,1.04-1.47.06h-.11s.03.11.03.11l.57,2.17.02.07.24.93.02.07h.07c.54-.06,1.06-.11,1.58-.16l.43,1.49c-1.26.14-2.6.31-4.17.54-.17-.8-.34-1.59-.51-2.39-.3-1.42-.6-2.84-.91-4.26-.23-1.08-.46-2.16-.69-3.24h3.55M102.07,24.01l5.14,8.72c-.59-.02-1.21-.04-1.83-.05-.23-.43-.45-.86-.67-1.3-.71-1.37-1.43-2.77-2.21-4.27l-.37-.72.21.79c.07.26.15.54.24.88.41,1.47.86,3.05,1.37,4.61-.18,0-.37,0-.55,0h-.27c-.29-.4-.61-.83-.99-1.34-.57-.76-1.17-1.55-1.84-2.41-.27-.35-1.38-1.74-1.39-1.76l-.59-.74.44.84s2.08,3.91,2.88,5.43c-.65.01-1.31.03-1.98.05l-3.93-8.72h2.11c.23.29.47.58.7.88.94,1.19,1.76,2.25,2.5,3.22l.27.35-.12-.43-1.09-4.03h1.95M64.13,24.03h0c.64,0,1.27.04,1.88.11l-.19,1.04c-.36-.07-.72-.1-1.07-.1h-.04c-1.3.01-2.08.37-2.35,1.05-.04.1-.05.19-.06.23-.05.23-.06.46-.02.72.04.22.11.45.22.71.11.25.25.5.35.69.06.1.11.2.17.3.07.12.14.24.21.36.34.61.6,1.17.79,1.73.23.66.35,1.32.38,1.95.03.73-.09,1.46-.34,2.16-.29.8-.77,1.6-1.43,2.37-.3.35-.64.68-1.01,1.01-.39.34-.81.67-1.24.96-.47.32-.96.6-1.45.85-.54.26-1.09.48-1.64.65-.15.04-.3.09-.45.12-.15.04-.31.08-.46.11-.16.03-.31.06-.47.09-.16.03-.32.05-.47.07-.28.03-.54.05-.78.05-.08,0-.16,0-.24,0,.42-1.33.84-2.66,1.25-3.99.07.01.15.02.22.03.1,0,.2.02.3.02.06,0,.12,0,.18,0,.04,0,.09,0,.13,0,.11,0,.21,0,.32-.02.05,0,.11-.01.16-.02.05,0,.11-.01.16-.02.05,0,.11-.02.16-.03.06-.01.11-.02.17-.03.52-.12,1-.3,1.41-.54.37-.21.7-.48.97-.78.24-.27.44-.58.59-.9.13-.29.22-.6.27-.92.05-.32.05-.65.02-.99-.03-.3-.09-.6-.18-.92-.08-.27-.18-.55-.31-.86-.11-.28-.24-.55-.36-.8-.04-.08-.08-.16-.11-.25-.11-.24-.23-.49-.34-.74-.16-.38-.28-.7-.37-.99-.1-.35-.16-.68-.17-.98-.01-.34.03-.66.13-.97.13-.39.33-.75.59-1.05.87-.97,2.33-1.45,4.48-1.45M78.5,24.02c1.3,0,2.96.11,4.31.91.33.2.63.44.88.7.24.25.45.53.63.83.17.28.31.59.42.92.1.3.19.63.24.97.27,1.6-.02,3.12-.8,4.3-.37.53-.91.99-1.66,1.41-.69.39-1.41.66-2.13.82-.5.11-1.03.22-1.72.35l-.79-11.21h.61M81.29,32.55l.11-.06c.31-.17.58-.37.79-.6.86-.94.79-2.29.58-3.6-.12-.75-.36-1.37-.72-1.84-.4-.53-.98-.89-1.54-.96h-.11s.01.1.01.1l.85,6.84v.13M77.04,24.02l.66,11.39c-.09.02-.18.04-.26.06-.1.02-.21.05-.31.07-.3.06-.61.12-.91.19-.61.12-1.21.25-1.81.38l.04-12.08h2.61M67.62,24.03h.03s.03,0,.03,0h.03s.03,0,.03,0c.55,0,1.02.01,1.45.04.51.03.96.07,1.38.14.46.07.88.17,1.26.29.41.13.78.3,1.09.5.45.29.75.62.89.99.13.34.13.71-.01,1.1-.14.38-.4.77-.78,1.14-.38.38-.87.73-1.42,1.03-.8.41-1.66.65-2.61.89h-.06s0,.08,0,.08l-.76,7.34c-1.26.32-2.55.66-3.85,1.02l2.44-14.56h.17s.24,0,.24,0h.24s.24,0,.24,0M69.07,28.52l.13-.05c.23-.08.44-.18.62-.28.19-.1.36-.22.51-.34.15-.12.27-.26.37-.4.1-.14.17-.3.22-.46.12-.45.01-.88-.3-1.2-.26-.26-.62-.44-1.11-.56l-.1-.02v.1c-.07.62-.14,1.25-.2,1.87l-.12,1.21v.14M96.64,27.43l.4.96-1.3.06-.4-.97,1.31-.04M109.11,23.91l2.87,3.89-.62-.62c-1.09-1.09-2.18-2.18-3.27-3.27h-1.36s6.4,9.31,6.4,9.31c.61.07,1.22.13,1.83.21l-3.66-5.11c.28.27.55.54.82.82,1.44,1.45,2.83,2.96,4.17,4.5.6.1,1.2.21,1.8.33l-7.71-10.07h-1.27ZM89.57,23.92h-.32c-.11,0-.23,0-.33,0-.1,0-.2,0-.27,0h-.13c.37,1.25.75,2.5,1.12,3.75.36,1.22.73,2.44,1.1,3.66.21.69.41,1.38.62,2.07.79-.08,1.57-.16,2.36-.23-.42-1.23-.84-2.46-1.26-3.68-.12-.36-.25-.71-.37-1.07.93.36,1.59,1.15,2.12,1.97.13.21.26.42.38.63.12.21.23.43.34.65.11.22.21.45.32.67.1.23.2.46.3.69.78-.05,1.57-.1,2.36-.14-.6-1.15-1.21-2.31-1.99-3.36-.21-.28-.44-.56-.69-.81-.45-.42-.95-.78-1.5-1.03.12-.07.22-.14.32-.22.28-.22.5-.51.54-.87.02-.18,0-.36-.07-.54-.06-.18-.15-.35-.27-.52-.12-.17-.27-.33-.45-.48-.17-.15-.37-.29-.59-.41-.28-.15-.57-.28-.86-.37-.3-.1-.61-.16-.92-.22-.31-.05-.62-.08-.94-.1-.31-.02-.62-.03-.92-.03M91.73,27.31l-.81-2.37c.68.13,1.4.46,1.66,1.16.06.17.08.31.07.44-.01.13-.06.24-.14.34-.08.1-.19.18-.32.25-.13.07-.29.13-.46.19M105.32,23.91h0c-.06,0-.12,0-.19,0h-.61c-.3,0-.6,0-.9,0,.33.81.66,1.61,1,2.41.58,1.38,1.19,2.75,1.8,4.11.31.68.62,1.35.93,2.03.04.09.09.19.13.28.03.06.03.07.09.07.05,0,.1,0,.16,0,.2,0,.4.02.6.03.4.02.8.04,1.2.07-.4-.71-.79-1.43-1.18-2.15.21,0,.43.02.64.02.11,0,.22,0,.33.01h0s.03,0,.05,0c.01,0,.02,0,.03,0,.03.01.07.1.09.13.03.05.07.1.1.15.28.39.55.79.82,1.18.14.2.27.39.41.59.03.05.08.14.13.16.05.02.12,0,.17.01.12.01.23.02.35.03.48.04.97.09,1.45.14-.97-1.24-1.82-2.31-2.57-3.26-.57-.72-1.15-1.43-1.73-2.14-1.06-1.29-2.13-2.57-3.21-3.83-.05-.06-.04-.06-.1-.06M108.34,29.36h-.79s-1.57-3.06-1.57-3.06c.03.04,2.36,3.06,2.36,3.06M88.16,23.92h-3.72c.24,1.12.47,2.23.71,3.35.3,1.42.6,2.84.91,4.26.18.82.35,1.65.53,2.47,1.45-.21,2.9-.4,4.35-.56l-.48-1.66c-.55.05-1.1.1-1.66.16-.08-.3-.17-.64-.26-1-.19-.72-.38-1.44-.56-2.16l1.58-.07-.35-1.21-1.55.05c-.23-.88-.46-1.76-.69-2.64.49,0,.99-.01,1.48-.02-.1-.33-.19-.65-.29-.98M102.12,23.92h-2.11s1.12,4.14,1.12,4.14c-.82-1.08-1.66-2.16-2.5-3.22-.24-.3-.48-.61-.72-.91h-2.29s4.01,8.9,4.01,8.9c.72-.02,1.45-.04,2.17-.05-.76-1.44-2.94-5.56-2.94-5.56,0,0,1.11,1.4,1.39,1.76.62.8,1.23,1.6,1.84,2.41.34.46.68.91,1.01,1.38.1,0,.21,0,.31,0,.22,0,.45,0,.67,0-.51-1.56-.96-3.14-1.4-4.72-.08-.29-.16-.59-.24-.88.73,1.43,1.47,2.85,2.21,4.27.23.45.47.89.7,1.34.68.01,1.36.03,2.03.05l-5.25-8.9ZM64.13,23.94c-1.57,0-3.44.24-4.54,1.48-.28.31-.48.68-.61,1.08-.1.33-.14.67-.13,1,.01.34.08.67.17,1,.1.34.23.67.37,1,.14.33.3.66.45.99.12.26.24.53.36.8.11.28.22.56.3.85.09.29.15.59.18.9.03.31.03.63-.02.96-.04.29-.13.6-.26.9-.14.3-.32.6-.57.88-.25.28-.56.54-.95.76-.39.22-.85.4-1.39.53-.06.01-.11.02-.16.03-.05,0-.11.02-.16.03-.05,0-.11.01-.16.02-.05,0-.1.01-.16.02-.11,0-.21.02-.31.02-.04,0-.09,0-.13,0-.06,0-.12,0-.18,0-.1,0-.2-.01-.3-.02-.1,0-.2-.02-.29-.04-.44,1.39-.87,2.78-1.31,4.17.12,0,.24.01.36.01.26,0,.53-.02.79-.05.16-.02.31-.04.47-.07.16-.03.31-.06.47-.09.16-.03.31-.07.46-.11.15-.04.3-.08.45-.12.57-.17,1.12-.4,1.65-.65.52-.25,1.01-.54,1.47-.85.45-.31.87-.63,1.25-.97.38-.33.72-.67,1.02-1.01.71-.82,1.17-1.62,1.45-2.4.27-.75.37-1.49.34-2.19-.02-.69-.17-1.35-.38-1.97-.21-.61-.49-1.2-.8-1.74-.12-.21-.25-.43-.38-.65-.13-.22-.25-.45-.35-.68-.1-.23-.17-.46-.21-.69-.04-.23-.04-.46.02-.69,0-.01,0-.1.05-.22.32-.85,1.49-.99,2.27-1h.04c.38,0,.76.04,1.14.11l.22-1.21c-.66-.08-1.32-.12-1.99-.12M78.5,23.93h-.7s.8,11.41.8,11.41c.61-.12,1.22-.24,1.82-.37.75-.16,1.48-.45,2.15-.83.65-.36,1.26-.82,1.69-1.44.85-1.28,1.06-2.86.81-4.36-.05-.33-.13-.66-.24-.99-.11-.32-.25-.64-.43-.94-.18-.3-.39-.58-.64-.85-.25-.26-.55-.5-.9-.72-1.3-.77-2.88-.92-4.36-.92M81.36,32.42l-.85-6.84c.59.08,1.13.46,1.48.93.39.52.6,1.16.7,1.8.19,1.17.3,2.58-.56,3.53-.22.24-.48.43-.77.59M77.12,23.94h-2.78s-.04,12.28-.04,12.28c.64-.14,1.28-.27,1.92-.4.3-.06.61-.12.91-.19.22-.04.43-.1.65-.15l-.66-11.54ZM67.62,23.94c-.08,0-.16,0-.24,0s-.16,0-.24,0h-.24c-.08,0-.16,0-.24,0l-2.48,14.77c1.34-.37,2.69-.73,4.04-1.07l.77-7.4c.9-.23,1.81-.47,2.63-.9.57-.3,1.06-.66,1.44-1.04.38-.38.66-.78.8-1.18.14-.39.15-.79.01-1.16-.14-.37-.44-.72-.92-1.03-.34-.21-.71-.38-1.11-.51-.4-.13-.83-.23-1.27-.3-.45-.07-.91-.11-1.39-.14-.48-.03-.97-.04-1.46-.04h-.03s-.02,0-.03,0h-.03s-.03,0-.03,0ZM69.17,28.39c.11-1.02.21-2.05.32-3.07.39.09.78.25,1.07.54.3.3.4.71.28,1.12-.04.15-.11.3-.21.43-.09.14-.21.26-.36.38-.14.12-.31.23-.49.33-.19.1-.39.19-.61.27M96.7,27.34l-1.49.05.47,1.15,1.49-.06-.47-1.13Z"
      style="fill: #ec1c24;" />
    <rect x="79.3" y="17.39" width="13.52" height="5.44" style="fill: #ec1c24;" />
    <path
      d="M90.74,18.66v-.83s-2.32,0-2.32,0l-.38,2.78-.38-2.78h-.84s.09.74.09.74c-.1-.19-.44-.74-1.19-.74h-.84s0,4.05,0,4.05l-.61-4.05h-1.09s-.63,4.2-.63,4.2v-4.2s-1.05,0-1.05,0l-.38,2.36-.37-2.36h-1.05s0,4.57,0,4.57h.82s0-2.2,0-2.2l.38,2.2h.44s.37-2.2.37-2.2v2.2s1.59,0,1.59,0l.1-.7h.64s.1.7.1.7h1.56s0,0,0,0h0s0,0,0,0h0s0-1.48,0-1.48l.19-.03.4,1.51h0s.81,0,.81,0h0,0s0,0,0,0h0s-.52-1.77-.52-1.77c.26-.2.56-.69.48-1.16,0,0,.49,2.94.49,2.94h.96s.66-4.14.66-4.14v4.14s1.56,0,1.56,0v-.82s-.74,0-.74,0v-1.05s.74,0,.74,0v-.83s-.74,0-.74,0v-1.03s.74,0,.74,0ZM83.51,20.97l.23-1.95.24,1.95h-.46ZM85.91,20.07c-.06.03-.13.05-.19.05v-1.47s0,0,0,0c.07,0,.55.02.55.73,0,.37-.16.6-.36.7M92.4,21.57v.82s-1.52,0-1.52,0v-4.57s.82,0,.82,0v3.75s.7,0,.7,0Z"
      style="fill: #fff;" />
  </g>
  <g>
    <path
      d="M72.13,87.16c-1.23,0-2.22-.99-2.22-2.21s.99-2.22,2.22-2.22,2.21,1.01,2.21,2.22-.97,2.21-2.21,2.21ZM72.13,83.04c-1.05,0-1.9.85-1.9,1.9s.85,1.9,1.9,1.9,1.9-.86,1.9-1.9-.84-1.9-1.9-1.9ZM72.8,84.47c-.04-.1-.19-.47-.66-.47s-.8.38-.8.92.26.99.76.99c.53,0,.69-.44.74-.58l.31.1c-.05.15-.13.4-.41.59-.23.16-.46.19-.62.19-.71,0-1.13-.57-1.13-1.27s.39-1.23,1.15-1.23c.41,0,.76.18.97.66l-.32.08Z"
      style="fill: #120b15;" />
    <g>
      <path d="M80.38,86.87h-.56v-3.36l-1.77,1.72h-.06l-1.78-1.72v3.36h-.56v-4.04h.54l1.83,1.77,1.82-1.77h.54v4.04Z"
        style="fill: #120b15;" />
      <path
        d="M85.84,86.87h-.59l-.74-1.3h-2.35l-.73,1.3h-.59l2.28-4.06h.38l2.34,4.06ZM83.32,83.51l-.93,1.68h1.9l-.96-1.68Z"
        style="fill: #120b15;" />
      <path
        d="M87.63,82.83c1.33,0,1.69.6,1.69,1.08,0,.55-.43.85-.92.99.37.19.62.5,1.26,1.29.22.27.33.4.59.68h-.68l-.49-.61c-.2-.25-.43-.51-.66-.75-.33-.33-.62-.49-1.17-.49h-.37v1.85h-.56v-4.04h1.31ZM86.88,83.23v1.41h.66c.73,0,1.17-.25,1.17-.71,0-.42-.39-.7-1.17-.7h-.66Z"
        style="fill: #120b15;" />
      <path d="M92.36,86.91h-.14l-2.19-4.08h.57l1.68,3.13,1.67-3.13h.56l-2.16,4.08Z" style="fill: #120b15;" />
      <path d="M97.85,83.23h-2.29v1.42h2.23v.39h-2.23v1.45h2.35v.39h-2.92v-4.04h2.86v.39Z" style="fill: #120b15;" />
      <path d="M99.16,86.48h2.42v.39h-2.99v-4.04h.56v3.65Z" style="fill: #120b15;" />
    </g>
    <g>
      <rect x="57.19" y="58.77" width="55.4" height="22.44" style="fill: #ec1c24;" />
      <path
        d="M104.05,64.11v-3.41h-9.48l-1.56,11.38-1.54-11.38h-3.42l.38,3.04c-.4-.78-1.79-3.04-4.87-3.04-.02,0-3.42,0-3.42,0v16.59s-2.5-16.59-2.5-16.59h-4.48s-2.58,17.19-2.58,17.19v-17.19h-4.29l-1.54,9.65-1.5-9.65h-4.29v18.69h3.38v-9.01l1.54,9.01h1.79l1.51-9.01v9.01h6.51l.4-2.87h2.62l.39,2.87h6.39s0,0,0,0h0s0,0,0,0h0v-6.07l.78-.11,1.62,6.19h3.31,0s0,0,0,0h0l-2.13-7.25c1.08-.8,2.29-2.82,1.97-4.76h0s2.01,12.02,2.01,12.02h3.93s2.69-16.95,2.69-16.95v16.94h6.37v-3.36h-3.03v-4.29h3.03v-3.41h-3.03v-4.22h3.03ZM74.48,73.55l.93-7.99.96,7.99h-1.89ZM84.29,69.87c-.26.12-.53.19-.79.19v-6.01h.02c.26,0,2.24.08,2.24,2.97,0,1.51-.67,2.47-1.46,2.85M110.85,76.03v3.36h-6.21v-18.69h3.35v15.33h2.87Z"
        style="fill: #fff;" />
    </g>
  </g>
  <g>
    <path
      d="M133.14,48.55v-5.74h.64v.54c.15-.21.32-.37.51-.47.19-.11.42-.16.69-.16.35,0,.67.09.94.27.27.18.48.44.61.77.14.33.21.7.21,1.09,0,.42-.08.81-.23,1.15s-.37.6-.66.78c-.29.18-.6.27-.92.27-.23,0-.44-.05-.63-.15-.19-.1-.34-.22-.46-.38v2.02h-.7ZM133.77,44.91c0,.53.11.93.32,1.18.22.26.48.38.79.38s.58-.13.8-.4.33-.67.33-1.23-.11-.92-.33-1.19c-.22-.26-.48-.39-.78-.39s-.56.14-.79.42-.35.69-.35,1.22Z"
      style="fill: #7d7e81;" />
    <path d="M137.59,42.04v-.81h.7v.81h-.7ZM137.59,46.96v-4.15h.7v4.15h-.7Z" style="fill: #7d7e81;" />
    <path
      d="M142.2,45.62l.73.09c-.11.42-.33.75-.64.99-.31.23-.71.35-1.19.35-.61,0-1.09-.19-1.44-.56s-.53-.9-.53-1.57.18-1.24.54-1.62.83-.58,1.4-.58,1.01.19,1.36.57.53.91.53,1.59c0,.04,0,.1,0,.19h-3.09c.03.46.16.8.39,1.05.23.24.52.36.87.36.26,0,.48-.07.66-.2.18-.14.33-.35.43-.65ZM139.9,44.49h2.32c-.03-.35-.12-.61-.27-.79-.22-.27-.51-.41-.87-.41-.32,0-.59.11-.81.32-.22.22-.34.51-.37.87Z"
      style="fill: #7d7e81;" />
    <path
      d="M143.68,47.3l.68.1c.03.21.11.36.24.46.17.13.41.2.71.2.33,0,.58-.06.75-.2.18-.13.3-.31.36-.55.04-.14.05-.44.05-.9-.31.36-.69.54-1.15.54-.57,0-1.01-.21-1.32-.62s-.47-.9-.47-1.48c0-.4.07-.76.21-1.1.14-.33.35-.59.62-.78.27-.18.59-.27.96-.27.49,0,.89.2,1.21.59v-.5h.65v3.59c0,.65-.07,1.1-.2,1.37-.13.27-.34.48-.62.64s-.64.23-1.05.23c-.49,0-.89-.11-1.2-.33s-.45-.56-.44-1.01ZM144.27,44.81c0,.54.11.94.32,1.19.22.25.49.38.81.38s.59-.12.81-.37.33-.64.33-1.17-.11-.89-.34-1.15c-.22-.26-.5-.39-.81-.39s-.58.13-.8.38-.33.63-.33,1.13Z"
      style="fill: #7d7e81;" />
    <path
      d="M150.97,46.45c-.26.22-.51.38-.75.47-.24.09-.5.14-.78.14-.46,0-.81-.11-1.05-.33-.24-.22-.37-.51-.37-.85,0-.2.05-.39.14-.56.09-.17.21-.3.36-.4.15-.1.32-.18.51-.23.14-.04.35-.07.62-.11.57-.07.99-.15,1.25-.24,0-.1,0-.16,0-.18,0-.29-.07-.49-.2-.61-.18-.16-.45-.24-.8-.24-.33,0-.57.06-.73.17-.16.12-.27.32-.35.62l-.69-.09c.06-.29.17-.53.31-.71.14-.18.35-.32.62-.42.27-.1.58-.15.94-.15s.64.04.86.12c.22.08.38.19.49.31.1.13.18.29.22.48.02.12.04.34.04.65v.94c0,.65.02,1.07.04,1.24.03.17.09.34.18.5h-.73c-.07-.15-.12-.32-.14-.51ZM150.91,44.88c-.25.1-.64.19-1.15.27-.29.04-.49.09-.61.14-.12.05-.21.13-.28.23-.06.1-.1.21-.1.33,0,.19.07.34.21.47.14.12.35.19.62.19s.51-.06.72-.18.37-.28.46-.49c.08-.16.11-.39.11-.7v-.26Z"
      style="fill: #7d7e81;" />
    <path
      d="M154.25,46.33l.1.62c-.2.04-.38.06-.53.06-.25,0-.45-.04-.59-.12s-.24-.19-.3-.32c-.06-.13-.09-.41-.09-.83v-2.39h-.52v-.55h.52v-1.03l.7-.42v1.45h.71v.55h-.71v2.43c0,.2.01.33.04.39.03.06.07.1.12.14.06.03.14.05.24.05.08,0,.18,0,.31-.03Z"
      style="fill: #7d7e81;" />
    <path
      d="M157.65,46.96v-.61c-.32.47-.76.7-1.32.7-.24,0-.47-.05-.69-.14-.21-.09-.37-.21-.47-.35-.1-.14-.17-.32-.22-.52-.03-.14-.04-.36-.04-.66v-2.57h.7v2.3c0,.37.01.61.04.74.04.19.14.33.28.44.14.11.32.16.53.16s.41-.05.59-.16c.19-.11.32-.26.39-.44.08-.19.12-.46.12-.81v-2.22h.7v4.15h-.63Z"
      style="fill: #7d7e81;" />
    <path
      d="M159.38,46.96v-4.15h.63v.63c.16-.29.31-.49.45-.58s.29-.14.45-.14c.24,0,.48.08.72.23l-.24.65c-.17-.1-.34-.15-.52-.15-.15,0-.29.05-.41.14-.12.09-.21.22-.26.38-.08.25-.12.52-.12.82v2.17h-.7Z"
      style="fill: #7d7e81;" />
    <path
      d="M164.75,46.45c-.26.22-.51.38-.75.47-.24.09-.5.14-.78.14-.46,0-.81-.11-1.05-.33-.24-.22-.37-.51-.37-.85,0-.2.05-.39.14-.56.09-.17.21-.3.36-.4.15-.1.32-.18.51-.23.14-.04.35-.07.62-.11.57-.07.99-.15,1.25-.24,0-.1,0-.16,0-.18,0-.29-.07-.49-.2-.61-.18-.16-.45-.24-.8-.24-.33,0-.57.06-.73.17-.16.12-.27.32-.35.62l-.69-.09c.06-.29.17-.53.31-.71.14-.18.35-.32.62-.42.27-.1.58-.15.94-.15s.64.04.86.12c.22.08.38.19.49.31.1.13.18.29.22.48.02.12.04.34.04.65v.94c0,.65.02,1.07.04,1.24.03.17.09.34.18.5h-.73c-.07-.15-.12-.32-.14-.51ZM164.7,44.88c-.25.1-.64.19-1.15.27-.29.04-.49.09-.61.14-.12.05-.21.13-.28.23-.06.1-.1.21-.1.33,0,.19.07.34.21.47.14.12.35.19.62.19s.51-.06.72-.18.37-.28.46-.49c.08-.16.11-.39.11-.7v-.26Z"
      style="fill: #7d7e81;" />
    <path
      d="M133.31,56.56v-3.6h-.62v-.55h.62v-.44c0-.28.03-.49.07-.62.07-.18.19-.33.36-.44.17-.11.41-.17.72-.17.2,0,.42.02.66.07l-.11.61c-.15-.03-.28-.04-.41-.04-.21,0-.36.05-.45.14-.09.09-.13.26-.13.51v.38h.81v.55h-.81v3.6h-.7Z"
      style="fill: #7d7e81;" />
    <path
      d="M135.1,54.49c0-.77.21-1.34.64-1.71.36-.31.79-.46,1.3-.46.57,0,1.04.19,1.4.56.36.37.54.89.54,1.55,0,.53-.08.95-.24,1.26s-.39.54-.7.71c-.31.17-.64.25-1,.25-.58,0-1.05-.19-1.41-.56-.36-.37-.54-.91-.54-1.61ZM135.82,54.49c0,.53.12.93.35,1.19.23.26.52.4.88.4s.64-.13.87-.4c.23-.27.35-.67.35-1.21,0-.51-.12-.9-.35-1.17-.23-.26-.52-.4-.87-.4s-.64.13-.88.39c-.23.26-.35.66-.35,1.19Z"
      style="fill: #7d7e81;" />
    <path d="M139.79,56.56v-5.73h.7v5.73h-.7Z" style="fill: #7d7e81;" />
    <path
      d="M144.28,56.56v-.52c-.26.41-.65.62-1.16.62-.33,0-.63-.09-.91-.27s-.49-.44-.64-.76-.23-.7-.23-1.13.07-.79.21-1.13c.14-.34.35-.6.62-.78.28-.18.58-.27.93-.27.25,0,.47.05.67.16s.35.24.48.41v-2.05h.7v5.73h-.65ZM142.06,54.49c0,.53.11.93.34,1.19.22.26.49.39.79.39s.57-.13.78-.38.32-.63.32-1.15c0-.57-.11-.98-.33-1.25s-.49-.4-.81-.4-.57.13-.78.38c-.21.26-.31.66-.31,1.21Z"
      style="fill: #7d7e81;" />
  </g>
  <line x1="127.95" y1="49.55" x2="127.95" y2="50.68" style="fill: none; stroke: #000; stroke-width: .25px;" />
  <line x1="43.17" y1="49.55" x2="43.17" y2="50.68" style="fill: none; stroke: #000; stroke-width: .25px;" />
  <line x1="35.35" y1="7.84" x2="137.89" y2="7.84"
    style="fill: none; stroke: #00a14e; stroke-dasharray: 3.58 1.79; stroke-width: .9px;" />
  <line x1="35.35" y1="92.38" x2="137.89" y2="92.38"
    style="fill: none; stroke: #00a14e; stroke-dasharray: 3.58 1.79; stroke-width: .9px;" />
  <line x1="129.13" y1="50.11" x2="41.8" y2="50.11"
    style="fill: none; stroke: #7d7e81; stroke-dasharray: 2.69; stroke-width: .9px;" />
  <g>
    <path
      d="M142.69,4.21l.69.09c-.08.48-.27.85-.58,1.12-.31.27-.69.4-1.15.4-.57,0-1.02-.19-1.37-.56-.35-.37-.52-.9-.52-1.6,0-.45.07-.84.22-1.18s.37-.59.68-.76c.3-.17.63-.25.99-.25.45,0,.82.11,1.11.34.29.23.47.55.55.97l-.68.11c-.07-.28-.18-.49-.35-.63-.17-.14-.37-.21-.6-.21-.35,0-.64.13-.86.38-.22.25-.33.66-.33,1.21s.11.96.32,1.21c.21.25.49.38.84.38.28,0,.51-.08.69-.25.18-.17.3-.43.35-.78Z"
      style="fill: #00a14e;" />
    <path
      d="M146.71,5.73v-.61c-.32.47-.76.7-1.32.7-.25,0-.47-.05-.69-.14-.21-.09-.37-.21-.47-.35-.1-.14-.18-.32-.22-.52-.03-.14-.04-.36-.04-.66V1.58h.7v2.3c0,.37.01.61.04.74.04.19.14.33.28.44.14.11.32.16.53.16s.41-.05.59-.16c.18-.11.32-.26.39-.44.08-.19.12-.46.12-.81V1.58h.7v4.15h-.63Z"
      style="fill: #00a14e;" />
    <path
      d="M151.14,4.21l.69.09c-.08.48-.27.85-.58,1.12-.31.27-.69.4-1.15.4-.57,0-1.02-.19-1.37-.56-.35-.37-.52-.9-.52-1.6,0-.45.07-.84.22-1.18s.37-.59.68-.76c.3-.17.63-.25.99-.25.45,0,.82.11,1.11.34.29.23.47.55.55.97l-.68.11c-.07-.28-.18-.49-.35-.63-.17-.14-.37-.21-.6-.21-.35,0-.64.13-.86.38-.22.25-.33.66-.33,1.21s.11.96.32,1.21c.21.25.49.38.84.38.28,0,.51-.08.69-.25.18-.17.3-.43.35-.78Z"
      style="fill: #00a14e;" />
    <path d="M152.44.81v-.81h.7v.81h-.7ZM152.44,5.73V1.58h.7v4.15h-.7Z" style="fill: #00a14e;" />
    <path
      d="M155.75,5.1l.1.62c-.2.04-.38.06-.53.06-.26,0-.45-.04-.59-.12s-.24-.19-.3-.32c-.06-.13-.09-.41-.09-.83v-2.39h-.52v-.55h.52V.55l.7-.42v1.45h.71v.55h-.71v2.43c0,.2.01.33.04.39.02.06.06.1.12.14.06.03.14.05.24.05.08,0,.18,0,.31-.03Z"
      style="fill: #00a14e;" />
    <path
      d="M159.16,5.73v-.61c-.32.47-.76.7-1.32.7-.25,0-.47-.05-.69-.14-.21-.09-.37-.21-.47-.35-.1-.14-.18-.32-.22-.52-.03-.14-.04-.36-.04-.66V1.58h.7v2.3c0,.37.01.61.04.74.04.19.14.33.28.44.14.11.32.16.53.16s.41-.05.59-.16c.18-.11.32-.26.39-.44.08-.19.12-.46.12-.81V1.58h.7v4.15h-.63Z"
      style="fill: #00a14e;" />
    <path
      d="M160.88,5.73V1.58h.63v.63c.16-.29.31-.49.45-.58s.29-.14.45-.14c.24,0,.48.08.72.23l-.24.65c-.17-.1-.34-.15-.52-.15-.15,0-.29.05-.41.14-.12.09-.21.22-.26.38-.08.25-.12.52-.12.82v2.17h-.7Z"
      style="fill: #00a14e;" />
    <path
      d="M166.26,5.21c-.26.22-.51.38-.75.47-.24.09-.5.14-.78.14-.46,0-.81-.11-1.05-.33-.25-.22-.37-.51-.37-.85,0-.2.05-.39.14-.56.09-.17.21-.3.36-.4.15-.1.32-.18.51-.23.14-.04.35-.07.62-.11.57-.07.99-.15,1.25-.24,0-.1,0-.16,0-.18,0-.29-.07-.49-.2-.61-.18-.16-.45-.24-.8-.24-.33,0-.58.06-.73.17-.16.12-.27.32-.35.62l-.69-.09c.06-.29.17-.53.31-.71.14-.18.35-.32.62-.42.27-.1.58-.15.94-.15s.64.04.86.12c.22.08.38.19.49.31.1.13.18.29.22.48.02.12.04.34.04.65v.94c0,.65.01,1.07.04,1.24.03.17.09.34.18.5h-.73c-.07-.15-.12-.32-.14-.51ZM166.2,3.64c-.26.1-.64.19-1.15.27-.29.04-.49.09-.61.14-.12.05-.21.13-.28.23-.07.1-.1.21-.1.33,0,.19.07.34.21.47.14.12.35.19.62.19s.51-.06.72-.18.37-.28.46-.49c.08-.16.11-.39.11-.7v-.26Z"
      style="fill: #00a14e;" />
  </g>
  <g>
    <path
      d="M140.04,11.4l.71-.04c0,.2.03.38.09.52s.18.26.35.35.36.14.59.14c.31,0,.55-.06.7-.19s.23-.27.23-.44c0-.12-.05-.24-.14-.35-.1-.11-.33-.24-.71-.4-.37-.16-.61-.27-.72-.34-.17-.11-.31-.23-.39-.38-.09-.14-.13-.31-.13-.5,0-.33.13-.61.39-.84.26-.23.62-.35,1.09-.35.52,0,.92.12,1.19.36.27.24.41.56.42.95l-.69.05c-.01-.25-.1-.45-.27-.59-.17-.15-.4-.22-.71-.22-.25,0-.44.06-.57.17-.14.11-.2.23-.2.36s.06.24.18.34c.08.07.28.17.61.31.54.23.88.42,1.02.55.22.22.34.48.34.79,0,.21-.06.41-.19.61-.13.2-.32.36-.58.47-.26.12-.56.18-.92.18-.48,0-.89-.12-1.22-.36s-.5-.62-.48-1.16Z"
      style="fill: #00a14e;" />
    <path
      d="M147.02,11.41l.69.07c-.1.34-.33.67-.68.97s-.78.46-1.27.46c-.31,0-.59-.07-.85-.21-.26-.14-.45-.35-.59-.62-.13-.27-.2-.58-.2-.93,0-.45.1-.89.31-1.32.21-.43.48-.74.81-.95.33-.21.69-.31,1.08-.31.49,0,.89.15,1.19.46.29.31.44.73.44,1.26,0,.2-.02.41-.05.62h-3.05c-.01.08-.02.15-.02.22,0,.39.09.68.27.89.18.2.4.31.65.31.24,0,.48-.08.71-.24s.42-.39.55-.69ZM144.96,10.38h2.33c0-.07,0-.12,0-.16,0-.35-.09-.63-.27-.81-.18-.19-.41-.28-.68-.28-.3,0-.58.1-.83.31-.25.21-.43.52-.56.94Z"
      style="fill: #00a14e;" />
    <path
      d="M151.22,12.3c-.25.21-.48.37-.71.46s-.47.15-.73.15c-.38,0-.69-.11-.93-.34s-.35-.51-.35-.87c0-.23.05-.44.16-.62s.25-.32.42-.43c.17-.11.39-.19.64-.23.16-.03.46-.06.9-.07.44-.02.76-.06.96-.14.05-.19.08-.35.08-.48,0-.16-.06-.29-.18-.39-.16-.13-.4-.2-.72-.2-.3,0-.54.07-.73.2-.19.13-.33.32-.41.56l-.71-.06c.15-.41.38-.73.69-.95s.71-.33,1.2-.33c.51,0,.92.12,1.22.37.23.18.34.42.34.71,0,.22-.03.48-.1.77l-.23,1.03c-.07.33-.11.6-.11.8,0,.13.03.32.09.56h-.71c-.04-.14-.07-.31-.08-.52ZM151.48,10.72c-.1.04-.21.07-.32.09s-.3.04-.57.07c-.41.04-.7.08-.87.14-.17.06-.3.15-.38.27s-.13.26-.13.41c0,.2.07.36.21.49s.33.19.58.19c.23,0,.46-.06.68-.19.22-.12.39-.3.51-.52s.22-.54.29-.95Z"
      style="fill: #00a14e;" />
    <path
      d="M152.87,12.82l.87-4.15h.71l-.14.68c.26-.29.5-.5.71-.61s.43-.17.67-.17c.26,0,.47.07.65.21.17.14.29.33.34.57.21-.26.43-.46.67-.58.23-.13.48-.19.74-.19.35,0,.61.08.78.25.17.16.26.39.26.69,0,.13-.03.34-.09.63l-.56,2.67h-.71l.57-2.74c.05-.22.07-.38.07-.48,0-.14-.04-.24-.13-.32s-.21-.12-.36-.12c-.21,0-.43.06-.64.19s-.39.29-.51.5-.23.53-.32.96l-.42,2.01h-.71l.59-2.8c.04-.19.06-.33.06-.41,0-.14-.04-.24-.13-.33-.08-.08-.2-.12-.33-.12-.2,0-.41.06-.63.19-.22.13-.4.31-.54.53-.14.23-.25.55-.34.97l-.41,1.96h-.71Z"
      style="fill: #00a14e;" />
  </g>
  <g>
    <path
      d="M142.69,88.54l.69.09c-.08.48-.27.85-.58,1.12-.31.27-.69.4-1.15.4-.57,0-1.02-.19-1.37-.56-.35-.37-.52-.9-.52-1.6,0-.45.07-.84.22-1.18s.37-.59.68-.76c.3-.17.63-.25.99-.25.45,0,.82.11,1.11.34.29.23.47.55.55.97l-.68.11c-.07-.28-.18-.49-.35-.63-.17-.14-.37-.21-.6-.21-.35,0-.64.13-.86.38-.22.25-.33.66-.33,1.21s.11.96.32,1.21c.21.25.49.38.84.38.28,0,.51-.08.69-.25.18-.17.3-.43.35-.78Z"
      style="fill: #00a14e;" />
    <path
      d="M146.71,90.06v-.61c-.32.47-.76.7-1.32.7-.25,0-.47-.05-.69-.14-.21-.09-.37-.21-.47-.35-.1-.14-.18-.32-.22-.52-.03-.14-.04-.36-.04-.66v-2.57h.7v2.3c0,.37.01.61.04.74.04.19.14.33.28.44.14.11.32.16.53.16s.41-.05.59-.16c.18-.11.32-.26.39-.44.08-.19.12-.46.12-.81v-2.22h.7v4.15h-.63Z"
      style="fill: #00a14e;" />
    <path
      d="M151.14,88.54l.69.09c-.08.48-.27.85-.58,1.12-.31.27-.69.4-1.15.4-.57,0-1.02-.19-1.37-.56-.35-.37-.52-.9-.52-1.6,0-.45.07-.84.22-1.18s.37-.59.68-.76c.3-.17.63-.25.99-.25.45,0,.82.11,1.11.34.29.23.47.55.55.97l-.68.11c-.07-.28-.18-.49-.35-.63-.17-.14-.37-.21-.6-.21-.35,0-.64.13-.86.38-.22.25-.33.66-.33,1.21s.11.96.32,1.21c.21.25.49.38.84.38.28,0,.51-.08.69-.25.18-.17.3-.43.35-.78Z"
      style="fill: #00a14e;" />
    <path d="M152.44,85.14v-.81h.7v.81h-.7ZM152.44,90.06v-4.15h.7v4.15h-.7Z" style="fill: #00a14e;" />
    <path
      d="M155.75,89.43l.1.62c-.2.04-.38.06-.53.06-.26,0-.45-.04-.59-.12s-.24-.19-.3-.32c-.06-.13-.09-.41-.09-.83v-2.39h-.52v-.55h.52v-1.03l.7-.42v1.45h.71v.55h-.71v2.43c0,.2.01.33.04.39.02.06.06.1.12.14.06.03.14.05.24.05.08,0,.18,0,.31-.03Z"
      style="fill: #00a14e;" />
    <path
      d="M159.16,90.06v-.61c-.32.47-.76.7-1.32.7-.25,0-.47-.05-.69-.14-.21-.09-.37-.21-.47-.35-.1-.14-.18-.32-.22-.52-.03-.14-.04-.36-.04-.66v-2.57h.7v2.3c0,.37.01.61.04.74.04.19.14.33.28.44.14.11.32.16.53.16s.41-.05.59-.16c.18-.11.32-.26.39-.44.08-.19.12-.46.12-.81v-2.22h.7v4.15h-.63Z"
      style="fill: #00a14e;" />
    <path
      d="M160.88,90.06v-4.15h.63v.63c.16-.29.31-.49.45-.58s.29-.14.45-.14c.24,0,.48.08.72.23l-.24.65c-.17-.1-.34-.15-.52-.15-.15,0-.29.05-.41.14-.12.09-.21.22-.26.38-.08.25-.12.52-.12.82v2.17h-.7Z"
      style="fill: #00a14e;" />
    <path
      d="M166.26,89.55c-.26.22-.51.38-.75.47-.24.09-.5.14-.78.14-.46,0-.81-.11-1.05-.33-.25-.22-.37-.51-.37-.85,0-.2.05-.39.14-.56.09-.17.21-.3.36-.4.15-.1.32-.18.51-.23.14-.04.35-.07.62-.11.57-.07.99-.15,1.25-.24,0-.1,0-.16,0-.18,0-.29-.07-.49-.2-.61-.18-.16-.45-.24-.8-.24-.33,0-.58.06-.73.17-.16.12-.27.32-.35.62l-.69-.09c.06-.29.17-.53.31-.71.14-.18.35-.32.62-.42.27-.1.58-.15.94-.15s.64.04.86.12c.22.08.38.19.49.31.1.13.18.29.22.48.02.12.04.34.04.65v.94c0,.65.01,1.07.04,1.24.03.17.09.34.18.5h-.73c-.07-.15-.12-.32-.14-.51ZM166.2,87.98c-.26.1-.64.19-1.15.27-.29.04-.49.09-.61.14-.12.05-.21.13-.28.23-.07.1-.1.21-.1.33,0,.19.07.34.21.47.14.12.35.19.62.19s.51-.06.72-.18.37-.28.46-.49c.08-.16.11-.39.11-.7v-.26Z"
      style="fill: #00a14e;" />
  </g>
  <g>
    <path
      d="M140.04,95.73l.71-.04c0,.2.03.38.09.52s.18.26.35.35.36.14.59.14c.31,0,.55-.06.7-.19s.23-.27.23-.44c0-.12-.05-.24-.14-.35-.1-.11-.33-.24-.71-.4-.37-.16-.61-.27-.72-.34-.17-.11-.31-.23-.39-.38-.09-.14-.13-.31-.13-.5,0-.33.13-.61.39-.84.26-.23.62-.35,1.09-.35.52,0,.92.12,1.19.36.27.24.41.56.42.95l-.69.05c-.01-.25-.1-.45-.27-.59-.17-.15-.4-.22-.71-.22-.25,0-.44.06-.57.17-.14.11-.2.23-.2.36s.06.24.18.34c.08.07.28.17.61.31.54.23.88.42,1.02.55.22.22.34.48.34.79,0,.21-.06.41-.19.61-.13.2-.32.36-.58.47-.26.12-.56.18-.92.18-.48,0-.89-.12-1.22-.36s-.5-.62-.48-1.16Z"
      style="fill: #00a14e;" />
    <path
      d="M147.02,95.74l.69.07c-.1.34-.33.67-.68.97s-.78.46-1.27.46c-.31,0-.59-.07-.85-.21-.26-.14-.45-.35-.59-.62-.13-.27-.2-.58-.2-.93,0-.45.1-.89.31-1.32.21-.43.48-.74.81-.95.33-.21.69-.31,1.08-.31.49,0,.89.15,1.19.46.29.31.44.73.44,1.26,0,.2-.02.41-.05.62h-3.05c-.01.08-.02.15-.02.22,0,.39.09.68.27.89.18.2.4.31.65.31.24,0,.48-.08.71-.24s.42-.39.55-.69ZM144.96,94.71h2.33c0-.07,0-.12,0-.16,0-.35-.09-.63-.27-.81-.18-.19-.41-.28-.68-.28-.3,0-.58.1-.83.31-.25.21-.43.52-.56.94Z"
      style="fill: #00a14e;" />
    <path
      d="M151.22,96.63c-.25.21-.48.37-.71.46s-.47.15-.73.15c-.38,0-.69-.11-.93-.34s-.35-.51-.35-.87c0-.23.05-.44.16-.62s.25-.32.42-.43c.17-.11.39-.19.64-.23.16-.03.46-.06.9-.07.44-.02.76-.06.96-.14.05-.19.08-.35.08-.48,0-.16-.06-.29-.18-.39-.16-.13-.4-.2-.72-.2-.3,0-.54.07-.73.2-.19.13-.33.32-.41.56l-.71-.06c.15-.41.38-.73.69-.95s.71-.33,1.2-.33c.51,0,.92.12,1.22.37.23.18.34.42.34.71,0,.22-.03.48-.1.77l-.23,1.03c-.07.33-.11.6-.11.8,0,.13.03.32.09.56h-.71c-.04-.14-.07-.31-.08-.52ZM151.48,95.05c-.1.04-.21.07-.32.09s-.3.04-.57.07c-.41.04-.7.08-.87.14-.17.06-.3.15-.38.27s-.13.26-.13.41c0,.2.07.36.21.49s.33.19.58.19c.23,0,.46-.06.68-.19.22-.12.39-.3.51-.52s.22-.54.29-.95Z"
      style="fill: #00a14e;" />
    <path
      d="M152.87,97.15l.87-4.15h.71l-.14.68c.26-.29.5-.5.71-.61s.43-.17.67-.17c.26,0,.47.07.65.21.17.14.29.33.34.57.21-.26.43-.46.67-.58.23-.13.48-.19.74-.19.35,0,.61.08.78.25.17.16.26.39.26.69,0,.13-.03.34-.09.63l-.56,2.67h-.71l.57-2.74c.05-.22.07-.38.07-.48,0-.14-.04-.24-.13-.32s-.21-.12-.36-.12c-.21,0-.43.06-.64.19s-.39.29-.51.5-.23.53-.32.96l-.42,2.01h-.71l.59-2.8c.04-.19.06-.33.06-.41,0-.14-.04-.24-.13-.33-.08-.08-.2-.12-.33-.12-.2,0-.41.06-.63.19-.22.13-.4.31-.54.53-.14.23-.25.55-.34.97l-.41,1.96h-.71Z"
      style="fill: #00a14e;" />
  </g>
  <g>
    <path
      d="M75.94,114.09c-.03.9.52,1.45,1.41,1.45.71,0,1.39-.42,1.39-1.19,0-.92-.83-1.17-1.62-1.11v-.23c.71.03,1.51-.17,1.51-1.02,0-.68-.69-.99-1.27-.99-.85,0-1.25.58-1.29,1.38h-.27c0-.95.6-1.61,1.56-1.61.78,0,1.54.36,1.54,1.22,0,.57-.38,1.03-.95,1.11h0c.66.09,1.06.6,1.06,1.25,0,.95-.76,1.42-1.65,1.42-1.06,0-1.72-.6-1.67-1.68h.27Z" />
    <path
      d="M79.51,113.27c0-1.16.36-2.5,1.75-2.5s1.75,1.34,1.75,2.5-.36,2.5-1.75,2.5-1.75-1.34-1.75-2.5ZM82.74,113.27c0-.97-.27-2.27-1.48-2.27s-1.48,1.3-1.48,2.27.27,2.27,1.48,2.27,1.48-1.3,1.48-2.27Z" />
    <path
      d="M85.55,112.09h.27v.74h.01c.11-.46.59-.82,1.13-.82.69,0,1.01.39,1.09.76h.01c.21-.49.56-.76,1.14-.76.65,0,1.13.38,1.13,1.23v2.46h-.27v-2.47c0-.92-.65-.99-.86-.99-.65,0-1.13.46-1.13,1.32v2.13h-.27v-2.47c0-.9-.62-.99-.85-.99-.51,0-1.14.4-1.14,1.32v2.13h-.27v-3.6Z" />
    <path
      d="M91.12,112.09h.27v.74h.01c.11-.46.59-.82,1.13-.82.69,0,1.01.39,1.09.76h.01c.21-.49.56-.76,1.14-.76.65,0,1.13.38,1.13,1.23v2.46h-.27v-2.47c0-.92-.65-.99-.86-.99-.65,0-1.13.46-1.13,1.32v2.13h-.27v-2.47c0-.9-.62-.99-.85-.99-.51,0-1.14.4-1.14,1.32v2.13h-.27v-3.6Z" />
  </g>
  <g>
    <line x1="128.37" y1="106.18" x2="43.33" y2="106.18" style="fill: none; stroke: #000; stroke-width: .27px;" />
    <line x1="128.37" y1="105.61" x2="128.37" y2="106.74" style="fill: none; stroke: #000; stroke-width: .27px;" />
    <line x1="43.33" y1="105.61" x2="43.33" y2="106.74" style="fill: none; stroke: #000; stroke-width: .27px;" />
  </g>
  <g>
    <path
      d="M.27,50.12c-.03.9.52,1.45,1.41,1.45.71,0,1.39-.42,1.39-1.19,0-.92-.83-1.17-1.62-1.11v-.23c.71.03,1.51-.17,1.51-1.02,0-.68-.69-.99-1.27-.99-.85,0-1.25.58-1.29,1.38H.12c0-.95.6-1.61,1.56-1.61.78,0,1.54.36,1.54,1.22,0,.57-.38,1.03-.95,1.11h0c.66.09,1.06.6,1.06,1.25,0,.95-.76,1.42-1.65,1.42-1.06,0-1.72-.6-1.67-1.68h.27Z" />
    <path
      d="M3.84,49.3c0-1.16.36-2.5,1.75-2.5s1.75,1.34,1.75,2.5-.36,2.5-1.75,2.5-1.75-1.34-1.75-2.5ZM7.07,49.3c0-.97-.27-2.27-1.48-2.27s-1.48,1.3-1.48,2.27.27,2.27,1.48,2.27,1.48-1.3,1.48-2.27Z" />
    <path
      d="M9.88,48.11h.27v.74h.01c.11-.46.59-.82,1.13-.82.69,0,1.01.39,1.09.76h.01c.21-.49.56-.76,1.14-.76.65,0,1.13.38,1.13,1.23v2.46h-.27v-2.47c0-.92-.65-.99-.86-.99-.65,0-1.13.46-1.13,1.32v2.13h-.27v-2.47c0-.9-.62-.99-.85-.99-.51,0-1.14.4-1.14,1.32v2.13h-.27v-3.6Z" />
    <path
      d="M15.45,48.11h.27v.74h.01c.11-.46.59-.82,1.13-.82.69,0,1.01.39,1.09.76h.01c.21-.49.56-.76,1.14-.76.65,0,1.13.38,1.13,1.23v2.46h-.27v-2.47c0-.92-.65-.99-.86-.99-.65,0-1.13.46-1.13,1.32v2.13h-.27v-2.47c0-.9-.62-.99-.85-.99-.51,0-1.14.4-1.14,1.32v2.13h-.27v-3.6Z" />
  </g>
  <g>
    <line x1="24.85" y1="92.34" x2="24.85" y2="7.3" style="fill: none; stroke: #000; stroke-width: .27px;" />
    <line x1="25.42" y1="92.34" x2="24.29" y2="92.34" style="fill: none; stroke: #000; stroke-width: .27px;" />
    <line x1="25.42" y1="7.3" x2="24.29" y2="7.3" style="fill: none; stroke: #000; stroke-width: .27px;" />
  </g>
</svg>