<?xml version="1.0" encoding="UTF-8"?>
<svg id="Layer_1" data-name="Layer 1" data-size="30mm x 30mm" xmlns="http://www.w3.org/2000/svg"
  viewBox="0 0 209.99 156.42">
<text id="quantity" y="97%" x="50%"
style="font-family: Arial-BoldMT, Arial; font-size: 15px; font-weight: 700; isolation: isolate;"
text-anchor="middle">
</text>
  <text transform="translate(0 26.97)"
    style="fill: #00a3cc; font-family: TrebuchetMS, &apos;Trebuchet MS&apos;; font-size: 10px;">
    <tspan x="0" y="0">15 mm</tspan>
  </text>
  <text transform="translate(0 75.71)"
    style="fill: #00a3cc; font-family: TrebuchetMS, &apos;Trebuchet MS&apos;; font-size: 10px;">
    <tspan x="0" y="0">15 mm</tspan>
  </text>
  <text transform="translate(67.97 109)"
    style="fill: #00a3cc; font-family: TrebuchetMS, &apos;Trebuchet MS&apos;; font-size: 10px;">
    <tspan x="0" y="0">30 mm</tspan>
  </text>
  <line x1="37.28" y1="4.66" x2="37.28" y2="89.14" style="fill: none; stroke: #00a3cc; stroke-width: .56px;" />
  <rect x="35.46" y="4.38" width="3.64" height=".56" style="fill: #00a3cc;" />
  <rect x="35.46" y="88.86" width="3.64" height=".56" style="fill: #00a3cc;" />
  <line x1="128.49" y1="98.43" x2="44.01" y2="98.43" style="fill: none; stroke: #00a3cc; stroke-width: .56px;" />
  <rect x="128.21" y="96.6" width=".56" height="3.64" style="fill: #00a3cc;" />
  <rect x="43.73" y="96.6" width=".56" height="3.64" style="fill: #00a3cc;" />
  <rect x="43.73" y=".12" width="85.04" height="93.54"
    style="fill: #a5c5ed; stroke: #d52f89; stroke-miterlimit: 10; stroke-width: .25px;" />
  <line x1="33.25" y1="46.9" x2="40.69" y2="46.9" style="fill: none; stroke: #00a3cc; stroke-width: .56px;" />
  <line x1="128.77" y1="46.9" x2="43.73" y2="46.9"
    style="fill: none; stroke: #ee701e; stroke-dasharray: 2.17 2.17; stroke-width: .25px;" />
  <line x1="43.73" y1="4.38" x2="128.77" y2="4.38"
    style="fill: none; stroke: #97bf0d; stroke-dasharray: 1.76 1.76; stroke-width: .55px;" />
  <line x1="43.73" y1="89.42" x2="128.77" y2="89.42"
    style="fill: none; stroke: #97bf0d; stroke-dasharray: 1.76 1.76; stroke-width: .55px;" />
  <text transform="translate(137.3 28.23)" style="fill: #323e48; font-family: Helvetica, Helvetica; font-size: 12px;">
    <tspan x="0" y="0">Fronte / Front</tspan>
  </text>
  <text transform="translate(137.3 75.71)" style="fill: #323e48; font-family: Helvetica, Helvetica; font-size: 12px;">
    <tspan x="0" y="0">Retro / Back</tspan>
  </text>
  <g>
    <path
      d="M68.96,68.56c0-2.07,1.64-3.71,3.71-3.71s3.72,1.64,3.72,3.71-1.64,3.71-3.72,3.71-3.71-1.64-3.71-3.71ZM69.57,68.56c0,1.74,1.41,3.1,3.11,3.1s3.11-1.36,3.11-3.1-1.41-3.1-3.11-3.1-3.11,1.35-3.11,3.1ZM73.99,67.79c-.11-.52-.56-.8-1.18-.8-1.02,0-1.44.77-1.44,1.52,0,.88.52,1.55,1.46,1.55.62,0,1.03-.29,1.16-.84h.58c-.11.9-.88,1.44-1.74,1.44-1.25,0-2.07-.95-2.07-2.13s.77-2.14,2.06-2.14c.88,0,1.57.53,1.74,1.41h-.58Z"
      style="fill: #fff;" />
    <path
      d="M77.06,65h1.47c2.18,0,3.99,1.15,3.99,3.52s-1.77,3.59-4.02,3.59h-1.44v-7.11ZM77.94,71.3h.31c1.81,0,3.38-.68,3.38-2.74s-1.56-2.74-3.38-2.74h-.31v5.49Z"
      style="fill: #fff;" />
    <path
      d="M84.51,65.68c0,.32-.26.58-.58.58s-.58-.25-.58-.58.26-.59.58-.59.58.26.58.59ZM84.35,72.11h-.85v-4.41h.85v4.41Z"
      style="fill: #fff;" />
    <path
      d="M87.48,68.71c-.1-.22-.32-.39-.57-.39s-.46.19-.46.43c0,.39.51.56,1.03.79.52.23,1.02.56,1.02,1.25,0,.84-.7,1.46-1.52,1.46-.64,0-1.29-.37-1.53-.99l.73-.33c.18.33.4.57.8.57.36,0,.67-.25.67-.62,0-.24-.11-.35-.31-.48l-.83-.44c-.49-.26-.85-.51-.85-1.11,0-.72.58-1.28,1.3-1.28.54,0,.97.29,1.21.77l-.69.37Z"
      style="fill: #fff;" />
    <path
      d="M90.18,68.29h.02c.26-.47.79-.73,1.33-.73,1.24,0,1.57.84,1.57,1.91v2.63h-.85v-2.53c0-.75-.1-1.26-.97-1.26-1.09,0-1.09.96-1.09,1.76v2.03h-.85v-4.41h.85v.59Z"
      style="fill: #fff;" />
    <path
      d="M94.78,70.05c0,.75.52,1.46,1.33,1.46.65,0,1-.33,1.32-.86l.72.41c-.41.76-1.19,1.21-2.05,1.21-1.35,0-2.17-1.02-2.17-2.32s.73-2.38,2.15-2.38,2.07,1.04,2.07,2.35v.13h-3.37ZM97.29,69.41c-.1-.66-.54-1.1-1.22-1.1s-1.15.47-1.25,1.1h2.47Z"
      style="fill: #fff;" />
    <path d="M98.16,67.7h.99l1.49,2.8,1.39-2.8h.95l-3.57,6.94h-.96l1.74-3.28-2.02-3.66Z" style="fill: #fff;" />
  </g>
  <g>
    <path
      d="M85.33,17.17c.36.03.93.15,1.24.32.41.25.73.67.68,1.2-.06.65-.38,1.4-.66,1.73-.66.88-1.51,1.41-2.55,1.88-.82.38-2.03.46-2.98.24-.14.18-.45.67-.87.6-.47-.25-.48-.84-.43-1.36-.45-.49-.81-1.16-.6-1.9.14-.83.6-1.43,1.18-1.96.82-.69,1.76-1.03,2.79-1.26.79-.16,1.72-.13,2.19.51M80.15,19.96c-.02.21.12.46.29.53.43-.91,1.48-2.05,2.4-2.59-1.11-.1-2.58.86-2.69,2.07M85.67,18.4c-1.64-.27-2.76,1.04-3.54,1.95-.19.22-.35.5-.44.83.19.21.74.15,1.12.09,1.3-.22,2.81-.73,3.29-1.96.05-.25.06-.56-.14-.73l-.31-.18Z"
      style="fill: #fff;" />
    <path
      d="M98.08,23.66c.69,1.11,1.22,2.24,1.42,3.59.05,1.18.2,2.3-.36,3.33-.26.48-.8,1.21-1.57.91-.75-.41-1.18-1.29-1.62-2.01-.44-.72-.91-1.6-1.33-2.39-.05-.08-.17-.2-.23-.12-.03.09-.05.23-.06.37-.07,1.25-.14,2.38-.19,3.59-.03.36-.12.69-.31.92-.15.11-.49.09-.7,0-.68-.34-.64-1.2-.63-1.93.06-.56.09-1.19.18-1.76.17-1.11.38-2.3.81-3.31.11-.23.23-.37.47-.46.45-.09.82.52.98.73.96,1.22,1.76,2.54,2.67,3.84.12.17.17.34.31.27.15-.1.03-.87-.06-1.35-.12-.73-.27-1.41-.47-2.1-.24-.82-.52-1.59-.6-2.46-.03-.2-.06-.41-.02-.61.06-.18.29-.15.43-.09.42.21.67.71.88,1.04"
      style="fill: #fff;" />
    <path
      d="M106.93,24.82c.11.16.31.43.21.57-.5.56-1.35.3-2.02.37l-1.7.05c-.18.05-.2.24-.26.37-.1.28-.21.59-.17.88l.11.07c.82.04,1.68-.13,2.44.11.13.06.17.56.15.86-.08.3-.92.29-1.38.31-.59.03-1.15,0-1.72.02-.12.2-.27.5-.39.74-.09.26-.4.66-.15,1.01.16.23,2.23-.61,3.51-.52.17.01.5.6.47,1,0,0-.06.17-.18.27-.31.23-2.16,1.4-3.46,1.55-.74.08-1.27-.01-1.86-.76-.45-.56-.59-1.46-.34-2.17.19-.54.48-1.02.67-1.59-.04-.08-.06-.19-.09-.29.02-.13-.05-.3.09-.38.2-.1.46-.18.46-.18.24-.23.31-.65.44-.97.04-.11.13-.29.15-.41-.32-.13-.78-.13-1.14-.31-.29-.13-.62-.46-.47-.81.44-.36,2.03-.4,3.16-.56.75-.11,1.51-.23,2.3-.2.21.03.37.06.56.25l.61.72Z"
      style="fill: #fff;" />
    <path
      d="M91.53,24.08c.25.07.41.17.67.3.08.26-.12.53-.27.73-.35.22-.82.25-1.22.28-1.48.11-2.99.23-4.45.46-.39.09-.79.2-1.15.39-.03.06.06.13.11.16,1.67.42,3.54.3,5.23.69.93.27,1.43,1.18,1.56,2.05.01.61-.15,1.27-.51,1.69-1.33,1.27-3.45,1.31-5.17.81-.85-.26-1.9-.86-2.11-1.89-.05-.27-.01-.51.15-.7.22-.26.51-.49.84-.67,1.27-.56,2.75-.06,3.99.23.3.07.69.13.65.38-.09.32-.47.41-.74.54-1.18.55-2.49-.54-3.25-.54-.34.02-.7.08-.87.43-.07.14-.03.28.06.4.43.44,1.13.47,1.62.51,1,.06,1.92-.23,2.8-.5.5-.15,1.13-.38,1.31-.93.11-.41-.7-.76-1.35-.93-1.56-.3-3.22.14-4.74-.39-.36-.13-.93-.37-.95-.87.07-.71.26-1.46.89-1.83,1.25-.73,2.7-1,4.16-1.06.93-.04,1.81.01,2.74.27"
      style="fill: #fff;" />
    <path
      d="M82.4,25.58c0,.26.09.49.05.72.05,1.78.25,3.65.13,5.4-.03.24-.26.35-.45.43-.38.07-.74-.03-1.07-.15-.37-.51-.35-1.13-.39-1.79-.08-1.99.15-3.88.52-5.77.06-.19.06-.46.31-.5.65.28.93.91.9,1.64"
      style="fill: #fff;" />
    <path
      d="M110.28,23.73c.04.29,0,.53-.11.72-.15.36-.31.63-.45.92-.4.8-.81,1.6-1.13,2.41-.15.45-.37,1.07-.11,1.62.03-.06.3-.43.33-.51.87-1.35,1.59-2.18,2.76-3.34.59-.59,1.49-1.59,2.49-1.03.44.38.66.8.88,1.32.44,1.02.23,2.35-.31,3.28-.57,1-1.3,1.61-2.18,2.3-.77.53-1.66.81-2.66.77-.14.22-.4.7-.55,1.07-.29.71-.97,3.06-1.13,3.86l-.26,1.66c-.01.09-.12.2-.25.23-.57.06-.95-.41-1.15-.68-.35-.64-.54-1.49-.41-2.28.35-1.77.95-3.5,1.67-5.14-.24-.42-.44-1.05-.49-1.59-.1-1.56.65-3.2,1.5-4.36.39-.48.78-1.08,1.37-1.39.08-.03.18.07.2.16M113.79,25.93c-.04-.07-.18-.12-.24-.02-.82,1.02-1.58,1.97-2.41,3.13-.28.38-.51.68-.84,1.19,0,0-.08.12.66.03.73-.09,2.09-1.01,2.67-1.91.27-.42.43-1.14.41-1.48-.02-.34-.1-.66-.25-.93"
      style="fill: #fff;" />
    <path
      d="M69.82,16.65c2.97,1.16,5.75,2.91,7.9,5.24.88.94,1.57,2.07,2.1,3.3.22.74.43,1.46.31,2.36-.29,1.79-1.38,3.18-2.94,4.16-1.23.81-2.56,1.22-4.12,1.43-1.76.23-5.1-.02-5.53-.19-.01.46-.2.93-.48,1.11-.28.12-1.11.25-1.45-.28-.28-.51-.39-1.12-.46-1.68-2.12-.97-4.01-2.56-5.38-4.37-.21-.38-.23-.97.09-1.32,1.33-1.4,3.28-1.78,5.15-2.09.25-.04.4-.03.4-.03.02-.33.02-.76.09-1.03.01-.93.21-1.85.35-2.75.03-.24.05-.49.26-.58.31-.11.58.33.73.65.19.48.34,1.57.34,1.57.08.67.14,1.31.19,1.88l.11.02c.93-.04,1.83,0,2.78.14,1.31.22,2.46.35,3.49,1.12.55.48,1.07,1.13.87,1.93-.25.64-.68,1.14-1.26,1.34-.54.14-1.12-.07-1.48-.28v-.11c.55-.25,1.04-.61,1.13-1.22,0-.26-.79-.36-1.12-.43-1.07-.25-2.16-.46-3.3-.57-.52-.05-.79-.03-1.17-.04.04.72.1,1.66.06,2.26,0,1.21.01,2.06-.02,3.08l.13.05c1.7.36,2.51.26,3.85.26,1.76-.17,3.43-.69,4.82-1.66.95-.66,1.55-1.56,1.61-2.71.13-.96-.47-1.89-.77-2.77-.97-1.44-2.22-2.73-3.67-3.79-2.99-2.13-6.41-3.27-10.03-3.92-1.58-.19-3.1-.38-4.8-.24-.36.03-.81.07-1.16.36.07.19.35.27.53.38.13.09.22.13.22.25-.17.21-.48.26-.74.27-.41.05-1.5.06-1.38-.55.14-.57.49-1.19.86-1.46,3.01-1.28,6.83-.86,9.96-.06.98.3,1.97.59,2.91.98M65.34,26.06c-.47-.09-.99.05-1.46.02-1.25.27-2.48.22-3.51,1.02-.16.17-.08.4,0,.53,1.08,1.26,2.5,2.23,4.03,2.78.3.1.61.2.79.21,0-1.32.08-2.58.16-4.01.02-.22,0-.55,0-.55"
      style="fill: #fff;" />
  </g>
</svg>