<?xml version="1.0" encoding="UTF-8"?>
<svg id="Layer_1" data-name="Layer 1" data-size="24mm x 50mm" xmlns="http://www.w3.org/2000/svg"
  viewBox="0 0 144.22 211.73">
  <text id="quantity" y="95%" x="50%"
    style="font-family: Arial-BoldMT, Arial; font-size: 15px; font-weight: 700; isolation: isolate;"
    text-anchor="middle">
  </text>
  <g>
    <rect x="32.15" y="78.3" width="68.03" height="70.87"
      style="fill: #fff; stroke: #231f20; stroke-miterlimit: 10; stroke-width: .5px;" />
    <text transform="translate(109.23 74.53)" style="fill: #e92891; font-family: ArialMT, Arial; font-size: 8px;">
      <tspan x="0" y="0">piegatura</tspan>
    </text>
    <text transform="translate(109.23 84.22)"
      style="fill: #e92891; font-family: Arial-ItalicMT, Arial; font-size: 8px; font-style: italic;">
      <tspan x="0" y="0">fold</tspan>
    </text>
    <text transform="translate(116.21 6.87)" style="fill: #00a94f; font-family: ArialMT, Arial; font-size: 8px;">
      <tspan x="0" y="0">cucitura</tspan>
    </text>
    <text transform="translate(116.21 16.56)"
      style="fill: #00a94f; font-family: Arial-ItalicMT, Arial; font-size: 8px; font-style: italic;">
      <tspan x="0" y="0">seam</tspan>
    </text>
    <text transform="translate(112.21 143.53)" style="fill: #00a94f; font-family: ArialMT, Arial; font-size: 8px;">
      <tspan x="0" y="0">cucitura</tspan>
    </text>
    <text transform="translate(112.21 153.22)"
      style="fill: #00a94f; font-family: Arial-ItalicMT, Arial; font-size: 8px; font-style: italic;">
      <tspan x="0" y="0">seam</tspan>
    </text>
    <line x1="31.64" y1="165.15" x2="100.23" y2="165.15"
      style="fill: none; stroke: #00aeef; stroke-dasharray: 2.86 2.86; stroke-width: .65px;" />
    <line x1="31.4" y1="157.97" x2="31.4" y2="173.88" style="fill: none; stroke: #00aeef; stroke-width: .5px;" />
    <line x1="99.98" y1="157.58" x2="99.98" y2="173.11" style="fill: none; stroke: #00aeef; stroke-width: .5px;" />
    <text transform="translate(49.48 176.75)"
      style="fill: #00aeef; font-family: MyriadPro-Regular, &apos;Myriad Pro&apos;; font-size: 10px;">
      <tspan x="0" y="0">24 mm</tspan>
    </text>
    <g>
      <line x1="13.78" y1="7.65" x2="13.78" y2="77.81"
        style="fill: none; stroke: #00aeef; stroke-dasharray: 2.19 2.19; stroke-width: .5px;" />
      <line x1="22.2" y1="7.61" x2="5.12" y2="7.61" style="fill: none; stroke: #00aeef; stroke-width: .46px;" />
      <line x1="22.2" y1="77.19" x2="5.12" y2="77.19" style="fill: none; stroke: #00aeef; stroke-width: .46px;" />
      <text transform="translate(8.37 58.61) rotate(-90)"
        style="fill: #00aeef; font-family: MyriadPro-Regular, &apos;Myriad Pro&apos;; font-size: 10px;">
        <tspan x="0" y="0">25 mm</tspan>
      </text>
    </g>
    <rect x="32.11" y="7.61" width="68.03" height="70.87"
      style="fill: #fff; stroke: #231f20; stroke-miterlimit: 10; stroke-width: .5px;" />
    <g>
      <line x1="13.78" y1="78.35" x2="13.78" y2="148.51"
        style="fill: none; stroke: #00aeef; stroke-dasharray: 2.19 2.19; stroke-width: .5px;" />
      <line x1="22.2" y1="78.3" x2="5.12" y2="78.3" style="fill: none; stroke: #00aeef; stroke-width: .46px;" />
      <line x1="22.2" y1="147.89" x2="5.12" y2="147.89" style="fill: none; stroke: #00aeef; stroke-width: .46px;" />
      <text transform="translate(8.37 129.31) rotate(-90)"
        style="fill: #00aeef; font-family: MyriadPro-Regular, &apos;Myriad Pro&apos;; font-size: 10px;">
        <tspan x="0" y="0">25 mm</tspan>
      </text>
    </g>
    <line x1="15.52" y1="78.18" x2="111.56" y2="78.18"
      style="fill: none; stroke: #e60881; stroke-dasharray: 2.86 2.86; stroke-width: .65px;" />
    <line x1="26.63" y1="9.98" x2="108.85" y2="9.98" style="fill: none; stroke: #00a94f; stroke-dasharray: 4 2;" />
    <line x1="23.36" y1="146.38" x2="105.59" y2="146.38" style="fill: none; stroke: #00a94f; stroke-dasharray: 4 2;" />
    <g>
      <g>
        <path
          d="M46.1,100.35c0-1.41,1.11-2.53,2.51-2.53s2.51,1.12,2.51,2.53-1.11,2.53-2.51,2.53-2.51-1.12-2.51-2.53ZM46.51,100.35c0,1.19.95,2.12,2.1,2.12s2.1-.93,2.1-2.12-.95-2.12-2.1-2.12-2.1.92-2.1,2.12ZM49.5,99.83c-.08-.35-.38-.55-.8-.55-.69,0-.97.53-.97,1.04,0,.6.35,1.06.99,1.06.42,0,.69-.2.78-.57h.39c-.08.61-.59.98-1.17.98-.85,0-1.39-.65-1.39-1.45s.52-1.46,1.39-1.46c.59,0,1.06.36,1.18.96h-.39Z"
          style="fill: #84dade;" />
        <path
          d="M51.57,97.93h.99c1.47,0,2.69.78,2.69,2.4s-1.2,2.45-2.71,2.45h-.97v-4.85ZM52.16,102.23h.21c1.22,0,2.28-.46,2.28-1.87s-1.06-1.87-2.28-1.87h-.21v3.75Z"
          style="fill: #84dade;" />
        <path
          d="M56.6,98.39c0,.22-.18.39-.39.39s-.39-.17-.39-.39.18-.41.39-.41.39.18.39.41ZM56.49,102.78h-.57v-3.01h.57v3.01Z"
          style="fill: #84dade;" />
        <path
          d="M58.6,100.46c-.07-.15-.22-.26-.38-.26s-.31.13-.31.3c0,.26.34.38.69.54.35.16.69.38.69.86,0,.57-.47,1-1.02,1-.43,0-.87-.25-1.03-.68l.49-.22c.12.22.27.39.54.39.24,0,.45-.17.45-.42,0-.16-.08-.24-.21-.33l-.56-.3c-.33-.18-.57-.35-.57-.76,0-.49.39-.88.88-.88.36,0,.66.2.81.53l-.46.25Z"
          style="fill: #84dade;" />
        <path
          d="M60.42,100.17h.01c.18-.32.53-.5.9-.5.84,0,1.06.57,1.06,1.31v1.8h-.57v-1.73c0-.51-.07-.86-.66-.86-.74,0-.74.66-.74,1.2v1.38h-.57v-3.01h.57v.41Z"
          style="fill: #84dade;" />
        <path
          d="M63.52,101.37c0,.51.35,1,.9,1,.44,0,.67-.23.89-.59l.48.28c-.28.52-.8.82-1.38.82-.91,0-1.46-.69-1.46-1.58s.49-1.62,1.45-1.62,1.39.71,1.39,1.6v.09h-2.27ZM65.22,100.93c-.07-.45-.36-.75-.82-.75s-.78.32-.85.75h1.67Z"
          style="fill: #84dade;" />
        <path d="M65.81,99.77h.67l1.01,1.91.94-1.91h.64l-2.41,4.74h-.65l1.17-2.24-1.36-2.5Z" style="fill: #84dade;" />
        <path d="M72.28,97.4l-2.65,6.19-.45-.21,2.65-6.19.46.21Z" style="fill: #84dade;" />
        <path
          d="M73.54,102.78h-.6v-4.85h.69c1.48,0,1.93.51,1.93,1.4,0,1.02-.77,1.42-1.68,1.42h-.34v2.03ZM73.54,100.2h.19c.61,0,1.27-.12,1.27-.89s-.71-.85-1.3-.85h-.16v1.74Z"
          style="fill: #84dade;" />
        <path
          d="M76.84,98.39c0,.22-.18.39-.39.39s-.39-.17-.39-.39.18-.41.39-.41.39.18.39.41ZM76.73,102.78h-.57v-3.01h.57v3.01Z"
          style="fill: #84dade;" />
        <path
          d="M77.42,99.77h.67l.71.97.77-.97h.69l-1.09,1.38,1.28,1.63h-.67l-.98-1.22-.95,1.22h-.69l1.33-1.63-1.07-1.38Z"
          style="fill: #84dade;" />
        <path
          d="M83.55,102.78h-.57v-.47h-.01c-.23.34-.59.57-1.01.57-.91,0-1.43-.77-1.43-1.63s.54-1.58,1.41-1.58c.44,0,.8.23,1.03.59h.01v-.5h.57v3.01ZM83.01,101.27c0-.59-.35-1.08-.97-1.08s-.94.52-.94,1.08.34,1.09.94,1.09.97-.5.97-1.09Z"
          style="fill: #84dade;" />
        <path
          d="M84.91,100.26h.02c.14-.35.43-.58.81-.58.17,0,.33.06.47.15l-.26.53c-.1-.09-.22-.12-.35-.12-.62,0-.69.58-.69,1.07v1.48h-.57v-3.01h.57v.49Z"
          style="fill: #84dade;" />
      </g>
      <g>
        <path
          d="M54.49,90.41c0-1.42,1.13-2.54,2.55-2.54s2.55,1.13,2.55,2.54-1.13,2.54-2.55,2.54-2.55-1.13-2.55-2.54ZM54.9,90.41c0,1.2.97,2.13,2.13,2.13s2.14-.93,2.14-2.13-.97-2.13-2.14-2.13-2.13.92-2.13,2.13ZM57.94,89.89c-.08-.36-.38-.55-.81-.55-.7,0-.99.53-.99,1.04,0,.6.36,1.06,1,1.06.43,0,.71-.2.8-.58h.39c-.08.61-.6.99-1.19.99-.86,0-1.42-.65-1.42-1.46s.53-1.47,1.41-1.47c.6,0,1.08.36,1.2.96h-.39Z"
          style="fill: #84dade;" />
        <path
          d="M60.04,87.97h1.01c1.49,0,2.74.79,2.74,2.41s-1.22,2.47-2.76,2.47h-.99v-4.88ZM60.65,92.3h.21c1.24,0,2.32-.47,2.32-1.88s-1.07-1.88-2.32-1.88h-.21v3.77Z"
          style="fill: #84dade;" />
        <path d="M65.16,88.44c0,.22-.18.4-.4.4s-.4-.17-.4-.4.18-.41.4-.41.4.18.4.41ZM65.05,92.85h-.58v-3.03h.58v3.03Z"
          style="fill: #84dade;" />
        <path
          d="M67.19,90.52c-.07-.15-.22-.27-.39-.27s-.32.13-.32.3c0,.27.35.38.7.54.36.16.7.38.7.86,0,.58-.48,1-1.04,1-.44,0-.89-.25-1.05-.68l.5-.23c.12.23.27.39.55.39.25,0,.46-.17.46-.43,0-.16-.08-.24-.21-.33l-.57-.3c-.34-.18-.58-.35-.58-.76,0-.49.4-.88.89-.88.37,0,.67.2.83.53l-.47.25Z"
          style="fill: #84dade;" />
        <path
          d="M69.05,90.23h.01c.18-.32.54-.5.91-.5.85,0,1.07.58,1.07,1.31v1.8h-.58v-1.73c0-.52-.07-.87-.67-.87-.75,0-.75.66-.75,1.21v1.39h-.58v-3.03h.58v.41Z"
          style="fill: #84dade;" />
        <path
          d="M72.2,91.43c0,.52.36,1,.91,1,.45,0,.69-.23.91-.59l.49.28c-.28.52-.81.83-1.4.83-.92,0-1.49-.7-1.49-1.59s.5-1.63,1.47-1.63,1.42.71,1.42,1.61v.09h-2.31ZM73.93,90.99c-.07-.45-.37-.76-.83-.76s-.79.32-.86.76h1.7Z"
          style="fill: #84dade;" />
        <path d="M74.52,89.82h.68l1.02,1.92.95-1.92h.65l-2.45,4.76h-.66l1.19-2.25-1.38-2.51Z" style="fill: #84dade;" />
      </g>
      <g>
        <path
          d="M36.63,109.75c0-1.38,1.09-2.47,2.48-2.47s2.48,1.09,2.48,2.47-1.09,2.47-2.48,2.47-2.48-1.09-2.48-2.47ZM37.03,109.75c0,1.16.94,2.07,2.07,2.07s2.07-.9,2.07-2.07-.94-2.07-2.07-2.07-2.07.9-2.07,2.07ZM39.98,109.24c-.08-.35-.37-.53-.79-.53-.68,0-.96.51-.96,1.01,0,.58.35,1.03.97,1.03.41,0,.69-.19.77-.56h.38c-.08.6-.58.96-1.16.96-.84,0-1.38-.63-1.38-1.42s.52-1.43,1.37-1.43c.58,0,1.05.35,1.16.94h-.38Z"
          style="fill: #84dade;" />
        <path
          d="M42.02,107.38h.98c1.45,0,2.66.77,2.66,2.34s-1.18,2.39-2.68,2.39h-.96v-4.74ZM42.61,111.57h.21c1.21,0,2.25-.45,2.25-1.83s-1.04-1.83-2.25-1.83h-.21v3.66Z"
          style="fill: #84dade;" />
        <path
          d="M46.99,107.83c0,.21-.18.38-.39.38s-.39-.17-.39-.38.18-.4.39-.4.39.18.39.4ZM46.88,112.11h-.57v-2.94h.57v2.94Z"
          style="fill: #84dade;" />
        <path
          d="M48.97,109.85c-.07-.14-.21-.26-.38-.26s-.31.13-.31.29c0,.26.34.37.68.53.35.16.68.37.68.84,0,.56-.47.97-1.01.97-.43,0-.86-.24-1.02-.66l.48-.22c.12.22.26.38.53.38.24,0,.45-.16.45-.41,0-.16-.08-.23-.21-.32l-.55-.3c-.33-.18-.57-.34-.57-.74,0-.48.39-.85.87-.85.36,0,.65.2.8.52l-.46.24Z"
          style="fill: #84dade;" />
        <path
          d="M50.77,109.57h.01c.18-.31.53-.48.89-.48.83,0,1.04.56,1.04,1.28v1.75h-.57v-1.68c0-.5-.07-.84-.65-.84-.73,0-.73.64-.73,1.18v1.35h-.57v-2.94h.57v.4Z"
          style="fill: #84dade;" />
        <path
          d="M53.83,110.74c0,.5.35.97.89.97.43,0,.67-.22.88-.57l.48.27c-.28.51-.79.8-1.36.8-.9,0-1.45-.68-1.45-1.55s.48-1.58,1.43-1.58,1.38.69,1.38,1.56v.09h-2.24ZM55.51,110.31c-.07-.44-.36-.74-.81-.74s-.77.31-.84.74h1.65Z"
          style="fill: #84dade;" />
        <path d="M56.09,109.17h.66l.99,1.87.92-1.87h.63l-2.38,4.63h-.64l1.16-2.19-1.35-2.44Z" style="fill: #84dade;" />
        <path
          d="M62.18,107.24h.58c.89,0,1.73.23,1.73,1.3,0,.35-.19.75-.51.9h0c.56.11.95.66.95,1.21,0,.95-.81,1.33-1.65,1.33h-1.11v-4.74ZM62.77,109.34h.15c.56,0,1.02-.11,1.02-.79s-.45-.78-1.01-.78h-.16v1.57ZM62.77,111.45h.45c.55,0,1.12-.16,1.12-.84s-.68-.8-1.21-.8h-.36v1.64Z"
          style="fill: #84dade;" />
        <path
          d="M68.29,111.98h-.57v-.46h-.01c-.23.33-.58.56-1,.56-.9,0-1.41-.75-1.41-1.59s.53-1.54,1.39-1.54c.43,0,.79.23,1.02.58h.01v-.49h.57v2.94ZM67.75,110.51c0-.57-.35-1.06-.96-1.06s-.93.51-.93,1.06.33,1.07.93,1.07.96-.49.96-1.07Z"
          style="fill: #84dade;" />
        <path
          d="M70.21,109.71c-.07-.14-.21-.26-.38-.26s-.31.13-.31.29c0,.26.34.37.68.53.35.16.68.37.68.84,0,.56-.47.97-1.01.97-.43,0-.86-.24-1.02-.66l.48-.22c.12.22.26.38.53.38.24,0,.45-.16.45-.41,0-.16-.08-.23-.21-.32l-.55-.3c-.33-.18-.57-.34-.57-.74,0-.48.39-.85.87-.85.36,0,.65.2.8.52l-.46.24Z"
          style="fill: #84dade;" />
        <path
          d="M71.78,110.6c0,.5.35.97.89.97.43,0,.67-.22.88-.57l.48.27c-.28.51-.79.8-1.36.8-.9,0-1.45-.68-1.45-1.55s.48-1.58,1.43-1.58,1.38.69,1.38,1.56v.09h-2.24ZM73.46,110.18c-.07-.44-.36-.74-.81-.74s-.77.31-.84.74h1.65Z"
          style="fill: #84dade;" />
        <path
          d="M76.7,111.52h-.01c-.23.33-.58.56-1,.56-.9,0-1.41-.75-1.41-1.59s.53-1.54,1.38-1.54c.44,0,.79.23,1.02.58h.01v-3h.57v5.45h-.57v-.46ZM76.73,110.51c0-.57-.35-1.06-.96-1.06s-.93.51-.93,1.06.33,1.07.93,1.07.96-.49.96-1.07Z"
          style="fill: #84dade;" />
        <path
          d="M82.7,110.51c0,.89-.69,1.56-1.57,1.56s-1.57-.68-1.57-1.56.69-1.56,1.57-1.56,1.57.68,1.57,1.56ZM80.12,110.51c0,.55.45,1.02,1.01,1.02s1.01-.47,1.01-1.02-.45-1.02-1.01-1.02-1.01.47-1.01,1.02Z"
          style="fill: #84dade;" />
        <path
          d="M83.78,109.43h.01c.18-.31.53-.48.89-.48.83,0,1.04.56,1.04,1.28v1.75h-.57v-1.68c0-.5-.07-.84-.65-.84-.73,0-.73.64-.73,1.18v1.35h-.57v-2.94h.57v.4Z"
          style="fill: #84dade;" />
        <path d="M88.97,111.98h-.57v-2.41h-.31v-.53h.31v-1.12h.57v1.12h.55v.53h-.55v2.41Z" style="fill: #84dade;" />
        <path
          d="M90.4,106.52v2.91h.01c.18-.31.53-.48.89-.48.83,0,1.04.56,1.04,1.28v1.75h-.57v-1.68c0-.5-.07-.84-.65-.84-.73,0-.73.64-.73,1.18v1.35h-.57v-5.45h.57Z"
          style="fill: #84dade;" />
        <path
          d="M93.46,110.6c0,.5.35.97.89.97.43,0,.67-.22.88-.57l.48.27c-.28.51-.79.8-1.36.8-.9,0-1.45-.68-1.45-1.55s.48-1.58,1.43-1.58,1.38.69,1.38,1.56v.09h-2.24ZM95.14,110.18c-.07-.44-.36-.74-.81-.74s-.77.31-.84.74h1.65Z"
          style="fill: #84dade;" />
        <path d="M43.22,117.37l.84-1.68.35.14-.69,1.73-.5-.2ZM44.27,117.37l.84-1.68.35.14-.69,1.73-.5-.2Z"
          style="fill: #84dade;" />
        <path d="M47.5,119.18l1.34-3.49,1.34,3.49,1.33-3.39h.64l-1.97,4.93-1.34-3.48-1.34,3.48-1.97-4.93h.64l1.33,3.39Z"
          style="fill: #84dade;" />
        <path
          d="M53.25,116.24c0,.21-.18.38-.39.38s-.39-.17-.39-.38.18-.4.39-.4.39.18.39.4ZM53.15,120.53h-.57v-2.94h.57v2.94Z"
          style="fill: #84dade;" />
        <path
          d="M54.62,117.98h.01c.18-.31.53-.48.89-.48.83,0,1.04.56,1.04,1.28v1.75h-.57v-1.68c0-.5-.07-.84-.65-.84-.73,0-.73.64-.73,1.18v1.35h-.57v-2.94h.57v.4Z"
          style="fill: #84dade;" />
        <path
          d="M57.91,117.98h.01c.18-.31.53-.48.89-.48.83,0,1.04.56,1.04,1.28v1.75h-.57v-1.68c0-.5-.07-.84-.65-.84-.73,0-.73.64-.73,1.18v1.35h-.57v-2.94h.57v.4Z"
          style="fill: #84dade;" />
        <path
          d="M61.43,116.24c0,.21-.18.38-.39.38s-.39-.17-.39-.38.18-.4.39-.4.39.18.39.4ZM61.32,120.53h-.57v-2.94h.57v2.94Z"
          style="fill: #84dade;" />
        <path
          d="M62.57,119.15c0,.5.35.97.89.97.43,0,.67-.22.88-.57l.48.27c-.28.51-.79.8-1.36.8-.9,0-1.45-.68-1.45-1.55s.48-1.58,1.43-1.58,1.38.69,1.38,1.56v.09h-2.24ZM64.24,118.73c-.07-.44-.36-.74-.81-.74s-.77.31-.84.74h1.65Z"
          style="fill: #84dade;" />
        <path d="M67.76,120.53h-.57v-2.41h-.31v-.53h.31v-1.12h.57v1.12h.55v.53h-.55v2.41Z" style="fill: #84dade;" />
        <path
          d="M69.19,115.07v2.91h.01c.18-.31.53-.48.89-.48.83,0,1.04.56,1.04,1.28v1.75h-.57v-1.68c0-.5-.07-.84-.65-.84-.73,0-.73.64-.73,1.18v1.35h-.57v-5.45h.57Z"
          style="fill: #84dade;" />
        <path
          d="M72.25,119.15c0,.5.35.97.89.97.43,0,.67-.22.88-.57l.48.27c-.28.51-.79.8-1.36.8-.9,0-1.45-.68-1.45-1.55s.48-1.58,1.43-1.58,1.38.69,1.38,1.56v.09h-2.24ZM73.93,118.73c-.07-.44-.36-.74-.81-.74s-.77.31-.84.74h1.65Z"
          style="fill: #84dade;" />
        <path
          d="M77.45,120.53h-.59v-4.74h.68c1.46,0,1.91.5,1.91,1.37,0,1-.76,1.38-1.66,1.38h-.34v1.99ZM77.45,118.02h.19c.6,0,1.26-.11,1.26-.87s-.7-.83-1.29-.83h-.16v1.7Z"
          style="fill: #84dade;" />
        <path
          d="M82.78,119.06c0,.89-.69,1.56-1.57,1.56s-1.57-.68-1.57-1.56.69-1.56,1.57-1.56,1.57.68,1.57,1.56ZM80.21,119.06c0,.55.45,1.02,1.01,1.02s1.01-.47,1.01-1.02-.45-1.02-1.01-1.02-1.01.47-1.01,1.02Z"
          style="fill: #84dade;" />
        <path
          d="M86.18,119.06c0,.89-.69,1.56-1.57,1.56s-1.57-.68-1.57-1.56.69-1.56,1.57-1.56,1.57.68,1.57,1.56ZM83.6,119.06c0,.55.45,1.02,1.01,1.02s1.01-.47,1.01-1.02-.45-1.02-1.01-1.02-1.01.47-1.01,1.02Z"
          style="fill: #84dade;" />
        <path
          d="M87.26,115.07v2.91h.01c.18-.31.53-.48.89-.48.83,0,1.04.56,1.04,1.28v1.75h-.57v-1.68c0-.5-.07-.84-.65-.84-.73,0-.73.64-.73,1.18v1.35h-.57v-5.45h.57Z"
          style="fill: #84dade;" />
        <path d="M90.93,115.88l-.84,1.68-.35-.15.69-1.73.5.19ZM91.98,115.88l-.84,1.68-.35-.15.69-1.73.5.19Z"
          style="fill: #84dade;" />
        <path d="M40.69,127.8l.87-2.04.86,2.04.85-1.87h.64l-1.5,3.04-.86-1.97-.87,1.97-1.5-3.04h.64l.85,1.87Z"
          style="fill: #84dade;" />
        <path
          d="M47.08,127.4c0,.89-.69,1.56-1.57,1.56s-1.57-.68-1.57-1.56.69-1.56,1.57-1.56,1.57.68,1.57,1.56ZM44.5,127.4c0,.55.45,1.02,1.01,1.02s1.01-.47,1.01-1.02-.45-1.02-1.01-1.02-1.01.47-1.01,1.02Z"
          style="fill: #84dade;" />
        <path
          d="M48.2,126.4h.02c.14-.35.43-.57.8-.57.16,0,.33.06.47.14l-.26.52c-.1-.09-.21-.12-.35-.12-.61,0-.69.57-.69,1.04v1.45h-.57v-2.94h.57v.48Z"
          style="fill: #84dade;" />
        <path d="M50.41,127.03l1.11-1.11h.75l-1.26,1.22,1.38,1.72h-.74l-1.05-1.34-.19.19v1.14h-.57v-5.45h.57v3.62Z"
          style="fill: #84dade;" />
        <path
          d="M53.89,126.6c-.07-.14-.21-.26-.38-.26s-.31.13-.31.29c0,.26.34.37.68.53.35.16.68.37.68.84,0,.56-.47.97-1.01.97-.43,0-.86-.24-1.02-.66l.48-.22c.12.22.26.38.53.38.24,0,.45-.16.45-.41,0-.16-.08-.23-.21-.32l-.55-.3c-.33-.18-.57-.34-.57-.74,0-.48.39-.85.87-.85.36,0,.65.2.8.52l-.46.24Z"
          style="fill: #84dade;" />
        <path
          d="M56.89,123.41h.57v3h.01c.23-.35.58-.58,1.02-.58.85,0,1.38.74,1.38,1.54s-.5,1.59-1.41,1.59c-.41,0-.77-.23-1-.56h-.01v.46h-.57v-5.45ZM59.31,127.39c0-.57-.35-1.06-.96-1.06s-.93.51-.93,1.06.33,1.07.93,1.07.96-.49.96-1.07Z"
          style="fill: #84dade;" />
        <path d="M59.96,125.92h.66l.99,1.87.92-1.87h.63l-2.38,4.63h-.64l1.16-2.19-1.35-2.44Z" style="fill: #84dade;" />
        <path
          d="M66.52,127.98l-.54,1.19h-.63l2.26-4.94,2.26,4.94h-.63l-.54-1.19h-2.17ZM67.61,125.52l-.84,1.92h1.68l-.84-1.92Z"
          style="fill: #84dade;" />
        <path d="M71.09,128.9c0,.2-.16.36-.36.36s-.36-.16-.36-.36.16-.36.36-.36.36.17.36.36Z" style="fill: #84dade;" />
        <path
          d="M72.76,127.98l-.54,1.19h-.63l2.26-4.94,2.26,4.94h-.63l-.54-1.19h-2.17ZM73.84,125.52l-.84,1.92h1.68l-.84-1.92Z"
          style="fill: #84dade;" />
        <path d="M77.33,128.9c0,.2-.16.36-.36.36s-.36-.16-.36-.36.16-.36.36-.36.36.17.36.36Z" style="fill: #84dade;" />
        <path
          d="M80.94,126.04h-.01l-.55,3.13h-.61l.97-4.94,1.63,3.73,1.63-3.73.97,4.94h-.61l-.55-3.13h-.01l-1.42,3.23-1.42-3.23Z"
          style="fill: #84dade;" />
        <path
          d="M86.22,124.88c0,.21-.18.38-.39.38s-.39-.17-.39-.38.18-.4.39-.4.39.18.39.4ZM86.12,129.17h-.57v-2.94h.57v2.94Z"
          style="fill: #84dade;" />
        <path d="M87.61,129.17h-.57v-5.45h.57v5.45Z" style="fill: #84dade;" />
        <path
          d="M88.99,126.62h.01c.18-.31.53-.48.89-.48.83,0,1.04.56,1.04,1.28v1.75h-.57v-1.68c0-.5-.07-.84-.65-.84-.73,0-.73.64-.73,1.18v1.35h-.57v-2.94h.57v.4Z"
          style="fill: #84dade;" />
        <path
          d="M92.05,127.79c0,.5.35.97.89.97.43,0,.67-.22.88-.57l.48.27c-.28.51-.79.8-1.36.8-.9,0-1.45-.68-1.45-1.55s.48-1.58,1.43-1.58,1.38.69,1.38,1.56v.09h-2.24ZM93.72,127.36c-.07-.44-.36-.74-.81-.74s-.77.31-.84.74h1.65Z"
          style="fill: #84dade;" />
        <path
          d="M45.9,137.25h-.57v-.46h-.01c-.23.33-.58.56-1,.56-.9,0-1.41-.75-1.41-1.59s.53-1.54,1.39-1.54c.43,0,.79.23,1.02.58h.01v-.49h.57v2.94ZM45.36,135.78c0-.57-.35-1.06-.96-1.06s-.93.51-.93,1.06.33,1.07.93,1.07.96-.49.96-1.07Z"
          style="fill: #84dade;" />
        <path
          d="M47.2,134.7h.01c.18-.31.53-.48.89-.48.83,0,1.04.56,1.04,1.28v1.75h-.57v-1.68c0-.5-.07-.84-.65-.84-.73,0-.73.64-.73,1.18v1.35h-.57v-2.94h.57v.4Z"
          style="fill: #84dade;" />
        <path
          d="M52.11,136.79h-.01c-.23.33-.58.56-1,.56-.9,0-1.41-.75-1.41-1.59s.53-1.54,1.38-1.54c.44,0,.79.23,1.02.58h.01v-3h.57v5.45h-.57v-.46ZM52.15,135.78c0-.57-.35-1.06-.96-1.06s-.93.51-.93,1.06.33,1.07.93,1.07.96-.49.96-1.07Z"
          style="fill: #84dade;" />
        <path d="M55.26,132.65h2.55v.54h-1.95v1.33h1.9v.54h-1.9v1.79h1.95v.54h-2.55v-4.74Z" style="fill: #84dade;" />
        <path d="M59.36,137.12c0,.2-.16.36-.36.36s-.36-.16-.36-.36.16-.36.36-.36.36.17.36.36Z" style="fill: #84dade;" />
        <path d="M63.15,134.56v-1.91h.59v4.74h-.59v-2.28h-2.26v2.28h-.59v-4.74h.59v1.91h2.26Z" style="fill: #84dade;" />
        <path d="M65.42,137.12c0,.2-.16.36-.36.36s-.36-.16-.36-.36.16-.36.36-.36.36.17.36.36Z" style="fill: #84dade;" />
        <path
          d="M70.34,133.55c-.18-.3-.4-.45-.76-.45-.38,0-.79.26-.79.67,0,.37.36.57.66.68l.34.13c.67.26,1.17.63,1.17,1.43,0,.86-.67,1.48-1.51,1.48-.77,0-1.36-.56-1.46-1.33l.6-.13c0,.52.41.9.92.9s.87-.43.87-.92-.41-.73-.82-.9l-.33-.14c-.54-.23-1.03-.54-1.03-1.2,0-.77.68-1.23,1.39-1.23.53,0,.96.26,1.22.72l-.47.28Z"
          style="fill: #84dade;" />
        <path
          d="M72.11,131.93v2.91h.01c.18-.31.53-.48.89-.48.83,0,1.04.56,1.04,1.28v1.75h-.57v-1.68c0-.5-.07-.84-.65-.84-.73,0-.73.64-.73,1.18v1.35h-.57v-5.45h.57Z"
          style="fill: #84dade;" />
        <path
          d="M75.18,136.01c0,.5.35.97.89.97.43,0,.67-.22.88-.57l.48.27c-.28.51-.79.8-1.36.8-.9,0-1.45-.68-1.45-1.55s.48-1.58,1.43-1.58,1.38.69,1.38,1.56v.09h-2.24ZM76.85,135.58c-.07-.44-.36-.74-.81-.74s-.77.31-.84.74h1.65Z"
          style="fill: #84dade;" />
        <path
          d="M78.43,134.93h.01c.23-.35.58-.58,1.02-.58.85,0,1.38.74,1.38,1.54s-.5,1.59-1.41,1.59c-.41,0-.77-.23-1-.56h-.01v2.14h-.57v-4.63h.57v.49ZM80.28,135.91c0-.57-.35-1.06-.96-1.06s-.93.51-.93,1.06.33,1.07.93,1.07.96-.49.96-1.07Z"
          style="fill: #84dade;" />
        <path
          d="M84.16,137.39h-.57v-.46h-.01c-.23.33-.58.56-1,.56-.9,0-1.41-.75-1.41-1.59s.53-1.54,1.39-1.54c.43,0,.79.23,1.02.58h.01v-.49h.57v2.94ZM83.63,135.91c0-.57-.35-1.06-.96-1.06s-.93.51-.93,1.06.33,1.07.93,1.07.96-.49.96-1.07Z"
          style="fill: #84dade;" />
        <path
          d="M85.5,134.92h.02c.14-.35.43-.57.8-.57.16,0,.33.06.47.14l-.26.52c-.1-.09-.21-.12-.35-.12-.61,0-.69.57-.69,1.04v1.45h-.57v-2.94h.57v.48Z"
          style="fill: #84dade;" />
        <path
          d="M89.3,136.93h-.01c-.23.33-.58.56-1,.56-.9,0-1.41-.75-1.41-1.59s.53-1.54,1.38-1.54c.44,0,.79.23,1.02.58h.01v-3h.57v5.45h-.57v-.46ZM89.33,135.91c0-.57-.35-1.06-.96-1.06s-.93.51-.93,1.06.33,1.07.93,1.07.96-.49.96-1.07Z"
          style="fill: #84dade;" />
        <path d="M91.49,137.12c0,.2-.16.36-.36.36s-.36-.16-.36-.36.16-.36.36-.36.36.17.36.36Z" style="fill: #84dade;" />
      </g>
    </g>
    <g>
      <path
        d="M82.94,42.99c-.44-.54-2.05-.81-1.34-1.75.54-.71,1.94.42,2.22-.39.16-.47.4-2.3,1.3-1.08.2.28.05.78.37.99.33.22.89-.09,1.26-.05,1.18.15.67,1.06.06,1.57-.84.71-.05,1.07.06,1.87.15,1.2-1.37.23-1.9.18-.73-.06-1.7,1.3-2.1.85s.08-2.2.08-2.2Z"
        style="fill: #c9cacb;" />
      <path
        d="M72.52,43.55c-.44-.21-1.54.09-1.37-.72.13-.61,1.36-.3,1.29-.9-.04-.35-.42-1.58.5-1.07.21.12.27.48.53.52.27.04.54-.32.78-.4.8-.26.74.47.5.98-.33.7.29.69.59,1.17.45.72-.81.54-1.16.68-.43.18-.6,1.44-.99,1.27s-.69-1.53-.69-1.53Z"
        style="fill: #c9cacb;" />
      <path
        d="M86.84,38.04c-.22-.26-1-.4-.65-.86.27-.35.95.21,1.08-.18.08-.23.2-1.12.64-.53.1.14.02.38.18.49.16.11.44-.04.61-.02.58.08.32.52.03.77-.41.34-.02.52.02.91.07.59-.67.1-.93.08-.32-.02-.81.73-1,.51s.02-1.17.02-1.17Z"
        style="fill: #c9cacb;" />
      <path
        d="M49.04,28.02c-1.52.04-2.75.23-3.02.53-.24.26-.55.48-.56.84,0,.35.4.38.64.38.25,0,.47-.02.47-.16,0-.2-.33-.16-.33-.37,0-.24,1.26-.29,1.89-.29,5.4-.02,11.61,3.75,11.62,6.94,0,2.48-3.2,3.03-4.97,3.04-.63,0-1.24-.06-1.82-.18-.03-.79-.07-2.45-.09-3.49.2,0,.39,0,.56,0,1.31,0,3.03.46,3.03.77,0,.26-.46.44-.46.7,0,.19.42.15.79.18.06,0,.81-.41.8-1.06,0-.87-1.08-1.9-4.6-1.89-.05,0-.1,0-.15,0-.03-.98-.18-2.52-.73-2.51-.46,0-.59,1.7-.63,2.63-1.97.3-3.72,1.11-3.72,1.9,0,.65,1.41,2.29,3.69,3.29.04.73.18,1.24.83,1.24.47,0,.63-.35.68-.72.74.19,1.54.3,2.39.3,3.31-.01,5.97-1.79,5.96-4.23,0-3.27-6.56-7.97-12.27-7.81ZM48.15,36.15c0-.57,1.72-.79,3.31-.87-.01.89-.02,2.17-.02,3.03-1.96-.69-3.29-1.8-3.29-2.17ZM63.2,37.59c.04,1.58-.11,1.64-.56,1.64-.5,0-.78-.22-.74-2.11.02-.83.03-3.1.59-3.1.44,0,.64.58.71,3.57ZM62.78,33.15c1.24,0,3.21-1.42,3.21-2.59,0-.53-.27-.8-.95-.9-.28-.27-.7-.58-1.33-.58-1.93,0-3.18,1.55-3.18,2.39,0,.31.1.69.38,1.01,0,.67.17.85.39.85.24,0,.39-.14.48-.31.28.08.61.13,1,.13ZM62.91,32.21c-.29,0-.53-.04-.73-.1.55-.62,1.87-1.79,2.52-1.8.43,0,.5.34.5.47,0,.78-1.6,1.43-2.29,1.43ZM63,30.12c-.59.35-1.2.84-1.61,1.33-.02-.06-.03-.13-.03-.18,0-.38.55-.96,1.64-1.15ZM64.89,35.47c0,.2.93.24,1.8.31,1.16.1,2.49.26,2.49,1.67,0,.58-.49,1.71-2.46,1.71-2,0-2.71-1.02-2.71-1.46,0-.84.8-1.07,1.36-1.08.53,0,2.25.21,2.25.63,0,.23-.43.46-.95.47-.52,0-1.27-.47-1.64-.47-.36,0-.53.25-.53.39,0,.14.02.43,1,.43.47,0,2.77-.26,2.77-.9,0-.29-1.06-.57-1.92-.66-1.07-.11-2.67.16-2.67-.93,0-1.61,2.86-1.68,3.43-1.68.75,0,2.09,0,2.09.52,0,.88-4.29.4-4.3,1.05ZM74.24,36.98c0,.74-.45,1.87-1.22,1.87-.71,0-1.99-2.65-2.22-2.65-.31,0,.09,2.9-.69,2.91-.53,0-.65-.48-.65-1.19,0-.72.36-3.62,1.03-3.57.66.05,2.24,2.96,2.43,2.91.12-.03.13-.31.13-.46,0-.74-.76-2.66-.76-3.21,0-.18.03-.36.19-.36.65,0,1.76,2.07,1.77,3.76ZM78.42,38.29c-.02.18-1.29,1.17-2.71,1.21-.9.03-1.22-.95-1.22-1.4,0-.29.27-.97.36-1.31.03-.11-.12-.26-.11-.35.04-.4.61-.44.66-.58.05-.13.17-.55.15-.67-.02-.11-.82-.27-.82-.68,0-.43,1.71-.43,3.03-.57.77-.09,1.39.64,1.34.81-.05.18-.2.29-.41.34-.12.03-1.77.08-2.02.18-.12.05-.2.56-.14.66.06.1,1.15.1,1.32.12.34.03.45.79-.11.82-.2.01-1.39,0-1.58.06-.19.06-.38.95-.28,1.05.1.09,1.64-.25,1.91-.25.27,0,.66.31.63.57ZM83.28,34.34c-.77.05-2.26,1.7-3.12,2.81-.05-.11-.09-.22-.09-.32,0-.47.88-1.88,1.04-2.23.17-.37-.02-.85-.24-.68-.41.34-1.74,1.89-1.73,3.33,0,.33.09.74.27,1.1-.3.97-1.02,3.12-1,4.43.01.67.69,1.34,1.1,1.25.15-.03.19-.92.39-1.52.29-.86.74-2.44.9-3.11.07,0,.15.01.23.01,1.62,0,3.41-1.74,3.4-3.23,0-1.49-.88-1.85-1.16-1.84ZM81.42,38.03c.65-1.13,1.59-2.64,1.94-2.63.24,0,.34.25.34.62,0,1.11-1.33,2.03-2.28,2.01Z"
        style="fill: #84dade;" />
      <path
        d="M49.76,46.47c-1.27,0-2.32.58-3,1.65v-5.3h-3.62v1.16h.86c.58,0,.83.25.83.83v11.77h1.07l.62-1.59c.72,1.19,1.81,1.79,3.25,1.79,2.65,0,4.36-2.02,4.36-5.16s-1.71-5.16-4.36-5.16ZM49.38,55.43c-2.36,0-2.61-2.66-2.61-3.81s.25-3.81,2.61-3.81,2.61,2.66,2.61,3.81-.25,3.81-2.61,3.81Z"
        style="fill: #ff8672;" />
      <path
        d="M64.48,50.16c0,1.07-.29,1.62-.85,1.62-.39,0-.42-.74-.42-.97v-4.75c0-3.02-2-3.43-3.96-3.43-1.53,0-3.96.68-3.96,2.52,0,.95.44,1.55,1.16,1.55.61,0,1.32-.31,1.32-1.18,0-.58-.28-.95-.83-1.1.46-.42,1.17-.62,2.17-.62,1.8,0,2.17.63,2.17,1.64,0,.56-.11.91-.71,1.2-.57.27-1.26.46-1.99.66-1.85.51-3.77,1.03-3.77,3,0,1.68,1.13,2.64,3.09,2.64,1.43,0,2.56-.47,3.53-1.47.23.94.89,1.47,1.85,1.47,1.67,0,2.38-.91,2.38-3.05v-.69h-1.16v.96ZM61.28,49.23c0,1.35-1.59,2.55-2.84,2.55-.97,0-1.5-.56-1.5-1.58,0-.65.4-1.07,1.48-1.53.47-.2.89-.35,1.29-.49.57-.2,1.07-.38,1.56-.64v1.69Z"
        style="fill: #ff8672;" />
      <path
        d="M71.91,46.67c-1.27,0-2.32.58-3,1.65v-5.3h-3.62v1.16h.86c.58,0,.83.25.83.83v11.77h1.07l.62-1.59c.72,1.19,1.81,1.79,3.25,1.79,2.65,0,4.36-2.02,4.36-5.16s-1.71-5.16-4.36-5.16ZM71.53,55.64c-2.36,0-2.61-2.66-2.61-3.81s.25-3.81,2.61-3.81,2.61,2.66,2.61,3.81-.25,3.81-2.61,3.81Z"
        style="fill: #ff8672;" />
      <path
        d="M82.78,47.64h.67c.7,0,1.13.15,1.13.38,0,.25-.07.43-.13.61l-2.28,5.25-1.91-4.52-.13-.32c-.22-.53-.39-.92-.39-1.11s.08-.3,1.13-.3h.55v-1.16h-5.46v1.16h.53c.67,0,1.02.26,1.37,1.01l3.41,7.46-.95,1.92c-.43.85-1.07,1.28-1.91,1.28-.49,0-.9-.25-1.05-.52.76-.04,1.17-.4,1.17-1.03,0-.8-.62-1.16-1.2-1.16-.63,0-1.36.45-1.36,1.71,0,1.36,1.23,2.17,2.42,2.17,1.4,0,2.67-.84,3.24-2.13l4.24-9.49c.2-.45.64-1.22,1.28-1.22h.67v-1.16h-5.04v1.16Z"
        style="fill: #ff8672;" />
    </g>
  </g>
</svg>