<?xml version="1.0" encoding="UTF-8"?>
<svg id="Layer_1" data-name="Layer 1" data-size="30mm x 30mm" xmlns="http://www.w3.org/2000/svg"
  viewBox="0 0 151.98 166.17">
  <text id="quantity" y="97%" x="50%"
    style="font-family: Arial-BoldMT, Arial; font-size: 15px; font-weight: 700; isolation: isolate;"
    text-anchor="middle">
  </text>
  <g>
    <text transform="translate(117.12 48.1)" style="fill: #ee701e; font-family: ArialMT, Arial; font-size: 8px;">
      <tspan x="0" y="0">piegatura</tspan>
    </text>
    <text transform="translate(117.12 57.7)" style="fill: #ee701e; font-family: ArialMT, Arial; font-size: 8px;">
      <tspan x="0" y="0">fold</tspan>
    </text>
    <line x1="15.68" y1="8.99" x2="7.09" y2="8.99" style="fill: none; stroke: #00aeef; stroke-width: .46px;" />
    <line x1="15.68" y1="93.32" x2="7.09" y2="93.32" style="fill: none; stroke: #00aeef; stroke-width: .46px;" />
    <line x1="11.58" y1="9.25" x2="11.58" y2="93.27"
      style="fill: none; stroke: #00aeef; stroke-dasharray: 2.19 2.19; stroke-width: .5px;" />
    <line x1="28" y1="113.35" x2="28" y2="104.76" style="fill: none; stroke: #00aeef; stroke-width: .46px;" />
    <line x1="112.77" y1="113.35" x2="112.77" y2="104.76" style="fill: none; stroke: #00aeef; stroke-width: .46px;" />
    <text transform="translate(55.08 118.1)"
      style="fill: #00aeef; font-family: MyriadPro-Regular, &apos;Myriad Pro&apos;; font-size: 10px;">
      <tspan x="0" y="0">30 mm</tspan>
    </text>
    <line x1="113.1" y1="108.36" x2="28.06" y2="108.36"
      style="fill: none; stroke: #00aeef; stroke-dasharray: 2.19 2.19; stroke-width: .5px;" />
    <rect x="27.68" y="3.19" width="84.79" height="96.13" style="fill: #fff;" />
    <rect x="27.68" y="3.19" width="84.79" height="96.13"
      style="fill: none; stroke: #151310; stroke-miterlimit: 10; stroke-width: .25px;" />
    <line x1="112.47" y1="50.69" x2="112.47" y2="51.82" style="fill: none; stroke: #151310; stroke-width: .25px;" />
    <line x1="27.68" y1="50.69" x2="27.68" y2="51.82" style="fill: none; stroke: #151310; stroke-width: .25px;" />
    <line x1="19.87" y1="8.98" x2="122.4" y2="8.98"
      style="fill: none; stroke: #97bf0d; stroke-dasharray: 1.76 1.76; stroke-width: .55px;" />
    <line x1="19.87" y1="93.52" x2="122.4" y2="93.52"
      style="fill: none; stroke: #97bf0d; stroke-dasharray: 1.76 1.76; stroke-width: .55px;" />
    <line x1="113.64" y1="51.25" x2="26.31" y2="51.25"
      style="fill: none; stroke: #ee701e; stroke-dasharray: 2.19 2.19; stroke-width: .73px;" />
    <text transform="translate(123.97 6.86)" style="fill: #069547; font-family: ArialMT, Arial; font-size: 8px;">
      <tspan x="0" y="0">cucitura</tspan>
    </text>
    <text transform="translate(124.22 13.95)"
      style="fill: #069547; font-family: Arial-ItalicMT, Arial; font-size: 8px; font-style: italic;">
      <tspan x="0" y="0">seam</tspan>
    </text>
    <text transform="translate(123.97 91.19)" style="fill: #069547; font-family: ArialMT, Arial; font-size: 8px;">
      <tspan x="0" y="0">cucitura</tspan>
    </text>
    <text transform="translate(124.22 98.28)"
      style="fill: #069547; font-family: Arial-ItalicMT, Arial; font-size: 8px; font-style: italic;">
      <tspan x="0" y="0">seam</tspan>
    </text>
    <text transform="translate(8.37 67.75) rotate(-90)"
      style="fill: #00aeef; font-family: MyriadPro-Regular, &apos;Myriad Pro&apos;; font-size: 10px;">
      <tspan x="0" y="0">30 mm</tspan>
    </text>
    <text transform="translate(52.25 87.86)"
      style="fill: #1d1719; font-family: GillSans, &apos;Gill Sans&apos;; font-size: 6.18px;">
      <tspan x="0" y="0"> </tspan>
    </text>
    <text transform="translate(53.85 87.86)"
      style="fill: #1d1719; font-family: GillSans, &apos;Gill Sans&apos;; font-size: 6.18px;">
      <tspan x="0" y="0">©</tspan>
    </text>
    <text transform="translate(58.3 87.86)"
      style="fill: #1d1719; font-family: GillSans, &apos;Gill Sans&apos;; font-size: 6.18px;">
      <tspan x="0" y="0"> </tspan>
    </text>
    <text transform="translate(57.26 87.88) scale(1.27 1)"
      style="fill: #1d1f23; font-family: GillSans, &apos;Gill Sans&apos;; font-size: 6.11px;">
      <tspan x="0" y="0" xml:space="preserve" style="letter-spacing: -.02em;"> M</tspan>
      <tspan x="6.13" y="0">A</tspan>
    </text>
    <text transform="translate(70.22 87.88) scale(1.27 1)"
      style="fill: #1d1f23; font-family: GillSans, &apos;Gill Sans&apos;; font-size: 6.11px;">
      <tspan x="0" y="0">R</tspan>
    </text>
    <text transform="translate(74.76 87.88) scale(1.27 1)"
      style="fill: #1d1f23; font-family: GillSans, &apos;Gill Sans&apos;; font-size: 6.11px;">
      <tspan x="0" y="0">V</tspan>
    </text>
    <text transform="translate(79.3 87.88) scale(1.27 1)"
      style="fill: #1d1f23; font-family: GillSans, &apos;Gill Sans&apos;; font-size: 6.11px;">
      <tspan x="0" y="0" style="letter-spacing: -.02em;">E</tspan>
      <tspan x="2.93" y="0">L</tspan>
    </text>
    <text transform="translate(86.67 87.88) scale(1.27 1)"
      style="fill: #1d1f23; font-family: GillSans, &apos;Gill Sans&apos;; font-size: 6.11px;">
      <tspan x="0" y="0"> </tspan>
    </text>
    <rect x="40.62" y="58.87" width="57.18" height="23.16" style="fill: #021d49;" />
    <path
      d="M89,64.39v-3.51h-9.79l-1.61,11.75-1.59-11.75h-3.53l.4,3.13c-.41-.8-1.85-3.13-5.03-3.13-.02,0-3.53,0-3.53,0v17.12s-2.58-17.12-2.58-17.12h-4.62s-2.66,17.74-2.66,17.74v-17.74h-4.42l-1.6,9.96-1.55-9.96h-4.43v19.29h3.49v-9.3l1.58,9.3h1.85l1.56-9.3v9.3h6.72l.41-2.97h2.7l.4,2.97h6.6s0,0,0,0h0s0,0,0,0h0v-6.26l.81-.12,1.67,6.39h3.41,0s0,0,0,0h0l-2.19-7.48c1.11-.82,2.37-2.91,2.03-4.91h0s2.07,12.41,2.07,12.41h4.06s2.77-17.49,2.77-17.49v17.49h6.58v-3.47h-3.12v-4.42h3.12v-3.52h-3.12v-4.36h3.12ZM58.47,74.13l.96-8.25.99,8.25h-1.95ZM68.61,70.32c-.27.13-.55.19-.82.19v-6.2h.02c.27,0,2.31.08,2.31,3.07,0,1.56-.69,2.55-1.51,2.94M96.02,76.69v3.47h-6.42v-19.29h3.45v15.82h2.96Z"
      style="fill: #fff;" />
    <path
      d="M106.24,41.68c-.3.29-.66.49-1.05.6-.12.03-3.15.68-3.31.7-.09,0-.18.01-.27.01-.57,0-1.18-.18-1.81-.55-.63-.37-1.14-.94-1.51-1.69-.09.03-1.22.31-1.34.33-.26.09-.57.14-.94.14-.28,0-.56-.03-.84-.06-.21-.03-.62-.09-.62-.09-.1.05-1.06.31-1.11.33-.05.01-.11.02-.17.03-.32.02-.66.04-1.02.04-.17,0-.33,0-.49-.01-.4-.02-.75-.34-.87-.79-.07-.27-.14-.55-.21-.82-.01,0-.03,0-.04,0-.45.06-.9.09-1.43.12,0,0-.03,0-.03,0-.07,0-.14,0-.2-.03-.09.04-.18.07-.29.07-1.22.08-2.46.11-3.77.12h0c-.23,0-.45-.1-.61-.28-.07-.08-.12-.17-.16-.27,0,0-.02,0-.03,0-.49.07-1.04.15-1.61.19-.02,0-.04,0-.06,0-.08,0-.15-.01-.23-.04-.03.02-.07.03-.1.04-.01,0-.02,0-.04.01-.05.03-.1.06-.16.08-.52.18-.96.3-1.44.4-.06.01-.11.02-.17.02-.15,0-.66-.05-.86-.75,0-.02-.01-.04-.02-.06-.27.12-1.05.38-1.2.44-.09.03-.18.05-.27.05-.2,0-.39-.08-.54-.24-.07.3-.25.54-.52.68-.04.03-.8.51-.85.53-.07.06-.15.1-.25.14-.43.16-.87.26-1.3.35-.12.03-.25.05-.37.08-.06.01-.12.02-.18.02-.22,0-.42-.09-.58-.26-.16-.18-.25-.44-.24-.72.03-1,.04-2.01.04-3.01-.16.64-.45,1.35-1.06,1.88-.03.03-.54.5-.57.53-.38.39-.91.7-1.64.82-.18.03-.36.05-.54.05-.73,0-1.38-.27-1.89-.77,0,.03,0,.07,0,.1-.02.18-.08.36-.17.51-.02.03-.27.5-.29.53-.11.23-.29.42-.5.51-.57.24-1.03.4-1.5.53-.07.02-.14.03-.2.03-.42,0-.77-.34-.86-.82-.03-.18-.06-.37-.1-.56-.39.16-.83.34-1.3.48-.08.02-.15.03-.23.03-.06,0-.13,0-.19-.03-.09.1-.2.18-.32.24l-.08.03c-.52.24-1.02.46-1.57.64-.08.03-.17.04-.25.04-.17,0-.33-.06-.46-.16l-.72.26c-.97.36-1.98.72-2.99,1.07-.07.02-.14.04-.21.04-.07.08-.16.15-.25.2l-.07.04c-.54.3-1.06.58-1.63.84-.11.05-.21.07-.33.07-.21,0-.4-.09-.55-.24-.04-.03-.47-.41-.5-.44-.01,0-.02-.02-.03-.02l-.11.06c-.42.22-.85.45-1.31.64,0,0-.02,0-.03.01-.08.38-.31.7-.62.84l-.18.08c-.56.26-1.09.5-1.68.71-.09.03-.18.05-.27.05s-.17-.02-.25-.04c-.07-.03-1.23-.69-1.28-.73l-.17.08c-.44.2-.89.41-1.37.57,0,0-.01,0-.02,0v.03c-.03.51-.34,1.03-.76,1.27l-1.81,1.05c-.16.09-.32.14-.48.14-.1,0-.19-.02-.28-.05-.05-.02-1.07-.44-1.07-.44l-1.72.92c-.15.08-.31.12-.46.12-.14,0-2.08-.68-2.16-.71-.12-.06-.23-.15-.31-.27-.1-.15-.25-.46-.09-.91l.95-2.64c-.14.09-.29.17-.47.22-.15.04-.4.08-.63.08-.05,0-.1,0-.14,0-.02.05-.04.1-.08.13-.15.14-.36.22-.52.26-.03,0-.06.01-.09.01-.02,0-.03,0-.05,0-.05.07-.12.13-.51.28-.13.05-.27.01-.36-.09h0s-.19-.19-.19-.19c-.04.14-.08.27-.1.36l-.02.09-.07.06c-.13.12-.45.19-.54.2-.01,0-.02,0-.03,0-.08,0-.16-.03-.22-.09,0,0-.24-.23-.25-.26-.07-.09-.08-.2-.04-.3.35-.87.84-2.59.85-2.61l.03-.1.08-.06s.02-.02.05-.03c0,0-.05-.05-.05-.06s-.02-.01-.02-.02c-.09-.1-.22-.33-.06-.77.14-.4.31-.57.51-.7-.04-.07-.07-.15-.08-.22l-.03-.13.09-.11c.04-.05.42-.5.84-.58h.01c.11-.02.25,0,.38.08.03-.06.07-.1.13-.14l.2-.13c.07-.05.17-.06.25-.04.17-.13.4-.25.66-.22.07,0,.28.04.42.19,0,0,0,0,0,0,.09-.12.2-.24.31-.33.22-.19.46-.29.66-.29.05-.16.12-.38.2-.61.05-.14.18-.24.23-.27h.01c.12-.1.27-.18.43-.15.07.01.13.05.18.1,0,0,.19.19.2.2.02.02.04.04.05.06,0,0,0,.01.01.02.2-.33.51-.62.84-.76l2.38-1.01c-.49-.3-.93-.57-1.13-.7-.03-.02-.07-.04-.1-.06-.01,0-.02-.01-.02-.01,0,0,0,0,0,0-.04-.03-.07-.05-.11-.09,0,0-.02-.02-.03-.02-.04-.04-.08-.08-.11-.12-.24-.31-.33-.7-.25-1.09l.98-4.17c.13-.59.67-1.02,1.28-1.02.08,0,.17,0,.25.02l.18.04c.59.12,1.4.28,2.08.28.17,0,.39-.01.58-.05-.07-.04-1.17-.78-1.26-.85-.09-.06-1.3-.82-1.39-.89-.17-.1-.35-.21-.51-.33,0,0,0,0,0,0-.04-.03-.07-.05-.11-.08,0,0-.02-.01-.02-.02-.03-.02-.06-.05-.09-.07,0,0-.02-.02-.03-.02-.03-.02-.06-.05-.08-.07,0,0-.02-.02-.03-.02-.03-.03-.06-.05-.08-.08,0,0-.01-.01-.02-.02-.07-.07-.14-.14-.2-.21,0,0-.01-.01-.02-.02-.02-.03-.05-.06-.07-.09-.01-.01-.02-.03-.03-.04-.02-.03-.04-.05-.06-.08-.01-.01-.02-.03-.03-.04-.02-.03-.04-.05-.05-.08-.01-.02-.02-.03-.03-.05-.02-.03-.03-.05-.05-.08,0-.02-.02-.03-.03-.05-.02-.03-.03-.06-.05-.09,0-.01-.01-.03-.02-.04-.02-.04-.04-.09-.06-.14-.49-1.13-.49-2.38-.02-3.53.54-1.29,1.65-2.36,3.07-2.91.75-.29,1.71-.45,2.85-.45,1.75,0,3.72.37,4.77.74.05.02.1.04.14.06,0,0,.01,0,.02,0,.04.02.08.05.12.07,0,0,.01.01.02.01.04.03.07.05.11.08,0,0,.02.02.02.02.03.03.06.06.09.09,0,0,0,0,.01.01.01.01.03.02.04.03,0,0,0-.02.01-.03,0-.03.02-.06.03-.08,0-.01,0-.02.01-.03.01-.03.02-.06.04-.08,0,0,.01-.02.01-.03.01-.03.03-.05.04-.08,0,0,.01-.02.01-.03.02-.03.03-.05.05-.08,0,0,.01-.02.02-.02.02-.02.04-.05.06-.07,0,0,.01-.01.02-.02.02-.02.04-.05.06-.07,0,0,.02-.02.02-.02.02-.02.04-.04.06-.06,0,0,.02-.02.03-.02.02-.02.04-.04.07-.05,0,0,.02-.02.03-.02.02-.02.05-.03.07-.05.01,0,.02-.01.04-.02.02-.01.05-.03.07-.04.01,0,.03-.01.04-.02.02-.01.04-.02.07-.03.02,0,.03-.01.05-.02.02,0,.04-.02.06-.03.02,0,.04-.01.06-.02.02,0,.04-.01.06-.02.02,0,.04,0,.06-.01.02,0,.04,0,.06-.01.03,0,.05,0,.08-.01.01,0,.03,0,.04,0,.04,0,.08,0,.12,0h5.17c1.5,0,2.81.45,3.79,1.31.24.2.45.43.63.67l.03-.61c.05-.77.68-1.37,1.45-1.37h4.03c.45,0,.86.21,1.12.54.26-.33.67-.54,1.12-.54h4.96c1.43,0,2.93.41,4.12,1.13.07.04.15.09.22.14,0,0,.02.01.03.02.06.04.13.09.19.13,0,0,0,0,0,0,.14.1.26.2.39.3,0,0,.45-.91.75-1.26.25-.29.62-.46,1.02-.46h6.74c.34,0,.68.12.96.32.21-.2.51-.32.85-.32h3.22c.62,0,1.3.38,1.63.9l.14.23s.88-.63,1.27-.87c0,0,0,0,0,0,.03-.01.05-.03.07-.04,0,0,0,0,0,0,.02-.01.05-.03.08-.04,0,0,.02,0,.03-.01.02-.01.05-.02.07-.03.01,0,.02,0,.04-.01.04-.01.07-.03.11-.04.02,0,.04-.01.07-.02.02,0,.03,0,.05-.01.02,0,.05-.01.07-.02.02,0,.03,0,.05,0,.03,0,.05,0,.08-.01.01,0,.03,0,.04,0,.04,0,.08,0,.12,0h2.69c.43,0,.8.19,1.03.51.23.33.27.74.12,1.14l-1.83,4.96c-.06.16-.07.51-.02.68l1.36,4.62c.11.39.06.76-.16,1.05-.02.03-.05.06-.07.08,0,0-.02.02-.02.02-.02.02-.04.04-.06.05-.01.01-.03.02-.05.04-.01,0-.03.02-.04.03,0,0,0,0-.01,0-.02,0-.03.02-.05.03-.22.14-1.05.65-1.81,1.12.06.05.12.1.18.15.11-.04,2.07-.48,2.14-.49.07-.01.13-.02.2-.03.12-.02.25-.02.38-.02.04,0,.09,0,.13,0,1.28.05,2.85,1.07,3.27,3.18.08.32.03.59-.14.8-.04.05-.08.09-.12.13.04.04.08.09.12.14,1.06,1.29,1.15,3.09.19,4.01M80.96,11.29h-17.93v7.26h17.93v-7.26Z"
      style="fill: #021d49;" />
    <path
      d="M34.63,42.13c.07-.21.42-1.27.58-1.8,0-.02.02-.04.04-.06l.2-.13s.05,0,.04.02l-.02.18s.35-.46.7-.42c.36.04.36.23.26.58-.1.34-.34,1.22-.34,1.22,0,0-.2.12-.33.14-.03,0-.05-.02-.04-.04.09-.23.52-1.41.31-1.51-.23-.11-.61.28-.71.54-.09.24-.34,1.1-.38,1.21,0,0,0,.02-.01.02-.08.07-.19.09-.28.09-.02,0-.04-.02-.03-.04M36.5,40.71c.12-.39.34-.74.62-.99.29-.24.6-.31.65-.1,0,0,.11-.42.29-.91.02-.05.08-.1.12-.13.05-.03.22-.17.27-.09.05.08-.76,2.22-.97,2.91-.08.09-.47.2-.46.16.01-.04.03-.07.05-.11,0,0,.06-.11.06-.11,0,0-.44.3-.59.17-.15-.13-.17-.4-.05-.79M36.99,41.16c.23-.13.39-.36.47-.65s.12-.58-.1-.54c-.22.04-.41.24-.56.73-.15.48-.04.6.19.47M33.53,41.93c.14-.39.29-.5.51-.62.22-.13.49-.05.49-.05,0,0,.29-.65.1-.6-.19.05-.39.21-.55.4-.07,0-.11-.2-.11-.2,0,0,.35-.42.68-.48.1-.01.42.05.3.4-.11.33-.42,1.32-.47,1.47,0,.01-.01.02-.03.03-.08.04-.12.05-.17.05-.02,0-.03-.01-.03-.03l.04-.14s-.23.27-.5.33c-.27.06-.39-.16-.25-.55M33.96,42.15c.24-.12.35-.26.42-.48.09-.21-.14-.23-.3-.15-.16.09-.3.28-.34.43-.04.15-.02.32.23.2M35.16,42.62c-.12.05-.2.13-.22.29-.02.16.12.16.23.13.11-.04.22-.12.24-.3s-.13-.18-.25-.12M35.25,43.14c-.1,0-.26.06-.33.09-.02,0-.03.02-.03.04-.09.75-.33,1.42-.38,1.62,0,.03.02.05.05.04.1-.03.29-.09.4-.2,0,0,.01-.01.01-.02.01-.11.16-.99.33-1.5.01-.03-.01-.06-.05-.06M36.72,43.52c-.08-.56-.71-.1-.78-.39-.07-.28.23-.43.39-.46.13-.03.34.05.42.1.03.02.26-.2.29-.31,0-.02,0-.04-.02-.05-.15-.1-.66-.12-.92.03-.27.16-.63.39-.54.88.1.51.9-.11.74.45-.18.6-.91.25-.9.26-.04-.01-.24.42-.24.48,0,.02.42.06.79-.05.47-.13.85-.54.78-.94M34.45,43.46c-.35-.17-.85.36-.85.36,0,0,.1-.47.28-.89.02-.04,0-.07-.05-.07-.18,0-.32.09-.32.09,0,0-.5,1.74-.86,2.63-.01.03.01.06.04.05.11-.01.32-.08.38-.13.05-.28.26-.87.38-1.18.13-.32.76-.77.76-.48,0,.3-.1.58-.16.82-.04.16-.15.37-.22.49-.02.04.02.07.06.06.14-.05.35-.13.38-.18.05-.07.52-1.41.17-1.58M101.38,31.61l-1.36-4.61c-.1-.33-.08-.86.04-1.18l1.83-4.96c.12-.32-.07-.58-.41-.58h-2.69c-.34,0-.69.27-.78.6l-.48,1.8c-.09.33-.31.36-.49.07l-1.21-1.94c-.18-.29-.61-.53-.95-.53h-3.22c-.34,0-.45.22-.24.49l3.77,4.91c.21.27.42.77.48,1.11l.57,3.36c.06.34.37.69.7.78l4,1.12c.33.09.52-.1.42-.43M41.77,35.46c1.17-.27,2.94-.74,5.1-1.47,2.5-.84,3.95-2.37,4.13-4.42.18-2.05-1-2.92-2.35-3.49-1.35-.58-3.23-1.11-2.44-1.99.32-.35,1.28-.31,2.23.16.83.41,1.67,1.04,2.24,1.49.3.24.76.05.82-.34l.63-3.94c.04-.23-.09-.46-.31-.53-1.34-.47-4.98-1.12-7.05-.3-2.32.91-3.52,3.27-2.6,5.38.91,2.1,4.95,2.11,4.75,3.66-.25,1.48-2.91.88-4.15.64-.27-.05-.53.12-.6.39l-.98,4.17c-.08.36.23.66.58.58M83.82,28.49c.05.34.38.64.72.66l8.5.96c.34.04.53-.19.43-.51l-.49-1.57c-.1-.33-.46-.62-.8-.65l-2.89-.28c-.34-.03-.68-.32-.75-.66l-.07-.32,2.33.11c.34.02.53-.24.42-.56l-.35-1.03c-.11-.32-.48-.6-.82-.62l-2.07-.12-.11-.49c-.07-.33.14-.61.49-.61l2.46-.03c.34,0,.52-.27.4-.59l-.51-1.33c-.12-.32-.5-.58-.85-.58h-6.74c-.34,0-.58.28-.52.61l1.22,7.61ZM76.43,20.27c2.37,0,5.57,1.33,5.81,4.13.26,2.98-1.99,4.68-3.97,4.73-1.9,0-6.89.33-6.89.33-.34.02-.62-.24-.61-.58l.08-7.99c0-.34.29-.62.63-.62h4.96ZM77.37,24.6c-.06-.53-.48-.82-1.1-.82h-.78l.11,1.69c.46,0,.82,0,.85,0,.5-.05.98-.29.92-.87M69.23,20.27h-4.03c-.34,0-.64.28-.66.62l-.51,8.81c-.02.34.24.58.58.54l4.71-.59c.34-.04.62-.35.61-.69l-.09-8.07c0-.34-.29-.62-.63-.62M51.69,32.37l1.72-11.49c.05-.34.37-.62.71-.62h5.17c2.78,0,4.45,1.78,4.48,3.58.03,1.66-.75,2.64-1.81,3.47-1.06.83-3.96.62-3.96.62h-.35l-.29,3.01c-.03.34-.33.68-.66.76l-4.5,1.11c-.33.09-.56-.12-.51-.45M58.98,23.35h-.89s-.16,1.65-.16,1.65c.31,0,.52,0,.55,0,.56,0,1.34-.27,1.36-.92.03-.64-.37-.74-.86-.74M50.01,35.39c-.6.2-1.15.43-1.74.68-.11.05-.21.18-.26.31-.41,1.12-.82,2.28-1.23,3.39-.05.13-.1.15-.11.01-.1-.82-.14-1.68-.23-2.49-.02-.13-.09-.2-.2-.15-.46.2-.88.4-1.33.64-.11.06-.2.19-.23.34-.46,2.18-.95,4.39-1.39,6.57-.03.15.02.25.14.21.56-.18,1.08-.41,1.62-.65.12-.05.22-.21.24-.35.13-.79.27-1.64.39-2.41.02-.14.05-.17.08-.04.1.51.18,1.28.24,1.56.03.16.17.27.29.23.09-.03.15-.13.28-.4.28-.64.54-1.31.81-1.93.06-.13.08-.13.06.02-.19,1.26-.4,2.58-.59,3.84-.02.15.03.25.15.21.67-.22,1.29-.5,1.94-.77.12-.05.21-.2.23-.35.35-2.76.68-5.54,1-8.29.02-.14-.04-.2-.15-.17M95.42,32.66c-.51-.08-.99-.14-1.5-.18-.09,0-.16.06-.16.17,0,1.18.05,2.37.05,3.54,0,.11-.04.06-.07-.06-.27-.89-.58-1.86-.88-2.77-.04-.12-.13-.21-.23-.22-.45-.04-.88-.05-1.33-.04-.1,0-.17.08-.18.19-.06,1.69-.11,3.39-.15,5.07,0,.12.06.2.17.2.5-.02.98-.05,1.48-.11.1-.01.16-.11.16-.23-.01-.58-.05-1.2-.05-1.77,0-.12.03-.08.06.05.29,1.08.61,2.23.92,3.32.04.13.13.24.24.24.53.02,1.02,0,1.54-.02.11,0,.17-.1.17-.22,0-2.32-.08-4.64-.07-6.96,0-.11-.07-.19-.16-.2M90.58,36.38c-.74.03-1.47.12-2.21.14-.1,0-.16-.09-.16-.19,0-.05,0-.11,0-.16.02-.1.08-.2.18-.21.41-.05.81-.03,1.22-.09.1-.01.17-.1.17-.22.02-.35.02-.72.02-1.08,0-.11-.07-.19-.17-.19-.41-.02-.81.03-1.22,0-.1,0-.15-.1-.16-.2,0-.02,0-.05,0-.08.02-.1.09-.19.19-.19.58-.02,1.15,0,1.74-.03.1,0,.17-.09.17-.2.02-.4.03-.82.03-1.23,0-.11-.06-.19-.16-.19-1.09-.03-2.16-.07-3.25-.11-.1,0-.17.07-.18.19-.15,2.05-.29,4.12-.41,6.17,0,.12.06.22.16.22,1.34,0,2.67-.04,4.01-.12.11,0,.17-.1.17-.23.01-.6.02-1.22.02-1.82,0-.12-.07-.2-.17-.2M86,32.02c-.48-.04-.95-.05-1.43-.03-.1,0-.19.08-.2.19-.24,2-.44,4.01-.61,6.01-.01.12.04.22.15.21.57-.04,1.12-.11,1.68-.19.1-.01.17-.12.18-.24.11-1.91.25-3.83.38-5.74,0-.12-.05-.2-.15-.2M83.46,32.33c.26.47.4,1.58.2,2-.35.75-.74.8-1.31,1.15.29.89.57,1.87.83,2.76.04.14.02.25-.08.28-.49.16-.95.28-1.46.37-.1.02-.18-.03-.24-.2-.25-.82-.5-1.76-.73-2.6-.02-.08-.1-.06-.1,0-.01.55-.02,1.23-.03,1.76,0,.18-.06.25-.16.29-.43.19-.83.27-1.27.43-.1.04-.15-.12-.15-.2.11-1.39.4-5.73.4-5.73l.02-.42c0-.14.11-.26.24-.29.52-.1,1.82-.35,2.44-.33.35,0,1.11.26,1.37.73M81.92,33.3c-.07-.23-.34-.22-.58-.15-.06.02-.67.18-.67.18v1.06s.57-.2.79-.37c.17-.13.57-.39.46-.72M100.06,35.06c.61.75,1.08,2.02.79,2.94-.29.93-.7,1.43-1.59,1.74-.69.24-1.82.02-2.58-.09-.24-.04-.38-.09-.4-.46-.09-1.77-.18-3.77-.2-5.6,0-.2,0-.28.27-.24,1.42.2,2.7.47,3.7,1.7M98.95,37.69c.26-.32.39-.77.28-1.37-.11-.6-.56-1.14-1.3-1.24-.12-.02-.24.02-.23.19.05.86.05,1.6.1,2.46.01.21.08.28.33.25.24-.02.57.03.83-.29M105.47,38.15c-.46-.56-1.27-.92-1.91-1.33-.32-.21-.82-.42-.89-.86-.06-.43.38-.43.62-.37.35.08.54.57.58.79.05.22.07.28.18.31.43.14.8.21,1.22.25.1.01.24.09.17-.18-.32-1.62-1.48-2.54-2.56-2.59-1.08-.04-1.74.59-1.7,1.77.02.48.32.85.61,1.11.44.4,1.13.8,1.53,1,.51.26,1.05.48,1.11.95.09.75-.65.56-.97.39-.32-.17-.58-.62-.63-.85s-.06-.3-.17-.32c-.52-.12-.93-.09-1.43-.1-.1,0-.16.1-.17.21.23,1.12.76,2.24,1.82,2.82,1.06.57,2.12.66,2.82-.02.71-.68.52-2.06-.25-2.99M72.35,34.88c-.48.06-1.83.22-2.32.3-.14.02-.21.16-.21.33,0,.29,0,.63.04.92.02.23.16.42.37.43.32.02.59-.09.91-.07-.12.5-.42.94-1.03.85-.81-.13-1.14-.89-1.14-1.74,0-.85.19-2.13,1.07-2.21.57-.05.7.21.73.39.01.1.1.17.19.15.3-.04.85-.13,1.11-.17.13-.02.21-.2.18-.3,0-.6-.62-2.21-2.34-1.85-1.72.36-2.3,2.33-2.4,4.34-.11,2.1,1.06,3.42,2.83,3.14,2.02-.32,2.15-2.14,2.29-3.11.09-.62.02-1.02-.04-1.24-.03-.11-.13-.18-.24-.17M78.8,31.17c-1.24,0-2.72.05-3.88.28-.07.01-.18.1-.18.22-.08,2.77.05,5.52-.05,8.28,0,.13.05.22.15.19.55-.12,1.16-.22,1.7-.4.1-.04.16-.13.16-.29.02-.86.04-1.86.06-2.71,0-.18.07-.2.18-.24.25-.09.82-.2,1.03-.26.21-.06.22-.17.22-.29,0-.47,0-.97-.02-1.41,0-.11-.02-.18-.14-.17-.4.04-1.03.25-1.43.29-.11.01-.17-.07-.18-.18-.01-.11-.03-.35-.02-.45.01-.19.06-.29.24-.32.51-.1,1.7-.3,2.12-.37.09-.02.16-.1.16-.19l.08-1.77c0-.11-.09-.2-.2-.2M59.25,36.08c.07-.1.13-.26.15-.39.09-.77.17-1.43.26-2.19.01-.12-.04-.2-.14-.18-1.15.29-2.27.62-3.4.98-.1.03-.19.15-.2.28-.1.67-.18,1.23-.27,1.89-.02.13.04.2.14.17.61-.22,1.19-.52,1.8-.74.1-.04.11,0,.03.1-.81,1.04-1.63,2.09-2.43,3.17-.07.1-.13.28-.15.42-.06.77-.1,1.58-.16,2.34-.01.14.05.24.16.21,1.35-.44,2.67-.89,4.02-1.35.11-.04.17-.17.18-.31.03-.65.05-1.35.07-2,0-.13-.05-.22-.16-.19-.66.18-1.29.47-1.94.67-.1.03-.11-.02-.04-.12.68-.92,1.38-1.84,2.08-2.76M54.46,34.5c.04,2.57.11,5.02.14,7.59,0,.14-.07.29-.18.35-.59.3-1.16.6-1.77.86-.11.05-.17-.04-.16-.19.05-.69.1-1.45.15-2.14,0-.14-.04-.21-.16-.17-.22.08-.41.21-.62.34-.11.07-.2.22-.24.36-.06.25-.11.53-.17.78-.03.14-.13.29-.24.35-.52.26-1.01.51-1.55.71-.12.05-.16-.04-.12-.18.58-2.45,1.16-4.94,1.74-7.4.03-.14.12-.26.23-.31.93-.44,1.84-.72,2.79-1.1.11-.04.17.02.17.16M52.43,37.06c-.08.44-.15.9-.22,1.33-.02.13.03.19.14.17.11-.01.16-.05.26-.11.1-.06.18-.18.18-.32.02-.43.04-.88.05-1.31,0-.13-.05-.15-.16-.14-.01,0-.02.01-.03.02-.1.09-.19.21-.21.35M62.1,33.44c-.49.09-.95.2-1.43.34-.1.03-.18.14-.2.27-.29,2.22-.56,4.48-.82,6.69-.02.14.03.23.14.19.59-.19,1.13-.42,1.7-.66.1-.04.17-.18.18-.31.18-2.11.37-4.24.57-6.34.01-.13-.04-.2-.15-.18M67.3,32.21c-.55.06-1.08.15-1.62.25-.1.02-.17.11-.18.24-.08,1.3-.12,2.63-.23,3.92-.01.12-.04.12-.07,0-.2-.94-.43-1.93-.65-2.87-.03-.12-.11-.2-.22-.19-.47.07-.91.15-1.38.26-.11.02-.18.13-.2.25-.2,1.9-.37,3.83-.54,5.73-.01.13.04.22.14.19.52-.14,1-.33,1.5-.53.11-.04.17-.17.18-.3.04-.63.05-1.29.09-1.92,0-.13.03-.13.06,0,.21,1.11.41,2.29.62,3.41.02.13.1.22.21.2.53-.13,1.01-.3,1.52-.5.1-.04.17-.17.19-.3.26-2.55.49-5.12.72-7.67.01-.12-.04-.19-.14-.18M43.39,37.53l-.51,8.07c-.01.24-.2.54-.42.65l-1.95,1.05c-.21.12-.36.01-.32-.23l.38-2.32-1.25.52-.33,1.09c-.07.23-.31.51-.52.62l-1.75.87c-.22.11-.33,0-.25-.22l3.05-8.53c.08-.23.33-.5.56-.59l2.93-1.25c.22-.1.39.03.38.27M40.7,40.65l-.73,2.43.92-.34.38-2.36c.04-.24-.05-.37-.19-.3-.15.08-.32.33-.39.57M64.69,17.97h-1.09v-6.05h1.39l.49,3.12.5-3.12h1.39v5.56l.83-5.56h1.45l.81,5.37v-5.37h1.11c1,0,1.45.73,1.58.98l-.12-.98h1.11l.5,3.68.51-3.68h3.07v1.1h-.98v1.37h.98v1.1h-.98v1.39h.98v1.09h-2.06v-5.48l-.87,5.48h-1.27s-.65-3.88-.65-3.89c.11.63-.29,1.28-.64,1.54l.69,2.35h0s0,0,0,0h-1.07l-.52-2-.25.04v1.96h0s0,0,0,0h-2.07s-.13-.93-.13-.93h-.85l-.13.93h-2.11v-2.91l-.49,2.91h-.58l-.5-2.91v2.91ZM71.54,14.94c.09,0,.17-.02.26-.06.25-.12.47-.43.47-.92,0-.94-.64-.96-.72-.96h0v1.95ZM68.62,16.08h.61l-.31-2.59-.3,2.59ZM80.4,16.88h-.93v-4.96h-1.08v6.05h2.01v-1.09Z"
      style="fill: #fff;" />
  </g>
</svg>