<?xml version="1.0" encoding="UTF-8"?>
<svg id="Layer_1" data-name="Layer 1" data-size="30mm x 30mm" xmlns="http://www.w3.org/2000/svg"
  viewBox="0 0 209.99 156.29">
<text id="quantity" y="97%" x="50%"
style="font-family: Arial-BoldMT, Arial; font-size: 15px; font-weight: 700; isolation: isolate;"
text-anchor="middle">
</text>
  <g>
    <text transform="translate(0 26.97)"
      style="fill: #00a3cc; font-family: TrebuchetMS, &apos;Trebuchet MS&apos;; font-size: 10px;">
      <tspan x="0" y="0">15 mm</tspan>
    </text>
    <text transform="translate(0 75.71)"
      style="fill: #00a3cc; font-family: TrebuchetMS, &apos;Trebuchet MS&apos;; font-size: 10px;">
      <tspan x="0" y="0">15 mm</tspan>
    </text>
    <text transform="translate(67.97 109)"
      style="fill: #00a3cc; font-family: TrebuchetMS, &apos;Trebuchet MS&apos;; font-size: 10px;">
      <tspan x="0" y="0">30 mm</tspan>
    </text>
    <line x1="37.28" y1="4.66" x2="37.28" y2="89.14" style="fill: none; stroke: #00a3cc; stroke-width: .56px;" />
    <rect x="35.46" y="4.38" width="3.64" height=".56" style="fill: #00a3cc;" />
    <rect x="35.46" y="88.86" width="3.64" height=".56" style="fill: #00a3cc;" />
    <line x1="128.49" y1="98.43" x2="44.01" y2="98.43" style="fill: none; stroke: #00a3cc; stroke-width: .56px;" />
    <rect x="128.21" y="96.6" width=".56" height="3.64" style="fill: #00a3cc;" />
    <rect x="43.73" y="96.6" width=".56" height="3.64" style="fill: #00a3cc;" />
    <rect x="43.73" y=".12" width="85.04" height="93.54"
      style="fill: none; stroke: #d52f89; stroke-miterlimit: 10; stroke-width: .25px;" />
    <line x1="33.25" y1="46.9" x2="40.69" y2="46.9" style="fill: none; stroke: #00a3cc; stroke-width: .56px;" />
    <line x1="128.77" y1="46.9" x2="43.73" y2="46.9"
      style="fill: none; stroke: #ee701e; stroke-dasharray: 2.17 2.17; stroke-width: .25px;" />
    <line x1="43.73" y1="4.38" x2="128.77" y2="4.38"
      style="fill: none; stroke: #97bf0d; stroke-dasharray: 1.76 1.76; stroke-width: .55px;" />
    <line x1="43.73" y1="89.42" x2="128.77" y2="89.42"
      style="fill: none; stroke: #97bf0d; stroke-dasharray: 1.76 1.76; stroke-width: .55px;" />
    <g>
      <path id="Fill"
        d="M114.95,22.37l.86-3.34s-4.14,0-4.54,0-.87.13-1.21.34c-.34.21-.57.57-.57.57,0,0-.43-.91-1.33-.91h-13.84c-.22,0-.34.02-.59.13-.25.11-.88.69-1.46,1.35-.53.61-1.18,1.47-1.18,1.47l.81-2.95h-3.47l-.4,1.43-.04-1.44h-11.58l-.49,1.58v-1.58h-3.05v-6.11h-3.4l-1.77,3.73s-2.59-.15-4.79.86c-2.2,1.01-4.25,2.9-5.38,5.53-1.13,2.64-1.07,5.71-.25,7.91.82,2.2,2,3.51,2,3.51l-1.56,3.3h4.59l.37-.74s1.86.89,3.7.95c1.76.06,3.29-.13,5.29-1.14,1.98-1,3.5-2.92,4-3.67h-3.79c-1.32,1.21-2.91,1.79-4.6,1.9-1.83.11-3.32-.65-3.32-.65l1.73-3.55h3.23v2.13h15.53l.44-1.53v1.53h3.16s.4-1.46.4-1.46c0,0,.2.7.96,1.08.77.39,1.44.37,1.63.37h12.21l.37-1.33v1.33h6.89c.13,0,.67.04,1.12-.31.46-.36.6-.82.73-1.2.13-.38.39-1.35.46-1.61.07-.26.08-.34.11-.6.03-.26,0-.52-.03-.82-.03-.3-.76-5.99-.76-5.99l.02-.07h2.78ZM60.71,31.46c-.76-1.24-1.16-2.67-1.16-4.15,0-4.04,2.91-7.35,6.78-7.71l-5.61,11.86ZM68.9,27.01h-1.64l1.64-3.47v3.47ZM81.71,29.55h-1.69l.58-2h1.67l-.55,2ZM83.22,24.11h-1.64l.5-1.74h1.61l-.48,1.74ZM96.74,23.16l-.26.94h-2.68c.11-.15.23-.31.36-.48.42-.54.88-1.03,1.1-1.25h1.71l-.22.79ZM100.34,29.54h-1.64l.55-2h1.64l-.55,2ZM101.85,24.11h-1.65l.48-1.73h1.65l-.48,1.73ZM109.35,29.55h-2.19v-2.93c.18-.04.41-.13.62-.27.25-.19.57-.58.73-1l.31-1.11c.14,1.11.43,3.61.61,5.09l-.07.22Z"
        style="fill: #090f0f;" />
      <path id="Outline"
        d="M67,37.45c-1.31,0-2.58-.26-3.78-.78l-.19-.08.82-1.69.17.07c.95.39,1.94.59,2.97.59,1.86,0,3.64-.67,5.07-1.88.05-.04.04-.04.04-.04h2.51l-.08.11c-1.87,2.41-4.55,3.7-7.54,3.7ZM58.61,37.22l11.23-23.78h2.5v15.26l-2.9-2.85v-4.75l-3.03,6.45h3.04v-1.37l2.78,2.74-2.75,2.7v-1.31h-4.15l-3.39,6.91h-3.35ZM59.26,33.54c-1.35-1.8-2.06-3.95-2.06-6.23,0-5.59,4.4-10.14,9.8-10.15h.31s-.9,1.91-.9,1.91h-.11c-4.14.39-7.26,3.93-7.26,8.24,0,1.59.44,3.14,1.27,4.48l.06.09-.91,1.92-.19-.26ZM91.82,32.43h-.7s-.26,0-.59-.04c-.72-.09-1.18-.34-1.45-.77-.25-.42-.25-.98-.16-1.34.06-.24,1.07-3.84,1.61-5.78.17-.62.29-1.04.3-1.08.05-.19.18-.39.29-.56l.04-.06c.09-.15.7-1,1.21-1.63.51-.63,1.11-1.17,1.32-1.33.24-.19.43-.27.59-.27h3.49l-.63,2.26h-2.09s-.04,0-.1.06c-.06.06-.79.83-1.35,1.58-.54.72-.79,1.22-.83,1.35-.05.13-1.32,4.65-1.36,4.83-.01.06,0,.22.08.3.09.08.27.13.52.14.04,0,.08,0,.13,0,.11,0,.23,0,.32-.01l.91-3.08h-.63l.66-2.36h2.97l-2.14,7.78h-2.38ZM104.17,32.43v-4.77l-1.36,4.76h-2.51l3.59-12.86h4.16c.32,0,.5.07.68.25.14.15.33.4.38.72.04.29,0,.64-.05.87-.05.21-1.01,3.57-1.06,3.74-.07.24-.29.58-.55.74-.19.12-.33.17-.53.22-.1.02-.21.04-.3.06v6.28h-2.44ZM104.86,24.69c.14,0,.25,0,.33-.02.21-.02.38-.1.5-.24.15-.17.2-.3.27-.51.08-.21.32-1.13.38-1.41.05-.24.04-.41-.05-.62-.07-.15-.27-.18-.38-.18h-.25l-.81,2.96ZM94.89,32.43l3.63-12.88h4.62l-.62,2.27h-2.26l-.79,2.82h2.27l-.64,2.37h-2.28l-.85,3.07h2.3l-.66,2.36h-4.72ZM76.22,32.44l3.63-12.88h4.62l-.62,2.27h-2.24l-.81,2.82h2.27l-.64,2.37h-2.32l-.88,3.07h2.36l-.66,2.36h-4.72ZM73.06,32.44v-12.88h2.32v4.75l1.42-4.75h2.35l-3.66,12.88h-2.44ZM107.2,32.42v-2.35h2.57l.2-.67-.03-.24c-.42-3.42-.65-5.28-.68-5.55-.05-.46,0-.97.07-1.3.06-.27.37-1.38.44-1.63.09-.31.24-.57.46-.74.22-.18.62-.37,1.1-.37h3.75l-.57,2.28h-2.75l-.18.57c.03.25.75,5.64.8,6.05.04.37.03.72-.04,1.06-.05.26-.39,1.42-.5,1.75-.11.36-.21.53-.35.73-.17.25-.52.43-.85.43h-3.44ZM85.46,32.43l-.07-4.74-1.36,4.74h-2.34l3.56-12.86h2.2l.12,4.53,1.29-4.52h2.3l-3.56,12.85h-2.15ZM69.48,32.43v-.5l2.87-2.83v3.32h-2.87Z"
        style="fill: #fff;" />
      <path id="Outline-2" data-name="Outline"
        d="M78.9,19.76l-3.55,12.49h-2.1v-12.49h1.94v5.88l1.76-5.88h1.95ZM69.67,32.24h2.48v-2.67l-2.48,2.44v.23ZM79.98,26.82h2.32l.53-1.98h-2.27l.92-3.21h2.24l.51-1.88h-4.22l-3.52,12.49h4.32l.55-1.97h-2.36l.99-3.45ZM98.7,26.81h2.27l.53-1.98h-2.24l.89-3.21h2.24l.51-1.88h-4.22l-3.52,12.49h4.32l.55-1.97h-2.27l.95-3.45ZM89,19.77l-1.6,5.59-.14-5.6h-1.86l-3.46,12.48h1.94l1.68-5.86.09,5.86h1.81l3.45-12.46h-1.9ZM93.53,24.84l-.55,1.97h.64l-1.02,3.45s-.35.03-.6.02c-.2-.01-.48-.05-.64-.19-.16-.14-.17-.38-.14-.49.02-.11,1.32-4.72,1.37-4.86.05-.14.3-.65.86-1.4.56-.75,1.29-1.53,1.37-1.6.07-.07.15-.12.24-.12h1.95l.52-1.87h-3.23c-.11,0-.27.08-.47.23-.2.15-.79.68-1.29,1.29-.5.62-1.1,1.46-1.2,1.61-.1.16-.25.39-.3.57-.05.18-1.84,6.54-1.91,6.86-.07.31-.09.83.14,1.2.23.37.62.6,1.31.68.32.04.57.04.57.04h2.93s2.03-7.39,2.03-7.39h-2.57ZM107.34,25.71c-.17.1-.28.15-.47.2-.19.04-.45.09-.45.09v6.24h-2.05v-5.41h-.16l-1.54,5.41h-2.11l3.48-12.47h4.01c.29,0,.41.06.54.19.13.13.28.34.32.61.04.27,0,.6-.05.79-.05.2-.99,3.52-1.06,3.73-.06.21-.25.5-.46.63ZM106.48,21.83c-.11-.25-.4-.29-.56-.29h-.4l-.91,3.35s.38,0,.61-.02c.23-.02.45-.1.62-.3.17-.2.23-.35.31-.57.08-.22.32-1.14.39-1.43.06-.29.04-.5-.06-.73ZM114.36,21.65l.47-1.89h-3.51c-.43,0-.79.17-.98.32-.18.15-.32.38-.39.65-.07.26-.38,1.36-.44,1.62-.06.26-.13.77-.07,1.24.06.47.71,5.83.71,5.83l-.25.85h-2.52v1.96h3.24c.27,0,.56-.15.69-.34.13-.19.22-.35.32-.68.1-.33.44-1.48.49-1.73.05-.25.09-.58.03-1-.05-.42-.8-6.09-.8-6.09l.24-.75h2.74ZM58.91,37.02h2.92l3.39-6.91h4.46v1.04l2.28-2.23-2.31-2.28v1.1h-3.54l3.53-7.51v5.54l2.51,2.47v-14.61h-2.18l-11.05,23.39ZM58.84,27.31c0,1.69.48,3.26,1.3,4.58l-.72,1.53c-1.27-1.69-2.03-3.81-2.03-6.11,0-5.49,4.3-9.95,9.61-9.95l-.72,1.53c-4.17.38-7.43,4.01-7.43,8.42ZM72.18,33.84s-.04.04-.06.05c-1.42,1.22-3.13,1.87-5.12,1.87-1.08,0-2.1-.22-3.04-.61l-.65,1.34c1.14.49,2.39.76,3.7.76,2.92,0,5.42-1.25,7.18-3.37.01-.02.04-.05.04-.05h-2.04Z"
        style="fill: #090f0f;" />
      <g id="Fill-2" data-name="Fill">
        <path
          d="M69.83,32.09l2.16-2.13v2.13h-2.16ZM59.18,36.87h2.55s3.22-6.6,3.28-6.73c.06-.13.11-.2.24-.2h4.39c.13,0,.19.09.19.15v.7l1.9-1.87-1.93-1.91v.7c0,.08-.04.19-.17.19s-3.35,0-3.51,0c-.16,0-.21-.16-.16-.24.04-.08,3.47-7.37,3.51-7.45.04-.08.08-.16.19-.15.11.01.14.11.14.2v5.44l2.2,2.16v-14.06h-1.94l-10.88,23.07ZM77.08,19.92s-1.66,5.51-1.73,5.69c-.06.18-.15.17-.2.17-.05,0-.13-.04-.13-.23s0-5.64,0-5.64h-1.61v12.16h1.8l3.48-12.15h-1.62ZM89.13,19.92s-1.53,5.36-1.57,5.45c-.03.09-.08.14-.17.14-.09,0-.13-.08-.14-.18,0-.1-.14-5.41-.14-5.41h-1.59l-3.35,12.15h1.6s1.61-5.63,1.63-5.74c.03-.11.1-.15.17-.14.08,0,.15.11.14.2,0,.1.09,5.68.09,5.68h1.53l3.36-12.15h-1.57ZM111.67,21.47h2.55l.42-1.55h-3.3c-.36,0-.72.12-.92.31s-.26.34-.32.6c-.07.26-.42,1.45-.45,1.68-.03.22-.1.51-.05.95.06.44.72,5.96.72,5.96,0,0-.21.77-.25.87-.03.1-.08.14-.2.14s-2.32.01-2.32.01v1.63h3.11c.22,0,.44-.11.61-.37.17-.26.28-.63.35-.9.07-.26.29-1.09.36-1.35.07-.26.06-.56.06-.78,0-.22-.81-6.31-.81-6.31,0,0,.19-.66.23-.75.04-.09.09-.14.23-.14ZM107.13,25.66c-.15.09-.56.15-.7.18s-.17.11-.17.18v6.04h-1.73v-5.24c0-.11-.06-.16-.13-.16s-.13,0-.2,0c-.07,0-.14.08-.16.17-.03.09-1.48,5.23-1.48,5.23h-1.79l3.37-12.14h4c.35,0,.59.43.61.62.03.19,0,.61-.09.96-.09.35-.89,3.15-1,3.52-.11.37-.39.55-.54.64ZM106.56,21.64c-.14-.2-.39-.24-.59-.27-.2-.02-.44-.01-.44-.01-.12,0-.15.06-.18.16-.03.1-.87,3.19-.9,3.3-.02.11.03.19.09.21.06.01.21.02.39.01.17,0,.3,0,.54-.07.25-.06.41-.21.57-.42.16-.22.29-.62.4-1.03.11-.4.23-.9.27-1.13.03-.23-.02-.55-.16-.74ZM78.84,30.22c.03-.14.96-3.31.99-3.42.03-.11.09-.13.18-.13h2.16l.45-1.66h-2.06c-.12,0-.17-.11-.14-.22.02-.11.87-3.08.91-3.17.03-.09.1-.13.17-.13h2.1l.43-1.58h-3.89l-3.44,12.17h3.99l.46-1.65h-2.13c-.11,0-.19-.08-.16-.21ZM97.58,30.21c.03-.14.91-3.31.94-3.42.03-.1.09-.13.18-.13h2.14l.44-1.66h-2.06c-.12,0-.17-.11-.14-.22.02-.11.85-3.08.89-3.17.04-.09.1-.13.17-.13h2.12l.43-1.58h-3.89l-3.44,12.17h3.99l.46-1.65h-2.06c-.11,0-.19-.08-.16-.21ZM93.64,25l-.46,1.65s.31,0,.42,0c.1,0,.21.07.17.2-.04.13-.98,3.32-1.01,3.42-.03.1-.07.14-.17.16-.1.02-.44.03-.67.01-.23-.02-.45-.05-.66-.21-.22-.16-.24-.49-.2-.73.05-.23,1.29-4.55,1.36-4.81.07-.26.54-1,.99-1.58.45-.59,1.04-1.24,1.22-1.42.18-.18.28-.23.4-.23h1.84l.44-1.55h-2.95c-.09,0-.16,0-.27.07-.12.07-.53.34-1.29,1.23-.76.89-1.25,1.61-1.35,1.77-.1.16-.24.38-.3.58-.06.2-1.76,6.29-1.82,6.53-.06.24-.11.45-.1.72.01.27.08.51.25.74.18.23.49.42,1.12.49.26.02.61.02.61.02h2.71l1.95-7.07h-2.24ZM66.14,18.72h0s.56-1.19.56-1.19h-.03c-2.4.08-4.66,1.1-6.36,2.86-1.78,1.85-2.76,4.3-2.76,6.91,0,2.08.62,4.07,1.8,5.75l.02.02.56-1.18h0c-.83-1.38-1.27-2.96-1.27-4.59,0-4.44,3.22-8.13,7.48-8.58ZM72.25,34.01s-.02.02-.03.03c-1.49,1.29-3.26,1.89-5.21,1.89-1.01,0-2-.19-2.94-.55h-.01s-.5,1.02-.5,1.02h.02c1.1.45,2.25.68,3.44.68,2.62,0,5.01-1.04,6.8-3.02.01-.02.04-.05.04-.05h-1.59Z"
          style="fill: #fff;" />
      </g>
      <g id="MARVEL_Logo" data-name="MARVEL Logo">
        <rect id="Block" x="82.92" y="12.65" width="12.63" height="5.12" style="fill: #090f0f;" />
        <path id="MARVEL"
          d="M91.09,15.68l-.35-2.59h-.78l.09.69c-.09-.18-.41-.69-1.11-.69,0,0-.78,0-.78,0v3.78s-.57-3.78-.57-3.78h-1.02s-.59,3.92-.59,3.92v-3.92h-.98l-.35,2.2-.34-2.2h-.98v4.26h.77v-2.05l.35,2.05h.41l.35-2.05v2.05h1.48l.09-.66h.6l.09.66h1.46s0,0,0,0h0s0,0,0,0h0v-1.38l.18-.03.37,1.41h.75s0,0,0,0h0s0,0,0,0h0l-.48-1.65c.25-.18.52-.64.45-1.09h0s.46,2.74.46,2.74h.9s.61-3.86.61-3.86v3.86h1.45s0-.77,0-.77h-.69v-.98h.69v-.78h-.69v-.96s.69,0,.69,0v-.78h-2.16s-.36,2.59-.36,2.59ZM86.86,16.02l.21-1.82.22,1.82h-.43ZM89.1,15.18c-.06.03-.12.04-.18.04v-1.37s0,0,0,0c.06,0,.51.02.51.68,0,.34-.15.56-.33.65ZM94.5,16.58h.65v.77h-1.42v-4.26h.76v3.49Z"
          style="fill: #fff;" />
      </g>
    </g>
    <g>
      <rect x="61.38" y="54.84" width="49.73" height="20.14" style="fill: #1d1d1b;" />
      <path
        d="M103.45,59.63v-3.06h-8.51l-1.4,10.22-1.38-10.22h-3.07l.34,2.73c-.36-.7-1.61-2.73-4.38-2.73h-3.07v14.89s-2.25-14.89-2.25-14.89h-4.02l-2.31,15.43v-15.43h-3.85l-1.39,8.67-1.35-8.67h-3.85v16.78h3.03v-8.09l1.38,8.09h1.61l1.36-8.09v8.09h5.84l.35-2.58h2.35l.35,2.58h5.74v-5.45l.7-.1,1.45,5.55h2.97,0,0l-1.91-6.51c.97-.71,2.06-2.53,1.77-4.27,0,.02,1.8,10.79,1.8,10.79h3.53s2.41-15.21,2.41-15.21v15.21h5.72v-3.02h-2.72v-3.85h2.72v-3.06h-2.72v-3.79h2.72ZM76.91,68.11l.83-7.17.86,7.17h-1.69ZM85.71,64.8c-.23.11-.47.17-.71.17v-5.39h.01c.24,0,2.01.07,2.01,2.67,0,1.36-.6,2.22-1.31,2.56M109.56,70.33v3.02h-5.58v-16.77h3v13.75h2.57Z"
        style="fill: #fff;" />
      <path
        d="M76.2,78.47c.31,0,.6.08.87.23.27.16.48.37.64.64.16.26.23.56.23.87s-.08.6-.23.87c-.16.27-.37.49-.64.64-.27.16-.56.23-.87.23s-.61-.07-.88-.23c-.27-.15-.48-.36-.64-.63-.16-.27-.24-.56-.24-.87s.08-.6.24-.87c.16-.27.37-.48.64-.64.27-.15.56-.23.87-.23M76.2,78.76c-.4,0-.74.14-1.03.42-.28.29-.43.63-.43,1.03s.14.74.43,1.03c.29.28.62.42,1.03.42s.74-.14,1.02-.42c.28-.29.42-.63.42-1.03s-.14-.74-.42-1.03c-.28-.28-.63-.42-1.02-.42M77,79.78l-.27.06c-.1-.23-.27-.35-.53-.35-.19,0-.33.07-.44.2-.11.13-.16.31-.16.54s.05.4.15.52c.11.13.25.19.43.19.14,0,.26-.04.36-.12.1-.08.17-.19.21-.33l.28.08c-.05.2-.14.35-.29.46-.15.12-.33.17-.54.17-.28,0-.5-.09-.66-.27-.17-.18-.25-.42-.25-.73s.08-.54.25-.71c.17-.18.39-.27.68-.27.2,0,.37.05.51.14.13.1.23.23.28.4"
        style="fill: #1d1719;" />
      <path
        d="M76.2,78.47c.31,0,.6.08.87.23.27.16.48.37.64.64.16.26.23.56.23.87s-.08.6-.23.87c-.16.27-.37.49-.64.64-.27.16-.56.23-.87.23s-.61-.07-.88-.23c-.27-.15-.48-.36-.64-.63-.16-.27-.24-.56-.24-.87s.08-.6.24-.87c.16-.27.37-.48.64-.64.27-.15.56-.23.87-.23ZM76.2,78.76c-.4,0-.74.14-1.03.42-.28.29-.43.63-.43,1.03s.14.74.43,1.03c.29.28.62.42,1.03.42s.74-.14,1.02-.42c.28-.29.42-.63.42-1.03s-.14-.74-.42-1.03c-.28-.28-.63-.42-1.02-.42ZM77,79.78l-.27.06c-.1-.23-.27-.35-.53-.35-.19,0-.33.07-.44.2-.11.13-.16.31-.16.54s.05.4.15.52c.11.13.25.19.43.19.14,0,.26-.04.36-.12.1-.08.17-.19.21-.33l.28.08c-.05.2-.14.35-.29.46-.15.12-.33.17-.54.17-.28,0-.5-.09-.66-.27-.17-.18-.25-.42-.25-.73s.08-.54.25-.71c.17-.18.39-.27.68-.27.2,0,.37.05.51.14.13.1.23.23.28.4Z"
        style="fill: none; stroke: #1d1d1b; stroke-width: .11px;" />
      <polygon
        points="82.79 78.56 83.27 78.56 83.27 81.75 82.76 81.75 82.76 79.27 81.66 80.5 81.57 80.5 80.47 79.27 80.47 81.75 79.96 81.75 79.96 78.56 80.44 78.56 81.62 79.87 82.79 78.56"
        style="fill: #1d1719;" />
      <polygon
        points="82.79 78.56 83.27 78.56 83.27 81.75 82.76 81.75 82.76 79.27 81.66 80.5 81.57 80.5 80.47 79.27 80.47 81.75 79.96 81.75 79.96 78.56 80.44 78.56 81.62 79.87 82.79 78.56"
        style="fill: none; stroke: #1d1d1b; stroke-width: .11px;" />
      <path
        d="M85.06,78.54h.36l1.59,3.21h-.52l-.47-.94h-1.51l-.44.94h-.52l1.53-3.21ZM85.81,80.4l-.57-1.16-.53,1.16h1.1Z"
        style="fill: #1d1719;" />
      <path
        d="M85.06,78.54h.36l1.59,3.21h-.52l-.47-.94h-1.51l-.44.94h-.52l1.53-3.21ZM85.81,80.4l-.57-1.16-.53,1.16h1.1Z"
        style="fill: none; stroke: #1d1d1b; stroke-width: .11px;" />
      <path
        d="M87.31,81.76v-3.2h.89c.36,0,.64.09.85.25.21.16.32.37.32.64,0,.19-.05.35-.16.49-.1.13-.25.23-.45.31.11.06.22.16.33.27.11.12.26.32.46.6.12.18.22.32.3.41l.19.23h-.6l-.15-.21s-.01-.02-.03-.04l-.1-.12-.16-.24-.17-.25c-.1-.13-.2-.24-.29-.32-.09-.08-.16-.13-.24-.17-.07-.04-.19-.05-.35-.05h-.13v1.39h-.51ZM87.97,78.95h-.15v1.01h.19c.26,0,.44-.02.53-.06.1-.04.17-.1.22-.18.05-.08.08-.17.08-.27s-.03-.19-.09-.27c-.06-.08-.15-.14-.25-.17-.11-.03-.29-.05-.54-.05"
        style="fill: #1d1719;" />
      <path
        d="M87.31,81.76v-3.2h.89c.36,0,.64.09.85.25.21.16.32.37.32.64,0,.19-.05.35-.16.49-.1.13-.25.23-.45.31.11.06.22.16.33.27.11.12.26.32.46.6.12.18.22.32.3.41l.19.23h-.6l-.15-.21s-.01-.02-.03-.04l-.1-.12-.16-.24-.17-.25c-.1-.13-.2-.24-.29-.32-.09-.08-.16-.13-.24-.17-.07-.04-.19-.05-.35-.05h-.13v1.39h-.51ZM87.97,78.95h-.15v1.01h.19c.26,0,.44-.02.53-.06.1-.04.17-.1.22-.18.05-.08.08-.17.08-.27s-.03-.19-.09-.27c-.06-.08-.15-.14-.25-.17-.11-.03-.29-.05-.54-.05Z"
        style="fill: none; stroke: #1d1d1b; stroke-width: .11px;" />
      <polygon points="92.58 78.56 93.09 78.56 91.58 81.77 91.47 81.77 89.94 78.56 90.45 78.56 91.52 80.8 92.58 78.56"
        style="fill: #1d1719;" />
      <polygon points="92.58 78.56 93.09 78.56 91.58 81.77 91.47 81.77 89.94 78.56 90.45 78.56 91.52 80.8 92.58 78.56"
        style="fill: none; stroke: #1d1d1b; stroke-width: .11px;" />
      <polygon
        points="93.37 78.56 95.39 78.56 95.39 78.97 93.88 78.97 93.88 79.94 95.33 79.94 95.33 80.35 93.88 80.35 93.88 81.34 95.43 81.34 95.43 81.75 93.37 81.75 93.37 78.56"
        style="fill: #1d1719;" />
      <polygon
        points="93.37 78.56 95.39 78.56 95.39 78.97 93.88 78.97 93.88 79.94 95.33 79.94 95.33 80.35 93.88 80.35 93.88 81.34 95.43 81.34 95.43 81.75 93.37 81.75 93.37 78.56"
        style="fill: none; stroke: #1d1d1b; stroke-width: .11px;" />
      <polygon points="95.87 78.56 96.38 78.56 96.38 81.34 97.98 81.34 97.98 81.75 95.87 81.75 95.87 78.56"
        style="fill: #1d1719;" />
      <polygon points="95.87 78.56 96.38 78.56 96.38 81.34 97.98 81.34 97.98 81.75 95.87 81.75 95.87 78.56"
        style="fill: none; stroke: #1d1d1b; stroke-width: .11px;" />
    </g>
    <text transform="translate(137.3 28.23)" style="fill: #323e48; font-family: Helvetica, Helvetica; font-size: 12px;">
      <tspan x="0" y="0">Fronte / Front</tspan>
    </text>
    <text transform="translate(137.3 75.71)" style="fill: #323e48; font-family: Helvetica, Helvetica; font-size: 12px;">
      <tspan x="0" y="0">Retro / Back</tspan>
    </text>
  </g>
</svg>