<?xml version="1.0" encoding="UTF-8"?>
<svg id="Layer_1" data-name="Layer 1" data-size="40mm x 40mm" xmlns="http://www.w3.org/2000/svg"
  xmlns:xlink="http://www.w3.org/1999/xlink" viewBox="0 0 349.27 216.51">
  <defs>
    <clipPath id="clippath">
      <path
        d="M62.85,53.97h87.53c7.11,0,12.89,5.77,12.89,12.89v87.55c0,7.11-5.77,12.88-12.88,12.88H62.85c-7.11,0-12.88-5.77-12.88-12.88v-87.56c0-7.11,5.77-12.88,12.88-12.88Z"
        style="fill: none; stroke: #ed3594; stroke-miterlimit: 10; stroke-width: .19px;" />
    </clipPath>
    <clipPath id="clippath-1">
      <path
        d="M243.69,53.97h87.53c7.11,0,12.89,5.77,12.89,12.89v87.55c0,7.11-5.77,12.88-12.88,12.88h-87.53c-7.11,0-12.89-5.77-12.89-12.89v-87.55c0-7.11,5.77-12.88,12.88-12.88Z"
        style="fill: none; stroke: #ed3594; stroke-miterlimit: 10; stroke-width: .19px;" />
    </clipPath>
  </defs>
  <text id="quantity" y="98%" x="50%"
style="font-family: Arial-BoldMT, Arial; font-size: 15px; font-weight: 700; isolation: isolate;"
text-anchor="middle">
</text>
  <g>
    <line x1="19.45" y1="55.37" x2="19.45" y2="168.74"
      style="fill: none; stroke: #189dd8; stroke-dasharray: 3 3; stroke-width: .5px;" />
    <line x1="38.88" y1="54.65" y2="54.65" style="fill: none; stroke: #189dd8; stroke-width: .5px;" />
    <line x1="38.88" y1="168.05" y2="168.05" style="fill: none; stroke: #189dd8; stroke-width: .5px;" />
    <g>
      <path
        d="M15.74,126.69h-2.12v3.62h-.7l-4.98-3.48v-1.14h4.85v-1.09h.83v1.09h2.12v1ZM12.79,126.69h-2.6c-.41,0-.82-.01-1.22-.04v.04c.46.24.79.43,1.15.65l2.65,1.91h.02v-2.55Z"
        style="fill: #189dd8;" />
      <path
        d="M11.76,118.62c2.65,0,4.11.98,4.11,2.71,0,1.52-1.43,2.55-4.01,2.58-2.61,0-4.05-1.13-4.05-2.71s1.46-2.58,3.95-2.58ZM11.88,122.85c2.03,0,3.18-.62,3.18-1.58,0-1.08-1.26-1.6-3.25-1.6s-3.18.49-3.18,1.58c0,.92,1.13,1.6,3.25,1.6Z"
        style="fill: #189dd8;" />
      <path
        d="M11.51,114.76c-.6,0-1.09.01-1.57.05v-.92l.94-.05v-.04c-.55-.32-1.07-.86-1.07-1.82,0-.79.48-1.39,1.16-1.64v-.02c-.32-.18-.58-.41-.76-.65-.26-.35-.41-.73-.41-1.28,0-.77.5-1.91,2.52-1.91h3.42v1.03h-3.29c-1.12,0-1.79.41-1.79,1.26,0,.6.44,1.07.96,1.25.14.05.34.08.53.08h3.59v1.03h-3.48c-.92,0-1.6.41-1.6,1.21,0,.66.53,1.14,1.06,1.31.16.06.34.08.52.08h3.5v1.03h-4.23Z"
        style="fill: #189dd8;" />
      <path
        d="M11.51,104.76c-.6,0-1.09.01-1.57.05v-.92l.94-.05v-.04c-.55-.32-1.07-.86-1.07-1.82,0-.79.48-1.39,1.16-1.64v-.02c-.32-.18-.58-.41-.76-.65-.26-.35-.41-.73-.41-1.28,0-.77.5-1.91,2.52-1.91h3.42v1.03h-3.29c-1.12,0-1.79.41-1.79,1.26,0,.6.44,1.07.96,1.25.14.05.34.08.53.08h3.59v1.03h-3.48c-.92,0-1.6.41-1.6,1.21,0,.66.53,1.14,1.06,1.31.16.06.34.08.52.08h3.5v1.03h-4.23Z"
        style="fill: #189dd8;" />
    </g>
    <g>
      <line x1="161.31" y1="19.45" x2="48.47" y2="19.45"
        style="fill: none; stroke: #189dd8; stroke-dasharray: 2.63 2.63; stroke-width: .44px;" />
      <line x1="161.85" y1="38.88" x2="161.85" style="fill: none; stroke: #189dd8; stroke-width: .44px;" />
      <line x1="48.99" y1="38.88" x2="48.99" style="fill: none; stroke: #189dd8; stroke-width: .44px;" />
    </g>
    <g>
      <path
        d="M92.28,16.19v-2.12h-3.62v-.7l3.48-4.98h1.14v4.85h1.09v.83h-1.09v2.12h-1ZM92.28,13.24v-2.6c0-.41.01-.82.04-1.22h-.04c-.24.46-.43.79-.65,1.15l-1.91,2.65v.02h2.55Z"
        style="fill: #189dd8;" />
      <path
        d="M100.35,12.2c0,2.65-.98,4.11-2.71,4.11-1.52,0-2.55-1.43-2.58-4.01,0-2.61,1.13-4.05,2.71-4.05s2.58,1.46,2.58,3.95ZM96.12,12.32c0,2.03.62,3.18,1.58,3.18,1.08,0,1.6-1.26,1.6-3.25s-.49-3.18-1.58-3.18c-.92,0-1.6,1.13-1.6,3.25Z"
        style="fill: #189dd8;" />
      <path
        d="M104.21,11.95c0-.6-.01-1.09-.05-1.57h.92l.05.94h.04c.32-.55.86-1.07,1.82-1.07.79,0,1.39.48,1.64,1.16h.02c.18-.32.41-.58.65-.76.35-.26.73-.41,1.28-.41.77,0,1.91.5,1.91,2.52v3.42h-1.03v-3.29c0-1.12-.41-1.79-1.26-1.79-.6,0-1.07.44-1.25.96-.05.14-.08.34-.08.53v3.59h-1.03v-3.48c0-.92-.41-1.6-1.21-1.6-.66,0-1.14.53-1.31,1.06-.06.16-.08.34-.08.52v3.5h-1.03v-4.23Z"
        style="fill: #189dd8;" />
      <path
        d="M114.21,11.95c0-.6-.01-1.09-.05-1.57h.92l.05.94h.04c.32-.55.86-1.07,1.82-1.07.79,0,1.39.48,1.64,1.16h.02c.18-.32.41-.58.65-.76.35-.26.73-.41,1.28-.41.77,0,1.91.5,1.91,2.52v3.42h-1.03v-3.29c0-1.12-.41-1.79-1.26-1.79-.6,0-1.07.44-1.25.96-.05.14-.08.34-.08.53v3.59h-1.03v-3.48c0-.92-.41-1.6-1.21-1.6-.66,0-1.14.53-1.31,1.06-.06.16-.08.34-.08.52v3.5h-1.03v-4.23Z"
        style="fill: #189dd8;" />
    </g>
    <path d="M106.62,69.26c2.35,0,4.25-1.91,4.25-4.25s-1.9-4.25-4.25-4.25-4.25,1.9-4.25,4.25,1.9,4.25,4.25,4.25"
      style="fill: none; stroke: #ec008c; stroke-width: .19px;" />
    <g>
      <path d="M295.44,84.4s.07.08.2.21"
        style="fill: #7c8087; stroke: #7a6e66; stroke-miterlimit: 10; stroke-width: 1.07px;" />
      <path d="M296.78,83.96c0,.58-.43,1.05-.96,1.05s-.97-.47-.97-1.05.43-1.05.97-1.05.96.47.96,1.05"
        style="fill: #7c8087; fill-rule: evenodd;" />
      <path
        d="M304.78,86.53c.49.35.72.97.52,2-.11.55-.41,1.09-.71,1.54-.29.43-.61.87-.92,1.24-.71.85-3.26,3.38-4.17,3.69-.35.12-.59-.37-.69-.74-.17-.58-.21-1.35-.28-2.12-.06-.78-.16-1.6-.06-2.26.18-.12.33.09.5.12.05.12.1.25.19.34.11.54.05,1.74.23,2.25.07.2.27.74.46.72.56-.06,2.97-2.96,3.29-3.31.34-.37.85-.89.85-1.57,0-.59-.39-1.06-1-1.07-.15,0-.75.09-.89.11-.78.1-1.56.51-2.29.83-.75.33-1.49.7-1.97,1.23-.22-.04-.32-.33-.43-.44-.02-.08.03-.17.11-.24-.08-.08-.22-.11-.26-.22.23-.43.66-.66,1.04-.9,1.11-.7,4.99-2.25,6.49-1.19"
        style="fill: #7c8087; fill-rule: evenodd;" />
      <path
        d="M283.23,95.29c-.71.2-1.83.03-2.47-.43-.83-.6-1.19-1.31-1.19-1.31-.72.15-1.56.41-2.4.41-.33,0-.54-.03-.78-.18-1.16-.7-.91-2.86-.79-4.14.09-.86.06-1.67.29-2.48.12,0,.21-.07.3.05.17-.13.21-.13.4-.07.23.08.04,2.65.04,2.91,0,.54-.02,1.08.01,1.62.02.29.01.81.23,1.03.22.22.63.09.91.05.5-.09,1.13-.24,1.47-.39-.23-1.16-.42-1.71-.38-3.29.02-.7.06-.78.52-.84.15-.02.38-.02.44.03.14.13-.12,2.05.43,3.85.21.04.27.04.38.23.16.27.26.6-.07.75.04.24.22.51.37.71.49.69,1.23.99,2.01.77,1.53-.44,2.01-2.16,2.17-3.65.18-1.58,0-3.21-.25-4.5.12-.12.27-.06.45-.07.04-.3.3-.25.42-.09.11.14.17.65.24.91.08.31.12.66.15.92.06.7.18,1.38.11,2.11-.2,2.13-1.18,4.58-3.01,5.09"
        style="fill: #7c8087; fill-rule: evenodd;" />
      <path
        d="M307.02,88.41c.11.26.44.36.66.39,1.87.26,2.99,1.15,3.11,2.12.15,1.27-.68,2.68-1.65,3.28-.34.21-.69.38-1.06.51-.71.26-1.5.41-2.23.23-.49-.12-.99-.31-1.41-.63-.2-.15-.88-.55-.76-.83.1-.23.28,0,.44-.19.12-.05.19.06.29-.02.02-.15-.12-.14-.07-.32.12-.19.76.19.81.22.14.08.27.17.41.24.9.48,2.28.23,3.11-.33.54-.36.82-1.19.62-1.84-.17-.54-.57-.92-1.08-1.12-.53-.21-1.23-.06-1.83-.2-.95-.22-.83-1.26-.55-2,.34-.93.99-1.73,1.75-2.29.63-.47,1.36-.77,2.11-.93.58-.12,1.03.45.56.75-.51.32-.91.41-1.38.67-.6.32-1.28.74-1.64,1.33-.17.28-.31.68-.21.93"
        style="fill: #7c8087; fill-rule: evenodd;" />
      <path
        d="M288.5,78.23c.01.05.04-.02,0-.02.04-.1.09.19.02.13.22.8.02,10.11.09,10.95,1.79-.77,6.72-3.3,7.06-3.46.24-.11.49-.26.62.08-.07.16-.37.26-.58.33-.12.12-.29.17-.44.24.03.13.08.19,0,.33.11.03.27-.05.33-.07.09.06.25.17.21.32-.03.13-4.46,2.23-5.48,2.85.32.28.71.48,1.07.69,1.1.64,2.25,1.25,3.32,1.93.65.32,1.26.67,1.96.94.03-.46-.61-3.76-.78-4.97.1-.15.34-.23.53-.29.28-.08.47.18.63.38.18,1.92.6,3.78.87,5.68-.19.35-.38.5-.74.55-.19-.19-.25-.5-.34-.78-.06,0-.12-.01-.19-.02.06.15,0,.39-.15.49-.26,0-.36-.13-.6-.15-.11.05.01.22-.07.3-.75-.35-6.05-3.31-7.14-3.99-.06.28.41,4.58.36,5.01-.27.1-.31.5-.6.58-.12-.19-.13-.48-.16-.75-.05-.07-.15.04-.21-.04-.15-1.43-.28-2.88-.38-4.36-.23,0-.84.52-1.08.5-.31-.03-.3-.39-.02-.46-.04-.22-.25-.28-.32-.48.41-.33.87-.59,1.34-.83.02-1.72-.32-6.5-.28-7.76.02-.87-.04-1.73-.06-2.53,0-.26-.03-.54.1-.78.08-.06.15.05.25.05.05-.14.05-.32.19-.41.14,0,.11.22.25.15.02-.15.02-.47.2-.57.15.03.21.08.2.22"
        style="fill: #7c8087; fill-rule: evenodd;" />
      <path
        d="M274.31,83.9c.15.11.29.25.37.4.35.63.49,1.68.3,2.38-.17.66-.62,1.32-1.01,1.87-.21.29-.36.57-.59.81-.24.26-.48.48-.65.73.6.06,1.11-.02,1.61.25.96.53.87,1.66.41,2.54-.91,1.73-2.46,2.62-4.06,3.42-.66.33-1.65.35-2.22-.21-.42-.41-.5-1.2-.55-1.77-.07-1.02-.16-2.06-.16-3.08,0-.43.04-.91.04-1.29s0-.75.03-1.08c.03-.46.09-.77.42-.62.08.03.11.15.18.16-.08,1.72-.07,6.58,1.32,6.75.52.07,1.57-.57,1.96-.85.56-.4,3.4-2.6,2.17-3.12-1.39-.59-3.84.94-4.03,1.02-.23.09-.55.14-.65-.1.09-.31.35-.51.56-.74.2-.21.41-.43.63-.63.42-.4.83-.84,1.25-1.27.86-.86,1.69-1.76,2.18-2.93.71-1.72-1.09-1.94-2.2-1.76-.63.1-1.23.31-1.84.5-1.02.32-2,.74-2.98,1.18-.49.23-.92.52-1.29.83.23-.04.34.16.33.31-.07.73-2.3.77-1.61-.42.23-.4.68-.69,1.04-.94.72-.49,1.5-.89,2.29-1.26,1.28-.61,2.54-1.18,4.06-1.42.39-.06.83-.11,1.24-.11.42,0,1.01.15,1.43.45"
        style="fill: #7c8087; fill-rule: evenodd;" />
      <path
        d="M307.21,97.06h-.51c-3.11-.07-6.22.05-9.67.15-2.42.05-5.18.26-7.59.45,5.72-.4,11.74-.67,17.25-.52-.56.08-1.22.15-1.99.16-1.86,0-3.7.04-5.52.1v-.13c-5.17.31-10.02.38-15.16,1.09.18,0,.08.03.04.06h-.04s.04,0,.04,0c-.03.02-.01.03.31,0-.32.03-.34.02-.31,0,5.06-.57,9.82-.86,14.91-1.01-3.95.13-7.82.38-11.71.74-3.88.36-7.79.83-11.78,1.48l-1.36.23c-1.37.14-2.74.37-4.08.68.15-.12-.12-.18-.1-.27.03-.1.35-.25,1.71-.49l-.02-.12c-1.37.2-2.33.28-2.62.2-.29-.07.11-.34,1.47-.7,3.06-.8,7.2-1.32,10.99-1.84,2.76-.36,5.52-.66,8.29-.82,3.81-.21,7.97-.45,11.78-.44,1.39-.01,3.81-.16,4.51-.07.5.04.52.1.44.18-2.28.02-4.55.07-6.79.14-2.75.07-5.51.17-8.26.31,2.69-.11,5.46-.22,8.26-.31,2.24-.06,4.48-.09,6.72-.08-.08.07-.16.14-.02.19h1.04c1.38.13,1.04.36.35.52l-.6.11Z"
        style="fill: #7c8087;" />
    </g>
    <g>
      <path
        d="M126.56,98.14c-.57-.68-2.61-1.04-1.71-2.23.69-.91,2.47.54,2.83-.49.21-.6.52-2.94,1.66-1.38.26.35.07,1,.47,1.27.42.28,1.14-.12,1.6-.06,1.51.19.86,1.35.08,2-1.07.9-.06,1.36.07,2.39.19,1.53-1.75.29-2.43.23-.93-.08-2.17,1.66-2.68,1.09-.51-.57.11-2.81.11-2.81"
        style="fill: #c9cacb;" />
      <path
        d="M113.26,98.85c-.56-.27-1.97.11-1.75-.91.17-.78,1.73-.39,1.65-1.15-.04-.45-.54-2.02.64-1.37.27.15.34.61.68.67.35.06.69-.41,1-.51,1.02-.33.94.61.64,1.25-.42.89.37.88.75,1.5.57.92-1.03.68-1.47.87-.55.23-.77,1.83-1.26,1.62-.5-.21-.88-1.95-.88-1.95"
        style="fill: #c9cacb;" />
      <path
        d="M131.53,91.81c-.28-.34-1.28-.52-.83-1.1.34-.44,1.21.27,1.38-.23.1-.29.26-1.43.81-.67.13.17.03.49.23.62.2.14.56-.06.78-.03.74.1.41.66.03.98-.53.44-.03.66.03,1.17.09.75-.85.12-1.19.11-.41-.02-1.03.93-1.28.65-.25-.28.02-1.49.02-1.49"
        style="fill: #c9cacb;" />
      <path
        d="M83.29,79.02c-1.94.06-3.51.3-3.86.68-.31.33-.7.62-.71,1.07-.01.44.51.48.82.48.31,0,.6-.03.6-.21,0-.26-.42-.21-.42-.47,0-.3,1.61-.37,2.41-.37,6.89-.02,14.82,4.78,14.83,8.85.01,3.16-4.08,3.87-6.34,3.88-.8,0-1.58-.08-2.32-.22-.03-1.01-.09-3.12-.12-4.46.26,0,.5,0,.71,0,1.67,0,3.86.59,3.87.98,0,.34-.58.57-.58.89,0,.24.54.2,1.01.23.08,0,1.03-.52,1.02-1.36,0-1.11-1.38-2.42-5.87-2.41-.06,0-.13,0-.19,0-.04-1.25-.23-3.21-.93-3.21-.58,0-.75,2.16-.8,3.36-2.52.38-4.75,1.41-4.75,2.43,0,.83,1.8,2.92,4.71,4.19.05.94.23,1.58,1.06,1.58.6,0,.81-.45.87-.91.94.24,1.96.38,3.05.38,4.22-.01,7.61-2.28,7.6-5.4-.01-4.17-8.38-10.17-15.66-9.97M82.15,89.41c0-.73,2.19-1,4.23-1.11-.01,1.14-.03,2.78-.02,3.87-2.5-.89-4.2-2.3-4.2-2.77M101.36,91.24c.05,2.02-.15,2.09-.72,2.09-.64,0-.99-.29-.94-2.7.02-1.06.04-3.95.75-3.95.56,0,.82.74.91,4.56M100.83,85.58c1.58,0,4.1-1.81,4.09-3.31,0-.67-.35-1.02-1.21-1.14-.36-.35-.9-.74-1.69-.74-2.46,0-4.06,1.98-4.06,3.05,0,.4.13.88.48,1.29.01.85.22,1.08.5,1.08.31,0,.5-.18.61-.4.35.11.77.17,1.28.17M100.99,84.37c-.36,0-.67-.05-.93-.13.7-.79,2.39-2.29,3.22-2.29.54,0,.64.43.64.6,0,1-2.04,1.82-2.92,1.82M101.11,81.7c-.76.45-1.53,1.07-2.05,1.7-.03-.08-.04-.16-.04-.24,0-.48.7-1.23,2.09-1.46M103.52,88.54c0,.25,1.19.31,2.3.4,1.48.13,3.17.33,3.18,2.13,0,.74-.63,2.18-3.15,2.18-2.55,0-3.46-1.31-3.46-1.87,0-1.08,1.02-1.37,1.73-1.37.68,0,2.87.26,2.87.81,0,.3-.55.59-1.21.6-.66,0-1.62-.59-2.09-.59-.47,0-.67.32-.67.5,0,.18.03.55,1.27.55.6,0,3.54-.33,3.53-1.15,0-.37-1.35-.73-2.45-.84-1.36-.14-3.41.2-3.41-1.19,0-2.05,3.65-2.14,4.37-2.14.96,0,2.67-.01,2.67.66,0,1.12-5.48.51-5.49,1.33M115.45,90.47c0,.94-.58,2.39-1.56,2.39-.91,0-2.54-3.38-2.83-3.38-.4,0,.12,3.71-.88,3.71-.67,0-.83-.61-.83-1.52,0-.91.45-4.62,1.32-4.56.84.06,2.86,3.77,3.1,3.71.15-.04.17-.39.17-.59,0-.94-.97-3.39-.97-4.09,0-.23.04-.46.25-.46.83,0,2.25,2.64,2.26,4.79M120.78,92.13c-.02.22-1.65,1.49-3.46,1.55-1.14.04-1.56-1.22-1.56-1.78,0-.37.35-1.24.46-1.67.04-.14-.16-.33-.15-.44.05-.51.78-.56.84-.75.06-.17.22-.7.19-.85-.03-.14-1.05-.35-1.05-.87,0-.55,2.19-.54,3.87-.73.98-.11,1.78.82,1.71,1.04-.06.22-.26.36-.52.43-.16.04-2.26.1-2.58.23-.16.07-.25.71-.18.84.08.13,1.46.13,1.68.15.44.04.57,1-.14,1.04-.25.02-1.78,0-2.02.07-.25.08-.49,1.22-.36,1.33.13.12,2.09-.32,2.44-.32.35,0,.84.39.8.73M126.99,87.09c-.98.06-2.88,2.17-3.99,3.59-.07-.14-.11-.29-.11-.41,0-.6,1.12-2.4,1.33-2.85.22-.47-.03-1.09-.3-.87-.53.44-2.22,2.41-2.21,4.25,0,.42.11.94.35,1.41-.38,1.23-1.3,3.98-1.27,5.65.02.86.88,1.71,1.4,1.59.2-.04.24-1.17.5-1.94.37-1.1.95-3.11,1.15-3.97.09.01.19.02.29.02,2.06,0,4.35-2.22,4.34-4.12,0-1.91-1.13-2.36-1.48-2.34M124.62,91.81c.83-1.45,2.04-3.36,2.48-3.36.31,0,.43.32.43.79,0,1.41-1.7,2.59-2.91,2.57"
        style="fill: #84dade;" />
      <path
        d="M84.21,102.57c-1.62,0-2.97.75-3.83,2.11v-6.77h-4.62v1.48h1.09c.74,0,1.06.32,1.06,1.06v15.02h1.37l.79-2.03c.92,1.52,2.31,2.28,4.14,2.28,3.38,0,5.57-2.58,5.57-6.58s-2.19-6.58-5.57-6.58M83.71,114.02c-3.01,0-3.34-3.4-3.34-4.86s.32-4.86,3.34-4.86,3.34,3.4,3.34,4.86-.33,4.86-3.34,4.86M102.99,107.28c0,1.37-.36,2.07-1.08,2.07-.5,0-.54-.95-.54-1.24v-6.06c0-3.86-2.55-4.38-5.05-4.38-1.95,0-5.05.87-5.05,3.22,0,1.22.57,1.97,1.48,1.97.78,0,1.69-.39,1.69-1.51,0-.74-.36-1.21-1.06-1.4.58-.54,1.49-.8,2.76-.8,2.3,0,2.77.8,2.77,2.09,0,.71-.14,1.17-.91,1.54-.73.35-1.61.59-2.54.84-2.37.65-4.81,1.32-4.81,3.83,0,2.14,1.44,3.37,3.94,3.37,1.83,0,3.27-.6,4.5-1.87.29,1.19,1.14,1.87,2.36,1.87,2.13,0,3.03-1.16,3.03-3.89v-.89h-1.48v1.22ZM98.9,106.09c0,1.72-2.02,3.26-3.62,3.26-1.23,0-1.91-.72-1.91-2.01,0-.83.51-1.36,1.89-1.95.6-.25,1.13-.44,1.65-.63.73-.26,1.37-.49,1.99-.82v2.15ZM112.48,102.83c-1.62,0-2.97.75-3.83,2.11v-6.77h-4.62v1.48h1.09c.74,0,1.06.32,1.06,1.06v15.02h1.37l.79-2.03c.92,1.52,2.31,2.28,4.14,2.28,3.38,0,5.57-2.58,5.57-6.58s-2.19-6.58-5.57-6.58M111.99,114.28c-3.01,0-3.34-3.4-3.34-4.86s.32-4.86,3.34-4.86,3.34,3.4,3.34,4.86-.33,4.86-3.34,4.86M126.35,102.58h6.43v1.48h-.86c-.83,0-1.38.97-1.64,1.55l-5.41,12.12c-.73,1.65-2.35,2.72-4.14,2.72-1.52,0-3.09-1.04-3.09-2.77,0-1.61.94-2.18,1.74-2.18.74,0,1.53.46,1.53,1.48,0,.8-.53,1.27-1.5,1.32.18.35.71.67,1.34.67,1.08,0,1.9-.55,2.44-1.63l1.21-2.45-4.35-9.52c-.44-.97-.88-1.29-1.74-1.29h-.68v-1.48h6.97v1.48h-.7c-1.35,0-1.45.14-1.45.38s.21.73.49,1.41l.17.4,2.44,5.77,2.9-6.7c.08-.22.17-.45.17-.78,0-.3-.55-.49-1.45-.49h-.86v-1.48Z"
        style="fill: #ff8672;" />
    </g>
    <g>
      <g style="clip-path: url(#clippath);">
        <g>
          <rect x="48.71" y="161.38" width="114.65" height="11.26" style="fill: #84dade;" />
          <path
            d="M70.88,140.7c.76-.23,1.77-1.8,2.44-.64.51.89-1.3,1.85-.57,2.51.42.38,2.25,1.44.57,1.85-.38.09-.85-.29-1.21-.05-.38.25-.3.98-.5,1.35-.68,1.18-1.41.24-1.68-.63-.37-1.2-1.1-.52-2-.77-1.33-.37.39-1.53.65-2.09.32-.68-.85-2.39-.2-2.62s2.51,1.09,2.51,1.09Z"
            style="fill: #84dade;" />
          <path
            d="M55.13,139.89c-.14-.94-1.82-2.41-.33-3,1.14-.45,1.97,1.87,2.87,1.12.53-.44,2.1-2.41,2.29-.35.04.47-.49.96-.27,1.43.23.49,1.11.52,1.51.83,1.28,1.01.04,1.71-1.04,1.88-1.49.23-.81,1.22-1.26,2.23-.67,1.51-1.75-.73-2.36-1.13-.75-.5-2.98.59-3.14-.22s1.73-2.79,1.73-2.79Z"
            style="fill: #84dade;" />
          <path
            d="M157.83,142.24c-.61-.55-2.54-.59-1.88-1.81.51-.93,2.34.15,2.53-.84.11-.58.07-2.76,1.33-1.5.29.29.2.91.61,1.1.42.2,1.03-.27,1.46-.28,1.41-.03.97,1.12.35,1.82-.86.97.13,1.26.39,2.18.39,1.38-1.57.48-2.19.55-.78.08-1.66,2.04-2.21,1.58s-.39-2.81-.39-2.81Z"
            style="fill: #84dade;" />
          <path
            d="M61.09,123.05c.27.22,1.08.2.83.73-.2.4-.99-.02-1.05.4-.04.25.02,1.17-.53.66-.13-.12-.1-.38-.28-.45-.18-.08-.43.13-.61.14-.6.04-.43-.46-.18-.76.35-.43-.08-.53-.21-.91-.19-.57.65-.23.92-.27.33-.05.66-.89.91-.71s.22,1.18.22,1.18Z"
            style="fill: #84dade;" />
          <path
            d="M74.86,129.99c.42-.13.97-.99,1.34-.35.28.49-.71,1.02-.31,1.37.23.21,1.23.79.31,1.01-.21.05-.47-.16-.66-.03-.21.14-.16.54-.28.74-.37.65-.77.13-.92-.34-.2-.66-.6-.28-1.09-.42-.73-.2.21-.84.36-1.14.18-.37-.46-1.31-.11-1.44s1.38.6,1.38.6Z"
            style="fill: #84dade;" />
          <path
            d="M92.77,126.66c.4.18,1.38-.1,1.23.62-.11.55-1.21.29-1.15.82.04.31.4,1.41-.44.96-.19-.1-.24-.43-.48-.46-.24-.04-.48.3-.7.37-.71.24-.67-.42-.46-.87.28-.63-.26-.61-.54-1.04-.41-.64.72-.49,1.02-.62.38-.16.52-1.29.87-1.15s.63,1.36.63,1.36Z"
            style="fill: #84dade;" />
          <path
            d="M87.59,141.53c.8.19,2.51-.69,2.5.69,0,1.05-2.12.98-1.81,1.94.18.56,1.25,2.45-.45,1.94-.39-.11-.61-.7-1.06-.67-.47.02-.77.72-1.15.94-1.22.7-1.38-.52-1.17-1.43.29-1.26-.71-1.03-1.38-1.72-.99-1.02,1.14-1.17,1.66-1.52.64-.44.48-2.57,1.18-2.44s1.68,2.27,1.68,2.27Z"
            style="fill: #84dade;" />
          <path
            d="M76.47,147.09c-.01-.45-.72-1.23.01-1.42.56-.15.82.98,1.28.68.27-.18,1.12-1.01,1.09-.04,0,.22-.28.42-.21.65.08.24.49.31.66.47.54.55-.08.81-.59.82-.71.03-.45.53-.71.98-.4.67-.78-.44-1.04-.66-.32-.28-1.43.11-1.46-.28s.96-1.21.96-1.21Z"
            style="fill: #84dade;" />
          <path
            d="M64.34,135.92c.18-.26.09-.99.59-.8.38.14.06.89.45.91.22.01,1.04-.11.63.42-.09.12-.33.12-.38.29-.05.17.15.37.18.54.08.53-.37.42-.67.22-.41-.27-.47.11-.8.26-.5.22-.27-.56-.32-.8-.07-.32-.78-.57-.63-.8s.96-.24.96-.24Z"
            style="fill: #84dade;" />
          <path
            d="M99.12,144.52c1.17-.09,3.12-2.03,3.72-.14.46,1.44-2.47,2.26-1.63,3.43.49.69,2.78,2.8.23,2.85-.58.01-1.13-.69-1.73-.46-.62.24-.74,1.32-1.16,1.78-1.36,1.49-2.11-.11-2.22-1.44-.15-1.85-1.43-1.1-2.63-1.75-1.8-.96,1.02-2.11,1.6-2.8.79-.95-.14-3.61.87-3.73s2.95,2.26,2.95,2.26Z"
            style="fill: #84dade;" />
          <path
            d="M51.88,144.79c1.04.54,3.72-.09,3.24,1.83-.37,1.47-3.29.63-3.18,2.07.06.84.9,3.84-1.3,2.54-.5-.29-.6-1.18-1.24-1.3-.65-.13-1.32.74-1.92.91-1.94.55-1.74-1.2-1.14-2.39.84-1.65-.64-1.68-1.33-2.87-1.03-1.76,1.98-1.26,2.83-1.54,1.17-.39,1.78-3.14,2.7-2.72.92.43,1.33,3.47,1.33,3.47Z"
            style="fill: #84dade;" />
          <path
            d="M57.46,149.23c.5-.79.17-2.96,1.67-2.45,1.14.39.28,2.65,1.43,2.66.67.01,3.11-.46,1.93,1.2-.27.38-.98.4-1.11.89-.14.51.5,1.1.59,1.58.31,1.58-1.07,1.3-1.97.74-1.26-.78-1.38.39-2.36.86-1.47.7-.87-1.65-1.04-2.35-.23-.96-2.38-1.62-1.98-2.32s2.84-.82,2.84-.82Z"
            style="fill: #84dade;" />
          <path
            d="M151.59,150.02c1.68-1.03,3.1-5.4,5.43-3.04,1.78,1.8-1.96,5.25.19,6.35,1.25.65,6.27,2.06,2.51,4.07-.85.46-2.21-.16-2.93.64-.75.83-.1,2.54-.37,3.53-.89,3.26-3.23,1.45-4.41-.46-1.64-2.64-2.96-.55-5.26-.59-3.41-.06-.02-3.91.26-5.4.35-1.83-3.52-5.2-2.11-6.14,1.42-.95,6.69,1.04,6.69,1.04Z"
            style="fill: #84dade;" />
          <path
            d="M145.82,123.45c.21-.14.36-.72.68-.43.24.22-.22.69.07.82.17.08.83.22.35.51-.11.07-.29,0-.37.1-.09.11,0,.33-.02.46-.09.43-.41.21-.57-.03-.23-.33-.39-.05-.68-.04-.44.02-.04-.51,0-.7.05-.26-.42-.66-.24-.79s.8.1.8.1Z"
            style="fill: #84dade;" />
          <path
            d="M91.06,137.95c.05-.27-.29-.83.18-.86.36-.02.38.69.7.57.19-.07.8-.48.67.11-.03.13-.22.22-.2.37.02.16.26.24.34.37.27.4-.14.48-.46.43-.43-.07-.33.27-.55.51-.32.36-.42-.36-.55-.53-.16-.21-.88-.1-.85-.34s.73-.62.73-.62Z"
            style="fill: #84dade;" />
          <path
            d="M104.95,129.76c.27-.22.43-1.01.89-.65.35.28-.23.96.17,1.11.23.09,1.14.23.53.66-.14.1-.39.02-.5.18-.11.16.04.45.01.63-.09.59-.54.32-.78.02-.34-.43-.53-.03-.94,0-.6.06-.09-.69-.07-.95.02-.33-.73-.84-.5-1.03s1.2.04,1.2.04Z"
            style="fill: #84dade;" />
          <path
            d="M152.46,128.94c.35,0,.96-.53,1.1.04.1.43-.78.61-.55.98.13.21.76.88,0,.85-.17,0-.32-.23-.5-.17-.19.06-.25.37-.38.5-.43.41-.62-.08-.63-.47,0-.55-.4-.36-.74-.57-.51-.32.35-.59.53-.79.22-.25-.06-1.11.24-1.12s.92.77.92.77Z"
            style="fill: #84dade;" />
          <path
            d="M61.12,160c1.57.1,4.53-2.1,4.97.52.33,2-3.71,2.53-2.81,4.25.52,1.01,3.16,4.25-.24,3.83-.77-.09-1.37-1.13-2.22-.94-.87.19-1.24,1.62-1.87,2.14-2.09,1.72-2.79-.54-2.68-2.34.15-2.48-1.68-1.73-3.17-2.82-2.2-1.62,1.76-2.61,2.66-3.41,1.23-1.11.5-4.82,1.87-4.79s3.49,3.56,3.49,3.56Z"
            style="fill: #84dade;" />
          <circle cx="70.62" cy="134.66" r=".81" style="fill: #ff8672;" />
          <circle cx="93.94" cy="142.23" r=".46" style="fill: #ff8672;" />
          <circle cx="86.36" cy="134.53" r=".57" style="fill: #ff8672;" />
          <circle cx="51.09" cy="138.44" r=".57" style="fill: #ff8672;" />
          <circle cx="52.43" cy="127.02" r=".88" style="fill: #ff8672;" />
          <circle cx="80.22" cy="140.08" r=".97" style="fill: #ff8672;" />
          <circle cx="65.27" cy="130.33" r=".73" style="fill: #ff8672;" />
          <circle cx="82.68" cy="131.53" r=".8" style="fill: #ff8672;" />
          <circle cx="58.26" cy="132.04" r=".57" style="fill: #ff8672;" />
          <circle cx="88.08" cy="149.77" r="1.35" style="fill: #ff8672;" />
          <circle cx="81.2" cy="152.19" r=".73" style="fill: #ff8672;" />
          <path
            d="M103.23,138.44c-.51-.16-1.17-1.2-1.62-.43-.34.59.86,1.24.38,1.67-.28.25-1.5.96-.38,1.23.25.06.57-.19.81-.03.25.17.2.66.33.9.45.79.94.16,1.12-.41.25-.8.74-.34,1.33-.51.89-.25-.26-1.02-.43-1.39-.21-.45.57-1.59.14-1.74s-1.68.72-1.68.72Z"
            style="fill: #84dade;" />
          <path
            d="M120.02,131.36c-.48-.14-1.11-1.13-1.53-.4-.32.55.82,1.16.36,1.57-.27.24-1.41.9-.36,1.16.24.06.53-.18.76-.03.24.15.19.62.32.84.43.74.88.15,1.05-.39.23-.75.69-.33,1.25-.48.83-.23-.24-.96-.41-1.31-.2-.43.53-1.5.12-1.64s-1.57.68-1.57.68Z"
            style="fill: #84dade;" />
          <path
            d="M50.77,131.8c-.5-.15-1.16-1.18-1.59-.42-.34.58.85,1.21.38,1.64-.28.25-1.47.95-.37,1.21.25.06.56-.19.79-.03.25.16.19.64.33.88.45.77.92.16,1.1-.41.24-.78.72-.34,1.31-.5.87-.24-.25-1-.43-1.36-.21-.45.55-1.57.13-1.71s-1.64.71-1.64.71Z"
            style="fill: #84dade;" />
          <path
            d="M142.52,149.42c.33-1.29,2.88-3.07.9-4.11-1.51-.8-3.01,2.3-4.15,1.13-.67-.68-2.56-3.65-3.13-.82-.13.64.54,1.4.16,2.02-.39.65-1.62.56-2.21.93-1.93,1.22-.3,2.37,1.16,2.76,2.03.54.94,1.81,1.42,3.28.71,2.19,2.56-.72,3.44-1.23,1.21-.7,3.99.87,4.33-.23s-1.93-3.74-1.93-3.74Z"
            style="fill: #84dade;" />
          <path
            d="M144.46,135.43c-.28-.73.33-2.45-.97-2.27-.99.13-.65,2.12-1.6,1.95-.55-.1-2.47-.87-1.77.67.16.35.73.48.77.91.04.44-.58.82-.74,1.2-.51,1.24.66,1.24,1.49.92,1.15-.43,1.06.54,1.79,1.09,1.09.81.95-1.22,1.23-1.75.33-.66,2.36-.78,2.15-1.42s-2.35-1.29-2.35-1.29Z"
            style="fill: #84dade;" />
          <path
            d="M115.54,143.21c.59-.72,2.74-1.1,1.79-2.35-.73-.95-2.59.57-2.97-.51-.22-.63-.55-3.08-1.74-1.45-.27.37-.07,1.05-.5,1.33-.44.3-1.2-.12-1.68-.06-1.59.2-.9,1.42-.08,2.1,1.13.94.06,1.43-.07,2.51-.2,1.61,1.84.27,2.55.24.88-.04,2.2,2,2.74,1.4s-.04-3.21-.04-3.21Z"
            style="fill: #84dade;" />
          <path
            d="M73.05,152.35c1.57.1,4.53-2.1,4.97.52.33,2-3.71,2.53-2.82,4.25.52,1.01,3.16,4.25-.24,3.83-.77-.09-1.37-1.13-2.22-.94-.87.19-1.24,1.62-1.87,2.14-2.09,1.72-2.79-.54-2.68-2.34.15-2.48-1.68-1.73-3.17-2.82-2.2-1.62,1.76-2.61,2.66-3.41,1.23-1.11.5-4.82,1.87-4.79s3.49,3.56,3.49,3.56Z"
            style="fill: #84dade;" />
          <path
            d="M99.04,157.99c1.76.54,5.69-1.17,5.49,1.92-.16,2.36-4.88,1.87-4.32,4.06.32,1.28,2.44,5.65-1.29,4.27-.85-.31-1.25-1.65-2.26-1.65-1.04-.01-1.83,1.5-2.7,1.93-2.83,1.39-3.01-1.36-2.41-3.37.83-2.77-1.44-2.41-2.83-4.04-2.06-2.42,2.72-2.44,3.93-3.16,1.49-.89,1.46-5.67,2.99-5.27s3.41,5.31,3.41,5.31Z"
            style="fill: #84dade;" />
          <path
            d="M82.16,156.95c.91-.51,1.75-2.81,2.94-1.51.91.99-1.14,2.75-.02,3.38.65.37,3.29,1.21,1.25,2.21-.46.23-1.17-.13-1.57.28-.41.42-.1,1.34-.26,1.87-.54,1.71-1.74.71-2.33-.33-.82-1.43-1.56-.35-2.78-.42-1.81-.1.06-2.08.24-2.86.22-.97-1.77-2.83-1-3.3s3.53.68,3.53.68Z"
            style="fill: #84dade;" />
          <path
            d="M114.19,153.41c-1.36-.81-2.56-4.31-4.41-2.38-1.41,1.47,1.64,4.2-.07,5.11-1,.54-5.02,1.73-1.97,3.31.69.36,1.78-.16,2.37.48.61.66.11,2.04.34,2.84.76,2.61,2.62,1.13,3.54-.42,1.28-2.14,2.38-.48,4.22-.54,2.75-.09-.03-3.15-.27-4.34-.3-1.47,2.77-4.22,1.62-4.97s-5.37.91-5.37.91Z"
            style="fill: #84dade;" />
          <path
            d="M150.96,142.16c-.17-.54.36-1.77-.59-1.7-.73.05-.58,1.51-1.26,1.34-.4-.1-1.75-.76-1.33.4.1.26.51.39.51.7,0,.32-.47.57-.6.84-.43.88.42.93,1.04.75.86-.26.75.45,1.25.88.75.64.76-.84.98-1.22.28-.46,1.76-.45,1.64-.93s-1.65-1.06-1.65-1.06Z"
            style="fill: #84dade;" />
          <path
            d="M107.31,149.61c.01-.45.72-1.23-.01-1.42-.56-.15-.82.98-1.28.68-.27-.18-1.12-1.01-1.09-.04,0,.22.28.42.21.65-.08.24-.49.31-.66.47-.54.55.08.81.59.82.71.03.45.53.71.98.4.67.78-.44,1.04-.66.32-.28,1.43.11,1.46-.28s-.96-1.21-.96-1.21Z"
            style="fill: #84dade;" />
          <path
            d="M141.17,159.59c-.45-1.22.61-4.06-1.56-3.8-1.66.2-1.14,3.52-2.7,3.21-.92-.18-4.08-1.51-2.97,1.08.25.59,1.21.82,1.25,1.53.05.74-.99,1.35-1.26,1.98-.87,2.05,1.08,2.07,2.47,1.57,1.93-.69,1.76.93,2.96,1.85,1.79,1.37,1.65-1.99,2.08-2.89.59-1.23,3.69-1.52,3.35-2.58s-3.62-1.93-3.62-1.93Z"
            style="fill: #84dade;" />
          <circle cx="106.56" cy="145.21" r=".49" style="fill: #ff8672;" />
          <circle cx="69.59" cy="125.53" r=".49" style="fill: #ff8672;" />
          <circle cx="58.04" cy="118.64" r=".34" style="fill: #ff8672;" />
          <circle cx="157.05" cy="127.2" r=".34" style="fill: #ff8672;" />
          <circle cx="97.52" cy="132.89" r=".91" style="fill: #ff8672;" />
          <circle cx="126.86" cy="129.14" r=".81" style="fill: #ff8672;" />
          <circle cx="142.47" cy="143.5" r=".81" style="fill: #ff8672;" />
          <circle cx="157.89" cy="134.94" r=".81" style="fill: #ff8672;" />
          <circle cx="64.47" cy="142.86" r=".81" style="fill: #ff8672;" />
          <circle cx="149.82" cy="120.24" r=".49" style="fill: #ff8672;" />
          <circle cx="95.59" cy="123.43" r=".49" style="fill: #ff8672;" />
          <circle cx="113.21" cy="133.24" r=".49" style="fill: #ff8672;" />
          <circle cx="120.02" cy="147.6" r=".99" style="fill: #ff8672;" />
          <circle cx="104.2" cy="155.74" r=".99" style="fill: #ff8672;" />
          <circle cx="122.32" cy="139.8" r="1.46" style="fill: #ff8672;" />
          <circle cx="150.17" cy="135.8" r="1.01" style="fill: #ff8672;" />
          <path
            d="M51.5,154.43c1.17-.09,3.12-2.03,3.72-.14.46,1.44-2.47,2.26-1.63,3.43.49.69,2.78,2.8.23,2.85-.58.01-1.13-.69-1.73-.46-.62.24-.74,1.32-1.16,1.78-1.36,1.49-2.11-.11-2.22-1.44-.15-1.85-1.43-1.1-2.63-1.75-1.8-.96,1.02-2.11,1.6-2.8.79-.95-.14-3.61.87-3.73s2.95,2.26,2.95,2.26Z"
            style="fill: #84dade;" />
          <path
            d="M110.25,165.22c1.04.54,3.72-.09,3.24,1.83-.37,1.47-3.29.63-3.18,2.07.06.84.9,3.84-1.3,2.54-.5-.29-.6-1.18-1.24-1.3-.65-.13-1.32.74-1.92.91-1.94.55-1.74-1.2-1.14-2.39.84-1.65-.64-1.68-1.33-2.87-1.03-1.76,1.98-1.26,2.83-1.54,1.17-.39,1.78-3.14,2.7-2.72s1.33,3.47,1.33,3.47Z"
            style="fill: #84dade;" />
          <path
            d="M117.15,162.78c1.57.1,4.53-2.1,4.97.52.33,2-3.71,2.53-2.81,4.25.52,1.01,3.16,4.25-.24,3.83-.77-.09-1.37-1.13-2.22-.94-.87.19-1.24,1.62-1.87,2.14-2.09,1.72-2.79-.54-2.68-2.34.15-2.48-1.68-1.73-3.17-2.82-2.2-1.62,1.76-2.61,2.66-3.41,1.23-1.11.5-4.82,1.87-4.79,1.36.03,3.49,3.56,3.49,3.56Z"
            style="fill: #84dade;" />
          <path
            d="M161.96,148.09c.5-.8.18-3,1.69-2.48,1.15.39.28,2.69,1.45,2.7.68.01,3.15-.46,1.96,1.22-.27.38-.99.41-1.13.91-.15.52.5,1.11.6,1.6.31,1.6-1.08,1.32-2,.75-1.27-.79-1.4.4-2.4.87-1.49.71-.88-1.68-1.05-2.38-.23-.97-2.41-1.64-2-2.35s2.88-.84,2.88-.84Z"
            style="fill: #84dade;" />
          <circle cx="63" cy="147.49" r=".59" style="fill: #ff8672;" />
          <circle cx="154.79" cy="144.2" r=".73" style="fill: #ff8672;" />
          <path
            d="M164.56,165.7c1.24-.39,4.03.78,3.86-1.4-.13-1.66-3.46-1.29-3.09-2.84.22-.91,1.68-4.02-.95-3.01-.6.23-.87,1.17-1.58,1.19-.74.02-1.31-1.05-1.92-1.34-2.01-.96-2.12.99-1.68,2.4.61,1.95-1,1.72-1.97,2.88-1.44,1.73,1.92,1.74,2.8,2.2,1.21.64,1.36,3.75,2.44,3.46s2.09-3.54,2.09-3.54Z"
            style="fill: #84dade;" />
          <circle cx="91.35" cy="155.1" r=".99" style="fill: #ff8672;" />
          <path
            d="M128.1,146.03c.7-.16,1.72-1.51,2.25-.41.4.84-1.3,1.59-.69,2.23.36.37,1.93,1.46.39,1.71-.35.06-.75-.32-1.09-.13-.36.2-.33.87-.55,1.18-.7,1.02-1.29.12-1.48-.68-.26-1.11-.96-.54-1.76-.83-1.18-.43.46-1.36.73-1.84.34-.59-.61-2.22,0-2.38s2.2,1.15,2.2,1.15Z"
            style="fill: #84dade;" />
          <path
            d="M131.46,134.32c1.04-.28,2.45-2.36,3.31-.77.66,1.21-1.83,2.45-.87,3.36.56.53,2.97,2.03.69,2.52-.52.11-1.13-.42-1.63-.11-.52.32-.44,1.31-.73,1.79-.97,1.57-1.91.27-2.24-.91-.46-1.63-1.47-.74-2.66-1.11-1.78-.55.55-2.07.96-2.79.55-.99-.74-3.22.14-3.5s3.04,1.52,3.04,1.52Z"
            style="fill: #84dade;" />
          <circle cx="137.46" cy="136.65" r=".46" style="fill: #ff8672;" />
          <path
            d="M124.5,157.48c-1.39-.11-3.69-2.43-4.41-.19-.55,1.7,2.91,2.69,1.91,4.08-.59.81-3.31,3.3-.29,3.38.69.02,1.35-.81,2.06-.53.74.28.87,1.57,1.36,2.12,1.6,1.77,2.5-.11,2.64-1.7.19-2.19,1.7-1.3,3.13-2.05,2.14-1.13-1.23-2.48-1.88-3.33-.8-1.05.57-4.41-.63-4.56s-3.9,2.79-3.9,2.79Z"
            style="fill: #84dade;" />
          <circle cx="123.13" cy="153.27" r=".49" style="fill: #ff8672;" />
          <circle cx="139.76" cy="130.5" r=".99" style="fill: #ff8672;" />
          <circle cx="133.88" cy="145.66" r=".99" style="fill: #ff8672;" />
        </g>
      </g>
      <path
        d="M62.85,53.97h87.53c7.11,0,12.89,5.77,12.89,12.89v87.55c0,7.11-5.77,12.88-12.88,12.88H62.85c-7.11,0-12.88-5.77-12.88-12.88v-87.56c0-7.11,5.77-12.88,12.88-12.88Z"
        style="fill: none; stroke: #ed3594; stroke-miterlimit: 10; stroke-width: .19px;" />
    </g>
    <path d="M287.46,69.26c2.35,0,4.25-1.91,4.25-4.25s-1.9-4.25-4.25-4.25-4.25,1.9-4.25,4.25,1.9,4.25,4.25,4.25"
      style="fill: none; stroke: #ec008c; stroke-width: .19px;" />
    <g>
      <g style="clip-path: url(#clippath-1);">
        <g>
          <rect x="229.55" y="161.38" width="114.65" height="11.26" style="fill: #84dade;" />
          <path
            d="M251.72,140.7c.76-.23,1.77-1.8,2.44-.64.51.89-1.3,1.85-.57,2.51.42.38,2.25,1.44.57,1.85-.38.09-.85-.29-1.21-.05-.38.25-.3.98-.5,1.35-.68,1.18-1.41.24-1.68-.63-.37-1.2-1.1-.52-2-.77-1.33-.37.39-1.53.65-2.09.32-.68-.85-2.39-.2-2.62s2.51,1.09,2.51,1.09Z"
            style="fill: #84dade;" />
          <path
            d="M235.97,139.89c-.14-.94-1.82-2.41-.33-3,1.14-.45,1.97,1.87,2.87,1.12.53-.44,2.1-2.41,2.29-.35.04.47-.49.96-.27,1.43.23.49,1.11.52,1.51.83,1.28,1.01.04,1.71-1.04,1.88-1.49.23-.81,1.22-1.26,2.23-.67,1.51-1.75-.73-2.36-1.13-.75-.5-2.98.59-3.14-.22s1.73-2.79,1.73-2.79Z"
            style="fill: #84dade;" />
          <path
            d="M338.66,142.24c-.61-.55-2.54-.59-1.88-1.81.51-.93,2.34.15,2.53-.84.11-.58.07-2.76,1.33-1.5.29.29.2.91.61,1.1.42.2,1.03-.27,1.46-.28,1.41-.03.97,1.12.35,1.82-.86.97.13,1.26.39,2.18.39,1.38-1.57.48-2.19.55-.78.08-1.66,2.04-2.21,1.58s-.39-2.81-.39-2.81Z"
            style="fill: #84dade;" />
          <path
            d="M241.93,123.05c.27.22,1.08.2.83.73-.2.4-.99-.02-1.05.4-.04.25.02,1.17-.53.66-.13-.12-.1-.38-.28-.45-.18-.08-.43.13-.61.14-.6.04-.43-.46-.18-.76.35-.43-.08-.53-.21-.91-.19-.57.65-.23.92-.27.33-.05.66-.89.91-.71s.22,1.18.22,1.18Z"
            style="fill: #84dade;" />
          <path
            d="M255.69,129.99c.42-.13.97-.99,1.34-.35.28.49-.71,1.02-.31,1.37.23.21,1.23.79.31,1.01-.21.05-.47-.16-.66-.03-.21.14-.16.54-.28.74-.37.65-.77.13-.92-.34-.2-.66-.6-.28-1.09-.42-.73-.2.21-.84.36-1.14.18-.37-.46-1.31-.11-1.44s1.38.6,1.38.6Z"
            style="fill: #84dade;" />
          <path
            d="M273.61,126.66c.4.18,1.38-.1,1.23.62-.11.55-1.21.29-1.15.82.04.31.4,1.41-.44.96-.19-.1-.24-.43-.48-.46-.24-.04-.48.3-.7.37-.71.24-.67-.42-.46-.87.28-.63-.26-.61-.54-1.04-.41-.64.72-.49,1.02-.62.38-.16.52-1.29.87-1.15s.63,1.36.63,1.36Z"
            style="fill: #84dade;" />
          <path
            d="M268.43,141.53c.8.19,2.51-.69,2.5.69,0,1.05-2.12.98-1.81,1.94.18.56,1.25,2.45-.45,1.94-.39-.11-.61-.7-1.06-.67-.47.02-.77.72-1.15.94-1.22.7-1.38-.52-1.17-1.43.29-1.26-.71-1.03-1.38-1.72-.99-1.02,1.14-1.17,1.66-1.52.64-.44.48-2.57,1.18-2.44s1.68,2.27,1.68,2.27Z"
            style="fill: #84dade;" />
          <path
            d="M257.31,147.09c-.01-.45-.72-1.23.01-1.42.56-.15.82.98,1.28.68.27-.18,1.12-1.01,1.09-.04,0,.22-.28.42-.21.65.08.24.49.31.66.47.54.55-.08.81-.59.82-.71.03-.45.53-.71.98-.4.67-.78-.44-1.04-.66-.32-.28-1.43.11-1.46-.28s.96-1.21.96-1.21Z"
            style="fill: #84dade;" />
          <path
            d="M245.18,135.92c.18-.26.09-.99.59-.8.38.14.06.89.45.91.22.01,1.04-.11.63.42-.09.12-.33.12-.38.29-.05.17.15.37.18.54.08.53-.37.42-.67.22-.41-.27-.47.11-.8.26-.5.22-.27-.56-.32-.8-.07-.32-.78-.57-.63-.8s.96-.24.96-.24Z"
            style="fill: #84dade;" />
          <path
            d="M279.96,144.52c1.17-.09,3.12-2.03,3.72-.14.46,1.44-2.47,2.26-1.63,3.43.49.69,2.78,2.8.23,2.85-.58.01-1.13-.69-1.73-.46-.62.24-.74,1.32-1.16,1.78-1.36,1.49-2.11-.11-2.22-1.44-.15-1.85-1.43-1.1-2.63-1.75-1.8-.96,1.02-2.11,1.6-2.8.79-.95-.14-3.61.87-3.73s2.95,2.26,2.95,2.26Z"
            style="fill: #84dade;" />
          <path
            d="M232.72,144.79c1.04.54,3.72-.09,3.24,1.83-.37,1.47-3.29.63-3.18,2.07.06.84.9,3.84-1.3,2.54-.5-.29-.6-1.18-1.24-1.3-.65-.13-1.32.74-1.92.91-1.94.55-1.74-1.2-1.14-2.39.84-1.65-.64-1.68-1.33-2.87-1.03-1.76,1.98-1.26,2.83-1.54,1.17-.39,1.78-3.14,2.7-2.72.92.43,1.33,3.47,1.33,3.47Z"
            style="fill: #84dade;" />
          <path
            d="M238.29,149.23c.5-.79.17-2.96,1.67-2.45,1.14.39.28,2.65,1.43,2.66.67.01,3.11-.46,1.93,1.2-.27.38-.98.4-1.11.89-.14.51.5,1.1.59,1.58.31,1.58-1.07,1.3-1.97.74-1.26-.78-1.38.39-2.36.86-1.47.7-.87-1.65-1.04-2.35-.23-.96-2.38-1.62-1.98-2.32s2.84-.82,2.84-.82Z"
            style="fill: #84dade;" />
          <path
            d="M332.43,150.02c1.68-1.03,3.1-5.4,5.43-3.04,1.78,1.8-1.96,5.25.19,6.35,1.25.65,6.27,2.06,2.51,4.07-.85.46-2.21-.16-2.93.64-.75.83-.1,2.54-.37,3.53-.89,3.26-3.23,1.45-4.41-.46-1.64-2.64-2.96-.55-5.26-.59-3.41-.06-.02-3.91.26-5.4.35-1.83-3.52-5.2-2.11-6.14,1.42-.95,6.69,1.04,6.69,1.04Z"
            style="fill: #84dade;" />
          <path
            d="M326.65,123.45c.21-.14.36-.72.68-.43.24.22-.22.69.07.82.17.08.83.22.35.51-.11.07-.29,0-.37.1-.09.11,0,.33-.02.46-.09.43-.41.21-.57-.03-.23-.33-.39-.05-.68-.04-.44.02-.04-.51,0-.7.05-.26-.42-.66-.24-.79s.8.1.8.1Z"
            style="fill: #84dade;" />
          <path
            d="M271.89,137.95c.05-.27-.29-.83.18-.86.36-.02.38.69.7.57.19-.07.8-.48.67.11-.03.13-.22.22-.2.37.02.16.26.24.34.37.27.4-.14.48-.46.43-.43-.07-.33.27-.55.51-.32.36-.42-.36-.55-.53-.16-.21-.88-.1-.85-.34s.73-.62.73-.62Z"
            style="fill: #84dade;" />
          <path
            d="M285.78,129.76c.27-.22.43-1.01.89-.65.35.28-.23.96.17,1.11.23.09,1.14.23.53.66-.14.1-.39.02-.5.18-.11.16.04.45.01.63-.09.59-.54.32-.78.02-.34-.43-.53-.03-.94,0-.6.06-.09-.69-.07-.95.02-.33-.73-.84-.5-1.03s1.2.04,1.2.04Z"
            style="fill: #84dade;" />
          <path
            d="M333.29,128.94c.35,0,.96-.53,1.1.04.1.43-.78.61-.55.98.13.21.76.88,0,.85-.17,0-.32-.23-.5-.17-.19.06-.25.37-.38.5-.43.41-.62-.08-.63-.47,0-.55-.4-.36-.74-.57-.51-.32.35-.59.53-.79.22-.25-.06-1.11.24-1.12s.92.77.92.77Z"
            style="fill: #84dade;" />
          <path
            d="M241.96,160c1.57.1,4.53-2.1,4.97.52.33,2-3.71,2.53-2.81,4.25.52,1.01,3.16,4.25-.24,3.83-.77-.09-1.37-1.13-2.22-.94-.87.19-1.24,1.62-1.87,2.14-2.09,1.72-2.79-.54-2.68-2.34.15-2.48-1.68-1.73-3.17-2.82-2.2-1.62,1.76-2.61,2.66-3.41,1.23-1.11.5-4.82,1.87-4.79s3.49,3.56,3.49,3.56Z"
            style="fill: #84dade;" />
          <circle cx="251.45" cy="134.66" r=".81" style="fill: #ff8672;" />
          <circle cx="274.78" cy="142.23" r=".46" style="fill: #ff8672;" />
          <circle cx="267.2" cy="134.53" r=".57" style="fill: #ff8672;" />
          <circle cx="231.93" cy="138.44" r=".57" style="fill: #ff8672;" />
          <circle cx="233.27" cy="127.02" r=".88" style="fill: #ff8672;" />
          <circle cx="261.05" cy="140.08" r=".97" style="fill: #ff8672;" />
          <circle cx="246.11" cy="130.33" r=".73" style="fill: #ff8672;" />
          <circle cx="263.52" cy="131.53" r=".8" style="fill: #ff8672;" />
          <circle cx="239.1" cy="132.04" r=".57" style="fill: #ff8672;" />
          <circle cx="268.92" cy="149.77" r="1.35" style="fill: #ff8672;" />
          <circle cx="262.03" cy="152.19" r=".73" style="fill: #ff8672;" />
          <path
            d="M284.07,138.44c-.51-.16-1.17-1.2-1.62-.43-.34.59.86,1.24.38,1.67-.28.25-1.5.96-.38,1.23.25.06.57-.19.81-.03.25.17.2.66.33.9.45.79.94.16,1.12-.41.25-.8.74-.34,1.33-.51.89-.25-.26-1.02-.43-1.39-.21-.45.57-1.59.14-1.74s-1.68.72-1.68.72Z"
            style="fill: #84dade;" />
          <path
            d="M300.85,131.36c-.48-.14-1.11-1.13-1.53-.4-.32.55.82,1.16.36,1.57-.27.24-1.41.9-.36,1.16.24.06.53-.18.76-.03.24.15.19.62.32.84.43.74.88.15,1.05-.39.23-.75.69-.33,1.25-.48.83-.23-.24-.96-.41-1.31-.2-.43.53-1.5.12-1.64s-1.57.68-1.57.68Z"
            style="fill: #84dade;" />
          <path
            d="M231.6,131.8c-.5-.15-1.16-1.18-1.59-.42-.34.58.85,1.21.38,1.64-.28.25-1.47.95-.37,1.21.25.06.56-.19.79-.03.25.16.19.64.33.88.45.77.92.16,1.1-.41.24-.78.72-.34,1.31-.5.87-.24-.25-1-.43-1.36-.21-.45.55-1.57.13-1.71s-1.64.71-1.64.71Z"
            style="fill: #84dade;" />
          <path
            d="M323.35,149.42c.33-1.29,2.88-3.07.9-4.11-1.51-.8-3.01,2.3-4.15,1.13-.67-.68-2.56-3.65-3.13-.82-.13.64.54,1.4.16,2.02-.39.65-1.62.56-2.21.93-1.93,1.22-.3,2.37,1.16,2.76,2.03.54.94,1.81,1.42,3.28.71,2.19,2.56-.72,3.44-1.23,1.21-.7,3.99.87,4.33-.23s-1.93-3.74-1.93-3.74Z"
            style="fill: #84dade;" />
          <path
            d="M325.3,135.43c-.28-.73.33-2.45-.97-2.27-.99.13-.65,2.12-1.6,1.95-.55-.1-2.47-.87-1.77.67.16.35.73.48.77.91.04.44-.58.82-.74,1.2-.51,1.24.66,1.24,1.49.92,1.15-.43,1.06.54,1.79,1.09,1.09.81.95-1.22,1.23-1.75.33-.66,2.36-.78,2.15-1.42s-2.35-1.29-2.35-1.29Z"
            style="fill: #84dade;" />
          <path
            d="M296.38,143.21c.59-.72,2.74-1.1,1.79-2.35-.73-.95-2.59.57-2.97-.51-.22-.63-.55-3.08-1.74-1.45-.27.37-.07,1.05-.5,1.33-.44.3-1.2-.12-1.68-.06-1.59.2-.9,1.42-.08,2.1,1.13.94.06,1.43-.07,2.51-.2,1.61,1.84.27,2.55.24.88-.04,2.2,2,2.74,1.4s-.04-3.21-.04-3.21Z"
            style="fill: #84dade;" />
          <path
            d="M253.89,152.35c1.57.1,4.53-2.1,4.97.52.33,2-3.71,2.53-2.82,4.25.52,1.01,3.16,4.25-.24,3.83-.77-.09-1.37-1.13-2.22-.94-.87.19-1.24,1.62-1.87,2.14-2.09,1.72-2.79-.54-2.68-2.34.15-2.48-1.68-1.73-3.17-2.82-2.2-1.62,1.76-2.61,2.66-3.41,1.23-1.11.5-4.82,1.87-4.79,1.36.03,3.49,3.56,3.49,3.56Z"
            style="fill: #84dade;" />
          <path
            d="M279.88,157.99c1.76.54,5.69-1.17,5.49,1.92-.16,2.36-4.88,1.87-4.32,4.06.32,1.28,2.44,5.65-1.29,4.27-.85-.31-1.25-1.65-2.26-1.65-1.04-.01-1.83,1.5-2.7,1.93-2.83,1.39-3.01-1.36-2.41-3.37.83-2.77-1.44-2.41-2.83-4.04-2.06-2.42,2.72-2.44,3.93-3.16,1.49-.89,1.46-5.67,2.99-5.27s3.41,5.31,3.41,5.31Z"
            style="fill: #84dade;" />
          <path
            d="M263,156.95c.91-.51,1.75-2.81,2.94-1.51.91.99-1.14,2.75-.02,3.38.65.37,3.29,1.21,1.25,2.21-.46.23-1.17-.13-1.57.28-.41.42-.1,1.34-.26,1.87-.54,1.71-1.74.71-2.33-.33-.82-1.43-1.56-.35-2.78-.42-1.81-.1.06-2.08.24-2.86.22-.97-1.77-2.83-1-3.3s3.53.68,3.53.68Z"
            style="fill: #84dade;" />
          <path
            d="M295.03,153.41c-1.36-.81-2.56-4.31-4.41-2.38-1.41,1.47,1.64,4.2-.07,5.11-1,.54-5.02,1.73-1.97,3.31.69.36,1.78-.16,2.37.48.61.66.11,2.04.34,2.84.76,2.61,2.62,1.13,3.54-.42,1.28-2.14,2.38-.48,4.22-.54,2.75-.09-.03-3.15-.27-4.34-.3-1.47,2.77-4.22,1.62-4.97s-5.37.91-5.37.91Z"
            style="fill: #84dade;" />
          <path
            d="M331.8,142.16c-.17-.54.36-1.77-.59-1.7-.73.05-.58,1.51-1.26,1.34-.4-.1-1.75-.76-1.33.4.1.26.51.39.51.7,0,.32-.47.57-.6.84-.43.88.42.93,1.04.75.86-.26.75.45,1.25.88.75.64.76-.84.98-1.22.28-.46,1.76-.45,1.64-.93s-1.65-1.06-1.65-1.06Z"
            style="fill: #84dade;" />
          <path
            d="M288.15,149.61c.01-.45.72-1.23-.01-1.42-.56-.15-.82.98-1.28.68-.27-.18-1.12-1.01-1.09-.04,0,.22.28.42.21.65-.08.24-.49.31-.66.47-.54.55.08.81.59.82.71.03.45.53.71.98.4.67.78-.44,1.04-.66.32-.28,1.43.11,1.46-.28s-.96-1.21-.96-1.21Z"
            style="fill: #84dade;" />
          <path
            d="M322.01,159.59c-.45-1.22.61-4.06-1.56-3.8-1.66.2-1.14,3.52-2.7,3.21-.92-.18-4.08-1.51-2.97,1.08.25.59,1.21.82,1.25,1.53.05.74-.99,1.35-1.26,1.98-.87,2.05,1.08,2.07,2.47,1.57,1.93-.69,1.76.93,2.96,1.85,1.79,1.37,1.65-1.99,2.08-2.89.59-1.23,3.69-1.52,3.35-2.58s-3.62-1.93-3.62-1.93Z"
            style="fill: #84dade;" />
          <circle cx="287.39" cy="145.21" r=".49" style="fill: #ff8672;" />
          <circle cx="250.43" cy="125.53" r=".49" style="fill: #ff8672;" />
          <circle cx="238.87" cy="118.64" r=".34" style="fill: #ff8672;" />
          <circle cx="337.89" cy="127.2" r=".34" style="fill: #ff8672;" />
          <circle cx="278.36" cy="132.89" r=".91" style="fill: #ff8672;" />
          <circle cx="307.69" cy="129.14" r=".81" style="fill: #ff8672;" />
          <circle cx="323.31" cy="143.5" r=".81" style="fill: #ff8672;" />
          <circle cx="338.73" cy="134.94" r=".81" style="fill: #ff8672;" />
          <circle cx="245.3" cy="142.86" r=".81" style="fill: #ff8672;" />
          <circle cx="330.66" cy="120.24" r=".49" style="fill: #ff8672;" />
          <circle cx="276.42" cy="123.43" r=".49" style="fill: #ff8672;" />
          <circle cx="294.04" cy="133.24" r=".49" style="fill: #ff8672;" />
          <circle cx="300.85" cy="147.6" r=".99" style="fill: #ff8672;" />
          <circle cx="285.03" cy="155.74" r=".99" style="fill: #ff8672;" />
          <circle cx="303.16" cy="139.8" r="1.46" style="fill: #ff8672;" />
          <circle cx="331" cy="135.8" r="1.01" style="fill: #ff8672;" />
          <path
            d="M232.34,154.43c1.17-.09,3.12-2.03,3.72-.14.46,1.44-2.47,2.26-1.63,3.43.49.69,2.78,2.8.23,2.85-.58.01-1.13-.69-1.73-.46-.62.24-.74,1.32-1.16,1.78-1.36,1.49-2.11-.11-2.22-1.44-.15-1.85-1.43-1.1-2.63-1.75-1.8-.96,1.02-2.11,1.6-2.8.79-.95-.14-3.61.87-3.73s2.95,2.26,2.95,2.26Z"
            style="fill: #84dade;" />
          <path
            d="M291.09,165.22c1.04.54,3.72-.09,3.24,1.83-.37,1.47-3.29.63-3.18,2.07.06.84.9,3.84-1.3,2.54-.5-.29-.6-1.18-1.24-1.3-.65-.13-1.32.74-1.92.91-1.94.55-1.74-1.2-1.14-2.39.84-1.65-.64-1.68-1.33-2.87-1.03-1.76,1.98-1.26,2.83-1.54,1.17-.39,1.78-3.14,2.7-2.72s1.33,3.47,1.33,3.47Z"
            style="fill: #84dade;" />
          <path
            d="M297.99,162.78c1.57.1,4.53-2.1,4.97.52.33,2-3.71,2.53-2.81,4.25.52,1.01,3.16,4.25-.24,3.83-.77-.09-1.37-1.13-2.22-.94-.87.19-1.24,1.62-1.87,2.14-2.09,1.72-2.79-.54-2.68-2.34.15-2.48-1.68-1.73-3.17-2.82-2.2-1.62,1.76-2.61,2.66-3.41,1.23-1.11.5-4.82,1.87-4.79,1.36.03,3.49,3.56,3.49,3.56Z"
            style="fill: #84dade;" />
          <path
            d="M342.8,148.09c.5-.8.18-3,1.69-2.48,1.15.39.28,2.69,1.45,2.7.68.01,3.15-.46,1.96,1.22-.27.38-.99.41-1.13.91-.15.52.5,1.11.6,1.6.31,1.6-1.08,1.32-2,.75-1.27-.79-1.4.4-2.4.87-1.49.71-.88-1.68-1.05-2.38-.23-.97-2.41-1.64-2-2.35s2.88-.84,2.88-.84Z"
            style="fill: #84dade;" />
          <circle cx="243.83" cy="147.49" r=".59" style="fill: #ff8672;" />
          <circle cx="335.63" cy="144.2" r=".73" style="fill: #ff8672;" />
          <path
            d="M345.4,165.7c1.24-.39,4.03.78,3.86-1.4-.13-1.66-3.46-1.29-3.09-2.84.22-.91,1.68-4.02-.95-3.01-.6.23-.87,1.17-1.58,1.19-.74.02-1.31-1.05-1.92-1.34-2.01-.96-2.12.99-1.68,2.4.61,1.95-1,1.72-1.97,2.88-1.44,1.73,1.92,1.74,2.8,2.2,1.21.64,1.36,3.75,2.44,3.46s2.09-3.54,2.09-3.54Z"
            style="fill: #84dade;" />
          <circle cx="272.19" cy="155.1" r=".99" style="fill: #ff8672;" />
          <path
            d="M308.93,146.03c.7-.16,1.72-1.51,2.25-.41.4.84-1.3,1.59-.69,2.23.36.37,1.93,1.46.39,1.71-.35.06-.75-.32-1.09-.13-.36.2-.33.87-.55,1.18-.7,1.02-1.29.12-1.48-.68-.26-1.11-.96-.54-1.76-.83-1.18-.43.46-1.36.73-1.84.34-.59-.61-2.22,0-2.38s2.2,1.15,2.2,1.15Z"
            style="fill: #84dade;" />
          <path
            d="M312.3,134.32c1.04-.28,2.45-2.36,3.31-.77.66,1.21-1.83,2.45-.87,3.36.56.53,2.97,2.03.69,2.52-.52.11-1.13-.42-1.63-.11-.52.32-.44,1.31-.73,1.79-.97,1.57-1.91.27-2.24-.91-.46-1.63-1.47-.74-2.66-1.11-1.78-.55.55-2.07.96-2.79.55-.99-.74-3.22.14-3.5s3.04,1.52,3.04,1.52Z"
            style="fill: #84dade;" />
          <circle cx="318.29" cy="136.65" r=".46" style="fill: #ff8672;" />
          <path
            d="M305.34,157.48c-1.39-.11-3.69-2.43-4.41-.19-.55,1.7,2.91,2.69,1.91,4.08-.59.81-3.31,3.3-.29,3.38.69.02,1.35-.81,2.06-.53.74.28.87,1.57,1.36,2.12,1.6,1.77,2.5-.11,2.64-1.7.19-2.19,1.7-1.3,3.13-2.05,2.14-1.13-1.23-2.48-1.88-3.33-.8-1.05.57-4.41-.63-4.56s-3.9,2.79-3.9,2.79Z"
            style="fill: #84dade;" />
          <circle cx="303.97" cy="153.27" r=".49" style="fill: #ff8672;" />
          <circle cx="320.59" cy="130.5" r=".99" style="fill: #ff8672;" />
          <circle cx="314.72" cy="145.66" r=".99" style="fill: #ff8672;" />
        </g>
      </g>
      <path
        d="M243.69,53.97h87.53c7.11,0,12.89,5.77,12.89,12.89v87.55c0,7.11-5.77,12.88-12.88,12.88h-87.53c-7.11,0-12.89-5.77-12.89-12.89v-87.55c0-7.11,5.77-12.88,12.88-12.88Z"
        style="fill: none; stroke: #ed3594; stroke-miterlimit: 10; stroke-width: .19px;" />
    </g>
    <g>
      <path
        d="M283.49,109.42c0,.62-.47,1.11-1.08,1.11s-1.09-.5-1.09-1.11.48-1.1,1.09-1.1,1.08.5,1.08,1.1ZM281.5,109.43c0,.53.39.95.91.95s.9-.42.9-.96-.39-.96-.9-.96-.91.42-.91.97ZM282.84,109.01s-.18-.08-.35-.08c-.34,0-.5.22-.5.5s.18.51.51.51c.14,0,.28-.04.36-.09l.04.14c-.13.08-.29.11-.44.11-.42,0-.66-.29-.66-.65,0-.41.32-.67.69-.67.19,0,.35.05.39.1l-.04.14Z"
        style="fill: #7c8087;" />
      <path
        d="M283.89,108.25c.19-.03.42-.05.66-.05.45,0,.77.1.98.3.21.2.34.48.34.87s-.12.72-.35.94c-.23.23-.6.35-1.07.35-.22,0-.41-.01-.57-.03v-2.38ZM284.2,110.39c.08.01.19.02.32.02.67,0,1.03-.37,1.03-1.03,0-.57-.32-.93-.98-.93-.16,0-.28.01-.37.03v1.91Z"
        style="fill: #7c8087;" />
      <path
        d="M286.61,108.41c0,.11-.08.19-.2.19-.11,0-.19-.09-.19-.19s.08-.2.2-.2.19.09.19.2ZM286.26,110.64v-1.74h.32v1.74h-.32Z"
        style="fill: #7c8087;" />
      <path
        d="M287.06,110.31c.09.06.26.13.42.13.23,0,.34-.11.34-.26s-.09-.23-.32-.32c-.31-.11-.46-.28-.46-.49,0-.28.23-.51.6-.51.18,0,.33.05.43.11l-.08.23c-.07-.04-.19-.1-.36-.1-.19,0-.29.11-.29.24,0,.14.1.21.33.29.3.11.46.27.46.52,0,.3-.24.52-.65.52-.19,0-.37-.05-.49-.12l.08-.24Z"
        style="fill: #7c8087;" />
      <path
        d="M288.52,109.37c0-.18,0-.33-.01-.47h.28l.02.29h0c.09-.17.29-.33.57-.33.24,0,.61.14.61.74v1.04h-.32v-1c0-.28-.1-.51-.4-.51-.21,0-.37.15-.42.32-.01.04-.02.09-.02.15v1.04h-.32v-1.27Z"
        style="fill: #7c8087;" />
      <path
        d="M290.68,109.83c0,.43.28.6.6.6.23,0,.36-.04.48-.09l.05.23c-.11.05-.3.11-.58.11-.53,0-.85-.35-.85-.87s.31-.94.81-.94c.57,0,.72.5.72.82,0,.06,0,.11-.01.15h-1.22ZM291.61,109.6c0-.2-.08-.51-.44-.51-.32,0-.46.29-.48.51h.92Z"
        style="fill: #7c8087;" />
      <path
        d="M292.42,108.9l.38,1.03c.04.11.08.25.11.35h0c.03-.1.07-.24.11-.36l.34-1.02h.33l-.47,1.24c-.23.6-.38.9-.59,1.09-.15.14-.31.19-.39.2l-.08-.27c.08-.03.18-.08.28-.15.09-.07.19-.19.27-.35.01-.03.02-.06.02-.08s0-.04-.02-.08l-.64-1.6h.34Z"
        style="fill: #7c8087;" />
      <path
        d="M274.65,113.2l.23.88c.05.19.1.37.13.55h.01c.04-.18.1-.36.15-.55l.28-.89h.26l.27.87c.06.21.11.39.15.57h.01c.03-.18.08-.36.13-.56l.25-.87h.31l-.56,1.74h-.29l-.27-.83c-.06-.19-.11-.37-.15-.57h0c-.04.21-.1.39-.16.57l-.28.82h-.29l-.52-1.74h.32Z"
        style="fill: #7c8087;" />
      <path
        d="M277.33,113.2l.23.88c.05.19.1.37.13.55h.01c.04-.18.1-.36.15-.55l.28-.89h.26l.27.87c.06.21.11.39.15.57h.01c.03-.18.08-.36.13-.56l.25-.87h.31l-.56,1.74h-.29l-.27-.83c-.06-.19-.11-.37-.15-.57h0c-.04.21-.1.39-.16.57l-.28.82h-.29l-.52-1.74h.32Z"
        style="fill: #7c8087;" />
      <path
        d="M280.01,113.2l.23.88c.05.19.1.37.13.55h.01c.04-.18.1-.36.15-.55l.28-.89h.26l.27.87c.06.21.11.39.15.57h.01c.03-.18.08-.36.13-.56l.25-.87h.31l-.56,1.74h-.29l-.27-.83c-.06-.19-.11-.37-.15-.57h0c-.04.21-.1.39-.16.57l-.28.82h-.29l-.52-1.74h.32Z"
        style="fill: #7c8087;" />
      <path d="M282.31,114.75c0-.13.09-.23.21-.23s.21.09.21.23-.08.23-.21.23-.21-.1-.21-.23Z" style="fill: #7c8087;" />
      <path
        d="M284.63,112.39v2.1c0,.15,0,.33.01.45h-.28v-.3h-.02c-.1.19-.31.34-.59.34-.42,0-.74-.35-.74-.88,0-.58.35-.93.78-.93.27,0,.45.13.52.27h0v-1.04h.32ZM284.31,113.91s0-.09-.01-.13c-.05-.2-.22-.37-.46-.37-.33,0-.52.29-.52.67,0,.35.17.64.51.64.21,0,.41-.14.46-.38.01-.04.01-.09.01-.14v-.3Z"
        style="fill: #7c8087;" />
      <path
        d="M285.5,112.71c0,.11-.08.19-.2.19-.11,0-.19-.09-.19-.19s.08-.2.2-.2.19.09.19.2ZM285.15,114.94v-1.74h.32v1.74h-.32Z"
        style="fill: #7c8087;" />
      <path
        d="M285.94,114.62c.09.06.26.13.42.13.23,0,.34-.11.34-.26s-.09-.23-.32-.32c-.31-.11-.46-.28-.46-.49,0-.28.23-.51.6-.51.18,0,.33.05.43.11l-.08.23c-.07-.04-.19-.1-.36-.1-.19,0-.29.11-.29.24,0,.14.1.21.33.29.3.11.46.27.46.52,0,.3-.24.52-.65.52-.19,0-.37-.05-.49-.12l.08-.24Z"
        style="fill: #7c8087;" />
      <path
        d="M287.41,113.67c0-.18,0-.33-.01-.47h.28l.02.29h0c.09-.17.29-.33.57-.33.24,0,.61.14.61.74v1.04h-.32v-1c0-.28-.1-.51-.4-.51-.21,0-.37.15-.42.32-.01.04-.02.09-.02.15v1.04h-.32v-1.27Z"
        style="fill: #7c8087;" />
      <path
        d="M289.57,114.13c0,.43.28.6.59.6.23,0,.36-.04.48-.09l.05.23c-.11.05-.3.11-.58.11-.53,0-.85-.35-.85-.87s.31-.94.81-.94c.57,0,.72.5.72.82,0,.06,0,.11-.01.15h-1.22ZM290.5,113.9c0-.2-.08-.51-.44-.51-.32,0-.46.29-.48.51h.92Z"
        style="fill: #7c8087;" />
      <path
        d="M291.3,113.2l.38,1.03c.04.11.08.25.11.35h0c.03-.1.07-.24.11-.36l.34-1.02h.33l-.47,1.24c-.23.6-.38.9-.59,1.09-.15.14-.31.19-.39.2l-.08-.27c.08-.03.18-.08.28-.15.09-.07.19-.19.27-.35.01-.03.02-.06.02-.08s0-.04-.02-.08l-.64-1.6h.34Z"
        style="fill: #7c8087;" />
      <path d="M293.56,114.75c0-.13.09-.23.21-.23s.21.09.21.23-.08.23-.21.23-.21-.1-.21-.23Z" style="fill: #7c8087;" />
      <path
        d="M295.62,114.87c-.08.04-.27.1-.5.1-.52,0-.86-.35-.86-.89s.37-.92.93-.92c.19,0,.35.05.44.09l-.07.24c-.08-.04-.19-.08-.37-.08-.4,0-.61.29-.61.66,0,.4.26.65.6.65.18,0,.3-.05.39-.09l.05.24Z"
        style="fill: #7c8087;" />
      <path
        d="M297.53,114.06c0,.64-.44.92-.86.92-.47,0-.83-.34-.83-.89,0-.58.38-.92.86-.92s.83.36.83.89ZM296.16,114.07c0,.38.22.67.53.67s.53-.28.53-.67c0-.29-.15-.67-.52-.67s-.53.34-.53.67Z"
        style="fill: #7c8087;" />
      <path
        d="M297.93,113.67c0-.18,0-.33-.01-.47h.28v.28h.03c.1-.16.26-.32.54-.32.24,0,.42.14.49.35h0c.05-.1.12-.17.19-.23.1-.08.22-.12.38-.12.23,0,.57.15.57.75v1.02h-.31v-.98c0-.33-.12-.53-.38-.53-.18,0-.32.13-.37.29-.01.04-.03.1-.03.16v1.07h-.31v-1.04c0-.28-.12-.48-.36-.48-.2,0-.34.16-.39.32-.02.05-.03.1-.03.15v1.05h-.31v-1.27Z"
        style="fill: #7c8087;" />
    </g>
  </g>
</svg>