<?xml version="1.0" encoding="UTF-8"?>
<svg id="Layer_1" data-name="Layer 1" data-size="40mm x 40mm" xmlns="http://www.w3.org/2000/svg"
  viewBox="0 0 449.12 192.69">
<text id="quantity" y="98%" x="50%"
style="font-family: Arial-BoldMT, Arial; font-size: 15px; font-weight: 700; isolation: isolate;"
text-anchor="middle">
</text>
  <g>
    <polyline points="181.02 136.11 181.02 143.63 67.64 143.63 67.64 136.11"
      style="fill: none; stroke: #00aeef; stroke-miterlimit: 10; stroke-width: .84px;" />
    <text transform="translate(103.13 159.82) rotate(-.39)"
      style="fill: #00aeef; font-family: MyriadPro-Regular, &apos;Myriad Pro&apos;; font-size: 12px;">
      <tspan x="0" y="0">40 mm</tspan>
    </text>
    <polyline points="386.5 136.11 386.5 143.63 273.11 143.63 273.11 136.11"
      style="fill: none; stroke: #00aeef; stroke-miterlimit: 10; stroke-width: .84px;" />
    <text transform="translate(308.61 159.82) rotate(-.39)"
      style="fill: #00aeef; font-family: MyriadPro-Regular, &apos;Myriad Pro&apos;; font-size: 12px;">
      <tspan x="0" y="0">40 mm</tspan>
    </text>
    <text transform="translate(.07 60.15) rotate(-.39)"
      style="fill: #00aeef; font-family: MyriadPro-Regular, &apos;Myriad Pro&apos;; font-size: 12px;">
      <tspan x="0" y="0">40 mm</tspan>
    </text>
    <polyline points="50.21 .42 40.32 .42 40.32 113.81 50.21 113.81"
      style="fill: none; stroke: #00aeef; stroke-miterlimit: 10; stroke-width: .84px;" />
    <text transform="translate(414.23 60.15) rotate(-.39)"
      style="fill: #00aeef; font-family: MyriadPro-Regular, &apos;Myriad Pro&apos;; font-size: 12px;">
      <tspan x="0" y="0">40 mm</tspan>
    </text>
    <polyline points="400.61 .42 410.51 .42 410.51 113.81 400.61 113.81"
      style="fill: none; stroke: #00aeef; stroke-miterlimit: 10; stroke-width: .84px;" />
    <g>
      <circle cx="124.27" cy="8.42" r="2.41" style="fill: #fff; stroke: #61a60e; stroke-width: .2px;" />
      <rect x="67.57" y=".42" width="113.39" height="113.39" rx="12.35" ry="12.35"
        style="fill: none; stroke: #6e8f52; stroke-width: .2px;" />
      <g>
        <path
          d="M123.89,45.14c.43.04,1.14.18,1.52.39.5.3.89.82.84,1.47-.07.79-.46,1.71-.81,2.12-.8,1.08-1.85,1.72-3.12,2.3-1,.46-2.48.56-3.64.29-.17.22-.55.82-1.07.73-.58-.3-.59-1.02-.53-1.66-.55-.6-.99-1.42-.73-2.33.17-1.01.73-1.75,1.45-2.4,1-.84,2.15-1.26,3.41-1.53.97-.19,2.1-.16,2.68.62M117.58,48.55c-.03.25.15.57.35.64.52-1.11,1.8-2.5,2.93-3.17-1.36-.12-3.16,1.05-3.28,2.52M124.31,46.65c-2-.33-3.37,1.27-4.32,2.39-.23.27-.42.61-.53,1.01.23.25.91.18,1.37.11,1.59-.27,3.44-.89,4.03-2.39.06-.3.07-.69-.17-.89l-.38-.22Z"
          style="fill: #394b77;" />
        <path
          d="M139.48,53.08c.85,1.36,1.49,2.73,1.73,4.39.07,1.44.25,2.82-.44,4.07-.31.59-.98,1.48-1.92,1.12-.91-.51-1.44-1.58-1.98-2.46-.54-.88-1.11-1.95-1.62-2.92-.06-.1-.21-.24-.28-.15-.04.11-.07.28-.07.45-.08,1.53-.17,2.9-.23,4.39-.04.44-.14.84-.38,1.13-.18.13-.6.11-.85.01-.83-.42-.78-1.46-.77-2.36.07-.68.11-1.45.22-2.15.21-1.36.46-2.81.99-4.04.13-.28.28-.46.58-.57.54-.11,1,.64,1.2.89,1.17,1.49,2.15,3.11,3.27,4.69.14.2.21.41.38.33.18-.12.03-1.07-.07-1.65-.14-.89-.33-1.72-.57-2.57-.29-1-.63-1.94-.74-3.01-.04-.24-.07-.5-.03-.74.07-.22.35-.18.52-.11.51.26.82.87,1.08,1.27"
          style="fill: #394b77;" />
        <path
          d="M150.29,54.5c.13.19.38.53.26.7-.61.68-1.65.37-2.46.45l-2.08.06c-.21.07-.24.29-.32.46-.12.35-.26.72-.21,1.07l.13.08c1,.05,2.06-.15,2.98.13.16.07.2.68.18,1.05-.1.36-1.13.36-1.68.38-.72.03-1.4.01-2.1.02-.14.25-.33.61-.48.9-.11.32-.48.8-.18,1.24.2.29,2.73-.75,4.29-.63.21.01.61.74.58,1.22,0,0-.07.21-.22.32-.37.28-2.64,1.71-4.23,1.89-.9.09-1.55-.01-2.27-.93-.55-.68-.72-1.79-.42-2.65.23-.65.59-1.25.82-1.95-.05-.1-.07-.23-.11-.35.02-.16-.06-.37.11-.46.24-.12.56-.23.56-.23.3-.28.38-.79.53-1.18.05-.13.16-.35.19-.5-.39-.16-.96-.16-1.39-.38-.35-.16-.75-.56-.58-.99.54-.44,2.48-.49,3.86-.68.92-.13,1.84-.28,2.82-.25.25.03.45.07.68.31l.75.88Z"
          style="fill: #394b77;" />
        <path
          d="M131.47,53.59c.31.08.51.2.82.36.09.31-.15.65-.33.89-.43.27-1,.31-1.49.35-1.81.13-3.65.28-5.43.56-.48.12-.97.24-1.41.48-.04.08.08.16.13.19,2.04.51,4.33.37,6.39.84,1.13.33,1.75,1.44,1.91,2.51.02.75-.18,1.56-.62,2.07-1.63,1.56-4.21,1.6-6.32.99-1.04-.32-2.32-1.05-2.58-2.31-.07-.33-.02-.62.18-.86.27-.32.63-.6,1.03-.81,1.55-.68,3.36-.08,4.87.28.37.08.84.15.8.47-.11.39-.57.5-.9.66-1.44.67-3.04-.66-3.98-.66-.42.03-.85.1-1.06.52-.08.17-.04.35.07.48.53.54,1.38.57,1.98.63,1.22.07,2.35-.28,3.42-.62.61-.19,1.38-.47,1.6-1.13.13-.5-.85-.93-1.65-1.14-1.9-.37-3.93.17-5.79-.48-.44-.16-1.14-.45-1.16-1.06.08-.86.32-1.79,1.08-2.24,1.53-.9,3.3-1.22,5.08-1.29,1.13-.05,2.21.01,3.34.33"
          style="fill: #394b77;" />
        <path
          d="M120.32,55.42c0,.31.11.6.06.88.07,2.17.31,4.46.16,6.6-.04.29-.32.43-.55.53-.46.08-.9-.04-1.31-.18-.45-.62-.42-1.38-.48-2.18-.1-2.43.19-4.75.64-7.05.07-.23.07-.56.38-.61.79.34,1.14,1.11,1.1,2.01"
          style="fill: #394b77;" />
        <path
          d="M154.38,53.16c.04.35,0,.64-.13.88-.19.45-.37.76-.56,1.13-.48.98-.99,1.96-1.38,2.94-.19.55-.46,1.31-.14,1.98.03-.07.36-.53.4-.62,1.06-1.65,1.95-2.67,3.37-4.08.72-.72,1.82-1.94,3.04-1.25.54.47.81.97,1.07,1.61.54,1.25.28,2.87-.38,4.01-.7,1.22-1.59,1.96-2.66,2.81-.95.64-2.03.99-3.25.94-.17.27-.49.86-.67,1.31-.35.87-1.19,3.74-1.38,4.72l-.32,2.03c-.01.11-.14.24-.3.28-.7.07-1.16-.5-1.41-.83-.42-.78-.66-1.82-.5-2.78.43-2.16,1.16-4.28,2.04-6.28-.3-.51-.54-1.28-.6-1.94-.12-1.9.8-3.91,1.84-5.33.48-.58.95-1.32,1.67-1.7.1-.04.21.09.25.19M158.67,55.85c-.05-.08-.22-.14-.29-.03-1,1.24-1.94,2.41-2.95,3.82-.34.47-.62.83-1.02,1.45,0,0-.09.14.8.03.9-.12,2.55-1.24,3.27-2.33.34-.52.52-1.4.5-1.81-.02-.41-.13-.81-.31-1.14"
          style="fill: #394b77;" />
        <path
          d="M104.95,44.51c3.63,1.41,7.03,3.55,9.65,6.4,1.08,1.15,1.92,2.52,2.57,4.03.27.9.53,1.78.38,2.89-.36,2.18-1.68,3.88-3.59,5.08-1.51.98-3.13,1.5-5.03,1.75-2.15.28-6.23-.02-6.76-.23-.01.56-.25,1.13-.59,1.36-.34.15-1.35.3-1.77-.34-.34-.62-.48-1.37-.56-2.05-2.59-1.19-4.9-3.12-6.57-5.34-.26-.47-.28-1.18.11-1.61,1.62-1.71,4.01-2.18,6.29-2.56.31-.05.49-.04.49-.04.02-.4.02-.93.11-1.25.01-1.13.26-2.27.43-3.36.04-.29.06-.59.32-.71.38-.14.71.4.9.79.23.59.42,1.92.42,1.92.1.82.17,1.61.23,2.3l.14.02c1.14-.05,2.23,0,3.4.17,1.6.27,3,.43,4.26,1.36.67.59,1.31,1.38,1.06,2.36-.31.78-.83,1.39-1.53,1.64-.66.17-1.37-.08-1.8-.35v-.13c.67-.31,1.27-.74,1.38-1.49,0-.31-.96-.44-1.37-.53-1.31-.31-2.64-.56-4.03-.69-.63-.06-.97-.04-1.43-.05.05.87.13,2.03.08,2.76-.01,1.48.02,2.52-.02,3.76l.16.06c2.07.44,3.06.32,4.71.32,2.15-.21,4.19-.84,5.89-2.02,1.17-.81,1.9-1.9,1.97-3.31.16-1.18-.57-2.31-.94-3.38-1.18-1.76-2.72-3.34-4.48-4.64-3.65-2.6-7.83-3.99-12.26-4.79-1.93-.24-3.79-.47-5.86-.29-.45.04-.99.08-1.42.44.08.23.43.33.65.47.16.11.26.15.26.31-.21.25-.58.31-.9.33-.51.06-1.83.07-1.68-.68.17-.69.6-1.46,1.05-1.79,3.68-1.56,8.35-1.05,12.16-.07,1.19.37,2.41.72,3.56,1.19M99.48,56.01c-.57-.11-1.22.06-1.79.02-1.52.33-3.03.27-4.29,1.25-.19.2-.1.49,0,.65,1.32,1.55,3.06,2.73,4.93,3.4.36.13.75.25.96.26,0-1.61.1-3.15.19-4.9.02-.27,0-.67,0-.67"
          style="fill: #394b77;" />
      </g>
    </g>
    <g>
      <circle cx="330.41" cy="8.77" r="2.41" style="fill: #fff; stroke: #61a60e; stroke-width: .2px;" />
      <rect x="273.71" y=".78" width="113.39" height="113.39" rx="12.35" ry="12.35"
        style="fill: none; stroke: #6e8f52; stroke-width: .2px;" />
      <g>
        <path d="M339.46,31.52c0,.52-.42.94-.94.94s-.94-.42-.94-.94.42-.94.94-.94.94.42.94.94"
          style="fill: #1a2452; fill-rule: evenodd;" />
        <path
          d="M347.23,33.82c.47.31.7.87.51,1.79-.11.49-.4.97-.69,1.37-.28.38-.59.78-.9,1.11-.69.76-3.17,3.02-4.05,3.3-.34.11-.57-.33-.67-.66-.17-.52-.21-1.21-.27-1.9-.06-.7-.15-1.43-.06-2.02.18-.11.32.08.49.1.05.11.1.23.18.31.1.49.05,1.56.23,2.02.07.18.26.66.45.64.54-.05,2.88-2.65,3.2-2.97.33-.33.82-.8.83-1.41,0-.53-.37-.95-.97-.96-.15,0-.73.08-.87.1-.75.09-1.52.45-2.23.74-.73.3-1.44.63-1.91,1.1-.22-.03-.31-.29-.42-.39-.02-.07.03-.15.11-.22-.08-.07-.21-.1-.26-.2.23-.38.64-.59,1.01-.81,1.08-.63,4.85-2.02,6.3-1.06"
          style="fill: #1a2452; fill-rule: evenodd;" />
        <path
          d="M326.3,41.67c-.69.18-1.78.02-2.4-.39-.8-.54-1.16-1.18-1.16-1.18-.7.13-1.52.37-2.34.37-.31,0-.52-.03-.76-.16-1.13-.63-.89-2.56-.76-3.71.08-.77.05-1.5.28-2.22.12,0,.21-.06.29.04.16-.12.2-.12.39-.06.23.07.04,2.37.03,2.61,0,.48-.02.97.01,1.45.02.26.01.73.22.92.21.2.62.08.88.04.48-.08,1.1-.22,1.43-.35-.22-1.04-.41-1.53-.37-2.95.02-.63.05-.7.51-.76.14-.02.37-.02.43.03.13.12-.12,1.84.42,3.45.2.04.26.03.37.21.15.24.25.54-.07.67.04.21.21.45.36.64.48.61,1.19.89,1.95.69,1.49-.39,1.95-1.93,2.11-3.26.17-1.42,0-2.88-.25-4.03.11-.11.26-.05.43-.06.04-.27.29-.22.42-.08.11.12.17.58.23.81.08.28.12.59.14.83.06.63.18,1.24.11,1.89-.2,1.91-1.14,4.1-2.92,4.56"
          style="fill: #1a2452; fill-rule: evenodd;" />
        <path
          d="M349.41,35.5c.11.23.42.32.64.35,1.81.23,2.91,1.03,3.02,1.9.14,1.14-.66,2.4-1.61,2.94-.33.19-.67.34-1.03.46-.69.23-1.45.36-2.17.2-.48-.11-.95-.28-1.36-.56-.19-.13-.85-.49-.74-.75.09-.2.27,0,.43-.16.11-.04.19.06.28-.02.02-.13-.12-.13-.07-.29.12-.16.74.17.79.2.13.07.26.15.4.22.87.43,2.21.21,3.02-.29.53-.33.8-1.06.6-1.64-.17-.48-.55-.82-1.05-1.01-.51-.19-1.2-.05-1.77-.17-.92-.2-.8-1.13-.54-1.79.34-.83.96-1.55,1.7-2.05.62-.42,1.32-.69,2.05-.84.57-.11,1,.41.55.67-.5.29-.89.37-1.34.6-.58.29-1.25.66-1.6,1.19-.16.25-.3.61-.2.83"
          style="fill: #1a2452; fill-rule: evenodd;" />
        <path
          d="M331.42,26.38s.04-.02,0-.02c.04-.09.09.17.01.11.21.71.02,9.05.09,9.81,1.74-.69,6.53-2.96,6.86-3.09.24-.1.48-.23.61.07-.07.15-.36.23-.56.3-.12.1-.28.15-.43.22.03.12.08.17,0,.29.11.02.26-.05.32-.07.09.05.25.15.21.29-.03.11-4.34,1.99-5.33,2.55.31.25.69.43,1.04.62,1.07.57,2.19,1.12,3.22,1.73.63.28,1.23.6,1.91.84.03-.41-.59-3.37-.76-4.45.1-.13.33-.21.52-.26.27-.07.45.16.61.34.18,1.72.58,3.39.85,5.09-.18.32-.37.45-.72.49-.18-.17-.24-.45-.33-.7-.06,0-.12,0-.18-.01.05.13,0,.35-.15.44-.25,0-.35-.12-.58-.13-.11.04.01.2-.07.27-.73-.32-5.88-2.96-6.94-3.57-.06.25.4,4.1.35,4.49-.27.09-.3.45-.58.52-.12-.17-.12-.43-.15-.67-.05-.07-.15.03-.2-.04-.15-1.28-.27-2.58-.37-3.9-.22,0-.82.47-1.05.44-.3-.03-.29-.35-.02-.41-.04-.2-.24-.25-.31-.43.4-.29.84-.52,1.3-.74.01-1.54-.31-5.82-.28-6.94.02-.78-.04-1.55-.06-2.27,0-.23-.03-.48.1-.7.08-.05.15.04.24.04.06-.12.05-.29.19-.37.14,0,.1.2.24.13.02-.14.02-.42.2-.51.14.03.2.07.19.19"
          style="fill: #1a2452; fill-rule: evenodd;" />
        <path
          d="M317.63,31.46c.15.1.28.22.36.36.34.56.47,1.5.3,2.13-.16.59-.6,1.18-.98,1.67-.2.26-.35.51-.57.73-.24.23-.47.43-.64.66.58.05,1.08-.02,1.57.23.93.48.85,1.49.4,2.27-.88,1.55-2.39,2.35-3.94,3.06-.64.29-1.6.31-2.16-.19-.41-.37-.49-1.07-.53-1.59-.07-.92-.15-1.84-.15-2.76,0-.39.04-.81.04-1.15s0-.67.03-.97c.03-.42.09-.69.4-.56.08.03.11.14.17.15-.07,1.54-.07,5.89,1.28,6.05.5.06,1.52-.51,1.91-.76.54-.36,3.3-2.32,2.11-2.79-1.35-.52-3.73.84-3.92.91-.22.08-.54.12-.63-.09.08-.28.34-.46.54-.66.19-.19.41-.38.61-.57.4-.36.81-.76,1.22-1.13.83-.77,1.65-1.58,2.12-2.63.69-1.53-1.06-1.74-2.13-1.58-.61.09-1.19.27-1.78.44-.99.29-1.95.66-2.89,1.06-.48.2-.9.47-1.25.74.22-.04.33.14.32.27-.07.66-2.23.69-1.57-.38.23-.36.66-.62,1.01-.84.71-.44,1.46-.79,2.22-1.13,1.25-.54,2.47-1.06,3.94-1.27.38-.06.81-.1,1.21-.09.4,0,.98.13,1.39.4"
          style="fill: #1a2452; fill-rule: evenodd;" />
        <path
          d="M349.59,43.25h-.49c-3.02-.06-6.04.04-9.4.13-2.35.05-5.03.23-7.37.4,5.55-.36,11.41-.6,16.75-.46-.54.07-1.18.14-1.93.15-1.81,0-3.59.04-5.36.09v-.11c-5.02.27-9.73.34-14.72.97.18,0,.08.03.04.05h-.04s.04,0,.04,0c-.03.02-.01.03.3,0-.31.03-.33.02-.3,0,4.92-.51,9.54-.77,14.48-.91-3.84.12-7.6.34-11.37.66-3.77.33-7.57.75-11.45,1.33l-1.32.21c-1.33.13-2.66.34-3.96.61.15-.1-.12-.15-.09-.24.02-.09.34-.22,1.66-.44l-.02-.11c-1.34.18-2.26.25-2.55.18-.28-.06.11-.31,1.43-.63,2.97-.71,7-1.18,10.68-1.64,2.68-.33,5.37-.59,8.06-.73,3.7-.18,7.74-.41,11.44-.4,1.35-.01,3.7-.14,4.38-.06.48.03.5.09.43.16-2.21.02-4.42.07-6.6.13-2.67.06-5.35.16-8.02.28,2.62-.09,5.3-.2,8.02-.28,2.18-.05,4.35-.08,6.53-.07-.08.06-.15.12-.02.17h1.01c1.34.12,1.01.32.34.47l-.58.1Z"
          style="fill: #a91d37;" />
      </g>
      <g>
        <path
          d="M321.56,94.93c0-.62.49-1.12,1.11-1.12s1.11.49,1.11,1.12-.49,1.12-1.11,1.12-1.11-.49-1.11-1.12ZM321.74,94.93c0,.53.42.93.93.93s.93-.41.93-.93-.42-.93-.93-.93-.93.41-.93.93ZM323.05,94.7c-.03-.16-.17-.24-.35-.24-.3,0-.43.23-.43.46,0,.26.15.47.44.47.19,0,.31-.09.35-.25h.17c-.03.27-.26.43-.52.43-.37,0-.62-.29-.62-.64s.23-.64.61-.64c.26,0,.47.16.52.42h-.17Z"
          style="fill: #394b77;" />
        <path
          d="M323.97,93.86h.44c.65,0,1.19.35,1.19,1.06s-.53,1.08-1.2,1.08h-.43v-2.14ZM324.23,95.76h.09c.54,0,1.01-.2,1.01-.83s-.47-.83-1.01-.83h-.09v1.65Z"
          style="fill: #394b77;" />
        <path
          d="M326.19,94.07c0,.1-.08.17-.17.17s-.17-.08-.17-.17.08-.18.17-.18.17.08.17.18ZM326.14,96h-.25v-1.33h.25v1.33Z"
          style="fill: #394b77;" />
        <path
          d="M327.07,94.98c-.03-.07-.1-.12-.17-.12s-.14.06-.14.13c0,.12.15.17.31.24.15.07.3.17.3.38,0,.25-.21.44-.45.44-.19,0-.38-.11-.45-.3l.22-.1c.05.1.12.17.24.17.11,0,.2-.07.2-.19,0-.07-.03-.1-.09-.14l-.25-.13c-.15-.08-.25-.15-.25-.34,0-.22.17-.39.39-.39.16,0,.29.09.36.23l-.21.11Z"
          style="fill: #394b77;" />
        <path
          d="M327.88,94.85h0c.08-.14.24-.22.4-.22.37,0,.47.25.47.58v.79h-.25v-.76c0-.23-.03-.38-.29-.38-.33,0-.33.29-.33.53v.61h-.25v-1.33h.25v.18Z"
          style="fill: #394b77;" />
        <path
          d="M329.24,95.38c0,.23.15.44.4.44.19,0,.3-.1.39-.26l.21.12c-.12.23-.35.36-.61.36-.4,0-.65-.31-.65-.7s.22-.72.64-.72.62.31.62.71v.04h-1ZM329.99,95.19c-.03-.2-.16-.33-.36-.33s-.34.14-.37.33h.74Z"
          style="fill: #394b77;" />
        <path d="M330.25,94.67h.29l.44.84.41-.84h.28l-1.06,2.09h-.29l.52-.99-.6-1.1Z" style="fill: #394b77;" />
        <path d="M333.11,93.63l-1.17,2.73-.2-.09,1.17-2.73.2.09Z" style="fill: #394b77;" />
        <path
          d="M333.66,96h-.26v-2.14h.3c.65,0,.85.23.85.62,0,.45-.34.62-.74.62h-.15v.9ZM333.66,94.87h.08c.27,0,.56-.05.56-.39s-.31-.37-.58-.37h-.07v.77Z"
          style="fill: #394b77;" />
        <path
          d="M335.12,94.07c0,.1-.08.17-.17.17s-.17-.08-.17-.17.08-.18.17-.18.17.08.17.18ZM335.07,96h-.25v-1.33h.25v1.33Z"
          style="fill: #394b77;" />
        <path d="M335.38,94.67h.3l.31.43.34-.43h.31l-.48.61.56.72h-.29l-.43-.54-.42.54h-.31l.59-.72-.47-.61Z"
          style="fill: #394b77;" />
        <path
          d="M338.08,96h-.25v-.21h0c-.1.15-.26.25-.45.25-.4,0-.63-.34-.63-.72s.24-.7.62-.7c.19,0,.35.1.46.26h0v-.22h.25v1.33ZM337.84,95.34c0-.26-.15-.48-.43-.48s-.42.23-.42.48.15.48.42.48.43-.22.43-.48Z"
          style="fill: #394b77;" />
        <path
          d="M338.68,94.89h0c.06-.16.19-.26.36-.26.07,0,.15.03.21.07l-.12.23s-.1-.05-.15-.05c-.27,0-.31.26-.31.47v.65h-.25v-1.33h.25v.22Z"
          style="fill: #394b77;" />
        <path
          d="M325.26,90.14c0-.63.5-1.12,1.12-1.12s1.12.5,1.12,1.12-.5,1.12-1.12,1.12-1.12-.5-1.12-1.12ZM325.44,90.14c0,.53.43.94.94.94s.94-.41.94-.94-.43-.94-.94-.94-.94.41-.94.94ZM326.78,89.91c-.03-.16-.17-.24-.36-.24-.31,0-.44.23-.44.46,0,.27.16.47.44.47.19,0,.31-.09.35-.25h.17c-.03.27-.27.44-.53.44-.38,0-.63-.29-.63-.64s.23-.65.62-.65c.27,0,.48.16.53.43h-.17Z"
          style="fill: #394b77;" />
        <path
          d="M327.71,89.06h.45c.66,0,1.21.35,1.21,1.06s-.54,1.09-1.22,1.09h-.44v-2.15ZM327.98,90.97h.09c.55,0,1.02-.21,1.02-.83s-.47-.83-1.02-.83h-.09v1.66Z"
          style="fill: #394b77;" />
        <path
          d="M329.96,89.27c0,.1-.08.17-.18.17s-.18-.08-.18-.17.08-.18.18-.18.18.08.18.18ZM329.92,91.22h-.26v-1.34h.26v1.34Z"
          style="fill: #394b77;" />
        <path
          d="M330.86,90.19c-.03-.07-.1-.12-.17-.12s-.14.06-.14.13c0,.12.15.17.31.24.16.07.31.17.31.38,0,.25-.21.44-.46.44-.19,0-.39-.11-.46-.3l.22-.1c.05.1.12.17.24.17.11,0,.2-.07.2-.19,0-.07-.03-.11-.09-.15l-.25-.13c-.15-.08-.26-.15-.26-.34,0-.22.18-.39.39-.39.16,0,.29.09.37.23l-.21.11Z"
          style="fill: #394b77;" />
        <path
          d="M331.68,90.06h0c.08-.14.24-.22.4-.22.38,0,.47.25.47.58v.8h-.26v-.76c0-.23-.03-.38-.29-.38-.33,0-.33.29-.33.53v.61h-.26v-1.34h.26v.18Z"
          style="fill: #394b77;" />
        <path
          d="M333.07,90.59c0,.23.16.44.4.44.2,0,.3-.1.4-.26l.22.12c-.13.23-.36.37-.62.37-.41,0-.66-.31-.66-.7s.22-.72.65-.72.63.31.63.71v.04h-1.02ZM333.83,90.4c-.03-.2-.16-.33-.37-.33s-.35.14-.38.33h.75Z"
          style="fill: #394b77;" />
        <path d="M334.1,89.88h.3l.45.85.42-.85h.29l-1.08,2.1h-.29l.53-.99-.61-1.11Z" style="fill: #394b77;" />
        <g>
          <path
            d="M306.26,100.13c.17,0,.33-.08.44-.21.02-.02.03-.05.03-.08,0-.08-.06-.12-.12-.12-.04,0-.08.02-.1.05-.07.09-.14.12-.24.12-.22,0-.31-.17-.31-.33s.1-.33.31-.33c.1,0,.17.03.24.12.03.03.06.05.1.05.06,0,.12-.04.12-.12,0-.03-.01-.06-.03-.08,0,0,0,0,0,0-.1-.13-.27-.21-.44-.21-.33,0-.57.23-.57.57s.23.57.57.57Z"
            style="fill: #394b77;" />
          <path
            d="M306.21,100.67c.63,0,1.11-.47,1.11-1.11s-.48-1.11-1.11-1.11-1.11.47-1.11,1.11.48,1.11,1.11,1.11ZM305.34,99.56c0-.51.38-.89.88-.89s.88.38.88.89-.38.89-.88.89-.88-.38-.88-.89Z"
            style="fill: #394b77;" />
          <path
            d="M307.78,100.63h.45c.57,0,.95-.42.95-1.07s-.37-1.07-.95-1.07h-.45c-.08,0-.14.06-.14.14v1.86c0,.08.06.14.14.14ZM307.91,100.38v-1.63h.31c.64,0,.69.62.69.81s-.05.81-.69.81h-.31Z"
            style="fill: #394b77;" />
          <circle cx="309.57" cy="98.85" r=".17" style="fill: #394b77;" />
          <path d="M309.57,100.66c.08,0,.14-.06.14-.14v-1.2c0-.07-.06-.14-.14-.14s-.14.06-.14.14v1.2c0,.08.06.14.14.14Z"
            style="fill: #394b77;" />
          <path
            d="M310.56,100.43c-.16,0-.27-.07-.35-.14-.03-.02-.06-.03-.09-.03-.07,0-.12.05-.12.11,0,.05.03.08.04.1.14.13.31.2.51.2.39,0,.53-.22.53-.41,0-.23-.16-.33-.49-.46-.23-.09-.3-.13-.3-.24,0-.12.13-.15.25-.15.1,0,.19.03.3.09,0,0,.01,0,.01,0,.02.01.04.02.08.02.07,0,.12-.05.12-.12s-.06-.11-.09-.12c-.12-.08-.26-.12-.42-.12-.32,0-.52.15-.52.4,0,.23.19.35.48.47.22.08.31.13.31.23s-.09.16-.25.16Z"
            style="fill: #394b77;" />
          <path
            d="M312.02,99.17c-.17,0-.31.06-.41.17v-.02c0-.08-.06-.14-.14-.14s-.14.06-.14.14v1.2c0,.08.06.14.14.14s.14-.06.14-.14v-.65c0-.26.15-.44.37-.44s.33.13.33.39v.7c0,.08.06.14.14.14s.14-.06.14-.14v-.7c0-.4-.21-.65-.56-.65Z"
            style="fill: #394b77;" />
          <path
            d="M313.52,100.67c.21,0,.39-.09.52-.27.01-.02.03-.05.03-.09,0-.06-.04-.12-.13-.12-.04,0-.08.02-.11.06-.1.12-.19.18-.32.18-.3,0-.38-.22-.4-.39h.87c.07,0,.12-.05.12-.12,0-.44-.25-.74-.61-.74-.38,0-.66.32-.66.75,0,.35.18.75.68.75ZM313.12,99.79c.03-.19.16-.37.38-.37.2,0,.32.18.35.37h-.73Z"
            style="fill: #394b77;" />
          <path
            d="M314.32,100.98s-.08.06-.08.12c0,.07.06.12.13.12.03,0,.05,0,.07-.02.25-.17.44-.42.57-.75.13-.35.38-1.06.4-1.09,0-.02.01-.04.01-.06,0-.08-.05-.13-.13-.13s-.11.05-.12.09l-.35.98-.38-.98s-.04-.09-.12-.09c-.08,0-.13.05-.13.13,0,.03,0,.05.01.07l.47,1.21c-.08.15-.17.26-.35.39Z"
            style="fill: #394b77;" />
          <path d="M315.52,100.3c-.1,0-.17.08-.17.17s.08.17.17.17.17-.08.17-.17-.08-.17-.17-.17Z"
            style="fill: #394b77;" />
          <path
            d="M317.94,99.5c.15-.1.24-.26.24-.45,0-.34-.25-.56-.63-.56h-.55c-.08,0-.14.06-.14.14v1.86c0,.08.06.14.14.14h.61c.49,0,.71-.3.71-.6,0-.25-.14-.45-.37-.53ZM317.13,99.41v-.66h.43c.22,0,.35.12.35.32,0,.16-.11.34-.36.34h-.41ZM317.13,99.65h.47c.27,0,.44.14.44.36s-.16.36-.42.36h-.49v-.73Z"
            style="fill: #394b77;" />
          <path
            d="M319.44,100.56c.02.06.07.1.13.1.08,0,.14-.06.14-.14v-.74c0-.39-.22-.61-.62-.61-.17,0-.33.04-.45.1-.02.01-.08.05-.08.12,0,.07.05.12.12.12.03,0,.05,0,.07-.02.11-.05.2-.07.32-.07.25,0,.36.11.36.36v.1c-.09-.06-.22-.1-.35-.1-.34,0-.56.18-.56.45s.23.45.54.45c.15,0,.28-.04.38-.11ZM319.43,100.22c0,.12-.15.22-.34.22s-.31-.08-.31-.22.12-.21.31-.21c.16,0,.33.07.33.21Z"
            style="fill: #394b77;" />
          <path
            d="M320.53,100.43c-.16,0-.27-.07-.35-.14-.03-.02-.06-.03-.09-.03-.07,0-.12.05-.12.11,0,.04.01.07.04.1.14.13.31.2.51.2.39,0,.53-.22.53-.41,0-.23-.16-.33-.49-.46-.23-.09-.3-.13-.3-.24,0-.12.13-.15.25-.15.1,0,.19.03.3.09,0,0,.01,0,.01,0,.02.01.04.02.07.02.07,0,.12-.05.12-.12s-.06-.11-.09-.12c-.12-.08-.26-.12-.42-.12-.32,0-.52.15-.52.4,0,.23.19.35.48.47.22.08.31.13.31.23s-.09.16-.25.16Z"
            style="fill: #394b77;" />
          <path
            d="M322.45,100.31c0-.06-.04-.12-.13-.12-.03,0-.07.01-.1.06-.1.12-.19.18-.32.18-.3,0-.38-.22-.4-.39h.87c.07,0,.12-.05.12-.12,0-.44-.25-.74-.61-.74-.38,0-.66.32-.66.75,0,.35.18.75.68.75.21,0,.39-.09.52-.27.02-.02.03-.05.03-.09ZM321.5,99.79c.03-.19.16-.37.38-.37.2,0,.32.18.35.37h-.73Z"
            style="fill: #394b77;" />
          <path
            d="M323.28,100.67c.17,0,.32-.06.42-.18v.03c0,.08.06.14.14.14s.14-.06.14-.14v-1.91c0-.07-.06-.14-.14-.14s-.14.06-.14.14v.74c-.11-.12-.25-.18-.42-.18-.36,0-.62.32-.62.75s.26.75.62.75ZM322.93,99.92c0-.23.1-.5.37-.5.23,0,.4.22.4.5s-.17.5-.4.5c-.27,0-.37-.27-.37-.5Z"
            style="fill: #394b77;" />
          <path
            d="M326.38,99.92c0-.36-.23-.75-.66-.75s-.66.39-.66.75.23.75.66.75.66-.39.66-.75ZM326.1,99.92c0,.25-.13.5-.39.5s-.39-.25-.39-.5.13-.5.39-.5.39.25.39.5Z"
            style="fill: #394b77;" />
          <path
            d="M327.61,99.82v.7c0,.08.06.14.14.14s.14-.06.14-.14v-.7c0-.4-.21-.65-.56-.65-.17,0-.31.06-.41.17v-.02c0-.08-.06-.14-.14-.14s-.14.06-.14.14v1.2c0,.08.06.14.14.14s.14-.06.14-.14v-.65c0-.26.15-.44.37-.44s.33.13.33.39Z"
            style="fill: #394b77;" />
          <path
            d="M329.81,99.33c0-.07-.05-.12-.12-.12h-.24v-.38c0-.08-.06-.14-.14-.14s-.14.06-.14.14v.38h-.2c-.07,0-.12.05-.12.12s.06.12.12.12h.2v1.07c0,.08.06.14.14.14s.14-.06.14-.14v-1.07h.24c.07,0,.12-.06.12-.12Z"
            style="fill: #394b77;" />
          <path
            d="M331.19,100.52v-.7c0-.4-.21-.65-.56-.65-.17,0-.31.06-.41.17v-.73c0-.08-.06-.14-.14-.14s-.14.06-.14.14v1.91c0,.08.06.14.14.14s.14-.06.14-.14v-.65c0-.26.15-.44.37-.44s.33.13.33.39v.7c0,.08.06.14.14.14s.14-.06.14-.14Z"
            style="fill: #394b77;" />
          <path
            d="M332.13,100.67c.21,0,.39-.09.52-.27.01-.02.03-.05.03-.09,0-.06-.04-.12-.13-.12-.04,0-.08.02-.1.06-.1.12-.19.18-.32.18-.3,0-.38-.22-.4-.39h.87c.07,0,.12-.05.12-.12,0-.44-.25-.74-.61-.74-.38,0-.66.32-.66.75,0,.35.18.75.68.75ZM331.73,99.79c.03-.19.16-.37.38-.37.2,0,.32.18.35.37h-.73Z"
            style="fill: #394b77;" />
          <path
            d="M334.46,98.47c-.1,0-.13.09-.14.12t0,0c-.06.17-.08.32-.08.5v.13c0,.08.05.13.13.13s.13-.05.13-.13v-.13c0-.16.02-.28.07-.44,0-.02.01-.04.01-.07,0-.07-.05-.12-.12-.12Z"
            style="fill: #394b77;" />
          <path
            d="M333.95,98.47c-.1,0-.13.09-.14.12,0,0,0,0,0,0-.06.17-.08.32-.08.5v.13c0,.08.05.13.13.13s.13-.05.13-.13v-.13c0-.15.02-.28.07-.44,0-.02.01-.04.01-.07,0-.07-.05-.12-.12-.12Z"
            style="fill: #394b77;" />
          <path
            d="M337.16,98.47c-.1,0-.12.07-.13.1l-.46,1.51-.43-1.51c-.02-.06-.06-.1-.13-.1s-.11.03-.13.1l-.43,1.51-.46-1.5c-.02-.07-.06-.1-.12-.1-.08,0-.13.05-.13.13,0,.02,0,.04,0,.05l.59,1.91c.02.06.06.09.13.09s.11-.03.13-.11l.43-1.49.43,1.49c.03.09.09.1.13.1.06,0,.11-.03.12-.09l.59-1.92s0-.03,0-.05c0-.07-.05-.13-.13-.13Z"
            style="fill: #394b77;" />
          <path d="M337.62,99.18c-.08,0-.14.06-.14.14v1.2c0,.08.06.14.14.14s.14-.06.14-.14v-1.2c0-.07-.06-.14-.14-.14Z"
            style="fill: #394b77;" />
          <circle cx="337.62" cy="98.85" r=".17" style="fill: #394b77;" />
          <path
            d="M339.37,100.52v-.7c0-.4-.21-.65-.56-.65-.17,0-.31.06-.41.17v-.02c0-.08-.06-.14-.14-.14s-.14.06-.14.14v1.2c0,.08.06.14.14.14s.14-.06.14-.14v-.65c0-.26.15-.44.37-.44s.33.13.33.39v.7c0,.08.06.14.14.14s.14-.06.14-.14Z"
            style="fill: #394b77;" />
          <path
            d="M340.68,100.52c0,.08.06.14.14.14s.14-.06.14-.14v-.7c0-.4-.21-.65-.56-.65-.17,0-.31.06-.41.17v-.02c0-.08-.06-.14-.14-.14s-.14.06-.14.14v1.2c0,.08.06.14.14.14s.14-.06.14-.14v-.65c0-.26.15-.44.37-.44s.33.13.33.39v.7Z"
            style="fill: #394b77;" />
          <path d="M341.44,99.18c-.08,0-.14.06-.14.14v1.2c0,.08.06.14.14.14s.14-.06.14-.14v-1.2c0-.07-.06-.14-.14-.14Z"
            style="fill: #394b77;" />
          <circle cx="341.44" cy="98.85" r=".17" style="fill: #394b77;" />
          <path
            d="M342.53,100.67c.21,0,.39-.09.52-.28.01-.02.03-.05.03-.08,0-.06-.04-.12-.13-.12-.04,0-.08.02-.1.06-.1.12-.19.18-.32.18-.3,0-.38-.22-.4-.39h.87c.07,0,.12-.05.12-.12,0-.44-.25-.74-.62-.74-.38,0-.66.32-.66.75,0,.35.18.75.68.75ZM342.13,99.79c.03-.19.16-.37.38-.37.2,0,.32.18.35.37h-.73Z"
            style="fill: #394b77;" />
          <path
            d="M344.11,99.45h.2v1.07c0,.08.06.14.14.14s.14-.06.14-.14v-1.07h.24c.07,0,.12-.06.12-.12s-.06-.12-.12-.12h-.24v-.38c0-.08-.06-.14-.14-.14s-.14.06-.14.14v.38h-.2c-.07,0-.12.05-.12.12s.05.12.12.12Z"
            style="fill: #394b77;" />
          <path
            d="M345.73,99.43c.22,0,.33.13.33.39v.7c0,.08.06.14.14.14s.14-.06.14-.14v-.7c0-.4-.21-.65-.56-.65-.17,0-.31.06-.41.17v-.73c0-.08-.06-.14-.14-.14s-.14.06-.14.14v1.91c0,.08.06.14.14.14s.14-.06.14-.14v-.65c0-.26.15-.44.37-.44Z"
            style="fill: #394b77;" />
          <path
            d="M347.78,100.4s.03-.05.03-.09c0-.06-.04-.12-.13-.12-.03,0-.07.01-.1.06-.1.13-.19.18-.32.18-.3,0-.38-.22-.4-.39h.87c.07,0,.12-.05.12-.12,0-.44-.25-.74-.61-.74-.38,0-.66.32-.66.75,0,.35.18.75.68.75.21,0,.39-.09.52-.27ZM346.87,99.79c.03-.19.16-.37.38-.37.2,0,.32.18.35.37h-.73Z"
            style="fill: #394b77;" />
          <path
            d="M350.35,99.12c0-.38-.26-.62-.67-.62h-.62c-.07,0-.14.06-.14.14v1.89c0,.08.06.14.14.14s.14-.06.14-.14v-.78h.48c.41,0,.67-.24.67-.62ZM350.08,99.12c0,.22-.14.37-.37.37h-.52v-.74h.52c.22,0,.37.14.37.37Z"
            style="fill: #394b77;" />
          <path
            d="M351.04,99.17c-.43,0-.66.39-.66.75s.23.75.66.75.66-.39.66-.75-.23-.75-.66-.75ZM351.43,99.92c0,.25-.13.5-.39.5s-.39-.25-.39-.5.13-.5.39-.5.39.25.39.5Z"
            style="fill: #394b77;" />
          <path
            d="M352.55,99.17c-.43,0-.66.39-.66.75s.23.75.66.75.66-.39.66-.75-.23-.75-.66-.75ZM352.94,99.92c0,.25-.13.5-.39.5s-.39-.25-.39-.5.13-.5.39-.5.39.25.39.5Z"
            style="fill: #394b77;" />
          <path
            d="M354.17,99.17c-.17,0-.31.06-.41.17v-.73c0-.08-.06-.14-.14-.14s-.14.06-.14.14v1.91c0,.08.06.14.14.14s.14-.06.14-.14v-.65c0-.26.15-.44.37-.44s.33.13.33.39v.7c0,.08.06.14.14.14s.14-.06.14-.14v-.7c0-.4-.21-.65-.56-.65Z"
            style="fill: #394b77;" />
          <path
            d="M355.69,98.47c-.07,0-.13.05-.13.13v.13c0,.15-.02.28-.08.44,0,.02-.01.04-.01.07,0,.07.05.12.12.12.1,0,.13-.09.14-.12,0,0,0,0,0,0,.06-.17.08-.32.08-.5v-.13c0-.08-.05-.13-.13-.13Z"
            style="fill: #394b77;" />
          <path
            d="M355.17,98.47c-.08,0-.13.05-.13.13v.13c0,.16-.02.28-.07.44,0,.02-.01.04-.01.07,0,.07.05.12.12.12.1,0,.13-.09.14-.12h0c.06-.17.08-.32.08-.5v-.13c0-.08-.05-.13-.13-.13Z"
            style="fill: #394b77;" />
          <path
            d="M306.72,102.63c-.06,0-.1.03-.12.09l-.26.86-.3-.87c-.02-.06-.06-.09-.12-.09s-.1.03-.12.09l-.3.87-.26-.86c-.02-.06-.06-.1-.12-.1-.08,0-.13.05-.13.13,0,.02,0,.03,0,.05l.37,1.21c.02.06.06.09.12.09s.1-.03.12-.09l.3-.86.3.86c.02.06.07.09.12.09.06,0,.1-.03.13-.09l.37-1.22s0-.02,0-.04c0-.08-.05-.13-.13-.13Z"
            style="fill: #394b77;" />
          <path
            d="M307.61,102.62c-.43,0-.66.39-.66.75s.23.75.66.75.66-.39.66-.75-.23-.75-.66-.75ZM308,103.37c0,.25-.13.5-.39.5s-.39-.25-.39-.5.13-.5.39-.5.39.25.39.5Z"
            style="fill: #394b77;" />
          <path
            d="M309.15,102.63c-.13,0-.25.06-.33.16v-.02c0-.08-.06-.14-.14-.14s-.14.06-.14.14v1.2c0,.08.06.14.14.14s.14-.06.14-.14v-.53c0-.26.09-.54.33-.54h0c.08,0,.14-.05.14-.13s-.05-.13-.14-.13Z"
            style="fill: #394b77;" />
          <path
            d="M310.06,103.24l.42-.38s.04-.05.04-.09c0-.07-.06-.13-.13-.13-.04,0-.07.02-.09.04,0,0,0,0,0,0l-.59.54v-1.16c0-.08-.06-.14-.14-.14s-.14.06-.14.14v1.91c0,.08.06.14.14.14s.14-.06.14-.14v-.41l.15-.15.45.63s.04.06.1.06c.08,0,.14-.06.14-.13,0-.03,0-.05-.03-.08l-.47-.66Z"
            style="fill: #394b77;" />
          <path
            d="M311.3,103.25c-.23-.09-.3-.13-.3-.23,0-.12.13-.15.25-.15.09,0,.19.03.31.1.02.01.05.02.08.02.07,0,.12-.05.12-.12s-.06-.11-.09-.12c-.12-.08-.26-.12-.42-.12-.32,0-.52.15-.52.4s.23.37.48.47c.22.08.31.13.31.23s-.09.16-.25.16-.27-.07-.35-.14c-.03-.02-.06-.03-.09-.03-.07,0-.12.05-.12.12,0,.05.03.08.04.1.14.13.31.2.51.2.39,0,.53-.22.53-.41,0-.23-.16-.33-.49-.46Z"
            style="fill: #394b77;" />
          <path
            d="M313.55,102.62c-.17,0-.32.06-.42.18v-.74c0-.08-.06-.14-.14-.14s-.14.06-.14.14v1.91c0,.08.06.14.14.14s.14-.06.14-.14v-.03c.11.12.26.18.42.18.36,0,.62-.32.62-.75s-.26-.75-.62-.75ZM313.9,103.37c0,.23-.1.5-.37.5-.23,0-.4-.22-.4-.5s.17-.5.4-.5c.27,0,.37.27.37.5Z"
            style="fill: #394b77;" />
          <path
            d="M315.37,102.63c-.08,0-.11.04-.12.09l-.35.98-.38-.98s-.04-.1-.12-.1c-.08,0-.13.05-.13.13,0,.03,0,.05.02.07l.47,1.21c-.08.15-.17.27-.35.39-.04.03-.07.06-.07.12,0,.07.06.12.13.12.03,0,.05,0,.07-.02.25-.17.44-.41.57-.75.13-.34.38-1.05.39-1.09,0-.02.01-.04.01-.06,0-.08-.05-.13-.13-.13Z"
            style="fill: #394b77;" />
          <path
            d="M317.29,102.02c-.03-.08-.09-.1-.13-.1s-.1.02-.13.1l-.73,1.91s-.01.03-.01.06c0,.06.05.12.14.12.09,0,.11-.07.12-.09l.18-.48h.86l.19.48s.04.09.12.09c.09,0,.14-.06.14-.12,0-.02,0-.04-.01-.06l-.73-1.91ZM317.5,103.28h-.68l.34-.91.34.91Z"
            style="fill: #394b77;" />
          <circle cx="318.43" cy="103.93" r=".17" style="fill: #394b77;" />
          <path
            d="M320.56,103.93l-.73-1.91c-.03-.08-.09-.1-.13-.1-.06,0-.11.04-.13.1l-.73,1.91s-.01.03-.01.06c0,.06.05.12.14.12.06,0,.1-.03.12-.09l.18-.48h.86l.19.48s.04.09.12.09c.09,0,.14-.06.14-.12,0-.02,0-.04-.01-.06h0ZM320.04,103.28h-.68l.34-.91.34.91Z"
            style="fill: #394b77;" />
          <circle cx="320.96" cy="103.93" r=".17" style="fill: #394b77;" />
          <path
            d="M324.06,101.92c-.08,0-.11.05-.13.09,0,0,0,0,0,0l-.69,1.64-.69-1.64s-.05-.09-.13-.09c-.08,0-.13.05-.13.13v1.92c0,.07.06.13.13.13s.13-.06.13-.13v-1.27l.55,1.31c.02.06.07.09.13.09s.11-.03.13-.09l.55-1.31v1.27c0,.07.06.13.13.13s.13-.06.13-.13v-1.92c0-.08-.05-.13-.13-.13Z"
            style="fill: #394b77;" />
          <path d="M324.71,102.13c-.09,0-.17.07-.17.17s.07.17.17.17.17-.07.17-.17-.07-.17-.17-.17Z"
            style="fill: #394b77;" />
          <path d="M324.71,102.63c-.08,0-.14.06-.14.14v1.2c0,.08.06.14.14.14s.14-.06.14-.14v-1.2c0-.08-.06-.14-.14-.14Z"
            style="fill: #394b77;" />
          <path
            d="M325.35,101.92c-.08,0-.14.06-.14.14v1.91c0,.08.06.14.14.14s.14-.06.14-.14v-1.91c0-.08-.06-.14-.14-.14Z"
            style="fill: #394b77;" />
          <path
            d="M326.53,102.62c-.17,0-.31.06-.41.17v-.02c0-.08-.06-.14-.14-.14s-.14.06-.14.14v1.2c0,.08.06.14.14.14s.14-.06.14-.14v-.65c0-.27.15-.44.37-.44s.33.13.33.39v.7c0,.08.06.14.14.14s.14-.06.14-.14v-.7c0-.4-.21-.65-.56-.65Z"
            style="fill: #394b77;" />
          <path
            d="M328,102.62c-.38,0-.66.32-.66.75,0,.35.18.75.68.75.21,0,.39-.09.52-.27.01-.02.03-.05.03-.08,0-.06-.04-.12-.13-.12-.04,0-.08.02-.11.06-.1.12-.19.18-.32.18-.29,0-.38-.2-.4-.39h.87c.07,0,.12-.05.12-.12,0-.44-.25-.74-.61-.74ZM328.35,103.24h-.73c.03-.19.16-.38.38-.38.2,0,.32.18.35.38Z"
            style="fill: #394b77;" />
          <path
            d="M330.18,102.62c-.17,0-.33.03-.45.1-.03.02-.08.05-.08.12s.05.12.12.12c.03,0,.05,0,.07-.02.11-.05.2-.08.32-.08.25,0,.36.11.36.36v.1c-.09-.07-.21-.1-.35-.1-.34,0-.56.18-.56.45s.23.45.54.45c.15,0,.28-.04.38-.11.02.06.07.1.13.1.08,0,.14-.06.14-.14v-.75c0-.38-.22-.61-.61-.61ZM330.53,103.67c0,.12-.15.22-.34.22s-.3-.08-.3-.22.12-.21.31-.21c.16,0,.33.07.33.21Z"
            style="fill: #394b77;" />
          <path
            d="M331.82,102.62c-.17,0-.31.06-.41.17v-.02c0-.08-.06-.14-.14-.14s-.14.06-.14.14v1.2c0,.08.06.14.14.14s.14-.06.14-.14v-.65c0-.27.15-.44.37-.44s.33.13.33.39v.7c0,.08.06.14.14.14s.14-.06.14-.14v-.7c0-.4-.21-.65-.56-.65Z"
            style="fill: #394b77;" />
          <path
            d="M333.83,101.92c-.08,0-.14.06-.14.14v.74c-.11-.12-.25-.18-.42-.18-.36,0-.62.32-.62.75s.26.75.62.75c.17,0,.32-.06.42-.18v.03c0,.08.06.14.14.14s.14-.06.14-.14v-1.91c0-.08-.06-.14-.14-.14ZM333.69,103.37c0,.29-.17.5-.4.5-.27,0-.37-.27-.37-.5s.1-.5.37-.5c.23,0,.4.22.4.5Z"
            style="fill: #394b77;" />
          <path
            d="M336.31,103.83h-.9v-.71h.54c.07,0,.13-.06.13-.13s-.06-.13-.13-.13h-.54v-.66h.89c.07,0,.13-.06.13-.13s-.06-.13-.13-.13h-1.02c-.08,0-.14.06-.14.14v1.86c0,.08.06.14.14.14h1.03c.07,0,.13-.06.13-.13s-.06-.13-.13-.13Z"
            style="fill: #394b77;" />
          <circle cx="336.84" cy="103.93" r=".17" style="fill: #394b77;" />
          <path
            d="M338.73,101.92c-.08,0-.14.06-.14.14v.8h-.94v-.8c0-.08-.06-.14-.14-.14s-.14.06-.14.14v1.91c0,.08.06.14.14.14s.14-.06.14-.14v-.86h.94v.86c0,.08.06.14.14.14s.14-.06.14-.14v-1.91c0-.08-.06-.14-.14-.14Z"
            style="fill: #394b77;" />
          <circle cx="339.41" cy="103.93" r=".17" style="fill: #394b77;" />
          <path
            d="M341.42,102.87c-.36-.19-.46-.28-.46-.43,0-.23.23-.28.42-.28.15,0,.29.05.43.14.03.02.06.04.09.04.08,0,.12-.07.12-.13s-.06-.1-.08-.12c-.17-.12-.35-.18-.57-.18-.42,0-.69.21-.69.54,0,.27.18.45.65.68.37.18.48.28.48.44,0,.19-.16.31-.42.31-.19,0-.36-.07-.5-.2-.02-.02-.05-.05-.1-.05-.07,0-.12.05-.12.12,0,.06.03.09.06.12.16.16.41.26.67.26.42,0,.7-.22.7-.56s-.23-.46-.67-.69Z"
            style="fill: #394b77;" />
          <path
            d="M343.04,102.62c-.17,0-.31.06-.41.17v-.73c0-.08-.06-.14-.14-.14s-.14.06-.14.14v1.91c0,.08.06.14.14.14s.14-.06.14-.14v-.65c0-.27.15-.44.37-.44s.33.13.33.39v.7c0,.08.06.14.14.14s.14-.06.14-.14v-.7c0-.4-.21-.65-.56-.65Z"
            style="fill: #394b77;" />
          <path
            d="M344.51,102.62c-.38,0-.66.32-.66.75,0,.35.18.75.68.75.21,0,.39-.09.52-.27.01-.02.03-.05.03-.08,0-.06-.04-.12-.13-.12-.04,0-.08.02-.11.06-.1.12-.19.18-.32.18-.29,0-.38-.2-.4-.39h.87c.07,0,.12-.05.12-.12,0-.44-.25-.74-.62-.74ZM344.86,103.24h-.73c.03-.19.16-.38.38-.38.2,0,.32.18.35.38Z"
            style="fill: #394b77;" />
          <path
            d="M346.08,102.62c-.17,0-.32.06-.42.18v-.03c0-.08-.06-.14-.14-.14s-.14.06-.14.14v1.78c0,.07.06.14.14.14s.14-.06.14-.14v-.61c.11.12.25.18.42.18.36,0,.62-.32.62-.75s-.26-.75-.62-.75ZM346.43,103.37c0,.23-.1.5-.37.5-.23,0-.4-.22-.4-.5s.17-.5.4-.5c.27,0,.37.27.37.5Z"
            style="fill: #394b77;" />
          <path
            d="M347.49,102.62c-.17,0-.33.03-.45.1-.02.01-.08.05-.08.12,0,.07.05.12.12.12.03,0,.05,0,.07-.02.11-.05.2-.08.32-.08.25,0,.36.11.36.36v.1c-.09-.07-.22-.1-.35-.1-.33,0-.56.18-.56.45s.23.45.54.45c.15,0,.28-.04.38-.11.02.06.07.1.13.1.08,0,.14-.06.14-.14v-.75c0-.38-.22-.61-.61-.61ZM347.83,103.67c0,.12-.15.22-.34.22s-.31-.08-.31-.22.12-.21.31-.21c.16,0,.33.07.33.21Z"
            style="fill: #394b77;" />
          <path
            d="M349.05,102.63c-.13,0-.25.06-.33.16v-.02c0-.08-.06-.14-.14-.14s-.14.06-.14.14v1.2c0,.08.06.14.14.14s.14-.06.14-.14v-.53c0-.26.09-.54.33-.54h0c.08,0,.14-.05.14-.13s-.05-.13-.14-.13Z"
            style="fill: #394b77;" />
          <path
            d="M350.42,101.92c-.08,0-.14.06-.14.14v.74c-.11-.12-.26-.18-.42-.18-.36,0-.62.32-.62.75s.26.75.62.75c.17,0,.32-.06.42-.18v.03c0,.08.06.14.14.14s.14-.06.14-.14v-1.91c0-.08-.06-.14-.14-.14ZM350.28,103.37c0,.29-.17.5-.4.5-.27,0-.37-.27-.37-.5s.1-.5.37-.5c.23,0,.4.22.4.5Z"
            style="fill: #394b77;" />
          <circle cx="351.08" cy="103.93" r=".17" style="fill: #394b77;" />
        </g>
      </g>
    </g>
  </g>
</svg>