<?xml version="1.0" encoding="UTF-8"?>
<svg id="Layer_1" data-name="Layer 1" xmlns="http://www.w3.org/2000/svg" viewBox="0 0 76.56 118.36" data-tagsize="28x29 mm">
  <defs>
    <style>
      .cls-1 {
        letter-spacing: 0em;
      }

      .cls-2 {
        font-size: 8px;
      }

      .cls-2, .cls-3, .cls-4, .cls-5 {
        fill: #002739;
      }

      .cls-2, .cls-3, .cls-5 {
        font-family: Barlow-Bold, Barlow;
        font-weight: 700;
      }

      .cls-3 {
        font-size: 12px;
      }

      .cls-6 {
        letter-spacing: .05em;
      }

      .cls-7, .cls-8 {
        isolation: isolate;
      }

      .cls-9 {
        letter-spacing: .05em;
      }

      .cls-8 {
        fill: #03253b;
        font-family: Barlow-Medium, Barlow;
        font-size: 15px;
        font-weight: 500;
      }

      .cls-5 {
        font-size: 7.3px;
      }

      .cls-10 {
        letter-spacing: .05em;
      }

      .cls-11 {
        letter-spacing: .05em;
      }
    </style>
  </defs>
  <path class="cls-4" d="M65.07,49.27H11.33v-11.1h53.74v11.1ZM66.05,37.3H10.34v12.83h55.72v-12.83Z"/>
  <text class="cls-5" transform="translate(13.3 46.35)"><tspan x="0" y="0">IT</tspan></text>

  <text id="it" class="cls-5" y="39.1%" x="27%" text-anchor="start" letter-spacing="0.1">XXL</text>

  <text class="cls-5" transform="translate(36.55 46.35)"><tspan x="0" y="0">EUR</tspan></text>
  
   <text id="translation_code" class="cls-2" y="68%" x="50%" text-anchor="middle" letter-spacing="0.4">PURE COTTON</text>

  <text id="eur" class="cls-5" y="39.1%" x="66.2%" text-anchor="start" letter-spacing="0.1">XXL</text>

  <g>
    <path class="cls-4" d="M1.91,28.56s-.01-.02-.01-.04v-2.44s0-.03.01-.04c.01-.01.03-.02.04-.02h.57s.03,0,.04.02c0,.01.01.03.01.04v1.89s0,.02.02.02h1.12s.03,0,.04.01c.01.01.02.03.02.04v.48s0,.03-.02.04c-.01.01-.02.02-.04.01h-1.77s-.03,0-.04-.02"/>
    <path class="cls-4" d="M6.18,27.93c.06-.08.1-.17.09-.27v-.72c0-.1-.03-.19-.09-.27-.06-.07-.15-.1-.25-.1-.09,0-.18.03-.24.1-.07.07-.1.17-.09.27v.72c0,.1.03.19.09.27.06.07.15.1.24.1.09,0,.18-.03.25-.1M5.41,28.5c-.15-.08-.27-.2-.36-.34-.09-.16-.13-.34-.12-.52v-.69c0-.18.04-.35.12-.5.08-.15.21-.27.36-.34.16-.08.35-.12.53-.12.18,0,.37.04.53.12.15.08.28.2.36.34.09.15.13.33.13.5v.69c0,.18-.04.36-.13.52-.08.15-.21.27-.36.34-.17.08-.35.13-.53.12-.18,0-.37-.04-.53-.12"/>
    <path class="cls-4" d="M8.83,28.56s-.02-.02-.02-.03l-.72-2.44s0-.01,0-.02c0-.03.02-.04.05-.04h.62s.05.02.06.05l.36,1.54s0,.02.01.02,0,0,.01-.02l.34-1.54s.03-.05.06-.05h.62s.05.01.05.03c0,.01,0,.02,0,.03l-.72,2.45s0,.03-.02.03c-.01,0-.03.01-.04.01h-.61s-.03,0-.04-.01"/>
    <path class="cls-4" d="M13.34,26.6s-.03.01-.04.01h-1.08s-.02,0-.02.02h0v.35s0,.02.02.02h.67s.03,0,.04.01c.01.01.02.03.02.04v.48s0,.03-.02.04c-.01.01-.03.02-.04.01h-.67s-.02,0-.02.02h0v.38s0,.02.02.02h1.09s.03,0,.04.01c0,.01.01.03.01.04v.48s0,.03-.01.04c-.01.01-.02.02-.04.01h-1.74s-.03-.01-.03-.03c-.01-.01-.02-.02-.01-.04v-2.44s.02-.05.04-.05h1.74s.03,0,.04.01c0,.01.01.02.01.04v.48s0,.03-.01.04"/>
    <path class="cls-4" d="M17.55,27.06c.06-.05.09-.12.08-.19,0-.07-.03-.14-.08-.19-.06-.05-.14-.08-.21-.07h-.3s-.02,0-.02.02v.49s0,.02.02.02h.31c.08,0,.15-.02.21-.07M17.9,26.13c.13.07.23.17.3.3.07.14.11.29.11.44,0,.15-.04.3-.11.43-.08.12-.19.23-.32.29-.14.07-.31.11-.47.1h-.38s-.02,0-.02.02v.82s0,.03-.01.04c-.01.01-.03.02-.04.01h-.58s-.03,0-.03-.02c-.01-.01-.02-.03-.02-.04v-2.44s0-.03.02-.04c.01-.01.02-.02.04-.02h1.06c.16,0,.31.03.45.1"/>
    <path class="cls-4" d="M21.36,26.6s-.03.02-.04.01h-1.08s-.02,0-.02.02v.34s0,.02.02.02h.67s.03,0,.04.01c.01.01.02.03.01.04v.48s0,.03-.01.04c-.01,0-.03.01-.04.01h-.67s-.02,0-.02.02v.38s0,.02.02.02h1.08s.03,0,.04.01c.01.01.02.03.02.04v.48s0,.03-.02.04c-.01.01-.03.02-.04.01h-1.73s-.03,0-.04-.01c0-.01-.02-.03-.01-.04v-2.46s0-.03.01-.04c.01-.01.03-.02.04-.01h1.73s.03,0,.04.01c.01.01.02.02.02.04v.48s0,.03-.02.04"/>
    <path class="cls-4" d="M23.85,27.93c.06-.08.1-.17.09-.27v-.72c0-.1-.03-.19-.09-.27-.06-.07-.15-.1-.25-.1-.09,0-.18.03-.24.1-.07.07-.1.17-.09.27v.72c0,.1.03.19.09.27.06.07.15.1.24.1.09,0,.18-.03.25-.1M23.07,28.5c-.15-.08-.27-.2-.36-.34-.09-.16-.13-.34-.12-.52v-.69c0-.18.04-.35.12-.5.08-.15.21-.27.36-.34.34-.16.73-.16,1.07,0,.15.08.28.2.36.34.09.15.13.33.13.5v.69c0,.18-.04.36-.13.52-.08.15-.21.27-.36.34-.34.16-.73.16-1.07,0"/>
    <path class="cls-4" d="M27.1,27.06c.05-.05.08-.12.08-.19,0-.07-.03-.14-.08-.19-.06-.05-.14-.08-.22-.07h-.3s-.02,0-.02.02v.49s0,.02.02.02h.3c.08,0,.16-.02.22-.07M27.44,26.13c.13.07.23.17.3.3.07.14.11.29.11.44,0,.15-.04.3-.11.43-.08.12-.18.23-.32.29-.15.07-.31.11-.47.1h-.39s-.02,0-.02.02v.82s0,.03-.02.04c-.01.01-.03.02-.04.01h-.57s-.03,0-.04-.01c0-.01-.01-.03-.01-.04v-2.45s0-.03.01-.04c.01-.01.03-.02.04-.02h1.06c.16,0,.31.03.45.1"/>
    <path class="cls-4" d="M29.09,28.56s-.01-.02-.01-.04v-2.44s0-.03.01-.04c.01-.01.03-.02.04-.02h.57s.03,0,.04.02c0,.01.01.03.01.04v1.89s0,.02.02.02h1.12s.03,0,.04.01c.01.01.02.03.02.04v.48s0,.03-.02.04c-.01.01-.02.02-.04.01h-1.77s-.03,0-.04-.01"/>
    <path class="cls-4" d="M34.01,26.6s-.03.01-.04.01h-1.08s-.02,0-.02.02h0v.35s0,.02.02.02h.67s.03,0,.04.01c.01.01.02.03.02.04v.48s0,.03-.02.04c-.01.01-.03.02-.04.01h-.67s-.02,0-.02.02h0v.38s0,.02.02.02h1.09s.03,0,.04.01c.01.01.01.03.01.04v.48s0,.03-.01.04c-.01.01-.03.02-.04.01h-1.73s-.03,0-.04-.01c0-.01-.01-.03-.01-.04v-2.46s.02-.05.04-.05h1.74s.03,0,.04.01c0,.01.01.02.01.04v.48s0,.03-.01.04"/>
    <path class="cls-4" d="M35.04,28.51c-.13-.13-.13-.35,0-.49.14-.13.35-.13.49,0,.13.14.13.35,0,.48-.14.13-.35.13-.49,0"/>
    <path class="cls-4" d="M39.84,26.04s.02-.01.04-.01h.57s.03,0,.04.01c0,.01.01.03.01.04v2.45s0,.03-.01.04c-.01.01-.03.02-.04.02h-.55s-.05-.01-.06-.04l-.74-1.24s0-.01-.01,0,0,0,0,.02v1.22s0,.03-.01.04c-.01.01-.02.02-.04.02h-.57s-.03,0-.04-.02c-.01-.01-.01-.03-.01-.04v-2.45s.02-.05.04-.05h.56s.05.01.07.04l.74,1.24s.01.01.02,0c0-.01,0,0,0-.02v-1.22s0-.03.01-.04"/>
    <path class="cls-4" d="M43.03,27.93c.06-.07.1-.17.09-.27v-.72c0-.1-.03-.19-.09-.27-.06-.07-.15-.1-.25-.1-.09,0-.18.03-.24.1-.07.07-.1.17-.09.27v.72c0,.1.03.19.09.27.06.07.15.1.24.1.09,0,.18-.03.25-.1M42.26,28.5c-.15-.08-.27-.2-.36-.34-.09-.16-.13-.34-.12-.52v-.69c0-.18.04-.35.12-.5.08-.15.21-.27.36-.34.34-.16.73-.16,1.07,0,.15.08.28.2.36.34.09.15.13.33.13.5v.69c0,.18-.04.36-.13.52-.08.15-.21.27-.36.34-.34.16-.73.16-1.07,0"/>
    <path class="cls-4" d="M46.98,26.04s.02.03.02.04v.48s0,.03-.02.04c-.01,0-.03.01-.04.01h-.61s-.02,0-.02.02c0,0,0,0,0,0v1.89s0,.03-.01.04c-.01.01-.03.02-.04.02h-.57s-.03,0-.04-.02c-.01-.01-.02-.03-.02-.04v-1.89s0-.02-.02-.02h-.59s-.03,0-.04-.01c-.01-.01-.02-.03-.02-.04v-.48s0-.03.02-.04c.01,0,.02-.02.04-.01h1.92s.03,0,.04.01"/>
    <path class="cls-4" d="M49.98,28.56s-.02-.02-.02-.04v-2.44s0-.03.02-.04c0-.01.02-.02.04-.02h.57s.03,0,.04.02.02.03.02.04v1.89s0,.02.02.02h1.12s.05.01.05.04c0,0,0,0,0,.01v.48s0,.03-.01.04c-.01.01-.03.02-.04.01h-1.77s-.03,0-.04-.01"/>
    <path class="cls-4" d="M53.99,27.7h.46s.02,0,.01-.02l-.23-.82s0-.01-.01-.01,0,0-.01.01l-.23.82s0,.02.01.02M54.7,28.52l-.08-.29s-.01-.01-.02-.01h-.77s-.01,0-.02.01l-.08.29s-.03.05-.06.05h-.62s-.06-.02-.05-.06l.77-2.45s.03-.04.06-.04h.77s.05.02.06.04l.76,2.45s0,.01,0,.02c0,.03-.02.04-.05.04h-.62s-.06-.02-.06-.05"/>
    <path class="cls-4" d="M57.96,27.77c0-.14-.09-.21-.26-.21h-.33s-.02,0-.02.02v.38s0,.02.02.02h.33c.17,0,.26-.07.26-.22M57.35,26.63v.36s0,.02.02.02h.3c.17,0,.27-.07.27-.2s-.09-.2-.27-.2h-.3s-.02,0-.02.02M58.33,27.27c.1.05.18.13.24.23.05.11.08.23.08.34.02.22-.08.43-.26.55-.2.12-.44.18-.68.17h-.98s-.03,0-.04-.01c0-.01-.01-.03-.01-.04v-2.45s0-.03.01-.04c.01-.01.03-.02.04-.02h.94c.24-.02.49.04.7.17.17.13.26.34.23.56.01.21-.09.4-.27.5-.01,0-.01.02,0,.02"/>
    <path class="cls-4" d="M61.75,26.6s-.03.02-.04.01h-1.08s-.02,0-.02.02v.34s0,.02.02.02h.67s.03,0,.04.01c.01.01.02.03.01.04v.48s0,.03-.01.04c-.01,0-.03.01-.04.01h-.67s-.02,0-.02.02v.38s0,.02.02.02h1.08s.03,0,.04.01c.01.01.02.03.02.04v.48s0,.03-.02.04c-.01.01-.03.02-.04.01h-1.73s-.03,0-.04-.01c0-.01-.02-.03-.01-.04v-2.46s0-.03.01-.04c.01-.01.03-.02.04-.01h1.73s.03,0,.04.01c.01.01.02.02.02.04v.48s0,.03-.02.04"/>
    <path class="cls-4" d="M63.02,28.56s-.02-.02-.01-.04v-2.44s0-.03.01-.04c0-.01.02-.02.04-.02h.57s.03,0,.04.02c0,.01.01.03.01.04v1.89s0,.02.02.02h1.12s.03,0,.04.01c0,.01.01.03.01.04v.48s0,.03-.01.04c-.01.01-.02.02-.04.01h-1.77s-.03,0-.04-.01"/>
    <path class="cls-4" d="M66.53,28.5c-.14-.06-.27-.16-.35-.29-.08-.13-.13-.28-.12-.43v-.05s0-.03.01-.04c.01,0,.02-.01.04-.01h.56s.05.01.05.04c0,0,0,0,0,.01v.02c0,.07.04.14.11.18.08.06.18.08.29.08.07,0,.14-.01.19-.06.04-.03.06-.08.06-.12,0-.05-.03-.1-.07-.12-.09-.04-.17-.08-.27-.1l-.1-.03c-.22-.06-.42-.16-.6-.29-.17-.12-.26-.32-.24-.53,0-.15.04-.29.12-.41.09-.12.21-.22.34-.27.15-.07.32-.1.48-.09.18,0,.35.03.52.1.15.07.27.17.36.3.09.13.14.28.13.44v.03s0,.03-.01.04c-.01,0-.03.02-.04.01h-.56s-.03,0-.04-.01c-.01-.01-.02-.03-.02-.04,0-.08-.03-.16-.1-.21-.07-.06-.17-.09-.27-.09-.06,0-.13.01-.18.05-.04.03-.07.08-.07.13,0,.04.02.08.05.11.05.04.1.07.15.09.07.03.17.06.31.11.02,0,.1.03.26.08.15.04.28.13.38.24.1.12.16.27.15.43,0,.15-.04.3-.12.42-.09.12-.21.22-.34.27-.16.07-.34.1-.52.09-.18,0-.36-.03-.53-.1"/>
    <path class="cls-4" d="M68.9,28.51c-.13-.14-.13-.35,0-.49.06-.06.15-.1.24-.09.18-.01.33.12.34.3,0,.01,0,.03,0,.04,0,.09-.03.18-.1.24-.07.06-.15.1-.24.1-.09,0-.18-.03-.24-.1"/>
    <path class="cls-4" d="M23.17,11.02c0,4.9-2.79,8.34-6.79,8.36-4-.03-6.79-3.47-6.79-8.36s2.79-8.34,6.78-8.36c4,.02,6.79,3.46,6.79,8.36M16.71,0h-.8c-2.69.13-4.99,1.26-6.64,3.28-1.61,1.97-2.49,4.72-2.49,7.74s.89,5.77,2.49,7.74c1.68,2.06,4.02,3.19,6.79,3.28h.79c2.69-.12,4.99-1.25,6.63-3.27,1.61-1.97,2.49-4.73,2.49-7.74s-.89-5.78-2.5-7.74C21.81,1.22,19.47.1,16.71.02"/>
    <polygon class="cls-4" points="35.87 17.45 29.72 .46 26.72 .46 34.45 21.58 37.27 21.58 45.05 .46 42.07 .46 35.87 17.45"/>
    <path class="cls-4" d="M55.34,9.55l-.48-.1c-2.95-.6-5.51-1.12-5.51-3.45,0-2.46,2.45-3.34,4.54-3.34,3.4,0,5.33,1.5,5.45,4.22l.03.78h2.82l-.04-.85C61.96,2.48,58.95,0,53.9,0c-1.92,0-3.7.51-5.01,1.42-1.54,1.08-2.35,2.66-2.35,4.58,0,4.48,4.21,5.35,7.28,5.98l.31.06c3.06.62,5.71,1.16,5.71,3.7,0,2.88-3.05,3.64-4.84,3.64-2.3,0-4.14-.61-5.17-1.71-.77-.82-1.12-1.93-1.03-3.3l.05-.86h-2.86v.8c-.04,2.21.61,4,1.91,5.32,1.55,1.58,4.01,2.41,7.1,2.41,1.83,0,3.64-.49,4.98-1.36,1.75-1.13,2.68-2.84,2.68-4.94,0-4.7-4.4-5.6-7.3-6.2"/>
  </g>
 <text id="fit_label" class="cls-3" y="56.2%" x="50%" text-anchor="middle" letter-spacing="0.6">
  RELAXED FIT
</text>
  <g>
    <g class="cls-7">
    <text id="Quantity" class="cls-8" y="97%" x="50%" text-anchor="middle"><tspan>Qty :</tspan> <tspan>90</tspan></text>
      </g>
  </g>
</svg>