<?xml version="1.0" encoding="UTF-8"?>
<svg id="Layer_1" data-name="Layer 1" data-size="45mm x 70mm" xmlns="http://www.w3.org/2000/svg"
  viewBox="0 0 127.81 284.18">

  <text id="quantity" y="98.4%" x="50%" style="fill: #231f20; font-family: ArialMT, Arial; font-size: 15px;"
    text-anchor="middle">
  </text>
  <g id="qr">
    <path
      d="M86.34,14.35v-2.83s.01-.04.04-.04h.58c.19,0,.35.07.46.21s.17.33.17.56v1.36c0,.23-.06.42-.17.56s-.27.21-.46.21h-.58s-.04-.01-.04-.04M86.62,14.14h.33c.11,0,.2-.05.26-.14.07-.09.1-.22.1-.38v-1.34c0-.16-.03-.29-.1-.39s-.15-.14-.27-.14h-.33s-.02,0-.02.02v2.36s0,.02.02.02"
      style="fill: #141819;" />
    <path d="M87.97,14.35v-2.83s.01-.04.04-.04h.19s.04.01.04.04v2.83s-.01.04-.04.04h-.19s-.04-.01-.04-.04"
      style="fill: #141819;" />
    <path
      d="M89.81,11.74h-.86s-.02,0-.02.02v1.03s0,.02.02.02h.54s.04.01.04.04v.18s-.01.04-.04.04h-.54s-.02,0-.02.02v1.27s-.01.04-.04.04h-.19s-.04-.01-.04-.04v-2.83s.01-.04.04-.04h1.1s.04.01.04.04v.17s-.01.04-.04.04"
      style="fill: #141819;" />
    <path
      d="M91.21,11.74h-.86s-.02,0-.02.02v1.03s0,.02.02.02h.54s.04.01.04.04v.18s-.01.04-.04.04h-.54s-.02,0-.02.02v1.27s-.01.04-.04.04h-.19s-.04-.01-.04-.04v-2.83s.01-.04.04-.04h1.1s.04.01.04.04v.17s-.01.04-.04.04"
      style="fill: #141819;" />
    <path
      d="M92.62,11.74h-.87s-.02,0-.02.02v1.03s0,.02.02.02h.55s.04.01.04.04v.18s-.01.04-.04.04h-.55s-.02,0-.02.02v1.03s0,.02.02.02h.87s.04.01.04.04v.17s-.01.04-.04.04h-1.11s-.04-.01-.04-.04v-2.83s.01-.04.04-.04h1.11s.04.01.04.04v.17s-.01.04-.04.04"
      style="fill: #141819;" />
    <path
      d="M93.97,14.36l-.39-1.29s0-.01-.01-.01h-.32s-.01,0-.01.02v1.28s-.01.04-.04.04h-.19s-.04-.01-.04-.04v-2.83s.01-.04.04-.04h.62c.18,0,.33.07.44.22.11.15.17.34.17.58,0,.18-.04.34-.11.47-.07.13-.16.22-.28.27,0,0-.01.01-.01.02l.41,1.31v.02s0,.03-.03.03h-.19s-.04-.01-.04-.03M93.23,11.76v1.05s0,.02.01.02h.34c.11,0,.21-.05.28-.15.07-.1.1-.23.1-.39s-.03-.3-.1-.4c-.07-.1-.16-.15-.28-.15h-.34s-.01,0-.01.02"
      style="fill: #141819;" />
    <path
      d="M95.66,11.74h-.87s-.02,0-.02.02v1.03s0,.02.02.02h.55s.04.01.04.04v.18s-.01.04-.04.04h-.55s-.02,0-.02.02v1.03s0,.02.02.02h.87s.04.01.04.04v.17s-.01.04-.04.04h-1.11s-.04-.01-.04-.04v-2.83s.01-.04.04-.04h1.11s.04.01.04.04v.17s-.01.04-.04.04"
      style="fill: #141819;" />
    <path
      d="M96.01,14.35v-2.83s.01-.04.04-.04h.2s.03.01.04.03l.75,2.09s0,.01.01.01c0,0,0,0,0-.01v-2.09s.01-.04.04-.04h.19s.04.01.04.04v2.83s-.01.04-.04.04h-.2s-.03-.01-.04-.03l-.75-2.09s0-.01-.01,0c0,0,0,0,0,.01v2.08s0,.04-.03.04h-.19s-.04-.01-.04-.04"
      style="fill: #141819;" />
    <path
      d="M97.6,14.35v-.19s0-.03.01-.05l.91-2.35s0-.01,0-.01c0,0,0,0,0,0h-.87s-.04-.01-.04-.04v-.18s.01-.04.04-.04h1.13s.04.01.04.04v.19s0,.03-.01.05l-.91,2.35s0,.01,0,.02c0,0,0,0,.01,0h.87s.04.01.04.04v.17s-.01.04-.04.04h-1.13s-.04-.01-.04-.04"
      style="fill: #141819;" />
    <path d="M99.12,14.35v-2.83s.01-.04.04-.04h.19s.04.01.04.04v2.83s-.01.04-.04.04h-.19s-.04-.01-.04-.04"
      style="fill: #141819;" />
    <path
      d="M100.84,14.36l-.09-.51s0-.01,0-.01c0,0,0,0-.01,0h-.68s0,0-.01,0c0,0,0,0,0,.01l-.1.51s-.02.04-.04.04h-.19s-.02,0-.03-.01c0,0,0-.02,0-.03l.57-2.83s.02-.04.04-.04h.22s.04.01.04.04l.57,2.83h0s-.01.05-.03.05h-.19s-.04-.01-.04-.04M100.1,13.59h.59s.01,0,.01-.02l-.3-1.6s0-.01,0-.01c0,0,0,0,0,.01l-.3,1.6s0,.02.01.02"
      style="fill: #141819;" />
    <path d="M102.04,14.35v-2.83s.01-.04.04-.04h.19s.04.01.04.04v2.83s-.01.04-.04.04h-.19s-.04-.01-.04-.04"
      style="fill: #141819;" />
    <path
      d="M104.38,14.36l-.39-1.29s0-.01-.01-.01h-.32s-.01,0-.01.02v1.28s-.01.04-.04.04h-.19s-.04-.01-.04-.04v-2.83s.01-.04.04-.04h.62c.18,0,.33.07.44.22.11.15.17.34.17.58,0,.18-.04.34-.1.47-.07.13-.16.22-.29.27,0,0-.01.01-.01.02l.41,1.31v.02s0,.03-.03.03h-.19s-.04-.01-.04-.03M103.64,11.76v1.05s0,.02.01.02h.34c.12,0,.21-.05.28-.15.07-.1.1-.23.1-.39s-.03-.3-.1-.4c-.07-.1-.16-.15-.28-.15h-.34s-.01,0-.01.02"
      style="fill: #141819;" />
    <path d="M104.93,14.35v-2.83s.01-.04.04-.04h.19s.04.01.04.04v2.83s-.01.04-.04.04h-.19s-.04-.01-.04-.04"
      style="fill: #141819;" />
    <path
      d="M106.76,11.74h-.86s-.02,0-.02.02v1.03s0,.02.02.02h.54s.04.01.04.04v.18s-.01.04-.04.04h-.54s-.02,0-.02.02v1.27s-.01.04-.04.04h-.19s-.04-.01-.04-.04v-2.83s.01-.04.04-.04h1.1s.04.01.04.04v.17s-.01.04-.04.04"
      style="fill: #141819;" />
    <path d="M107.02,14.35v-2.83s.01-.04.04-.04h.19s.04.01.04.04v2.83s-.01.04-.04.04h-.19s-.04-.01-.04-.04"
      style="fill: #141819;" />
    <path
      d="M107.87,14.21c-.12-.15-.18-.34-.18-.58v-2.1s.01-.04.04-.04h.19s.04.01.04.04v2.13c0,.15.03.28.1.37.07.09.16.14.27.14s.21-.05.28-.14c.07-.09.1-.22.1-.37v-2.13s.01-.04.04-.04h.19s.04.01.04.04v2.1c0,.24-.06.43-.18.58-.12.15-.28.22-.47.22s-.35-.07-.46-.22"
      style="fill: #141819;" />
    <path
      d="M110.58,11.53v.17s-.01.04-.04.04h-.49s-.02,0-.02.02v2.59s-.01.04-.04.04h-.19s-.04-.01-.04-.04v-2.59s0-.02-.01-.02h-.46s-.04-.01-.04-.04v-.17s.01-.04.04-.04h1.25s.04.01.04.04"
      style="fill: #141819;" />
    <path d="M110.86,14.35v-2.83s.01-.04.04-.04h.19s.04.01.04.04v2.83s-.01.04-.04.04h-.19s-.04-.01-.04-.04"
      style="fill: #141819;" />
    <path
      d="M86.16,46.28c-.12-.13-.17-.31-.17-.53v-.1s.01-.04.04-.04h.19s.04.01.04.04v.09c0,.15.03.26.1.35.07.09.15.14.26.14s.19-.04.26-.13.1-.2.1-.34c0-.1-.02-.18-.05-.24-.03-.07-.08-.13-.13-.18-.05-.05-.14-.13-.27-.24-.12-.1-.22-.19-.29-.26-.07-.07-.13-.16-.18-.26-.05-.1-.07-.22-.07-.36,0-.22.06-.39.17-.51.11-.13.26-.19.44-.19.19,0,.34.07.45.21.11.14.17.32.17.55v.1s-.01.04-.04.04h-.19s-.04-.01-.04-.04v-.11c0-.15-.03-.26-.1-.35-.07-.09-.15-.14-.26-.14-.1,0-.18.04-.25.12-.07.08-.1.19-.1.33,0,.09.01.16.04.23.03.07.07.13.13.18.06.06.14.14.25.23.15.12.26.22.33.3.07.08.13.16.17.25.04.09.06.2.06.33,0,.23-.06.41-.18.55-.12.14-.27.21-.45.21s-.34-.07-.45-.2"
      style="fill: #141819;" />
    <path
      d="M88.67,43.8h-.87s-.01,0-.01.02v1.03s0,.02.01.02h.55s.04.01.04.04v.18s-.01.04-.04.04h-.55s-.01,0-.01.02v1.03s0,.02.01.02h.87s.04.01.04.04v.17s-.01.04-.04.04h-1.11s-.04-.01-.04-.04v-2.83s.01-.04.04-.04h1.11s.04.01.04.04v.17s-.01.04-.04.04"
      style="fill: #141819;" />
    <path
      d="M90.11,43.76c.11.15.17.34.17.58s-.06.43-.17.58c-.11.15-.25.22-.43.22h-.39s-.01,0-.01.02v1.26s-.01.04-.04.04h-.19s-.04-.01-.04-.04v-2.83s.01-.04.04-.04h.62c.18,0,.33.07.44.22M89.91,44.74c.07-.1.1-.23.1-.4s-.04-.3-.1-.4c-.07-.1-.16-.15-.27-.15h-.34s-.01,0-.01.02v1.07s0,.02.01.02h.34c.11,0,.2-.05.27-.15"
      style="fill: #141819;" />
    <path
      d="M91.49,46.41l-.09-.51s0-.01,0-.01c0,0,0,0-.01,0h-.68s0,0-.01,0c0,0,0,0,0,.01l-.1.51s-.02.04-.04.04h-.19s-.02,0-.03-.01c0,0,0-.02,0-.03l.57-2.83s.02-.04.04-.04h.22s.04.01.04.04l.57,2.83h0s-.01.05-.03.05h-.19s-.04-.01-.04-.04M90.75,45.64h.59s.01,0,.01-.02l-.3-1.6s0-.01,0-.01c0,0,0,0,0,.01l-.3,1.6s0,.02.01.02"
      style="fill: #141819;" />
    <path
      d="M93.06,46.41l-.39-1.29s0-.01-.01-.01h-.32s-.01,0-.01.02v1.28s-.01.04-.04.04h-.19s-.04-.01-.04-.04v-2.83s.01-.04.04-.04h.62c.18,0,.33.07.44.22.11.15.17.34.17.58,0,.18-.04.34-.11.47-.07.13-.16.22-.28.27,0,0-.01.01-.01.02l.41,1.31v.02s0,.03-.03.03h-.19s-.04-.01-.05-.03M92.32,43.81v1.05s0,.02.01.02h.34c.11,0,.21-.05.28-.15.07-.1.1-.23.1-.39s-.03-.3-.1-.4c-.07-.1-.16-.15-.28-.15h-.34s-.01,0-.01.02"
      style="fill: #141819;" />
    <path
      d="M94.68,46.41l-.09-.51s0-.01,0-.01c0,0,0,0-.01,0h-.68s0,0-.01,0c0,0,0,0,0,.01l-.1.51s-.02.04-.04.04h-.19s-.02,0-.03-.01c0,0,0-.02,0-.03l.57-2.83s.02-.04.04-.04h.22s.04.01.04.04l.57,2.83h0s-.01.05-.03.05h-.19s-.04-.01-.04-.04M93.93,45.64h.59s.01,0,.01-.02l-.3-1.6s0-.01,0-.01c0,0,0,0,0,.01l-.3,1.6s0,.02.01.02"
      style="fill: #141819;" />
    <path
      d="M96.2,43.58v.17s-.01.04-.04.04h-.49s-.01,0-.01.02v2.59s-.01.04-.04.04h-.19s-.04-.01-.04-.04v-2.59s0-.02-.02-.02h-.46s-.04-.01-.04-.04v-.17s.01-.04.04-.04h1.25s.04.01.04.04"
      style="fill: #141819;" />
    <path
      d="M97.63,43.8h-.87s-.01,0-.01.02v1.03s0,.02.01.02h.55s.04.01.04.04v.18s-.01.04-.04.04h-.55s-.01,0-.01.02v1.03s0,.02.01.02h.87s.04.01.04.04v.17s-.01.04-.04.04h-1.11s-.04-.01-.04-.04v-2.83s.01-.04.04-.04h1.11s.04.01.04.04v.17s-.01.04-.04.04"
      style="fill: #141819;" />
    <path
      d="M99.81,43.58v.17s-.01.04-.04.04h-.49s-.01,0-.01.02v2.59s-.01.04-.04.04h-.19s-.04-.01-.04-.04v-2.59s0-.02-.02-.02h-.46s-.04-.01-.04-.04v-.17s.01-.04.04-.04h1.25s.04.01.04.04"
      style="fill: #141819;" />
    <path
      d="M101.09,43.54h.19s.04.01.04.04v2.83s-.01.04-.04.04h-.19s-.04-.01-.04-.04v-1.27s0-.02-.01-.02h-.67s-.02,0-.02.02v1.27s-.01.04-.04.04h-.19s-.04-.01-.04-.04v-2.83s.01-.04.04-.04h.19s.04.01.04.04v1.26s0,.02.02.02h.67s.01,0,.01-.02v-1.26s.01-.04.04-.04"
      style="fill: #141819;" />
    <path
      d="M102.87,43.8h-.87s-.01,0-.01.02v1.03s0,.02.01.02h.55s.04.01.04.04v.18s-.01.04-.04.04h-.55s-.01,0-.01.02v1.03s0,.02.01.02h.87s.04.01.04.04v.17s-.01.04-.04.04h-1.11s-.04-.01-.04-.04v-2.83s.01-.04.04-.04h1.11s.04.01.04.04v.17s-.01.04-.04.04"
      style="fill: #141819;" />
    <path
      d="M104.19,46.41l-.49-2.83h0s.01-.04.03-.04h.2s.04.01.04.04l.35,2.19s0,0,0,0c0,0,0,0,0,0l.3-2.19s.02-.04.04-.04h.17s.04.01.04.04l.32,2.19s0,0,0,0c0,0,0,0,0,0l.32-2.19s.02-.04.04-.04h.2s.02,0,.03.01c0,0,0,.02,0,.03l-.46,2.83s-.02.04-.04.04h-.18s-.03-.01-.04-.04l-.31-2.19s0,0,0,0,0,0,0,0l-.31,2.19s-.02.04-.04.04h-.18s-.04-.01-.04-.04"
      style="fill: #141819;" />
    <path
      d="M106.92,46.41l-.09-.51s0-.01,0-.01c0,0,0,0-.01,0h-.68s0,0-.01,0c0,0,0,0,0,.01l-.1.51s-.02.04-.04.04h-.19s-.02,0-.03-.01,0-.02,0-.03l.56-2.83s.02-.04.04-.04h.23s.04.01.04.04l.57,2.83h0s-.01.05-.03.05h-.19s-.04-.01-.04-.04M106.17,45.64h.59s.01,0,.01-.02l-.29-1.6s0-.01,0-.01c0,0,0,0,0,.01l-.3,1.6s0,.02.01.02"
      style="fill: #141819;" />
    <path
      d="M107.49,46.28c-.11-.13-.17-.31-.17-.53v-.1s.01-.04.04-.04h.19s.04.01.04.04v.09c0,.15.03.26.1.35.07.09.15.14.26.14s.19-.04.26-.13c.07-.09.1-.2.1-.34,0-.1-.02-.18-.05-.24-.03-.07-.08-.13-.13-.18-.05-.05-.14-.13-.27-.24-.12-.1-.22-.19-.3-.26-.07-.07-.13-.16-.18-.26-.05-.1-.07-.22-.07-.36,0-.22.06-.39.17-.51.11-.13.26-.19.44-.19.19,0,.34.07.45.21.11.14.17.32.17.55v.1s-.01.04-.04.04h-.19s-.04-.01-.04-.04v-.11c0-.15-.03-.26-.1-.35s-.15-.14-.26-.14c-.1,0-.18.04-.25.12-.07.08-.1.19-.1.33,0,.09.01.16.04.23.03.07.07.13.13.18.06.06.14.14.25.23.15.12.26.22.33.3.07.08.13.16.17.25.04.09.06.2.06.33,0,.23-.06.41-.17.55-.12.14-.27.21-.45.21s-.34-.07-.45-.2"
      style="fill: #141819;" />
    <path
      d="M110.02,43.58v.17s-.01.04-.04.04h-.49s-.01,0-.01.02v2.59s-.01.04-.04.04h-.19s-.04-.01-.04-.04v-2.59s0-.02-.02-.02h-.46s-.04-.01-.04-.04v-.17s.01-.04.04-.04h1.25s.04.01.04.04"
      style="fill: #141819;" />
    <path
      d="M111.45,43.8h-.87s-.02,0-.02.02v1.03s0,.02.02.02h.55s.04.01.04.04v.18s-.01.04-.04.04h-.55s-.02,0-.02.02v1.03s0,.02.02.02h.87s.04.01.04.04v.17s-.01.04-.04.04h-1.11s-.04-.01-.04-.04v-2.83s.01-.04.04-.04h1.11s.04.01.04.04v.17s-.01.04-.04.04"
      style="fill: #141819;" />
    <rect x="85.98" y="15.87" width="25.51" height="25.51" style="fill: #fff;" />
    <path
      d="M85.98,16.64h.77v-.77h-.77v.77ZM86.75,16.64h.77v-.77h-.77v.77ZM87.53,16.64h.77v-.77h-.77v.77ZM88.3,16.64h.77v-.77h-.77v.77ZM89.07,16.64h.77v-.77h-.77v.77ZM89.85,16.64h.77v-.77h-.77v.77ZM90.62,16.64h.77v-.77h-.77v.77Z" />
    <rect x="91.39" y="15.87" width=".77" height=".77" style="fill: #fff;" />
    <rect x="92.16" y="15.87" width=".77" height=".77" />
    <rect x="92.94" y="15.87" width=".77" height=".77" style="fill: #fff;" />
    <rect x="93.71" y="15.87" width=".77" height=".77" />
    <rect x="94.48" y="15.87" width=".77" height=".77" style="fill: #fff;" />
    <rect x="95.26" y="15.87" width=".77" height=".77" />
    <rect x="96.03" y="15.87" width=".77" height=".77" style="fill: #fff;" />
    <rect x="96.8" y="15.87" width=".77" height=".77" />
    <path d="M97.58,16.64h.77v-.77h-.77v.77ZM98.35,16.64h.77v-.77h-.77v.77Z" style="fill: #fff;" />
    <path d="M99.12,16.64h.77v-.77h-.77v.77ZM99.9,16.64h.77v-.77h-.77v.77ZM100.67,16.64h.77v-.77h-.77v.77Z" />
    <rect x="101.44" y="15.87" width=".77" height=".77" style="fill: #fff;" />
    <rect x="102.21" y="15.87" width=".77" height=".77" />
    <rect x="102.99" y="15.87" width=".77" height=".77" style="fill: #fff;" />
    <path d="M103.76,16.64h.77v-.77h-.77v.77ZM104.53,16.64h.77v-.77h-.77v.77Z" />
    <rect x="105.31" y="15.87" width=".77" height=".77" style="fill: #fff;" />
    <path
      d="M85.98,17.41h.77v-.77h-.77v.77ZM106.08,16.64h.77v-.77h-.77v.77ZM106.85,16.64h.77v-.77h-.77v.77ZM107.63,16.64h.77v-.77h-.77v.77ZM108.4,16.64h.77v-.77h-.77v.77ZM109.17,16.64h.77v-.77h-.77v.77ZM109.95,16.64h.77v-.77h-.77v.77ZM110.72,16.64h.77v-.77h-.77v.77Z" />
    <path
      d="M86.75,17.41h.77v-.77h-.77v.77ZM87.53,17.41h.77v-.77h-.77v.77ZM88.3,17.41h.77v-.77h-.77v.77ZM89.07,17.41h.77v-.77h-.77v.77ZM89.85,17.41h.77v-.77h-.77v.77Z"
      style="fill: #fff;" />
    <rect x="90.62" y="16.64" width=".77" height=".77" />
    <rect x="91.39" y="16.64" width=".77" height=".77" style="fill: #fff;" />
    <rect x="92.16" y="16.64" width=".77" height=".77" />
    <rect x="92.94" y="16.64" width=".77" height=".77" style="fill: #fff;" />
    <path d="M93.71,17.41h.77v-.77h-.77v.77ZM94.48,17.41h.77v-.77h-.77v.77Z" />
    <path d="M95.26,17.41h.77v-.77h-.77v.77ZM96.03,17.41h.77v-.77h-.77v.77ZM96.8,17.41h.77v-.77h-.77v.77Z"
      style="fill: #fff;" />
    <path d="M97.58,17.41h.77v-.77h-.77v.77ZM98.35,17.41h.77v-.77h-.77v.77ZM99.12,17.41h.77v-.77h-.77v.77Z" />
    <rect x="99.9" y="16.64" width=".77" height=".77" style="fill: #fff;" />
    <rect x="100.67" y="16.64" width=".77" height=".77" />
    <path
      d="M101.44,17.41h.77v-.77h-.77v.77ZM102.21,17.41h.77v-.77h-.77v.77ZM102.99,17.41h.77v-.77h-.77v.77ZM103.76,17.41h.77v-.77h-.77v.77Z"
      style="fill: #fff;" />
    <rect x="104.53" y="16.64" width=".77" height=".77" />
    <rect x="105.31" y="16.64" width=".77" height=".77" style="fill: #fff;" />
    <rect x="106.08" y="16.64" width=".77" height=".77" />
    <path
      d="M106.85,17.41h.77v-.77h-.77v.77ZM107.63,17.41h.77v-.77h-.77v.77ZM108.4,17.41h.77v-.77h-.77v.77ZM109.17,17.41h.77v-.77h-.77v.77ZM109.95,17.41h.77v-.77h-.77v.77Z"
      style="fill: #fff;" />
    <path d="M85.98,18.18h.77v-.77h-.77v.77ZM110.72,17.41h.77v-.77h-.77v.77Z" />
    <rect x="86.75" y="17.41" width=".77" height=".77" style="fill: #fff;" />
    <path d="M87.53,18.18h.77v-.77h-.77v.77ZM88.3,18.18h.77v-.77h-.77v.77ZM89.07,18.18h.77v-.77h-.77v.77Z" />
    <rect x="89.85" y="17.41" width=".77" height=".77" style="fill: #fff;" />
    <rect x="90.62" y="17.41" width=".77" height=".77" />
    <rect x="91.39" y="17.41" width=".77" height=".77" style="fill: #fff;" />
    <rect x="92.16" y="17.41" width=".77" height=".77" />
    <rect x="92.94" y="17.41" width=".77" height=".77" style="fill: #fff;" />
    <rect x="93.71" y="17.41" width=".77" height=".77" />
    <rect x="94.48" y="17.41" width=".77" height=".77" style="fill: #fff;" />
    <path d="M95.26,18.18h.77v-.77h-.77v.77ZM96.03,18.18h.77v-.77h-.77v.77ZM96.8,18.18h.77v-.77h-.77v.77Z" />
    <path d="M97.58,18.18h.77v-.77h-.77v.77ZM98.35,18.18h.77v-.77h-.77v.77Z" style="fill: #fff;" />
    <rect x="99.12" y="17.41" width=".77" height=".77" />
    <path d="M99.9,18.18h.77v-.77h-.77v.77ZM100.67,18.18h.77v-.77h-.77v.77Z" style="fill: #fff;" />
    <path
      d="M101.44,18.18h.77v-.77h-.77v.77ZM102.21,18.18h.77v-.77h-.77v.77ZM102.99,18.18h.77v-.77h-.77v.77ZM103.76,18.18h.77v-.77h-.77v.77ZM104.53,18.18h.77v-.77h-.77v.77Z" />
    <rect x="105.31" y="17.41" width=".77" height=".77" style="fill: #fff;" />
    <rect x="106.08" y="17.41" width=".77" height=".77" />
    <rect x="106.85" y="17.41" width=".77" height=".77" style="fill: #fff;" />
    <path d="M107.63,18.18h.77v-.77h-.77v.77ZM108.4,18.18h.77v-.77h-.77v.77ZM109.17,18.18h.77v-.77h-.77v.77Z" />
    <rect x="109.95" y="17.41" width=".77" height=".77" style="fill: #fff;" />
    <path d="M85.98,18.96h.77v-.77h-.77v.77ZM110.72,18.18h.77v-.77h-.77v.77Z" />
    <rect x="86.75" y="18.18" width=".77" height=".77" style="fill: #fff;" />
    <path d="M87.53,18.96h.77v-.77h-.77v.77ZM88.3,18.96h.77v-.77h-.77v.77ZM89.07,18.96h.77v-.77h-.77v.77Z" />
    <rect x="89.85" y="18.18" width=".77" height=".77" style="fill: #fff;" />
    <rect x="90.62" y="18.18" width=".77" height=".77" />
    <path d="M91.39,18.96h.77v-.77h-.77v.77ZM92.16,18.96h.77v-.77h-.77v.77Z" style="fill: #fff;" />
    <rect x="92.94" y="18.18" width=".77" height=".77" />
    <path d="M93.71,18.96h.77v-.77h-.77v.77ZM94.48,18.96h.77v-.77h-.77v.77Z" style="fill: #fff;" />
    <path d="M95.26,18.96h.77v-.77h-.77v.77ZM96.03,18.96h.77v-.77h-.77v.77ZM96.8,18.96h.77v-.77h-.77v.77Z" />
    <rect x="97.58" y="18.18" width=".77" height=".77" style="fill: #fff;" />
    <rect x="98.35" y="18.18" width=".77" height=".77" />
    <rect x="99.12" y="18.18" width=".77" height=".77" style="fill: #fff;" />
    <path d="M99.9,18.96h.77v-.77h-.77v.77ZM100.67,18.96h.77v-.77h-.77v.77Z" />
    <path d="M101.44,18.96h.77v-.77h-.77v.77ZM102.21,18.96h.77v-.77h-.77v.77Z" style="fill: #fff;" />
    <path d="M102.99,18.96h.77v-.77h-.77v.77ZM103.76,18.96h.77v-.77h-.77v.77ZM104.53,18.96h.77v-.77h-.77v.77Z" />
    <rect x="105.31" y="18.18" width=".77" height=".77" style="fill: #fff;" />
    <rect x="106.08" y="18.18" width=".77" height=".77" />
    <rect x="106.85" y="18.18" width=".77" height=".77" style="fill: #fff;" />
    <path d="M107.63,18.96h.77v-.77h-.77v.77ZM108.4,18.96h.77v-.77h-.77v.77ZM109.17,18.96h.77v-.77h-.77v.77Z" />
    <rect x="109.95" y="18.18" width=".77" height=".77" style="fill: #fff;" />
    <path d="M85.98,19.73h.77v-.77h-.77v.77ZM110.72,18.96h.77v-.77h-.77v.77Z" />
    <rect x="86.75" y="18.96" width=".77" height=".77" style="fill: #fff;" />
    <path d="M87.53,19.73h.77v-.77h-.77v.77ZM88.3,19.73h.77v-.77h-.77v.77ZM89.07,19.73h.77v-.77h-.77v.77Z" />
    <rect x="89.85" y="18.96" width=".77" height=".77" style="fill: #fff;" />
    <rect x="90.62" y="18.96" width=".77" height=".77" />
    <path d="M91.39,19.73h.77v-.77h-.77v.77ZM92.16,19.73h.77v-.77h-.77v.77Z" style="fill: #fff;" />
    <rect x="92.94" y="18.96" width=".77" height=".77" />
    <rect x="93.71" y="18.96" width=".77" height=".77" style="fill: #fff;" />
    <rect x="94.48" y="18.96" width=".77" height=".77" />
    <path d="M95.26,19.73h.77v-.77h-.77v.77ZM96.03,19.73h.77v-.77h-.77v.77Z" style="fill: #fff;" />
    <path
      d="M96.8,19.73h.77v-.77h-.77v.77ZM97.58,19.73h.77v-.77h-.77v.77ZM98.35,19.73h.77v-.77h-.77v.77ZM99.12,19.73h.77v-.77h-.77v.77Z" />
    <path d="M99.9,19.73h.77v-.77h-.77v.77ZM100.67,19.73h.77v-.77h-.77v.77Z" style="fill: #fff;" />
    <rect x="101.44" y="18.96" width=".77" height=".77" />
    <rect x="102.21" y="18.96" width=".77" height=".77" style="fill: #fff;" />
    <path d="M102.99,19.73h.77v-.77h-.77v.77ZM103.76,19.73h.77v-.77h-.77v.77Z" />
    <path d="M104.53,19.73h.77v-.77h-.77v.77ZM105.31,19.73h.77v-.77h-.77v.77Z" style="fill: #fff;" />
    <rect x="106.08" y="18.96" width=".77" height=".77" />
    <rect x="106.85" y="18.96" width=".77" height=".77" style="fill: #fff;" />
    <path d="M107.63,19.73h.77v-.77h-.77v.77ZM108.4,19.73h.77v-.77h-.77v.77ZM109.17,19.73h.77v-.77h-.77v.77Z" />
    <rect x="109.95" y="18.96" width=".77" height=".77" style="fill: #fff;" />
    <path d="M85.98,20.5h.77v-.77h-.77v.77ZM110.72,19.73h.77v-.77h-.77v.77Z" />
    <path
      d="M86.75,20.5h.77v-.77h-.77v.77ZM87.53,20.5h.77v-.77h-.77v.77ZM88.3,20.5h.77v-.77h-.77v.77ZM89.07,20.5h.77v-.77h-.77v.77ZM89.85,20.5h.77v-.77h-.77v.77Z"
      style="fill: #fff;" />
    <rect x="90.62" y="19.73" width=".77" height=".77" />
    <rect x="91.39" y="19.73" width=".77" height=".77" style="fill: #fff;" />
    <rect x="92.16" y="19.73" width=".77" height=".77" />
    <path
      d="M92.94,20.5h.77v-.77h-.77v.77ZM93.71,20.5h.77v-.77h-.77v.77ZM94.48,20.5h.77v-.77h-.77v.77ZM95.26,20.5h.77v-.77h-.77v.77Z"
      style="fill: #fff;" />
    <rect x="96.03" y="19.73" width=".77" height=".77" />
    <path
      d="M96.8,20.5h.77v-.77h-.77v.77ZM97.58,20.5h.77v-.77h-.77v.77ZM98.35,20.5h.77v-.77h-.77v.77ZM99.12,20.5h.77v-.77h-.77v.77Z"
      style="fill: #fff;" />
    <path d="M99.9,20.5h.77v-.77h-.77v.77ZM100.67,20.5h.77v-.77h-.77v.77ZM101.44,20.5h.77v-.77h-.77v.77Z" />
    <rect x="102.21" y="19.73" width=".77" height=".77" style="fill: #fff;" />
    <rect x="102.99" y="19.73" width=".77" height=".77" />
    <rect x="103.76" y="19.73" width=".77" height=".77" style="fill: #fff;" />
    <rect x="104.53" y="19.73" width=".77" height=".77" />
    <rect x="105.31" y="19.73" width=".77" height=".77" style="fill: #fff;" />
    <rect x="106.08" y="19.73" width=".77" height=".77" />
    <path
      d="M106.85,20.5h.77v-.77h-.77v.77ZM107.63,20.5h.77v-.77h-.77v.77ZM108.4,20.5h.77v-.77h-.77v.77ZM109.17,20.5h.77v-.77h-.77v.77ZM109.95,20.5h.77v-.77h-.77v.77Z"
      style="fill: #fff;" />
    <path
      d="M85.98,21.28h.77v-.77h-.77v.77ZM86.75,21.28h.77v-.77h-.77v.77ZM87.53,21.28h.77v-.77h-.77v.77ZM88.3,21.28h.77v-.77h-.77v.77ZM89.07,21.28h.77v-.77h-.77v.77ZM89.85,21.28h.77v-.77h-.77v.77ZM90.62,21.28h.77v-.77h-.77v.77ZM110.72,20.5h.77v-.77h-.77v.77Z" />
    <rect x="91.39" y="20.5" width=".77" height=".77" style="fill: #fff;" />
    <rect x="92.16" y="20.5" width=".77" height=".77" />
    <rect x="92.94" y="20.5" width=".77" height=".77" style="fill: #fff;" />
    <rect x="93.71" y="20.5" width=".77" height=".77" />
    <rect x="94.48" y="20.5" width=".77" height=".77" style="fill: #fff;" />
    <rect x="95.26" y="20.5" width=".77" height=".77" />
    <rect x="96.03" y="20.5" width=".77" height=".77" style="fill: #fff;" />
    <rect x="96.8" y="20.5" width=".77" height=".77" />
    <rect x="97.58" y="20.5" width=".77" height=".77" style="fill: #fff;" />
    <rect x="98.35" y="20.5" width=".77" height=".77" />
    <rect x="99.12" y="20.5" width=".77" height=".77" style="fill: #fff;" />
    <rect x="99.9" y="20.5" width=".77" height=".77" />
    <rect x="100.67" y="20.5" width=".77" height=".77" style="fill: #fff;" />
    <rect x="101.44" y="20.5" width=".77" height=".77" />
    <rect x="102.21" y="20.5" width=".77" height=".77" style="fill: #fff;" />
    <rect x="102.99" y="20.5" width=".77" height=".77" />
    <rect x="103.76" y="20.5" width=".77" height=".77" style="fill: #fff;" />
    <rect x="104.53" y="20.5" width=".77" height=".77" />
    <rect x="105.31" y="20.5" width=".77" height=".77" style="fill: #fff;" />
    <path
      d="M106.08,21.28h.77v-.77h-.77v.77ZM106.85,21.28h.77v-.77h-.77v.77ZM107.63,21.28h.77v-.77h-.77v.77ZM108.4,21.28h.77v-.77h-.77v.77ZM109.17,21.28h.77v-.77h-.77v.77ZM109.95,21.28h.77v-.77h-.77v.77ZM110.72,21.28h.77v-.77h-.77v.77Z" />
    <path
      d="M85.98,22.05h.77v-.77h-.77v.77ZM86.75,22.05h.77v-.77h-.77v.77ZM87.53,22.05h.77v-.77h-.77v.77ZM88.3,22.05h.77v-.77h-.77v.77ZM89.07,22.05h.77v-.77h-.77v.77ZM89.85,22.05h.77v-.77h-.77v.77ZM90.62,22.05h.77v-.77h-.77v.77ZM91.39,22.05h.77v-.77h-.77v.77Z"
      style="fill: #fff;" />
    <rect x="92.16" y="21.28" width=".77" height=".77" />
    <rect x="92.94" y="21.28" width=".77" height=".77" style="fill: #fff;" />
    <path d="M93.71,22.05h.77v-.77h-.77v.77ZM94.48,22.05h.77v-.77h-.77v.77Z" />
    <rect x="95.26" y="21.28" width=".77" height=".77" style="fill: #fff;" />
    <path d="M96.03,22.05h.77v-.77h-.77v.77ZM96.8,22.05h.77v-.77h-.77v.77ZM97.58,22.05h.77v-.77h-.77v.77Z" />
    <path
      d="M98.35,22.05h.77v-.77h-.77v.77ZM99.12,22.05h.77v-.77h-.77v.77ZM99.9,22.05h.77v-.77h-.77v.77ZM100.67,22.05h.77v-.77h-.77v.77Z"
      style="fill: #fff;" />
    <path
      d="M101.44,22.05h.77v-.77h-.77v.77ZM102.21,22.05h.77v-.77h-.77v.77ZM102.99,22.05h.77v-.77h-.77v.77ZM103.76,22.05h.77v-.77h-.77v.77Z" />
    <path
      d="M85.98,22.82h.77v-.77h-.77v.77ZM86.75,22.82h.77v-.77h-.77v.77ZM104.53,22.05h.77v-.77h-.77v.77ZM105.31,22.05h.77v-.77h-.77v.77ZM106.08,22.05h.77v-.77h-.77v.77ZM106.85,22.05h.77v-.77h-.77v.77ZM107.63,22.05h.77v-.77h-.77v.77ZM108.4,22.05h.77v-.77h-.77v.77ZM109.17,22.05h.77v-.77h-.77v.77ZM109.95,22.05h.77v-.77h-.77v.77ZM110.72,22.05h.77v-.77h-.77v.77Z"
      style="fill: #fff;" />
    <path d="M87.53,22.82h.77v-.77h-.77v.77ZM88.3,22.82h.77v-.77h-.77v.77ZM89.07,22.82h.77v-.77h-.77v.77Z" />
    <rect x="89.85" y="22.05" width=".77" height=".77" style="fill: #fff;" />
    <rect x="90.62" y="22.05" width=".77" height=".77" />
    <rect x="91.39" y="22.05" width=".77" height=".77" style="fill: #fff;" />
    <path d="M92.16,22.82h.77v-.77h-.77v.77ZM92.94,22.82h.77v-.77h-.77v.77Z" />
    <rect x="93.71" y="22.05" width=".77" height=".77" style="fill: #fff;" />
    <rect x="94.48" y="22.05" width=".77" height=".77" />
    <path d="M95.26,22.82h.77v-.77h-.77v.77ZM96.03,22.82h.77v-.77h-.77v.77Z" style="fill: #fff;" />
    <path
      d="M96.8,22.82h.77v-.77h-.77v.77ZM97.58,22.82h.77v-.77h-.77v.77ZM98.35,22.82h.77v-.77h-.77v.77ZM99.12,22.82h.77v-.77h-.77v.77Z" />
    <path d="M99.9,22.82h.77v-.77h-.77v.77ZM100.67,22.82h.77v-.77h-.77v.77Z" style="fill: #fff;" />
    <rect x="101.44" y="22.05" width=".77" height=".77" />
    <rect x="102.21" y="22.05" width=".77" height=".77" style="fill: #fff;" />
    <path
      d="M102.99,22.82h.77v-.77h-.77v.77ZM103.76,22.82h.77v-.77h-.77v.77ZM104.53,22.82h.77v-.77h-.77v.77ZM105.31,22.82h.77v-.77h-.77v.77ZM106.08,22.82h.77v-.77h-.77v.77ZM106.85,22.82h.77v-.77h-.77v.77Z" />
    <path d="M107.63,22.82h.77v-.77h-.77v.77ZM108.4,22.82h.77v-.77h-.77v.77Z" style="fill: #fff;" />
    <path
      d="M85.98,23.6h.77v-.77h-.77v.77ZM86.75,23.6h.77v-.77h-.77v.77ZM109.17,22.82h.77v-.77h-.77v.77ZM109.95,22.82h.77v-.77h-.77v.77ZM110.72,22.82h.77v-.77h-.77v.77Z" />
    <rect x="87.53" y="22.82" width=".77" height=".77" style="fill: #fff;" />
    <path d="M88.3,23.6h.77v-.77h-.77v.77ZM89.07,23.6h.77v-.77h-.77v.77Z" />
    <path d="M89.85,23.6h.77v-.77h-.77v.77ZM90.62,23.6h.77v-.77h-.77v.77Z" style="fill: #fff;" />
    <path d="M91.39,23.6h.77v-.77h-.77v.77ZM92.16,23.6h.77v-.77h-.77v.77ZM92.94,23.6h.77v-.77h-.77v.77Z" />
    <rect x="93.71" y="22.82" width=".77" height=".77" style="fill: #fff;" />
    <rect x="94.48" y="22.82" width=".77" height=".77" />
    <path d="M95.26,23.6h.77v-.77h-.77v.77ZM96.03,23.6h.77v-.77h-.77v.77Z" style="fill: #fff;" />
    <rect x="96.8" y="22.82" width=".77" height=".77" />
    <path d="M97.58,23.6h.77v-.77h-.77v.77ZM98.35,23.6h.77v-.77h-.77v.77ZM99.12,23.6h.77v-.77h-.77v.77Z"
      style="fill: #fff;" />
    <rect x="99.9" y="22.82" width=".77" height=".77" />
    <path d="M100.67,23.6h.77v-.77h-.77v.77ZM101.44,23.6h.77v-.77h-.77v.77Z" style="fill: #fff;" />
    <path
      d="M102.21,23.6h.77v-.77h-.77v.77ZM102.99,23.6h.77v-.77h-.77v.77ZM103.76,23.6h.77v-.77h-.77v.77ZM104.53,23.6h.77v-.77h-.77v.77ZM105.31,23.6h.77v-.77h-.77v.77ZM106.08,23.6h.77v-.77h-.77v.77Z" />
    <path d="M106.85,23.6h.77v-.77h-.77v.77ZM107.63,23.6h.77v-.77h-.77v.77Z" style="fill: #fff;" />
    <rect x="108.4" y="22.82" width=".77" height=".77" />
    <path d="M109.17,23.6h.77v-.77h-.77v.77ZM109.95,23.6h.77v-.77h-.77v.77Z" style="fill: #fff;" />
    <path
      d="M85.98,24.37h.77v-.77h-.77v.77ZM86.75,24.37h.77v-.77h-.77v.77ZM87.53,24.37h.77v-.77h-.77v.77ZM88.3,24.37h.77v-.77h-.77v.77ZM89.07,24.37h.77v-.77h-.77v.77ZM89.85,24.37h.77v-.77h-.77v.77ZM90.62,24.37h.77v-.77h-.77v.77ZM110.72,23.6h.77v-.77h-.77v.77Z" />
    <path
      d="M91.39,24.37h.77v-.77h-.77v.77ZM92.16,24.37h.77v-.77h-.77v.77ZM92.94,24.37h.77v-.77h-.77v.77ZM93.71,24.37h.77v-.77h-.77v.77ZM94.48,24.37h.77v-.77h-.77v.77Z"
      style="fill: #fff;" />
    <path d="M95.26,24.37h.77v-.77h-.77v.77ZM96.03,24.37h.77v-.77h-.77v.77Z" />
    <path d="M96.8,24.37h.77v-.77h-.77v.77ZM97.58,24.37h.77v-.77h-.77v.77Z" style="fill: #fff;" />
    <path
      d="M98.35,24.37h.77v-.77h-.77v.77ZM99.12,24.37h.77v-.77h-.77v.77ZM99.9,24.37h.77v-.77h-.77v.77ZM100.67,24.37h.77v-.77h-.77v.77Z" />
    <path d="M101.44,24.37h.77v-.77h-.77v.77ZM102.21,24.37h.77v-.77h-.77v.77Z" style="fill: #fff;" />
    <rect x="102.99" y="23.6" width=".77" height=".77" />
    <rect x="103.76" y="23.6" width=".77" height=".77" style="fill: #fff;" />
    <rect x="104.53" y="23.6" width=".77" height=".77" />
    <rect x="105.31" y="23.6" width=".77" height=".77" style="fill: #fff;" />
    <path d="M106.08,24.37h.77v-.77h-.77v.77ZM106.85,24.37h.77v-.77h-.77v.77Z" />
    <rect x="107.63" y="23.6" width=".77" height=".77" style="fill: #fff;" />
    <rect x="108.4" y="23.6" width=".77" height=".77" />
    <rect x="109.17" y="23.6" width=".77" height=".77" style="fill: #fff;" />
    <rect x="109.95" y="23.6" width=".77" height=".77" />
    <path d="M85.98,25.14h.77v-.77h-.77v.77ZM110.72,24.37h.77v-.77h-.77v.77Z" style="fill: #fff;" />
    <rect x="86.75" y="24.37" width=".77" height=".77" />
    <path d="M87.53,25.14h.77v-.77h-.77v.77ZM88.3,25.14h.77v-.77h-.77v.77Z" style="fill: #fff;" />
    <rect x="89.07" y="24.37" width=".77" height=".77" />
    <path d="M89.85,25.14h.77v-.77h-.77v.77ZM90.62,25.14h.77v-.77h-.77v.77Z" style="fill: #fff;" />
    <rect x="91.39" y="24.37" width=".77" height=".77" />
    <rect x="92.16" y="24.37" width=".77" height=".77" style="fill: #fff;" />
    <rect x="92.94" y="24.37" width=".77" height=".77" />
    <path d="M93.71,25.14h.77v-.77h-.77v.77ZM94.48,25.14h.77v-.77h-.77v.77Z" style="fill: #fff;" />
    <rect x="95.26" y="24.37" width=".77" height=".77" />
    <path d="M96.03,25.14h.77v-.77h-.77v.77ZM96.8,25.14h.77v-.77h-.77v.77ZM97.58,25.14h.77v-.77h-.77v.77Z"
      style="fill: #fff;" />
    <path d="M98.35,25.14h.77v-.77h-.77v.77ZM99.12,25.14h.77v-.77h-.77v.77Z" />
    <rect x="99.9" y="24.37" width=".77" height=".77" style="fill: #fff;" />
    <rect x="100.67" y="24.37" width=".77" height=".77" />
    <rect x="101.44" y="24.37" width=".77" height=".77" style="fill: #fff;" />
    <path d="M102.21,25.14h.77v-.77h-.77v.77ZM102.99,25.14h.77v-.77h-.77v.77Z" />
    <path d="M103.76,25.14h.77v-.77h-.77v.77ZM104.53,25.14h.77v-.77h-.77v.77Z" style="fill: #fff;" />
    <rect x="105.31" y="24.37" width=".77" height=".77" />
    <path d="M106.08,25.14h.77v-.77h-.77v.77ZM106.85,25.14h.77v-.77h-.77v.77ZM107.63,25.14h.77v-.77h-.77v.77Z"
      style="fill: #fff;" />
    <path d="M108.4,25.14h.77v-.77h-.77v.77ZM109.17,25.14h.77v-.77h-.77v.77Z" />
    <rect x="109.95" y="24.37" width=".77" height=".77" style="fill: #fff;" />
    <rect x="110.72" y="24.37" width=".77" height=".77" />
    <rect x="85.98" y="25.14" width=".77" height=".77" style="fill: #fff;" />
    <path d="M86.75,25.92h.77v-.77h-.77v.77ZM87.53,25.92h.77v-.77h-.77v.77ZM88.3,25.92h.77v-.77h-.77v.77Z" />
    <path d="M89.07,25.92h.77v-.77h-.77v.77ZM89.85,25.92h.77v-.77h-.77v.77Z" style="fill: #fff;" />
    <rect x="90.62" y="25.14" width=".77" height=".77" />
    <path d="M91.39,25.92h.77v-.77h-.77v.77ZM92.16,25.92h.77v-.77h-.77v.77Z" style="fill: #fff;" />
    <rect x="92.94" y="25.14" width=".77" height=".77" />
    <path d="M93.71,25.92h.77v-.77h-.77v.77ZM94.48,25.92h.77v-.77h-.77v.77ZM95.26,25.92h.77v-.77h-.77v.77Z"
      style="fill: #fff;" />
    <rect x="96.03" y="25.14" width=".77" height=".77" />
    <path d="M96.8,25.92h.77v-.77h-.77v.77ZM97.58,25.92h.77v-.77h-.77v.77Z" style="fill: #fff;" />
    <path d="M98.35,25.92h.77v-.77h-.77v.77ZM99.12,25.92h.77v-.77h-.77v.77ZM99.9,25.92h.77v-.77h-.77v.77Z" />
    <rect x="100.67" y="25.14" width=".77" height=".77" style="fill: #fff;" />
    <path d="M101.44,25.92h.77v-.77h-.77v.77ZM102.21,25.92h.77v-.77h-.77v.77Z" />
    <path d="M102.99,25.92h.77v-.77h-.77v.77ZM103.76,25.92h.77v-.77h-.77v.77Z" style="fill: #fff;" />
    <path d="M104.53,25.92h.77v-.77h-.77v.77ZM105.31,25.92h.77v-.77h-.77v.77Z" />
    <rect x="106.08" y="25.14" width=".77" height=".77" style="fill: #fff;" />
    <path d="M106.85,25.92h.77v-.77h-.77v.77ZM107.63,25.92h.77v-.77h-.77v.77ZM108.4,25.92h.77v-.77h-.77v.77Z" />
    <path d="M109.17,25.92h.77v-.77h-.77v.77ZM109.95,25.92h.77v-.77h-.77v.77ZM110.72,25.92h.77v-.77h-.77v.77Z"
      style="fill: #fff;" />
    <rect x="85.98" y="25.92" width=".77" height=".77" />
    <rect x="86.75" y="25.92" width=".77" height=".77" style="fill: #fff;" />
    <rect x="87.53" y="25.92" width=".77" height=".77" />
    <path d="M88.3,26.69h.77v-.77h-.77v.77ZM89.07,26.69h.77v-.77h-.77v.77Z" style="fill: #fff;" />
    <rect x="89.85" y="25.92" width=".77" height=".77" />
    <path d="M90.62,26.69h.77v-.77h-.77v.77ZM91.39,26.69h.77v-.77h-.77v.77Z" style="fill: #fff;" />
    <path
      d="M92.16,26.69h.77v-.77h-.77v.77ZM92.94,26.69h.77v-.77h-.77v.77ZM93.71,26.69h.77v-.77h-.77v.77ZM94.48,26.69h.77v-.77h-.77v.77Z" />
    <path d="M95.26,26.69h.77v-.77h-.77v.77ZM96.03,26.69h.77v-.77h-.77v.77Z" style="fill: #fff;" />
    <rect x="96.8" y="25.92" width=".77" height=".77" />
    <path
      d="M97.58,26.69h.77v-.77h-.77v.77ZM98.35,26.69h.77v-.77h-.77v.77ZM99.12,26.69h.77v-.77h-.77v.77ZM99.9,26.69h.77v-.77h-.77v.77ZM100.67,26.69h.77v-.77h-.77v.77Z"
      style="fill: #fff;" />
    <rect x="101.44" y="25.92" width=".77" height=".77" />
    <path d="M102.21,26.69h.77v-.77h-.77v.77ZM102.99,26.69h.77v-.77h-.77v.77Z" style="fill: #fff;" />
    <rect x="103.76" y="25.92" width=".77" height=".77" />
    <rect x="104.53" y="25.92" width=".77" height=".77" style="fill: #fff;" />
    <path d="M105.31,26.69h.77v-.77h-.77v.77ZM106.08,26.69h.77v-.77h-.77v.77Z" />
    <path d="M106.85,26.69h.77v-.77h-.77v.77ZM107.63,26.69h.77v-.77h-.77v.77ZM108.4,26.69h.77v-.77h-.77v.77Z"
      style="fill: #fff;" />
    <rect x="109.17" y="25.92" width=".77" height=".77" />
    <rect x="109.95" y="25.92" width=".77" height=".77" style="fill: #fff;" />
    <path d="M85.98,27.46h.77v-.77h-.77v.77ZM86.75,27.46h.77v-.77h-.77v.77ZM110.72,26.69h.77v-.77h-.77v.77Z" />
    <rect x="87.53" y="26.69" width=".77" height=".77" style="fill: #fff;" />
    <rect x="88.3" y="26.69" width=".77" height=".77" />
    <path d="M89.07,27.46h.77v-.77h-.77v.77ZM89.85,27.46h.77v-.77h-.77v.77Z" style="fill: #fff;" />
    <rect x="90.62" y="26.69" width=".77" height=".77" />
    <path d="M91.39,27.46h.77v-.77h-.77v.77ZM92.16,27.46h.77v-.77h-.77v.77Z" style="fill: #fff;" />
    <rect x="92.94" y="26.69" width=".77" height=".77" />
    <rect x="93.71" y="26.69" width=".77" height=".77" style="fill: #fff;" />
    <path
      d="M94.48,27.46h.77v-.77h-.77v.77ZM95.26,27.46h.77v-.77h-.77v.77ZM96.03,27.46h.77v-.77h-.77v.77ZM96.8,27.46h.77v-.77h-.77v.77Z" />
    <path d="M97.58,27.46h.77v-.77h-.77v.77ZM98.35,27.46h.77v-.77h-.77v.77ZM99.12,27.46h.77v-.77h-.77v.77Z"
      style="fill: #fff;" />
    <path d="M99.9,27.46h.77v-.77h-.77v.77ZM100.67,27.46h.77v-.77h-.77v.77Z" />
    <path d="M101.44,27.46h.77v-.77h-.77v.77ZM102.21,27.46h.77v-.77h-.77v.77Z" style="fill: #fff;" />
    <rect x="102.99" y="26.69" width=".77" height=".77" />
    <path d="M103.76,27.46h.77v-.77h-.77v.77ZM104.53,27.46h.77v-.77h-.77v.77Z" style="fill: #fff;" />
    <path d="M105.31,27.46h.77v-.77h-.77v.77ZM106.08,27.46h.77v-.77h-.77v.77Z" />
    <path d="M106.85,27.46h.77v-.77h-.77v.77ZM107.63,27.46h.77v-.77h-.77v.77Z" style="fill: #fff;" />
    <rect x="108.4" y="26.69" width=".77" height=".77" />
    <rect x="109.17" y="26.69" width=".77" height=".77" style="fill: #fff;" />
    <rect x="109.95" y="26.69" width=".77" height=".77" />
    <rect x="110.72" y="26.69" width=".77" height=".77" style="fill: #fff;" />
    <rect x="85.98" y="27.46" width=".77" height=".77" />
    <rect x="86.75" y="27.46" width=".77" height=".77" style="fill: #fff;" />
    <rect x="87.53" y="27.46" width=".77" height=".77" />
    <path d="M88.3,28.23h.77v-.77h-.77v.77ZM89.07,28.23h.77v-.77h-.77v.77Z" style="fill: #fff;" />
    <rect x="89.85" y="27.46" width=".77" height=".77" />
    <path d="M90.62,28.23h.77v-.77h-.77v.77ZM91.39,28.23h.77v-.77h-.77v.77ZM92.16,28.23h.77v-.77h-.77v.77Z"
      style="fill: #fff;" />
    <path
      d="M92.94,28.23h.77v-.77h-.77v.77ZM93.71,28.23h.77v-.77h-.77v.77ZM94.48,28.23h.77v-.77h-.77v.77ZM95.26,28.23h.77v-.77h-.77v.77Z" />
    <rect x="96.03" y="27.46" width=".77" height=".77" style="fill: #fff;" />
    <path d="M96.8,28.23h.77v-.77h-.77v.77ZM97.58,28.23h.77v-.77h-.77v.77Z" />
    <rect x="98.35" y="27.46" width=".77" height=".77" style="fill: #fff;" />
    <path d="M99.12,28.23h.77v-.77h-.77v.77ZM99.9,28.23h.77v-.77h-.77v.77ZM100.67,28.23h.77v-.77h-.77v.77Z" />
    <rect x="101.44" y="27.46" width=".77" height=".77" style="fill: #fff;" />
    <path d="M102.21,28.23h.77v-.77h-.77v.77ZM102.99,28.23h.77v-.77h-.77v.77Z" />
    <path d="M103.76,28.23h.77v-.77h-.77v.77ZM104.53,28.23h.77v-.77h-.77v.77ZM105.31,28.23h.77v-.77h-.77v.77Z"
      style="fill: #fff;" />
    <path d="M106.08,28.23h.77v-.77h-.77v.77ZM106.85,28.23h.77v-.77h-.77v.77Z" />
    <rect x="107.63" y="27.46" width=".77" height=".77" style="fill: #fff;" />
    <path d="M108.4,28.23h.77v-.77h-.77v.77ZM109.17,28.23h.77v-.77h-.77v.77ZM109.95,28.23h.77v-.77h-.77v.77Z" />
    <path
      d="M85.98,29.01h.77v-.77h-.77v.77ZM86.75,29.01h.77v-.77h-.77v.77ZM87.53,29.01h.77v-.77h-.77v.77ZM110.72,28.23h.77v-.77h-.77v.77Z"
      style="fill: #fff;" />
    <path d="M88.3,29.01h.77v-.77h-.77v.77ZM89.07,29.01h.77v-.77h-.77v.77Z" />
    <rect x="89.85" y="28.24" width=".77" height=".77" style="fill: #fff;" />
    <path d="M90.62,29.01h.77v-.77h-.77v.77ZM91.39,29.01h.77v-.77h-.77v.77ZM92.16,29.01h.77v-.77h-.77v.77Z" />
    <rect x="92.94" y="28.24" width=".77" height=".77" style="fill: #fff;" />
    <rect x="93.71" y="28.24" width=".77" height=".77" />
    <path d="M94.48,29.01h.77v-.77h-.77v.77ZM95.26,29.01h.77v-.77h-.77v.77Z" style="fill: #fff;" />
    <path d="M96.03,29.01h.77v-.77h-.77v.77ZM96.8,29.01h.77v-.77h-.77v.77Z" />
    <rect x="97.58" y="28.24" width=".77" height=".77" style="fill: #fff;" />
    <rect x="98.35" y="28.24" width=".77" height=".77" />
    <rect x="99.12" y="28.24" width=".77" height=".77" style="fill: #fff;" />
    <rect x="99.9" y="28.24" width=".77" height=".77" />
    <path
      d="M100.67,29.01h.77v-.77h-.77v.77ZM101.44,29.01h.77v-.77h-.77v.77ZM102.21,29.01h.77v-.77h-.77v.77ZM102.99,29.01h.77v-.77h-.77v.77ZM103.76,29.01h.77v-.77h-.77v.77ZM104.53,29.01h.77v-.77h-.77v.77Z"
      style="fill: #fff;" />
    <rect x="105.31" y="28.24" width=".77" height=".77" />
    <rect x="106.08" y="28.24" width=".77" height=".77" style="fill: #fff;" />
    <path d="M106.85,29.01h.77v-.77h-.77v.77ZM107.63,29.01h.77v-.77h-.77v.77Z" />
    <path
      d="M108.4,29.01h.77v-.77h-.77v.77ZM109.17,29.01h.77v-.77h-.77v.77ZM109.95,29.01h.77v-.77h-.77v.77ZM110.72,29.01h.77v-.77h-.77v.77Z"
      style="fill: #fff;" />
    <rect x="85.98" y="29.01" width=".77" height=".77" />
    <rect x="86.75" y="29.01" width=".77" height=".77" style="fill: #fff;" />
    <path d="M87.53,29.78h.77v-.77h-.77v.77ZM88.3,29.78h.77v-.77h-.77v.77Z" />
    <path
      d="M89.07,29.78h.77v-.77h-.77v.77ZM89.85,29.78h.77v-.77h-.77v.77ZM90.62,29.78h.77v-.77h-.77v.77ZM91.39,29.78h.77v-.77h-.77v.77Z"
      style="fill: #fff;" />
    <path d="M92.16,29.78h.77v-.77h-.77v.77ZM92.94,29.78h.77v-.77h-.77v.77Z" />
    <path
      d="M93.71,29.78h.77v-.77h-.77v.77ZM94.48,29.78h.77v-.77h-.77v.77ZM95.26,29.78h.77v-.77h-.77v.77ZM96.03,29.78h.77v-.77h-.77v.77Z"
      style="fill: #fff;" />
    <rect x="96.8" y="29.01" width=".77" height=".77" />
    <rect x="97.58" y="29.01" width=".77" height=".77" style="fill: #fff;" />
    <path
      d="M98.35,29.78h.77v-.77h-.77v.77ZM99.12,29.78h.77v-.77h-.77v.77ZM99.9,29.78h.77v-.77h-.77v.77ZM100.67,29.78h.77v-.77h-.77v.77Z" />
    <rect x="101.44" y="29.01" width=".77" height=".77" style="fill: #fff;" />
    <rect x="102.21" y="29.01" width=".77" height=".77" />
    <rect x="102.99" y="29.01" width=".77" height=".77" style="fill: #fff;" />
    <path d="M103.76,29.78h.77v-.77h-.77v.77ZM104.53,29.78h.77v-.77h-.77v.77Z" />
    <rect x="105.31" y="29.01" width=".77" height=".77" style="fill: #fff;" />
    <path d="M106.08,29.78h.77v-.77h-.77v.77ZM106.85,29.78h.77v-.77h-.77v.77Z" />
    <path
      d="M107.63,29.78h.77v-.77h-.77v.77ZM108.4,29.78h.77v-.77h-.77v.77ZM109.17,29.78h.77v-.77h-.77v.77ZM109.95,29.78h.77v-.77h-.77v.77Z"
      style="fill: #fff;" />
    <rect x="110.72" y="29.01" width=".77" height=".77" />
    <rect x="85.98" y="29.78" width=".77" height=".77" style="fill: #fff;" />
    <path
      d="M86.75,30.55h.77v-.77h-.77v.77ZM87.53,30.55h.77v-.77h-.77v.77ZM88.3,30.55h.77v-.77h-.77v.77ZM89.07,30.55h.77v-.77h-.77v.77Z" />
    <rect x="89.85" y="29.78" width=".77" height=".77" style="fill: #fff;" />
    <path d="M90.62,30.55h.77v-.77h-.77v.77ZM91.39,30.55h.77v-.77h-.77v.77ZM92.16,30.55h.77v-.77h-.77v.77Z" />
    <rect x="92.94" y="29.78" width=".77" height=".77" style="fill: #fff;" />
    <rect x="93.71" y="29.78" width=".77" height=".77" />
    <rect x="94.48" y="29.78" width=".77" height=".77" style="fill: #fff;" />
    <path d="M95.26,30.55h.77v-.77h-.77v.77ZM96.03,30.55h.77v-.77h-.77v.77Z" />
    <rect x="96.8" y="29.78" width=".77" height=".77" style="fill: #fff;" />
    <rect x="97.58" y="29.78" width=".77" height=".77" />
    <path d="M98.35,30.55h.77v-.77h-.77v.77ZM99.12,30.55h.77v-.77h-.77v.77Z" style="fill: #fff;" />
    <rect x="99.9" y="29.78" width=".77" height=".77" />
    <rect x="100.67" y="29.78" width=".77" height=".77" style="fill: #fff;" />
    <path d="M101.44,30.55h.77v-.77h-.77v.77ZM102.21,30.55h.77v-.77h-.77v.77ZM102.99,30.55h.77v-.77h-.77v.77Z" />
    <path d="M103.76,30.55h.77v-.77h-.77v.77ZM104.53,30.55h.77v-.77h-.77v.77Z" style="fill: #fff;" />
    <rect x="105.31" y="29.78" width=".77" height=".77" />
    <path d="M106.08,30.55h.77v-.77h-.77v.77ZM106.85,30.55h.77v-.77h-.77v.77Z" style="fill: #fff;" />
    <rect x="107.63" y="29.78" width=".77" height=".77" />
    <rect x="108.4" y="29.78" width=".77" height=".77" style="fill: #fff;" />
    <path d="M109.17,30.55h.77v-.77h-.77v.77ZM109.95,30.55h.77v-.77h-.77v.77Z" />
    <path d="M85.98,31.33h.77v-.77h-.77v.77ZM86.75,31.33h.77v-.77h-.77v.77ZM110.72,30.55h.77v-.77h-.77v.77Z"
      style="fill: #fff;" />
    <rect x="87.53" y="30.55" width=".77" height=".77" />
    <rect x="88.3" y="30.55" width=".77" height=".77" style="fill: #fff;" />
    <rect x="89.07" y="30.55" width=".77" height=".77" />
    <path
      d="M89.85,31.33h.77v-.77h-.77v.77ZM90.62,31.33h.77v-.77h-.77v.77ZM91.39,31.33h.77v-.77h-.77v.77ZM92.16,31.33h.77v-.77h-.77v.77ZM92.94,31.33h.77v-.77h-.77v.77Z"
      style="fill: #fff;" />
    <rect x="93.71" y="30.55" width=".77" height=".77" />
    <rect x="94.48" y="30.55" width=".77" height=".77" style="fill: #fff;" />
    <path d="M95.26,31.33h.77v-.77h-.77v.77ZM96.03,31.33h.77v-.77h-.77v.77Z" />
    <path d="M96.8,31.33h.77v-.77h-.77v.77ZM97.58,31.33h.77v-.77h-.77v.77ZM98.35,31.33h.77v-.77h-.77v.77Z"
      style="fill: #fff;" />
    <path
      d="M99.12,31.33h.77v-.77h-.77v.77ZM99.9,31.33h.77v-.77h-.77v.77ZM100.67,31.33h.77v-.77h-.77v.77ZM101.44,31.33h.77v-.77h-.77v.77ZM102.21,31.33h.77v-.77h-.77v.77Z" />
    <rect x="102.99" y="30.55" width=".77" height=".77" style="fill: #fff;" />
    <path
      d="M103.76,31.33h.77v-.77h-.77v.77ZM104.53,31.33h.77v-.77h-.77v.77ZM105.31,31.33h.77v-.77h-.77v.77ZM106.08,31.33h.77v-.77h-.77v.77ZM106.85,31.33h.77v-.77h-.77v.77Z" />
    <rect x="107.63" y="30.55" width=".77" height=".77" style="fill: #fff;" />
    <path d="M108.4,31.33h.77v-.77h-.77v.77ZM109.17,31.33h.77v-.77h-.77v.77ZM109.95,31.33h.77v-.77h-.77v.77Z" />
    <rect x="110.72" y="30.55" width=".77" height=".77" style="fill: #fff;" />
    <rect x="85.98" y="31.33" width=".77" height=".77" />
    <path d="M86.75,32.1h.77v-.77h-.77v.77ZM87.53,32.1h.77v-.77h-.77v.77ZM88.3,32.1h.77v-.77h-.77v.77Z"
      style="fill: #fff;" />
    <path d="M89.07,32.1h.77v-.77h-.77v.77ZM89.85,32.1h.77v-.77h-.77v.77ZM90.62,32.1h.77v-.77h-.77v.77Z" />
    <rect x="91.39" y="31.33" width=".77" height=".77" style="fill: #fff;" />
    <path
      d="M92.16,32.1h.77v-.77h-.77v.77ZM92.94,32.1h.77v-.77h-.77v.77ZM93.71,32.1h.77v-.77h-.77v.77ZM94.48,32.1h.77v-.77h-.77v.77Z" />
    <path d="M95.26,32.1h.77v-.77h-.77v.77ZM96.03,32.1h.77v-.77h-.77v.77Z" style="fill: #fff;" />
    <path d="M96.8,32.1h.77v-.77h-.77v.77ZM97.58,32.1h.77v-.77h-.77v.77ZM98.35,32.1h.77v-.77h-.77v.77Z" />
    <path d="M99.12,32.1h.77v-.77h-.77v.77ZM99.9,32.1h.77v-.77h-.77v.77Z" style="fill: #fff;" />
    <rect x="100.67" y="31.33" width=".77" height=".77" />
    <path
      d="M101.44,32.1h.77v-.77h-.77v.77ZM102.21,32.1h.77v-.77h-.77v.77ZM102.99,32.1h.77v-.77h-.77v.77ZM103.76,32.1h.77v-.77h-.77v.77Z"
      style="fill: #fff;" />
    <path d="M104.53,32.1h.77v-.77h-.77v.77ZM105.31,32.1h.77v-.77h-.77v.77Z" />
    <rect x="106.08" y="31.33" width=".77" height=".77" style="fill: #fff;" />
    <path d="M106.85,32.1h.77v-.77h-.77v.77ZM107.63,32.1h.77v-.77h-.77v.77ZM108.4,32.1h.77v-.77h-.77v.77Z" />
    <path d="M109.17,32.1h.77v-.77h-.77v.77ZM109.95,32.1h.77v-.77h-.77v.77ZM110.72,32.1h.77v-.77h-.77v.77Z"
      style="fill: #fff;" />
    <path d="M85.98,32.87h.77v-.77h-.77v.77ZM86.75,32.87h.77v-.77h-.77v.77Z" />
    <path
      d="M87.53,32.87h.77v-.77h-.77v.77ZM88.3,32.87h.77v-.77h-.77v.77ZM89.07,32.87h.77v-.77h-.77v.77ZM89.85,32.87h.77v-.77h-.77v.77ZM90.62,32.87h.77v-.77h-.77v.77ZM91.39,32.87h.77v-.77h-.77v.77Z"
      style="fill: #fff;" />
    <rect x="92.16" y="32.1" width=".77" height=".77" />
    <rect x="92.94" y="32.1" width=".77" height=".77" style="fill: #fff;" />
    <path
      d="M93.71,32.87h.77v-.77h-.77v.77ZM94.48,32.87h.77v-.77h-.77v.77ZM95.26,32.87h.77v-.77h-.77v.77ZM96.03,32.87h.77v-.77h-.77v.77Z" />
    <path
      d="M96.8,32.87h.77v-.77h-.77v.77ZM97.58,32.87h.77v-.77h-.77v.77ZM98.35,32.87h.77v-.77h-.77v.77ZM99.12,32.87h.77v-.77h-.77v.77ZM99.9,32.87h.77v-.77h-.77v.77Z"
      style="fill: #fff;" />
    <path d="M100.67,32.87h.77v-.77h-.77v.77ZM101.44,32.87h.77v-.77h-.77v.77ZM102.21,32.87h.77v-.77h-.77v.77Z" />
    <rect x="102.99" y="32.1" width=".77" height=".77" style="fill: #fff;" />
    <rect x="103.76" y="32.1" width=".77" height=".77" />
    <path d="M104.53,32.87h.77v-.77h-.77v.77ZM105.31,32.87h.77v-.77h-.77v.77Z" style="fill: #fff;" />
    <rect x="106.08" y="32.1" width=".77" height=".77" />
    <path d="M106.85,32.87h.77v-.77h-.77v.77ZM107.63,32.87h.77v-.77h-.77v.77Z" style="fill: #fff;" />
    <path d="M108.4,32.87h.77v-.77h-.77v.77ZM109.17,32.87h.77v-.77h-.77v.77Z" />
    <rect x="109.95" y="32.1" width=".77" height=".77" style="fill: #fff;" />
    <path d="M85.98,33.65h.77v-.77h-.77v.77ZM110.72,32.87h.77v-.77h-.77v.77Z" />
    <rect x="86.75" y="32.87" width=".77" height=".77" style="fill: #fff;" />
    <path d="M87.53,33.65h.77v-.77h-.77v.77ZM88.3,33.65h.77v-.77h-.77v.77Z" />
    <rect x="89.07" y="32.87" width=".77" height=".77" style="fill: #fff;" />
    <path d="M89.85,33.65h.77v-.77h-.77v.77ZM90.62,33.65h.77v-.77h-.77v.77Z" />
    <path
      d="M91.39,33.65h.77v-.77h-.77v.77ZM92.16,33.65h.77v-.77h-.77v.77ZM92.94,33.65h.77v-.77h-.77v.77ZM93.71,33.65h.77v-.77h-.77v.77Z"
      style="fill: #fff;" />
    <rect x="94.48" y="32.87" width=".77" height=".77" />
    <path
      d="M95.26,33.65h.77v-.77h-.77v.77ZM96.03,33.65h.77v-.77h-.77v.77ZM96.8,33.65h.77v-.77h-.77v.77ZM97.58,33.65h.77v-.77h-.77v.77Z"
      style="fill: #fff;" />
    <path
      d="M98.35,33.65h.77v-.77h-.77v.77ZM99.12,33.65h.77v-.77h-.77v.77ZM99.9,33.65h.77v-.77h-.77v.77ZM100.67,33.65h.77v-.77h-.77v.77Z" />
    <rect x="101.44" y="32.87" width=".77" height=".77" style="fill: #fff;" />
    <rect x="102.21" y="32.87" width=".77" height=".77" />
    <path
      d="M102.99,33.65h.77v-.77h-.77v.77ZM103.76,33.65h.77v-.77h-.77v.77ZM104.53,33.65h.77v-.77h-.77v.77ZM105.31,33.65h.77v-.77h-.77v.77ZM106.08,33.65h.77v-.77h-.77v.77Z"
      style="fill: #fff;" />
    <rect x="106.85" y="32.87" width=".77" height=".77" />
    <rect x="107.63" y="32.87" width=".77" height=".77" style="fill: #fff;" />
    <path d="M108.4,33.65h.77v-.77h-.77v.77ZM109.17,33.65h.77v-.77h-.77v.77ZM109.95,33.65h.77v-.77h-.77v.77Z" />
    <rect x="110.72" y="32.87" width=".77" height=".77" style="fill: #fff;" />
    <rect x="85.98" y="33.65" width=".77" height=".77" />
    <path d="M86.75,34.42h.77v-.77h-.77v.77ZM87.53,34.42h.77v-.77h-.77v.77ZM88.3,34.42h.77v-.77h-.77v.77Z"
      style="fill: #fff;" />
    <rect x="89.07" y="33.65" width=".77" height=".77" />
    <path d="M89.85,34.42h.77v-.77h-.77v.77ZM90.62,34.42h.77v-.77h-.77v.77Z" style="fill: #fff;" />
    <path d="M91.39,34.42h.77v-.77h-.77v.77ZM92.16,34.42h.77v-.77h-.77v.77Z" />
    <rect x="92.94" y="33.65" width=".77" height=".77" style="fill: #fff;" />
    <path
      d="M93.71,34.42h.77v-.77h-.77v.77ZM94.48,34.42h.77v-.77h-.77v.77ZM95.26,34.42h.77v-.77h-.77v.77ZM96.03,34.42h.77v-.77h-.77v.77ZM96.8,34.42h.77v-.77h-.77v.77ZM97.58,34.42h.77v-.77h-.77v.77Z" />
    <path d="M98.35,34.42h.77v-.77h-.77v.77ZM99.12,34.42h.77v-.77h-.77v.77ZM99.9,34.42h.77v-.77h-.77v.77Z"
      style="fill: #fff;" />
    <rect x="100.67" y="33.65" width=".77" height=".77" />
    <rect x="101.44" y="33.65" width=".77" height=".77" style="fill: #fff;" />
    <rect x="102.21" y="33.65" width=".77" height=".77" />
    <path d="M102.99,34.42h.77v-.77h-.77v.77ZM103.76,34.42h.77v-.77h-.77v.77Z" style="fill: #fff;" />
    <rect x="104.53" y="33.65" width=".77" height=".77" />
    <path
      d="M105.31,34.42h.77v-.77h-.77v.77ZM106.08,34.42h.77v-.77h-.77v.77ZM106.85,34.42h.77v-.77h-.77v.77ZM107.63,34.42h.77v-.77h-.77v.77Z"
      style="fill: #fff;" />
    <path d="M108.4,34.42h.77v-.77h-.77v.77ZM109.17,34.42h.77v-.77h-.77v.77Z" />
    <rect x="109.95" y="33.65" width=".77" height=".77" style="fill: #fff;" />
    <path d="M85.98,35.19h.77v-.77h-.77v.77ZM110.72,34.42h.77v-.77h-.77v.77Z" />
    <path d="M86.75,35.19h.77v-.77h-.77v.77ZM87.53,35.19h.77v-.77h-.77v.77Z" style="fill: #fff;" />
    <rect x="88.3" y="34.42" width=".77" height=".77" />
    <path d="M89.07,35.19h.77v-.77h-.77v.77ZM89.85,35.19h.77v-.77h-.77v.77Z" style="fill: #fff;" />
    <rect x="90.62" y="34.42" width=".77" height=".77" />
    <rect x="91.39" y="34.42" width=".77" height=".77" style="fill: #fff;" />
    <rect x="92.16" y="34.42" width=".77" height=".77" />
    <rect x="92.94" y="34.42" width=".77" height=".77" style="fill: #fff;" />
    <path d="M93.71,35.19h.77v-.77h-.77v.77ZM94.48,35.19h.77v-.77h-.77v.77Z" />
    <rect x="95.26" y="34.42" width=".77" height=".77" style="fill: #fff;" />
    <rect x="96.03" y="34.42" width=".77" height=".77" />
    <rect x="96.8" y="34.42" width=".77" height=".77" style="fill: #fff;" />
    <path d="M97.58,35.19h.77v-.77h-.77v.77ZM98.35,35.19h.77v-.77h-.77v.77Z" />
    <path d="M99.12,35.19h.77v-.77h-.77v.77ZM99.9,35.19h.77v-.77h-.77v.77Z" style="fill: #fff;" />
    <path d="M100.67,35.19h.77v-.77h-.77v.77ZM101.44,35.19h.77v-.77h-.77v.77Z" />
    <rect x="102.21" y="34.42" width=".77" height=".77" style="fill: #fff;" />
    <path
      d="M102.99,35.19h.77v-.77h-.77v.77ZM103.76,35.19h.77v-.77h-.77v.77ZM104.53,35.19h.77v-.77h-.77v.77ZM105.31,35.19h.77v-.77h-.77v.77ZM106.08,35.19h.77v-.77h-.77v.77ZM106.85,35.19h.77v-.77h-.77v.77ZM107.63,35.19h.77v-.77h-.77v.77Z" />
    <path d="M108.4,35.19h.77v-.77h-.77v.77ZM109.17,35.19h.77v-.77h-.77v.77Z" style="fill: #fff;" />
    <path d="M109.95,35.19h.77v-.77h-.77v.77ZM110.72,35.19h.77v-.77h-.77v.77Z" />
    <path
      d="M85.98,35.97h.77v-.77h-.77v.77ZM86.75,35.97h.77v-.77h-.77v.77ZM87.53,35.97h.77v-.77h-.77v.77ZM88.3,35.97h.77v-.77h-.77v.77ZM89.07,35.97h.77v-.77h-.77v.77ZM89.85,35.97h.77v-.77h-.77v.77ZM90.62,35.97h.77v-.77h-.77v.77ZM91.39,35.97h.77v-.77h-.77v.77Z"
      style="fill: #fff;" />
    <path d="M92.16,35.97h.77v-.77h-.77v.77ZM92.94,35.97h.77v-.77h-.77v.77ZM93.71,35.97h.77v-.77h-.77v.77Z" />
    <rect x="94.48" y="35.19" width=".77" height=".77" style="fill: #fff;" />
    <rect x="95.26" y="35.19" width=".77" height=".77" />
    <rect x="96.03" y="35.19" width=".77" height=".77" style="fill: #fff;" />
    <path d="M96.8,35.97h.77v-.77h-.77v.77ZM97.58,35.97h.77v-.77h-.77v.77Z" />
    <path d="M98.35,35.97h.77v-.77h-.77v.77ZM99.12,35.97h.77v-.77h-.77v.77Z" style="fill: #fff;" />
    <path d="M99.9,35.97h.77v-.77h-.77v.77ZM100.67,35.97h.77v-.77h-.77v.77ZM101.44,35.97h.77v-.77h-.77v.77Z" />
    <path d="M102.21,35.97h.77v-.77h-.77v.77ZM102.99,35.97h.77v-.77h-.77v.77Z" style="fill: #fff;" />
    <path d="M103.76,35.97h.77v-.77h-.77v.77ZM104.53,35.97h.77v-.77h-.77v.77Z" />
    <path d="M105.31,35.97h.77v-.77h-.77v.77ZM106.08,35.97h.77v-.77h-.77v.77ZM106.85,35.97h.77v-.77h-.77v.77Z"
      style="fill: #fff;" />
    <path
      d="M85.98,36.74h.77v-.77h-.77v.77ZM86.75,36.74h.77v-.77h-.77v.77ZM87.53,36.74h.77v-.77h-.77v.77ZM88.3,36.74h.77v-.77h-.77v.77ZM89.07,36.74h.77v-.77h-.77v.77ZM89.85,36.74h.77v-.77h-.77v.77ZM90.62,36.74h.77v-.77h-.77v.77ZM107.63,35.97h.77v-.77h-.77v.77ZM108.4,35.97h.77v-.77h-.77v.77ZM109.17,35.97h.77v-.77h-.77v.77ZM109.95,35.97h.77v-.77h-.77v.77ZM110.72,35.97h.77v-.77h-.77v.77Z" />
    <path
      d="M91.39,36.74h.77v-.77h-.77v.77ZM92.16,36.74h.77v-.77h-.77v.77ZM92.94,36.74h.77v-.77h-.77v.77ZM93.71,36.74h.77v-.77h-.77v.77ZM94.48,36.74h.77v-.77h-.77v.77ZM95.26,36.74h.77v-.77h-.77v.77Z"
      style="fill: #fff;" />
    <path d="M96.03,36.74h.77v-.77h-.77v.77ZM96.8,36.74h.77v-.77h-.77v.77ZM97.58,36.74h.77v-.77h-.77v.77Z" />
    <rect x="98.35" y="35.97" width=".77" height=".77" style="fill: #fff;" />
    <rect x="99.12" y="35.97" width=".77" height=".77" />
    <path
      d="M99.9,36.74h.77v-.77h-.77v.77ZM100.67,36.74h.77v-.77h-.77v.77ZM101.44,36.74h.77v-.77h-.77v.77ZM102.21,36.74h.77v-.77h-.77v.77Z"
      style="fill: #fff;" />
    <path d="M102.99,36.74h.77v-.77h-.77v.77ZM103.76,36.74h.77v-.77h-.77v.77ZM104.53,36.74h.77v-.77h-.77v.77Z" />
    <rect x="105.31" y="35.97" width=".77" height=".77" style="fill: #fff;" />
    <rect x="106.08" y="35.97" width=".77" height=".77" />
    <rect x="106.85" y="35.97" width=".77" height=".77" style="fill: #fff;" />
    <rect x="107.63" y="35.97" width=".77" height=".77" />
    <path d="M108.4,36.74h.77v-.77h-.77v.77ZM109.17,36.74h.77v-.77h-.77v.77Z" style="fill: #fff;" />
    <rect x="109.95" y="35.97" width=".77" height=".77" />
    <rect x="110.72" y="35.97" width=".77" height=".77" style="fill: #fff;" />
    <rect x="85.98" y="36.74" width=".77" height=".77" />
    <path
      d="M86.75,37.51h.77v-.77h-.77v.77ZM87.53,37.51h.77v-.77h-.77v.77ZM88.3,37.51h.77v-.77h-.77v.77ZM89.07,37.51h.77v-.77h-.77v.77ZM89.85,37.51h.77v-.77h-.77v.77Z"
      style="fill: #fff;" />
    <rect x="90.62" y="36.74" width=".77" height=".77" />
    <path d="M91.39,37.51h.77v-.77h-.77v.77ZM92.16,37.51h.77v-.77h-.77v.77ZM92.94,37.51h.77v-.77h-.77v.77Z"
      style="fill: #fff;" />
    <rect x="93.71" y="36.74" width=".77" height=".77" />
    <rect x="94.48" y="36.74" width=".77" height=".77" style="fill: #fff;" />
    <path d="M95.26,37.51h.77v-.77h-.77v.77ZM96.03,37.51h.77v-.77h-.77v.77Z" />
    <rect x="96.8" y="36.74" width=".77" height=".77" style="fill: #fff;" />
    <path d="M97.58,37.51h.77v-.77h-.77v.77ZM98.35,37.51h.77v-.77h-.77v.77ZM99.12,37.51h.77v-.77h-.77v.77Z" />
    <rect x="99.9" y="36.74" width=".77" height=".77" style="fill: #fff;" />
    <rect x="100.67" y="36.74" width=".77" height=".77" />
    <path d="M101.44,37.51h.77v-.77h-.77v.77ZM102.21,37.51h.77v-.77h-.77v.77ZM102.99,37.51h.77v-.77h-.77v.77Z"
      style="fill: #fff;" />
    <path d="M103.76,37.51h.77v-.77h-.77v.77ZM104.53,37.51h.77v-.77h-.77v.77Z" />
    <path d="M105.31,37.51h.77v-.77h-.77v.77ZM106.08,37.51h.77v-.77h-.77v.77ZM106.85,37.51h.77v-.77h-.77v.77Z"
      style="fill: #fff;" />
    <path
      d="M85.98,38.28h.77v-.77h-.77v.77ZM107.63,37.51h.77v-.77h-.77v.77ZM108.4,37.51h.77v-.77h-.77v.77ZM109.17,37.51h.77v-.77h-.77v.77ZM109.95,37.51h.77v-.77h-.77v.77ZM110.72,37.51h.77v-.77h-.77v.77Z" />
    <rect x="86.75" y="37.51" width=".77" height=".77" style="fill: #fff;" />
    <path d="M87.53,38.28h.77v-.77h-.77v.77ZM88.3,38.28h.77v-.77h-.77v.77ZM89.07,38.28h.77v-.77h-.77v.77Z" />
    <rect x="89.85" y="37.51" width=".77" height=".77" style="fill: #fff;" />
    <rect x="90.62" y="37.51" width=".77" height=".77" />
    <rect x="91.39" y="37.51" width=".77" height=".77" style="fill: #fff;" />
    <path
      d="M92.16,38.28h.77v-.77h-.77v.77ZM92.94,38.28h.77v-.77h-.77v.77ZM93.71,38.28h.77v-.77h-.77v.77ZM94.48,38.28h.77v-.77h-.77v.77ZM95.26,38.28h.77v-.77h-.77v.77ZM96.03,38.28h.77v-.77h-.77v.77Z" />
    <path d="M96.8,38.28h.77v-.77h-.77v.77ZM97.58,38.28h.77v-.77h-.77v.77Z" style="fill: #fff;" />
    <rect x="98.35" y="37.51" width=".77" height=".77" />
    <rect x="99.12" y="37.51" width=".77" height=".77" style="fill: #fff;" />
    <path d="M99.9,38.28h.77v-.77h-.77v.77ZM100.67,38.28h.77v-.77h-.77v.77Z" />
    <rect x="101.44" y="37.51" width=".77" height=".77" style="fill: #fff;" />
    <path d="M102.21,38.28h.77v-.77h-.77v.77ZM102.99,38.28h.77v-.77h-.77v.77Z" />
    <rect x="103.76" y="37.51" width=".77" height=".77" style="fill: #fff;" />
    <path
      d="M104.53,38.28h.77v-.77h-.77v.77ZM105.31,38.28h.77v-.77h-.77v.77ZM106.08,38.28h.77v-.77h-.77v.77ZM106.85,38.28h.77v-.77h-.77v.77ZM107.63,38.28h.77v-.77h-.77v.77ZM108.4,38.28h.77v-.77h-.77v.77Z" />
    <rect x="109.17" y="37.51" width=".77" height=".77" style="fill: #fff;" />
    <path d="M85.98,39.06h.77v-.77h-.77v.77ZM109.95,38.28h.77v-.77h-.77v.77ZM110.72,38.28h.77v-.77h-.77v.77Z" />
    <rect x="86.75" y="38.28" width=".77" height=".77" style="fill: #fff;" />
    <path d="M87.53,39.06h.77v-.77h-.77v.77ZM88.3,39.06h.77v-.77h-.77v.77ZM89.07,39.06h.77v-.77h-.77v.77Z" />
    <rect x="89.85" y="38.28" width=".77" height=".77" style="fill: #fff;" />
    <rect x="90.62" y="38.28" width=".77" height=".77" />
    <rect x="91.39" y="38.28" width=".77" height=".77" style="fill: #fff;" />
    <path d="M92.16,39.06h.77v-.77h-.77v.77ZM92.94,39.06h.77v-.77h-.77v.77Z" />
    <path d="M93.71,39.06h.77v-.77h-.77v.77ZM94.48,39.06h.77v-.77h-.77v.77Z" style="fill: #fff;" />
    <rect x="95.26" y="38.28" width=".77" height=".77" />
    <rect x="96.03" y="38.28" width=".77" height=".77" style="fill: #fff;" />
    <rect x="96.8" y="38.28" width=".77" height=".77" />
    <path d="M97.58,39.06h.77v-.77h-.77v.77ZM98.35,39.06h.77v-.77h-.77v.77ZM99.12,39.06h.77v-.77h-.77v.77Z"
      style="fill: #fff;" />
    <rect x="99.9" y="38.28" width=".77" height=".77" />
    <rect x="100.67" y="38.28" width=".77" height=".77" style="fill: #fff;" />
    <path d="M101.44,39.06h.77v-.77h-.77v.77ZM102.21,39.06h.77v-.77h-.77v.77Z" />
    <rect x="102.99" y="38.28" width=".77" height=".77" style="fill: #fff;" />
    <path d="M103.76,39.06h.77v-.77h-.77v.77ZM104.53,39.06h.77v-.77h-.77v.77ZM105.31,39.06h.77v-.77h-.77v.77Z" />
    <path d="M106.08,39.06h.77v-.77h-.77v.77ZM106.85,39.06h.77v-.77h-.77v.77Z" style="fill: #fff;" />
    <rect x="107.63" y="38.28" width=".77" height=".77" />
    <path d="M108.4,39.06h.77v-.77h-.77v.77ZM109.17,39.06h.77v-.77h-.77v.77ZM109.95,39.06h.77v-.77h-.77v.77Z"
      style="fill: #fff;" />
    <path d="M85.98,39.83h.77v-.77h-.77v.77ZM110.72,39.06h.77v-.77h-.77v.77Z" />
    <rect x="86.75" y="39.06" width=".77" height=".77" style="fill: #fff;" />
    <path d="M87.53,39.83h.77v-.77h-.77v.77ZM88.3,39.83h.77v-.77h-.77v.77ZM89.07,39.83h.77v-.77h-.77v.77Z" />
    <rect x="89.85" y="39.06" width=".77" height=".77" style="fill: #fff;" />
    <rect x="90.62" y="39.06" width=".77" height=".77" />
    <rect x="91.39" y="39.06" width=".77" height=".77" style="fill: #fff;" />
    <path d="M92.16,39.83h.77v-.77h-.77v.77ZM92.94,39.83h.77v-.77h-.77v.77ZM93.71,39.83h.77v-.77h-.77v.77Z" />
    <rect x="94.48" y="39.06" width=".77" height=".77" style="fill: #fff;" />
    <rect x="95.26" y="39.06" width=".77" height=".77" />
    <rect x="96.03" y="39.06" width=".77" height=".77" style="fill: #fff;" />
    <path d="M96.8,39.83h.77v-.77h-.77v.77ZM97.58,39.83h.77v-.77h-.77v.77ZM98.35,39.83h.77v-.77h-.77v.77Z" />
    <rect x="99.12" y="39.06" width=".77" height=".77" style="fill: #fff;" />
    <rect x="99.9" y="39.06" width=".77" height=".77" />
    <rect x="100.67" y="39.06" width=".77" height=".77" style="fill: #fff;" />
    <path d="M101.44,39.83h.77v-.77h-.77v.77ZM102.21,39.83h.77v-.77h-.77v.77ZM102.99,39.83h.77v-.77h-.77v.77Z" />
    <path d="M103.76,39.83h.77v-.77h-.77v.77ZM104.53,39.83h.77v-.77h-.77v.77Z" style="fill: #fff;" />
    <path d="M105.31,39.83h.77v-.77h-.77v.77ZM106.08,39.83h.77v-.77h-.77v.77Z" />
    <path d="M106.85,39.83h.77v-.77h-.77v.77ZM107.63,39.83h.77v-.77h-.77v.77Z" style="fill: #fff;" />
    <rect x="108.4" y="39.06" width=".77" height=".77" />
    <path d="M109.17,39.83h.77v-.77h-.77v.77ZM109.95,39.83h.77v-.77h-.77v.77ZM110.72,39.83h.77v-.77h-.77v.77Z"
      style="fill: #fff;" />
    <rect x="85.98" y="39.83" width=".77" height=".77" />
    <path
      d="M86.75,40.6h.77v-.77h-.77v.77ZM87.53,40.6h.77v-.77h-.77v.77ZM88.3,40.6h.77v-.77h-.77v.77ZM89.07,40.6h.77v-.77h-.77v.77ZM89.85,40.6h.77v-.77h-.77v.77Z"
      style="fill: #fff;" />
    <rect x="90.62" y="39.83" width=".77" height=".77" />
    <path d="M91.39,40.6h.77v-.77h-.77v.77ZM92.16,40.6h.77v-.77h-.77v.77Z" style="fill: #fff;" />
    <path d="M92.94,40.6h.77v-.77h-.77v.77ZM93.71,40.6h.77v-.77h-.77v.77Z" />
    <path d="M94.48,40.6h.77v-.77h-.77v.77ZM95.26,40.6h.77v-.77h-.77v.77Z" style="fill: #fff;" />
    <path d="M96.03,40.6h.77v-.77h-.77v.77ZM96.8,40.6h.77v-.77h-.77v.77ZM97.58,40.6h.77v-.77h-.77v.77Z" />
    <rect x="98.35" y="39.83" width=".77" height=".77" style="fill: #fff;" />
    <path d="M99.12,40.6h.77v-.77h-.77v.77ZM99.9,40.6h.77v-.77h-.77v.77Z" />
    <rect x="100.67" y="39.83" width=".77" height=".77" style="fill: #fff;" />
    <rect x="101.44" y="39.83" width=".77" height=".77" />
    <path
      d="M102.21,40.6h.77v-.77h-.77v.77ZM102.99,40.6h.77v-.77h-.77v.77ZM103.76,40.6h.77v-.77h-.77v.77ZM104.53,40.6h.77v-.77h-.77v.77ZM105.31,40.6h.77v-.77h-.77v.77ZM106.08,40.6h.77v-.77h-.77v.77Z"
      style="fill: #fff;" />
    <rect x="106.85" y="39.83" width=".77" height=".77" />
    <rect x="107.63" y="39.83" width=".77" height=".77" style="fill: #fff;" />
    <path d="M108.4,40.6h.77v-.77h-.77v.77ZM109.17,40.6h.77v-.77h-.77v.77Z" />
    <path d="M109.95,40.6h.77v-.77h-.77v.77ZM110.72,40.6h.77v-.77h-.77v.77Z" style="fill: #fff;" />
    <path
      d="M85.98,41.38h.77v-.77h-.77v.77ZM86.75,41.38h.77v-.77h-.77v.77ZM87.53,41.38h.77v-.77h-.77v.77ZM88.3,41.38h.77v-.77h-.77v.77ZM89.07,41.38h.77v-.77h-.77v.77ZM89.85,41.38h.77v-.77h-.77v.77ZM90.62,41.38h.77v-.77h-.77v.77Z" />
    <path d="M91.39,41.38h.77v-.77h-.77v.77ZM92.16,41.38h.77v-.77h-.77v.77Z" style="fill: #fff;" />
    <rect x="92.94" y="40.6" width=".77" height=".77" />
    <rect x="93.71" y="40.6" width=".77" height=".77" style="fill: #fff;" />
    <rect x="94.48" y="40.6" width=".77" height=".77" />
    <path d="M95.26,41.38h.77v-.77h-.77v.77ZM96.03,41.38h.77v-.77h-.77v.77Z" style="fill: #fff;" />
    <rect x="96.8" y="40.6" width=".77" height=".77" />
    <path d="M97.58,41.38h.77v-.77h-.77v.77ZM98.35,41.38h.77v-.77h-.77v.77Z" style="fill: #fff;" />
    <rect x="99.12" y="40.6" width=".77" height=".77" />
    <rect x="99.9" y="40.6" width=".77" height=".77" style="fill: #fff;" />
    <path d="M100.67,41.38h.77v-.77h-.77v.77ZM101.44,41.38h.77v-.77h-.77v.77Z" />
    <path d="M102.21,41.38h.77v-.77h-.77v.77ZM102.99,41.38h.77v-.77h-.77v.77Z" style="fill: #fff;" />
    <path d="M103.76,41.38h.77v-.77h-.77v.77ZM104.53,41.38h.77v-.77h-.77v.77Z" />
    <rect x="105.31" y="40.6" width=".77" height=".77" style="fill: #fff;" />
    <rect x="106.08" y="40.6" width=".77" height=".77" />
    <path
      d="M106.85,41.38h.77v-.77h-.77v.77ZM107.63,41.38h.77v-.77h-.77v.77ZM108.4,41.38h.77v-.77h-.77v.77ZM109.17,41.38h.77v-.77h-.77v.77Z"
      style="fill: #fff;" />
    <rect x="109.95" y="40.6" width=".77" height=".77" />
    <rect x="110.72" y="40.6" width=".77" height=".77" style="fill: #fff;" />
  </g>
  <g>
    <path d="M39.9,108.28v6.14h-1.04v-6.14h1.04Z" style="fill: #231f20;" />
    <path d="M40.87,109.2v-.92h5.12v.92h-2.04v5.22h-1.04v-5.22h-2.04Z" style="fill: #231f20;" />
  </g>
  <g>
    <path d="M77.55,108.28h4.01v.92h-2.99v1.62h2.71v.91h-2.71v1.76h2.99v.93h-4.01v-6.14Z" style="fill: #231f20;" />
    <path
      d="M86.84,113.86c-.44.44-1.04.66-1.79.66s-1.35-.22-1.8-.66-.66-1.07-.66-1.89v-3.69h1.04v3.58c0,1.15.47,1.73,1.42,1.73s1.42-.58,1.42-1.73v-3.58h1.04v3.7c0,.82-.22,1.44-.66,1.88Z"
      style="fill: #231f20;" />
    <path
      d="M88.76,114.42v-6.14h2.37c.65,0,1.16.16,1.53.48.37.32.56.77.56,1.35,0,.5-.14.9-.41,1.2s-.66.49-1.15.57l1.77,2.53h-1.18l-1.7-2.49h-.75v2.49h-1.04ZM89.8,109.18v1.88h1.31c.34,0,.6-.08.79-.25.19-.17.29-.4.29-.69s-.09-.52-.28-.69-.45-.25-.8-.25h-1.31Z"
      style="fill: #231f20;" />
  </g>
  <text id="IT" y="45.2%" x="33%" text-anchor="middle"
    style="fill: #231f20; font-family: Metric-Bold, Metric; font-size: 12px; font-weight: 700;">
    <tspan></tspan>
  </text>
  <text id="EUR" y="45.2%" x="67%" text-anchor="middle"
    style="fill: #231f20; font-family: Metric-Bold, Metric; font-size: 12px; font-weight: 700;">
    <tspan></tspan>
  </text>



    <text id="selling_price_full" y="84.8%" x="49.3%" text-anchor="middle"
   style="fill: #231f20; font-family: Metric-Medium, Metric; font-size: 15px; font-weight: 500;">
    <tspan></tspan>
  </text>
  <text id="translation_code_ENGLISH" y="25.4%" x="50%"
    style="font-family: Metric-Bold, Metric; font-size: 10px; font-weight: 700;" text-anchor="middle">
    <tspan></tspan>
  </text>

  <text id="translation_code_ITALIANO" y="29.4%" x="50%"
    style="font-family: Metric-Medium, Metric; font-size: 10px; font-weight: 500;" text-anchor="middle">
    <tspan></tspan>
  </text>

  <g>
    <line x1="63.44" y1="101.91" x2="63.44" y2="131.47"
      style="fill: none; stroke: #231f20; stroke-miterlimit: 10; stroke-width: .5px;" />
    <line x1="105.67" y1="131.47" x2="20.92" y2="131.47"
      style="fill: none; stroke: #231f20; stroke-miterlimit: 10; stroke-width: .5px;" />
    <rect x="20.92" y="101.91" width="85.04" height="56.69"
      style="fill: none; stroke: #231f20; stroke-miterlimit: 10; stroke-width: .5px;" />
    <line x1=".14" y1="223.02" x2="127.68" y2="223.02"
      style="fill: none; stroke: #68bd4a; stroke-dasharray: 3 2 3 2 3 2; stroke-miterlimit: 2;" />
    <path
      d="M127.68,242.6c0,6.98-4.96,12.64-11.07,12.64H11.2c-6.12,0-11.07-5.66-11.07-12.64V12.77C.12,5.79,5.08.12,11.2.12h105.41c6.12,0,11.07,5.66,11.07,12.64v229.83Z"
      style="fill: none; stroke: #d53995; stroke-width: .25px;" />
    <path d="M68.87,19.86c0,2.74-2.22,4.96-4.96,4.96s-4.96-2.22-4.96-4.96,2.22-4.96,4.96-4.96,4.96,2.22,4.96,4.96"
      style="fill: none; stroke: #d53995; stroke-width: .25px;" />
  </g>
  <g id="fsc">
    <path
      d="M40.36,46.7h-22.64c-.77,0-1.4-.63-1.4-1.4V12.88c0-.77.63-1.4,1.4-1.4h22.64c.77,0,1.4.63,1.4,1.4v32.42c0,.77-.63,1.4-1.4,1.4M17.72,11.73c-.63,0-1.15.51-1.15,1.15v32.42c0,.63.51,1.15,1.15,1.15h22.64c.63,0,1.14-.52,1.14-1.15V12.88c0-.63-.51-1.15-1.14-1.15h-22.64Z" />
    <path
      d="M34.28,13.81c.22,0,.4.08.56.23s.23.34.23.56-.08.4-.23.56c-.15.16-.34.23-.56.23s-.4-.08-.56-.23c-.15-.15-.23-.34-.23-.56s.08-.4.23-.56c.15-.16.34-.23.56-.23M34.28,15.26c.18,0,.34-.06.46-.19.13-.13.19-.28.2-.47,0-.18-.06-.34-.19-.46-.13-.13-.28-.19-.47-.19-.18,0-.34.06-.46.19-.13.13-.19.28-.19.47,0,.18.06.34.19.47.13.13.28.19.47.2M34.65,15.04h-.17c-.11-.19-.17-.3-.21-.33l-.12-.04h-.08v.36h-.14v-.85h.29l.2.02.11.08.04.13-.06.16-.18.08s.12.08.2.21l.1.17h.02,0ZM34.07,14.56h.17l.16-.03.04-.09-.04-.09-.17-.03h-.16v.26-.02Z" />
    <path
      d="M29.38,13.62c-3.3,0-4.46,5.13-5.55,9.26-.39-.4-1.6-1.6-1.6-1.6-.24-.24-.52-.16-.69,0-.17.17-.2.49,0,.68,0,0,1.63,1.63,2.2,2.19.16.15.38.24.6.11.23-.14.26-.4.27-.4,1.93-8.64,3.64-9.28,4.76-9.28.94,0,2.02.69,2.02,2.09,1.4,0,2.28,1.84,1.15,2.98.94.45,1.35,1.01,1.35,1.71s-.59,1.43-1.45,1.42c-.85,0-1.29-.55-1.95-.55-.3,0-.49.24-.49.48v1.74h-1.26v-1.74c0-.27-.2-.49-.45-.49h-.11l-1.68.21c-.2.03-.39.25-.39.48,0,.27.22.49.52.49h.08l1.07-.14v1.72c0,.22.25.43.47.43h2.24c.26,0,.49-.22.49-.49v-1.57c.47.29,1.12.4,1.45.4,1.25,0,2.45-.99,2.44-2.43,0-1.31-1.01-1.97-1.01-1.97.59-1.57-.36-3.08-1.59-3.5-.45-1.62-1.83-2.24-2.89-2.24" />
    <path
      d="M27.97,27.36c0,.41.45.65,1.2,1,.59.28.93.57.93.81,0,.38-.41.52-.79.52-.59,0-.94-.24-1.14-.77v-.05h-.06c-.11,0-.19,0-.24.06v.19l.12.54c.03.13.08.16.29.2.09.02.57.1.98.1,1.13,0,1.64-.46,1.64-.92,0-.33-.33-.65-1.04-1.01l-.32-.16c-.49-.23-.78-.37-.78-.61s.3-.4.74-.4c.57,0,.72.32.79.59v.05h.07c.13,0,.2-.01.25-.06l.03-.12-.04-.47c-.01-.15-.13-.17-.29-.2-.19-.04-.42-.08-.76-.08-.98,0-1.57.29-1.57.77" />
    <path
      d="M31.23,28.31c0,.82.71,1.65,2.07,1.65.69,0,1.07-.16,1.36-.31l.08-.04-.13-.14-.1-.05-.07.02c-.1.05-.42.19-.99.19-.7,0-1.46-.46-1.46-1.47s.82-1.31,1.53-1.31c.51,0,.77.18.82.56v.06h.06c.06,0,.22,0,.22-.12v-.56c0-.14-.16-.16-.22-.17h-.07c-.16-.02-.32-.04-.73-.04-1.37,0-2.38.72-2.38,1.72" />
    <path
      d="M26.1,26.62h-2.17l-.12.13s0,.14.14.14c.49,0,.51.04.52.23v1.71c0,.18,0,.47-.02.7,0,.07,0,.13-.44.13-.12,0-.19.02-.19.15,0,.03,0,.13.12.13h1.85c.1,0,.18-.01.18-.13,0-.14-.11-.15-.29-.15-.44,0-.44-.06-.45-.13,0-.21-.02-.5-.02-.7v-.39h.37c.56,0,.63.01.71.45.02.09.1.11.16.11.13,0,.15-.07.15-.1v-.16c-.01-.09-.03-.21-.03-.37v-.67c0-.1-.12-.1-.18-.1-.11,0-.13.07-.2.38-.03.12-.26.19-.64.19h-.33v-.98c0-.27.05-.27.1-.27.22,0,.74-.03.89-.03s.28.03.37.09c.28.17.42.29.51.36l.2.11s.16,0,.16-.1l-.05-.13c-.05-.1-.12-.27-.22-.52-.03-.08-.12-.08-.29-.08h-.79Z" />
    <path
      d="M28.55,35.47h-.26v-1.71l-.59,1.71h-.24l-.59-1.74h-.01v1.74h-.26v-2.05h.4l.48,1.45c.06.16.08.26.09.3.02-.08.06-.19.11-.33l.49-1.42h.36v2.05h.02Z" />
    <rect x="29.14" y="33.43" width=".27" height="2.05" />
    <path
      d="M31.67,35.47h-.33l-.41-.58c-.1-.14-.16-.24-.19-.29,0,.02-.21.31-.62.87h-.33l.79-1.07-.7-.98h.32l.43.61.1.17c.04-.06.23-.32.57-.78h.3l-.72.96.78,1.08h.01Z" />
    <path
      d="M24.11,44.09c-.08.07-.18.11-.29.11-.15,0-.28-.06-.37-.17s-.14-.31-.14-.58.05-.44.14-.55c.1-.11.22-.17.38-.17.11,0,.21.03.29.1.08.06.13.15.16.26l.42-.1c-.05-.17-.12-.3-.21-.4-.16-.16-.37-.23-.63-.23-.29,0-.53.1-.71.3-.18.2-.27.47-.27.83,0,.34.09.6.27.8.18.19.41.29.69.29.23,0,.41-.06.56-.17.15-.11.25-.29.32-.52l-.41-.13c-.03.16-.09.27-.17.34M21.13,44.39c.14.13.35.19.61.19.18,0,.33-.03.46-.08.12-.05.22-.13.28-.24.07-.11.1-.22.1-.34,0-.14-.03-.25-.08-.34-.06-.09-.13-.17-.23-.22-.1-.05-.25-.1-.46-.15-.21-.05-.34-.1-.39-.14-.04-.04-.06-.08-.06-.13s.02-.1.07-.13c.07-.05.17-.08.29-.08s.21.02.27.07c.06.05.1.13.12.24l.42-.02c0-.2-.08-.35-.21-.47-.13-.12-.33-.18-.6-.18-.16,0-.3.03-.41.07-.11.05-.2.12-.26.22-.06.09-.09.2-.09.31,0,.17.07.31.19.43.09.08.25.15.48.21.18.05.29.08.34.09.07.03.12.06.15.09.03.04.04.08.04.13,0,.08-.03.15-.1.21-.07.06-.17.09-.31.09-.13,0-.23-.03-.31-.1-.08-.07-.13-.17-.15-.31l-.41.04c.03.24.11.42.26.55M19.61,44.54v-.91h.88v-.36h-.88v-.51h1.02v-.36h-1.44v2.14h.43-.01Z" />
    <path
      d="M25.33,42.68h.21l.05.03.02.05-.02.05-.05.03h-.21v-.19.02h0ZM25.33,43.27v-.29h.04l.1.03s.06.07.09.14l.06.11h.17l-.08-.14s-.04-.08-.05-.08l-.05-.05-.05-.03c.06,0,.1-.03.14-.07.03-.04.05-.08.05-.13l-.03-.1-.06-.07s-.06-.02-.11-.03h-.36v.69h.14v.02ZM25.74,42.46c.08.04.15.11.19.19.05.08.07.17.07.27s-.02.18-.07.26c-.04.08-.11.15-.19.19-.08.05-.17.07-.26.07s-.17-.02-.26-.07c-.08-.05-.14-.11-.19-.19-.04-.08-.07-.17-.07-.26s.02-.18.07-.27c.05-.08.11-.15.19-.19.08-.05.17-.07.25-.07s.17.02.25.07M25.17,42.35c-.1.05-.18.14-.24.24-.06.1-.09.21-.09.33s.03.22.08.32c.06.1.14.18.24.24s.21.09.32.09.22-.03.32-.09.18-.14.24-.24c.06-.1.09-.21.09-.32s-.03-.22-.09-.33-.14-.19-.24-.24c-.1-.06-.21-.08-.32-.08s-.22.03-.32.08" />
    <path
      d="M28.29,44.09c-.08.07-.18.11-.29.11-.15,0-.28-.06-.37-.17s-.14-.31-.14-.58c0-.25.05-.44.15-.55s.22-.17.38-.17c.11,0,.21.03.29.1.08.06.13.15.15.26l.42-.1c-.05-.17-.12-.3-.22-.39-.16-.16-.37-.23-.63-.23-.29,0-.53.1-.71.3-.18.2-.27.47-.27.83,0,.34.09.6.27.8.18.19.41.29.69.29.22,0,.41-.06.56-.17.15-.11.25-.29.32-.52l-.41-.13c-.04.16-.09.27-.17.34" />
    <path
      d="M37.48,42.8v-.38h1.41v.3c-.12.11-.23.28-.35.49-.12.21-.21.44-.27.68s-.09.46-.09.64h-.4c0-.3.07-.6.18-.91.12-.31.27-.58.46-.83h-.94ZM36.61,43.74v-.73l-.49.73h.49ZM36.61,44.53v-.43h-.88v-.36l.93-1.36h.35v1.36h.27v.36h-.27v.43h-.4ZM35.53,44.15v.38h-1.44c.02-.14.06-.28.14-.41s.23-.3.46-.52c.19-.17.3-.29.34-.35.06-.08.08-.17.08-.25,0-.09-.02-.16-.07-.21s-.12-.07-.2-.07-.15.03-.21.08c-.05.05-.08.14-.09.26l-.41-.04c.03-.23.1-.39.23-.49.13-.1.29-.15.48-.15.21,0,.38.06.5.17.12.11.18.26.18.43,0,.1-.02.19-.05.28-.03.09-.09.18-.16.27-.05.06-.14.16-.27.27-.13.12-.21.2-.25.24-.03.04-.06.08-.08.11h.82ZM33.52,44.53h-.41v-1.55c-.15.14-.33.25-.53.31v-.37c.11-.04.22-.1.35-.2.13-.1.21-.21.26-.34h.33v2.16h0ZM32.19,44.15v.38h-1.44c.02-.14.06-.28.14-.41s.23-.3.46-.52c.19-.17.3-.29.34-.35.06-.08.08-.17.08-.25,0-.09-.02-.16-.07-.21s-.12-.07-.2-.07-.15.03-.21.08c-.05.05-.08.14-.09.26l-.41-.04c.02-.23.1-.39.23-.49.13-.1.29-.15.48-.15.21,0,.38.06.5.17.12.11.18.26.18.43,0,.1-.02.19-.05.28-.03.09-.09.18-.17.27-.05.06-.14.16-.27.27-.13.12-.21.2-.25.24s-.06.08-.08.11h.83ZM30.19,44.53h-.41v-1.55c-.15.14-.33.25-.53.31v-.37c.11-.04.22-.1.35-.2.13-.1.21-.21.26-.34h.33v2.16h0Z" />
    <path
      d="M26.39,39.52h.53s.09-.02.12-.04.06-.05.08-.09.03-.08.03-.13c0-.06-.01-.11-.04-.15s-.07-.08-.12-.09c-.05-.02-.13-.03-.23-.03h-.36v.54h-.01ZM26.39,38.79h.34c.09,0,.16,0,.2-.02.05-.02.09-.04.12-.08s.04-.08.04-.14c0-.05-.01-.1-.04-.14s-.06-.07-.11-.08c-.05-.02-.13-.02-.24-.02h-.32v.48h0ZM26.18,39.71v-1.57h.59c.12,0,.22.02.29.05.07.03.13.08.17.15s.06.14.06.21-.02.13-.05.19c-.04.06-.09.11-.17.14.09.03.17.08.22.14.05.07.08.15.08.24,0,.07-.01.14-.05.2-.03.06-.07.11-.12.15-.04.03-.1.06-.17.08s-.15.03-.25.03h-.6Z" />
    <path
      d="M27.76,39.14c0,.15.03.26.1.33.06.07.14.11.24.11s.18-.04.24-.11.1-.18.1-.33-.03-.25-.1-.32c-.06-.07-.14-.11-.24-.11s-.18.04-.24.11-.1.18-.1.33M27.56,39.15c0-.21.06-.37.18-.47.1-.08.22-.13.36-.13.16,0,.29.05.38.15.1.1.15.24.15.43,0,.15-.02.26-.07.35-.04.08-.11.15-.19.2s-.18.07-.28.07c-.16,0-.29-.05-.39-.15-.1-.1-.15-.25-.15-.44" />
    <path
      d="M29.59,39.13c-.07.03-.18.05-.32.07-.08,0-.14.02-.17.04-.03,0-.06.04-.08.06-.02.03-.03.06-.03.09,0,.05.02.09.06.13.04.03.1.05.17.05s.14-.02.2-.05c.06-.03.1-.08.13-.13.02-.04.03-.11.03-.19v-.07h.01ZM29.59,39.57c-.07.06-.14.1-.21.13s-.14.04-.21.04c-.12,0-.22-.03-.29-.09-.07-.06-.1-.14-.1-.23,0-.06.01-.11.04-.15.03-.05.06-.08.1-.11s.09-.05.14-.06c.04,0,.1-.02.17-.03.16-.02.27-.04.35-.07v-.05c0-.08-.02-.13-.05-.17-.05-.04-.12-.07-.22-.07-.09,0-.16.02-.2.05s-.08.09-.1.17l-.19-.03c.02-.08.05-.15.08-.2.04-.05.1-.09.17-.11.08-.03.16-.04.26-.04s.18,0,.24.03.1.05.13.09c.03.03.05.08.06.13,0,.03.01.09.01.18v.26c0,.18,0,.29.01.34,0,.05.03.09.05.14h-.2s-.03-.09-.04-.14" />
    <path
      d="M30.08,39.71v-1.14h.17v.17c.04-.08.08-.13.12-.16s.08-.04.12-.04c.06,0,.13.02.2.06l-.07.18s-.1-.04-.14-.04-.08,0-.11.04c-.03.03-.06.06-.07.11-.02.07-.03.14-.03.23v.6h-.19Z" />
    <path
      d="M30.94,39.14c0,.15.03.26.09.33.06.07.13.11.22.11s.16-.04.22-.1c.06-.07.09-.18.09-.32,0-.16-.03-.27-.09-.34s-.13-.11-.22-.11-.16.03-.22.11c-.06.07-.09.18-.09.33M31.56,39.71v-.14c-.07.11-.18.17-.32.17-.09,0-.18-.03-.25-.07-.08-.05-.14-.12-.18-.21s-.06-.19-.06-.31.02-.22.06-.31c.04-.09.09-.16.17-.21s.16-.08.25-.08c.07,0,.13.02.18.04.05.03.1.07.13.11v-.56h.19v1.57h-.18.01Z" />
  </g>
  <text id="sub_department" transform="translate(31.82 176.46)"
    style="font-family: Myriad-Roman, Myriad; font-size: 7.5px; isolation: isolate;">
    <tspan x="0" y="0"></tspan>
  </text>
  <text id="department" transform="translate(54.71 176.46)"
    style="font-family: Myriad-Roman, Myriad; font-size: 7.5px; isolation: isolate;">
    <tspan x="0" y="0"></tspan>
  </text>
  <text id="sku_code" transform="translate(73.04 176.46)"
    style="font-family: MyriadPro-Regular, &apos;Myriad Pro&apos;; font-size: 7.5px; isolation: isolate;">
    <tspan x="0" y="0"></tspan>
  </text>

  <text id="style_code" y="74.5%" x="50%" text-anchor="middle"
    style="font-family: Myriad-Roman, Myriad; font-size: 7.5px; isolation: isolate;">
    <tspan></tspan>
  </text>

  <text id="commercial_ref" y="77.0%" x="50%" text-anchor="middle"
    style="font-family: Myriad-Roman, Myriad; font-size: 7.5px; isolation: isolate;">
    <tspan></tspan>
  </text>


  <g id="Barcode">
    <rect x="32.38" y="177.41" width=".41" height="22.68" />
    <rect x="33.79" y="177.41" width=".41" height="22.68" />
    <rect x="36.61" y="177.41" width="1.12" height="22.68" />
    <rect x="38.73" y="177.41" width=".41" height="22.68" />
    <rect x="40.14" y="177.41" width="1.83" height="22.68" />
    <rect x="43.67" y="177.41" width=".41" height="22.68" />
    <rect x="45.08" y="177.41" width=".41" height="22.68" />
    <rect x="47.91" y="177.41" width="1.12" height="22.68" />
    <rect x="50.02" y="177.41" width=".41" height="22.68" />
    <rect x="52.14" y="177.41" width="1.83" height="22.68" />
    <rect x="54.96" y="177.41" width=".41" height="22.68" />
    <rect x="58.49" y="177.41" width=".41" height="22.68" />
    <rect x="60.66" y="177.41" width="1.07" height="22.68" />
    <rect x="63.49" y="177.41" width=".36" height="22.68" />
    <rect x="64.84" y="177.41" width=".41" height="22.68" />
    <rect x="66.26" y="177.41" width=".41" height="22.68" />
    <rect x="67.67" y="177.41" width=".41" height="22.68" />
    <rect x="69.08" y="177.41" width=".41" height="22.68" />
    <rect x="72.61" y="177.41" width="1.17" height="22.68" />
    <rect x="74.72" y="177.41" width="1.17" height="22.68" />
    <rect x="77.55" y="177.41" width=".41" height="22.68" />
    <rect x="79.66" y="177.41" width="1.83" height="22.68" />
    <rect x="82.49" y="177.41" width="1.17" height="22.68" />
    <rect x="84.6" y="177.41" width="1.17" height="22.68" />
    <rect x="87.43" y="177.41" width="1.17" height="22.68" />
    <rect x="89.54" y="177.41" width="1.17" height="22.68" />
    <rect x="92.37" y="177.41" width="1.17" height="22.68" />
    <rect x="94.48" y="177.41" width="1.17" height="22.68" />
    <rect x="97.31" y="177.41" width=".41" height="22.68" />
    <rect x="98.72" y="177.41" width=".41" height="22.68" />
  </g>
  <rect x="34.91" y="197.42" width="29.44" height="4.06" style="fill: #fff;" />
  <rect x="67.34" y="197.42" width="30" height="4.08" style="fill: #fff;" />
  <text id="bar1" data-name="Bar 1" transform="translate(27.84 203.21)"
    style="font-family: Myriad-Roman, Myriad; font-size: 7.5px; isolation: isolate;">
    <tspan x="0" y="0"></tspan>
  </text>
  <text id="bar2" data-name="Bar 2" transform="translate(36.14 203.21)"
    style="font-family: Myriad-Roman, Myriad; font-size: 7.5px; isolation: isolate; letter-spacing: .11em;">
    <tspan x="0" y="0"></tspan>
  </text>
  <text id="bar3" data-name="Bar 3" transform="translate(68.55 203.21)"
    style="font-family: Myriad-Roman, Myriad; font-size: 7.5px; isolation: isolate; letter-spacing: .11em;">
    <tspan x="0" y="0"></tspan>
  </text>
  <text id="variable_size_text" data-name="variable Size S" transform="translate(32.29 143.9)"
    style="font-family: Metric-Bold, Metric; font-size: 8px; font-weight: 700; isolation: isolate;">
    <tspan x="0" y="0"></tspan>
  </text>
 
 
  <text id="variable_size_box" data-name="variable Size box S" transform="translate(32.29 143.9)"
    style="fill: #fff; font-family: Metric-Bold, Metric; font-size: 8px; font-weight: 700; isolation: isolate;">
    <tspan x="0" y="0"></tspan>
  </text>
 
  <rect id="size_rect" x="21.99" y="133.16" width="82.35" height="23.9" style="fill: none;" />
</svg>