<?xml version="1.0" encoding="UTF-8"?>
<svg id="Layer_1" data-name="Layer 1" data-size="45mm x 85mm" xmlns="http://www.w3.org/2000/svg"
  viewBox="0 0 127.81 268.86">
  <text id="quantity" style="font-family: Arial-BoldMT, Arial; font-size: 15px; font-weight: 700; isolation: isolate;"
    y="98%" x="50%" text-anchor="middle"></text>

  <g>
    <path d="M127.56,212.6V12.09S127.56,0,115.46,0H12.1S0,0,0,12.09v200.51h127.56Z" />
    <path d="M63.78,27.37c3.13,0,5.67-2.54,5.67-5.67s-2.54-5.67-5.67-5.67-5.67,2.54-5.67,5.67,2.54,5.67,5.67,5.67"
      style="fill: #fff;" />
    <path d="M63.78,27.12c2.99,0,5.42-2.43,5.42-5.42s-2.43-5.42-5.42-5.42-5.42,2.43-5.42,5.42,2.43,5.42,5.42,5.42Z"
      style="fill: none; stroke: #ec008c; stroke-miterlimit: 10; stroke-width: .5px;" />
    <line x1=".25" y1="212.56" x2="127.81" y2="212.56"
      style="fill: none; stroke: #fcc60e; stroke-dasharray: 2.03 2.03; stroke-width: .5px;" />
    <line x1="0" y1="212.56" x2="127.56" y2="212.56"
      style="fill: none; stroke: #fcc60e; stroke-dasharray: 2.03 2.03; stroke-width: .5px;" />
    <path
      d="M12.36.25S.31.25.31,12.28v216.39s0,12.02,12.05,12.02h102.96s12.05,0,12.05-12.02V12.28s0-12.03-12.05-12.03H12.36Z"
      style="fill: none; stroke: #e5007d; stroke-miterlimit: 10; stroke-width: .5px;" />
    <rect x=".06" y="0" width="127.5" height="240.95" style="fill: none;" />
  </g>
  <rect x="18.42" y="62.35" width="90.71" height="57.91" style="fill: #fff;" />
  <g>
    <polygon
      points="27.11 156.16 30 156.16 30 157.02 28.05 157.02 28.05 157.81 29.89 157.81 29.89 158.67 28.05 158.67 28.05 159.54 30.11 159.54 30.11 160.4 27.11 160.4 27.11 156.16"
      style="fill: #fff;" />
    <path
      d="M34.44,158.77c0,.25-.04.48-.11.7-.08.21-.19.4-.34.55-.15.15-.34.28-.56.36s-.48.13-.77.13-.56-.04-.78-.13-.41-.21-.56-.36c-.15-.16-.26-.34-.34-.55-.08-.21-.11-.44-.11-.7v-2.61h.94v2.57c0,.13.02.25.06.37.04.11.1.21.18.29.08.08.17.15.27.19.11.05.22.07.34.07s.24-.02.34-.07c.1-.04.19-.11.27-.19.08-.08.14-.18.18-.29.04-.11.06-.23.06-.37v-2.57h.94v2.61Z"
      style="fill: #fff;" />
    <path
      d="M36.24,157.91h.55c.08,0,.17,0,.27,0s.18-.02.26-.05c.08-.03.14-.08.19-.14.05-.06.08-.15.08-.27,0-.11-.02-.19-.07-.26-.04-.06-.1-.11-.17-.15s-.15-.06-.23-.07c-.09-.01-.17-.02-.26-.02h-.61v.97ZM35.3,156.16h1.64c.22,0,.42.02.61.06.19.04.36.11.51.21s.26.23.35.4.13.37.13.62c0,.3-.08.55-.23.76-.16.21-.38.34-.68.4l1.08,1.79h-1.12l-.89-1.7h-.46v1.7h-.94v-4.25Z"
      style="fill: #fff;" />
    <line x1="26.88" y1="148.93" x2="100.68" y2="148.93"
      style="fill: none; stroke: #fff; stroke-linecap: round; stroke-miterlimit: 10; stroke-width: .5px;" />
    <rect x="27.2" y="137.57" width=".94" height="4.25" style="fill: #fff;" />
    <polygon
      points="29.81 138.4 28.6 138.4 28.6 137.57 31.96 137.57 31.96 138.4 30.74 138.4 30.74 141.82 29.81 141.82 29.81 138.4"
      style="fill: #fff;" />
    <polygon
      points="27.2 156.09 30.08 156.09 30.08 156.96 28.13 156.96 28.13 157.74 29.98 157.74 29.98 158.61 28.13 158.61 28.13 159.48 30.19 159.48 30.19 160.34 27.2 160.34 27.2 156.09"
      style="fill: #fff;" />
    <path
      d="M34.52,158.7c0,.25-.04.48-.11.7-.08.21-.19.4-.34.55-.15.15-.34.28-.56.36s-.48.13-.77.13-.56-.04-.78-.13-.41-.21-.56-.36c-.15-.16-.26-.34-.34-.55-.08-.21-.11-.44-.11-.7v-2.61h.94v2.57c0,.13.02.25.06.37.04.11.1.21.18.29.08.08.17.15.27.19.11.05.22.07.34.07s.24-.02.34-.07c.1-.04.19-.11.27-.19.08-.08.14-.18.18-.29.04-.11.06-.23.06-.37v-2.57h.94v2.61Z"
      style="fill: #fff;" />
    <path
      d="M36.33,157.85h.55c.08,0,.17,0,.27,0s.18-.02.26-.05c.08-.03.14-.08.19-.14.05-.06.08-.15.08-.27,0-.11-.02-.19-.07-.26-.04-.06-.1-.11-.17-.15s-.15-.06-.23-.07c-.09-.01-.17-.02-.26-.02h-.61v.97ZM35.39,156.09h1.64c.22,0,.42.02.61.06.19.04.36.11.51.21.15.1.26.23.35.4.09.17.13.37.13.62,0,.3-.08.55-.23.77-.16.21-.38.34-.68.4l1.08,1.79h-1.12l-.89-1.7h-.46v1.7h-.94v-4.25Z"
      style="fill: #fff;" />
  </g>


    <text id="selling_price_full" y="86.7%" x="50%" style="font-family: Helvetica, Helvetica; font-size: 15px;"
    text-anchor="middle"></text>
  <g>
    <path
      d="M85.79,13.19v-3.14s.01-.05.04-.05h.64c.21,0,.38.08.51.23.13.16.19.36.19.63v1.51c0,.26-.06.47-.19.63-.13.16-.3.23-.51.23h-.64s-.04-.02-.04-.05M86.1,12.95h.37c.12,0,.22-.06.29-.16.07-.1.11-.25.11-.42v-1.49c0-.18-.04-.32-.11-.43-.07-.1-.17-.16-.3-.16h-.37s-.02,0-.02.02v2.62s0,.02.02.02"
      style="fill: #fff;" />
    <path d="M87.6,13.19v-3.14s.01-.05.04-.05h.21s.04.02.04.05v3.14s-.02.05-.04.05h-.21s-.04-.02-.04-.05"
      style="fill: #fff;" />
    <path
      d="M89.64,10.29h-.96s-.02,0-.02.02v1.15s0,.02.02.02h.6s.04.02.04.05v.2s-.02.05-.04.05h-.6s-.02,0-.02.02v1.41s-.01.05-.04.05h-.21s-.04-.02-.04-.05v-3.14s.01-.05.04-.05h1.23s.04.02.04.05v.19s-.01.05-.04.05"
      style="fill: #fff;" />
    <path
      d="M91.2,10.29h-.96s-.02,0-.02.02v1.15s0,.02.02.02h.6s.04.02.04.05v.2s-.02.05-.04.05h-.6s-.02,0-.02.02v1.41s-.01.05-.04.05h-.21s-.04-.02-.04-.05v-3.14s.01-.05.04-.05h1.23s.04.02.04.05v.19s-.01.05-.04.05"
      style="fill: #fff;" />
    <path
      d="M92.77,10.29h-.96s-.02,0-.02.02v1.15s0,.02.02.02h.61s.04.02.04.05v.2s-.01.05-.04.05h-.61s-.02,0-.02.02v1.15s0,.02.02.02h.96s.04.02.04.05v.19s-.01.05-.04.05h-1.24s-.04-.02-.04-.05v-3.14s.01-.05.04-.05h1.24s.04.02.04.05v.19s-.01.05-.04.05"
      style="fill: #fff;" />
    <path
      d="M94.27,13.2l-.43-1.44s0-.01-.02-.01h-.36s-.02,0-.02.02v1.42s-.01.05-.04.05h-.21s-.04-.02-.04-.05v-3.14s.01-.05.04-.05h.68c.2,0,.37.08.49.24.12.16.19.38.19.64,0,.2-.04.38-.12.52-.08.14-.18.24-.32.3-.01,0-.01.01-.01.02l.45,1.45v.02s0,.03-.03.03h-.22s-.04-.01-.05-.04M93.45,10.3v1.16s0,.02.02.02h.37c.13,0,.23-.05.31-.16.08-.11.12-.25.12-.43s-.04-.33-.12-.44c-.08-.11-.18-.16-.31-.16h-.37s-.02,0-.02.02"
      style="fill: #fff;" />
    <path
      d="M96.15,10.29h-.96s-.02,0-.02.02v1.15s0,.02.02.02h.61s.04.02.04.05v.2s-.01.05-.04.05h-.61s-.02,0-.02.02v1.15s0,.02.02.02h.96s.04.02.04.05v.19s-.01.05-.04.05h-1.23s-.04-.02-.04-.05v-3.14s.01-.05.04-.05h1.23s.04.02.04.05v.19s-.01.05-.04.05"
      style="fill: #fff;" />
    <path
      d="M96.53,13.19v-3.14s.01-.05.04-.05h.22s.04.01.05.04l.84,2.33s0,.01.01.01c0,0,0,0,0-.01v-2.32s.01-.05.04-.05h.21s.04.02.04.05v3.14s-.01.05-.04.05h-.22s-.04-.01-.05-.04l-.83-2.33s0-.01-.01-.01c0,0,0,0,0,.01v2.31s-.01.05-.04.05h-.21s-.04-.02-.04-.05"
      style="fill: #fff;" />
    <path
      d="M98.3,13.19v-.21s0-.03.01-.06l1.01-2.61s0-.01,0-.02c0,0,0,0-.01,0h-.97s-.04-.02-.04-.05v-.19s.01-.05.04-.05h1.26s.04.02.04.05v.21s0,.03-.01.05l-1.01,2.61s0,.01,0,.02c0,0,0,0,.01,0h.96s.04.02.04.05v.19s-.01.05-.04.05h-1.26s-.04-.02-.04-.05"
      style="fill: #fff;" />
    <path d="M99.98,13.19v-3.14s.01-.05.04-.05h.21s.04.02.04.05v3.14s-.01.05-.04.05h-.21s-.04-.02-.04-.05"
      style="fill: #fff;" />
    <path
      d="M101.9,13.19l-.1-.57s0-.01,0-.01c0,0,0,0-.02,0h-.75s0,0-.01,0c0,0,0,0,0,.01l-.11.57s-.02.04-.05.04h-.21s-.02,0-.03-.02c0,0,0-.02,0-.04l.63-3.14s.02-.04.05-.04h.25s.04.01.05.04l.63,3.14h0s-.01.05-.04.05h-.22s-.04-.02-.05-.04M101.07,12.33h.65s.01,0,.01-.02l-.33-1.78s0-.01,0-.01c0,0,0,0,0,.01l-.33,1.78s0,.02.01.02"
      style="fill: #fff;" />
    <path d="M103.24,13.19v-3.14s.01-.05.04-.05h.21s.04.02.04.05v3.14s-.02.05-.04.05h-.21s-.04-.02-.04-.05"
      style="fill: #fff;" />
    <path
      d="M105.83,13.2l-.43-1.44s0-.01-.02-.01h-.36s-.02,0-.02.02v1.42s-.01.05-.04.05h-.21s-.04-.02-.04-.05v-3.14s.01-.05.04-.05h.68c.2,0,.37.08.49.24.12.16.19.38.19.64,0,.2-.04.38-.12.52-.08.14-.18.24-.32.3-.01,0-.02.01-.01.02l.45,1.45v.02s0,.03-.03.03h-.22s-.04-.01-.05-.04M105.01,10.3v1.16s0,.02.02.02h.37c.13,0,.23-.05.31-.16.08-.11.12-.25.12-.43s-.04-.33-.12-.44c-.08-.11-.18-.16-.31-.16h-.37s-.02,0-.02.02"
      style="fill: #fff;" />
    <path d="M106.44,13.19v-3.14s.01-.05.04-.05h.21s.04.02.04.05v3.14s-.01.05-.04.05h-.21s-.04-.02-.04-.05"
      style="fill: #fff;" />
    <path
      d="M108.48,10.29h-.95s-.02,0-.02.02v1.15s0,.02.02.02h.6s.04.02.04.05v.2s-.01.05-.04.05h-.6s-.02,0-.02.02v1.41s-.01.05-.04.05h-.21s-.04-.02-.04-.05v-3.14s.01-.05.04-.05h1.23s.04.02.04.05v.19s-.01.05-.04.05"
      style="fill: #fff;" />
    <path d="M108.77,13.19v-3.14s.01-.05.04-.05h.21s.04.02.04.05v3.14s-.01.05-.04.05h-.21s-.04-.02-.04-.05"
      style="fill: #fff;" />
    <path
      d="M109.71,13.03c-.13-.16-.2-.38-.2-.65v-2.33s.01-.05.04-.05h.21s.04.01.04.05v2.37c0,.17.04.31.11.41.08.1.18.16.3.16s.23-.05.31-.16c.08-.1.12-.24.12-.41v-2.37s.01-.05.04-.05h.21s.04.01.04.05v2.33c0,.27-.07.48-.2.65-.13.16-.31.24-.52.24s-.39-.08-.52-.24"
      style="fill: #fff;" />
    <path
      d="M112.72,10.05v.19s-.01.05-.04.05h-.55s-.02,0-.02.02v2.88s-.01.05-.04.05h-.21s-.04-.02-.04-.05v-2.88s0-.02-.02-.02h-.52s-.04-.01-.04-.05v-.19s.01-.05.04-.05h1.39s.04.01.04.05"
      style="fill: #fff;" />
    <path d="M113.04,13.19v-3.14s.01-.05.04-.05h.21s.04.02.04.05v3.14s-.01.05-.04.05h-.21s-.04-.02-.04-.05"
      style="fill: #fff;" />
    <path
      d="M85.58,48.66c-.13-.15-.19-.35-.19-.59v-.11s.01-.05.04-.05h.21s.04.02.04.05v.1c0,.16.04.3.11.4s.17.15.29.15.21-.05.29-.14c.08-.1.12-.22.12-.38,0-.1-.02-.19-.06-.27-.04-.08-.09-.14-.15-.2-.06-.06-.16-.14-.3-.26-.14-.11-.25-.21-.33-.29-.08-.08-.15-.18-.2-.29-.05-.11-.08-.25-.08-.4,0-.24.06-.43.19-.57.12-.14.29-.21.49-.21.21,0,.38.08.51.23.12.15.19.35.19.61v.12s-.01.05-.04.05h-.21s-.04-.02-.04-.05v-.12c0-.16-.04-.29-.11-.39-.07-.1-.17-.15-.29-.15-.11,0-.2.04-.27.13-.07.09-.11.21-.11.37,0,.1.02.18.05.25.03.07.08.14.14.2.06.07.16.15.28.25.17.14.29.25.37.33.08.09.15.18.19.28.04.1.07.22.07.36,0,.25-.07.45-.2.61-.13.15-.3.23-.5.23s-.37-.08-.5-.23"
      style="fill: #fff;" />
    <path
      d="M88.38,45.9h-.96s-.02,0-.02.02v1.15s0,.02.02.02h.61s.04.02.04.05v.2s-.01.05-.04.05h-.61s-.02,0-.02.02v1.15s0,.02.02.02h.96s.04.02.04.05v.19s-.01.05-.04.05h-1.23s-.04-.02-.04-.05v-3.14s.01-.05.04-.05h1.23s.04.02.04.05v.19s-.01.05-.04.05"
      style="fill: #fff;" />
    <path
      d="M89.98,45.86c.12.16.19.38.19.65s-.06.48-.18.64c-.12.16-.28.24-.48.24h-.43s-.02,0-.02.02v1.39s-.02.05-.04.05h-.21s-.04-.02-.04-.05v-3.14s.01-.05.04-.05h.69c.2,0,.37.08.49.25M89.75,46.95c.08-.11.12-.26.12-.44s-.04-.33-.12-.45c-.08-.11-.18-.17-.3-.17h-.38s-.02,0-.02.02v1.19s0,.02.02.02h.38c.12,0,.23-.06.3-.17"
      style="fill: #fff;" />
    <path
      d="M91.51,48.8l-.1-.57s0-.01,0-.01c0,0,0,0-.02,0h-.75s0,0-.01,0c0,0,0,0,0,.01l-.11.57s-.02.04-.05.04h-.21s-.02,0-.03-.02c0,0,0-.02,0-.04l.63-3.14s.02-.04.05-.04h.25s.04.01.05.04l.63,3.14h0s-.01.05-.04.05h-.22s-.04-.02-.05-.04M90.69,47.95h.65s.01,0,.01-.02l-.33-1.78s0-.01,0-.01c0,0,0,0,0,.01l-.33,1.78s0,.02.01.02"
      style="fill: #fff;" />
    <path
      d="M93.25,48.81l-.43-1.44s0-.01-.02-.01h-.36s-.02,0-.02.02v1.42s-.01.05-.04.05h-.21s-.04-.02-.04-.05v-3.14s.01-.05.04-.05h.68c.2,0,.36.08.49.24.12.16.19.38.19.64,0,.2-.04.38-.12.52-.08.14-.18.24-.32.3-.01,0-.02.01-.01.02l.45,1.45v.02s0,.03-.03.03h-.22s-.04-.01-.05-.04M92.43,45.91v1.16s0,.02.02.02h.38c.13,0,.23-.05.31-.16.08-.11.12-.25.12-.43s-.04-.33-.12-.44c-.08-.11-.18-.16-.31-.16h-.38s-.02,0-.02.02"
      style="fill: #fff;" />
    <path
      d="M95.05,48.8l-.1-.57s0-.01,0-.01c0,0,0,0-.01,0h-.75s-.01,0-.01,0c0,0,0,0,0,.01l-.11.57s-.02.04-.05.04h-.21s-.03,0-.03-.02c0,0,0-.02,0-.04l.63-3.14s.02-.04.05-.04h.25s.04.01.05.04l.63,3.14h0s-.01.05-.04.05h-.22s-.04-.02-.05-.04M94.23,47.95h.65s.01,0,.01-.02l-.33-1.78s0-.01,0-.01c0,0,0,0,0,.01l-.33,1.78s0,.02.01.02"
      style="fill: #fff;" />
    <path
      d="M96.74,45.66v.19s-.01.05-.04.05h-.55s-.02,0-.02.02v2.88s-.01.05-.04.05h-.21s-.04-.02-.04-.05v-2.88s0-.02-.02-.02h-.52s-.04-.02-.04-.05v-.19s.01-.05.04-.05h1.39s.04.02.04.05"
      style="fill: #fff;" />
    <path
      d="M98.33,45.9h-.96s-.02,0-.02.02v1.15s0,.02.02.02h.61s.04.02.04.05v.2s-.01.05-.04.05h-.61s-.02,0-.02.02v1.15s0,.02.02.02h.96s.04.02.04.05v.19s-.01.05-.04.05h-1.23s-.04-.02-.04-.05v-3.14s.01-.05.04-.05h1.23s.04.02.04.05v.19s-.01.05-.04.05"
      style="fill: #fff;" />
    <path
      d="M100.75,45.66v.19s-.01.05-.04.05h-.55s-.02,0-.02.02v2.88s-.01.05-.04.05h-.21s-.04-.02-.04-.05v-2.88s0-.02-.02-.02h-.52s-.04-.02-.04-.05v-.19s.01-.05.04-.05h1.39s.04.02.04.05"
      style="fill: #fff;" />
    <path
      d="M102.18,45.61h.21s.04.02.04.05v3.14s-.01.05-.04.05h-.21s-.04-.02-.04-.05v-1.41s0-.02-.02-.02h-.74s-.02,0-.02.02v1.41s-.01.05-.04.05h-.21s-.04-.02-.04-.05v-3.14s.01-.05.04-.05h.21s.04.02.04.05v1.4s0,.02.02.02h.74s.02,0,.02-.02v-1.4s.01-.05.04-.05"
      style="fill: #fff;" />
    <path
      d="M104.15,45.9h-.96s-.02,0-.02.02v1.15s0,.02.02.02h.61s.04.02.04.05v.2s-.01.05-.04.05h-.61s-.02,0-.02.02v1.15s0,.02.02.02h.96s.04.02.04.05v.19s-.01.05-.04.05h-1.23s-.04-.02-.04-.05v-3.14s.01-.05.04-.05h1.23s.04.02.04.05v.19s-.01.05-.04.05"
      style="fill: #fff;" />
    <path
      d="M105.62,48.8l-.55-3.14h0s.01-.05.04-.05h.22s.04.01.05.04l.39,2.43s0,0,0,0,0,0,0,0l.34-2.43s.02-.04.04-.04h.19s.04.01.04.04l.35,2.43s0,0,0,0c0,0,0,0,0,0l.36-2.43s.02-.04.04-.04h.22s.02,0,.03.01c0,0,0,.02,0,.04l-.51,3.14s-.02.04-.05.04h-.2s-.04-.02-.04-.04l-.35-2.44s0,0-.01,0c0,0,0,0,0,0l-.34,2.44s-.02.04-.04.04h-.2s-.04-.02-.05-.04"
      style="fill: #fff;" />
    <path
      d="M108.65,48.8l-.1-.57s0-.01,0-.01c0,0,0,0-.01,0h-.75s-.01,0-.02,0c0,0,0,0,0,.01l-.11.57s-.02.04-.05.04h-.21s-.03,0-.03-.02c0,0,0-.02,0-.04l.63-3.14s.02-.04.05-.04h.25s.04.01.04.04l.63,3.14h0s-.01.05-.04.05h-.22s-.04-.02-.05-.04M107.83,47.95h.65s.01,0,.01-.02l-.33-1.78s0-.01,0-.01c0,0,0,0,0,.01l-.33,1.78s0,.02.01.02"
      style="fill: #fff;" />
    <path
      d="M109.29,48.66c-.13-.15-.19-.35-.19-.59v-.11s.01-.05.04-.05h.21s.04.02.04.05v.1c0,.16.04.3.11.4s.17.15.29.15.21-.05.29-.14c.08-.1.12-.22.12-.38,0-.1-.02-.19-.06-.27-.04-.08-.09-.14-.15-.2-.06-.06-.16-.14-.3-.26-.14-.11-.25-.21-.33-.29-.08-.08-.15-.18-.2-.29-.05-.11-.08-.25-.08-.4,0-.24.06-.43.19-.57.12-.14.29-.21.49-.21.21,0,.38.08.51.23s.19.35.19.61v.12s-.01.05-.04.05h-.21s-.04-.02-.04-.05v-.12c0-.16-.04-.29-.11-.39s-.17-.15-.29-.15c-.11,0-.2.04-.27.13-.07.09-.11.21-.11.37,0,.1.02.18.05.25.03.07.08.14.14.2.06.07.16.15.28.25.17.14.29.25.37.33.08.09.15.18.19.28.04.1.07.22.07.36,0,.25-.07.45-.19.61-.13.15-.3.23-.5.23s-.37-.08-.5-.23"
      style="fill: #fff;" />
    <path
      d="M112.1,45.66v.19s-.01.05-.04.05h-.55s-.02,0-.02.02v2.88s-.01.05-.04.05h-.21s-.04-.02-.04-.05v-2.88s0-.02-.02-.02h-.52s-.04-.02-.04-.05v-.19s.01-.05.04-.05h1.39s.04.02.04.05"
      style="fill: #fff;" />
    <path
      d="M113.69,45.9h-.96s-.02,0-.02.02v1.15s0,.02.02.02h.61s.04.02.04.05v.2s-.01.05-.04.05h-.61s-.02,0-.02.02v1.15s0,.02.02.02h.96s.04.02.04.05v.19s-.02.05-.04.05h-1.23s-.04-.02-.04-.05v-3.14s.01-.05.04-.05h1.23s.04.02.04.05v.19s-.02.05-.04.05"
      style="fill: #fff;" />
    <rect x="85.39" y="14.87" width="28.35" height="28.35" style="fill: #fff;" />
    <path
      d="M90.54,14.87h.86v.86h-.86v-.86ZM89.68,14.87h.86v.86h-.86v-.86ZM88.82,14.87h.86v.86h-.86v-.86ZM87.96,14.87h.86v.86h-.86v-.86ZM87.1,14.87h.86v.86h-.86v-.86ZM86.25,14.87h.86v.86h-.86v-.86ZM85.39,14.87h.86v.86h-.86v-.86Z"
      style="fill: #020203;" />
    <rect x="91.4" y="14.87" width=".86" height=".86" style="fill: #fff;" />
    <rect x="92.26" y="14.87" width=".86" height=".86" style="fill: #020203;" />
    <rect x="93.12" y="14.87" width=".86" height=".86" style="fill: #fff;" />
    <rect x="93.98" y="14.87" width=".86" height=".86" style="fill: #020203;" />
    <rect x="94.84" y="14.87" width=".86" height=".86" style="fill: #fff;" />
    <rect x="95.7" y="14.87" width=".86" height=".86" style="fill: #020203;" />
    <rect x="96.55" y="14.87" width=".86" height=".86" style="fill: #fff;" />
    <rect x="97.41" y="14.87" width=".86" height=".86" style="fill: #020203;" />
    <path d="M99.13,14.87h.86v.86h-.86v-.86ZM98.27,14.87h.86v.86h-.86v-.86Z" style="fill: #fff;" />
    <path d="M101.71,14.87h.86v.86h-.86v-.86ZM100.85,14.87h.86v.86h-.86v-.86ZM99.99,14.87h.86v.86h-.86v-.86Z"
      style="fill: #020203;" />
    <rect x="102.57" y="14.87" width=".86" height=".86" style="fill: #fff;" />
    <rect x="103.43" y="14.87" width=".86" height=".86" style="fill: #020203;" />
    <rect x="104.28" y="14.87" width=".86" height=".86" style="fill: #fff;" />
    <path d="M106,14.87h.86v.86h-.86v-.86ZM105.14,14.87h.86v.86h-.86v-.86Z" style="fill: #020203;" />
    <rect x="106.86" y="14.87" width=".86" height=".86" style="fill: #fff;" />
    <path
      d="M85.39,15.73h.86v.86h-.86v-.86ZM112.88,14.87h.86v.86h-.86v-.86ZM112.02,14.87h.86v.86h-.86v-.86ZM111.16,14.87h.86v.86h-.86v-.86ZM110.3,14.87h.86v.86h-.86v-.86ZM109.44,14.87h.86v.86h-.86v-.86ZM108.58,14.87h.86v.86h-.86v-.86ZM107.72,14.87h.86v.86h-.86v-.86Z"
      style="fill: #020203;" />
    <path
      d="M89.68,15.73h.86v.86h-.86v-.86ZM88.82,15.73h.86v.86h-.86v-.86ZM87.96,15.73h.86v.86h-.86v-.86ZM87.1,15.73h.86v.86h-.86v-.86ZM86.25,15.73h.86v.86h-.86v-.86Z"
      style="fill: #fff;" />
    <rect x="90.54" y="15.73" width=".86" height=".86" style="fill: #020203;" />
    <rect x="91.4" y="15.73" width=".86" height=".86" style="fill: #fff;" />
    <rect x="92.26" y="15.73" width=".86" height=".86" style="fill: #020203;" />
    <rect x="93.12" y="15.73" width=".86" height=".86" style="fill: #fff;" />
    <path d="M94.84,15.73h.86v.86h-.86v-.86ZM93.98,15.73h.86v.86h-.86v-.86Z" style="fill: #020203;" />
    <path d="M97.41,15.73h.86v.86h-.86v-.86ZM96.55,15.73h.86v.86h-.86v-.86ZM95.7,15.73h.86v.86h-.86v-.86Z"
      style="fill: #fff;" />
    <path d="M99.99,15.73h.86v.86h-.86v-.86ZM99.13,15.73h.86v.86h-.86v-.86ZM98.27,15.73h.86v.86h-.86v-.86Z"
      style="fill: #020203;" />
    <rect x="100.85" y="15.73" width=".86" height=".86" style="fill: #fff;" />
    <rect x="101.71" y="15.73" width=".86" height=".86" style="fill: #020203;" />
    <path
      d="M105.14,15.73h.86v.86h-.86v-.86ZM104.28,15.73h.86v.86h-.86v-.86ZM103.43,15.73h.86v.86h-.86v-.86ZM102.57,15.73h.86v.86h-.86v-.86Z"
      style="fill: #fff;" />
    <rect x="106" y="15.73" width=".86" height=".86" style="fill: #020203;" />
    <rect x="106.86" y="15.73" width=".86" height=".86" style="fill: #fff;" />
    <rect x="107.72" y="15.73" width=".86" height=".86" style="fill: #020203;" />
    <path
      d="M112.02,15.73h.86v.86h-.86v-.86ZM111.16,15.73h.86v.86h-.86v-.86ZM110.3,15.73h.86v.86h-.86v-.86ZM109.44,15.73h.86v.86h-.86v-.86ZM108.58,15.73h.86v.86h-.86v-.86Z"
      style="fill: #fff;" />
    <path d="M85.39,16.59h.86v.86h-.86v-.86ZM112.88,15.73h.86v.86h-.86v-.86Z" style="fill: #020203;" />
    <rect x="86.25" y="16.59" width=".86" height=".86" style="fill: #fff;" />
    <path d="M88.82,16.59h.86v.86h-.86v-.86ZM87.96,16.59h.86v.86h-.86v-.86ZM87.1,16.59h.86v.86h-.86v-.86Z"
      style="fill: #020203;" />
    <rect x="89.68" y="16.59" width=".86" height=".86" style="fill: #fff;" />
    <rect x="90.54" y="16.59" width=".86" height=".86" style="fill: #020203;" />
    <rect x="91.4" y="16.59" width=".86" height=".86" style="fill: #fff;" />
    <rect x="92.26" y="16.59" width=".86" height=".86" style="fill: #020203;" />
    <rect x="93.12" y="16.59" width=".86" height=".86" style="fill: #fff;" />
    <rect x="93.98" y="16.59" width=".86" height=".86" style="fill: #020203;" />
    <rect x="94.84" y="16.59" width=".86" height=".86" style="fill: #fff;" />
    <path d="M97.41,16.59h.86v.86h-.86v-.86ZM96.55,16.59h.86v.86h-.86v-.86ZM95.7,16.59h.86v.86h-.86v-.86Z"
      style="fill: #020203;" />
    <path d="M99.13,16.59h.86v.86h-.86v-.86ZM98.27,16.59h.86v.86h-.86v-.86Z" style="fill: #fff;" />
    <rect x="99.99" y="16.59" width=".86" height=".86" style="fill: #020203;" />
    <path d="M101.71,16.59h.86v.86h-.86v-.86ZM100.85,16.59h.86v.86h-.86v-.86Z" style="fill: #fff;" />
    <path
      d="M106,16.59h.86v.86h-.86v-.86ZM105.14,16.59h.86v.86h-.86v-.86ZM104.28,16.59h.86v.86h-.86v-.86ZM103.43,16.59h.86v.86h-.86v-.86ZM102.57,16.59h.86v.86h-.86v-.86Z"
      style="fill: #020203;" />
    <rect x="106.86" y="16.59" width=".86" height=".86" style="fill: #fff;" />
    <rect x="107.72" y="16.59" width=".86" height=".86" style="fill: #020203;" />
    <rect x="108.58" y="16.59" width=".86" height=".86" style="fill: #fff;" />
    <path d="M111.16,16.59h.86v.86h-.86v-.86ZM110.3,16.59h.86v.86h-.86v-.86ZM109.44,16.59h.86v.86h-.86v-.86Z"
      style="fill: #020203;" />
    <rect x="112.02" y="16.59" width=".86" height=".86" style="fill: #fff;" />
    <path d="M85.39,17.44h.86v.86h-.86v-.86ZM112.88,16.59h.86v.86h-.86v-.86Z" style="fill: #020203;" />
    <rect x="86.25" y="17.44" width=".86" height=".86" style="fill: #fff;" />
    <path d="M88.82,17.44h.86v.86h-.86v-.86ZM87.96,17.44h.86v.86h-.86v-.86ZM87.1,17.44h.86v.86h-.86v-.86Z"
      style="fill: #020203;" />
    <rect x="89.68" y="17.44" width=".86" height=".86" style="fill: #fff;" />
    <rect x="90.54" y="17.44" width=".86" height=".86" style="fill: #020203;" />
    <path d="M92.26,17.44h.86v.86h-.86v-.86ZM91.4,17.44h.86v.86h-.86v-.86Z" style="fill: #fff;" />
    <rect x="93.12" y="17.44" width=".86" height=".86" style="fill: #020203;" />
    <path d="M94.84,17.44h.86v.86h-.86v-.86ZM93.98,17.44h.86v.86h-.86v-.86Z" style="fill: #fff;" />
    <path d="M97.41,17.44h.86v.86h-.86v-.86ZM96.55,17.44h.86v.86h-.86v-.86ZM95.7,17.44h.86v.86h-.86v-.86Z"
      style="fill: #020203;" />
    <rect x="98.27" y="17.44" width=".86" height=".86" style="fill: #fff;" />
    <rect x="99.13" y="17.44" width=".86" height=".86" style="fill: #020203;" />
    <rect x="99.99" y="17.44" width=".86" height=".86" style="fill: #fff;" />
    <path d="M101.71,17.44h.86v.86h-.86v-.86ZM100.85,17.44h.86v.86h-.86v-.86Z" style="fill: #020203;" />
    <path d="M103.43,17.44h.86v.86h-.86v-.86ZM102.57,17.44h.86v.86h-.86v-.86Z" style="fill: #fff;" />
    <path d="M106,17.44h.86v.86h-.86v-.86ZM105.14,17.44h.86v.86h-.86v-.86ZM104.28,17.44h.86v.86h-.86v-.86Z"
      style="fill: #020203;" />
    <rect x="106.86" y="17.44" width=".86" height=".86" style="fill: #fff;" />
    <rect x="107.72" y="17.44" width=".86" height=".86" style="fill: #020203;" />
    <rect x="108.58" y="17.44" width=".86" height=".86" style="fill: #fff;" />
    <path d="M111.16,17.44h.86v.86h-.86v-.86ZM110.3,17.44h.86v.86h-.86v-.86ZM109.44,17.44h.86v.86h-.86v-.86Z"
      style="fill: #020203;" />
    <rect x="112.02" y="17.44" width=".86" height=".86" style="fill: #fff;" />
    <path d="M85.39,18.3h.86v.86h-.86v-.86ZM112.88,17.44h.86v.86h-.86v-.86Z" style="fill: #020203;" />
    <rect x="86.25" y="18.3" width=".86" height=".86" style="fill: #fff;" />
    <path d="M88.82,18.3h.86v.86h-.86v-.86ZM87.96,18.3h.86v.86h-.86v-.86ZM87.1,18.3h.86v.86h-.86v-.86Z"
      style="fill: #020203;" />
    <rect x="89.68" y="18.3" width=".86" height=".86" style="fill: #fff;" />
    <rect x="90.54" y="18.3" width=".86" height=".86" style="fill: #020203;" />
    <path d="M92.26,18.3h.86v.86h-.86v-.86ZM91.4,18.3h.86v.86h-.86v-.86Z" style="fill: #fff;" />
    <rect x="93.12" y="18.3" width=".86" height=".86" style="fill: #020203;" />
    <rect x="93.98" y="18.3" width=".86" height=".86" style="fill: #fff;" />
    <rect x="94.84" y="18.3" width=".86" height=".86" style="fill: #020203;" />
    <path d="M96.55,18.3h.86v.86h-.86v-.86ZM95.7,18.3h.86v.86h-.86v-.86Z" style="fill: #fff;" />
    <path
      d="M99.99,18.3h.86v.86h-.86v-.86ZM99.13,18.3h.86v.86h-.86v-.86ZM98.27,18.3h.86v.86h-.86v-.86ZM97.41,18.3h.86v.86h-.86v-.86Z"
      style="fill: #020203;" />
    <path d="M101.71,18.3h.86v.86h-.86v-.86ZM100.85,18.3h.86v.86h-.86v-.86Z" style="fill: #fff;" />
    <rect x="102.57" y="18.3" width=".86" height=".86" style="fill: #020203;" />
    <rect x="103.43" y="18.3" width=".86" height=".86" style="fill: #fff;" />
    <path d="M105.14,18.3h.86v.86h-.86v-.86ZM104.28,18.3h.86v.86h-.86v-.86Z" style="fill: #020203;" />
    <path d="M106.86,18.3h.86v.86h-.86v-.86ZM106,18.3h.86v.86h-.86v-.86Z" style="fill: #fff;" />
    <rect x="107.72" y="18.3" width=".86" height=".86" style="fill: #020203;" />
    <rect x="108.58" y="18.3" width=".86" height=".86" style="fill: #fff;" />
    <path d="M111.16,18.3h.86v.86h-.86v-.86ZM110.3,18.3h.86v.86h-.86v-.86ZM109.44,18.3h.86v.86h-.86v-.86Z"
      style="fill: #020203;" />
    <rect x="112.02" y="18.3" width=".86" height=".86" style="fill: #fff;" />
    <path d="M85.39,19.16h.86v.86h-.86v-.86ZM112.88,18.3h.86v.86h-.86v-.86Z" style="fill: #020203;" />
    <path
      d="M89.68,19.16h.86v.86h-.86v-.86ZM88.82,19.16h.86v.86h-.86v-.86ZM87.96,19.16h.86v.86h-.86v-.86ZM87.1,19.16h.86v.86h-.86v-.86ZM86.25,19.16h.86v.86h-.86v-.86Z"
      style="fill: #fff;" />
    <rect x="90.54" y="19.16" width=".86" height=".86" style="fill: #020203;" />
    <rect x="91.4" y="19.16" width=".86" height=".86" style="fill: #fff;" />
    <rect x="92.26" y="19.16" width=".86" height=".86" style="fill: #020203;" />
    <path
      d="M95.7,19.16h.86v.86h-.86v-.86ZM94.84,19.16h.86v.86h-.86v-.86ZM93.98,19.16h.86v.86h-.86v-.86ZM93.12,19.16h.86v.86h-.86v-.86Z"
      style="fill: #fff;" />
    <rect x="96.55" y="19.16" width=".86" height=".86" style="fill: #020203;" />
    <path
      d="M99.99,19.16h.86v.86h-.86v-.86ZM99.13,19.16h.86v.86h-.86v-.86ZM98.27,19.16h.86v.86h-.86v-.86ZM97.41,19.16h.86v.86h-.86v-.86Z"
      style="fill: #fff;" />
    <path d="M102.57,19.16h.86v.86h-.86v-.86ZM101.71,19.16h.86v.86h-.86v-.86ZM100.85,19.16h.86v.86h-.86v-.86Z"
      style="fill: #020203;" />
    <rect x="103.43" y="19.16" width=".86" height=".86" style="fill: #fff;" />
    <rect x="104.28" y="19.16" width=".86" height=".86" style="fill: #020203;" />
    <rect x="105.14" y="19.16" width=".86" height=".86" style="fill: #fff;" />
    <rect x="106" y="19.16" width=".86" height=".86" style="fill: #020203;" />
    <rect x="106.86" y="19.16" width=".86" height=".86" style="fill: #fff;" />
    <rect x="107.72" y="19.16" width=".86" height=".86" style="fill: #020203;" />
    <path
      d="M112.02,19.16h.86v.86h-.86v-.86ZM111.16,19.16h.86v.86h-.86v-.86ZM110.3,19.16h.86v.86h-.86v-.86ZM109.44,19.16h.86v.86h-.86v-.86ZM108.58,19.16h.86v.86h-.86v-.86Z"
      style="fill: #fff;" />
    <path
      d="M90.54,20.02h.86v.86h-.86v-.86ZM89.68,20.02h.86v.86h-.86v-.86ZM88.82,20.02h.86v.86h-.86v-.86ZM87.96,20.02h.86v.86h-.86v-.86ZM87.1,20.02h.86v.86h-.86v-.86ZM86.25,20.02h.86v.86h-.86v-.86ZM85.39,20.02h.86v.86h-.86v-.86ZM112.88,19.16h.86v.86h-.86v-.86Z"
      style="fill: #020203;" />
    <rect x="91.4" y="20.02" width=".86" height=".86" style="fill: #fff;" />
    <rect x="92.26" y="20.02" width=".86" height=".86" style="fill: #020203;" />
    <rect x="93.12" y="20.02" width=".86" height=".86" style="fill: #fff;" />
    <rect x="93.98" y="20.02" width=".86" height=".86" style="fill: #020203;" />
    <rect x="94.84" y="20.02" width=".86" height=".86" style="fill: #fff;" />
    <rect x="95.7" y="20.02" width=".86" height=".86" style="fill: #020203;" />
    <rect x="96.55" y="20.02" width=".86" height=".86" style="fill: #fff;" />
    <rect x="97.41" y="20.02" width=".86" height=".86" style="fill: #020203;" />
    <rect x="98.27" y="20.02" width=".86" height=".86" style="fill: #fff;" />
    <rect x="99.13" y="20.02" width=".86" height=".86" style="fill: #020203;" />
    <rect x="99.99" y="20.02" width=".86" height=".86" style="fill: #fff;" />
    <rect x="100.85" y="20.02" width=".86" height=".86" style="fill: #020203;" />
    <rect x="101.71" y="20.02" width=".86" height=".86" style="fill: #fff;" />
    <rect x="102.57" y="20.02" width=".86" height=".86" style="fill: #020203;" />
    <rect x="103.43" y="20.02" width=".86" height=".86" style="fill: #fff;" />
    <rect x="104.28" y="20.02" width=".86" height=".86" style="fill: #020203;" />
    <rect x="105.14" y="20.02" width=".86" height=".86" style="fill: #fff;" />
    <rect x="106" y="20.02" width=".86" height=".86" style="fill: #020203;" />
    <rect x="106.86" y="20.02" width=".86" height=".86" style="fill: #fff;" />
    <path
      d="M112.88,20.02h.86v.86h-.86v-.86ZM112.02,20.02h.86v.86h-.86v-.86ZM111.16,20.02h.86v.86h-.86v-.86ZM110.3,20.02h.86v.86h-.86v-.86ZM109.44,20.02h.86v.86h-.86v-.86ZM108.58,20.02h.86v.86h-.86v-.86ZM107.72,20.02h.86v.86h-.86v-.86Z"
      style="fill: #020203;" />
    <path
      d="M91.4,20.88h.86v.86h-.86v-.86ZM90.54,20.88h.86v.86h-.86v-.86ZM89.68,20.88h.86v.86h-.86v-.86ZM88.82,20.88h.86v.86h-.86v-.86ZM87.96,20.88h.86v.86h-.86v-.86ZM87.1,20.88h.86v.86h-.86v-.86ZM86.25,20.88h.86v.86h-.86v-.86ZM85.39,20.88h.86v.86h-.86v-.86Z"
      style="fill: #fff;" />
    <rect x="92.26" y="20.88" width=".86" height=".86" style="fill: #020203;" />
    <rect x="93.12" y="20.88" width=".86" height=".86" style="fill: #fff;" />
    <path d="M94.84,20.88h.86v.86h-.86v-.86ZM93.98,20.88h.86v.86h-.86v-.86Z" style="fill: #020203;" />
    <rect x="95.7" y="20.88" width=".86" height=".86" style="fill: #fff;" />
    <path d="M98.27,20.88h.86v.86h-.86v-.86ZM97.41,20.88h.86v.86h-.86v-.86ZM96.55,20.88h.86v.86h-.86v-.86Z"
      style="fill: #020203;" />
    <path
      d="M101.71,20.88h.86v.86h-.86v-.86ZM100.85,20.88h.86v.86h-.86v-.86ZM99.99,20.88h.86v.86h-.86v-.86ZM99.13,20.88h.86v.86h-.86v-.86Z"
      style="fill: #fff;" />
    <path
      d="M105.14,20.88h.86v.86h-.86v-.86ZM104.28,20.88h.86v.86h-.86v-.86ZM103.43,20.88h.86v.86h-.86v-.86ZM102.57,20.88h.86v.86h-.86v-.86Z"
      style="fill: #020203;" />
    <path
      d="M86.25,21.74h.86v.86h-.86v-.86ZM85.39,21.74h.86v.86h-.86v-.86ZM112.88,20.88h.86v.86h-.86v-.86ZM112.02,20.88h.86v.86h-.86v-.86ZM111.16,20.88h.86v.86h-.86v-.86ZM110.3,20.88h.86v.86h-.86v-.86ZM109.44,20.88h.86v.86h-.86v-.86ZM108.58,20.88h.86v.86h-.86v-.86ZM107.72,20.88h.86v.86h-.86v-.86ZM106.86,20.88h.86v.86h-.86v-.86ZM106,20.88h.86v.86h-.86v-.86Z"
      style="fill: #fff;" />
    <path d="M88.82,21.74h.86v.86h-.86v-.86ZM87.96,21.74h.86v.86h-.86v-.86ZM87.1,21.74h.86v.86h-.86v-.86Z"
      style="fill: #020203;" />
    <rect x="89.68" y="21.74" width=".86" height=".86" style="fill: #fff;" />
    <rect x="90.54" y="21.74" width=".86" height=".86" style="fill: #020203;" />
    <rect x="91.4" y="21.74" width=".86" height=".86" style="fill: #fff;" />
    <path d="M93.12,21.74h.86v.86h-.86v-.86ZM92.26,21.74h.86v.86h-.86v-.86Z" style="fill: #020203;" />
    <rect x="93.98" y="21.74" width=".86" height=".86" style="fill: #fff;" />
    <rect x="94.84" y="21.74" width=".86" height=".86" style="fill: #020203;" />
    <path d="M96.55,21.74h.86v.86h-.86v-.86ZM95.7,21.74h.86v.86h-.86v-.86Z" style="fill: #fff;" />
    <path
      d="M99.99,21.74h.86v.86h-.86v-.86ZM99.13,21.74h.86v.86h-.86v-.86ZM98.27,21.74h.86v.86h-.86v-.86ZM97.41,21.74h.86v.86h-.86v-.86Z"
      style="fill: #020203;" />
    <path d="M101.71,21.74h.86v.86h-.86v-.86ZM100.85,21.74h.86v.86h-.86v-.86Z" style="fill: #fff;" />
    <rect x="102.57" y="21.74" width=".86" height=".86" style="fill: #020203;" />
    <rect x="103.43" y="21.74" width=".86" height=".86" style="fill: #fff;" />
    <path
      d="M108.58,21.74h.86v.86h-.86v-.86ZM107.72,21.74h.86v.86h-.86v-.86ZM106.86,21.74h.86v.86h-.86v-.86ZM106,21.74h.86v.86h-.86v-.86ZM105.14,21.74h.86v.86h-.86v-.86ZM104.28,21.74h.86v.86h-.86v-.86Z"
      style="fill: #020203;" />
    <path d="M110.3,21.74h.86v.86h-.86v-.86ZM109.44,21.74h.86v.86h-.86v-.86Z" style="fill: #fff;" />
    <path
      d="M86.25,22.6h.86v.86h-.86v-.86ZM85.39,22.6h.86v.86h-.86v-.86ZM112.88,21.74h.86v.86h-.86v-.86ZM112.02,21.74h.86v.86h-.86v-.86ZM111.16,21.74h.86v.86h-.86v-.86Z"
      style="fill: #020203;" />
    <rect x="87.1" y="22.6" width=".86" height=".86" style="fill: #fff;" />
    <path d="M88.82,22.6h.86v.86h-.86v-.86ZM87.96,22.6h.86v.86h-.86v-.86Z" style="fill: #020203;" />
    <path d="M90.54,22.6h.86v.86h-.86v-.86ZM89.68,22.6h.86v.86h-.86v-.86Z" style="fill: #fff;" />
    <path d="M93.12,22.6h.86v.86h-.86v-.86ZM92.26,22.6h.86v.86h-.86v-.86ZM91.4,22.6h.86v.86h-.86v-.86Z"
      style="fill: #020203;" />
    <rect x="93.98" y="22.6" width=".86" height=".86" style="fill: #fff;" />
    <rect x="94.84" y="22.6" width=".86" height=".86" style="fill: #020203;" />
    <path d="M96.55,22.6h.86v.86h-.86v-.86ZM95.7,22.6h.86v.86h-.86v-.86Z" style="fill: #fff;" />
    <rect x="97.41" y="22.6" width=".86" height=".86" style="fill: #020203;" />
    <path d="M99.99,22.6h.86v.86h-.86v-.86ZM99.13,22.6h.86v.86h-.86v-.86ZM98.27,22.6h.86v.86h-.86v-.86Z"
      style="fill: #fff;" />
    <rect x="100.85" y="22.6" width=".86" height=".86" style="fill: #020203;" />
    <path d="M102.57,22.6h.86v.86h-.86v-.86ZM101.71,22.6h.86v.86h-.86v-.86Z" style="fill: #fff;" />
    <path
      d="M107.72,22.6h.86v.86h-.86v-.86ZM106.86,22.6h.86v.86h-.86v-.86ZM106,22.6h.86v.86h-.86v-.86ZM105.14,22.6h.86v.86h-.86v-.86ZM104.28,22.6h.86v.86h-.86v-.86ZM103.43,22.6h.86v.86h-.86v-.86Z"
      style="fill: #020203;" />
    <path d="M109.44,22.6h.86v.86h-.86v-.86ZM108.58,22.6h.86v.86h-.86v-.86Z" style="fill: #fff;" />
    <rect x="110.3" y="22.6" width=".86" height=".86" style="fill: #020203;" />
    <path d="M112.02,22.6h.86v.86h-.86v-.86ZM111.16,22.6h.86v.86h-.86v-.86Z" style="fill: #fff;" />
    <path
      d="M90.54,23.46h.86v.86h-.86v-.86ZM89.68,23.46h.86v.86h-.86v-.86ZM88.82,23.46h.86v.86h-.86v-.86ZM87.96,23.46h.86v.86h-.86v-.86ZM87.1,23.46h.86v.86h-.86v-.86ZM86.25,23.46h.86v.86h-.86v-.86ZM85.39,23.46h.86v.86h-.86v-.86ZM112.88,22.6h.86v.86h-.86v-.86Z"
      style="fill: #020203;" />
    <path
      d="M94.84,23.46h.86v.86h-.86v-.86ZM93.98,23.46h.86v.86h-.86v-.86ZM93.12,23.46h.86v.86h-.86v-.86ZM92.26,23.46h.86v.86h-.86v-.86ZM91.4,23.46h.86v.86h-.86v-.86Z"
      style="fill: #fff;" />
    <path d="M96.55,23.46h.86v.86h-.86v-.86ZM95.7,23.46h.86v.86h-.86v-.86Z" style="fill: #020203;" />
    <path d="M98.27,23.46h.86v.86h-.86v-.86ZM97.41,23.46h.86v.86h-.86v-.86Z" style="fill: #fff;" />
    <path
      d="M101.71,23.46h.86v.86h-.86v-.86ZM100.85,23.46h.86v.86h-.86v-.86ZM99.99,23.46h.86v.86h-.86v-.86ZM99.13,23.46h.86v.86h-.86v-.86Z"
      style="fill: #020203;" />
    <path d="M103.43,23.46h.86v.86h-.86v-.86ZM102.57,23.46h.86v.86h-.86v-.86Z" style="fill: #fff;" />
    <rect x="104.28" y="23.46" width=".86" height=".86" style="fill: #020203;" />
    <rect x="105.14" y="23.46" width=".86" height=".86" style="fill: #fff;" />
    <rect x="106" y="23.46" width=".86" height=".86" style="fill: #020203;" />
    <rect x="106.86" y="23.46" width=".86" height=".86" style="fill: #fff;" />
    <path d="M108.58,23.46h.86v.86h-.86v-.86ZM107.72,23.46h.86v.86h-.86v-.86Z" style="fill: #020203;" />
    <rect x="109.44" y="23.46" width=".86" height=".86" style="fill: #fff;" />
    <rect x="110.3" y="23.46" width=".86" height=".86" style="fill: #020203;" />
    <rect x="111.16" y="23.46" width=".86" height=".86" style="fill: #fff;" />
    <rect x="112.02" y="23.46" width=".86" height=".86" style="fill: #020203;" />
    <path d="M85.39,24.32h.86v.86h-.86v-.86ZM112.88,23.46h.86v.86h-.86v-.86Z" style="fill: #fff;" />
    <rect x="86.25" y="24.32" width=".86" height=".86" style="fill: #020203;" />
    <path d="M87.96,24.32h.86v.86h-.86v-.86ZM87.1,24.32h.86v.86h-.86v-.86Z" style="fill: #fff;" />
    <rect x="88.82" y="24.32" width=".86" height=".86" style="fill: #020203;" />
    <path d="M90.54,24.32h.86v.86h-.86v-.86ZM89.68,24.32h.86v.86h-.86v-.86Z" style="fill: #fff;" />
    <rect x="91.4" y="24.32" width=".86" height=".86" style="fill: #020203;" />
    <rect x="92.26" y="24.32" width=".86" height=".86" style="fill: #fff;" />
    <rect x="93.12" y="24.32" width=".86" height=".86" style="fill: #020203;" />
    <path d="M94.84,24.32h.86v.86h-.86v-.86ZM93.98,24.32h.86v.86h-.86v-.86Z" style="fill: #fff;" />
    <rect x="95.7" y="24.32" width=".86" height=".86" style="fill: #020203;" />
    <path d="M98.27,24.32h.86v.86h-.86v-.86ZM97.41,24.32h.86v.86h-.86v-.86ZM96.55,24.32h.86v.86h-.86v-.86Z"
      style="fill: #fff;" />
    <path d="M99.99,24.32h.86v.86h-.86v-.86ZM99.13,24.32h.86v.86h-.86v-.86Z" style="fill: #020203;" />
    <rect x="100.85" y="24.32" width=".86" height=".86" style="fill: #fff;" />
    <rect x="101.71" y="24.32" width=".86" height=".86" style="fill: #020203;" />
    <rect x="102.57" y="24.32" width=".86" height=".86" style="fill: #fff;" />
    <path d="M104.28,24.32h.86v.86h-.86v-.86ZM103.43,24.32h.86v.86h-.86v-.86Z" style="fill: #020203;" />
    <path d="M106,24.32h.86v.86h-.86v-.86ZM105.14,24.32h.86v.86h-.86v-.86Z" style="fill: #fff;" />
    <rect x="106.86" y="24.32" width=".86" height=".86" style="fill: #020203;" />
    <path d="M109.44,24.32h.86v.86h-.86v-.86ZM108.58,24.32h.86v.86h-.86v-.86ZM107.72,24.32h.86v.86h-.86v-.86Z"
      style="fill: #fff;" />
    <path d="M111.16,24.32h.86v.86h-.86v-.86ZM110.3,24.32h.86v.86h-.86v-.86Z" style="fill: #020203;" />
    <rect x="112.02" y="24.32" width=".86" height=".86" style="fill: #fff;" />
    <rect x="112.88" y="24.32" width=".86" height=".86" style="fill: #020203;" />
    <rect x="85.39" y="25.18" width=".86" height=".86" style="fill: #fff;" />
    <path d="M87.96,25.18h.86v.86h-.86v-.86ZM87.1,25.18h.86v.86h-.86v-.86ZM86.25,25.18h.86v.86h-.86v-.86Z"
      style="fill: #020203;" />
    <path d="M89.68,25.18h.86v.86h-.86v-.86ZM88.82,25.18h.86v.86h-.86v-.86Z" style="fill: #fff;" />
    <rect x="90.54" y="25.18" width=".86" height=".86" style="fill: #020203;" />
    <path d="M92.26,25.18h.86v.86h-.86v-.86ZM91.4,25.18h.86v.86h-.86v-.86Z" style="fill: #fff;" />
    <rect x="93.12" y="25.18" width=".86" height=".86" style="fill: #020203;" />
    <path d="M95.7,25.18h.86v.86h-.86v-.86ZM94.84,25.18h.86v.86h-.86v-.86ZM93.98,25.18h.86v.86h-.86v-.86Z"
      style="fill: #fff;" />
    <rect x="96.55" y="25.18" width=".86" height=".86" style="fill: #020203;" />
    <path d="M98.27,25.18h.86v.86h-.86v-.86ZM97.41,25.18h.86v.86h-.86v-.86Z" style="fill: #fff;" />
    <path d="M100.85,25.18h.86v.86h-.86v-.86ZM99.99,25.18h.86v.86h-.86v-.86ZM99.13,25.18h.86v.86h-.86v-.86Z"
      style="fill: #020203;" />
    <rect x="101.71" y="25.18" width=".86" height=".86" style="fill: #fff;" />
    <path d="M103.43,25.18h.86v.86h-.86v-.86ZM102.57,25.18h.86v.86h-.86v-.86Z" style="fill: #020203;" />
    <path d="M105.14,25.18h.86v.86h-.86v-.86ZM104.28,25.18h.86v.86h-.86v-.86Z" style="fill: #fff;" />
    <path d="M106.86,25.18h.86v.86h-.86v-.86ZM106,25.18h.86v.86h-.86v-.86Z" style="fill: #020203;" />
    <rect x="107.72" y="25.18" width=".86" height=".86" style="fill: #fff;" />
    <path d="M110.3,25.18h.86v.86h-.86v-.86ZM109.44,25.18h.86v.86h-.86v-.86ZM108.58,25.18h.86v.86h-.86v-.86Z"
      style="fill: #020203;" />
    <path d="M112.88,25.18h.86v.86h-.86v-.86ZM112.02,25.18h.86v.86h-.86v-.86ZM111.16,25.18h.86v.86h-.86v-.86Z"
      style="fill: #fff;" />
    <rect x="85.39" y="26.03" width=".86" height=".86" style="fill: #020203;" />
    <rect x="86.25" y="26.03" width=".86" height=".86" style="fill: #fff;" />
    <rect x="87.1" y="26.03" width=".86" height=".86" style="fill: #020203;" />
    <path d="M88.82,26.03h.86v.86h-.86v-.86ZM87.96,26.03h.86v.86h-.86v-.86Z" style="fill: #fff;" />
    <rect x="89.68" y="26.03" width=".86" height=".86" style="fill: #020203;" />
    <path d="M91.4,26.03h.86v.86h-.86v-.86ZM90.54,26.03h.86v.86h-.86v-.86Z" style="fill: #fff;" />
    <path
      d="M94.84,26.03h.86v.86h-.86v-.86ZM93.98,26.03h.86v.86h-.86v-.86ZM93.12,26.03h.86v.86h-.86v-.86ZM92.26,26.03h.86v.86h-.86v-.86Z"
      style="fill: #020203;" />
    <path d="M96.55,26.03h.86v.86h-.86v-.86ZM95.7,26.03h.86v.86h-.86v-.86Z" style="fill: #fff;" />
    <rect x="97.41" y="26.03" width=".86" height=".86" style="fill: #020203;" />
    <path
      d="M101.71,26.03h.86v.86h-.86v-.86ZM100.85,26.03h.86v.86h-.86v-.86ZM99.99,26.03h.86v.86h-.86v-.86ZM99.13,26.03h.86v.86h-.86v-.86ZM98.27,26.03h.86v.86h-.86v-.86Z"
      style="fill: #fff;" />
    <rect x="102.57" y="26.03" width=".86" height=".86" style="fill: #020203;" />
    <path d="M104.28,26.03h.86v.86h-.86v-.86ZM103.43,26.03h.86v.86h-.86v-.86Z" style="fill: #fff;" />
    <rect x="105.14" y="26.03" width=".86" height=".86" style="fill: #020203;" />
    <rect x="106" y="26.03" width=".86" height=".86" style="fill: #fff;" />
    <path d="M107.72,26.03h.86v.86h-.86v-.86ZM106.86,26.03h.86v.86h-.86v-.86Z" style="fill: #020203;" />
    <path d="M110.3,26.03h.86v.86h-.86v-.86ZM109.44,26.03h.86v.86h-.86v-.86ZM108.58,26.03h.86v.86h-.86v-.86Z"
      style="fill: #fff;" />
    <rect x="111.16" y="26.03" width=".86" height=".86" style="fill: #020203;" />
    <rect x="112.02" y="26.03" width=".86" height=".86" style="fill: #fff;" />
    <path d="M86.25,26.89h.86v.86h-.86v-.86ZM85.39,26.89h.86v.86h-.86v-.86ZM112.88,26.03h.86v.86h-.86v-.86Z"
      style="fill: #020203;" />
    <rect x="87.1" y="26.89" width=".86" height=".86" style="fill: #fff;" />
    <rect x="87.96" y="26.89" width=".86" height=".86" style="fill: #020203;" />
    <path d="M89.68,26.89h.86v.86h-.86v-.86ZM88.82,26.89h.86v.86h-.86v-.86Z" style="fill: #fff;" />
    <rect x="90.54" y="26.89" width=".86" height=".86" style="fill: #020203;" />
    <path d="M92.26,26.89h.86v.86h-.86v-.86ZM91.4,26.89h.86v.86h-.86v-.86Z" style="fill: #fff;" />
    <rect x="93.12" y="26.89" width=".86" height=".86" style="fill: #020203;" />
    <rect x="93.98" y="26.89" width=".86" height=".86" style="fill: #fff;" />
    <path
      d="M97.41,26.89h.86v.86h-.86v-.86ZM96.55,26.89h.86v.86h-.86v-.86ZM95.7,26.89h.86v.86h-.86v-.86ZM94.84,26.89h.86v.86h-.86v-.86Z"
      style="fill: #020203;" />
    <path d="M99.99,26.89h.86v.86h-.86v-.86ZM99.13,26.89h.86v.86h-.86v-.86ZM98.27,26.89h.86v.86h-.86v-.86Z"
      style="fill: #fff;" />
    <path d="M101.71,26.89h.86v.86h-.86v-.86ZM100.85,26.89h.86v.86h-.86v-.86Z" style="fill: #020203;" />
    <path d="M103.43,26.89h.86v.86h-.86v-.86ZM102.57,26.89h.86v.86h-.86v-.86Z" style="fill: #fff;" />
    <rect x="104.28" y="26.89" width=".86" height=".86" style="fill: #020203;" />
    <path d="M106,26.89h.86v.86h-.86v-.86ZM105.14,26.89h.86v.86h-.86v-.86Z" style="fill: #fff;" />
    <path d="M107.72,26.89h.86v.86h-.86v-.86ZM106.86,26.89h.86v.86h-.86v-.86Z" style="fill: #020203;" />
    <path d="M109.44,26.89h.86v.86h-.86v-.86ZM108.58,26.89h.86v.86h-.86v-.86Z" style="fill: #fff;" />
    <rect x="110.3" y="26.89" width=".86" height=".86" style="fill: #020203;" />
    <rect x="111.16" y="26.89" width=".86" height=".86" style="fill: #fff;" />
    <rect x="112.02" y="26.89" width=".86" height=".86" style="fill: #020203;" />
    <rect x="112.88" y="26.89" width=".86" height=".86" style="fill: #fff;" />
    <rect x="85.39" y="27.75" width=".86" height=".86" style="fill: #020203;" />
    <rect x="86.25" y="27.75" width=".86" height=".86" style="fill: #fff;" />
    <rect x="87.1" y="27.75" width=".86" height=".86" style="fill: #020203;" />
    <path d="M88.82,27.75h.86v.86h-.86v-.86ZM87.96,27.75h.86v.86h-.86v-.86Z" style="fill: #fff;" />
    <rect x="89.68" y="27.75" width=".86" height=".86" style="fill: #020203;" />
    <path d="M92.26,27.75h.86v.86h-.86v-.86ZM91.4,27.75h.86v.86h-.86v-.86ZM90.54,27.75h.86v.86h-.86v-.86Z"
      style="fill: #fff;" />
    <path
      d="M95.7,27.75h.86v.86h-.86v-.86ZM94.84,27.75h.86v.86h-.86v-.86ZM93.98,27.75h.86v.86h-.86v-.86ZM93.12,27.75h.86v.86h-.86v-.86Z"
      style="fill: #020203;" />
    <rect x="96.55" y="27.75" width=".86" height=".86" style="fill: #fff;" />
    <path d="M98.27,27.75h.86v.86h-.86v-.86ZM97.41,27.75h.86v.86h-.86v-.86Z" style="fill: #020203;" />
    <rect x="99.13" y="27.75" width=".86" height=".86" style="fill: #fff;" />
    <path d="M101.71,27.75h.86v.86h-.86v-.86ZM100.85,27.75h.86v.86h-.86v-.86ZM99.99,27.75h.86v.86h-.86v-.86Z"
      style="fill: #020203;" />
    <rect x="102.57" y="27.75" width=".86" height=".86" style="fill: #fff;" />
    <path d="M104.28,27.75h.86v.86h-.86v-.86ZM103.43,27.75h.86v.86h-.86v-.86Z" style="fill: #020203;" />
    <path d="M106.86,27.75h.86v.86h-.86v-.86ZM106,27.75h.86v.86h-.86v-.86ZM105.14,27.75h.86v.86h-.86v-.86Z"
      style="fill: #fff;" />
    <path d="M108.58,27.75h.86v.86h-.86v-.86ZM107.72,27.75h.86v.86h-.86v-.86Z" style="fill: #020203;" />
    <rect x="109.44" y="27.75" width=".86" height=".86" style="fill: #fff;" />
    <path d="M112.02,27.75h.86v.86h-.86v-.86ZM111.16,27.75h.86v.86h-.86v-.86ZM110.3,27.75h.86v.86h-.86v-.86Z"
      style="fill: #020203;" />
    <path
      d="M87.1,28.61h.86v.86h-.86v-.86ZM86.25,28.61h.86v.86h-.86v-.86ZM85.39,28.61h.86v.86h-.86v-.86ZM112.88,27.75h.86v.86h-.86v-.86Z"
      style="fill: #fff;" />
    <path d="M88.82,28.61h.86v.86h-.86v-.86ZM87.96,28.61h.86v.86h-.86v-.86Z" style="fill: #020203;" />
    <rect x="89.68" y="28.61" width=".86" height=".86" style="fill: #fff;" />
    <path d="M92.26,28.61h.86v.86h-.86v-.86ZM91.4,28.61h.86v.86h-.86v-.86ZM90.54,28.61h.86v.86h-.86v-.86Z"
      style="fill: #020203;" />
    <rect x="93.12" y="28.61" width=".86" height=".86" style="fill: #fff;" />
    <rect x="93.98" y="28.61" width=".86" height=".86" style="fill: #020203;" />
    <path d="M95.7,28.61h.86v.86h-.86v-.86ZM94.84,28.61h.86v.86h-.86v-.86Z" style="fill: #fff;" />
    <path d="M97.41,28.61h.86v.86h-.86v-.86ZM96.55,28.61h.86v.86h-.86v-.86Z" style="fill: #020203;" />
    <rect x="98.27" y="28.61" width=".86" height=".86" style="fill: #fff;" />
    <rect x="99.13" y="28.61" width=".86" height=".86" style="fill: #020203;" />
    <rect x="99.99" y="28.61" width=".86" height=".86" style="fill: #fff;" />
    <rect x="100.85" y="28.61" width=".86" height=".86" style="fill: #020203;" />
    <path
      d="M106,28.61h.86v.86h-.86v-.86ZM105.14,28.61h.86v.86h-.86v-.86ZM104.28,28.61h.86v.86h-.86v-.86ZM103.43,28.61h.86v.86h-.86v-.86ZM102.57,28.61h.86v.86h-.86v-.86ZM101.71,28.61h.86v.86h-.86v-.86Z"
      style="fill: #fff;" />
    <rect x="106.86" y="28.61" width=".86" height=".86" style="fill: #020203;" />
    <rect x="107.72" y="28.61" width=".86" height=".86" style="fill: #fff;" />
    <path d="M109.44,28.61h.86v.86h-.86v-.86ZM108.58,28.61h.86v.86h-.86v-.86Z" style="fill: #020203;" />
    <path
      d="M112.88,28.61h.86v.86h-.86v-.86ZM112.02,28.61h.86v.86h-.86v-.86ZM111.16,28.61h.86v.86h-.86v-.86ZM110.3,28.61h.86v.86h-.86v-.86Z"
      style="fill: #fff;" />
    <rect x="85.39" y="29.47" width=".86" height=".86" style="fill: #020203;" />
    <rect x="86.25" y="29.47" width=".86" height=".86" style="fill: #fff;" />
    <path d="M87.96,29.47h.86v.86h-.86v-.86ZM87.1,29.47h.86v.86h-.86v-.86Z" style="fill: #020203;" />
    <path
      d="M91.4,29.47h.86v.86h-.86v-.86ZM90.54,29.47h.86v.86h-.86v-.86ZM89.68,29.47h.86v.86h-.86v-.86ZM88.82,29.47h.86v.86h-.86v-.86Z"
      style="fill: #fff;" />
    <path d="M93.12,29.47h.86v.86h-.86v-.86ZM92.26,29.47h.86v.86h-.86v-.86Z" style="fill: #020203;" />
    <path
      d="M96.55,29.47h.86v.86h-.86v-.86ZM95.7,29.47h.86v.86h-.86v-.86ZM94.84,29.47h.86v.86h-.86v-.86ZM93.98,29.47h.86v.86h-.86v-.86Z"
      style="fill: #fff;" />
    <rect x="97.41" y="29.47" width=".86" height=".86" style="fill: #020203;" />
    <rect x="98.27" y="29.47" width=".86" height=".86" style="fill: #fff;" />
    <path
      d="M101.71,29.47h.86v.86h-.86v-.86ZM100.85,29.47h.86v.86h-.86v-.86ZM99.99,29.47h.86v.86h-.86v-.86ZM99.13,29.47h.86v.86h-.86v-.86Z"
      style="fill: #020203;" />
    <rect x="102.57" y="29.47" width=".86" height=".86" style="fill: #fff;" />
    <rect x="103.43" y="29.47" width=".86" height=".86" style="fill: #020203;" />
    <rect x="104.28" y="29.47" width=".86" height=".86" style="fill: #fff;" />
    <path d="M106,29.47h.86v.86h-.86v-.86ZM105.14,29.47h.86v.86h-.86v-.86Z" style="fill: #020203;" />
    <rect x="106.86" y="29.47" width=".86" height=".86" style="fill: #fff;" />
    <path d="M108.58,29.47h.86v.86h-.86v-.86ZM107.72,29.47h.86v.86h-.86v-.86Z" style="fill: #020203;" />
    <path
      d="M112.02,29.47h.86v.86h-.86v-.86ZM111.16,29.47h.86v.86h-.86v-.86ZM110.3,29.47h.86v.86h-.86v-.86ZM109.44,29.47h.86v.86h-.86v-.86Z"
      style="fill: #fff;" />
    <rect x="112.88" y="29.47" width=".86" height=".86" style="fill: #020203;" />
    <rect x="85.39" y="30.33" width=".86" height=".86" style="fill: #fff;" />
    <path
      d="M88.82,30.33h.86v.86h-.86v-.86ZM87.96,30.33h.86v.86h-.86v-.86ZM87.1,30.33h.86v.86h-.86v-.86ZM86.25,30.33h.86v.86h-.86v-.86Z"
      style="fill: #020203;" />
    <rect x="89.68" y="30.33" width=".86" height=".86" style="fill: #fff;" />
    <path d="M92.26,30.33h.86v.86h-.86v-.86ZM91.4,30.33h.86v.86h-.86v-.86ZM90.54,30.33h.86v.86h-.86v-.86Z"
      style="fill: #020203;" />
    <rect x="93.12" y="30.33" width=".86" height=".86" style="fill: #fff;" />
    <rect x="93.98" y="30.33" width=".86" height=".86" style="fill: #020203;" />
    <rect x="94.84" y="30.33" width=".86" height=".86" style="fill: #fff;" />
    <path d="M96.55,30.33h.86v.86h-.86v-.86ZM95.7,30.33h.86v.86h-.86v-.86Z" style="fill: #020203;" />
    <rect x="97.41" y="30.33" width=".86" height=".86" style="fill: #fff;" />
    <rect x="98.27" y="30.33" width=".86" height=".86" style="fill: #020203;" />
    <path d="M99.99,30.33h.86v.86h-.86v-.86ZM99.13,30.33h.86v.86h-.86v-.86Z" style="fill: #fff;" />
    <rect x="100.85" y="30.33" width=".86" height=".86" style="fill: #020203;" />
    <rect x="101.71" y="30.33" width=".86" height=".86" style="fill: #fff;" />
    <path d="M104.28,30.33h.86v.86h-.86v-.86ZM103.43,30.33h.86v.86h-.86v-.86ZM102.57,30.33h.86v.86h-.86v-.86Z"
      style="fill: #020203;" />
    <path d="M106,30.33h.86v.86h-.86v-.86ZM105.14,30.33h.86v.86h-.86v-.86Z" style="fill: #fff;" />
    <rect x="106.86" y="30.33" width=".86" height=".86" style="fill: #020203;" />
    <path d="M108.58,30.33h.86v.86h-.86v-.86ZM107.72,30.33h.86v.86h-.86v-.86Z" style="fill: #fff;" />
    <rect x="109.44" y="30.33" width=".86" height=".86" style="fill: #020203;" />
    <rect x="110.3" y="30.33" width=".86" height=".86" style="fill: #fff;" />
    <path d="M112.02,30.33h.86v.86h-.86v-.86ZM111.16,30.33h.86v.86h-.86v-.86Z" style="fill: #020203;" />
    <path d="M86.25,31.19h.86v.86h-.86v-.86ZM85.39,31.19h.86v.86h-.86v-.86ZM112.88,30.33h.86v.86h-.86v-.86Z"
      style="fill: #fff;" />
    <rect x="87.1" y="31.19" width=".86" height=".86" style="fill: #020203;" />
    <rect x="87.96" y="31.19" width=".86" height=".86" style="fill: #fff;" />
    <rect x="88.82" y="31.19" width=".86" height=".86" style="fill: #020203;" />
    <path
      d="M93.12,31.19h.86v.86h-.86v-.86ZM92.26,31.19h.86v.86h-.86v-.86ZM91.4,31.19h.86v.86h-.86v-.86ZM90.54,31.19h.86v.86h-.86v-.86ZM89.68,31.19h.86v.86h-.86v-.86Z"
      style="fill: #fff;" />
    <rect x="93.98" y="31.19" width=".86" height=".86" style="fill: #020203;" />
    <rect x="94.84" y="31.19" width=".86" height=".86" style="fill: #fff;" />
    <path d="M96.55,31.19h.86v.86h-.86v-.86ZM95.7,31.19h.86v.86h-.86v-.86Z" style="fill: #020203;" />
    <path d="M99.13,31.19h.86v.86h-.86v-.86ZM98.27,31.19h.86v.86h-.86v-.86ZM97.41,31.19h.86v.86h-.86v-.86Z"
      style="fill: #fff;" />
    <path
      d="M103.43,31.19h.86v.86h-.86v-.86ZM102.57,31.19h.86v.86h-.86v-.86ZM101.71,31.19h.86v.86h-.86v-.86ZM100.85,31.19h.86v.86h-.86v-.86ZM99.99,31.19h.86v.86h-.86v-.86Z"
      style="fill: #020203;" />
    <rect x="104.28" y="31.19" width=".86" height=".86" style="fill: #fff;" />
    <path
      d="M108.58,31.19h.86v.86h-.86v-.86ZM107.72,31.19h.86v.86h-.86v-.86ZM106.86,31.19h.86v.86h-.86v-.86ZM106,31.19h.86v.86h-.86v-.86ZM105.14,31.19h.86v.86h-.86v-.86Z"
      style="fill: #020203;" />
    <rect x="109.44" y="31.19" width=".86" height=".86" style="fill: #fff;" />
    <path d="M112.02,31.19h.86v.86h-.86v-.86ZM111.16,31.19h.86v.86h-.86v-.86ZM110.3,31.19h.86v.86h-.86v-.86Z"
      style="fill: #020203;" />
    <rect x="112.88" y="31.19" width=".86" height=".86" style="fill: #fff;" />
    <rect x="85.39" y="32.05" width=".86" height=".86" style="fill: #020203;" />
    <path d="M87.96,32.05h.86v.86h-.86v-.86ZM87.1,32.05h.86v.86h-.86v-.86ZM86.25,32.05h.86v.86h-.86v-.86Z"
      style="fill: #fff;" />
    <path d="M90.54,32.05h.86v.86h-.86v-.86ZM89.68,32.05h.86v.86h-.86v-.86ZM88.82,32.05h.86v.86h-.86v-.86Z"
      style="fill: #020203;" />
    <rect x="91.4" y="32.05" width=".86" height=".86" style="fill: #fff;" />
    <path
      d="M94.84,32.05h.86v.86h-.86v-.86ZM93.98,32.05h.86v.86h-.86v-.86ZM93.12,32.05h.86v.86h-.86v-.86ZM92.26,32.05h.86v.86h-.86v-.86Z"
      style="fill: #020203;" />
    <path d="M96.55,32.05h.86v.86h-.86v-.86ZM95.7,32.05h.86v.86h-.86v-.86Z" style="fill: #fff;" />
    <path d="M99.13,32.05h.86v.86h-.86v-.86ZM98.27,32.05h.86v.86h-.86v-.86ZM97.41,32.05h.86v.86h-.86v-.86Z"
      style="fill: #020203;" />
    <path d="M100.85,32.05h.86v.86h-.86v-.86ZM99.99,32.05h.86v.86h-.86v-.86Z" style="fill: #fff;" />
    <rect x="101.71" y="32.05" width=".86" height=".86" style="fill: #020203;" />
    <path
      d="M105.14,32.05h.86v.86h-.86v-.86ZM104.28,32.05h.86v.86h-.86v-.86ZM103.43,32.05h.86v.86h-.86v-.86ZM102.57,32.05h.86v.86h-.86v-.86Z"
      style="fill: #fff;" />
    <path d="M106.86,32.05h.86v.86h-.86v-.86ZM106,32.05h.86v.86h-.86v-.86Z" style="fill: #020203;" />
    <rect x="107.72" y="32.05" width=".86" height=".86" style="fill: #fff;" />
    <path d="M110.3,32.05h.86v.86h-.86v-.86ZM109.44,32.05h.86v.86h-.86v-.86ZM108.58,32.05h.86v.86h-.86v-.86Z"
      style="fill: #020203;" />
    <path d="M112.88,32.05h.86v.86h-.86v-.86ZM112.02,32.05h.86v.86h-.86v-.86ZM111.16,32.05h.86v.86h-.86v-.86Z"
      style="fill: #fff;" />
    <path d="M86.25,32.91h.86v.86h-.86v-.86ZM85.39,32.91h.86v.86h-.86v-.86Z" style="fill: #020203;" />
    <path
      d="M91.4,32.91h.86v.86h-.86v-.86ZM90.54,32.91h.86v.86h-.86v-.86ZM89.68,32.91h.86v.86h-.86v-.86ZM88.82,32.91h.86v.86h-.86v-.86ZM87.96,32.91h.86v.86h-.86v-.86ZM87.1,32.91h.86v.86h-.86v-.86Z"
      style="fill: #fff;" />
    <rect x="92.26" y="32.91" width=".86" height=".86" style="fill: #020203;" />
    <rect x="93.12" y="32.91" width=".86" height=".86" style="fill: #fff;" />
    <path
      d="M96.55,32.91h.86v.86h-.86v-.86ZM95.7,32.91h.86v.86h-.86v-.86ZM94.84,32.91h.86v.86h-.86v-.86ZM93.98,32.91h.86v.86h-.86v-.86Z"
      style="fill: #020203;" />
    <path
      d="M100.85,32.91h.86v.86h-.86v-.86ZM99.99,32.91h.86v.86h-.86v-.86ZM99.13,32.91h.86v.86h-.86v-.86ZM98.27,32.91h.86v.86h-.86v-.86ZM97.41,32.91h.86v.86h-.86v-.86Z"
      style="fill: #fff;" />
    <path d="M103.43,32.91h.86v.86h-.86v-.86ZM102.57,32.91h.86v.86h-.86v-.86ZM101.71,32.91h.86v.86h-.86v-.86Z"
      style="fill: #020203;" />
    <rect x="104.28" y="32.91" width=".86" height=".86" style="fill: #fff;" />
    <rect x="105.14" y="32.91" width=".86" height=".86" style="fill: #020203;" />
    <path d="M106.86,32.91h.86v.86h-.86v-.86ZM106,32.91h.86v.86h-.86v-.86Z" style="fill: #fff;" />
    <rect x="107.72" y="32.91" width=".86" height=".86" style="fill: #020203;" />
    <path d="M109.44,32.91h.86v.86h-.86v-.86ZM108.58,32.91h.86v.86h-.86v-.86Z" style="fill: #fff;" />
    <path d="M111.16,32.91h.86v.86h-.86v-.86ZM110.3,32.91h.86v.86h-.86v-.86Z" style="fill: #020203;" />
    <rect x="112.02" y="32.91" width=".86" height=".86" style="fill: #fff;" />
    <path d="M85.39,33.77h.86v.86h-.86v-.86ZM112.88,32.91h.86v.86h-.86v-.86Z" style="fill: #020203;" />
    <rect x="86.25" y="33.77" width=".86" height=".86" style="fill: #fff;" />
    <path d="M87.96,33.77h.86v.86h-.86v-.86ZM87.1,33.77h.86v.86h-.86v-.86Z" style="fill: #020203;" />
    <rect x="88.82" y="33.77" width=".86" height=".86" style="fill: #fff;" />
    <path d="M90.54,33.77h.86v.86h-.86v-.86ZM89.68,33.77h.86v.86h-.86v-.86Z" style="fill: #020203;" />
    <path
      d="M93.98,33.77h.86v.86h-.86v-.86ZM93.12,33.77h.86v.86h-.86v-.86ZM92.26,33.77h.86v.86h-.86v-.86ZM91.4,33.77h.86v.86h-.86v-.86Z"
      style="fill: #fff;" />
    <rect x="94.84" y="33.77" width=".86" height=".86" style="fill: #020203;" />
    <path
      d="M98.27,33.77h.86v.86h-.86v-.86ZM97.41,33.77h.86v.86h-.86v-.86ZM96.55,33.77h.86v.86h-.86v-.86ZM95.7,33.77h.86v.86h-.86v-.86Z"
      style="fill: #fff;" />
    <path
      d="M101.71,33.77h.86v.86h-.86v-.86ZM100.85,33.77h.86v.86h-.86v-.86ZM99.99,33.77h.86v.86h-.86v-.86ZM99.13,33.77h.86v.86h-.86v-.86Z"
      style="fill: #020203;" />
    <rect x="102.57" y="33.77" width=".86" height=".86" style="fill: #fff;" />
    <rect x="103.43" y="33.77" width=".86" height=".86" style="fill: #020203;" />
    <path
      d="M107.72,33.77h.86v.86h-.86v-.86ZM106.86,33.77h.86v.86h-.86v-.86ZM106,33.77h.86v.86h-.86v-.86ZM105.14,33.77h.86v.86h-.86v-.86ZM104.28,33.77h.86v.86h-.86v-.86Z"
      style="fill: #fff;" />
    <rect x="108.58" y="33.77" width=".86" height=".86" style="fill: #020203;" />
    <rect x="109.44" y="33.77" width=".86" height=".86" style="fill: #fff;" />
    <path d="M112.02,33.77h.86v.86h-.86v-.86ZM111.16,33.77h.86v.86h-.86v-.86ZM110.3,33.77h.86v.86h-.86v-.86Z"
      style="fill: #020203;" />
    <rect x="112.88" y="33.77" width=".86" height=".86" style="fill: #fff;" />
    <rect x="85.39" y="34.62" width=".86" height=".86" style="fill: #020203;" />
    <path d="M87.96,34.62h.86v.86h-.86v-.86ZM87.1,34.62h.86v.86h-.86v-.86ZM86.25,34.62h.86v.86h-.86v-.86Z"
      style="fill: #fff;" />
    <rect x="88.82" y="34.62" width=".86" height=".86" style="fill: #020203;" />
    <path d="M90.54,34.62h.86v.86h-.86v-.86ZM89.68,34.62h.86v.86h-.86v-.86Z" style="fill: #fff;" />
    <path d="M92.26,34.62h.86v.86h-.86v-.86ZM91.4,34.62h.86v.86h-.86v-.86Z" style="fill: #020203;" />
    <rect x="93.12" y="34.62" width=".86" height=".86" style="fill: #fff;" />
    <path
      d="M98.27,34.62h.86v.86h-.86v-.86ZM97.41,34.62h.86v.86h-.86v-.86ZM96.55,34.62h.86v.86h-.86v-.86ZM95.7,34.62h.86v.86h-.86v-.86ZM94.84,34.62h.86v.86h-.86v-.86ZM93.98,34.62h.86v.86h-.86v-.86Z"
      style="fill: #020203;" />
    <path d="M100.85,34.62h.86v.86h-.86v-.86ZM99.99,34.62h.86v.86h-.86v-.86ZM99.13,34.62h.86v.86h-.86v-.86Z"
      style="fill: #fff;" />
    <rect x="101.71" y="34.62" width=".86" height=".86" style="fill: #020203;" />
    <rect x="102.57" y="34.62" width=".86" height=".86" style="fill: #fff;" />
    <rect x="103.43" y="34.62" width=".86" height=".86" style="fill: #020203;" />
    <path d="M105.14,34.62h.86v.86h-.86v-.86ZM104.28,34.62h.86v.86h-.86v-.86Z" style="fill: #fff;" />
    <rect x="106" y="34.62" width=".86" height=".86" style="fill: #020203;" />
    <path
      d="M109.44,34.62h.86v.86h-.86v-.86ZM108.58,34.62h.86v.86h-.86v-.86ZM107.72,34.62h.86v.86h-.86v-.86ZM106.86,34.62h.86v.86h-.86v-.86Z"
      style="fill: #fff;" />
    <path d="M111.16,34.62h.86v.86h-.86v-.86ZM110.3,34.62h.86v.86h-.86v-.86Z" style="fill: #020203;" />
    <rect x="112.02" y="34.62" width=".86" height=".86" style="fill: #fff;" />
    <path d="M85.39,35.48h.86v.86h-.86v-.86ZM112.88,34.62h.86v.86h-.86v-.86Z" style="fill: #020203;" />
    <path d="M87.1,35.48h.86v.86h-.86v-.86ZM86.25,35.48h.86v.86h-.86v-.86Z" style="fill: #fff;" />
    <rect x="87.96" y="35.48" width=".86" height=".86" style="fill: #020203;" />
    <path d="M89.68,35.48h.86v.86h-.86v-.86ZM88.82,35.48h.86v.86h-.86v-.86Z" style="fill: #fff;" />
    <rect x="90.54" y="35.48" width=".86" height=".86" style="fill: #020203;" />
    <rect x="91.4" y="35.48" width=".86" height=".86" style="fill: #fff;" />
    <rect x="92.26" y="35.48" width=".86" height=".86" style="fill: #020203;" />
    <rect x="93.12" y="35.48" width=".86" height=".86" style="fill: #fff;" />
    <path d="M94.84,35.48h.86v.86h-.86v-.86ZM93.98,35.48h.86v.86h-.86v-.86Z" style="fill: #020203;" />
    <rect x="95.7" y="35.48" width=".86" height=".86" style="fill: #fff;" />
    <rect x="96.55" y="35.48" width=".86" height=".86" style="fill: #020203;" />
    <rect x="97.41" y="35.48" width=".86" height=".86" style="fill: #fff;" />
    <path d="M99.13,35.48h.86v.86h-.86v-.86ZM98.27,35.48h.86v.86h-.86v-.86Z" style="fill: #020203;" />
    <path d="M100.85,35.48h.86v.86h-.86v-.86ZM99.99,35.48h.86v.86h-.86v-.86Z" style="fill: #fff;" />
    <path d="M102.57,35.48h.86v.86h-.86v-.86ZM101.71,35.48h.86v.86h-.86v-.86Z" style="fill: #020203;" />
    <rect x="103.43" y="35.48" width=".86" height=".86" style="fill: #fff;" />
    <path
      d="M109.44,35.48h.86v.86h-.86v-.86ZM108.58,35.48h.86v.86h-.86v-.86ZM107.72,35.48h.86v.86h-.86v-.86ZM106.86,35.48h.86v.86h-.86v-.86ZM106,35.48h.86v.86h-.86v-.86ZM105.14,35.48h.86v.86h-.86v-.86ZM104.28,35.48h.86v.86h-.86v-.86Z"
      style="fill: #020203;" />
    <path d="M111.16,35.48h.86v.86h-.86v-.86ZM110.3,35.48h.86v.86h-.86v-.86Z" style="fill: #fff;" />
    <path d="M112.88,35.48h.86v.86h-.86v-.86ZM112.02,35.48h.86v.86h-.86v-.86Z" style="fill: #020203;" />
    <path
      d="M91.4,36.34h.86v.86h-.86v-.86ZM90.54,36.34h.86v.86h-.86v-.86ZM89.68,36.34h.86v.86h-.86v-.86ZM88.82,36.34h.86v.86h-.86v-.86ZM87.96,36.34h.86v.86h-.86v-.86ZM87.1,36.34h.86v.86h-.86v-.86ZM86.25,36.34h.86v.86h-.86v-.86ZM85.39,36.34h.86v.86h-.86v-.86Z"
      style="fill: #fff;" />
    <path d="M93.98,36.34h.86v.86h-.86v-.86ZM93.12,36.34h.86v.86h-.86v-.86ZM92.26,36.34h.86v.86h-.86v-.86Z"
      style="fill: #020203;" />
    <rect x="94.84" y="36.34" width=".86" height=".86" style="fill: #fff;" />
    <rect x="95.7" y="36.34" width=".86" height=".86" style="fill: #020203;" />
    <rect x="96.55" y="36.34" width=".86" height=".86" style="fill: #fff;" />
    <path d="M98.27,36.34h.86v.86h-.86v-.86ZM97.41,36.34h.86v.86h-.86v-.86Z" style="fill: #020203;" />
    <path d="M99.99,36.34h.86v.86h-.86v-.86ZM99.13,36.34h.86v.86h-.86v-.86Z" style="fill: #fff;" />
    <path d="M102.57,36.34h.86v.86h-.86v-.86ZM101.71,36.34h.86v.86h-.86v-.86ZM100.85,36.34h.86v.86h-.86v-.86Z"
      style="fill: #020203;" />
    <path d="M104.28,36.34h.86v.86h-.86v-.86ZM103.43,36.34h.86v.86h-.86v-.86Z" style="fill: #fff;" />
    <path d="M106,36.34h.86v.86h-.86v-.86ZM105.14,36.34h.86v.86h-.86v-.86Z" style="fill: #020203;" />
    <path d="M108.58,36.34h.86v.86h-.86v-.86ZM107.72,36.34h.86v.86h-.86v-.86ZM106.86,36.34h.86v.86h-.86v-.86Z"
      style="fill: #fff;" />
    <path
      d="M90.54,37.2h.86v.86h-.86v-.86ZM89.68,37.2h.86v.86h-.86v-.86ZM88.82,37.2h.86v.86h-.86v-.86ZM87.96,37.2h.86v.86h-.86v-.86ZM87.1,37.2h.86v.86h-.86v-.86ZM86.25,37.2h.86v.86h-.86v-.86ZM85.39,37.2h.86v.86h-.86v-.86ZM112.88,36.34h.86v.86h-.86v-.86ZM112.02,36.34h.86v.86h-.86v-.86ZM111.16,36.34h.86v.86h-.86v-.86ZM110.3,36.34h.86v.86h-.86v-.86ZM109.44,36.34h.86v.86h-.86v-.86Z"
      style="fill: #020203;" />
    <path
      d="M95.7,37.2h.86v.86h-.86v-.86ZM94.84,37.2h.86v.86h-.86v-.86ZM93.98,37.2h.86v.86h-.86v-.86ZM93.12,37.2h.86v.86h-.86v-.86ZM92.26,37.2h.86v.86h-.86v-.86ZM91.4,37.2h.86v.86h-.86v-.86Z"
      style="fill: #fff;" />
    <path d="M98.27,37.2h.86v.86h-.86v-.86ZM97.41,37.2h.86v.86h-.86v-.86ZM96.55,37.2h.86v.86h-.86v-.86Z"
      style="fill: #020203;" />
    <rect x="99.13" y="37.2" width=".86" height=".86" style="fill: #fff;" />
    <rect x="99.99" y="37.2" width=".86" height=".86" style="fill: #020203;" />
    <path
      d="M103.43,37.2h.86v.86h-.86v-.86ZM102.57,37.2h.86v.86h-.86v-.86ZM101.71,37.2h.86v.86h-.86v-.86ZM100.85,37.2h.86v.86h-.86v-.86Z"
      style="fill: #fff;" />
    <path d="M106,37.2h.86v.86h-.86v-.86ZM105.14,37.2h.86v.86h-.86v-.86ZM104.28,37.2h.86v.86h-.86v-.86Z"
      style="fill: #020203;" />
    <rect x="106.86" y="37.2" width=".86" height=".86" style="fill: #fff;" />
    <rect x="107.72" y="37.2" width=".86" height=".86" style="fill: #020203;" />
    <rect x="108.58" y="37.2" width=".86" height=".86" style="fill: #fff;" />
    <rect x="109.44" y="37.2" width=".86" height=".86" style="fill: #020203;" />
    <path d="M111.16,37.2h.86v.86h-.86v-.86ZM110.3,37.2h.86v.86h-.86v-.86Z" style="fill: #fff;" />
    <rect x="112.02" y="37.2" width=".86" height=".86" style="fill: #020203;" />
    <rect x="112.88" y="37.2" width=".86" height=".86" style="fill: #fff;" />
    <rect x="85.39" y="38.06" width=".86" height=".86" style="fill: #020203;" />
    <path
      d="M89.68,38.06h.86v.86h-.86v-.86ZM88.82,38.06h.86v.86h-.86v-.86ZM87.96,38.06h.86v.86h-.86v-.86ZM87.1,38.06h.86v.86h-.86v-.86ZM86.25,38.06h.86v.86h-.86v-.86Z"
      style="fill: #fff;" />
    <rect x="90.54" y="38.06" width=".86" height=".86" style="fill: #020203;" />
    <path d="M93.12,38.06h.86v.86h-.86v-.86ZM92.26,38.06h.86v.86h-.86v-.86ZM91.4,38.06h.86v.86h-.86v-.86Z"
      style="fill: #fff;" />
    <rect x="93.98" y="38.06" width=".86" height=".86" style="fill: #020203;" />
    <rect x="94.84" y="38.06" width=".86" height=".86" style="fill: #fff;" />
    <path d="M96.55,38.06h.86v.86h-.86v-.86ZM95.7,38.06h.86v.86h-.86v-.86Z" style="fill: #020203;" />
    <rect x="97.41" y="38.06" width=".86" height=".86" style="fill: #fff;" />
    <path d="M99.99,38.06h.86v.86h-.86v-.86ZM99.13,38.06h.86v.86h-.86v-.86ZM98.27,38.06h.86v.86h-.86v-.86Z"
      style="fill: #020203;" />
    <rect x="100.85" y="38.06" width=".86" height=".86" style="fill: #fff;" />
    <rect x="101.71" y="38.06" width=".86" height=".86" style="fill: #020203;" />
    <path d="M104.28,38.06h.86v.86h-.86v-.86ZM103.43,38.06h.86v.86h-.86v-.86ZM102.57,38.06h.86v.86h-.86v-.86Z"
      style="fill: #fff;" />
    <path d="M106,38.06h.86v.86h-.86v-.86ZM105.14,38.06h.86v.86h-.86v-.86Z" style="fill: #020203;" />
    <path d="M108.58,38.06h.86v.86h-.86v-.86ZM107.72,38.06h.86v.86h-.86v-.86ZM106.86,38.06h.86v.86h-.86v-.86Z"
      style="fill: #fff;" />
    <path
      d="M85.39,38.92h.86v.86h-.86v-.86ZM112.88,38.06h.86v.86h-.86v-.86ZM112.02,38.06h.86v.86h-.86v-.86ZM111.16,38.06h.86v.86h-.86v-.86ZM110.3,38.06h.86v.86h-.86v-.86ZM109.44,38.06h.86v.86h-.86v-.86Z"
      style="fill: #020203;" />
    <rect x="86.25" y="38.92" width=".86" height=".86" style="fill: #fff;" />
    <path d="M88.82,38.92h.86v.86h-.86v-.86ZM87.96,38.92h.86v.86h-.86v-.86ZM87.1,38.92h.86v.86h-.86v-.86Z"
      style="fill: #020203;" />
    <rect x="89.68" y="38.92" width=".86" height=".86" style="fill: #fff;" />
    <rect x="90.54" y="38.92" width=".86" height=".86" style="fill: #020203;" />
    <rect x="91.4" y="38.92" width=".86" height=".86" style="fill: #fff;" />
    <path
      d="M96.55,38.92h.86v.86h-.86v-.86ZM95.7,38.92h.86v.86h-.86v-.86ZM94.84,38.92h.86v.86h-.86v-.86ZM93.98,38.92h.86v.86h-.86v-.86ZM93.12,38.92h.86v.86h-.86v-.86ZM92.26,38.92h.86v.86h-.86v-.86Z"
      style="fill: #020203;" />
    <path d="M98.27,38.92h.86v.86h-.86v-.86ZM97.41,38.92h.86v.86h-.86v-.86Z" style="fill: #fff;" />
    <rect x="99.13" y="38.92" width=".86" height=".86" style="fill: #020203;" />
    <rect x="99.99" y="38.92" width=".86" height=".86" style="fill: #fff;" />
    <path d="M101.71,38.92h.86v.86h-.86v-.86ZM100.85,38.92h.86v.86h-.86v-.86Z" style="fill: #020203;" />
    <rect x="102.57" y="38.92" width=".86" height=".86" style="fill: #fff;" />
    <path d="M104.28,38.92h.86v.86h-.86v-.86ZM103.43,38.92h.86v.86h-.86v-.86Z" style="fill: #020203;" />
    <rect x="105.14" y="38.92" width=".86" height=".86" style="fill: #fff;" />
    <path
      d="M110.3,38.92h.86v.86h-.86v-.86ZM109.44,38.92h.86v.86h-.86v-.86ZM108.58,38.92h.86v.86h-.86v-.86ZM107.72,38.92h.86v.86h-.86v-.86ZM106.86,38.92h.86v.86h-.86v-.86ZM106,38.92h.86v.86h-.86v-.86Z"
      style="fill: #020203;" />
    <rect x="111.16" y="38.92" width=".86" height=".86" style="fill: #fff;" />
    <path d="M85.39,39.78h.86v.86h-.86v-.86ZM112.88,38.92h.86v.86h-.86v-.86ZM112.02,38.92h.86v.86h-.86v-.86Z"
      style="fill: #020203;" />
    <rect x="86.25" y="39.78" width=".86" height=".86" style="fill: #fff;" />
    <path d="M88.82,39.78h.86v.86h-.86v-.86ZM87.96,39.78h.86v.86h-.86v-.86ZM87.1,39.78h.86v.86h-.86v-.86Z"
      style="fill: #020203;" />
    <rect x="89.68" y="39.78" width=".86" height=".86" style="fill: #fff;" />
    <rect x="90.54" y="39.78" width=".86" height=".86" style="fill: #020203;" />
    <rect x="91.4" y="39.78" width=".86" height=".86" style="fill: #fff;" />
    <path d="M93.12,39.78h.86v.86h-.86v-.86ZM92.26,39.78h.86v.86h-.86v-.86Z" style="fill: #020203;" />
    <path d="M94.84,39.78h.86v.86h-.86v-.86ZM93.98,39.78h.86v.86h-.86v-.86Z" style="fill: #fff;" />
    <rect x="95.7" y="39.78" width=".86" height=".86" style="fill: #020203;" />
    <rect x="96.55" y="39.78" width=".86" height=".86" style="fill: #fff;" />
    <rect x="97.41" y="39.78" width=".86" height=".86" style="fill: #020203;" />
    <path d="M99.99,39.78h.86v.86h-.86v-.86ZM99.13,39.78h.86v.86h-.86v-.86ZM98.27,39.78h.86v.86h-.86v-.86Z"
      style="fill: #fff;" />
    <rect x="100.85" y="39.78" width=".86" height=".86" style="fill: #020203;" />
    <rect x="101.71" y="39.78" width=".86" height=".86" style="fill: #fff;" />
    <path d="M103.43,39.78h.86v.86h-.86v-.86ZM102.57,39.78h.86v.86h-.86v-.86Z" style="fill: #020203;" />
    <rect x="104.28" y="39.78" width=".86" height=".86" style="fill: #fff;" />
    <path d="M106.86,39.78h.86v.86h-.86v-.86ZM106,39.78h.86v.86h-.86v-.86ZM105.14,39.78h.86v.86h-.86v-.86Z"
      style="fill: #020203;" />
    <path d="M108.58,39.78h.86v.86h-.86v-.86ZM107.72,39.78h.86v.86h-.86v-.86Z" style="fill: #fff;" />
    <rect x="109.44" y="39.78" width=".86" height=".86" style="fill: #020203;" />
    <path d="M112.02,39.78h.86v.86h-.86v-.86ZM111.16,39.78h.86v.86h-.86v-.86ZM110.3,39.78h.86v.86h-.86v-.86Z"
      style="fill: #fff;" />
    <path d="M85.39,40.64h.86v.86h-.86v-.86ZM112.88,39.78h.86v.86h-.86v-.86Z" style="fill: #020203;" />
    <rect x="86.25" y="40.64" width=".86" height=".86" style="fill: #fff;" />
    <path d="M88.82,40.64h.86v.86h-.86v-.86ZM87.96,40.64h.86v.86h-.86v-.86ZM87.1,40.64h.86v.86h-.86v-.86Z"
      style="fill: #020203;" />
    <rect x="89.68" y="40.64" width=".86" height=".86" style="fill: #fff;" />
    <rect x="90.54" y="40.64" width=".86" height=".86" style="fill: #020203;" />
    <rect x="91.4" y="40.64" width=".86" height=".86" style="fill: #fff;" />
    <path d="M93.98,40.64h.86v.86h-.86v-.86ZM93.12,40.64h.86v.86h-.86v-.86ZM92.26,40.64h.86v.86h-.86v-.86Z"
      style="fill: #020203;" />
    <rect x="94.84" y="40.64" width=".86" height=".86" style="fill: #fff;" />
    <rect x="95.7" y="40.64" width=".86" height=".86" style="fill: #020203;" />
    <rect x="96.55" y="40.64" width=".86" height=".86" style="fill: #fff;" />
    <path d="M99.13,40.64h.86v.86h-.86v-.86ZM98.27,40.64h.86v.86h-.86v-.86ZM97.41,40.64h.86v.86h-.86v-.86Z"
      style="fill: #020203;" />
    <rect x="99.99" y="40.64" width=".86" height=".86" style="fill: #fff;" />
    <rect x="100.85" y="40.64" width=".86" height=".86" style="fill: #020203;" />
    <rect x="101.71" y="40.64" width=".86" height=".86" style="fill: #fff;" />
    <path d="M104.28,40.64h.86v.86h-.86v-.86ZM103.43,40.64h.86v.86h-.86v-.86ZM102.57,40.64h.86v.86h-.86v-.86Z"
      style="fill: #020203;" />
    <path d="M106,40.64h.86v.86h-.86v-.86ZM105.14,40.64h.86v.86h-.86v-.86Z" style="fill: #fff;" />
    <path d="M107.72,40.64h.86v.86h-.86v-.86ZM106.86,40.64h.86v.86h-.86v-.86Z" style="fill: #020203;" />
    <path d="M109.44,40.64h.86v.86h-.86v-.86ZM108.58,40.64h.86v.86h-.86v-.86Z" style="fill: #fff;" />
    <rect x="110.3" y="40.64" width=".86" height=".86" style="fill: #020203;" />
    <path d="M112.88,40.64h.86v.86h-.86v-.86ZM112.02,40.64h.86v.86h-.86v-.86ZM111.16,40.64h.86v.86h-.86v-.86Z"
      style="fill: #fff;" />
    <rect x="85.39" y="41.5" width=".86" height=".86" style="fill: #020203;" />
    <path
      d="M89.68,41.5h.86v.86h-.86v-.86ZM88.82,41.5h.86v.86h-.86v-.86ZM87.96,41.5h.86v.86h-.86v-.86ZM87.1,41.5h.86v.86h-.86v-.86ZM86.25,41.5h.86v.86h-.86v-.86Z"
      style="fill: #fff;" />
    <rect x="90.54" y="41.5" width=".86" height=".86" style="fill: #020203;" />
    <path d="M92.26,41.5h.86v.86h-.86v-.86ZM91.4,41.5h.86v.86h-.86v-.86Z" style="fill: #fff;" />
    <path d="M93.98,41.5h.86v.86h-.86v-.86ZM93.12,41.5h.86v.86h-.86v-.86Z" style="fill: #020203;" />
    <path d="M95.7,41.5h.86v.86h-.86v-.86ZM94.84,41.5h.86v.86h-.86v-.86Z" style="fill: #fff;" />
    <path d="M98.27,41.5h.86v.86h-.86v-.86ZM97.41,41.5h.86v.86h-.86v-.86ZM96.55,41.5h.86v.86h-.86v-.86Z"
      style="fill: #020203;" />
    <rect x="99.13" y="41.5" width=".86" height=".86" style="fill: #fff;" />
    <path d="M100.85,41.5h.86v.86h-.86v-.86ZM99.99,41.5h.86v.86h-.86v-.86Z" style="fill: #020203;" />
    <rect x="101.71" y="41.5" width=".86" height=".86" style="fill: #fff;" />
    <rect x="102.57" y="41.5" width=".86" height=".86" style="fill: #020203;" />
    <path
      d="M107.72,41.5h.86v.86h-.86v-.86ZM106.86,41.5h.86v.86h-.86v-.86ZM106,41.5h.86v.86h-.86v-.86ZM105.14,41.5h.86v.86h-.86v-.86ZM104.28,41.5h.86v.86h-.86v-.86ZM103.43,41.5h.86v.86h-.86v-.86Z"
      style="fill: #fff;" />
    <rect x="108.58" y="41.5" width=".86" height=".86" style="fill: #020203;" />
    <rect x="109.44" y="41.5" width=".86" height=".86" style="fill: #fff;" />
    <path d="M111.16,41.5h.86v.86h-.86v-.86ZM110.3,41.5h.86v.86h-.86v-.86Z" style="fill: #020203;" />
    <path d="M112.88,41.5h.86v.86h-.86v-.86ZM112.02,41.5h.86v.86h-.86v-.86Z" style="fill: #fff;" />
    <path
      d="M90.54,42.35h.86v.86h-.86v-.86ZM89.68,42.35h.86v.86h-.86v-.86ZM88.82,42.35h.86v.86h-.86v-.86ZM87.96,42.35h.86v.86h-.86v-.86ZM87.1,42.35h.86v.86h-.86v-.86ZM86.25,42.35h.86v.86h-.86v-.86ZM85.39,42.35h.86v.86h-.86v-.86Z"
      style="fill: #020203;" />
    <path d="M92.26,42.35h.86v.86h-.86v-.86ZM91.4,42.35h.86v.86h-.86v-.86Z" style="fill: #fff;" />
    <rect x="93.12" y="42.35" width=".86" height=".86" style="fill: #020203;" />
    <rect x="93.98" y="42.35" width=".86" height=".86" style="fill: #fff;" />
    <rect x="94.84" y="42.35" width=".86" height=".86" style="fill: #020203;" />
    <path d="M96.55,42.35h.86v.86h-.86v-.86ZM95.7,42.35h.86v.86h-.86v-.86Z" style="fill: #fff;" />
    <rect x="97.41" y="42.35" width=".86" height=".86" style="fill: #020203;" />
    <path d="M99.13,42.35h.86v.86h-.86v-.86ZM98.27,42.35h.86v.86h-.86v-.86Z" style="fill: #fff;" />
    <rect x="99.99" y="42.35" width=".86" height=".86" style="fill: #020203;" />
    <rect x="100.85" y="42.35" width=".86" height=".86" style="fill: #fff;" />
    <path d="M102.57,42.35h.86v.86h-.86v-.86ZM101.71,42.35h.86v.86h-.86v-.86Z" style="fill: #020203;" />
    <path d="M104.28,42.35h.86v.86h-.86v-.86ZM103.43,42.35h.86v.86h-.86v-.86Z" style="fill: #fff;" />
    <path d="M106,42.35h.86v.86h-.86v-.86ZM105.14,42.35h.86v.86h-.86v-.86Z" style="fill: #020203;" />
    <rect x="106.86" y="42.35" width=".86" height=".86" style="fill: #fff;" />
    <rect x="107.72" y="42.35" width=".86" height=".86" style="fill: #020203;" />
    <path
      d="M111.16,42.35h.86v.86h-.86v-.86ZM110.3,42.35h.86v.86h-.86v-.86ZM109.44,42.35h.86v.86h-.86v-.86ZM108.58,42.35h.86v.86h-.86v-.86Z"
      style="fill: #fff;" />
    <rect x="112.02" y="42.35" width=".86" height=".86" style="fill: #020203;" />
    <rect x="112.88" y="42.35" width=".86" height=".86" style="fill: #fff;" />
  </g>
  <text id="sub_department" transform="translate(31.69 71.98)"
    style="font-family: Myriad-Roman, Myriad; font-size: 7.5px; isolation: isolate;">
    <tspan x="0" y="0"></tspan>
  </text>
  <text id="department" transform="translate(54.58 71.98)"
    style="font-family: Myriad-Roman, Myriad; font-size: 7.5px; isolation: isolate;">
    <tspan x="0" y="0"></tspan>
  </text>
  <text id="sku_code" transform="translate(72.91 71.98)"
    style="font-family: MyriadPro-Regular, &apos;Myriad Pro&apos;; font-size: 7.5px; isolation: isolate;">
    <tspan x="0" y="0"></tspan>
  </text>

   <text id="style_code" y="40%" x="50%"
    style="font-family: Myriad-Roman, Myriad; font-size: 7.5px; isolation: isolate;" text-anchor="middle">
    <tspan></tspan>
  </text>
   <text id="commercial_ref" y="43%" x="50%"
    style="font-family: Myriad-Roman, Myriad; font-size: 7.5px; isolation: isolate;" text-anchor="middle">
    <tspan></tspan>
  </text>

  <g id="Barcode">
    <rect x="32.25" y="72.93" width=".41" height="22.68" />
    <rect x="33.66" y="72.93" width=".41" height="22.68" />
    <rect x="36.48" y="72.93" width="1.12" height="22.68" />
    <rect x="38.6" y="72.93" width=".41" height="22.68" />
    <rect x="40.01" y="72.93" width="1.83" height="22.68" />
    <rect x="43.54" y="72.93" width=".41" height="22.68" />
    <rect x="44.95" y="72.93" width=".41" height="22.68" />
    <rect x="47.78" y="72.93" width="1.12" height="22.68" />
    <rect x="49.89" y="72.93" width=".41" height="22.68" />
    <rect x="52.01" y="72.93" width="1.83" height="22.68" />
    <rect x="54.83" y="72.93" width=".41" height="22.68" />
    <rect x="58.36" y="72.93" width=".41" height="22.68" />
    <rect x="60.53" y="72.93" width="1.07" height="22.68" />
    <rect x="63.36" y="72.93" width=".36" height="22.68" />
    <rect x="64.71" y="72.93" width=".41" height="22.68" />
    <rect x="66.13" y="72.93" width=".41" height="22.68" />
    <rect x="67.54" y="72.93" width=".41" height="22.68" />
    <rect x="68.95" y="72.93" width=".41" height="22.68" />
    <rect x="72.48" y="72.93" width="1.17" height="22.68" />
    <rect x="74.59" y="72.93" width="1.17" height="22.68" />
    <rect x="77.42" y="72.93" width=".41" height="22.68" />
    <rect x="79.53" y="72.93" width="1.83" height="22.68" />
    <rect x="82.36" y="72.93" width="1.17" height="22.68" />
    <rect x="84.47" y="72.93" width="1.17" height="22.68" />
    <rect x="87.3" y="72.93" width="1.17" height="22.68" />
    <rect x="89.41" y="72.93" width="1.17" height="22.68" />
    <rect x="92.24" y="72.93" width="1.17" height="22.68" />
    <rect x="94.35" y="72.93" width="1.17" height="22.68" />
    <rect x="97.18" y="72.93" width=".41" height="22.68" />
    <rect x="98.59" y="72.93" width=".41" height="22.68" />
  </g>
  <rect x="34.78" y="92.94" width="29.44" height="4.06" style="fill: #fff;" />
  <rect x="67.21" y="92.94" width="30" height="4.08" style="fill: #fff;" />
  <text id="bar1" data-name="Bar 1" transform="translate(27.71 98.73)"
    style="font-family: Myriad-Roman, Myriad; font-size: 7.5px; isolation: isolate;">
    <tspan x="0" y="0"></tspan>
  </text>
  <text id="bar2" data-name="Bar 2" transform="translate(36.01 98.73)"
    style="font-family: Myriad-Roman, Myriad; font-size: 7.5px; isolation: isolate; letter-spacing: .11em;">
    <tspan x="0" y="0"></tspan>
  </text>
  <text id="bar3" data-name="Bar 3" transform="translate(68.42 98.73)"
    style="font-family: Myriad-Roman, Myriad; font-size: 7.5px; isolation: isolate; letter-spacing: .11em;">
    <tspan x="0" y="0"></tspan>
  </text>
  <text id="variable_size_text" data-name="variable Size S" transform="translate(44.29 141.9)"
    style="fill: #fff; font-family: Avenir-Black, Avenir; font-size: 7.3px; font-weight: 800;">
    <tspan x="0" y="0"></tspan>
  </text>
    <path id="size_path" data-name=""
    d="M76.76,157.84c0,3.13-2.54,5.67-5.67,5.67s-5.67-2.54-5.67-5.67,2.54-5.67,5.67-5.67,5.67,2.54,5.67,5.67"
    style="fill: #fff;" display="none" />
  
  <text id="variable_size_box" data-name="variable Size box S" transform="translate(64.97 141.9)"
    style="font-family: Avenir-Black, Avenir; font-size: 7.3px; font-weight: 800;">
    <tspan x="0" y="0"></tspan>
  </text>
  
  <rect id="size_oval_1" x="34.59" y="133.57" width="67.55" height="12.22" style="fill: none;" />
  <rect id="size_oval_2" data-name="size_rect" x="34.59" y="152.17" width="67.55" height="12.22" style="fill: none;" />
</svg>