<?xml version="1.0" encoding="UTF-8"?>
<svg id="Layer_1" data-name="Layer 1" xmlns="http://www.w3.org/2000/svg" viewBox="0 0 175.76 268.99">
  <rect x="48.45" y=".5" width="127.06" height="240.45" rx="12" ry="12"/>
  <rect x="48.45" y=".5" width="127.06" height="240.45" rx="12" ry="12" style="fill: none; stroke: #e5007d; stroke-miterlimit: 10; stroke-width: .5px;"/>
  <path d="M111.98,27.63c2.99,0,5.42-2.43,5.42-5.42s-2.43-5.42-5.42-5.42-5.42,2.43-5.42,5.42,2.43,5.42,5.42,5.42" style="fill: #fff;"/>
  <path d="M111.98,27.63c2.99,0,5.42-2.43,5.42-5.42s-2.43-5.42-5.42-5.42-5.42,2.43-5.42,5.42,2.43,5.42,5.42,5.42Z" style="fill: none; stroke: #009fe3; stroke-miterlimit: 10; stroke-width: .5px;"/>
  <rect x="56.83" y="8.86" width="110.31" height="220.92" rx="12" ry="12" style="fill: none; stroke: #b2b2b2; stroke-width: 4px;"/>
  <g>
    <path d="M1.42,121.69c-.42,0-.76-.12-1.03-.36-.26-.24-.4-.54-.4-.88,0-.26.08-.5.25-.71.17-.21.39-.35.67-.43-.22-.07-.4-.2-.54-.38-.13-.18-.2-.38-.2-.59,0-.29.11-.54.34-.75.23-.21.53-.32.89-.32s.68.11.9.32c.23.21.34.45.34.75,0,.22-.07.41-.2.59-.13.18-.31.3-.54.38.28.08.51.22.68.43.17.21.25.44.25.71,0,.34-.13.63-.41.88-.26.24-.61.36-1.03.36ZM1.42,121.5c.35,0,.65-.1.88-.31.23-.2.34-.44.34-.73s-.12-.53-.34-.73c-.24-.21-.53-.31-.88-.31s-.64.1-.88.31c-.22.2-.34.44-.34.73s.11.53.34.73c.24.21.53.31.88.31ZM1.42,119.23c.32,0,.57-.09.75-.26.19-.17.28-.38.28-.62s-.09-.44-.28-.61c-.19-.18-.44-.27-.75-.27s-.56.09-.75.27c-.19.17-.28.38-.28.61s.09.45.28.62c.18.17.43.26.75.26Z"/>
    <path d="M4.45,119.04c.39,0,.73.12,1.01.37.28.25.42.56.42.96s-.14.72-.42.97c-.28.24-.61.36-1.01.36-.44,0-.82-.12-1.13-.35v-.29c.29.29.67.43,1.13.43.33,0,.61-.1.86-.31.24-.21.36-.48.36-.82s-.12-.6-.36-.8c-.24-.21-.53-.31-.86-.31-.14,0-.27.01-.39.04-.12.02-.21.05-.26.07-.05.02-.14.06-.25.11v-2.12h2.09v.21h-1.88v1.62c.2-.08.43-.13.69-.13Z"/>
    <path d="M10.25,119.13c.08-.16.21-.31.38-.45.18-.14.38-.21.6-.21.3,0,.52.1.69.29.16.19.24.44.24.75v2.13h-.21v-2.1c0-.27-.06-.48-.18-.63-.12-.15-.3-.23-.54-.23-.21,0-.39.07-.56.21-.17.14-.29.31-.37.51v2.24h-.21v-2.1c0-.27-.06-.48-.18-.63-.12-.15-.3-.23-.55-.23-.21,0-.39.07-.56.21-.17.14-.29.31-.37.51v2.24h-.21v-3.11h.21v.56c.09-.18.21-.33.38-.44.17-.12.36-.18.57-.18.23,0,.42.06.57.18s.25.28.31.48Z"/>
    <path d="M15.21,119.13c.08-.16.21-.31.38-.45.18-.14.38-.21.6-.21.3,0,.52.1.69.29.16.19.24.44.24.75v2.13h-.21v-2.1c0-.27-.06-.48-.18-.63-.12-.15-.3-.23-.54-.23-.21,0-.39.07-.56.21-.17.14-.29.31-.37.51v2.24h-.21v-2.1c0-.27-.06-.48-.18-.63-.12-.15-.3-.23-.55-.23-.21,0-.39.07-.56.21-.17.14-.29.31-.37.51v2.24h-.21v-3.11h.21v.56c.09-.18.21-.33.38-.44.17-.12.36-.18.57-.18.23,0,.42.06.57.18s.25.28.31.48Z"/>
  </g>
  <g>
    <path d="M103.4,264.64l-1.38,2.97h1.72v-1.09h.22v1.09h.85v.21h-.85v1.11h-.22v-1.11h-2.04v-.03l1.48-3.16h.22Z"/>
    <path d="M106.35,266.33c.39,0,.73.12,1.01.37.28.25.42.57.42.96s-.14.72-.42.97c-.28.24-.61.36-1.01.36-.44,0-.82-.12-1.13-.35v-.29c.29.29.67.43,1.13.43.33,0,.61-.1.86-.31.24-.21.36-.48.36-.82s-.12-.6-.36-.8c-.24-.21-.53-.31-.86-.31-.14,0-.27.01-.39.04-.12.02-.21.05-.26.07s-.14.06-.25.11v-2.12h2.09v.21h-1.88v1.62c.2-.08.43-.13.69-.13Z"/>
    <path d="M112.15,266.43c.08-.16.21-.31.38-.45.18-.14.38-.21.6-.21.3,0,.52.1.69.29.16.19.24.44.24.75v2.13h-.21v-2.1c0-.27-.06-.48-.18-.63-.12-.15-.3-.23-.54-.23-.21,0-.39.07-.56.21s-.29.31-.37.51v2.24h-.21v-2.1c0-.27-.06-.48-.18-.63-.12-.15-.3-.23-.55-.23-.21,0-.39.07-.56.21-.17.14-.29.31-.37.51v2.24h-.21v-3.11h.21v.56c.09-.18.21-.33.38-.44s.36-.18.57-.18c.23,0,.42.06.57.18s.25.28.31.48Z"/>
    <path d="M117.11,266.43c.08-.16.21-.31.38-.45.18-.14.38-.21.6-.21.3,0,.52.1.69.29.16.19.24.44.24.75v2.13h-.21v-2.1c0-.27-.06-.48-.18-.63-.12-.15-.3-.23-.54-.23-.21,0-.39.07-.56.21s-.29.31-.37.51v2.24h-.21v-2.1c0-.27-.06-.48-.18-.63-.12-.15-.3-.23-.55-.23-.21,0-.39.07-.56.21-.17.14-.29.31-.37.51v2.24h-.21v-3.11h.21v.56c.09-.18.21-.33.38-.44s.36-.18.57-.18c.23,0,.42.06.57.18s.25.28.31.48Z"/>
  </g>
  <line x1="25.9" y1=".12" x2="25.9" y2="240.82" style="fill: none; stroke: #000; stroke-width: .25px;"/>
  <line x1="25.34" y1=".12" x2="26.47" y2=".12" style="fill: none; stroke: #000; stroke-width: .25px;"/>
  <line x1="25.34" y1="240.82" x2="26.47" y2="240.82" style="fill: none; stroke: #000; stroke-width: .25px;"/>
  <line x1="49.88" y1="257.1" x2="174.08" y2="257.1" style="fill: none; stroke: #000; stroke-width: .25px;"/>
  <line x1="49.88" y1="256.54" x2="49.88" y2="257.66" style="fill: none; stroke: #000; stroke-width: .25px;"/>
  <line x1="174.08" y1="256.54" x2="174.08" y2="257.66" style="fill: none; stroke: #000; stroke-width: .25px;"/>
  <rect x="67.55" y="111.65" width="3.59" height="35.88" style="fill: #fff;"/>
  <polygon points="75.21 120.99 78.72 120.99 86.86 140.26 95.32 120.99 95.94 120.99 104.47 140.26 112.76 120.99 116.31 120.99 104.78 147.53 104.15 147.53 95.66 128.53 87.18 147.53 86.55 147.53 75.21 120.99" style="fill: #fff;"/>
  <path d="M119.8,120.99h3.41v26.54h-3.41v-26.54ZM121.49,110.06c.78,0,1.44.28,1.99.83.55.55.83,1.22.83,2s-.28,1.42-.83,1.98c-.55.55-1.21.83-1.99.83s-1.42-.28-1.97-.83c-.55-.55-.83-1.21-.83-1.98s.28-1.45.83-2c.55-.55,1.21-.83,1.97-.83" style="fill: #fff;"/>
  <path d="M152.65,131.58c-.46-1.82-1.12-3.28-1.99-4.37-.87-1.09-2.02-1.97-3.46-2.63-1.43-.67-2.94-1-4.52-1-2.61,0-4.84.84-6.72,2.51-1.37,1.22-2.4,3.05-3.1,5.49h19.78ZM152.65,138.73l2.88,1.51c-.94,1.85-2.03,3.35-3.27,4.49-1.24,1.14-2.63,2.01-4.17,2.6-1.55.59-3.3.89-5.25.89-4.33,0-7.71-1.42-10.16-4.26-2.44-2.84-3.66-6.05-3.66-9.62,0-3.37,1.03-6.37,3.1-9,2.62-3.35,6.13-5.02,10.52-5.02s8.14,1.72,10.84,5.15c1.92,2.42,2.9,5.45,2.93,9.07h-23.88c.06,3.08,1.05,5.61,2.95,7.58s4.26,2.96,7.06,2.96c1.35,0,2.67-.23,3.94-.71,1.28-.47,2.37-1.09,3.26-1.87.9-.78,1.86-2.03,2.91-3.77" style="fill: #fff;"/>
  <line x1="48.2" y1="212.1" x2="175.76" y2="212.1" style="fill: none; stroke: #fdc600; stroke-dasharray: 2.02 2.02; stroke-width: .5px;"/>
</svg>