<?xml version="1.0" encoding="UTF-8"?>
<svg id="Layer_1" data-name="Layer 1" data-size="55mm x 13mm" xmlns="http://www.w3.org/2000/svg" viewBox="0 0 196.69 89.17">
  <g>
    <path d="M2.45,16.95v6.14h-1.01v-4.89l-1.44.73v-1.05l1.84-.93h.61Z" style="fill: #00a2c9;" />
    <path
      d="M3.49,17.87v-.92h3.64v.03l-1.33,2.46c.42.1.75.3,1,.61.25.31.37.69.37,1.14,0,.39-.1.74-.29,1.05s-.44.54-.75.71c-.31.16-.65.24-1.02.24-.69,0-1.25-.17-1.69-.52v-1.06c.21.21.46.38.75.5.29.12.58.18.87.18.37,0,.66-.09.87-.27s.32-.45.32-.82-.16-.67-.47-.87-.73-.3-1.25-.3v-.03l1.15-2.13h-2.17Z"
      style="fill: #00a2c9;" />
    <path
      d="M13.63,19.13c.34-.39.78-.59,1.32-.59.45,0,.8.15,1.05.44s.39.7.39,1.21v2.89h-1v-2.73c0-.28-.06-.51-.19-.67s-.3-.24-.54-.24c-.19,0-.36.06-.51.17s-.24.28-.28.49v2.98h-1v-2.73c0-.28-.06-.51-.19-.67s-.3-.24-.54-.24c-.19,0-.36.06-.51.17s-.24.28-.28.49v2.98h-1v-4.44h1v.37c.11-.15.26-.26.45-.34s.41-.12.65-.12.46.06.68.17c.21.11.38.25.5.42Z"
      style="fill: #00a2c9;" />
    <path
      d="M20.85,19.13c.34-.39.78-.59,1.32-.59.45,0,.8.15,1.05.44s.39.7.39,1.21v2.89h-1v-2.73c0-.28-.06-.51-.19-.67s-.3-.24-.54-.24c-.19,0-.36.06-.51.17s-.24.28-.28.49v2.98h-1v-2.73c0-.28-.06-.51-.19-.67s-.3-.24-.54-.24c-.19,0-.36.06-.51.17s-.24.28-.28.49v2.98h-1v-4.44h1v.37c.11-.15.26-.26.45-.34s.41-.12.65-.12.46.06.68.17c.21.11.38.25.5.42Z"
      style="fill: #00a2c9;" />
  </g>
  <line x1="32.77" y1="2.95" x2="32.77" y2="38.41" style="fill: none; stroke: #00a2c9; stroke-width: .46px;" />
  <rect x="31.29" y="2.73" width="2.97" height=".46" style="fill: #00a2c9;" />
  <rect x="31.29" y="38.18" width="2.97" height=".46" style="fill: #00a2c9;" />
  <g>
    <path
      d="M103.84,56.42c.65,0,1.18.18,1.6.54s.63.85.63,1.47c0,.41-.1.77-.3,1.08-.2.31-.47.54-.81.7s-.73.24-1.17.24c-.63,0-1.15-.16-1.57-.49v-1.09c.24.22.48.39.72.51s.51.17.8.17c.4,0,.73-.1.98-.29.26-.2.39-.47.39-.83s-.13-.62-.39-.83c-.26-.2-.59-.31-.99-.31-.25,0-.46.02-.63.06s-.4.12-.68.22v-3.37h3.34v.92h-2.5v1.35c.12-.04.31-.06.58-.06Z"
      style="fill: #00a2c9;" />
    <path
      d="M108.36,56.42c.65,0,1.18.18,1.6.54s.63.85.63,1.47c0,.41-.1.77-.3,1.08-.2.31-.47.54-.81.7s-.73.24-1.17.24c-.63,0-1.15-.16-1.57-.49v-1.09c.24.22.48.39.72.51s.51.17.8.17c.4,0,.73-.1.98-.29.26-.2.39-.47.39-.83s-.13-.62-.39-.83c-.26-.2-.59-.31-.99-.31-.25,0-.46.02-.63.06s-.4.12-.68.22v-3.37h3.34v.92h-2.5v1.35c.12-.04.31-.06.58-.06Z"
      style="fill: #00a2c9;" />
    <path
      d="M117.02,56.4c.34-.39.78-.59,1.32-.59.45,0,.8.15,1.05.44s.39.7.39,1.21v2.89h-1v-2.73c0-.28-.06-.51-.19-.67s-.3-.24-.54-.24c-.19,0-.36.06-.51.17s-.24.28-.28.49v2.98h-1v-2.73c0-.28-.06-.51-.19-.67s-.3-.24-.54-.24c-.19,0-.36.06-.51.17s-.24.28-.28.49v2.98h-1v-4.44h1v.37c.11-.15.26-.26.45-.34s.41-.12.65-.12.46.06.68.17c.21.11.38.25.5.42Z"
      style="fill: #00a2c9;" />
    <path
      d="M124.24,56.4c.34-.39.78-.59,1.32-.59.45,0,.8.15,1.05.44s.39.7.39,1.21v2.89h-1v-2.73c0-.28-.06-.51-.19-.67s-.3-.24-.54-.24c-.19,0-.36.06-.51.17s-.24.28-.28.49v2.98h-1v-2.73c0-.28-.06-.51-.19-.67s-.3-.24-.54-.24c-.19,0-.36.06-.51.17s-.24.28-.28.49v2.98h-1v-4.44h1v.37c.11-.15.26-.26.45-.34s.41-.12.65-.12.46.06.68.17c.21.11.38.25.5.42Z"
      style="fill: #00a2c9;" />
  </g>
  <g>
    <line x1="195.04" y1="48.73" x2="39.59" y2="48.73" style="fill: none; stroke: #00a2c9; stroke-width: .46px;" />
    <rect x="194.81" y="47.24" width=".46" height="2.98" style="fill: #00a2c9;" />
    <rect x="39.37" y="47.24" width=".46" height="2.98" style="fill: #00a2c9;" />
  </g>
  <g>
    <rect x="37.95" y="2.63" width="158.74" height="37.52" style="fill: #bdbcb9;" />
    <path
      d="M54.63,16.77h3.44v4.53c0,1.73-.91,3.08-2.87,3.08s-2.89-.99-2.89-2.95h-2.12c0,3.23,2.09,4.97,5,4.97,3.15,0,5.02-2.15,5.02-5.1v-6.54h-5.59v2Z"
      style="fill: #4b525a;" />
    <path d="M63.68,25.15c0,1.55,2.35,1.55,2.35,0s-2.35-1.55-2.35,0" style="fill: #4b525a;" />
    <polygon
      points="82.16 19.59 76.55 19.59 76.55 14.78 74.4 14.78 74.4 26.19 76.55 26.19 76.55 21.58 82.16 21.58 82.16 26.19 84.29 26.19 84.29 14.78 82.16 14.78 82.16 19.59"
      style="fill: #4b525a;" />
    <path
      d="M91.73,24.6c-1.32,0-2.38-.91-2.38-2.44s1.06-2.43,2.38-2.43c3.13,0,3.13,4.87,0,4.87M94.11,19.25c-.46-.8-1.48-1.3-2.56-1.3-2.35-.02-4.19,1.43-4.19,4.21s1.76,4.29,4.14,4.27c.9-.02,2.15-.47,2.61-1.42l.1,1.17h1.87v-8.04h-1.91l-.07,1.11Z"
      style="fill: #4b525a;" />
    <path
      d="M101.38,19.07l-.15-.93h-1.84v8.04h1.99v-4.24c0-1.48.96-2.04,2-2.04.65,0,1.03.18,1.43.52l.9-1.73c-.44-.44-1.24-.77-2.07-.77s-1.65.15-2.27,1.14"
      style="fill: #4b525a;" />
    <path
      d="M112.44,24.48c-.62,0-1.04-.38-1.04-1.14v-3.47h2.23v-1.71h-2.22v-2.28l-1.99.21v2.07h-1.5v1.71h1.5v3.47c0,2.01,1.14,3,2.89,2.93.6-.02,1.08-.11,1.65-.34l-.55-1.69c-.29.15-.65.24-.96.24"
      style="fill: #4b525a;" />
    <path
      d="M128.81,22.84c0,1.16-1.61,1.56-2.38,1.56-1.19,0-2.38-.47-2.38-1.68,0-.69.7-1.53,2.28-1.53h2.48v1.65ZM130.84,22.85v-1.66h.95v-1.7h-5.35c-.77,0-2.2-.33-2.2-1.48-.02-.67.54-1.6,2.22-1.6,1.16,0,2.18.36,2.18,1.4h2.04c-.02-2.46-2.19-3.23-4.17-3.23s-4.34.99-4.35,3.42c0,.9.5,1.99,1.53,2.31-1.06.36-1.76,1.42-1.76,2.38.02,2.82,2.04,3.62,4.53,3.62,1.21,0,2.51-.38,3.26-1.6.36,1.3,1.3,1.5,2.15,1.5v-2.14c-.73,0-1.03-.57-1.03-1.24"
      style="fill: #4b525a;" />
    <path
      d="M145.54,24.17h-3.29v-2.93h3.29c.88,0,2.13.54,2.13,1.56s-1.26,1.37-2.13,1.37M142.24,16.72h3.29c1.37,0,1.79.88,1.79,1.4,0,.65-.44,1.22-1.79,1.22h-3.29v-2.62ZM147.98,20.28c1.06-.47,1.48-1.32,1.48-2.2,0-2.3-1.68-3.31-3.93-3.31h-5.41v11.41h5.41c2.36,0,4.27-.81,4.27-3.36,0-.72-.49-2.14-1.83-2.54"
      style="fill: #4b525a;" />
    <path
      d="M154.8,19.07l-.15-.93h-1.84v8.04h1.99v-4.24c0-1.48.96-2.04,2-2.04.65,0,1.03.18,1.44.52l.9-1.73c-.44-.44-1.24-.77-2.07-.77s-1.65.15-2.27,1.14"
      style="fill: #4b525a;" />
    <path
      d="M165.31,24.53c-1.45,0-2.18-1.14-2.18-2.36s.75-2.38,2.18-2.38c1.34,0,2.18,1.17,2.18,2.38s-.73,2.36-2.18,2.36M165.3,17.98c-2.56,0-4.16,1.89-4.16,4.19s1.56,4.19,4.17,4.19,4.19-1.88,4.19-4.19-1.65-4.19-4.2-4.19"
      style="fill: #4b525a;" />
    <path
      d="M175.8,21.24c-1.03-.07-1.5-.36-1.5-.88s.52-.8,1.47-.8c.77,0,1.42.18,1.99.72l1.11-1.3c-.93-.82-1.87-1.06-3.13-1.06-1.47,0-3.39.65-3.39,2.51s1.81,2.38,3.33,2.5c1.14.06,1.6.29,1.6.85,0,.59-.7.98-1.45.96-.9-.02-2.2-.49-2.77-1.13l-.98,1.42c1.17,1.22,2.45,1.43,3.72,1.43,2.3,0,3.46-1.22,3.46-2.64,0-2.14-1.92-2.48-3.44-2.58"
      style="fill: #4b525a;" />
    <path d="M182.09,25.15c0,1.55,2.35,1.55,2.35,0s-2.35-1.55-2.35,0" style="fill: #4b525a;" />
    <line x1="194.85" y1="0" x2="194.85" y2="43.36"
      style="fill: none; stroke: #62ae29; stroke-dasharray: 2.23 2.23; stroke-width: .74px;" />
    <line x1="40" x2="40" y2="42.63"
      style="fill: none; stroke: #62ae29; stroke-dasharray: 2.23 2.23; stroke-width: .74px;" />
  </g>
  <text id="quantity" style="font-family: Arial-BoldMT, Arial; font-size: 15px; font-weight: 700; isolation: isolate;"
    y="95%" x="58.4%" text-anchor="middle"></text>
</svg>