<?xml version="1.0" encoding="UTF-8"?>
<svg id="Layer_1" data-name="Layer 1" data-size="34mm x 26mm" xmlns="http://www.w3.org/2000/svg" viewBox="0 0 141.58 150.04">
 
  <text id="quantity" style="font-family: Arial-BoldMT, Arial; font-size: 15px; font-weight: 700; isolation: isolate;" y="96.4%" x="70.2%" text-anchor="middle"></text>

  <g>
    <path d="M1.46,20.59v-5.48l-1.46.91v-.91c.37-.19.76-.44,1.17-.77.42-.33.74-.63.96-.93h.29v7.18h-.98Z" style="fill: #00a3cc;"/>
    <path d="M4.8,20.08l.47-.75c.32.35.72.53,1.21.53.9,0,1.36-.44,1.36-1.33,0-.4-.13-.73-.4-.98-.26-.25-.61-.38-1.05-.38h-.08v-.79h.04c.83,0,1.24-.36,1.24-1.09s-.39-1.14-1.17-1.14c-.42,0-.76.14-1.01.42l-.43-.66c.3-.39.81-.59,1.52-.59.62,0,1.13.17,1.53.5.39.33.59.76.59,1.28,0,.4-.11.75-.33,1.05-.22.31-.48.51-.77.62.41.13.74.36.98.68.24.32.36.71.36,1.16,0,.66-.21,1.18-.63,1.54s-1.01.54-1.77.54c-.32,0-.63-.06-.94-.18-.31-.12-.55-.26-.73-.43Z" style="fill: #00a3cc;"/>
    <path d="M19.24,20.59v-3.31c0-.82-.36-1.24-1.07-1.24-.22,0-.43.07-.63.21-.2.14-.33.29-.4.47v3.87h-.93v-3.72c0-.26-.1-.46-.29-.61-.19-.15-.45-.22-.77-.22-.19,0-.38.07-.59.21-.21.14-.36.3-.45.47v3.86h-.93v-5.23h.61l.31.61c.36-.47.81-.7,1.34-.7.75,0,1.27.23,1.57.7.1-.2.3-.36.58-.5.28-.13.57-.2.87-.2.54,0,.96.16,1.25.48.3.32.44.77.44,1.35v3.5h-.93Z" style="fill: #00a3cc;"/>
    <path d="M27.54,20.59v-3.31c0-.82-.36-1.24-1.07-1.24-.22,0-.43.07-.63.21-.2.14-.33.29-.4.47v3.87h-.93v-3.72c0-.26-.1-.46-.29-.61-.19-.15-.45-.22-.77-.22-.19,0-.38.07-.59.21-.21.14-.36.3-.45.47v3.86h-.93v-5.23h.61l.31.61c.36-.47.81-.7,1.34-.7.75,0,1.27.23,1.57.7.1-.2.3-.36.58-.5.28-.13.57-.2.87-.2.54,0,.96.16,1.25.48.3.32.44.77.44,1.35v3.5h-.93Z" style="fill: #00a3cc;"/>
  </g>
  <g>
    <path d="M1.46,69.33v-5.48l-1.46.91v-.91c.37-.19.76-.44,1.17-.77s.74-.63.96-.93h.29v7.18h-.98Z" style="fill: #00a3cc;"/>
    <path d="M4.8,68.82l.47-.75c.32.35.72.53,1.21.53.9,0,1.36-.44,1.36-1.33,0-.4-.13-.73-.4-.98-.26-.25-.61-.38-1.05-.38h-.08v-.79h.04c.83,0,1.24-.36,1.24-1.09s-.39-1.14-1.17-1.14c-.42,0-.76.14-1.01.42l-.43-.66c.3-.39.81-.59,1.52-.59.62,0,1.13.17,1.53.5.39.33.59.76.59,1.28,0,.4-.11.75-.33,1.05s-.48.51-.77.62c.41.13.74.36.98.68.24.32.36.71.36,1.16,0,.66-.21,1.18-.63,1.54s-1.01.54-1.77.54c-.32,0-.63-.06-.94-.18-.31-.12-.55-.26-.73-.43Z" style="fill: #00a3cc;"/>
    <path d="M19.24,69.33v-3.31c0-.82-.36-1.24-1.07-1.24-.22,0-.43.07-.63.21-.2.14-.33.29-.4.47v3.87h-.93v-3.72c0-.26-.1-.46-.29-.61-.19-.15-.45-.22-.77-.22-.19,0-.38.07-.59.21s-.36.3-.45.47v3.86h-.93v-5.23h.61l.31.61c.36-.47.81-.7,1.34-.7.75,0,1.27.23,1.57.7.1-.2.3-.36.58-.5s.57-.2.87-.2c.54,0,.96.16,1.25.48.3.32.44.77.44,1.35v3.5h-.93Z" style="fill: #00a3cc;"/>
    <path d="M27.54,69.33v-3.31c0-.82-.36-1.24-1.07-1.24-.22,0-.43.07-.63.21-.2.14-.33.29-.4.47v3.87h-.93v-3.72c0-.26-.1-.46-.29-.61-.19-.15-.45-.22-.77-.22-.19,0-.38.07-.59.21s-.36.3-.45.47v3.86h-.93v-5.23h.61l.31.61c.36-.47.81-.7,1.34-.7.75,0,1.27.23,1.57.7.1-.2.3-.36.58-.5s.57-.2.87-.2c.54,0,.96.16,1.25.48.3.32.44.77.44,1.35v3.5h-.93Z" style="fill: #00a3cc;"/>
  </g>
  <g>
    <path d="M78.75,102.11l.47-.75c.32.35.72.53,1.21.53.9,0,1.36-.44,1.36-1.33,0-.4-.13-.73-.4-.98-.26-.25-.61-.38-1.05-.38h-.08v-.79h.04c.83,0,1.24-.36,1.24-1.09s-.39-1.14-1.17-1.14c-.42,0-.76.14-1.01.42l-.43-.66c.3-.39.81-.59,1.52-.59.62,0,1.13.17,1.53.5.39.33.59.76.59,1.28,0,.4-.11.75-.33,1.05s-.48.51-.77.62c.41.13.74.36.98.68.24.32.36.71.36,1.16,0,.66-.21,1.18-.63,1.54s-1.01.54-1.77.54c-.32,0-.63-.06-.94-.18-.31-.12-.55-.26-.73-.43Z" style="fill: #00a3cc;"/>
    <path d="M87.77,100.67v1.95h-.93v-1.95h-3.26v-.56l3.84-4.68h.34v4.48h.72v.75h-.72ZM86.84,97.38l-2.1,2.53h2.1v-2.53Z" style="fill: #00a3cc;"/>
    <path d="M98.43,102.62v-3.31c0-.82-.36-1.24-1.07-1.24-.22,0-.43.07-.63.21-.2.14-.33.29-.4.47v3.87h-.93v-3.72c0-.26-.1-.46-.29-.61-.19-.15-.45-.22-.77-.22-.19,0-.38.07-.59.21s-.36.3-.45.47v3.86h-.93v-5.23h.61l.31.61c.36-.47.81-.7,1.34-.7.75,0,1.27.23,1.57.7.1-.2.3-.36.58-.5s.58-.2.87-.2c.54,0,.96.16,1.25.48.3.32.44.77.44,1.35v3.5h-.93Z" style="fill: #00a3cc;"/>
    <path d="M106.73,102.62v-3.31c0-.82-.36-1.24-1.07-1.24-.22,0-.43.07-.63.21-.2.14-.33.29-.4.47v3.87h-.93v-3.72c0-.26-.1-.46-.29-.61-.19-.15-.45-.22-.77-.22-.19,0-.38.07-.59.21s-.36.3-.45.47v3.86h-.93v-5.23h.61l.31.61c.36-.47.81-.7,1.34-.7.75,0,1.27.23,1.57.7.1-.2.3-.36.58-.5s.58-.2.87-.2c.54,0,.96.16,1.25.48.3.32.44.77.44,1.35v3.5h-.93Z" style="fill: #00a3cc;"/>
  </g>
  <g>
    <line x1="141.14" y1="92.05" x2="45.4" y2="92.05" style="fill: none; stroke: #00a3cc; stroke-width: .6px;"/>
    <rect x="140.82" y="90.23" width=".64" height="3.64" style="fill: #00a3cc;"/>
    <rect x="45.08" y="90.23" width=".63" height="3.64" style="fill: #00a3cc;"/>
  </g>
  <g>
    <line x1="36.3" y1="3.91" x2="36.3" y2="77.12" style="fill: none; stroke: #00a3cc; stroke-width: .52px;"/>
    <rect x="34.48" y="3.67" width="3.64" height=".49" style="fill: #00a3cc;"/>
    <rect x="34.48" y="76.88" width="3.64" height=".49" style="fill: #00a3cc;"/>
    <line x1="32.27" y1="40.52" x2="39.72" y2="40.52" style="fill: none; stroke: #00a3cc; stroke-width: .52px;"/>
  </g>
  <g>
    <g>
      <rect x="45.08" y=".12" width="96.38" height="80.79" style="fill: #a5c5ed; stroke: #d52f89; stroke-miterlimit: 10; stroke-width: .25px;"/>
      <line x1="141.46" y1="40.52" x2="45.08" y2="40.52" style="fill: none; stroke: #ee701e; stroke-dasharray: 2.14 2.14; stroke-width: .25px;"/>
      <line x1="45.08" y1="3.8" x2="141.46" y2="3.8" style="fill: none; stroke: #97bf0d; stroke-dasharray: 1.74 1.74; stroke-width: .54px;"/>
      <line x1="45.08" y1="77.24" x2="141.46" y2="77.24" style="fill: none; stroke: #97bf0d; stroke-dasharray: 1.74 1.74; stroke-width: .54px;"/>
    </g>
    <g>
      <path d="M78.34,59.22c0-1.78,1.42-3.2,3.21-3.2s3.21,1.42,3.21,3.2-1.42,3.2-3.21,3.2-3.21-1.42-3.21-3.2ZM78.87,59.22c0,1.51,1.22,2.68,2.69,2.68s2.69-1.17,2.69-2.68-1.22-2.68-2.69-2.68-2.69,1.16-2.69,2.68ZM82.69,58.57c-.1-.45-.48-.69-1.02-.69-.88,0-1.25.67-1.25,1.31,0,.76.45,1.34,1.26,1.34.54,0,.89-.25,1-.72h.5c-.1.77-.76,1.25-1.5,1.25-1.08,0-1.78-.82-1.78-1.84s.67-1.85,1.78-1.85c.76,0,1.36.46,1.51,1.21h-.5Z" style="fill: #fff;"/>
      <path d="M85.33,56.15h1.27c1.88,0,3.44.99,3.44,3.04s-1.53,3.1-3.47,3.1h-1.25v-6.14ZM86.1,61.59h.27c1.56,0,2.91-.59,2.91-2.37s-1.35-2.37-2.91-2.37h-.27v4.74Z" style="fill: #fff;"/>
      <path d="M91.77,56.74c0,.28-.23.5-.5.5s-.51-.22-.51-.5.23-.51.51-.51.5.23.5.51ZM91.63,62.29h-.73v-3.81h.73v3.81Z" style="fill: #fff;"/>
      <path d="M94.34,59.35c-.09-.19-.28-.33-.49-.33s-.4.16-.4.38c0,.33.44.48.89.68.45.2.88.48.88,1.08,0,.73-.6,1.26-1.31,1.26-.55,0-1.12-.32-1.32-.86l.63-.28c.16.28.34.49.69.49.31,0,.58-.21.58-.54,0-.2-.1-.3-.27-.42l-.72-.38c-.42-.23-.73-.44-.73-.96,0-.62.5-1.11,1.12-1.11.46,0,.84.25,1.04.67l-.59.32Z" style="fill: #fff;"/>
      <path d="M96.67,59h.02c.23-.41.68-.63,1.15-.63,1.07,0,1.35.73,1.35,1.65v2.27h-.73v-2.18c0-.65-.09-1.09-.84-1.09-.94,0-.94.83-.94,1.52v1.75h-.73v-3.81h.73v.51Z" style="fill: #fff;"/>
      <path d="M100.64,60.51c0,.65.45,1.26,1.15,1.26.56,0,.86-.29,1.14-.74l.62.35c-.36.66-1.03,1.04-1.77,1.04-1.16,0-1.87-.88-1.87-2s.63-2.05,1.86-2.05,1.78.9,1.78,2.03v.11h-2.91ZM102.81,59.96c-.09-.57-.46-.95-1.05-.95s-.99.41-1.08.95h2.13Z" style="fill: #fff;"/>
      <path d="M103.56,58.48h.86l1.29,2.42,1.2-2.42h.82l-3.09,5.99h-.83l1.5-2.83-1.74-3.16Z" style="fill: #fff;"/>
    </g>
    <g>
      <path d="M92.48,14.84c.31.03.8.13,1.07.28.35.21.63.58.59,1.04-.05.56-.33,1.21-.57,1.5-.57.76-1.31,1.22-2.2,1.62-.71.33-1.75.4-2.57.2-.12.16-.39.58-.75.52-.41-.21-.42-.72-.38-1.17-.39-.43-.7-1-.51-1.64.12-.71.51-1.24,1.02-1.7.7-.59,1.52-.89,2.41-1.08.69-.14,1.48-.11,1.89.44M88.01,17.25c-.02.18.1.4.25.45.37-.78,1.27-1.77,2.07-2.24-.96-.09-2.23.74-2.32,1.78M92.77,15.91c-1.42-.23-2.38.9-3.05,1.69-.16.19-.3.43-.38.71.17.18.64.13.97.07,1.12-.19,2.43-.63,2.85-1.69.05-.21.05-.49-.12-.63l-.27-.16Z" style="fill: #fff;"/>
      <path d="M103.49,20.45c.6.96,1.05,1.93,1.23,3.1.05,1.02.17,1.99-.31,2.88-.22.42-.69,1.04-1.36.79-.64-.36-1.02-1.11-1.4-1.74-.38-.62-.79-1.38-1.15-2.06-.04-.07-.14-.17-.2-.1-.03.08-.05.2-.05.32-.06,1.08-.12,2.05-.16,3.1-.03.31-.1.59-.27.8-.13.09-.42.08-.6,0-.59-.3-.55-1.03-.55-1.67.05-.48.08-1.02.15-1.52.15-.96.33-1.98.7-2.86.09-.2.2-.32.41-.4.38-.08.71.45.85.63.83,1.05,1.52,2.2,2.31,3.32.1.14.15.29.27.24.13-.09.02-.75-.05-1.17-.1-.63-.23-1.22-.4-1.82-.21-.71-.45-1.37-.52-2.13-.03-.17-.05-.35-.02-.52.05-.16.25-.13.37-.08.36.18.58.62.76.9" style="fill: #fff;"/>
      <path d="M111.13,21.45c.09.14.27.38.18.49-.43.48-1.17.26-1.74.32l-1.47.04c-.15.05-.17.21-.23.32-.08.24-.18.51-.15.76l.09.06c.71.04,1.45-.11,2.11.09.11.05.14.48.13.74-.07.26-.8.25-1.19.27-.51.02-.99,0-1.48.02-.1.17-.23.43-.34.64-.08.23-.34.57-.13.88.14.2,1.93-.53,3.03-.45.15,0,.43.52.41.86,0,0-.05.15-.16.23-.26.2-1.87,1.21-2.99,1.34-.64.07-1.1,0-1.6-.65-.39-.48-.51-1.26-.3-1.87.17-.46.42-.88.58-1.38-.04-.07-.05-.16-.08-.25.02-.11-.04-.26.08-.32.17-.09.39-.16.39-.16.21-.2.27-.56.38-.83.04-.09.11-.25.13-.36-.28-.11-.68-.11-.98-.27-.25-.12-.53-.4-.41-.7.38-.31,1.75-.34,2.73-.48.65-.09,1.3-.2,1.99-.18.18.02.32.05.48.22l.53.62Z" style="fill: #fff;"/>
      <path d="M97.83,20.81c.22.06.36.14.58.26.07.22-.1.46-.23.63-.31.19-.71.22-1.05.24-1.28.09-2.58.2-3.84.4-.34.08-.68.17-1,.34-.03.05.05.11.09.14,1.45.36,3.06.26,4.51.59.8.24,1.24,1.02,1.35,1.77.01.53-.13,1.1-.44,1.46-1.15,1.1-2.98,1.13-4.47.7-.73-.22-1.64-.74-1.82-1.63-.05-.24-.01-.44.13-.61.19-.22.44-.43.73-.58,1.1-.48,2.37-.05,3.44.2.26.06.59.11.57.33-.07.28-.4.35-.64.47-1.02.47-2.15-.47-2.81-.47-.29.02-.6.07-.75.37-.06.12-.03.25.05.34.37.38.98.4,1.4.44.86.05,1.66-.2,2.42-.44.43-.13.97-.33,1.13-.8.09-.35-.6-.66-1.17-.81-1.34-.26-2.78.12-4.09-.34-.31-.11-.8-.32-.82-.75.06-.61.23-1.26.77-1.58,1.08-.63,2.33-.86,3.59-.91.8-.03,1.56.01,2.36.23" style="fill: #fff;"/>
      <path d="M89.95,22.11c0,.22.08.42.04.63.05,1.53.22,3.15.12,4.67-.03.21-.22.31-.39.38-.33.06-.64-.03-.92-.13-.32-.44-.3-.98-.34-1.54-.07-1.72.13-3.35.45-4.98.05-.16.05-.4.27-.43.56.24.8.78.78,1.42" style="fill: #fff;"/>
      <path d="M114.02,20.51c.03.25,0,.45-.09.62-.13.31-.26.54-.39.8-.34.7-.7,1.38-.97,2.08-.13.39-.32.92-.1,1.4.02-.05.26-.37.28-.44.75-1.16,1.38-1.88,2.38-2.89.51-.51,1.28-1.37,2.15-.89.38.33.57.69.76,1.14.38.88.2,2.03-.27,2.83-.49.86-1.12,1.39-1.88,1.99-.67.45-1.44.7-2.29.66-.12.19-.35.61-.48.92-.25.62-.84,2.64-.98,3.33l-.23,1.43c0,.08-.1.17-.21.2-.49.05-.82-.36-1-.59-.3-.55-.47-1.29-.36-1.97.3-1.53.82-3.03,1.44-4.44-.21-.36-.38-.9-.42-1.37-.08-1.34.56-2.77,1.3-3.77.34-.41.67-.93,1.18-1.2.07-.03.15.06.17.14M117.06,22.41c-.04-.06-.16-.1-.21-.02-.71.88-1.37,1.7-2.08,2.7-.24.33-.44.58-.72,1.02,0,0-.07.1.57.02.63-.08,1.8-.87,2.31-1.65.24-.36.37-.99.35-1.28-.02-.29-.09-.57-.22-.8" style="fill: #fff;"/>
      <path d="M79.08,14.4c2.56,1,4.97,2.51,6.82,4.52.76.82,1.36,1.78,1.81,2.85.19.64.37,1.26.27,2.04-.25,1.54-1.19,2.74-2.54,3.59-1.06.7-2.21,1.06-3.56,1.23-1.52.2-4.41-.02-4.78-.16,0,.4-.18.8-.41.96-.24.11-.96.21-1.25-.24-.24-.44-.34-.97-.39-1.45-1.83-.84-3.47-2.21-4.64-3.78-.18-.33-.2-.84.08-1.14,1.15-1.21,2.84-1.54,4.45-1.81.22-.04.34-.03.34-.03.02-.28.02-.66.08-.89.01-.8.19-1.6.3-2.38.03-.21.04-.42.22-.5.27-.1.5.29.63.56.17.41.3,1.36.3,1.36.07.58.12,1.14.16,1.62l.1.02c.8-.03,1.58,0,2.4.12,1.13.19,2.12.3,3.01.96.48.41.93.98.75,1.67-.22.55-.59.98-1.08,1.16-.46.12-.97-.06-1.28-.24v-.09c.48-.22.9-.52.98-1.06,0-.22-.68-.31-.97-.37-.92-.22-1.86-.39-2.85-.49-.45-.04-.68-.03-1.01-.04.04.62.09,1.43.06,1.95,0,1.05.01,1.78-.02,2.66l.11.04c1.46.31,2.17.23,3.33.22,1.52-.15,2.96-.59,4.16-1.43.82-.57,1.34-1.34,1.39-2.34.11-.83-.4-1.63-.66-2.39-.84-1.25-1.92-2.36-3.17-3.28-2.58-1.84-5.53-2.82-8.67-3.38-1.36-.17-2.68-.33-4.14-.21-.32.03-.7.06-1,.31.06.16.3.24.46.33.11.08.19.11.19.22-.15.18-.41.22-.64.23-.36.04-1.29.05-1.19-.48.12-.49.42-1.03.74-1.26,2.6-1.1,5.9-.75,8.6-.05.84.26,1.71.51,2.51.84M75.22,22.53c-.4-.08-.86.04-1.26.02-1.08.23-2.14.19-3.03.88-.13.14-.07.34,0,.46.93,1.09,2.16,1.93,3.48,2.4.26.09.53.18.68.19,0-1.14.07-2.23.14-3.47.02-.19,0-.47,0-.47" style="fill: #fff;"/>
    </g>
  </g>
</svg>