<?xml version="1.0" encoding="UTF-8"?>
<svg id="Layer_1" data-name="Layer 1" data-size="24mm x 50mm" xmlns="http://www.w3.org/2000/svg"
  viewBox="0 0 107.56 209.49">

  <text id="quantity" style="font-family: Arial-BoldMT, Arial; font-size: 15px; font-weight: 700; isolation: isolate;"
    y="97%" x="50%" text-anchor="middle"></text>

  <polyline points="97.45 74.77 97.45 147.74 29.42 147.74 29.42 74.77"
    style="fill: #fff; stroke: #231f20; stroke-miterlimit: 10; stroke-width: .5px;" />
  <line x1="29.01" y1="161.45" x2="98.31" y2="161.45"
    style="fill: none; stroke: #00aeef; stroke-dasharray: 1.43 1.91; stroke-width: .48px;" />
  <line x1="29.03" y1="154.27" x2="29.03" y2="170.18" style="fill: none; stroke: #00aeef; stroke-width: .48px;" />
  <line x1="98.01" y1="153.88" x2="98.01" y2="169.41" style="fill: none; stroke: #00aeef; stroke-width: .48px;" />
  <g>
    <path
      d="M54.67,171.67v.38h-4.51c.08-1.29,1.08-2,2.07-2.67.98-.67,1.96-1.31,1.96-2.47,0-.94-.78-1.55-1.67-1.55-1.24,0-1.82.93-1.82,2.12h-.37c.08-1.65.81-2.45,2.14-2.45,1.15,0,2.1.62,2.1,1.89s-.93,1.97-1.9,2.63c-.97.66-1.96,1.27-2.03,2.12h4.04Z"
      style="fill: #00aeef;" />
    <path
      d="M59.11,165.15v4.81h1.14v.33h-1.14v1.76h-.37v-1.76h-3.3v-.38l3.3-4.76h.37ZM58.74,165.67h-.02l-2.9,4.29h2.92v-4.29Z"
      style="fill: #00aeef;" />
    <path
      d="M63.9,166.91h.37v1.05h.02c.16-.65.82-1.17,1.58-1.17.96,0,1.41.56,1.52,1.09h.02c.29-.7.79-1.09,1.6-1.09.91,0,1.58.54,1.58,1.75v3.51h-.37v-3.52c0-1.31-.91-1.41-1.21-1.41-.91,0-1.58.66-1.58,1.89v3.04h-.37v-3.52c0-1.29-.86-1.41-1.19-1.41-.72,0-1.6.57-1.6,1.89v3.04h-.37v-5.14Z"
      style="fill: #00aeef;" />
    <path
      d="M71.71,166.91h.37v1.05h.02c.16-.65.82-1.17,1.58-1.17.96,0,1.41.56,1.52,1.09h.02c.29-.7.79-1.09,1.6-1.09.91,0,1.58.54,1.58,1.75v3.51h-.37v-3.52c0-1.31-.91-1.41-1.21-1.41-.91,0-1.58.66-1.58,1.89v3.04h-.37v-3.52c0-1.29-.86-1.41-1.19-1.41-.72,0-1.6.57-1.6,1.89v3.04h-.37v-5.14Z"
      style="fill: #00aeef;" />
  </g>
  <g>
    <line x1="20.14" y1="5.79" x2="3.06" y2="5.79" style="fill: none; stroke: #00aeef; stroke-width: .41px;" />
    <line x1="11.73" y1="5.94" x2="11.73" y2="74.06"
      style="fill: none; stroke: #00aeef; stroke-dasharray: 1.24 1.65; stroke-width: .41px;" />
    <line x1="20.14" y1="74.28" x2="3.06" y2="74.28" style="fill: none; stroke: #00aeef; stroke-width: .41px;" />
    <g>
      <path
        d="M6.64,48.77h.38v4.39c-1.29-.08-2-1.05-2.67-2.01-.67-.95-1.31-1.91-2.47-1.91-.94,0-1.55.76-1.55,1.62,0,1.2.93,1.77,2.12,1.77v.36c-1.65-.08-2.45-.79-2.45-2.08,0-1.12.62-2.04,1.89-2.04s1.97.91,2.63,1.85c.66.94,1.27,1.91,2.12,1.97v-3.93Z"
        style="fill: #00aeef;" />
      <path
        d="M.12,47.05v-3.33h.33v3.04l2.75.56.02-.02c-.55-.38-.83-.97-.83-1.63,0-1.31.98-2.23,2.35-2.23s2.4.92,2.4,2.23-.84,2.35-2.23,2.26v-.36c1.15.02,1.9-.84,1.9-1.9,0-1.12-.94-1.87-2.07-1.87s-2.02.79-2.02,1.87c0,.74.33,1.27.97,1.69v.37l-3.57-.69Z"
        style="fill: #00aeef;" />
      <path
        d="M1.88,39.79v-.36h1.05v-.02c-.65-.15-1.17-.8-1.17-1.54,0-.93.56-1.37,1.09-1.48v-.02c-.7-.29-1.09-.76-1.09-1.55,0-.89.54-1.54,1.75-1.54h3.51v.36h-3.52c-1.31,0-1.41.89-1.41,1.17,0,.89.66,1.54,1.89,1.54h3.04v.36h-3.52c-1.29,0-1.41.84-1.41,1.15,0,.7.57,1.55,1.89,1.55h3.04v.36H1.88Z"
        style="fill: #00aeef;" />
      <path
        d="M1.88,32.2v-.36h1.05v-.02c-.65-.15-1.17-.8-1.17-1.54,0-.93.56-1.37,1.09-1.48v-.02c-.7-.29-1.09-.76-1.09-1.55,0-.89.54-1.54,1.75-1.54h3.51v.36h-3.52c-1.31,0-1.41.89-1.41,1.17,0,.89.66,1.54,1.89,1.54h3.04v.36h-3.52c-1.29,0-1.41.84-1.41,1.15,0,.7.57,1.55,1.89,1.55h3.04v.36H1.88Z"
        style="fill: #00aeef;" />
    </g>
  </g>
  <g>
    <line x1="20.14" y1="74.61" x2="3.06" y2="74.61" style="fill: none; stroke: #00aeef; stroke-width: .41px;" />
    <line x1="11.73" y1="74.76" x2="11.73" y2="142.88"
      style="fill: none; stroke: #00aeef; stroke-dasharray: 1.24 1.65; stroke-width: .41px;" />
    <line x1="20.14" y1="143.09" x2="3.06" y2="143.09" style="fill: none; stroke: #00aeef; stroke-width: .41px;" />
    <g>
      <path
        d="M6.64,117.59h.38v4.39c-1.29-.08-2-1.05-2.67-2.01-.67-.95-1.31-1.91-2.47-1.91-.94,0-1.55.76-1.55,1.62,0,1.2.93,1.77,2.12,1.77v.36c-1.65-.08-2.45-.79-2.45-2.08,0-1.12.62-2.04,1.89-2.04s1.97.91,2.63,1.85c.66.94,1.27,1.91,2.12,1.97v-3.93Z"
        style="fill: #00aeef;" />
      <path
        d="M.12,115.87v-3.33h.33v3.04l2.75.56.02-.02c-.55-.38-.83-.97-.83-1.63,0-1.31.98-2.23,2.35-2.23s2.4.92,2.4,2.23-.84,2.35-2.23,2.26v-.36c1.15.02,1.9-.84,1.9-1.9,0-1.12-.94-1.87-2.07-1.87s-2.02.79-2.02,1.87c0,.74.33,1.27.97,1.69v.37l-3.57-.69Z"
        style="fill: #00aeef;" />
      <path
        d="M1.88,108.61v-.36h1.05v-.02c-.65-.15-1.17-.8-1.17-1.54,0-.93.56-1.37,1.09-1.48v-.02c-.7-.29-1.09-.76-1.09-1.55,0-.89.54-1.54,1.75-1.54h3.51v.36h-3.52c-1.31,0-1.41.89-1.41,1.17,0,.89.66,1.54,1.89,1.54h3.04v.36h-3.52c-1.29,0-1.41.84-1.41,1.15,0,.7.57,1.55,1.89,1.55h3.04v.36H1.88Z"
        style="fill: #00aeef;" />
      <path
        d="M1.88,101.02v-.36h1.05v-.02c-.65-.15-1.17-.8-1.17-1.54,0-.93.56-1.37,1.09-1.48v-.02c-.7-.29-1.09-.76-1.09-1.55,0-.89.54-1.54,1.75-1.54h3.51v.36h-3.52c-1.31,0-1.41.89-1.41,1.17,0,.89.66,1.54,1.89,1.54h3.04v.36h-3.52c-1.29,0-1.41.84-1.41,1.15,0,.7.57,1.55,1.89,1.55h3.04v.36H1.88Z"
        style="fill: #00aeef;" />
    </g>
  </g>
  <polyline points="29.42 74.28 29.42 .25 97.45 .25 97.45 74.28"
    style="fill: #fff; stroke: #231f20; stroke-miterlimit: 10; stroke-width: .5px;" />
  <line x1="23.71" y1="2.79" x2="105.94" y2="2.79" style="fill: none; stroke: #00a94f; stroke-dasharray: 4 2;" />
  <line x1="20.44" y1="145.18" x2="102.67" y2="145.18" style="fill: none; stroke: #00a94f; stroke-dasharray: 4 2;" />
  <line x1="22.62" y1="74.71" x2="107.56" y2="74.71" style="fill: none; stroke: #ed1c24; stroke-dasharray: 3;" />
  <path
    d="M51.51,107.38c-.92,1.08-2.5,1.28-3.96.61.81,1.02,1.3,2.3,1.3,3.69,0,3.34-2.78,6.11-6.12,6.11s-6.07-2.72-6.07-6.06c0-1.39.47-2.68,1.27-3.71-1.49.63-3.23.38-4.08-.71-1.08-1.39-.72-3.72.94-4.98,1.68-1.28,3.78-1.28,4.9.04.95,1.12.98,2.72.16,4.02.85-.46,1.82-.72,2.86-.72s2.09.28,2.98.76c-.83-1.27-.86-2.91-.02-3.98,1.07-1.37,3.54-1.42,5.15-.06,1.61,1.36,1.91,3.57.69,5ZM56.9,106.73c-.23-.35-.52-.61-.89-.77-.26-.12-.55-.18-.87-.18-.48,0-.92.16-1.31.48-.24.2-.42.44-.56.72-.13.27-.2.56-.2.88,0,.58.2,1.08.61,1.48.41.41.9.61,1.48.61s1.07-.2,1.47-.61.61-.9.61-1.48c0-.41-.11-.78-.34-1.14ZM56.17,106.42c.22.16.39.37.53.63.13.28.2.56.2.82,0,.5-.17.92-.51,1.27-.34.35-.75.52-1.23.52s-.9-.17-1.24-.53c-.34-.35-.51-.77-.51-1.27s.17-.9.51-1.25c.34-.35.75-.53,1.22-.53.38,0,.73.11,1.03.33ZM55.94,106.8c-.21-.12-.44-.17-.67-.17-.37,0-.68.12-.93.37-.26.24-.38.54-.38.89s.13.64.38.88c.25.24.56.36.92.36.25,0,.48-.06.71-.19v-.53l-.07.05c-.22.17-.43.25-.64.25-.23,0-.43-.08-.6-.24-.16-.16-.24-.35-.24-.59s.08-.44.24-.6c.16-.16.36-.24.59-.24.22,0,.43.08.64.25l.07.05v-.52h-.02ZM58.75,109.88c.41,0,.72-.04.94-.11.24-.07.46-.21.68-.4.43-.38.65-.88.65-1.5s-.21-1.11-.62-1.49c-.2-.19-.43-.32-.68-.4-.23-.08-.55-.12-.96-.12h-.84v4.01h.83ZM58.52,106.44h.27c.52,0,.91.12,1.17.37.29.27.44.63.44,1.07s-.15.79-.45,1.06c-.15.13-.31.23-.49.29-.18.06-.41.09-.68.09h-.27v-2.87ZM61.7,106.57c.07.07.16.11.27.11s.19-.04.27-.11c.07-.07.11-.16.11-.27s-.04-.19-.11-.27c-.07-.07-.16-.11-.27-.11s-.19.04-.27.11c-.07.07-.11.16-.11.27,0,.11.04.2.11.27ZM61.67,107.35v2.53h.58v-2.53h-.58ZM63.75,107.28c-.22,0-.41.07-.56.22-.15.14-.23.33-.23.55,0,.17.04.3.13.41.07.08.19.17.36.25.06.03.12.06.18.09.06.03.12.06.18.09.15.09.23.19.23.29,0,.18-.1.27-.3.27-.1,0-.18-.03-.25-.1-.04-.03-.09-.11-.16-.23l-.5.23c.18.41.48.62.9.62.25,0,.46-.08.63-.23.18-.16.27-.37.27-.61,0-.19-.05-.34-.16-.45-.11-.11-.32-.24-.63-.37-.23-.1-.34-.19-.34-.29,0-.06.02-.1.06-.14.04-.04.08-.05.14-.05.11,0,.21.08.28.23l.48-.26c-.16-.33-.4-.5-.72-.5ZM65.16,109.88h.59v-1.22c0-.32.04-.54.12-.66.08-.13.22-.19.41-.19.18,0,.3.05.37.15.07.1.1.27.1.52v1.41h.59v-1.55c0-.36-.07-.61-.21-.77-.16-.19-.39-.28-.69-.28-.26,0-.49.1-.69.3v-.23h-.59v2.53ZM70.39,108.61c0-.42-.11-.74-.32-.98-.22-.24-.51-.36-.88-.36s-.67.12-.89.37c-.22.25-.33.57-.33.97s.11.73.34.97c.23.24.53.36.91.36.13,0,.25-.01.37-.04.11-.03.22-.07.31-.13s.19-.14.27-.23c.08-.09.17-.2.24-.33l-.49-.28c-.12.19-.23.32-.32.38-.1.07-.22.1-.36.1-.19,0-.34-.06-.46-.18-.12-.12-.19-.29-.2-.5h1.81v-.14ZM68.61,108.27c.02-.07.05-.14.08-.19s.08-.11.13-.15c.05-.04.11-.07.17-.09.06-.02.13-.03.2-.03.31,0,.51.16.59.47h-1.17ZM70.74,111.26h.67l2.02-3.91h-.66l-.72,1.46-.77-1.46h-.68l1.14,2.06-.99,1.85ZM52.9,113.74l1.32,2.72.71-1.63.7,1.63,1.33-2.72h-.65l-.65,1.45-.72-1.68-.71,1.68-.66-1.45h-.66ZM57.02,113.74l1.32,2.72.71-1.63.7,1.63,1.33-2.72h-.65l-.66,1.45-.72-1.68-.72,1.68-.66-1.45h-.66ZM61.14,113.74l1.32,2.72.71-1.63.7,1.63,1.33-2.72h-.65l-.65,1.45-.72-1.68-.71,1.68-.66-1.45h-.66ZM65.51,116.24c.07.07.15.1.26.1s.19-.03.25-.1c.07-.07.11-.16.11-.26s-.04-.18-.11-.25c-.07-.07-.16-.11-.25-.11s-.18.04-.25.11c-.07.07-.11.16-.11.25,0,.1.03.19.1.26ZM68.83,114.03c-.23-.24-.5-.36-.8-.36-.34,0-.62.13-.85.38-.23.25-.34.57-.34.95s.11.71.34.97c.23.25.52.38.86.38.29,0,.55-.11.78-.34v.27h.59v-4.39h-.59v2.15ZM67.64,114.42c.14-.15.3-.23.5-.23.21,0,.39.08.52.23.13.15.2.35.2.59s-.07.43-.2.59c-.13.15-.31.22-.53.22-.2,0-.37-.08-.5-.23-.13-.15-.19-.35-.19-.59,0-.23.07-.42.2-.57ZM70.18,112.96c.07.07.16.11.27.11s.19-.04.27-.11c.07-.07.11-.16.11-.27s-.04-.19-.11-.27c-.07-.07-.16-.11-.27-.11s-.19.04-.27.11-.11.16-.11.27c0,.11.04.2.11.27ZM70.15,113.74v2.53h.58v-2.53h-.58ZM72.23,113.67c-.22,0-.41.07-.56.22-.15.14-.23.33-.23.55,0,.17.04.3.13.41.07.08.19.17.36.25.06.03.12.06.18.09.06.03.12.06.18.09.15.09.23.19.23.29,0,.18-.1.27-.3.27-.1,0-.18-.03-.25-.1-.04-.03-.09-.11-.16-.23l-.5.23c.18.41.48.62.9.62.25,0,.46-.08.63-.23.18-.16.27-.37.27-.61,0-.19-.05-.34-.16-.45-.11-.11-.32-.24-.63-.37-.23-.1-.34-.19-.34-.29,0-.06.02-.1.06-.14.04-.04.08-.05.14-.05.11,0,.21.08.28.23l.48-.26c-.16-.33-.4-.5-.72-.5ZM73.64,116.27h.59v-1.22c0-.32.04-.54.12-.66.08-.13.22-.19.41-.19.18,0,.3.05.37.15.07.1.1.27.1.52v1.41h.59v-1.55c0-.36-.07-.61-.21-.77-.16-.19-.39-.28-.69-.28-.26,0-.49.1-.69.3v-.23h-.59v2.53ZM78.87,115c0-.42-.11-.74-.32-.98-.22-.24-.51-.36-.88-.36s-.67.12-.89.37c-.22.25-.33.57-.33.97s.11.73.34.97c.23.24.53.36.91.36.13,0,.25-.01.37-.04.11-.03.22-.07.31-.13s.19-.14.27-.23c.08-.09.17-.2.24-.33l-.49-.28c-.12.19-.23.32-.32.38-.1.07-.22.1-.36.1-.19,0-.34-.06-.46-.18-.12-.12-.19-.29-.2-.5h1.81v-.14ZM77.09,114.66c.02-.07.05-.14.08-.19s.08-.11.13-.15c.05-.04.11-.07.17-.09.06-.02.13-.03.2-.03.31,0,.51.16.59.47h-1.17ZM79.22,117.65h.67l2.02-3.91h-.66l-.72,1.46-.77-1.46h-.68l1.14,2.06-.99,1.85ZM82.19,116.24c.07.07.15.1.26.1s.19-.03.25-.1c.07-.07.11-.16.11-.26s-.04-.18-.11-.25c-.07-.07-.16-.11-.25-.11s-.18.04-.25.11c-.07.07-.11.16-.11.25,0,.1.03.19.1.26ZM84.9,113.67c-.39,0-.72.13-.98.39-.27.26-.4.58-.4.96s.13.69.4.95c.26.25.59.38.98.38.24,0,.47-.06.71-.18v-.77c-.14.17-.26.28-.37.34-.11.06-.23.09-.37.09-.22,0-.4-.08-.54-.23-.14-.15-.21-.35-.21-.58s.07-.43.22-.58c.15-.15.33-.23.55-.23.14,0,.26.03.37.09.11.06.23.17.36.34v-.78c-.22-.12-.46-.18-.71-.18ZM86.44,115.95c.26.26.57.39.95.39s.71-.13.97-.38c.26-.26.39-.57.39-.95s-.13-.69-.39-.95c-.26-.26-.58-.39-.96-.39s-.69.13-.96.38c-.26.26-.39.57-.39.93,0,.39.13.71.38.97ZM86.86,114.42c.14-.15.32-.22.54-.22s.41.07.55.22c.14.15.21.34.21.59s-.07.44-.21.59c-.14.15-.32.22-.55.22s-.41-.07-.55-.22c-.14-.15-.2-.35-.2-.6,0-.24.07-.43.21-.58ZM89.37,116.27h.58v-1.31c0-.27.04-.46.11-.58.08-.12.2-.18.36-.18.26,0,.39.23.39.68v1.4h.59v-1.31c0-.27.04-.46.11-.58s.19-.18.35-.18c.14,0,.24.05.3.15.06.1.09.27.09.51v1.41h.59v-1.56c0-.69-.29-1.04-.86-1.04-.31,0-.56.12-.75.37-.17-.25-.39-.37-.68-.37-.13,0-.23.02-.32.06-.08.04-.18.12-.29.24v-.23h-.58v2.53Z"
    style="fill: #008edb;" />
  <g>
    <g>
      <path d="M81.59,33.96l2.77-2.56,3.06,3.43,2.99-4.13,3.29,2.79-4.09,4.55.28,4.34-3.98.03-.05-4.57-4.26-3.88Z"
        style="fill: #008edb;" />
      <path
        d="M82.37,34.01l-3.79-.08-.02,1.3,2.91.03-.26,2.75-2.7-.09v1.38s4.32.05,4.32.05l-.03,3.06-8.07-.29.21-11.23,7.71.18-.29,2.93Z"
        style="fill: #008edb;" />
      <path
        d="M70.7,36.49l4.35,3-3.18,3.11-3.84-3.72.5,3.37-3.57.62-1.96-11.23,3.82-.6.65,4.29,3.54-5.11,2.92,2.07-3.23,4.21Z"
        style="fill: #008edb;" />
      <path
        d="M58.93,42.5c-3.33-.4-6.12-2.64-5.68-6.35.36-3.08,2.98-5.48,6.59-5.05,1.49.18,2.84.67,3.93,1.76l-1.62,2.68c-.49-.44-.84-.83-1.95-.96-1.38-.16-2.55.52-2.72,1.98-.16,1.37.83,2.49,2.37,2.69.86.1,1.44-.12,1.89-.27l1.08,2.9c-1.1.58-2.44.79-3.89.62Z"
        style="fill: #008edb;" />
      <path d="M49.28,42.36l.52-11.58,3.87.28-.71,11.48-3.68-.17Z" style="fill: #008edb;" />
      <path
        d="M45.33,42.72l-1.33-4.31h-.02l-2.23,3.56-2.51-3.49h-.03l-1.52,4-3.96-1.41,4.28-10.19,3.44,5.05h.03l3.79-5.78,4.52,10.96-4.46,1.62Z"
        style="fill: #008edb;" />
    </g>
    <g>
      <path
        d="M61.61,26.67c-.13-.52-.61-1.18-1.31-1.72-1.25-.97-3.33-1.7-5.02-1.2-.11.03-.31.29-.32.43-.01.16.27.22.49.18.06-.01.17-.02.14-.11-.08-.11-.23-.07-.31-.13.03-.05.11-.05.17-.08,1.09-.17,1.92,0,2.86.39,1.03.44,2.24,1.04,2.67,2.18.13.42.04,1-.32,1.27-.68.53-1.76.58-2.6.4-.02-.52.02-1,.02-1.56.59,0,1.45.12,1.58.36.02.04-.02.12-.08.15-.13.06-.25.14-.22.18.03.06.29.17.41.12.15-.07.29-.22.34-.38.05-.15-.01-.35-.12-.46-.41-.39-1.54-.49-1.9-.48,0,0-.02-.53-.03-.71-.02-.31-.26-.53-.3-.43-.16.37-.18.91-.2,1.15-.16.03-.45.06-.85.21-.23.08-.5.19-.7.37-.1.09-.12.27-.08.38.15.39.91,1.03,1.56,1.32.02.19.02.48.15.54.1.05.19.07.3.04.13-.04.14-.29.14-.36.97.26,2.1.22,2.92-.35.66-.5.76-1.18.63-1.69M57.47,28.11c-.46-.16-1.06-.51-1.34-.91-.08-.11-.09-.2.12-.29.38-.15.99-.19,1.27-.18-.02.37-.04.94-.05,1.38"
        style="fill: #008edb;" />
      <path
        d="M62.39,26.59c.08.6.08,1.76.02,1.91-.05.1-.21.11-.32.07-.22-.06-.17-.33-.19-.53,0-.56.02-1.12.12-1.65.02-.1.06-.14.14-.14.08,0,.21.2.23.34"
        style="fill: #008edb;" />
      <path
        d="M63,27.93c.09.18.63.22.84.19.47-.06.74-.24.77-.39.05-.21-.28-.28-.51-.34-.42-.09-.8-.04-1.21-.13-.11-.03-.16-.09-.17-.19-.02-.21.04-.43.19-.54.41-.32,1.71-.38,2.12-.17.07.04.04.15,0,.21-.09.13-.28.09-.45.1-.47.04-.97,0-1.4.15-.07.02-.06.15.08.17.57.09,1.44.03,1.63.43.09.21.07.65-.08.8-.33.34-.98.32-1.25.26-.19-.04-.65-.2-.77-.59-.03-.15.03-.26.12-.33.25-.18.55-.13.88-.09.19.03.5.14.52.19.04.09.02.17-.36.22-.39.04-.59-.32-.88-.18-.05.03-.09.16-.06.2"
        style="fill: #008edb;" />
      <path
        d="M65.68,26.49c.3.28.61.94.84,1.28.04.06.12.02.12-.04,0-.59-.23-1.05-.3-1.6,0-.05-.03-.16.03-.17.13-.02.26.15.34.25.29.36.44,1.06.37,1.6-.02.17-.12.54-.28.61-.08.03-.27.05-.34,0-.29-.21-.66-1.23-.77-1.22-.03,0-.05.04-.06.13-.03.29-.06,1.05-.06,1.05-.02.18-.15.16-.22.16-.11,0-.2-.07-.21-.13-.04-.25-.02-.62,0-.88.04-.33.14-.75.27-1,.06-.12.2-.13.27-.06"
        style="fill: #008edb;" />
      <path
        d="M67.57,27.25l.17-.39c-.12-.03-.37-.13-.41-.33,0-.03.17-.08.24-.09.53-.06.9-.11,1.37-.09.1,0,.38.32.3.43-.05.08-.44.07-.6.06-.15,0-.44.02-.44.02l-.14.37c.23,0,.6-.04.69.02.04.03.05.21.03.26-.05.11-.3.07-.46.07-.16,0-.42.01-.42.01.01-.02-.2.4-.15.49.04.08.8-.14.99-.1.12.02.21.23.13.29-.35.31-.93.57-1.25.47-.3-.09-.43-.39-.37-.63.05-.19.16-.53.16-.53,0,0-.06-.03-.08-.25,0-.08.23-.1.23-.1"
        style="fill: #008edb;" />
      <path
        d="M71.25,26.67c-.08-.09-.24-.16-.38-.11-.34.12-.54.37-.8.65-.17.19-.35.5-.47.67-.04-.03-.06-.14-.05-.23.06-.5.6-.88.54-1.32-.01-.09-.22.1-.27.16-.36.39-.67.88-.6,1.45.02.19.13.38.13.38,0,0-.39.77-.51,1.3-.06.26-.07.53,0,.72.08.18.39.42.42.27.14-.66.35-1.33.56-1.94,0,0,.13.04.29.03.56-.05,1.08-.53,1.23-1.11.09-.33.1-.66-.09-.91M70.77,27.9c-.2.16-.46.29-.67.27.12-.2.24-.42.4-.63.11-.15.34-.43.53-.53.06-.03.1.04.09.13,0,.31-.13.57-.35.76"
        style="fill: #008edb;" />
      <path
        d="M63.57,24.51c-.08-.07-.21-.08-.32-.07-.05-.3-.66-.27-.9-.21-.45.11-.75.4-.91.71-.12.22-.06.55.1.65-.03.06-.03.16-.02.21.02.12.13.24.21.24.08,0,.15-.18.18-.21.21.05.43.1.68.04.49-.11.86-.45,1.01-.78.09-.2.1-.44-.05-.57M61.74,25.28c-.06-.06-.04-.19,0-.25.03-.05.08-.13.14-.19.09-.08.17-.14.28-.19.05-.02.17-.05.24-.03-.25.16-.51.43-.66.66M62.79,25.45c-.27.1-.59.06-.68.02.23-.38.65-.72.93-.77.15-.03.29-.02.32.09.05.18-.1.48-.57.65"
        style="fill: #008edb;" />
    </g>
    <g>
      <path
        d="M44.77,48.93h-.77l-.29-.76h-1.66l-.29.76h-.77l1.64-4.03h.5l1.64,4.03ZM42.25,47.62h1.24l-.61-1.62-.62,1.62Z"
        style="fill: #008edb;" />
      <path d="M49.16,48.95l-2.29-2.72v2.69h-.73v-4.03h.49l2.29,2.72v-2.7h.73v4.03h-.49Z" style="fill: #008edb;" />
      <path
        d="M51.55,44.92h1c1.58,0,2.29.83,2.29,2.01s-.71,2.01-2.29,2.01h-1v-4.01ZM52.55,45.52h-.27v2.81h.27c1.03,0,1.52-.51,1.52-1.4s-.49-1.4-1.52-1.4Z"
        style="fill: #008edb;" />
      <path d="M59.62,48.93h-.73v-4.01h2.32v.6h-1.59v1.11h1.42v.6h-1.42v1.7Z" style="fill: #008edb;" />
      <path
        d="M62.84,44.92h1.27c.95,0,1.48.55,1.48,1.27,0,.49-.25.9-.7,1.11l1.13,1.63h-.87l-.97-1.47h-.61v1.47h-.73v-4.01ZM64.02,45.52h-.45v1.33h.45c.5,0,.8-.21.8-.66s-.3-.67-.8-.67Z"
        style="fill: #008edb;" />
      <path d="M67.36,44.92h.73v4.01h-.73v-4.01Z" style="fill: #008edb;" />
      <path d="M70.72,48.33h1.68v.6h-2.41v-4.01h2.41v.6h-1.68v1h1.45v.6h-1.45v1.2Z" style="fill: #008edb;" />
      <path d="M77.16,48.95l-2.29-2.72v2.69h-.73v-4.03h.49l2.29,2.72v-2.7h.73v4.03h-.49Z" style="fill: #008edb;" />
      <path
        d="M79.54,44.92h1c1.58,0,2.29.83,2.29,2.01s-.71,2.01-2.29,2.01h-1v-4.01ZM80.54,45.52h-.27v2.81h.27c1.03,0,1.52-.51,1.52-1.4s-.49-1.4-1.52-1.4Z"
        style="fill: #008edb;" />
      <path
        d="M84.3,45.97c0-.72.55-1.13,1.34-1.13.41,0,.76.12.94.23v.7c-.19-.14-.53-.31-.9-.31s-.62.19-.62.46c0,.7,1.7.66,1.7,1.88,0,.76-.63,1.2-1.43,1.2-.46,0-.85-.15-1.04-.26v-.72c.24.19.6.34,1,.34.45,0,.72-.22.72-.53,0-.74-1.69-.65-1.69-1.87Z"
        style="fill: #008edb;" />
    </g>
  </g>
</svg>