<?xml version="1.0" encoding="UTF-8"?>
<svg id="Layer_1" data-name="Layer 1" data-size="24mm x 50mm" xmlns="http://www.w3.org/2000/svg"
  viewBox="0 0 107.56 203.84">
  <text id="quantity" style="font-family: Arial-BoldMT, Arial; font-size: 15px; font-weight: 700; isolation: isolate;"
    y="97%" x="50%" text-anchor="middle"></text>

  <g>
    <polyline points="97.55 74.77 97.55 147.74 29.52 147.74 29.52 74.77"
      style="fill: #fff; stroke: #231f20; stroke-miterlimit: 10; stroke-width: .5px;" />
    <line x1="29.01" y1="161.45" x2="98.31" y2="161.45"
      style="fill: none; stroke: #00aeef; stroke-dasharray: 1.43 1.91; stroke-width: .48px;" />
    <line x1="29.03" y1="154.27" x2="29.03" y2="170.18" style="fill: none; stroke: #00aeef; stroke-width: .48px;" />
    <line x1="98.01" y1="153.88" x2="98.01" y2="169.41" style="fill: none; stroke: #00aeef; stroke-width: .48px;" />
    <g>
      <path
        d="M54.67,171.67v.38h-4.51c.08-1.29,1.08-2,2.07-2.67.98-.67,1.96-1.31,1.96-2.47,0-.94-.78-1.55-1.67-1.55-1.24,0-1.82.93-1.82,2.12h-.37c.08-1.65.81-2.45,2.14-2.45,1.15,0,2.1.62,2.1,1.89s-.93,1.97-1.9,2.63-1.96,1.27-2.03,2.12h4.04Z"
        style="fill: #00aeef;" />
      <path
        d="M59.11,165.15v4.81h1.14v.33h-1.14v1.76h-.37v-1.76h-3.3v-.38l3.3-4.76h.37ZM58.74,165.67h-.02l-2.9,4.29h2.92v-4.29Z"
        style="fill: #00aeef;" />
      <path
        d="M63.9,166.91h.37v1.05h.02c.16-.65.82-1.17,1.58-1.17.96,0,1.41.56,1.52,1.09h.02c.29-.7.79-1.09,1.6-1.09.91,0,1.58.54,1.58,1.75v3.51h-.37v-3.52c0-1.31-.91-1.41-1.21-1.41-.91,0-1.58.66-1.58,1.89v3.04h-.37v-3.52c0-1.29-.86-1.41-1.19-1.41-.72,0-1.6.57-1.6,1.89v3.04h-.37v-5.14Z"
        style="fill: #00aeef;" />
      <path
        d="M71.71,166.91h.37v1.05h.02c.16-.65.82-1.17,1.58-1.17.96,0,1.41.56,1.52,1.09h.02c.29-.7.79-1.09,1.6-1.09.91,0,1.58.54,1.58,1.75v3.51h-.37v-3.52c0-1.31-.91-1.41-1.21-1.41-.91,0-1.58.66-1.58,1.89v3.04h-.37v-3.52c0-1.29-.86-1.41-1.19-1.41-.72,0-1.6.57-1.6,1.89v3.04h-.37v-5.14Z"
        style="fill: #00aeef;" />
    </g>
    <g>
      <line x1="20.14" y1="5.79" x2="3.06" y2="5.79" style="fill: none; stroke: #00aeef; stroke-width: .41px;" />
      <line x1="11.73" y1="5.94" x2="11.73" y2="74.06"
        style="fill: none; stroke: #00aeef; stroke-dasharray: 1.24 1.65; stroke-width: .41px;" />
      <line x1="20.14" y1="74.28" x2="3.06" y2="74.28" style="fill: none; stroke: #00aeef; stroke-width: .41px;" />
      <g>
        <path
          d="M6.64,48.77h.38v4.39c-1.29-.08-2-1.05-2.67-2.01-.67-.95-1.31-1.91-2.47-1.91-.94,0-1.55.76-1.55,1.62,0,1.2.93,1.77,2.12,1.77v.36c-1.65-.08-2.45-.79-2.45-2.08,0-1.12.62-2.04,1.89-2.04s1.97.91,2.63,1.85c.66.94,1.27,1.91,2.12,1.97v-3.93Z"
          style="fill: #00aeef;" />
        <path
          d="M.12,47.05v-3.33h.33v3.04l2.75.56.02-.02c-.55-.38-.83-.97-.83-1.63,0-1.31.98-2.23,2.35-2.23s2.4.92,2.4,2.23-.84,2.35-2.23,2.26v-.36c1.15.02,1.9-.84,1.9-1.9,0-1.12-.94-1.87-2.07-1.87s-2.02.79-2.02,1.87c0,.74.33,1.27.97,1.69v.37l-3.57-.69Z"
          style="fill: #00aeef;" />
        <path
          d="M1.88,39.79v-.36h1.05v-.02c-.65-.15-1.17-.8-1.17-1.54,0-.93.56-1.37,1.09-1.48v-.02c-.7-.29-1.09-.76-1.09-1.55,0-.89.54-1.54,1.75-1.54h3.51v.36h-3.52c-1.31,0-1.41.89-1.41,1.17,0,.89.66,1.54,1.89,1.54h3.04v.36h-3.52c-1.29,0-1.41.84-1.41,1.15,0,.7.57,1.55,1.89,1.55h3.04v.36H1.88Z"
          style="fill: #00aeef;" />
        <path
          d="M1.88,32.2v-.36h1.05v-.02c-.65-.15-1.17-.8-1.17-1.54,0-.93.56-1.37,1.09-1.48v-.02c-.7-.29-1.09-.76-1.09-1.55,0-.89.54-1.54,1.75-1.54h3.51v.36h-3.52c-1.31,0-1.41.89-1.41,1.17,0,.89.66,1.54,1.89,1.54h3.04v.36h-3.52c-1.29,0-1.41.84-1.41,1.15,0,.7.57,1.55,1.89,1.55h3.04v.36H1.88Z"
          style="fill: #00aeef;" />
      </g>
    </g>
    <g>
      <line x1="20.14" y1="74.61" x2="3.06" y2="74.61" style="fill: none; stroke: #00aeef; stroke-width: .41px;" />
      <line x1="11.73" y1="74.76" x2="11.73" y2="142.88"
        style="fill: none; stroke: #00aeef; stroke-dasharray: 1.24 1.65; stroke-width: .41px;" />
      <line x1="20.14" y1="143.09" x2="3.06" y2="143.09" style="fill: none; stroke: #00aeef; stroke-width: .41px;" />
      <g>
        <path
          d="M6.64,117.59h.38v4.39c-1.29-.08-2-1.05-2.67-2.01-.67-.95-1.31-1.91-2.47-1.91-.94,0-1.55.76-1.55,1.62,0,1.2.93,1.77,2.12,1.77v.36c-1.65-.08-2.45-.79-2.45-2.08,0-1.12.62-2.04,1.89-2.04s1.97.91,2.63,1.85c.66.94,1.27,1.91,2.12,1.97v-3.93Z"
          style="fill: #00aeef;" />
        <path
          d="M.12,115.87v-3.33h.33v3.04l2.75.56.02-.02c-.55-.38-.83-.97-.83-1.63,0-1.31.98-2.23,2.35-2.23s2.4.92,2.4,2.23-.84,2.35-2.23,2.26v-.36c1.15.02,1.9-.84,1.9-1.9,0-1.12-.94-1.87-2.07-1.87s-2.02.79-2.02,1.87c0,.74.33,1.27.97,1.69v.37l-3.57-.69Z"
          style="fill: #00aeef;" />
        <path
          d="M1.88,108.61v-.36h1.05v-.02c-.65-.15-1.17-.8-1.17-1.54,0-.93.56-1.37,1.09-1.48v-.02c-.7-.29-1.09-.76-1.09-1.55,0-.89.54-1.54,1.75-1.54h3.51v.36h-3.52c-1.31,0-1.41.89-1.41,1.17,0,.89.66,1.54,1.89,1.54h3.04v.36h-3.52c-1.29,0-1.41.84-1.41,1.15,0,.7.57,1.55,1.89,1.55h3.04v.36H1.88Z"
          style="fill: #00aeef;" />
        <path
          d="M1.88,101.02v-.36h1.05v-.02c-.65-.15-1.17-.8-1.17-1.54,0-.93.56-1.37,1.09-1.48v-.02c-.7-.29-1.09-.76-1.09-1.55,0-.89.54-1.54,1.75-1.54h3.51v.36h-3.52c-1.31,0-1.41.89-1.41,1.17,0,.89.66,1.54,1.89,1.54h3.04v.36h-3.52c-1.29,0-1.41.84-1.41,1.15,0,.7.57,1.55,1.89,1.55h3.04v.36H1.88Z"
          style="fill: #00aeef;" />
      </g>
    </g>
    <polyline points="29.52 74.28 29.52 .25 97.55 .25 97.55 74.28"
      style="fill: #fff; stroke: #231f20; stroke-miterlimit: 10; stroke-width: .5px;" />
    <line x1="22.42" y1="2.79" x2="104.65" y2="2.79" style="fill: none; stroke: #00a94f; stroke-dasharray: 4 2;" />
    <line x1="22.42" y1="145.18" x2="104.65" y2="145.18" style="fill: none; stroke: #00a94f; stroke-dasharray: 4 2;" />
    <line x1="21.07" y1="74.71" x2="106" y2="74.71" style="fill: none; stroke: #ed1c24; stroke-dasharray: 3;" />
    <g>
      <path
        d="M43.85,107.56c0-2.32,1.85-4.17,4.19-4.17s4.19,1.85,4.19,4.17-1.85,4.17-4.19,4.17-4.19-1.85-4.19-4.17ZM51.6,107.56c0-1.97-1.64-3.53-3.55-3.53s-3.55,1.56-3.55,3.53,1.64,3.53,3.55,3.53,3.55-1.56,3.55-3.53ZM49.52,106.7c-.13-.59-.62-.94-1.33-.94-1.15,0-1.67.91-1.67,1.74,0,.99.62,1.78,1.69,1.78.71,0,1.16-.36,1.31-.97h.65c-.13,1.01-.99,1.62-1.96,1.62-1.41,0-2.33-1.07-2.33-2.4s.88-2.41,2.32-2.41c.98,0,1.78.59,1.97,1.58h-.65Z"
        style="fill: #715091;" />
      <path
        d="M53.14,103.52h1.52c1.21,0,2.19.16,3.14.97.92.79,1.34,1.87,1.34,3.07s-.43,2.21-1.32,3c-.96.86-1.93,1.02-3.19,1.02h-1.5v-8.07ZM54.69,110.75c.98,0,1.81-.14,2.55-.83.66-.62,1.01-1.47,1.01-2.36s-.35-1.81-1.05-2.42c-.74-.65-1.55-.78-2.5-.78h-.65v6.4h.65Z"
        style="fill: #715091;" />
      <path
        d="M61.6,104.67c0,.34-.28.61-.61.61s-.61-.27-.61-.61.28-.61.61-.61.61.28.61.61ZM61.42,111.59h-.86v-5.03h.86v5.03Z"
        style="fill: #715091;" />
      <path
        d="M65.24,107.73c-.12-.27-.37-.51-.68-.51s-.62.24-.62.56c0,.46.58.63,1.17.88.59.25,1.17.6,1.17,1.44,0,.95-.77,1.64-1.7,1.64-.85,0-1.51-.48-1.78-1.27l.76-.32c.21.47.46.8,1.03.8.46,0,.81-.31.81-.77,0-1.12-2.27-.74-2.27-2.32,0-.84.68-1.42,1.5-1.42.58,0,1.11.41,1.34.93l-.72.37Z"
        style="fill: #715091;" />
      <path
        d="M68.33,107.17h.02c.35-.48.81-.75,1.43-.75,1.39,0,1.71,1.01,1.71,2.18v2.98h-.86v-2.84c0-.81-.06-1.54-1.06-1.54-1.18,0-1.25,1.09-1.25,1.99v2.39h-.86v-5.03h.86v.61Z"
        style="fill: #715091;" />
      <path
        d="M73.55,109.26c.01.93.67,1.68,1.65,1.68.73,0,1.2-.44,1.53-1.04l.73.42c-.48.9-1.29,1.41-2.32,1.41-1.5,0-2.46-1.14-2.46-2.59s.87-2.72,2.44-2.72,2.47,1.34,2.39,2.84h-3.95ZM76.6,108.53c-.12-.73-.73-1.32-1.48-1.32s-1.42.59-1.53,1.32h3Z"
        style="fill: #715091;" />
      <path d="M77.85,106.56h.99l1.78,3.6,1.63-3.6h.97l-3.71,7.85h-.97l1.63-3.3-2.31-4.56Z" style="fill: #715091;" />
    </g>
    <g>
      <path
        d="M93.51,29.38c0,.36-.06.74-.09,1.09-.06.9-.15,1.81-.2,2.71-.16,2.67-.36,5.35-.52,8.03-.05.85-.09,1.7-.13,2.54-.02.49.22,1.57-.48,1.55-.73-.02-1.52-.15-2.24-.26-.74-.11-.77-.28-.77-1.01,0-.53-.09-2.95-.07-3.06.05-.32.02-.94,0-1.03-.03-.47.03-1.14-.09-1.29-.09-.1-.51-.15-.9-.19,0,0-1.66-.1-2.13.05-.12.04-.16.15-.16.25,0,.69.01,1.71.07,2.4.04.49.2,1.03.13,1.52-.08.6-.85.39-1.31.41-.6.04-1.49.07-1.61.08-.48.08-.53-.1-.54-.52-.02-.41.02-.81.02-1.22,0-.5-.02-1.01-.03-1.52-.06-1.63-.14-3.25-.2-4.88,0-.31.06-.95-.05-1-.38-.17-.77.21-1.14.14-.5-.09-.29-.75-.28-1.12,0-.28-.02-.53-.03-.62-.05-.56.37-.4.82-.41.72-.02,1.45-.04,2.17-.07.7-.03.94-.03,1.34-.06.4-.03.64-.06.71.1.08.19.02.69.02.96,0,.38.15,2.64.15,2.79.03.21.02.35.04.56,0,.23.1.27.46.23.15,0,1.2,0,1.64,0,.38,0,.75.11.97-.01.18-.11.06-2.02.06-2.36.06-.84-.03-1.56.03-2.46.04-.6,0-1.83.26-1.96.48-.24,1.44-.35,1.96-.49.51-.14,1-.2,1.53-.27.25-.03.58.24.58.4"
        style="fill: #715091;" />
      <path
        d="M41.62,29.61c1.84.06,4.35-.32,5.11,1.86.24.69.26,1.43.38,2.14.06.36.19,1.38-.09,1.47-.35.11-.36.1-.88.08-.66-.03-2.07,0-2.72.03-.44.02-.88.02-1.32.04-.4,0-.3-.45-.33-.72,0-.06-.06-.87-.08-1.01-.03-.31-.03-.66-.14-.95-.08-.2-.26-.47-.44-.59-.53-.39-1.7-.41-2.09-.13-.12.08-.22.15-.42.45-.07.11-.16.72-.14,1,.01.54-.04,1.06.21,1.47.44.71,1.43.95,2.18,1.13.67.16,2.67.65,2.99.75,1.05.26,2.21.49,2.92,1.39.77.99.83,2.52.88,3.71.03.71-.29,1.82-.86,2.34-1.56,1.43-3.57,1.36-5.59,1.45-1.82.09-3.74.21-5.49-.39-.2-.07-.89-.55-1.04-.71-.7-.84-1.22-1.94-1.08-3.17.07-.66.33-.66.93-.66,1.54,0,3.09-.06,4.63.06.49.03.53-.05.53.52s-.28,1.43.1,1.93c.34.45,1.42.48,1.94.43.51-.05.79-.16,1.06-.63.25-.43.29-.95.28-1.44-.01-.6-.11-1.2-.16-1.79-.04-.51-.11-1.04-.48-1.43-.57-.61-1.58-.61-2.33-.85-.98-.32-1.96-.63-2.93-.98-.92-.33-1.76-.4-2.27-1.36-.45-.85-.37-1.85-.25-2.77.05-.39.06-.82.2-1.17.61-1.51,2.17-1.4,3.51-1.47.13,0,2.44,0,3.27.02"
        style="fill: #715091;" />
      <path
        d="M64.78,30.87c.19-.11.58-.03.75-.02.13,0,1,.02,1.3.03.2,0,.56-.09.74.03.21.15.05.77.01.99-.04.21-.06.31-.09.5,0,.13.04.2.11.19,1.08.03,2.11.04,3.19.07.39-.02.7-.02,1.01,0,.32.01.66-.05.97.03.46.12.24.47.19.81-.05.34.05.61-.36.7-.38.08-.8,0-1.19-.01-.89-.04-3.14-.11-3.54-.11-.12,0-.3-.05-.36.08-.13.28-.03.99-.02,1.25,0,.34.07.55.07.89,0,.71-.09,1.4-.12,2.07-.01.35-.17,2.2-.23,2.54-.11.39-.13,1.44-.19,1.93-.03.28.07.64-.21.82-.16.1-.46.06-.67.06-.43,0-.86.02-1.28,0-.24-.01-.57.14-.69-.15-.1-.24.1-.68.15-.93.14-.73.28-1.46.42-2.19.07-.32.36-3.34.37-3.53.02-.73-.05-1.46-.08-1.6-.1-.4-.02-.89-.03-1.07.04-.26-.21-.18-.35-.17-.14,0-.25,0-.37.01-.18,0-.35.02-.53.03-.33.02-.67.03-1,.01-.31-.02-.27-.17-.3-.3-.03-.14-.02-.28-.04-.42-.03-.27-.03-.71.12-.94.08-.12.23-.06.37-.07.39-.04.82.08,1.21.08.09,0,.68.06.74-.01.07-.09-.05-.39-.05-.5,0-.18-.17-.83-.08-1,.01-.03.04-.06.08-.08"
        style="fill: #715091;" />
      <path
        d="M50.9,32.47c.21-.13.7.03.91.03.18,0,1.43-.01,1.87.02.17.01.56-.03.71.04.26.13.05.38,0,.61-.03.17-.16.38-.07.53.09.15,3.84.13,4.03.12.2-.01.5,0,.7,0,.46,0,.95,0,1.41.02.19.01.4.02.57.05.28.05.25.33.2.54-.05.19-.07.55-.25.68-.16.11-.49.05-.67.06-.63.03-1.26,0-1.89-.02-1.33-.02-2.59,0-3.9-.04-.06,0-.22-.01-.23.07-.09.14,0,.33.03.68.03.35.04.77.04.92-.01.4-.12,1.85-.15,2.18,0,.16-.04,1.52-.08,1.87-.06.38-.27,2.6-.66,2.83-.23.13-.61.08-.9.08-.51,0-1.57.04-1.72.04-.08,0-.54,0-.6-.03-.3-.12-.02-.84.04-1.07.17-.61.33-1.22.49-1.83.08-.15.14-.44.25-.76.07-.23.12-.71.13-.88.08-.4.09-.73.09-1.12,0-.96.04-2.26-.04-2.89-.16-.11-.41-.06-.56-.06-.46,0-.91.03-1.37.04-.32,0-.65.06-.97-.02-.38-.09-.36-.31-.32-.66.02-.26.05-.38.09-.65.05-.39.53-.23.84-.21.51,0,1.03.02,1.54.02.13,0,.46.06.53,0,.02-.01-.07-.28-.08-.32,0-.02-.24-.66-.07-.83.01-.01.02-.02.04-.03"
        style="fill: #715091;" />
      <path
        d="M75.15,35.03c.93-.01,2.56,0,3.88.33.33.09.76.18,1.04.37.2.13.38.44.46.64.17.43.18.66.14,1.16-.04.25.16.69-.16.77-.2.05-.62.03-.84.02-.75-.02-1.43-.06-1.86-.02-.57.04-.76.05-.9.02-.38-.09-.23-.36-.24-.69,0-.35,0-.9-.23-1.18-.18-.21-.52-.22-.94-.22s-.78.07-1.06.32c-.37.33-.49.84-.6,1.3-.13.54-.2,1.23-.24,1.79-.04.61-.05.89-.03,1.49.01.25.04.86.16,1.06.25.38,1.04.47,1.39.44.35-.03.56-.05,1.02-.45.29-.25-.02-.64.48-.7.34-.05.72,0,1.06,0,.62,0,1.25-.02,1.88.01.23-.03.2.13.21.19-.01.41-.06.8-.1.94-.44,1.76-5.16,1.53-6.8,1.29-.66-.1-1.33-.31-1.89-.61-.48-.26-.83-.79-.97-1.28-.13-.42-.06-.84-.08-1.32-.01-.34,0-1.65.03-1.91.01-.53.21-1.93.3-2.16.18-.44.24-.66.69-.9.45-.24.97-.36,1.47-.41.84-.09,1.79-.28,2.71-.28"
        style="fill: #715091;" />
      <path
        d="M59.55,36.58c.53-.07,1.08-.08,1.61.02.35.06.83.16,1.04.47.23.34.06.78-.22,1.02-.32.27-.65.4-1.03.57-.44.19-1,.32-1.47.39-.28.04-.56.05-.84.03-.49-.05-1.51-.28-1.35-.99.16-.71.95-1.16,1.59-1.35.21-.06.44-.11.67-.14"
        style="fill: #715091;" />
      <path
        d="M59.68,40.22c.33,0,1.57-.08,1.81-.01.17.05.17.25.15.4-.05.23-.09.66-.09.83,0,.1,0,.21-.01.31,0,.28-.07,1.32-.06,1.56,0,.36-.03.77-.03,1.13,0,.33-.03.66-.06.98-.02.29.15.59.03.88-.08.19-.33.14-.51.14-1.05,0-3.48.01-3.63.02-.12,0-.31.05-.41-.03-.11-.08-.25-.57-.27-.73-.02-.2-.02-.28.2-.27.25.01.51,0,.76.01.12-.02.24-.01.36,0,.24,0,.27-.15.27-.4,0-.19,0-.21,0-.4,0-.84-.02-1.56-.08-2.39-.01-.3,0-.64-.01-.95,0-.25-.09-.94-.05-1.05.05-.11.41-.05.53-.05.21,0,.93.02,1.08.01"
        style="fill: #715091;" />
      <path
        d="M61.43,27.56c-.31.06-1.11.08-1.11.08l-.11.31s.4-.02.69.02c0,0,.1,0,.1.11,0,.11-.02.23-.02.23,0,0,0,.07-.11.09-.11.02-.87.02-.87.02l-.13.41s-.05.09.05.07c.09-.02.89-.15.99-.13.11.03.23.18.19.32-.05.17-.85.65-1.33.6,0,0-.25,0-.45-.34-.2-.33.09-.94.09-.94,0,0-.12-.29-.02-.39,0,0,.05-.05.21-.06l.2-.39s-.22,0-.35-.16c-.12-.16-.13-.23-.03-.27.1-.05,1.02-.19,1.65-.15,0,0,.22-.02.4.37,0,0,.09.16-.07.19"
        style="fill: #715091;" />
      <path
        d="M59.02,29.03c-.09.19-.31.39-.57.25-.26-.13-.65-1-.65-1,0,0-.15-.32-.18-.31,0,0-.03-.06-.06.28-.02.35-.02,1.02-.17,1.13-.13.1-.29.06-.37-.07-.07-.13-.1-.42-.04-.93.06-.51.2-1.05.35-1.22.16-.17.28-.04.33,0,0,0,.19.19.51.74l.06.09s.29.53.32.53c0,0,.02.02.06,0,.02,0,.01-.17.01-.17,0,0-.05-.56-.3-1.51,0,0-.04-.12,0-.23.04-.11.14-.06.14-.06,0,0,.43.23.61.94.19.71.03,1.34-.06,1.53"
        style="fill: #715091;" />
      <path
        d="M56.95,27.17c-.04.07-.06.18-.24.2,0,0-1.75.07-1.83.19,0,0-.06.07.03.09.09.02.49.09.68.1.2,0,.88.03,1.12.35,0,0,.14.15.13.48-.02.34-.08.46-.21.58-.14.12-1.34.61-2.08-.23,0,0-.34-.4.14-.68,0,0,.35-.2,1.2.07,0,0,.26.1.24.2,0,.1-.22.2-.51.19-.29-.02-.5-.16-.46-.13.04.02-.3-.17-.41-.06-.11.11-.09.19.02.25.26.17,1.28.13,1.6-.2,0,0,.13-.13-.06-.25-.18-.11-.71-.19-.91-.2-.2-.02-.92-.02-1.02-.22,0,0-.11-.13.02-.5.13-.39.99-.51,1.36-.54,0,0,1.02,0,1.2.21,0,0,.02.05,0,.12"
        style="fill: #715091;" />
      <path
        d="M54,29.37c-.12.09-.39.04-.46-.06-.07-.1-.09-.46-.05-1.02.03-.57.06-1.28.19-1.39.13-.11.21,0,.26.07.05.08.12.17.13.35,0,.18.02,1.13.02,1.13,0,0,.03.85-.09.94"
        style="fill: #715091;" />
      <path
        d="M63.63,27.31c-.51-.38-1.39.75-1.77,1.31-.05-.29.16-.65.16-.65,0,0,.33-.54.38-.65.05-.11.08-.34.02-.36-.05-.02-.13.05-.13.05-.73.61-.84,1.32-.84,1.32-.08.38,0,.65.1.83-.42.83-.62,1.55-.58,1.98.03.33.26.57.4.63.14.06.17-.11.17-.11.14-.89.36-1.48.62-2.06.73.19,1.31-.51,1.51-.85.26-.43.28-1.19-.04-1.43M63.11,28.72c-.09.08-.37.23-.66.25.29-.53.65-.91.84-1.12.23-.24.25-.02.25-.02.04.44-.29.76-.43.88"
        style="fill: #715091;" />
      <path
        d="M55.02,24.84h0c-.08-.28-.6-.25-.6-.25-1.05.06-1.42.77-1.46.96-.05.17-.03.41.16.6-.06.16-.02.23,0,.27.02.05.1.22.21.21.07,0,.13-.06.22-.21.2.09.46.14.81.03.58-.17,1.13-.71,1.14-1.15.02-.44-.47-.46-.47-.46M53.33,25.78c-.05-.08-.04-.18.07-.35.15-.22.36-.32.62-.34-.33.2-.57.5-.69.68M55.08,25.5c-.31.58-.95.59-1.32.51.24-.35.76-.77,1.1-.82.38-.05.23.31.23.31"
        style="fill: #715091;" />
      <path
        d="M50.73,24.76s-2.38-1.31-4.38-.68c0,0-.13,0-.24.16-.12.16-.22.27-.16.39.06.13.36.19.64.11,0,0,.13-.08-.03-.13-.15-.06-.24-.07-.24-.07,0,0-.08-.02,0-.06.08-.04.99-.31,2.58.16,1.59.46,3.72,1.81,3.62,3.16-.1,1.35-2.21,1.35-2.21,1.35,0,0-.43,0-1.01-.12,0-.44,0-1.19.02-1.65.82.02,1.65.19,1.71.39,0,0,.04.09-.15.18-.17.07-.31.13-.16.2,0,0,.2.1.34.1.13,0,.46-.15.5-.51.05-.37-.37-.71-1.01-.84-.48-.1-.74-.14-1.19-.13,0-.4-.03-.9-.12-1.02-.1-.16-.22-.37-.32-.14-.09.2-.16.63-.2,1.2-.68.09-1.43.35-1.67.63-.25.31-.01.57,0,.59.02.03.49.76,1.54,1.28.02.19.05.4.12.52.16.25.47.09.5.05.03-.03.06-.11.07-.3.47.13,1.34.29,2.27.04,1.41-.39,1.63-1.24,1.69-1.76.06-.52-.29-1.87-2.52-3.08M48.61,28.82c-.49-.19-1-.49-1.41-.95,0,0-.15-.17.08-.27.2-.09.65-.2,1.43-.23-.02.39-.02.67-.1,1.45"
        style="fill: #715091;" />
    </g>
  </g>
</svg>