<?xml version="1.0" encoding="UTF-8"?>
<svg id="Layer_1" data-name="Layer 1" data-size="34mm x 26mm" xmlns="http://www.w3.org/2000/svg" viewBox="0 0 149.65 150.29">

  <text id="quantity" style="font-family: Arial-BoldMT, Arial; font-size: 15px; font-weight: 700; isolation: isolate;" y="97%" x="50%" text-anchor="middle"></text>

  <g>
    <rect x="36.03" y=".25" width="98.25" height="86.89" style="fill: #fff;"/>
    <rect x="36.03" y=".25" width="98.25" height="86.89" style="fill: none; stroke: #808285; stroke-width: .5px;"/>
    <line x1="11.35" y1="2.04" x2="11.35" y2="41.97" style="fill: none; stroke: #00aeef; stroke-dasharray: 1.5 2; stroke-width: .5px;"/>
    <line x1="19.77" y1="2.7" x2="2.68" y2="2.7" style="fill: none; stroke: #00aeef; stroke-width: .5px;"/>
    <g>
      <path d="M7.02,33.72v.38H.86c.52.49.81,1.16.88,1.85h-.33c-.12-.8-.59-1.48-1.29-1.89v-.34h6.9Z" style="fill: #00aeef;"/>
      <path d="M4.74,30.73c1.28.05,2.07-.74,2.07-2.01,0-1.02-.6-1.98-1.7-1.98-1.32,0-1.67,1.18-1.59,2.32h-.33c.04-1.01-.25-2.16-1.45-2.16-.97,0-1.41.98-1.41,1.82,0,1.21.83,1.79,1.97,1.84v.38c-1.36,0-2.3-.85-2.3-2.22,0-1.11.51-2.2,1.74-2.2.82,0,1.47.54,1.58,1.35h.02c.11-.94.84-1.51,1.77-1.51,1.36,0,2.03,1.08,2.03,2.36,0,1.52-.86,2.46-2.4,2.39v-.38Z" style="fill: #00aeef;"/>
      <path d="M1.88,22.56v-.38h1.05v-.02c-.65-.16-1.17-.84-1.17-1.61,0-.98.56-1.44,1.09-1.55v-.02c-.7-.3-1.09-.8-1.09-1.63,0-.93.54-1.61,1.75-1.61h3.51v.38h-3.52c-1.31,0-1.41.93-1.41,1.23,0,.93.66,1.61,1.89,1.61h3.04v.38h-3.52c-1.29,0-1.41.88-1.41,1.21,0,.73.57,1.63,1.89,1.63h3.04v.38H1.88Z" style="fill: #00aeef;"/>
      <path d="M1.88,14.6v-.38h1.05v-.02c-.65-.16-1.17-.84-1.17-1.61,0-.98.56-1.44,1.09-1.55v-.02c-.7-.3-1.09-.8-1.09-1.63,0-.93.54-1.61,1.75-1.61h3.51v.38h-3.52c-1.31,0-1.41.93-1.41,1.23,0,.93.66,1.61,1.89,1.61h3.04v.38h-3.52c-1.29,0-1.41.88-1.41,1.21,0,.73.57,1.63,1.89,1.63h3.04v.38H1.88Z" style="fill: #00aeef;"/>
    </g>
    <line x1="11.35" y1="44.1" x2="11.35" y2="84.03" style="fill: none; stroke: #00aeef; stroke-dasharray: 1.5 2; stroke-width: .5px;"/>
    <line x1="19.77" y1="44.76" x2="2.68" y2="44.76" style="fill: none; stroke: #00aeef; stroke-width: .5px;"/>
    <line x1="19.77" y1="84.76" x2="2.68" y2="84.76" style="fill: none; stroke: #00aeef; stroke-width: .5px;"/>
    <g>
      <path d="M7.02,75.78v.38H.86c.52.49.81,1.16.88,1.85h-.33c-.12-.8-.59-1.48-1.29-1.89v-.34h6.9Z" style="fill: #00aeef;"/>
      <path d="M4.74,72.79c1.28.05,2.07-.74,2.07-2.01,0-1.02-.6-1.98-1.7-1.98-1.32,0-1.67,1.18-1.59,2.32h-.33c.04-1.01-.25-2.16-1.45-2.16-.97,0-1.41.98-1.41,1.82,0,1.21.83,1.79,1.97,1.84v.38c-1.36,0-2.3-.85-2.3-2.22,0-1.11.51-2.2,1.74-2.2.82,0,1.47.54,1.58,1.35h.02c.11-.94.84-1.51,1.77-1.51,1.36,0,2.03,1.08,2.03,2.36,0,1.52-.86,2.46-2.4,2.39v-.38Z" style="fill: #00aeef;"/>
      <path d="M1.88,64.62v-.38h1.05v-.02c-.65-.16-1.17-.84-1.17-1.61,0-.98.56-1.44,1.09-1.55v-.02c-.7-.3-1.09-.8-1.09-1.63,0-.93.54-1.61,1.75-1.61h3.51v.38h-3.52c-1.31,0-1.41.93-1.41,1.23,0,.93.66,1.61,1.89,1.61h3.04v.38h-3.52c-1.29,0-1.41.88-1.41,1.21,0,.73.57,1.63,1.89,1.63h3.04v.38H1.88Z" style="fill: #00aeef;"/>
      <path d="M1.88,56.66v-.38h1.05v-.02c-.65-.16-1.17-.84-1.17-1.61,0-.98.56-1.44,1.09-1.55v-.02c-.7-.3-1.09-.8-1.09-1.63,0-.93.54-1.61,1.75-1.61h3.51v.38h-3.52c-1.31,0-1.41.93-1.41,1.23,0,.93.66,1.61,1.89,1.61h3.04v.38h-3.52c-1.29,0-1.41.88-1.41,1.21,0,.73.57,1.63,1.89,1.63h3.04v.38H1.88Z" style="fill: #00aeef;"/>
    </g>
    <line x1="149.65" y1="3.03" x2="20.65" y2="3.03" style="fill: none; stroke: #00a94f; stroke-dasharray: 4 2;"/>
    <line x1="149.65" y1="85.82" x2="20.65" y2="85.82" style="fill: none; stroke: #00a94f; stroke-dasharray: 4 2;"/>
    <line x1="149.65" y1="43.69" x2="20.65" y2="43.69" style="fill: none; stroke: #231f20; stroke-dasharray: 3 3;"/>
    <line x1="36.89" y1="101.79" x2="133.42" y2="101.79" style="fill: none; stroke: #00aeef; stroke-dasharray: 1.5 2; stroke-width: .5px;"/>
    <line x1="36.94" y1="94.6" x2="36.94" y2="110.52" style="fill: none; stroke: #00aeef; stroke-width: .5px;"/>
    <line x1="133.99" y1="94.21" x2="133.99" y2="109.74" style="fill: none; stroke: #00aeef; stroke-width: .5px;"/>
    <g>
      <path d="M74.12,110.11c-.05,1.28.74,2.07,2.01,2.07,1.02,0,1.98-.6,1.98-1.7,0-1.32-1.18-1.67-2.32-1.59v-.33c1.01.04,2.16-.25,2.16-1.45,0-.97-.98-1.41-1.82-1.41-1.21,0-1.79.83-1.84,1.97h-.38c0-1.36.85-2.3,2.22-2.3,1.11,0,2.2.51,2.2,1.74,0,.82-.54,1.47-1.35,1.58v.02c.94.11,1.51.84,1.51,1.77,0,1.36-1.08,2.03-2.36,2.03-1.52,0-2.46-.86-2.39-2.4h.38Z" style="fill: #00aeef;"/>
      <path d="M82.97,105.49v4.81h1.16v.33h-1.16v1.76h-.38v-1.76h-3.36v-.38l3.36-4.76h.38ZM82.59,106.01h-.02l-2.96,4.29h2.98v-4.29Z" style="fill: #00aeef;"/>
      <path d="M87.85,107.25h.38v1.05h.02c.16-.65.84-1.17,1.61-1.17.98,0,1.44.56,1.55,1.09h.02c.3-.7.8-1.09,1.63-1.09.93,0,1.61.54,1.61,1.75v3.51h-.38v-3.52c0-1.31-.93-1.41-1.23-1.41-.93,0-1.61.66-1.61,1.89v3.04h-.38v-3.52c0-1.29-.88-1.41-1.21-1.41-.73,0-1.63.57-1.63,1.89v3.04h-.38v-5.14Z" style="fill: #00aeef;"/>
      <path d="M95.81,107.25h.38v1.05h.02c.16-.65.84-1.17,1.61-1.17.98,0,1.44.56,1.55,1.09h.02c.3-.7.8-1.09,1.63-1.09.93,0,1.61.54,1.61,1.75v3.51h-.38v-3.52c0-1.31-.93-1.41-1.23-1.41-.93,0-1.61.66-1.61,1.89v3.04h-.38v-3.52c0-1.29-.88-1.41-1.21-1.41-.73,0-1.63.57-1.63,1.89v3.04h-.38v-5.14Z" style="fill: #00aeef;"/>
    </g>
    <g>
      <g>
        <path d="M63.82,69.67l-.68-2.68h-.01l-.68,2.68h-.6l-1.08-3.37h.61l.76,2.75h.01l.68-2.75h.61l.7,2.75h.01l.76-2.75h.57l-1.07,3.37h-.58Z" style="fill: #00bce1;"/>
        <path d="M68.75,69.67l-.68-2.68h-.01l-.68,2.68h-.6l-1.08-3.37h.61l.76,2.75h.01l.68-2.75h.61l.7,2.75h.01l.76-2.75h.57l-1.07,3.37h-.59Z" style="fill: #00bce1;"/>
        <path d="M73.69,69.67l-.68-2.68h-.01l-.68,2.68h-.6l-1.08-3.37h.61l.76,2.75h.01l.68-2.75h.61l.7,2.75h.01l.76-2.75h.57l-1.07,3.37h-.58Z" style="fill: #00bce1;"/>
        <path d="M76.36,68.94v.72h-.72v-.72h.72Z" style="fill: #00bce1;"/>
        <path d="M79.78,69.67v-.46h-.01c-.09.19-.23.32-.43.4-.2.08-.41.12-.65.12-.26,0-.49-.05-.68-.14-.19-.1-.35-.22-.48-.38-.13-.16-.22-.35-.29-.56-.06-.21-.1-.44-.1-.68s.03-.46.09-.68c.06-.21.16-.4.29-.56.13-.16.29-.28.48-.38.19-.09.42-.14.67-.14.09,0,.18,0,.28.03.1.02.2.05.3.09.1.04.19.1.28.16.09.07.17.15.22.25h.01v-1.73h.55v4.65h-.55ZM77.79,68.47c.04.15.1.28.19.4.08.12.19.21.33.28.13.07.29.1.47.1s.34-.04.48-.11c.13-.07.24-.17.32-.29.08-.12.14-.25.18-.41.04-.15.05-.31.05-.46,0-.16-.02-.32-.06-.48-.04-.15-.1-.29-.18-.41-.09-.12-.19-.21-.33-.28-.13-.07-.3-.11-.49-.11s-.34.04-.48.11c-.13.07-.23.17-.31.29-.08.12-.13.26-.17.42-.04.16-.05.32-.05.48,0,.16.02.31.06.46Z" style="fill: #00bce1;"/>
        <path d="M81.77,66.3v3.37h-.55v-3.37h.55ZM81.22,65.7v-.68h.55v.68h-.55Z" style="fill: #00bce1;"/>
        <path d="M83.05,68.91c.05.09.12.15.21.2.08.05.18.09.29.11.11.02.22.03.33.03.09,0,.18,0,.27-.02.1-.01.18-.04.26-.07.08-.04.15-.09.2-.15.05-.07.08-.15.08-.26,0-.14-.05-.25-.16-.33-.11-.07-.24-.13-.41-.18-.16-.05-.34-.09-.53-.12-.19-.04-.37-.09-.53-.16-.16-.07-.3-.16-.41-.28-.11-.12-.16-.29-.16-.51,0-.17.04-.32.11-.44.08-.12.17-.22.29-.3s.25-.13.4-.17c.15-.04.3-.05.45-.05.19,0,.37.02.53.05.16.03.3.09.43.17.12.08.22.19.3.33.07.14.12.31.13.51h-.55c-.01-.11-.04-.2-.09-.27-.05-.07-.11-.13-.18-.17-.07-.04-.16-.08-.24-.1-.09-.02-.18-.03-.27-.03-.08,0-.17,0-.25.02-.08.01-.16.04-.23.07-.07.03-.13.08-.17.13-.04.05-.06.12-.06.21,0,.09.03.17.1.24.07.06.15.12.26.16.1.04.22.08.35.1.13.03.26.06.39.09.14.03.27.07.41.11.13.04.25.1.35.17.1.07.18.16.25.27.06.11.09.24.09.4,0,.2-.04.37-.13.51-.08.13-.19.24-.33.33-.14.08-.29.14-.46.17-.17.03-.34.05-.51.05-.19,0-.36-.02-.53-.06-.17-.04-.32-.1-.45-.19-.13-.09-.24-.21-.31-.35-.08-.15-.12-.32-.13-.53h.55c0,.12.03.22.08.31Z" style="fill: #00bce1;"/>
        <path d="M86.41,66.3v.53h.01c.23-.41.59-.61,1.09-.61.22,0,.41.03.55.09.15.06.27.15.36.25.09.11.16.24.19.39.04.15.06.32.06.5v2.21h-.55v-2.28c0-.21-.06-.37-.18-.49-.12-.12-.29-.18-.5-.18-.17,0-.32.03-.44.08-.12.05-.23.13-.31.22-.08.1-.15.21-.19.33-.04.13-.06.27-.06.42v1.9h-.55v-3.37h.52Z" style="fill: #00bce1;"/>
        <path d="M91.89,69.45c-.25.19-.57.29-.95.29-.27,0-.5-.04-.7-.13-.2-.09-.36-.21-.5-.36-.13-.16-.24-.34-.3-.56-.07-.22-.11-.45-.11-.71,0-.26.04-.49.12-.7.08-.21.19-.4.33-.55.14-.16.31-.28.5-.36.19-.09.4-.13.63-.13.3,0,.55.06.75.19.2.12.36.28.48.47.12.19.2.4.25.63.05.23.06.44.05.64h-2.52c0,.15.01.29.05.42.04.13.1.25.19.35.09.1.2.18.33.24.13.06.29.09.48.09.23,0,.43-.05.57-.16.15-.11.25-.27.3-.5h.55c-.07.38-.24.66-.49.85ZM91.76,67.29c-.05-.12-.12-.22-.2-.3-.08-.09-.18-.15-.3-.2-.11-.05-.24-.07-.38-.07s-.27.02-.39.07c-.11.05-.21.12-.29.21-.08.09-.15.19-.2.3-.05.11-.08.24-.09.37h1.93c0-.13-.04-.25-.09-.37Z" style="fill: #00bce1;"/>
        <path d="M94.13,70.53c-.06.11-.13.2-.21.28-.08.07-.16.12-.25.16-.09.03-.2.05-.33.05-.06,0-.13,0-.19-.01-.06,0-.13-.02-.19-.05v-.51c.05.02.11.03.16.05.05.02.11.03.17.03.11,0,.2-.03.27-.08.07-.05.13-.13.18-.23l.23-.57-1.34-3.35h.63l.98,2.75h.01l.94-2.75h.58l-1.46,3.81c-.06.17-.13.3-.19.42Z" style="fill: #00bce1;"/>
        <path d="M96.63,68.94v.72h-.72v-.72h.72Z" style="fill: #00bce1;"/>
        <path d="M99.6,66.89c-.14-.12-.33-.18-.56-.18-.2,0-.37.04-.5.11-.13.07-.24.17-.32.29-.08.12-.14.26-.17.42-.03.16-.05.32-.05.49,0,.16.02.31.06.46.04.15.09.28.17.39.08.11.18.21.31.28.13.07.27.1.45.1.27,0,.49-.07.64-.22.15-.14.25-.34.28-.61h.57c-.06.42-.22.74-.47.96-.25.23-.59.34-1.02.34-.26,0-.48-.04-.68-.12-.2-.08-.36-.2-.5-.35-.13-.15-.23-.33-.3-.54-.07-.21-.1-.44-.1-.69s.03-.49.1-.71c.07-.22.16-.41.3-.57.13-.16.3-.29.5-.38.2-.09.43-.14.7-.14.19,0,.37.02.54.07.17.04.31.11.44.21.13.1.23.22.32.36.08.14.13.32.16.52h-.57c-.04-.21-.13-.38-.27-.49Z" style="fill: #00bce1;"/>
        <path d="M101.01,67.29c.07-.21.17-.4.31-.56.14-.16.31-.28.51-.38.2-.09.44-.14.7-.14s.5.05.71.14c.2.09.37.22.51.38.14.16.24.34.31.56.07.21.1.45.1.69s-.03.48-.1.69c-.07.21-.17.4-.31.56-.14.16-.31.28-.51.37-.2.09-.44.13-.71.13s-.5-.04-.7-.13c-.2-.09-.38-.21-.51-.37-.14-.16-.24-.34-.31-.56-.07-.21-.1-.44-.1-.69s.03-.48.1-.69ZM101.57,68.53c.05.16.13.29.22.4.1.11.21.19.34.24.13.06.26.09.41.09s.28-.03.41-.09c.13-.06.24-.14.34-.24.09-.11.17-.24.22-.4.05-.16.08-.34.08-.54s-.03-.39-.08-.54c-.05-.16-.13-.29-.22-.4-.1-.11-.21-.19-.34-.25-.13-.06-.26-.08-.41-.08s-.28.03-.41.08c-.13.06-.24.14-.34.25-.1.11-.17.24-.22.4-.05.16-.08.34-.08.54s.03.39.08.54Z" style="fill: #00bce1;"/>
        <path d="M105.34,66.3v.49h.01c.25-.38.62-.57,1.09-.57.21,0,.4.04.57.13.17.09.29.23.36.44.11-.18.26-.32.45-.42.18-.1.39-.15.61-.15.17,0,.32.02.46.05.14.04.25.1.35.17.1.08.17.18.23.3.06.12.08.27.08.45v2.47h-.55v-2.21c0-.1-.01-.2-.03-.29s-.05-.17-.1-.24c-.05-.07-.11-.12-.2-.16-.08-.04-.19-.06-.33-.06-.27,0-.49.08-.65.23-.16.16-.23.36-.23.63v2.1h-.55v-2.21c0-.11,0-.21-.03-.3-.02-.09-.05-.17-.1-.24-.05-.07-.11-.12-.19-.16-.08-.04-.18-.05-.31-.05-.16,0-.3.03-.41.1-.12.07-.21.14-.28.23-.07.09-.12.19-.16.28-.03.1-.05.18-.05.24v2.1h-.55v-3.37h.52Z" style="fill: #00bce1;"/>
      </g>
      <g>
        <path d="M70.49,60.51c0,.68-.24,1.26-.72,1.74-.48.48-1.06.72-1.74.72s-1.26-.24-1.74-.72c-.48-.48-.72-1.06-.72-1.74s.24-1.26.72-1.74c.48-.48,1.06-.72,1.74-.72s1.26.24,1.74.72c.48.48.72,1.06.72,1.74ZM70.19,60.51c0-.6-.21-1.11-.63-1.53-.42-.42-.93-.63-1.53-.63s-1.11.21-1.53.63c-.42.42-.63.93-.63,1.53s.21,1.11.63,1.53c.42.42.93.63,1.53.63s1.11-.21,1.53-.63c.42-.42.63-.93.63-1.53ZM69.08,61.7c-.14.09-.3.16-.46.22-.17.05-.33.08-.49.08-.45,0-.81-.14-1.09-.43-.28-.28-.42-.65-.42-1.1s.14-.81.43-1.09c.29-.29.65-.43,1.09-.43.17,0,.34.03.51.08.17.05.31.13.44.23v.46c-.15-.12-.3-.22-.45-.29-.16-.07-.31-.1-.46-.1-.35,0-.63.1-.83.3-.2.2-.3.48-.3.83s.1.62.3.83c.2.21.47.31.79.31.17,0,.34-.03.49-.09.16-.06.31-.15.46-.27v.45Z" style="fill: #00bce1;"/>
        <path d="M74.58,60.51c0,.78-.22,1.37-.67,1.77-.45.4-1.11.6-1.98.6h-.9v-4.74h.93c.84,0,1.49.21,1.94.62.45.41.68,1,.68,1.76ZM74.05,60.51c0-.61-.17-1.07-.52-1.39-.35-.32-.86-.48-1.52-.48h-.44v3.74h.39c.72,0,1.25-.15,1.59-.46.34-.3.51-.78.51-1.42Z" style="fill: #00bce1;"/>
        <path d="M75.98,58.79c0,.09-.03.17-.1.24-.07.07-.15.1-.24.1s-.18-.03-.24-.1c-.07-.07-.1-.15-.1-.24s.03-.18.1-.24c.07-.07.15-.1.24-.1s.18.03.24.1c.07.07.1.15.1.24ZM75.88,62.88h-.5v-2.93h.5v2.93Z" style="fill: #00bce1;"/>
        <path d="M78.71,62.09c0,.27-.1.49-.29.65-.2.16-.46.24-.8.24-.26,0-.47-.05-.65-.16-.18-.1-.31-.25-.39-.45l.43-.27c.06.14.14.25.25.32.11.07.24.1.39.1.17,0,.31-.04.41-.11.1-.07.15-.17.15-.29,0-.14-.05-.24-.14-.31s-.27-.16-.54-.25c-.26-.1-.46-.22-.59-.37-.13-.15-.2-.32-.2-.52,0-.25.08-.45.25-.6.17-.15.4-.22.71-.22.22,0,.41.04.55.13.15.09.26.23.35.42l-.41.25c-.05-.12-.12-.21-.2-.27-.08-.06-.18-.09-.31-.09-.14,0-.25.03-.33.1-.08.06-.12.15-.12.26s.04.21.12.28.23.15.45.22c.32.1.56.23.7.37s.21.33.21.55Z" style="fill: #00bce1;"/>
        <path d="M81.84,62.88h-.5v-1.75c0-.28-.05-.49-.15-.63-.1-.13-.26-.2-.48-.2-.25,0-.44.1-.58.3-.13.2-.2.49-.2.87v1.41h-.5v-2.93h.5v.43c.09-.17.21-.3.37-.39.16-.09.35-.13.58-.13.3,0,.54.1.71.3.17.2.26.48.26.83v1.89Z" style="fill: #00bce1;"/>
        <path d="M85.34,61.49h-2.36c.02.32.11.56.28.74.17.18.39.26.68.26.21,0,.4-.04.55-.13s.27-.21.36-.38l.42.22c-.14.26-.31.45-.54.58s-.49.19-.79.19c-.44,0-.79-.14-1.06-.43-.26-.29-.39-.67-.39-1.15,0-.44.14-.81.42-1.1.28-.29.62-.44,1.03-.44s.76.13,1.02.4c.26.27.39.62.39,1.06v.18ZM84.84,61.13c-.03-.25-.12-.45-.28-.59s-.37-.21-.63-.21-.46.07-.63.22c-.17.14-.27.34-.3.58h1.84Z" style="fill: #00bce1;"/>
        <path d="M88.39,59.94l-1.91,4.57h-.56l.77-1.78-1.25-2.79h.55l.96,2.21.89-2.21h.55Z" style="fill: #00bce1;"/>
        <path d="M91.97,57.82l-3.18,6-.34-.19,3.18-6,.34.19Z" style="fill: #00bce1;"/>
        <path d="M95,59.47c0,.43-.14.76-.43.98-.28.22-.7.34-1.25.34h-.22v2.09h-.53v-4.74h.75c.56,0,.98.11,1.26.33.28.22.42.55.42.99ZM94.47,59.47c0-.29-.09-.5-.26-.63-.18-.13-.46-.2-.87-.2h-.23v1.65h.23c.41,0,.7-.06.87-.19s.25-.34.25-.63Z" style="fill: #00bce1;"/>
        <path d="M96.17,58.79c0,.09-.03.17-.1.24-.07.07-.15.1-.24.1s-.18-.03-.24-.1c-.07-.07-.1-.15-.1-.24s.03-.18.1-.24c.07-.07.15-.1.24-.1s.18.03.24.1c.07.07.1.15.1.24ZM96.07,62.88h-.5v-2.93h.5v2.93Z" style="fill: #00bce1;"/>
        <path d="M99.51,62.88h-.6l-.89-1.18-.87,1.18h-.6l1.18-1.53-1.08-1.41h.6l.79,1.07.77-1.07h.6l-1.09,1.41,1.18,1.53Z" style="fill: #00bce1;"/>
        <path d="M102.63,62.88h-.5v-.48c-.1.19-.24.33-.42.43s-.39.15-.64.15c-.41,0-.75-.15-1.01-.45-.26-.3-.4-.68-.4-1.14s.13-.82.4-1.11c.26-.29.6-.43,1.02-.43.24,0,.44.05.62.14.18.09.32.22.43.4v-.44h.5v2.93ZM102.13,61.38c0-.32-.09-.58-.27-.76-.18-.19-.41-.28-.71-.28s-.53.1-.71.29c-.18.19-.27.45-.27.77s.09.59.27.79c.18.2.41.3.69.3s.52-.1.71-.31c.19-.21.28-.47.28-.8Z" style="fill: #00bce1;"/>
        <path d="M105.18,59.91l-.12.5s-.08-.04-.12-.05-.09-.02-.14-.02c-.25,0-.43.11-.56.32-.13.21-.19.53-.19.95v1.27h-.5v-2.93h.5v.52c.07-.21.17-.36.31-.46.13-.1.31-.14.54-.14.05,0,.1,0,.16.02.05.01.09.02.12.04Z" style="fill: #00bce1;"/>
      </g>
    </g>
    <g>
      <g>
        <path d="M47.21,26.77l1.67-6.21h-3.49l-1.81,6.77c-.15.55.18,1,.73,1h6.25l.42-1.55h-3.76Z" style="fill: #00bce1;"/>
        <g>
          <polygon points="76.61 22.11 77.03 20.56 73.54 20.56 73.12 22.11 76.61 22.11" style="fill: #00bce1;"/>
          <polygon points="70.83 22.11 71.25 20.56 67.76 20.56 67.35 22.11 70.83 22.11" style="fill: #00bce1;"/>
          <path d="M66.5,22.11l.42-1.55h-8.27c-.55,0-1.12.45-1.26,1l-.15.56h9.27Z" style="fill: #00bce1;"/>
          <polygon points="96.37 22.11 96.79 20.56 93.4 20.56 92.98 22.11 96.37 22.11" style="fill: #00bce1;"/>
          <path d="M106.27,22.11l.42-1.55h-8.12c-.55,0-1.12.45-1.26,1l-.15.56h9.11Z" style="fill: #00bce1;"/>
          <polygon points="56.77 20.56 53.28 20.56 52.87 22.11 56.36 22.11 56.77 20.56" style="fill: #00bce1;"/>
          <polygon points="90.49 22.11 90.91 20.56 87.52 20.56 87.1 22.11 90.49 22.11" style="fill: #00bce1;"/>
          <path d="M115.81,20.56h-7.28c-.55,0-1.12.45-1.26,1l-.15.56h9.27l.15-.56c.15-.55-.18-.99-.73-.99Z" style="fill: #00bce1;"/>
          <path d="M96.74,23.66l-.98,3.66c-.15.55.18,1,.73,1h8.12l.42-1.55h-5.63l.42-1.55h5.63l.42-1.55h-9.11Z" style="fill: #00bce1;"/>
          <polygon points="106.7 23.66 105.46 28.32 108.94 28.32 109.78 25.22 112.07 25.22 111.24 28.32 114.72 28.32 115.97 23.66 106.7 23.66" style="fill: #00bce1;"/>
          <path d="M66.08,23.66h-4.78l-.42,1.55h1.45l-.42,1.55h-2.45l.83-3.11h-3.49l-.98,3.66c-.15.55.18,1,.73,1h8.27l1.25-4.66Z" style="fill: #00bce1;"/>
          <polygon points="52.45 23.66 51.2 28.32 54.69 28.32 55.94 23.66 52.45 23.66" style="fill: #00bce1;"/>
          <path d="M86.69,23.66l-.15.55c-.15.55.18,1,.73,1h1.79l-.83,3.11h3.69l.83-3.11h1.79c.55,0,1.12-.45,1.26-1l.15-.56h-9.27Z" style="fill: #00bce1;"/>
          <polygon points="76.2 23.66 66.93 23.66 65.68 28.32 69.17 28.32 70 25.22 72.29 25.22 71.46 28.32 74.95 28.32 76.2 23.66" style="fill: #00bce1;"/>
        </g>
        <path d="M119.98,23.66h-3.07l-1.25,4.66h3.49l.83-3.11h2.29l-.83,3.11h3.49l.71-2.65c.16-.58-.28-1.16-.88-1.16h.07c.67,0,1.25-.46,1.42-1.11l.5-1.85c.15-.55-.18-1-.73-1h-8.27l-.42,1.55h3.05l-.19-.56c-.06-.17.08-.34.26-.32l.9.12s.08.02.11.05l.53.44s.04.03.07.03l2.29.32c.68.09.7,1.07.02,1.19l-2.63.47s-.06.02-.08.04l-.48.39s-.05.03-.09.04l-1.09.18c-.21.03-.37-.19-.26-.38l.25-.43h0Z" style="fill: #00bce1;"/>
        <polygon points="120.33 23.57 120.33 23.57 120.33 23.57 120.33 23.57" style="fill: #00bce1;"/>
        <path d="M120.21,23.22l.41.09s.03.03.02.05l-.38.63s0,.04.02.03l.6-.11s.06-.02.09-.04l.5-.4s.05-.03.07-.03l2.62-.47c.26-.05.27-.37.02-.4l-2.32-.32s-.08-.02-.1-.05l-.5-.41s-.06-.05-.1-.05l-.47-.06s-.03.01-.03.03l.19.54s0,.04-.03.05l-.57.16.18.36-.25.4ZM121.92,22.66s.04-.06.07-.05l1.32.18s.02.03,0,.03l-1.34.21s-.09-.03-.08-.08l.03-.29Z" style="fill: #00bce1;"/>
        <polygon points="79.55 23.66 78.3 28.32 82.16 28.32 83.41 23.66 79.55 23.66" style="fill: #00bce1;"/>
        <polygon points="86.49 22.11 86.9 20.56 77.64 20.56 77.22 22.11 86.49 22.11" style="fill: #00bce1;"/>
        <polygon points="119.95 22.59 52.74 22.59 52.61 23.06 119.92 23.06 120.06 22.83 119.95 22.59" style="fill: #00bce1;"/>
      </g>
      <g>
        <path d="M87.34,17.94c-.14.02-.28.03-.41.05l-.04.2c.26-.02.53-.02.79-.02s.56,0,.83.02l-.05-.2c-.16-.02-.33-.03-.5-.05-.01-.22-.01-1.01-.01-1.31v-.17c0-.3,0-.78.01-.96.16,0,.33.03.43.08.18.09.29.26.29.49,0,.44-.26.64-.62.73l-.03.21c.59-.08,1.27-.4,1.27-1.09,0-.12-.04-.38-.42-.54-.21-.08-.58-.12-1.01-.12h-.98s.03.2.03.2c.14.01.28.02.42.05.01.2.02.82.02.94v.16c0,.34,0,1.09-.02,1.34Z" style="fill: #00bce1;"/>
        <path d="M90.17,15.52c.01.21.02.84.02.96v.23c0,.36,0,1.01-.02,1.24-.14.02-.28.04-.41.05l-.04.2c.23-.01.46-.02.69-.02.28,0,.58,0,.86.02l-.05-.2c-.14-.01-.28-.03-.41-.05-.01-.16-.01-.74-.01-1.21v-.24c0-.43,0-.83.01-.97.14-.02.27-.04.41-.05l.05-.21c-.23.03-.46.03-.69.03-.28,0-.58,0-.86-.02l.05.2c.14.01.27.03.41.05Z" style="fill: #00bce1;"/>
        <path d="M92.78,18.19h.07l-.03-.19c-.1-.01-.2-.03-.29-.04.16-.3.5-.84.64-1.03.1.12.28.35.49.6.25.29.54.61.85.84l.32-.06c-.45-.59-.88-1.2-1.32-1.8.08-.1.27-.32.45-.53.13-.14.25-.29.39-.42l.03-.03c.09-.02.19-.04.28-.06l.02-.19c-.16.01-.32.02-.48.02-.21,0-.42,0-.62-.02l.04.2c.06,0,.12.02.17.03h.07c-.12.22-.39.6-.52.79-.13-.17-.42-.6-.53-.77.1-.02.19-.03.29-.04l.06-.2c-.25.01-.5.02-.74.02-.22,0-.46,0-.67-.03l.03.2c.09.02.19.03.28.06.09.1.26.31.44.54.17.22.36.47.5.64-.18.23-.86,1.13-1.03,1.24-.08.03-.18.04-.27.05l-.07.2c.17-.01.34-.02.52-.02.23,0,.56.02.63.02Z" style="fill: #00bce1;"/>
        <path d="M96.18,18.2l-.04-.2c-.11-.01-.22-.02-.32-.05.05-.29.21-.87.25-1.01.18-.02.66-.04.83-.05.15.34.26.71.38,1.06-.12.02-.25.03-.37.04l-.05.2c.25-.02.5-.02.74-.02s.53-.01.76.03l-.03-.21c-.12-.02-.24-.03-.36-.05-.18-.35-.41-.99-.52-1.29-.14-.38-.33-.92-.4-1.15.09-.02.19-.03.28-.04l.03-.2c-.26.02-.52.02-.78.02-.2,0-.41,0-.61-.02v.2c.11.01.2.02.3.04-.14.38-.79,2.13-.95,2.44-.12.02-.23.04-.35.05l-.03.2c.17-.02.35-.02.53-.02.23,0,.47,0,.71.02ZM96.5,15.7c.09.27.24.71.33.95h-.67c.07-.2.23-.64.34-.95Z" style="fill: #00bce1;"/>
        <path d="M99.08,17.95c-.13.03-.28.04-.41.05l-.04.2c.25-.02.52-.02.78-.02s.5,0,.75.02l-.04-.2c-.14-.01-.28-.02-.41-.05-.01-.22-.02-.76-.02-1v-.05c.07,0,.19-.01.3-.02.25.3,1.12,1.29,1.41,1.43l.34-.05c-.36-.38-.89-1.12-1.17-1.59.29-.18.57-.5.57-.77,0-.25-.15-.42-.38-.51-.28-.11-.8-.12-1.18-.12h-.96s.03.2.03.2c.14.01.28.02.42.04.01.17.02.79.02.93v.24c0,.38,0,1.06-.02,1.26ZM99.69,16.6c0-.26,0-.87.02-1.09.62.02.8.3.8.5,0,.36-.25.52-.41.58-.14.05-.28.07-.4.07v-.06Z" style="fill: #00bce1;"/>
        <path d="M85.63,17.16c.13,0,.23-.1.23-.23s-.1-.23-.23-.23-.23.1-.23.23.1.23.23.23Z" style="fill: #00bce1;"/>
        <path d="M75.98,16.64c0-.07-.02-.12-.03-.15-.03-.1-.07-.2-.18-.22-.06.01-.1.08-.12.13-.08.47-.09.96-.09,1.45,0,.17-.02.42.19.46.1.03.2,0,.28-.07.03-.56-.02-1.08-.05-1.61Z" style="fill: #00bce1;"/>
        <path d="M80.48,17.92c.02.18.11.36.27.45.02.01.06.02.1.03.42.04.76-.18,1.08-.43.04-.08-.02-.18-.07-.25-.3-.07-.59.07-.89.09h0s-.02,0-.02,0c.03-.08.09-.24.15-.44.04,0,.12,0,.18,0,.06,0,.13,0,.16,0,.15,0,.29.01.4-.07.02-.01.02-.03.02-.04,0-.05.02-.15-.02-.21-.18-.06-.4-.04-.6-.04h-.03s.09-.3.09-.3h.4c.1-.02.37,0,.5-.12.01-.16-.13-.3-.27-.37-.44-.03-.86.06-1.28.12-.04,0-.12.01-.12.07.04.19.22.22.37.26v.02s-.12.35-.12.35h-.03s-.06,0-.06,0c-.01,0-.02,0-.04,0-.05.02-.11.04-.09.1.14.27-.14.46-.11.73Z" style="fill: #00bce1;"/>
        <path d="M82.34,17.95s.03.05.04.06c-.07.15-.14.32-.2.49-.08.28-.16.57-.21.86-.01.07-.03.2-.02.31,0,.03,0,.07.02.1.07.15.24.32.4.3.05-.38.14-.75.24-1.11.06-.18.13-.4.22-.63.22.04.39-.03.39-.03.45-.16.88-.59.98-1.06.07-.29-.01-.56-.19-.78-.01-.02-.03-.03-.04-.04-.05-.04-.11-.06-.17-.06-.05,0-.11.03-.14.05-.24.14-.44.33-.63.55,0,0,0,0-.01.01-.11.14-.27.34-.43.6-.04-.05-.04-.15-.04-.22.05-.44.49-.73.44-1.19-.08,0-.14.07-.19.12-.02.02-.04.04-.06.07-.31.39-.56.83-.49,1.36.01.07.04.15.07.21ZM83.12,17.77c.05-.09.1-.18.15-.27.13-.2.27-.4.43-.59,0,0,0,0,.01-.01,0,0,0,0,.01-.01.03-.04.07-.07.11-.11,0,0,.02-.01.04-.01h0s.05.05.06.09c0,.03.02.08.02.14h0s0,0,0,0c0,.23-.1.43-.27.59-.17.14-.37.24-.59.24.01-.02.02-.04.03-.06Z" style="fill: #00bce1;"/>
        <path d="M75.22,15.81s0,.06.01.09c0,.02.01.04.02.06.03.07.06.09.11.09.09,0,.14-.14.17-.18.18.06.4.09.59.04.14-.04.25-.1.37-.18.2-.13.38-.3.51-.51.04-.07.06-.14.07-.19.02-.11.01-.21-.06-.29,0-.01-.02-.02-.03-.03h0s-.06-.06-.14-.08c0,0-.02,0-.02,0-.04,0-.07-.01-.09-.01,0,0-.02,0-.02,0-.03-.09-.13-.14-.13-.14-.07-.04-.15-.06-.22-.07h0c-.17-.02-.31,0-.41.03-.08.02-.16.05-.2.07-.41.2-.56.44-.62.58,0,0,0,0,0,0,0,.02-.01.03-.02.05,0,.02-.01.04-.01.05-.04.18,0,.37.14.5,0,.02,0,.07,0,.11ZM76.5,14.88s.05-.02.08-.02c.09,0,.19-.02.22.09.04.19-.12.33-.26.43-.06.04-.13.07-.19.1-.2.07-.41.11-.62.07.18-.28.46-.56.77-.67ZM75.35,15.24s.03-.07.03-.07c.03-.05.07-.1.12-.15.07-.07.14-.12.23-.17.01,0,.04-.02.06-.03,0,0,0,0,0,0,.02,0,.07-.02.14-.01h0s.03,0,.04,0c-.29.19-.51.45-.58.53,0,0-.02.02-.02.03-.04-.03-.03-.09-.02-.14Z" style="fill: #00bce1;"/>
        <path d="M78.76,18.3c.06,0,.12-.09.14-.15l.07-1.17.03.05c.24.38.36.81.73,1.12.05.04.12.03.18,0,.04-.01.09-.04.13-.07.13-.1.2-.28.22-.43.06-.55-.07-1.06-.37-1.48-.06-.08-.16-.24-.29-.25-.05.02-.05.09-.04.14.09.47.28.9.28,1.41,0,.02,0,.05,0,.07,0,.02-.02.04-.04.04-.28-.38-.48-.82-.83-1.17-.02-.01-.03-.02-.03-.02-.06-.03-.11,0-.15.05-.01.01-.03.05-.06.1-.11.26-.16.55-.2.83-.02.15-.09.55.01.77.04.08.12.16.22.15Z" style="fill: #00bce1;"/>
        <path d="M76.26,16.88s0,.1.03.16c.03.04.06.08.1.1,0,0,.02,0,.03.01.17.04.34.05.52.06.09,0,.15.01.15.01.34.03.49.07.49.07h0c.13.04.32.07.36.23,0,0,0,.01,0,.02-.11.18-.45.24-.68.28-.15.02-.53.08-.71-.07-.02-.02-.03-.05-.03-.06,0,0,0,0,0-.01h0s0-.05.03-.08c0,0,.01-.01.02-.02.24-.14.54.16.78.13.25-.02.32-.08.35-.14.02-.04.01-.07.01-.07-.09-.07-.28-.13-.44-.16-.22-.03-.54-.08-.77.06,0,0-.05.03-.07.07-.04.06-.07.14-.08.22,0,.01,0,.04.01.06.12.29.42.44.69.5.37.06.77,0,1.05-.24h0c.05-.05.08-.09.09-.11.07-.14.09-.36.05-.53-.01-.05-.03-.08-.05-.11-.29-.38-.81-.27-1.26-.34-.06,0-.13-.02-.2-.04-.04-.01-.07-.02-.08-.03,0,0,0,0-.01,0,0,0,0,0,0,0-.01,0-.02-.02-.02-.03,0,0,0-.01,0-.01.39-.16.85-.13,1.28-.18.14-.02.28-.02.37-.12,0,0,0,0,.01-.02,0,0,0,0,0,0,0,0,0,0,0,0,0-.01.02-.03.03-.05,0-.01,0-.02,0-.03h0s0,0,0-.01h0s0-.02-.01-.03c0,0-.01,0-.02-.01-.55-.22-1.3-.16-1.81.12-.15.08-.22.23-.24.4Z" style="fill: #00bce1;"/>
        <path d="M69.63,14.75s.12,0,.18,0c.03,0,.07-.02.07-.06,0,0,0-.01,0-.02-.07-.09-.18-.05-.26-.1,0,0,0,0,0,0,0,0,0-.01.01-.02h0s.07-.04.11-.05c0,0,.01,0,.02,0,0,0,.02,0,.02,0,0,0,.01,0,.01,0,.89-.14,1.76.02,2.53.31.89.36,1.92.91,2.34,1.88.01.03.02.06.03.09,0,0,0,0,0,0,0,0,0,.01,0,.02,0,.02,0,.04.01.06,0,0,0,0,0,.01.06.34-.02.71-.3.95-.61.49-1.48.53-2.25.39l-.02-1.09c0-.06,0-.18,0-.24,0-.02,0-.01,0-.03.1,0,.13,0,.16,0,.35.02.84.08,1.2.26,0,0,.01.01.01.02h0s0,0,0,0c0,.02-.01.04-.02.06h0s0,0,0,0c0,0,0,.01-.01.02-.03.04-.05.06-.05.06-.06.05-.16.08-.16.16,0,0,0,0,0,.01.07.03.16.05.24.05.01,0,.05,0,.1-.02.12-.07.26-.17.3-.31.03-.12,0-.23-.06-.32-.03-.06-.09-.1-.11-.12-.3-.23-.67-.32-1.04-.35-.23-.02-.4-.02-.5-.01h-.05s-.02,0-.02,0l-.02-.62c-.02-.16-.11-.35-.27-.4-.17.32-.18,1.02-.19,1.07-.02,0-.04,0-.06.01-.11.02-.24.05-.37.08-.11.03-.22.06-.32.1-.2.08-.39.17-.56.34-.01.01-.03.03-.04.05-.04.06-.07.14-.05.22,0,0,0,.03.02.05.3.51.84.89,1.34,1.13.04.18.04.37.15.5.1.03.21.01.29,0,.1-.04.09-.18.1-.28,0,0,0,0,.01,0,.88.21,1.84.13,2.55-.39.44-.33.66-.82.57-1.35h0s-.07-.78-1.17-1.61c0,0-.01-.01-.02-.02,0,0,0,0-.01,0-.08-.06-.16-.11-.25-.17-.35-.23-.71-.4-.99-.53-.84-.37-2.08-.63-3.19-.29-.16.06-.22.21-.27.35,0,.02-.01.06,0,.09.06.06.15.07.25.07ZM71.58,18.02c-.43-.16-.88-.39-1.18-.8,0,0,0-.02,0-.02,0,0,0,0,0,0,0,0,0,0,0,0-.01-.08.08-.14.14-.16.17-.06.35-.09.53-.12.31-.05.49-.06.56-.06,0,.39-.03.77-.04,1.16Z" style="fill: #00bce1;"/>
      </g>
    </g>
  </g>
</svg>