<?xml version="1.0" encoding="UTF-8"?>
<svg id="Layer_1" data-name="Layer 1" data-size="22mm x 44mm" xmlns="http://www.w3.org/2000/svg"
  viewBox="0 0 100.93 197.06">
  <text id="quantity" style="font-family: Arial-BoldMT, Arial; font-size: 15px; font-weight: 700; isolation: isolate;"
    y="97%" x="50%" text-anchor="middle"></text>
  <path
    d="M67.31,86.11c-.09.25-.2.43-.31.54-.11.11-.26.16-.45.16-.1,0-.2-.01-.3-.05v-.39s.08.03.12.04.09.02.13.02c.09,0,.16-.02.21-.06.05-.04.1-.1.14-.18l.18-.45-1.04-2.6h.49l.76,2.14h.01l.73-2.14h.46l-1.14,2.96ZM66.09,84.93c-.06.29-.19.51-.38.66s-.44.23-.74.23c-.28,0-.51-.06-.69-.18s-.32-.28-.41-.48-.14-.44-.15-.71c0-.26.06-.5.16-.7.1-.2.25-.36.43-.48.18-.12.4-.18.63-.18.23,0,.42.05.58.14.16.09.28.22.37.37.09.15.15.31.19.49.04.17.05.34.05.5h-1.96c0,.16.02.3.08.43s.15.23.27.31c.12.08.28.12.47.12.18,0,.33-.04.44-.13.12-.09.19-.21.24-.38h.42ZM65.67,84.2c-.01-.21-.09-.38-.23-.52s-.31-.21-.53-.22c-.23,0-.4.08-.53.22s-.2.31-.22.52h1.5ZM61.23,83.15h.4v.41h.01c.19-.32.47-.48.85-.48.34,0,.57.09.71.27.13.17.2.4.19.69v1.72h-.43v-1.77c0-.16-.05-.29-.14-.38-.09-.09-.22-.14-.39-.14-.26,0-.45.08-.58.23-.13.15-.19.35-.19.59v1.48h-.43v-2.62ZM59.06,84.94c.01.19.09.32.23.4.14.08.3.11.48.11.09,0,.19,0,.28-.03.1-.02.18-.06.25-.11s.1-.14.1-.25c0-.11-.05-.19-.13-.25s-.19-.11-.32-.14c-.13-.03-.27-.06-.41-.09-.15-.03-.28-.07-.41-.12-.13-.05-.24-.13-.32-.22-.08-.1-.12-.23-.13-.39,0-.18.05-.32.15-.43.1-.11.22-.19.37-.24.15-.05.3-.08.46-.08.29,0,.54.05.74.17.2.12.31.34.33.65h-.43c-.02-.17-.09-.28-.21-.35-.12-.07-.25-.1-.4-.09-.09,0-.17,0-.26.03-.08.02-.15.05-.21.1-.06.05-.09.12-.09.2,0,.1.05.18.13.23s.19.1.32.13c.13.03.26.06.4.09.15.03.28.07.41.12.13.05.24.13.32.23.08.1.12.23.13.39,0,.21-.06.37-.17.49-.11.12-.25.21-.42.26-.17.05-.34.08-.53.08-.2,0-.38-.03-.54-.09-.16-.06-.3-.15-.4-.28-.1-.13-.16-.3-.17-.52h.43ZM57.96,83.15h.43v2.62h-.43v-2.62ZM58.39,82.68h-.43v-.53h.43v.53ZM54.67,82.15h1.24c.56,0,.99.14,1.29.42.3.28.45.72.45,1.3,0,.61-.13,1.07-.41,1.4-.28.33-.72.49-1.32.49h-1.24v-3.61ZM55.15,85.36h.8c.08,0,.19,0,.33-.04.13-.03.27-.09.4-.18.13-.09.25-.23.34-.42s.14-.45.14-.78c0-.44-.08-.77-.27-1.01-.19-.24-.5-.36-.94-.37h-.81v2.8ZM49.13,83.95c0-.36.09-.68.26-.96.17-.28.4-.5.69-.67s.61-.25.96-.25c.35,0,.66.09.95.25.29.16.52.39.69.67.17.28.26.6.26.96,0,.36-.09.69-.26.98-.17.29-.4.51-.69.68-.29.16-.6.25-.95.25-.35,0-.67-.09-.96-.25s-.52-.39-.69-.68c-.17-.29-.26-.61-.26-.98ZM49.48,83.95c0,.31.07.59.21.83s.32.44.56.58c.23.14.5.21.8.22.29,0,.56-.08.79-.22.23-.14.42-.33.55-.58s.2-.52.21-.83c0-.3-.07-.58-.21-.82s-.32-.43-.55-.57c-.23-.14-.5-.21-.79-.22-.3,0-.56.08-.8.22-.23.14-.42.33-.56.57s-.21.51-.21.82ZM52.04,84.32c-.06.25-.17.44-.34.58-.17.14-.37.21-.6.21-.23,0-.43-.05-.59-.15-.17-.1-.3-.24-.39-.41s-.14-.37-.14-.59c0-.34.1-.62.29-.83.19-.21.46-.32.81-.32.25,0,.46.06.63.19s.28.32.32.57h-.32c-.03-.15-.1-.26-.21-.35-.11-.09-.25-.14-.42-.14-.25,0-.44.09-.57.25-.13.16-.2.37-.2.61,0,.16.03.31.09.44.06.13.15.24.27.32s.26.12.42.13c.17,0,.31-.05.42-.15s.18-.22.2-.37h.32Z"
    style="fill: #99999a;" />
  <path
    d="M72.88,88.21h.4v.55h.01c.1-.21.23-.37.38-.47s.35-.15.58-.14v.46c-.34,0-.59.1-.73.28-.15.18-.22.44-.21.78v1.16h-.43v-2.62ZM72.09,89.47c-.09.06-.2.1-.34.11-.14.02-.29.04-.44.06-.15.02-.27.06-.37.13s-.15.18-.16.34c0,.14.05.24.15.3.1.06.22.09.35.09.19,0,.34-.04.46-.1.12-.06.2-.14.26-.23.05-.09.08-.18.08-.26v-.44ZM72.79,90.81c-.07.05-.17.07-.31.07-.11,0-.2-.03-.27-.1-.07-.06-.1-.17-.1-.31-.24.27-.55.41-.92.4-.24,0-.45-.05-.61-.17s-.25-.3-.26-.56c0-.2.05-.35.13-.45.08-.11.19-.18.33-.24.13-.05.28-.09.43-.12.16-.03.31-.05.44-.07.13-.02.24-.05.32-.09s.12-.12.12-.22c0-.12-.03-.22-.09-.28-.06-.06-.13-.1-.22-.12-.09-.02-.18-.03-.27-.03-.19,0-.34.03-.46.1-.12.07-.18.2-.2.39h-.43c.01-.22.07-.39.17-.52s.24-.22.4-.28c.16-.06.34-.08.54-.08.16,0,.32.01.47.05.15.04.27.11.37.21.1.1.15.26.15.46v1.35c0,.1,0,.18.02.22.02.05.05.07.12.07.03,0,.08,0,.13-.03v.33ZM68.74,89.45l-.91-1.24h.55l.63.92.65-.92h.52l-.9,1.2,1.01,1.41h-.55l-.73-1.08-.73,1.08h-.52l.98-1.38ZM66.95,88.21h.43v2.62h-.43v-2.62ZM67.38,87.73h-.43v-.53h.43v.53ZM63.91,87.21h1.58c.36,0,.64.1.82.28s.28.45.28.78-.09.6-.28.79c-.19.19-.46.28-.82.28h-1.1v1.48h-.48v-3.61ZM64.39,88.94h.94c.27,0,.47-.06.6-.17.13-.11.19-.28.19-.49s-.06-.38-.19-.49c-.13-.11-.33-.17-.6-.17h-.94v1.33ZM63.6,87.12h.37l-1.5,3.78h-.37l1.5-3.78ZM61.12,91.17c-.09.25-.2.43-.31.54-.11.11-.26.16-.45.16-.1,0-.2-.01-.3-.05v-.39s.08.03.12.04.09.02.13.02c.09,0,.16-.02.21-.06.05-.04.1-.1.14-.18l.18-.45-1.04-2.6h.49l.76,2.14h.01l.73-2.14h.46l-1.14,2.96ZM59.95,89.99c-.06.29-.19.51-.38.66-.19.15-.44.23-.74.23-.28,0-.51-.06-.69-.18s-.32-.28-.41-.48-.14-.44-.15-.71c0-.26.06-.5.16-.7.1-.2.25-.36.43-.48.18-.12.4-.18.63-.18.23,0,.42.05.58.14.16.09.28.22.37.37.09.15.15.31.19.49.04.17.05.34.05.5h-1.96c0,.16.02.3.08.43s.15.23.27.31c.12.08.28.12.47.12.18,0,.33-.04.44-.13.12-.09.19-.21.24-.38h.42ZM59.53,89.26c-.01-.21-.09-.38-.23-.52s-.31-.21-.53-.22c-.23,0-.4.08-.53.22-.13.14-.2.31-.22.52h1.5ZM55.03,88.21h.4v.41h.01c.19-.32.47-.48.85-.48.34,0,.57.09.71.27.13.17.2.4.19.69v1.72h-.43v-1.77c0-.16-.05-.29-.14-.38-.09-.09-.22-.14-.39-.14-.26,0-.45.08-.58.23-.13.15-.19.35-.19.59v1.48h-.43v-2.62ZM52.92,90c.01.19.09.32.23.4.14.08.3.11.48.11.09,0,.19,0,.28-.03.1-.02.18-.06.25-.11.07-.06.1-.14.1-.25,0-.11-.05-.19-.13-.25s-.19-.11-.32-.14c-.13-.03-.27-.06-.41-.09-.15-.03-.28-.07-.41-.12-.13-.05-.24-.13-.32-.22-.08-.1-.12-.23-.13-.39,0-.18.05-.32.15-.43.1-.11.22-.19.37-.24.15-.05.3-.08.46-.08.29,0,.54.05.74.17.2.12.31.34.33.65h-.43c-.02-.17-.09-.28-.21-.35-.12-.07-.25-.1-.4-.09-.09,0-.17,0-.26.03-.08.02-.15.05-.21.1-.06.05-.09.12-.09.2,0,.1.05.18.13.23s.19.1.32.13c.13.03.26.06.4.09.15.03.28.07.41.12.13.05.24.13.32.23.08.1.12.23.13.39,0,.21-.06.37-.17.49-.11.12-.25.21-.42.26-.17.05-.34.08-.53.08-.2,0-.38-.03-.54-.09s-.3-.15-.4-.28-.16-.3-.17-.52h.43ZM51.77,88.21h.43v2.62h-.43v-2.62ZM52.2,87.73h-.43v-.53h.43v.53ZM48.53,87.21h1.24c.56,0,.99.14,1.29.42.3.28.45.72.45,1.3,0,.61-.13,1.07-.41,1.4-.28.33-.72.49-1.32.49h-1.24v-3.61ZM49.01,90.42h.8c.08,0,.19,0,.33-.04.13-.03.27-.09.4-.18.13-.09.25-.23.34-.42s.14-.45.14-.78c0-.44-.08-.77-.27-1.01-.19-.24-.5-.36-.94-.37h-.81v2.8ZM43.2,89c0-.36.09-.68.26-.96.17-.28.4-.5.69-.67s.61-.25.96-.25c.35,0,.66.09.95.25.29.16.52.39.69.67.17.28.26.6.26.96,0,.36-.09.69-.26.98-.17.29-.4.51-.69.68-.29.16-.6.25-.95.25-.35,0-.67-.09-.96-.25s-.52-.39-.69-.68c-.17-.29-.26-.61-.26-.98ZM43.54,89c0,.31.07.59.21.83s.32.44.56.58c.23.14.5.21.8.22.29,0,.56-.08.79-.22.23-.14.42-.33.55-.58s.2-.52.21-.83c0-.3-.07-.58-.21-.82s-.32-.43-.55-.57c-.23-.14-.5-.21-.79-.22-.3,0-.56.08-.8.22-.23.14-.42.33-.56.57s-.21.51-.21.82ZM46.1,89.38c-.06.25-.17.44-.34.58-.17.14-.37.21-.6.21-.23,0-.43-.05-.59-.15-.17-.1-.3-.24-.39-.41s-.14-.37-.14-.59c0-.34.1-.62.29-.83.19-.21.46-.32.81-.32.25,0,.46.06.63.19s.28.32.32.57h-.32c-.03-.15-.1-.26-.21-.35-.11-.09-.25-.14-.42-.14-.25,0-.44.09-.57.25-.13.16-.2.37-.2.61,0,.16.03.31.09.44.06.13.15.24.27.32s.26.12.42.13c.17,0,.31-.05.42-.15s.18-.22.2-.37h.32Z"
    style="fill: #99999a;" />
  <path
    d="M82.16,95.05c-.06.29-.19.51-.38.66s-.44.23-.74.23c-.28,0-.51-.06-.69-.18s-.32-.28-.41-.48-.14-.44-.15-.71c0-.26.06-.5.16-.7.1-.2.25-.36.43-.48.18-.12.4-.18.63-.18.23,0,.42.05.58.14.16.09.28.22.37.37.09.15.15.31.19.49.04.17.05.34.05.5h-1.96c0,.16.02.3.08.43s.15.23.27.31c.12.08.28.12.47.12.18,0,.33-.04.44-.13.12-.09.19-.21.24-.38h.42ZM81.75,94.32c-.01-.21-.09-.38-.23-.52s-.31-.21-.53-.22c-.23,0-.4.08-.53.22s-.2.31-.22.52h1.5ZM77.3,92.27h.43v1.38h.01c.08-.16.19-.27.35-.34s.31-.11.48-.11c.34,0,.57.09.71.27.13.17.2.4.19.69v1.72h-.43v-1.77c0-.16-.05-.29-.14-.38-.09-.09-.22-.14-.39-.14-.26,0-.45.08-.58.23-.13.15-.19.35-.19.59v1.48h-.43v-3.61ZM76.31,93.26h.52v.38h-.52v1.62c0,.09.02.16.06.19.04.03.13.05.26.04h.2v.38h-.33c-.22,0-.38-.03-.48-.11-.1-.08-.15-.23-.14-.47v-1.66h-.45v-.38h.45v-.78h.43v.78ZM71.97,93.26h.4v.41h.01c.19-.32.47-.48.85-.48.34,0,.57.09.71.27.13.17.2.4.19.69v1.72h-.43v-1.77c0-.16-.05-.29-.14-.38-.09-.09-.22-.14-.39-.14-.26,0-.45.08-.58.23-.13.15-.19.35-.19.59v1.48h-.43v-2.62ZM69.2,94.58c0-.26.05-.49.14-.7.1-.21.24-.37.43-.49s.42-.18.7-.18c.28,0,.51.06.7.18.19.12.33.28.43.49.1.21.14.44.14.7s-.05.49-.14.69-.24.37-.43.49c-.19.12-.42.18-.7.18-.28,0-.51-.06-.7-.18-.19-.12-.33-.28-.43-.49-.1-.21-.14-.44-.14-.69ZM69.65,94.58c0,.32.09.56.24.73.15.17.34.26.57.26s.42-.09.57-.26c.15-.17.23-.41.24-.73,0-.32-.09-.57-.24-.74s-.34-.26-.57-.26-.42.09-.57.26c-.15.17-.23.42-.24.74ZM67.53,95.88h-.43v-.35h-.01c-.07.15-.19.25-.34.32s-.32.1-.5.1c-.27,0-.49-.07-.67-.19-.18-.12-.31-.29-.4-.5-.09-.21-.13-.44-.13-.69s.04-.48.13-.68.22-.37.4-.49c.18-.12.4-.19.67-.19.14,0,.29.03.45.09.16.06.29.17.39.32h.01v-1.35h.43v3.61ZM65.5,94.6c0,.17.03.32.09.47.06.15.15.27.27.36.12.09.27.14.46.14.19,0,.35-.05.46-.15.12-.09.2-.22.26-.37s.08-.31.08-.47c0-.18-.03-.34-.08-.49-.06-.15-.14-.27-.27-.36-.12-.09-.28-.14-.48-.14-.2,0-.35.05-.47.15s-.2.22-.25.37c-.05.15-.07.32-.07.49ZM64.99,95.05c-.06.29-.19.51-.38.66-.19.15-.44.23-.74.23-.28,0-.51-.06-.69-.18s-.32-.28-.41-.48-.14-.44-.15-.71c0-.26.06-.5.16-.7.1-.2.25-.36.43-.48.18-.12.4-.18.63-.18.23,0,.42.05.58.14.16.09.28.22.37.37.09.15.15.31.19.49.04.17.05.34.05.5h-1.96c0,.16.02.3.08.43s.15.23.27.31c.12.08.28.12.47.12.18,0,.33-.04.44-.13.12-.09.19-.21.24-.38h.42ZM64.58,94.32c-.01-.21-.09-.38-.23-.52-.14-.14-.31-.21-.53-.22-.23,0-.4.08-.53.22s-.2.31-.22.52h1.5ZM60.6,95.06c.01.19.09.32.23.4.14.08.3.11.48.11.09,0,.19,0,.28-.03.1-.02.18-.06.25-.11.07-.06.1-.14.1-.25,0-.11-.05-.19-.13-.25s-.19-.11-.32-.14c-.13-.03-.27-.06-.41-.09-.15-.03-.28-.07-.41-.12-.13-.05-.24-.13-.32-.22-.08-.1-.12-.23-.13-.39,0-.18.05-.32.15-.43.1-.11.22-.19.37-.24.15-.05.3-.08.46-.08.29,0,.54.05.74.17.2.12.31.34.33.65h-.43c-.02-.17-.09-.28-.21-.35-.12-.07-.25-.1-.4-.09-.09,0-.17,0-.26.03-.08.02-.15.05-.21.1s-.09.12-.09.2c0,.1.05.18.13.23s.19.1.32.13c.13.03.26.06.4.09.15.03.28.07.41.12.13.05.24.13.32.23.08.1.12.23.13.39,0,.21-.06.37-.17.49-.11.12-.25.21-.42.26-.17.05-.34.08-.53.08-.2,0-.38-.03-.54-.09s-.3-.15-.4-.28c-.1-.13-.16-.3-.17-.52h.43ZM59.52,94.53c-.09.06-.2.1-.34.11-.14.02-.29.04-.44.06-.15.02-.27.06-.37.13-.1.07-.15.18-.16.34,0,.14.05.24.15.3s.22.09.35.09c.19,0,.34-.04.46-.1.12-.06.2-.14.26-.23.05-.09.08-.18.08-.26v-.44ZM60.22,95.87c-.07.05-.17.07-.31.07-.11,0-.2-.03-.27-.1-.07-.06-.1-.17-.1-.31-.24.27-.55.41-.92.4-.24,0-.45-.05-.61-.17-.16-.12-.25-.3-.26-.56,0-.2.05-.35.13-.45.08-.11.19-.18.33-.24.13-.05.28-.09.43-.12.16-.03.31-.05.44-.07.13-.02.24-.05.32-.09.08-.04.12-.12.12-.22,0-.12-.03-.22-.09-.28-.06-.06-.13-.1-.22-.12-.09-.02-.18-.03-.27-.03-.19,0-.34.03-.46.1-.12.07-.18.2-.2.39h-.43c.01-.22.07-.39.17-.52s.24-.22.4-.28c.16-.06.34-.08.54-.08.16,0,.32.01.47.05.15.04.27.11.37.21.1.1.15.26.15.46v1.35c0,.1,0,.18.02.22s.05.07.12.07c.03,0,.08,0,.13-.03v.33ZM55.17,95.48h1.2c.21,0,.37-.06.49-.18s.18-.27.18-.47c0-.16-.04-.28-.11-.36-.07-.09-.17-.15-.29-.18-.12-.04-.25-.05-.38-.05h-1.1v1.25ZM54.69,92.27h1.31c.17,0,.34,0,.52.02s.33.05.44.12c.12.07.22.17.3.3s.12.28.12.46c0,.19-.05.36-.14.5-.09.14-.23.24-.39.31h0c.22.06.39.16.51.31.12.15.18.34.18.57,0,.18-.04.35-.12.5-.08.16-.21.28-.37.38-.16.1-.37.15-.6.15h-1.75v-3.61ZM55.17,93.82h.96c.27,0,.47-.05.59-.15.12-.1.18-.24.18-.43,0-.17-.04-.29-.11-.37s-.16-.14-.28-.16c-.11-.03-.24-.04-.38-.04h-.96v1.15ZM52.1,96.23c-.09.25-.2.43-.31.54-.11.11-.26.16-.45.16-.1,0-.2-.01-.3-.05v-.39s.08.03.12.04.09.02.13.02c.09,0,.16-.02.21-.06.05-.04.1-.1.14-.18l.18-.45-1.04-2.6h.49l.76,2.14h.01l.73-2.14h.46l-1.14,2.96ZM50.93,95.05c-.06.29-.19.51-.38.66-.19.15-.44.23-.74.23-.28,0-.51-.06-.69-.18s-.32-.28-.41-.48-.14-.44-.15-.71c0-.26.06-.5.16-.7.1-.2.25-.36.43-.48.18-.12.4-.18.63-.18.23,0,.42.05.58.14.16.09.28.22.37.37.09.15.15.31.19.49.04.17.05.34.05.5h-1.96c0,.16.02.3.08.43s.15.23.27.31c.12.08.28.12.47.12.18,0,.33-.04.44-.13.12-.09.19-.21.24-.38h.42ZM50.51,94.32c-.01-.21-.09-.38-.23-.52s-.31-.21-.53-.22c-.23,0-.4.08-.53.22-.13.14-.2.31-.22.52h1.5ZM46.02,93.26h.4v.41h.01c.19-.32.47-.48.85-.48.34,0,.57.09.71.27.13.17.2.4.19.69v1.72h-.43v-1.77c0-.16-.05-.29-.14-.38-.09-.09-.22-.14-.39-.14-.26,0-.45.08-.58.23-.13.15-.19.35-.19.59v1.48h-.43v-2.62ZM43.9,95.06c.01.19.09.32.23.4.14.08.3.11.48.11.09,0,.19,0,.28-.03.1-.02.18-.06.25-.11.07-.06.1-.14.1-.25,0-.11-.05-.19-.13-.25s-.19-.11-.32-.14c-.13-.03-.27-.06-.41-.09-.15-.03-.28-.07-.41-.12-.13-.05-.24-.13-.32-.22-.08-.1-.12-.23-.13-.39,0-.18.05-.32.15-.43.1-.11.22-.19.37-.24.15-.05.3-.08.46-.08.29,0,.54.05.74.17.2.12.31.34.33.65h-.43c-.02-.17-.09-.28-.21-.35-.12-.07-.25-.1-.4-.09-.09,0-.17,0-.26.03-.08.02-.15.05-.21.1-.06.05-.09.12-.09.2,0,.1.05.18.13.23s.19.1.32.13c.13.03.26.06.4.09.15.03.28.07.41.12.13.05.24.13.32.23.08.1.12.23.13.39,0,.21-.06.37-.17.49-.11.12-.25.21-.42.26-.17.05-.34.08-.53.08-.2,0-.38-.03-.54-.09s-.3-.15-.4-.28-.16-.3-.17-.52h.43ZM42.75,93.26h.43v2.62h-.43v-2.62ZM43.18,92.79h-.43v-.53h.43v.53ZM39.51,92.27h1.24c.56,0,.99.14,1.29.42.3.28.45.72.45,1.3,0,.61-.13,1.07-.41,1.4-.28.33-.72.49-1.32.49h-1.24v-3.61ZM39.99,95.48h.8c.08,0,.19,0,.33-.04.13-.03.27-.09.4-.18.13-.09.25-.23.34-.42s.14-.45.14-.78c0-.44-.08-.77-.27-1.01-.19-.24-.5-.36-.94-.37h-.81v2.8ZM34.18,94.06c0-.36.09-.68.26-.96.17-.28.4-.5.69-.67s.61-.25.96-.25c.35,0,.66.09.95.25.29.16.52.39.69.67.17.28.26.6.26.96,0,.36-.09.69-.26.98-.17.29-.4.51-.69.68-.29.16-.6.25-.95.25-.35,0-.67-.09-.96-.25s-.52-.39-.69-.68c-.17-.29-.26-.61-.26-.98ZM34.52,94.06c0,.31.07.59.21.83s.32.44.56.58c.23.14.5.21.8.22.29,0,.56-.08.79-.22.23-.14.42-.33.55-.58s.2-.52.21-.83c0-.3-.07-.58-.21-.82s-.32-.43-.55-.57c-.23-.14-.5-.21-.79-.22-.3,0-.56.08-.8.22-.23.14-.42.33-.56.57s-.21.51-.21.82ZM37.09,94.44c-.06.25-.17.44-.34.58-.17.14-.37.21-.6.21-.23,0-.43-.05-.59-.15-.17-.1-.3-.24-.39-.41s-.14-.37-.14-.59c0-.34.1-.62.29-.83.19-.21.46-.32.81-.32.25,0,.46.06.63.19s.28.32.32.57h-.32c-.03-.15-.1-.26-.21-.35-.11-.09-.25-.14-.42-.14-.25,0-.44.09-.57.25-.13.16-.2.37-.2.61,0,.16.03.31.09.44.06.13.15.24.27.32s.26.12.42.13c.17,0,.31-.05.42-.15s.18-.22.2-.37h.32Z"
    style="fill: #99999a;" />
  <path
    d="M81.93,100.12c.01.19.09.32.23.4.14.08.3.11.48.11.09,0,.19,0,.28-.03.1-.02.18-.06.25-.11.07-.06.1-.14.1-.25,0-.11-.05-.19-.13-.25s-.19-.11-.32-.14c-.13-.03-.27-.06-.41-.09-.15-.03-.28-.07-.41-.12-.13-.05-.24-.13-.32-.22-.08-.1-.12-.23-.13-.39,0-.18.05-.32.15-.43.1-.11.22-.19.37-.24.15-.05.3-.08.46-.08.29,0,.54.05.74.17.2.12.31.34.33.65h-.43c-.02-.17-.09-.28-.21-.35-.12-.07-.25-.1-.4-.09-.09,0-.17,0-.26.03-.08.02-.15.05-.21.1-.06.05-.09.12-.09.2,0,.1.05.18.13.23s.19.1.32.13c.13.03.26.06.4.09.15.03.28.07.41.12.13.05.24.13.32.23.08.1.12.23.13.39,0,.21-.06.37-.17.49-.11.12-.25.21-.42.26-.17.05-.34.08-.53.08-.2,0-.38-.03-.54-.09-.16-.06-.3-.15-.4-.28-.1-.13-.16-.3-.17-.52h.43ZM79.26,97.33h.43v2.14l1.19-1.14h.58l-1.04.95,1.11,1.66h-.55l-.9-1.37-.4.37v.99h-.43v-3.61ZM77.7,98.32h.4v.55h.01c.1-.21.23-.37.38-.47s.35-.15.58-.14v.46c-.34,0-.59.1-.73.28-.15.18-.22.44-.21.78v1.16h-.43v-2.62ZM74.95,99.63c0-.26.05-.49.14-.7.1-.21.24-.37.43-.49s.42-.18.7-.18c.28,0,.51.06.7.18s.33.28.43.49c.1.21.14.44.14.7s-.05.49-.14.69-.24.37-.43.49c-.19.12-.42.18-.7.18-.28,0-.51-.06-.7-.18-.19-.12-.33-.28-.43-.49s-.14-.44-.14-.69ZM75.4,99.63c0,.32.09.56.24.73.15.17.34.26.57.26s.42-.09.57-.26c.15-.17.23-.41.24-.73,0-.32-.09-.57-.24-.74-.15-.17-.34-.26-.57-.26s-.42.09-.57.26c-.15.17-.23.42-.24.74ZM74.14,100.94h-.46l-.53-2.08h-.01l-.53,2.08h-.47l-.84-2.62h.48l.59,2.14h.01l.53-2.14h.47l.55,2.14h.01l.59-2.14h.45l-.83,2.62ZM69.19,97.33h.56v.56c0,.21-.04.38-.13.52-.09.14-.23.22-.42.22v-.25c.11,0,.19-.06.23-.16.04-.1.06-.21.06-.33h-.3v-.56ZM68.27,97.33h.56v.56c0,.21-.04.38-.13.52-.09.14-.23.22-.42.22v-.25c.11,0,.19-.06.23-.16.04-.1.06-.21.06-.33h-.3v-.56ZM66.08,97.33h.43v1.38h.01c.08-.16.19-.27.35-.34s.31-.11.48-.11c.34,0,.57.09.71.27s.2.4.19.69v1.72h-.43v-1.77c0-.16-.05-.29-.14-.38s-.22-.14-.39-.14c-.26,0-.45.08-.58.23-.13.15-.19.35-.19.59v1.48h-.43v-3.61ZM63.04,99.63c0-.26.05-.49.14-.7.1-.21.24-.37.43-.49s.42-.18.7-.18c.28,0,.51.06.7.18.19.12.33.28.43.49.1.21.14.44.14.7s-.05.49-.14.69-.24.37-.43.49c-.19.12-.42.18-.7.18-.28,0-.51-.06-.7-.18-.19-.12-.33-.28-.43-.49-.1-.21-.14-.44-.14-.69ZM63.5,99.63c0,.32.09.56.24.73.15.17.34.26.57.26s.42-.09.57-.26c.15-.17.23-.41.24-.73,0-.32-.09-.57-.24-.74s-.34-.26-.57-.26-.42.09-.57.26c-.15.17-.23.42-.24.74ZM60.41,99.63c0-.26.05-.49.14-.7.1-.21.24-.37.43-.49s.42-.18.7-.18c.28,0,.51.06.7.18.19.12.33.28.43.49.1.21.14.44.14.7s-.05.49-.14.69c-.1.21-.24.37-.43.49-.19.12-.42.18-.7.18-.28,0-.51-.06-.7-.18-.19-.12-.33-.28-.43-.49-.1-.21-.14-.44-.14-.69ZM60.87,99.63c0,.32.09.56.24.73.15.17.34.26.57.26s.42-.09.57-.26c.15-.17.23-.41.24-.73,0-.32-.09-.57-.24-.74-.15-.17-.34-.26-.57-.26s-.42.09-.57.26-.23.42-.24.74ZM57.79,97.33h1.58c.36,0,.64.1.82.28s.28.45.28.78-.09.6-.28.79c-.19.19-.46.28-.82.28h-1.1v1.48h-.48v-3.61ZM58.27,99.06h.94c.27,0,.47-.06.6-.17.13-.11.19-.28.19-.49s-.06-.38-.19-.49c-.13-.11-.33-.17-.6-.17h-.94v1.33ZM56.21,100.11c-.06.29-.19.51-.38.66s-.44.23-.74.23c-.28,0-.51-.06-.69-.18s-.32-.28-.41-.48-.14-.44-.15-.71c0-.26.06-.5.16-.7.1-.2.25-.36.43-.48.18-.12.4-.18.63-.18.23,0,.42.05.58.14.16.09.28.22.37.37.09.15.15.31.19.49.04.17.05.34.05.5h-1.96c0,.16.02.3.08.43s.15.23.27.31c.12.08.28.12.47.12.18,0,.33-.04.44-.13.12-.09.19-.21.24-.38h.42ZM55.79,99.38c-.01-.21-.09-.38-.23-.52s-.31-.21-.53-.22c-.23,0-.4.08-.53.22s-.2.31-.22.52h1.5ZM51.29,97.33h.43v1.38h.01c.08-.16.19-.27.35-.34s.31-.11.48-.11c.34,0,.57.09.71.27.13.17.2.4.19.69v1.72h-.43v-1.77c0-.16-.05-.29-.14-.38-.09-.09-.22-.14-.39-.14-.26,0-.45.08-.58.23-.13.15-.19.35-.19.59v1.48h-.43v-3.61ZM50.57,98.32h.52v.38h-.52v1.62c0,.09.02.16.06.19.04.03.13.05.26.04h.2v.38h-.33c-.22,0-.38-.03-.48-.11-.1-.08-.15-.23-.14-.47v-1.66h-.45v-.38h.45v-.78h.43v.78ZM48.52,100.11c-.06.29-.19.51-.38.66-.19.15-.44.23-.74.23-.28,0-.51-.06-.69-.18s-.32-.28-.41-.48-.14-.44-.15-.71c0-.26.06-.5.16-.7.1-.2.25-.36.43-.48.18-.12.4-.18.63-.18.23,0,.42.05.58.14.16.09.28.22.37.37.09.15.15.31.19.49.04.17.05.34.05.5h-1.96c0,.16.02.3.08.43s.15.23.27.31c.12.08.28.12.47.12.18,0,.33-.04.44-.13.12-.09.19-.21.24-.38h.42ZM48.1,99.38c-.01-.21-.09-.38-.23-.52-.14-.14-.31-.21-.53-.22-.23,0-.4.08-.53.22-.13.14-.2.31-.22.52h1.5ZM45.19,98.32h.43v2.62h-.43v-2.62ZM45.62,97.85h-.43v-.53h.43v.53ZM42.54,98.32h.4v.41h.01c.19-.32.47-.48.85-.48.34,0,.57.09.71.27.13.17.2.4.19.69v1.72h-.43v-1.77c0-.16-.05-.29-.14-.38-.09-.09-.22-.14-.39-.14-.26,0-.45.08-.58.23-.13.15-.19.35-.19.59v1.48h-.43v-2.62ZM39.85,98.32h.4v.41h.01c.19-.32.47-.48.85-.48.34,0,.57.09.71.27.13.17.2.4.19.69v1.72h-.43v-1.77c0-.16-.05-.29-.14-.38-.09-.09-.22-.14-.39-.14-.26,0-.45.08-.58.23-.13.15-.19.35-.19.59v1.48h-.43v-2.62ZM39.02,98.32h.43v2.62h-.43v-2.62ZM39.45,97.85h-.43v-.53h.43v.53ZM37.93,100.94h-.5l-.82-3.04h-.01l-.83,3.04h-.5l-.93-3.61h.49l.71,3.01h.01l.81-3.01h.52l.8,3.01h.01l.73-3.01h.48l-.97,3.61ZM34.12,98.63h-.56v-.56c0-.21.04-.38.13-.52.09-.14.23-.22.42-.22v.25c-.11,0-.19.06-.23.16-.04.1-.06.21-.06.33h.3v.56ZM33.19,98.63h-.56v-.56c0-.21.04-.38.13-.52.09-.14.23-.22.42-.22v.25c-.11,0-.19.06-.23.16-.04.1-.06.21-.06.33h.3v.56Z"
    style="fill: #99999a;" />
  <path
    d="M76.31,105.78h-.43v-.35h-.01c-.07.15-.19.25-.34.32s-.32.1-.5.1c-.27,0-.49-.07-.67-.19-.18-.12-.31-.29-.4-.5-.09-.21-.13-.44-.13-.69s.04-.48.13-.68.22-.37.4-.49c.18-.12.4-.19.67-.19.14,0,.29.03.45.09.16.06.29.17.39.32h.01v-1.35h.43v3.61ZM74.28,104.49c0,.17.03.32.09.47.06.15.15.27.27.36.12.09.27.14.46.14.19,0,.35-.05.46-.15.12-.09.2-.22.26-.37s.08-.31.08-.47c0-.18-.03-.34-.08-.49-.06-.15-.14-.27-.27-.36-.12-.09-.28-.14-.48-.14-.2,0-.35.05-.47.15s-.2.22-.25.37c-.05.15-.07.32-.07.49ZM71.34,103.16h.4v.41h.01c.19-.32.47-.48.85-.48.34,0,.57.09.71.27.13.17.2.4.19.69v1.72h-.43v-1.77c0-.16-.05-.29-.14-.38-.09-.09-.22-.14-.39-.14-.26,0-.45.08-.58.23s-.19.35-.19.59v1.48h-.43v-2.62ZM70.53,104.43c-.09.06-.2.1-.34.11-.14.02-.29.04-.44.06-.15.02-.27.06-.37.13-.1.07-.15.18-.16.34,0,.14.05.24.15.3s.22.09.35.09c.19,0,.34-.04.46-.1.12-.06.2-.14.26-.23s.08-.18.08-.26v-.44ZM71.23,105.77c-.07.05-.17.07-.31.07-.11,0-.2-.03-.27-.1-.07-.06-.1-.17-.1-.31-.24.27-.55.41-.92.4-.24,0-.45-.05-.61-.17-.16-.12-.25-.3-.26-.56,0-.2.05-.35.13-.45.08-.11.19-.18.33-.24.13-.05.28-.09.43-.12.16-.03.31-.05.44-.07.13-.02.24-.05.32-.09.08-.04.12-.12.12-.22,0-.12-.03-.22-.09-.28-.06-.06-.13-.1-.22-.12-.09-.02-.18-.03-.27-.03-.19,0-.34.03-.46.1-.12.07-.18.2-.2.39h-.43c.01-.22.07-.39.17-.52s.24-.22.4-.28c.16-.06.34-.08.54-.08.16,0,.32.01.47.05.15.04.27.11.37.21.1.1.15.26.15.46v1.35c0,.1,0,.18.02.22.02.05.05.07.12.07.03,0,.08,0,.13-.03v.33ZM67.19,104.95c-.06.29-.19.51-.38.66s-.44.23-.74.23c-.28,0-.51-.06-.69-.18s-.32-.28-.41-.48-.14-.44-.15-.71c0-.26.06-.5.16-.7.1-.2.25-.36.43-.48.18-.12.4-.18.63-.18.23,0,.42.05.58.14.16.09.28.22.37.37.09.15.15.31.19.49.04.17.05.34.05.5h-1.96c0,.16.02.3.08.43s.15.23.27.31c.12.08.28.12.47.12.18,0,.33-.04.44-.13.12-.09.19-.21.24-.38h.42ZM66.78,104.22c-.01-.21-.09-.38-.23-.52s-.31-.21-.53-.22c-.23,0-.4.08-.53.22s-.2.31-.22.52h1.5ZM62.53,103.16h.4v.41h.01c.19-.32.47-.48.85-.48.34,0,.57.09.71.27.13.17.2.4.19.69v1.72h-.43v-1.77c0-.16-.05-.29-.14-.38-.09-.09-.22-.14-.39-.14-.26,0-.45.08-.58.23-.13.15-.19.35-.19.59v1.48h-.43v-2.62ZM61.44,102.17h.43v3.61h-.43v-3.61ZM60.58,103.16h.43v2.62h-.43v-2.62ZM61.01,102.69h-.43v-.53h.43v.53ZM56.44,102.17h.66l1.14,3.04,1.14-3.04h.66v3.61h-.46v-3.01h-.01l-1.13,3.01h-.41l-1.13-3.01h-.01v3.01h-.46v-3.61ZM54.07,105.22h.56v.56h-.56v-.56ZM51.69,102.17h.53l1.41,3.61h-.53l-.39-1.09h-1.53l-.4,1.09h-.5l1.41-3.61ZM51.33,104.29h1.22l-.6-1.68h-.01l-.61,1.68ZM49.62,105.22h.56v.56h-.56v-.56ZM47.31,102.17h.53l1.41,3.61h-.53l-.39-1.09h-1.53l-.4,1.09h-.5l1.41-3.61ZM46.95,104.29h1.22l-.6-1.68h-.01l-.61,1.68ZM43.79,106.13c-.09.25-.2.43-.31.54-.11.11-.26.16-.45.16-.1,0-.2-.01-.3-.05v-.39s.08.03.12.04c.04.01.09.02.13.02.09,0,.16-.02.21-.06.05-.04.1-.1.14-.18l.18-.45-1.04-2.6h.49l.76,2.14h.01l.73-2.14h.46l-1.14,2.96ZM41.92,104.45c0-.17-.03-.32-.09-.47s-.15-.27-.27-.36-.27-.14-.46-.14c-.19,0-.35.05-.47.15-.12.09-.2.22-.26.37-.05.15-.08.31-.08.47,0,.18.03.34.08.49s.14.27.27.36c.12.09.28.14.48.14.2,0,.35-.05.47-.15.11-.1.2-.22.25-.37.05-.15.07-.32.07-.49ZM39.89,102.17h.43v1.35h.01c.07-.15.19-.25.34-.32.15-.07.32-.1.5-.1.27,0,.49.07.67.19.18.12.31.29.4.5s.13.44.13.69-.04.48-.13.68c-.09.2-.22.37-.4.49-.18.12-.4.19-.67.19-.14,0-.29-.03-.45-.09-.16-.06-.29-.17-.39-.32h-.01v.35h-.43v-3.61Z"
    style="fill: #99999a;" />
  <path
    d="M72.34,110.84h-.43v-.35h-.01c-.07.15-.19.25-.34.32s-.32.1-.5.1c-.27,0-.49-.07-.67-.19s-.31-.29-.4-.5c-.09-.21-.13-.44-.13-.69s.04-.48.13-.68c.09-.2.22-.37.4-.49.18-.12.4-.19.67-.19.14,0,.29.03.45.09.16.06.29.17.39.32h.01v-1.35h.43v3.61ZM70.31,109.55c0,.17.03.32.09.47.06.15.15.27.27.36.12.09.27.14.46.14.19,0,.35-.05.46-.15s.2-.22.26-.37c.05-.15.08-.31.08-.47,0-.18-.03-.34-.08-.49s-.14-.27-.27-.36-.28-.14-.48-.14c-.2,0-.35.05-.47.15s-.2.22-.25.37c-.05.15-.07.32-.07.49ZM68.47,108.22h.4v.55h.01c.1-.21.23-.37.38-.47s.35-.15.58-.14v.46c-.34,0-.59.1-.73.28-.15.18-.22.44-.21.78v1.16h-.43v-2.62ZM67.47,109.49c-.09.06-.2.1-.34.11s-.29.04-.44.06c-.15.02-.27.06-.37.13-.1.07-.15.18-.16.34,0,.14.05.24.15.3.1.06.22.09.35.09.19,0,.34-.04.46-.1.12-.06.2-.14.26-.23.05-.09.08-.18.08-.26v-.44ZM68.17,110.83c-.07.05-.17.07-.31.07-.11,0-.2-.03-.27-.1-.07-.06-.1-.17-.1-.31-.24.27-.55.41-.92.4-.24,0-.45-.05-.61-.17-.16-.12-.25-.3-.26-.56,0-.2.05-.35.13-.45.08-.11.19-.18.33-.24.13-.05.28-.09.43-.12.16-.03.31-.05.44-.07.13-.02.24-.05.32-.09s.12-.12.12-.22c0-.12-.03-.22-.09-.28-.06-.06-.13-.1-.22-.12-.09-.02-.18-.03-.27-.03-.19,0-.34.03-.46.1-.12.07-.18.2-.2.39h-.43c.01-.22.07-.39.17-.52s.24-.22.4-.28c.16-.06.34-.08.54-.08.16,0,.32.01.47.05.15.04.27.11.37.21.1.1.15.26.15.46v1.35c0,.1,0,.18.02.22.02.05.05.07.12.07.03,0,.08,0,.13-.03v.33ZM65.26,109.51c0-.17-.03-.32-.09-.47-.06-.15-.15-.27-.27-.36-.12-.09-.27-.14-.46-.14-.19,0-.35.05-.47.15-.12.09-.2.22-.26.37-.05.15-.08.31-.08.47,0,.18.03.34.08.49.06.15.14.27.27.36.12.09.28.14.48.14.2,0,.35-.05.47-.15.11-.1.2-.22.25-.37.05-.15.07-.32.07-.49ZM63.23,108.22h.43v.35h.01c.07-.15.19-.25.34-.32.15-.07.32-.1.5-.1.27,0,.49.07.67.19.18.12.31.29.4.5.09.21.13.44.13.69s-.04.48-.13.68c-.09.2-.22.37-.4.49-.18.12-.4.19-.67.19-.14,0-.29-.03-.45-.09-.16-.06-.29-.17-.39-.32h-.01v1.35h-.43v-3.62ZM62.77,110.01c-.06.29-.19.51-.38.66-.19.15-.44.23-.74.23-.28,0-.51-.06-.69-.18s-.32-.28-.41-.48-.14-.44-.15-.71c0-.26.06-.5.16-.7.1-.2.25-.36.43-.48.18-.12.4-.18.63-.18.23,0,.42.05.58.14.16.09.28.22.37.37.09.15.15.31.19.49.04.17.05.34.05.5h-1.96c0,.16.02.3.08.43s.15.23.27.31c.12.08.28.12.47.12.18,0,.33-.04.44-.13.12-.09.19-.21.24-.38h.42ZM62.35,109.28c-.01-.21-.09-.38-.23-.52-.14-.14-.31-.21-.53-.22-.23,0-.4.08-.53.22-.13.14-.2.31-.22.52h1.5ZM58.16,107.23h.43v1.38h.01c.08-.16.19-.27.35-.34s.31-.11.48-.11c.34,0,.57.09.71.27.13.17.2.4.19.69v1.72h-.43v-1.77c0-.16-.05-.29-.14-.38-.09-.09-.22-.14-.39-.14-.26,0-.45.08-.58.23s-.19.35-.19.59v1.48h-.43v-3.61ZM57.23,108.28c-.03-.26-.12-.44-.28-.56-.16-.12-.36-.18-.61-.18-.14,0-.27.02-.39.06-.12.04-.22.1-.3.19-.08.09-.12.21-.12.37,0,.15.06.26.17.33.11.08.25.14.43.18.17.04.36.09.56.13.2.04.38.1.56.17.18.07.32.18.43.32s.17.32.17.55c0,.26-.08.46-.22.62-.14.16-.32.27-.53.35-.21.07-.43.11-.66.11-.27,0-.52-.04-.75-.13-.22-.09-.4-.23-.54-.42-.13-.19-.2-.43-.21-.72h.46c0,.2.05.37.15.5s.23.22.38.28c.16.06.33.09.52.09.15,0,.29-.02.43-.06s.25-.1.34-.2c.09-.1.14-.23.14-.4,0-.16-.06-.29-.17-.37s-.25-.16-.43-.2c-.17-.05-.36-.09-.55-.13-.2-.04-.38-.09-.56-.16-.18-.06-.32-.16-.43-.28-.11-.12-.17-.3-.17-.52,0-.24.07-.44.19-.6.12-.16.29-.27.49-.35.2-.07.41-.11.63-.11.25,0,.47.04.67.12s.35.21.47.37c.12.17.18.38.19.65h-.46ZM52.74,110.28h.56v.56h-.56v-.56ZM49.43,107.23h.48v1.55h1.9v-1.55h.48v3.61h-.48v-1.65h-1.9v1.65h-.48v-3.61ZM48.14,110.28h.56v.56h-.56v-.56ZM45.23,107.23h2.49v.4h-2.01v1.15h1.88v.4h-1.88v1.25h2.03v.4h-2.51v-3.61Z"
    style="fill: #99999a;" />
  <polygon points="27.49 136.31 27.49 136.31 27.73 .24 89.89 .24 89.89 136.31 27.49 136.31"
    style="fill: none; stroke: #828284; stroke-width: .48px;" />
  <line x1="20.06" y1="3.6" x2="97.33" y2="3.6"
    style="fill: none; stroke: #0c9647; stroke-dasharray: 4.08 1.92; stroke-width: .72px;" />
  <line x1="20.06" y1="133.67" x2="97.33" y2="133.67"
    style="fill: none; stroke: #0c9647; stroke-dasharray: 4.08 1.92; stroke-width: .72px;" />
  <line x1="16.46" y1="68.63" x2="100.93" y2="68.63"
    style="fill: none; stroke: #f05423; stroke-dasharray: 3.12 3.12; stroke-width: .72px;" />
  <path
    d="M75.85,37.59c-.44-.66-1.98-.88-1.32-1.98.66-.66,1.98.44,2.42-.22,0-.66.22-2.42,1.32-1.1.22.22,0,.66.22.88.44.22.88,0,1.32,0,1.32.22.66,1.1,0,1.54-.66.88,0,1.1.22,1.98,0,1.32-1.54.22-1.98.22-.88,0-1.76,1.32-2.2.88-.44-.44,0-2.2,0-2.2Z"
    style="fill: #cbcaca;" />
  <path
    d="M65.29,38.03c-.44-.22-1.54.22-1.32-.66,0-.66,1.32-.44,1.32-.88-.22-.44-.44-1.76.44-1.1.22,0,.22.44.44.44.44,0,.66-.44.88-.44.88-.22.66.44.44,1.1-.22.66.44.66.66,1.1.44.66-.88.66-1.1.66-.44.22-.66,1.54-1.1,1.32-.44-.22-.66-1.54-.66-1.54Z"
    style="fill: #cbcaca;" />
  <path
    d="M80.03,32.31c-.22-.22-1.1-.22-.66-.88.22-.22.88.22,1.1,0,0-.44.22-1.32.66-.66v.44c.22.22.44,0,.66,0,.66.22.44.66,0,.88-.22.22,0,.44.22.88,0,.66-.88.22-1.1.22-.22-.22-.88.66-.88.44-.22-.22,0-1.32,0-1.32Z"
    style="fill: #cbcaca;" />
  <path
    d="M41.09,22.19c-1.54,0-2.64.22-3.08.44-.22.22-.44.44-.44.88s.44.44.66.44.44,0,.44-.22-.44-.22-.44-.44,1.32-.22,1.98-.22c5.5,0,11.88,3.74,11.88,7.04,0,2.64-3.3,3.08-5.06,3.3-.66,0-1.32-.22-1.76-.22,0-.88-.22-2.64-.22-3.74h.66c1.32,0,3.08.66,3.08.88s-.44.44-.44.66.44.22.88.22c0,0,.66-.44.66-1.1,0-.88-1.1-1.98-4.62-1.98h-.22c0-.88-.22-2.42-.66-2.42s-.66,1.54-.66,2.64c-1.98.22-3.74,1.1-3.74,1.98,0,.66,1.32,2.2,3.74,3.3,0,.66.22,1.32.88,1.32.44,0,.66-.44.66-.88.66.22,1.54.44,2.42.44,3.3,0,6.16-1.98,6.16-4.4,0-3.3-6.82-8.14-12.76-7.92ZM40.21,30.55c0-.66,1.76-.88,3.52-.88v3.08c-1.98-.66-3.52-1.98-3.52-2.2ZM55.61,31.87c.22,1.76,0,1.76-.44,1.76s-.88-.22-.88-2.2c0-.88.22-3.08.66-3.08s.66.44.66,3.52ZM55.39,27.47c1.1,0,3.08-1.54,3.08-2.64,0-.66-.22-.88-.88-1.1-.22-.22-.66-.44-1.32-.44-1.98,0-3.3,1.54-3.3,2.42,0,.22.22.66.44,1.1,0,.66.22.88.44.88s.22-.22.44-.44c.22,0,.66.22,1.1.22ZM55.39,26.37h-.66c.44-.66,1.76-1.98,2.42-1.98.44,0,.66.44.66.66,0,.66-1.76,1.32-2.42,1.32ZM55.61,24.17c-.66.44-1.32.88-1.76,1.54v-.22c0-.44.44-1.1,1.76-1.32ZM57.37,29.67c0,.22,1.1.44,1.98.44,1.1,0,2.42.22,2.42,1.76,0,.44-.44,1.76-2.42,1.76s-2.86-1.1-2.86-1.54c0-.88.88-1.1,1.54-1.1.44,0,2.2.22,2.2.66,0,.22-.44.44-.88.44-.66,0-1.32-.44-1.76-.44s-.44.22-.44.44c0,0,0,.44.88.44.44,0,2.86-.44,2.86-1.1,0-.22-1.1-.44-1.98-.66-1.1,0-2.64.22-2.64-.88,0-1.54,2.86-1.76,3.52-1.76s1.98,0,1.98.66c0,.88-4.4.22-4.4.88ZM67.05,31.43c0,.66-.44,1.76-1.32,1.76-.66,0-1.98-2.64-2.2-2.64-.44,0,0,2.86-.66,2.86s-.66-.44-.66-1.1.22-3.74.88-3.74,2.42,3.08,2.64,3.08v-.44c0-.88-.66-2.86-.66-3.3,0-.22,0-.44.22-.44.66,0,1.76,2.2,1.76,3.96ZM71.23,32.75s-1.32,1.1-2.64,1.1c-.88,0-1.32-.88-1.32-1.32s.22-1.1.44-1.32c0-.22-.22-.44-.22-.44,0-.44.66-.44.66-.66.22,0,.22-.44.22-.66,0,0-.88-.22-.88-.66s1.76-.44,3.08-.66c.88,0,1.54.66,1.54.88q-.22.22-.44.44c-.22,0-1.98,0-2.2.22,0,0-.22.44,0,.66h1.32c.22,0,.44.88-.22.88h-1.54c-.22.22-.44,1.1-.22,1.1,0,.22,1.54-.22,1.76-.22.44,0,.88.22.66.66ZM76.29,28.57c-.88,0-2.2,1.76-3.3,2.86v-.22c0-.44.88-1.98,1.1-2.42.22-.22,0-.88-.22-.66-.44.44-1.76,1.98-1.76,3.52,0,.22,0,.66.22,1.1-.22.88-1.1,3.08-1.1,4.62,0,.66.88,1.32,1.32,1.1,0,0,0-.88.22-1.54.44-.88.88-2.42,1.1-3.08h.22c1.54,0,3.3-1.76,3.3-3.3s-.88-1.98-1.1-1.98ZM74.31,32.31c.66-1.1,1.76-2.64,1.98-2.64.44,0,.44.22.44.66,0,1.1-1.32,1.98-2.42,1.98Z"
    style="fill: #8cd3d9;" />
  <path
    d="M41.97,41.11c-1.32,0-2.42.44-3.08,1.54v-5.28h-3.74v1.1h.88c.66,0,.88.22.88.88v12.1h1.1l.66-1.76c.66,1.32,1.76,1.98,3.3,1.98,2.64,0,4.4-2.2,4.4-5.28,0-3.3-1.76-5.28-4.4-5.28ZM41.53,50.13c-2.42,0-2.64-2.64-2.64-3.74,0-1.32.22-3.96,2.64-3.96s2.64,2.64,2.64,3.96c0,1.1-.22,3.74-2.64,3.74Z"
    style="fill: #f58673;" />
  <path
    d="M56.93,44.85c0,1.1-.22,1.54-.88,1.54-.22,0-.22-.66-.22-.88v-4.84c0-3.08-2.2-3.52-4.18-3.52-1.54,0-3.96.66-3.96,2.64,0,.88.44,1.54,1.1,1.54s1.32-.44,1.32-1.32c0-.44-.22-.88-.88-1.1.44-.44,1.32-.66,2.2-.66,1.98,0,2.2.66,2.2,1.76,0,.44,0,.88-.66,1.1-.44.44-1.32.66-1.98.88-1.98.44-3.96.88-3.96,3.08,0,1.54,1.32,2.64,3.3,2.64,1.32,0,2.64-.44,3.52-1.54.22.88.88,1.54,1.98,1.54,1.76,0,2.42-.88,2.42-3.08v-.88h-1.32v1.1ZM53.63,43.97c0,1.32-1.54,2.42-2.86,2.42-.88,0-1.54-.44-1.54-1.54,0-.66.44-1.1,1.54-1.54.44-.22.88-.44,1.32-.44.66-.22,1.1-.44,1.54-.66v1.76Z"
    style="fill: #f58673;" />
  <path
    d="M64.63,41.33c-1.32,0-2.42.44-3.08,1.54v-5.28h-3.74v1.1h.88c.66,0,.88.22.88.88v12.1h1.1l.66-1.76c.66,1.32,1.76,1.98,3.3,1.98,2.64,0,4.4-2.2,4.4-5.28,0-3.3-1.76-5.28-4.4-5.28ZM64.19,50.35c-2.42,0-2.64-2.64-2.64-3.74,0-1.32.22-3.96,2.64-3.96s2.64,2.64,2.64,3.96c0,1.1-.22,3.74-2.64,3.74Z"
    style="fill: #f58673;" />
  <path
    d="M75.85,42.21h.66c.66,0,1.1.22,1.1.44s0,.44-.22.66l-2.2,5.28-1.98-4.62-.22-.22c-.22-.66-.22-1.1-.22-1.1,0-.22,0-.44,1.1-.44h.44v-1.1h-5.5v1.1h.44c.88,0,1.1.22,1.54,1.1l3.52,7.7-1.1,1.98c-.44.88-1.1,1.32-1.98,1.32-.44,0-.88-.44-1.1-.66.88,0,1.32-.44,1.32-1.1s-.66-1.1-1.32-1.1-1.32.44-1.32,1.76,1.32,2.2,2.42,2.2c1.54,0,2.86-.88,3.3-2.2l4.4-9.68c.22-.44.66-1.32,1.32-1.32h.66v-1.1h-5.06v1.1Z"
    style="fill: #f58673;" />
  <g>
    <line x1="27.51" y1="157.19" x2="27.51" y2="140.29" style="fill: none; stroke: #29abe2; stroke-width: .48px;" />
    <line x1="89.87" y1="157.19" x2="89.87" y2="140.29" style="fill: none; stroke: #29abe2; stroke-width: .48px;" />
    <line x1="27.51" y1="148.62" x2="89.87" y2="148.62"
      style="fill: none; stroke: #29abe2; stroke-dasharray: .95 1.19; stroke-width: .48px;" />
    <path
      d="M67.08,159.33v-5.14h.38v1.05h.02c.04-.16.11-.31.21-.46.1-.14.22-.26.37-.37.14-.11.3-.19.48-.25.17-.06.36-.09.55-.09.25,0,.46.03.64.09.18.07.33.15.46.25.13.11.23.22.3.35.07.13.12.27.15.4h.02c.15-.36.36-.63.62-.82.25-.18.59-.27,1.01-.27.23,0,.45.03.65.1.19.07.36.18.51.32.14.15.25.33.33.55s.12.48.12.78v3.51h-.38v-3.52c0-.33-.05-.58-.15-.77s-.22-.33-.35-.43c-.14-.09-.28-.15-.41-.18-.14-.02-.25-.03-.32-.03-.23,0-.45.04-.64.12-.2.08-.37.2-.51.36-.15.16-.26.36-.34.59-.08.24-.12.51-.12.82v3.04h-.38v-3.52c0-.32-.05-.58-.14-.77-.1-.19-.21-.33-.34-.42-.13-.09-.27-.15-.4-.18-.14-.03-.25-.04-.33-.04-.18,0-.37.04-.56.11-.19.07-.37.19-.53.34-.16.15-.29.35-.39.59-.1.24-.15.52-.15.85v3.04h-.38ZM59.29,159.33v-5.14h.38v1.05h.02c.04-.16.11-.31.21-.46.1-.14.22-.26.37-.37.14-.11.3-.19.48-.25.17-.06.36-.09.55-.09.25,0,.46.03.64.09.18.07.33.15.46.25.13.11.23.22.3.35.07.13.12.27.15.4h.02c.15-.36.36-.63.62-.82.25-.18.59-.27,1.01-.27.23,0,.45.03.65.1.19.07.36.18.51.32.14.15.25.33.33.55.08.22.12.48.12.78v3.51h-.38v-3.52c0-.33-.05-.58-.15-.77s-.22-.33-.35-.43c-.14-.09-.28-.15-.41-.18-.14-.02-.25-.03-.32-.03-.23,0-.45.04-.64.12-.2.08-.37.2-.51.36-.15.16-.26.36-.34.59-.08.24-.12.51-.12.82v3.04h-.38v-3.52c0-.32-.05-.58-.14-.77-.1-.19-.21-.33-.34-.42-.13-.09-.27-.15-.4-.18-.14-.03-.25-.04-.33-.04-.18,0-.37.04-.56.11-.19.07-.37.19-.53.34-.16.15-.29.35-.39.59-.1.24-.15.52-.15.85v3.04h-.38ZM51.08,159.33h0c.02-.32.09-.61.22-.87.13-.25.29-.49.49-.7.19-.21.41-.4.66-.58.24-.18.49-.35.74-.52.25-.17.49-.34.73-.51.24-.17.46-.35.65-.54.19-.19.34-.41.45-.64.11-.23.17-.49.17-.78,0-.23-.05-.45-.14-.64-.09-.19-.22-.35-.37-.49-.16-.13-.34-.24-.54-.31-.21-.07-.42-.11-.65-.11-.31,0-.59.05-.82.16-.23.11-.43.26-.58.45-.15.19-.27.42-.34.67-.08.26-.12.54-.12.84h-.38c.04-.84.24-1.46.61-1.86.36-.39.88-.59,1.57-.59.29,0,.57.04.83.11.26.08.49.2.68.35.19.16.35.36.46.59.11.24.17.52.17.84,0,.41-.09.76-.28,1.07-.19.31-.43.6-.72.85-.29.25-.61.49-.94.71-.34.22-.66.44-.95.65-.3.22-.55.45-.76.68-.21.24-.33.5-.36.79h4.12v.38h-4.6ZM45.58,159.33h0c.02-.32.09-.61.22-.87.13-.25.29-.49.49-.7.19-.21.41-.4.66-.58.24-.18.49-.35.74-.52.25-.17.49-.34.73-.51.24-.17.46-.35.65-.54.19-.19.34-.41.45-.64.11-.23.17-.49.17-.78,0-.23-.05-.45-.14-.64-.09-.19-.22-.35-.37-.49-.16-.13-.34-.24-.54-.31-.21-.07-.42-.11-.65-.11-.31,0-.59.05-.82.16-.23.11-.43.26-.58.45-.15.19-.27.42-.34.67-.08.26-.12.54-.12.84h-.38c.04-.84.24-1.46.61-1.86.36-.39.88-.59,1.57-.59.29,0,.57.04.83.11.26.08.49.2.68.35.19.16.35.36.46.59.11.24.17.52.17.84,0,.41-.09.76-.28,1.07-.19.31-.43.6-.72.85-.29.25-.61.49-.94.71-.34.22-.66.44-.95.65-.3.22-.55.45-.76.68-.21.24-.33.5-.36.79h4.12v.38h-4.6Z"
      style="fill: #29abe2;" />
  </g>
  <g>
    <line x1="18.64" y1="65.96" x2="1.67" y2="65.96" style="fill: none; stroke: #29abe2; stroke-width: .48px;" />
    <line x1="18.64" y1="3.6" x2="1.67" y2="3.6" style="fill: none; stroke: #29abe2; stroke-width: .48px;" />
    <line x1="10.27" y1="65.96" x2="10.27" y2="3.6"
      style="fill: none; stroke: #29abe2; stroke-dasharray: .96 1.19; stroke-width: .48px;" />
    <path
      d="M6.93,48.04v-4.54h-.24v4.06c-.48,0-.72-.24-.96-.48-.24,0-.48-.24-.48-.72-.24-.24-.48-.48-.72-.96l-.72-.72c-.24-.48-.48-.72-.96-.72-.24-.24-.48-.48-.96-.48-.24,0-.72.24-.96.24q-.24.24-.48.48c-.24.24-.24.48-.48.72v.72c0,.72.24,1.19.48,1.67.48.24,1.19.48,1.91.48v-.24c-.24,0-.48-.24-.72-.24s-.48-.24-.72-.24c-.24-.24-.24-.48-.48-.72,0-.24-.24-.48-.24-.72s.24-.48.24-.72.24-.24.24-.48q.24-.24.48-.24c.24-.24.48-.24.72-.24s.48,0,.72.24c.24,0,.48.24.72.48.24,0,.24.24.48.48.24.24.24.48.48.72s.48.48.48.72c.24.24.48.48.72.72.24.24.48.24.72.48s.48.24.72.24Z"
      style="fill: #29abe2;" />
    <path
      d="M6.93,42.55v-4.54h-.24v4.06c-.48,0-.72-.24-.96-.24-.24-.24-.48-.48-.48-.96-.24-.24-.48-.48-.72-.96l-.72-.72c-.24-.48-.48-.72-.96-.72-.24-.24-.48-.24-.96-.24h-.96q-.24.24-.48.48c-.24.24-.24.48-.48.72v.72c0,.72.24,1.19.48,1.67.48.24,1.19.48,1.91.48v-.24c-.24,0-.48,0-.72-.24-.24,0-.48-.24-.72-.24-.24-.24-.24-.48-.48-.72,0-.24-.24-.48-.24-.72s.24-.48.24-.72c0,0,.24-.24.24-.48.24,0,.24-.24.48-.24.24-.24.48-.24.72-.24s.48,0,.72.24c.24,0,.48.24.72.48.24,0,.24.24.48.48.24.24.24.48.48.72s.48.48.48.72c.24.24.48.48.72.72.24.24.48.48.72.48.24.24.48.24.72.24Z"
      style="fill: #29abe2;" />
    <path
      d="M6.93,34.18v-.24h-2.87c-.48,0-.72-.24-.96-.24s-.48-.24-.48-.48c-.24,0-.48-.24-.48-.48v-.72c0-.24,0-.48.24-.48,0-.24.24-.24.24-.24.24-.24.48-.24.96-.24h3.35v-.48h-3.82c-.24,0-.48-.24-.48-.48-.24,0-.24-.24-.48-.48v-.96s0-.24.24-.24c0-.24.24-.24.24-.48h4.3v-.48h-3.35c-.48,0-.72,0-.96.24q-.24,0-.48.24t-.24.48c-.24.24-.24.48-.24.72s.24.72.24.96c.24.24.48.48.96.48v.24h-.48l-.24.24c-.24.24-.24.48-.24.48-.24.24-.24.48-.24.72s0,.24.24.48c0,.24,0,.48.24.48,0,.24.24.24.24.48.24,0,.48,0,.48.24h-.96v.24h5.02Z"
      style="fill: #29abe2;" />
    <path
      d="M6.93,26.3v-.24h-2.87c-.48,0-.72,0-.96-.24-.24,0-.48-.24-.48-.24-.24-.24-.48-.48-.48-.72v-.72q0-.24.24-.48l.24-.24c.24-.24.48-.24.96-.24h3.35v-.24h-2.87c-.48,0-.72-.24-.96-.24s-.48-.24-.48-.24c-.24-.24-.24-.48-.48-.48v-.96q0-.24.24-.48c0-.24.24-.24.24-.48h4.3v-.48h-3.35c-.48,0-.72,0-.96.24-.24,0-.24.24-.48.24q-.24.24-.24.48c-.24.24-.24.48-.24.72,0,.48.24.72.24.96.24.24.48.48.96.72h-.48c0,.24-.24.24-.24.48-.24,0-.24.24-.24.24-.24.24-.24.48-.24.72s0,.48.24.48c0,.24,0,.48.24.48,0,.24.24.24.24.48.24,0,.48.24.48.24h-.96v.24h5.02Z"
      style="fill: #29abe2;" />
  </g>
  <g>
    <line x1="18.64" y1="133.67" x2="1.67" y2="133.67" style="fill: none; stroke: #29abe2; stroke-width: .48px;" />
    <line x1="18.64" y1="71.31" x2="1.67" y2="71.31" style="fill: none; stroke: #29abe2; stroke-width: .48px;" />
    <line x1="10.27" y1="133.67" x2="10.27" y2="71.31"
      style="fill: none; stroke: #29abe2; stroke-dasharray: .96 1.19; stroke-width: .48px;" />
    <path
      d="M6.93,115.75v-4.54h-.24v4.06c-.48,0-.72-.24-.96-.48-.24,0-.48-.24-.48-.72-.24-.24-.48-.48-.72-.96l-.72-.72c-.24-.48-.48-.72-.96-.72-.24-.24-.48-.48-.96-.48-.24,0-.72.24-.96.24q-.24.24-.48.48c-.24.24-.24.48-.48.72v.72c0,.72.24,1.19.48,1.67.48.24,1.19.48,1.91.48v-.24c-.24,0-.48-.24-.72-.24s-.48-.24-.72-.24c-.24-.24-.24-.48-.48-.72,0-.24-.24-.48-.24-.72s.24-.48.24-.72.24-.24.24-.48q.24-.24.48-.24c.24-.24.48-.24.72-.24s.48,0,.72.24c.24,0,.48.24.72.48.24,0,.24.24.48.48.24.24.24.48.48.72s.48.48.48.72c.24.24.48.48.72.72.24.24.48.24.72.48s.48.24.72.24Z"
      style="fill: #29abe2;" />
    <path
      d="M6.93,110.25v-4.54h-.24v4.06c-.48,0-.72-.24-.96-.24-.24-.24-.48-.48-.48-.96-.24-.24-.48-.48-.72-.96l-.72-.72c-.24-.48-.48-.72-.96-.72-.24-.24-.48-.24-.96-.24h-.96q-.24.24-.48.48c-.24.24-.24.48-.48.72v.72c0,.72.24,1.19.48,1.67.48.24,1.19.48,1.91.48v-.24c-.24,0-.48,0-.72-.24-.24,0-.48-.24-.72-.24-.24-.24-.24-.48-.48-.72,0-.24-.24-.48-.24-.72s.24-.48.24-.72c0,0,.24-.24.24-.48.24,0,.24-.24.48-.24.24-.24.48-.24.72-.24s.48,0,.72.24c.24,0,.48.24.72.48.24,0,.24.24.48.48.24.24.24.48.48.72s.48.48.48.72c.24.24.48.48.72.72.24.24.48.48.72.48.24.24.48.24.72.24Z"
      style="fill: #29abe2;" />
    <path
      d="M6.93,101.89v-.24h-2.87c-.48,0-.72-.24-.96-.24s-.48-.24-.48-.48c-.24,0-.48-.24-.48-.48v-.72c0-.24,0-.48.24-.48,0-.24.24-.24.24-.24.24-.24.48-.24.96-.24h3.35v-.48h-3.82c-.24,0-.48-.24-.48-.48-.24,0-.24-.24-.48-.48v-.96s0-.24.24-.24c0-.24.24-.24.24-.48h4.3v-.48h-3.35c-.48,0-.72,0-.96.24q-.24,0-.48.24t-.24.48c-.24.24-.24.48-.24.72s.24.72.24.96c.24.24.48.48.96.48v.24h-.48l-.24.24c-.24.24-.24.48-.24.48-.24.24-.24.48-.24.72s0,.24.24.48c0,.24,0,.48.24.48,0,.24.24.24.24.48.24,0,.48,0,.48.24h-.96v.24h5.02Z"
      style="fill: #29abe2;" />
    <path
      d="M6.93,94v-.24h-2.87c-.48,0-.72,0-.96-.24-.24,0-.48-.24-.48-.24-.24-.24-.48-.48-.48-.72v-.72q0-.24.24-.48l.24-.24c.24-.24.48-.24.96-.24h3.35v-.24h-2.87c-.48,0-.72-.24-.96-.24s-.48-.24-.48-.24c-.24-.24-.24-.48-.48-.48v-.96q0-.24.24-.48c0-.24.24-.24.24-.48h4.3v-.48h-3.35c-.48,0-.72,0-.96.24-.24,0-.24.24-.48.24q-.24.24-.24.48c-.24.24-.24.48-.24.72,0,.48.24.72.24.96.24.24.48.48.96.72h-.48c0,.24-.24.24-.24.48-.24,0-.24.24-.24.24-.24.24-.24.48-.24.72s0,.48.24.48c0,.24,0,.48.24.48,0,.24.24.24.24.48.24,0,.48.24.48.24h-.96v.24h5.02Z"
      style="fill: #29abe2;" />
  </g>
</svg>