<?xml version="1.0" encoding="UTF-8"?>
<svg id="Layer_1" data-name="Layer 1" data-size="25mm x 22mm" xmlns="http://www.w3.org/2000/svg"
  viewBox="0 0 203.35 116.01">

  <text id="quantity" style="font-family: Arial-BoldMT, Arial; font-size: 15px; font-weight: 700; isolation: isolate;"
    y="97%" x="50%" text-anchor="middle"></text>

  <g>
    <g>
      <g>
        <g>
          <path
            d="M158.79,13.81c1.18,0,2.16.96,2.16,2.23s-.99,2.25-2.16,2.25-2.17-.96-2.17-2.25.99-2.23,2.17-2.23ZM158.79,17.95c1,0,1.77-.83,1.77-1.92s-.77-1.9-1.77-1.9-1.78.83-1.78,1.9.77,1.92,1.78,1.92ZM159.93,16.47c-.12.58-.54.94-1.07.94-.78,0-1.28-.59-1.28-1.37s.47-1.36,1.26-1.36c.55,0,1,.31,1.08.91h-.36c-.06-.33-.33-.58-.72-.58-.57,0-.88.45-.88,1.02s.34,1.05.89,1.05c.38,0,.65-.26.7-.61h.37Z"
            style="fill: #98989a;" />
          <path
            d="M162.86,13.91h1.41c1.27,0,1.98.66,1.98,2.03s-.61,2.24-1.98,2.24h-1.41v-4.27ZM163.41,17.7h.91c.38,0,1.38-.11,1.38-1.68,0-1.02-.36-1.63-1.37-1.63h-.92v3.31Z"
            style="fill: #98989a;" />
          <path d="M167.22,14.53h-.49v-.62h.49v.62ZM166.73,15.09h.49v3.09h-.49v-3.09Z" style="fill: #98989a;" />
          <path
            d="M168.14,17.2c.02.46.4.6.8.6.31,0,.72-.07.72-.46s-.48-.46-.97-.57c-.48-.11-.97-.28-.97-.87,0-.62.59-.88,1.11-.88.66,0,1.18.21,1.22.97h-.49c-.04-.39-.37-.52-.69-.52-.29,0-.63.08-.63.39,0,.37.52.42.98.54.49.11.97.28.97.88,0,.74-.66.97-1.27.97-.67,0-1.23-.28-1.26-1.05h.49Z"
            style="fill: #98989a;" />
          <path
            d="M170.59,15.09h.46v.49h.01c.21-.38.54-.56.97-.56.79,0,1.03.47,1.03,1.13v2.03h-.49v-2.09c0-.38-.23-.62-.61-.62-.59,0-.88.41-.88.97v1.75h-.49v-3.09Z"
            style="fill: #98989a;" />
          <path
            d="M176.2,17.2c-.13.68-.61,1.05-1.27,1.05-.95,0-1.4-.68-1.43-1.63,0-.93.59-1.61,1.4-1.61,1.05,0,1.38,1.02,1.35,1.77h-2.23c-.02.54.28,1.02.93,1.02.4,0,.69-.2.77-.6h.48ZM175.73,16.34c-.02-.48-.38-.87-.86-.87-.51,0-.82.4-.85.87h1.71Z"
            style="fill: #98989a;" />
          <path
            d="M177.79,18.59c-.22.6-.43.83-.87.83-.12,0-.23-.01-.34-.05v-.47c.09.03.19.07.29.07.2,0,.31-.1.4-.28l.2-.53-1.18-3.07h.55l.87,2.53h.01l.84-2.53h.52l-1.3,3.5Z"
            style="fill: #98989a;" />
        </g>
        <g>
          <path
            d="M151.73,19.79c1.18,0,2.16.96,2.16,2.23s-.99,2.25-2.16,2.25-2.17-.96-2.17-2.25.99-2.23,2.17-2.23ZM151.73,23.93c1,0,1.77-.83,1.77-1.92s-.77-1.9-1.77-1.9-1.78.83-1.78,1.9.77,1.92,1.78,1.92ZM152.87,22.46c-.12.58-.54.94-1.07.94-.78,0-1.28-.59-1.28-1.37s.47-1.36,1.26-1.36c.55,0,1,.31,1.08.91h-.36c-.06-.33-.33-.58-.72-.58-.57,0-.88.45-.88,1.02s.34,1.05.89,1.05c.38,0,.65-.26.7-.61h.37Z"
            style="fill: #98989a;" />
          <path
            d="M155.8,19.89h1.41c1.27,0,1.98.66,1.98,2.03s-.61,2.24-1.98,2.24h-1.41v-4.27ZM156.35,23.68h.91c.38,0,1.38-.11,1.38-1.68,0-1.02-.36-1.63-1.37-1.63h-.92v3.31Z"
            style="fill: #98989a;" />
          <path d="M160.17,20.51h-.49v-.62h.49v.62ZM159.68,21.07h.49v3.09h-.49v-3.09Z" style="fill: #98989a;" />
          <path
            d="M161.09,23.19c.02.46.4.6.8.6.31,0,.72-.07.72-.46s-.48-.46-.97-.57c-.48-.11-.97-.28-.97-.87,0-.62.59-.88,1.11-.88.66,0,1.18.21,1.22.97h-.49c-.04-.39-.37-.52-.69-.52-.29,0-.63.08-.63.39,0,.37.52.42.98.54.49.11.97.28.97.88,0,.74-.66.97-1.27.97-.67,0-1.23-.28-1.26-1.05h.49Z"
            style="fill: #98989a;" />
          <path
            d="M163.53,21.07h.46v.49h.01c.21-.38.54-.56.97-.56.79,0,1.03.47,1.03,1.13v2.03h-.49v-2.09c0-.38-.23-.62-.61-.62-.59,0-.88.41-.88.97v1.75h-.49v-3.09Z"
            style="fill: #98989a;" />
          <path
            d="M169.15,23.18c-.13.68-.61,1.05-1.27,1.05-.95,0-1.4-.68-1.43-1.63,0-.93.59-1.61,1.4-1.61,1.05,0,1.38,1.02,1.35,1.77h-2.23c-.02.54.28,1.02.93,1.02.4,0,.69-.2.77-.6h.48ZM168.67,22.32c-.02-.48-.38-.87-.86-.87-.51,0-.82.4-.85.87h1.71Z"
            style="fill: #98989a;" />
          <path
            d="M170.73,24.57c-.22.6-.43.83-.87.83-.12,0-.23-.01-.34-.05v-.47c.09.03.19.07.29.07.2,0,.31-.1.4-.28l.2-.53-1.18-3.07h.55l.87,2.53h.01l.84-2.53h.52l-1.3,3.5Z"
            style="fill: #98989a;" />
          <path d="M173.54,19.79h.42l-1.71,4.47h-.42l1.71-4.47Z" style="fill: #98989a;" />
          <path
            d="M174.17,19.89h1.81c.82,0,1.26.47,1.26,1.26s-.44,1.27-1.26,1.26h-1.26v1.75h-.55v-4.27ZM174.72,21.94h1.07c.62,0,.9-.27.9-.78s-.28-.78-.9-.78h-1.07v1.57Z"
            style="fill: #98989a;" />
          <path d="M178.21,20.51h-.49v-.62h.49v.62ZM177.72,21.07h.49v3.09h-.49v-3.09Z" style="fill: #98989a;" />
          <path
            d="M179.64,22.53l-1.04-1.47h.63l.71,1.08.74-1.08h.59l-1.03,1.42,1.15,1.67h-.63l-.83-1.28-.83,1.28h-.59l1.12-1.63Z"
            style="fill: #98989a;" />
          <path
            d="M184.32,24.15c-.09.05-.2.08-.35.08-.25,0-.42-.14-.42-.48-.27.33-.63.48-1.05.48-.54,0-.99-.25-.99-.87,0-.7.5-.85,1.01-.95.54-.11,1-.07,1-.45,0-.44-.35-.51-.66-.51-.42,0-.72.13-.74.59h-.49c.03-.77.6-1.03,1.26-1.03.54,0,1.12.12,1.12.85v1.59c0,.24,0,.35.16.35.04,0,.09,0,.15-.03v.4ZM183.52,22.56c-.19.14-.56.15-.89.21-.32.06-.6.18-.6.56,0,.33.28.46.58.46.65,0,.91-.42.91-.7v-.52Z"
            style="fill: #98989a;" />
          <path d="M184.62,21.07h.46v.65h.01c.24-.5.57-.74,1.1-.72v.54c-.79,0-1.08.47-1.08,1.25v1.38h-.49v-3.09Z"
            style="fill: #98989a;" />
        </g>
        <g>
          <path
            d="M141,25.77c1.18,0,2.16.96,2.16,2.23s-.99,2.25-2.16,2.25-2.17-.96-2.17-2.25.99-2.23,2.17-2.23ZM141,29.92c1,0,1.77-.83,1.77-1.92s-.77-1.9-1.77-1.9-1.78.83-1.78,1.9.77,1.92,1.78,1.92ZM142.15,28.44c-.12.58-.54.94-1.07.94-.78,0-1.28-.59-1.28-1.37s.47-1.36,1.26-1.36c.55,0,1,.31,1.08.91h-.36c-.06-.33-.33-.58-.72-.58-.57,0-.88.45-.88,1.02s.34,1.05.89,1.05c.38,0,.65-.26.7-.61h.37Z"
            style="fill: #98989a;" />
          <path
            d="M145.08,25.87h1.41c1.27,0,1.98.66,1.98,2.03s-.61,2.24-1.98,2.24h-1.41v-4.27ZM145.62,29.66h.91c.38,0,1.38-.11,1.38-1.68,0-1.02-.36-1.63-1.37-1.63h-.92v3.31Z"
            style="fill: #98989a;" />
          <path d="M149.44,26.49h-.49v-.62h.49v.62ZM148.95,27.05h.49v3.09h-.49v-3.09Z" style="fill: #98989a;" />
          <path
            d="M150.36,29.17c.02.46.4.6.8.6.31,0,.72-.07.72-.46s-.48-.46-.97-.57c-.48-.11-.97-.28-.97-.87,0-.62.59-.88,1.11-.88.66,0,1.18.21,1.22.97h-.49c-.04-.39-.37-.52-.69-.52-.29,0-.63.08-.63.39,0,.37.52.42.98.54.49.11.97.28.97.88,0,.74-.66.97-1.27.97-.67,0-1.23-.28-1.26-1.05h.49Z"
            style="fill: #98989a;" />
          <path
            d="M152.81,27.05h.46v.49h.01c.21-.38.54-.56.97-.56.79,0,1.03.47,1.03,1.13v2.03h-.49v-2.09c0-.38-.23-.62-.61-.62-.59,0-.88.41-.88.97v1.75h-.49v-3.09Z"
            style="fill: #98989a;" />
          <path
            d="M158.42,29.16c-.13.68-.61,1.05-1.27,1.05-.95,0-1.4-.68-1.43-1.63,0-.93.59-1.61,1.4-1.61,1.05,0,1.38,1.02,1.35,1.77h-2.23c-.02.54.28,1.02.93,1.02.4,0,.69-.2.77-.6h.48ZM157.95,28.3c-.02-.48-.38-.87-.86-.87-.51,0-.82.4-.85.87h1.71Z"
            style="fill: #98989a;" />
          <path
            d="M160.01,30.56c-.22.6-.43.83-.87.83-.12,0-.23-.01-.34-.05v-.47c.09.03.19.07.29.07.2,0,.31-.1.4-.28l.2-.53-1.18-3.07h.55l.87,2.53h.01l.84-2.53h.52l-1.3,3.5Z"
            style="fill: #98989a;" />
          <path
            d="M163.13,25.87h1.49c.36,0,.84,0,1.09.16.27.17.48.47.48.89,0,.46-.23.8-.61.96h0c.51.12.78.51.78,1.04,0,.63-.43,1.23-1.25,1.23h-1.99v-4.27ZM163.68,27.71h1.1c.62,0,.88-.23.88-.68,0-.59-.4-.68-.88-.68h-1.1v1.36ZM163.68,29.66h1.37c.47,0,.77-.3.77-.77,0-.56-.43-.71-.89-.71h-1.25v1.48Z"
            style="fill: #98989a;" />
          <path
            d="M169.5,30.13c-.09.05-.2.08-.35.08-.25,0-.42-.14-.42-.48-.27.33-.63.48-1.05.48-.54,0-.99-.25-.99-.87,0-.7.5-.85,1.01-.95.54-.11,1-.07,1-.45,0-.44-.35-.51-.66-.51-.42,0-.72.13-.74.59h-.49c.03-.77.6-1.03,1.26-1.03.54,0,1.12.12,1.12.85v1.59c0,.24,0,.35.16.35.04,0,.09,0,.15-.03v.4ZM168.7,28.55c-.19.14-.56.15-.89.21-.32.06-.6.18-.6.56,0,.33.28.46.58.46.65,0,.91-.42.91-.7v-.52Z"
            style="fill: #98989a;" />
          <path
            d="M170.11,29.17c.02.46.4.6.8.6.31,0,.72-.07.72-.46s-.48-.46-.97-.57c-.48-.11-.97-.28-.97-.87,0-.62.59-.88,1.11-.88.66,0,1.18.21,1.22.97h-.49c-.04-.39-.37-.52-.69-.52-.29,0-.63.08-.63.39,0,.37.52.42.98.54.49.11.97.28.97.88,0,.74-.66.97-1.27.97-.67,0-1.23-.28-1.26-1.05h.49Z"
            style="fill: #98989a;" />
          <path
            d="M175.1,29.16c-.13.68-.61,1.05-1.27,1.05-.95,0-1.4-.68-1.43-1.63,0-.93.59-1.61,1.4-1.61,1.05,0,1.38,1.02,1.35,1.77h-2.23c-.02.54.28,1.02.93,1.02.4,0,.69-.2.77-.6h.48ZM174.63,28.3c-.02-.48-.38-.87-.86-.87-.51,0-.82.4-.85.87h1.71Z"
            style="fill: #98989a;" />
          <path
            d="M178.18,30.14h-.49v-.42h-.01c-.16.34-.54.49-.95.49-.92,0-1.37-.75-1.37-1.63s.45-1.61,1.36-1.61c.31,0,.74.12.96.48h.01v-1.59h.49v4.27ZM176.8,29.77c.66,0,.91-.59.91-1.17,0-.61-.27-1.17-.94-1.17s-.89.59-.89,1.2.29,1.14.92,1.14Z"
            style="fill: #98989a;" />
          <path
            d="M181.55,26.98c.95,0,1.45.71,1.45,1.62s-.5,1.61-1.45,1.61-1.45-.71-1.45-1.61.5-1.62,1.45-1.62ZM181.55,29.77c.51,0,.93-.42.93-1.17s-.42-1.17-.93-1.17-.93.42-.93,1.17.42,1.17.93,1.17Z"
            style="fill: #98989a;" />
          <path
            d="M183.44,27.05h.46v.49h.01c.21-.38.54-.56.97-.56.79,0,1.03.47,1.03,1.13v2.03h-.49v-2.09c0-.38-.23-.62-.61-.62-.59,0-.88.41-.88.97v1.75h-.49v-3.09Z"
            style="fill: #98989a;" />
          <path
            d="M188.65,27.05h.59v.45h-.59v1.92c0,.23.06.27.37.27h.22v.45h-.38c-.51,0-.71-.11-.71-.68v-1.97h-.51v-.45h.51v-.93h.49v.93Z"
            style="fill: #98989a;" />
          <path
            d="M189.65,25.87h.49v1.63h.01c.16-.37.58-.53.94-.53.79,0,1.03.47,1.03,1.13v2.03h-.49v-2.09c0-.38-.23-.62-.61-.62-.59,0-.88.41-.88.97v1.75h-.49v-4.27Z"
            style="fill: #98989a;" />
          <path
            d="M195.27,29.16c-.13.68-.61,1.05-1.27,1.05-.95,0-1.4-.68-1.43-1.63,0-.93.59-1.61,1.4-1.61,1.05,0,1.38,1.02,1.35,1.77h-2.23c-.02.54.28,1.02.93,1.02.4,0,.69-.2.77-.6h.48ZM194.79,28.3c-.02-.48-.38-.87-.86-.87-.51,0-.82.4-.85.87h1.71Z"
            style="fill: #98989a;" />
        </g>
        <g>
          <path
            d="M137.72,33.4h-.64v-.66c0-.47.19-.88.63-.88v.3c-.26,0-.33.3-.33.58h.34v.66ZM138.78,33.4h-.64v-.66c0-.47.19-.88.63-.88v.3c-.26,0-.33.3-.33.58h.34v.66Z"
            style="fill: #98989a;" />
          <path
            d="M143.32,36.13h-.57l-.94-3.59h-.01l-.95,3.59h-.57l-1.06-4.27h.56l.81,3.55h.01l.92-3.55h.59l.91,3.55h.01l.84-3.55h.55l-1.1,4.27Z"
            style="fill: #98989a;" />
          <path d="M145.24,32.48h-.49v-.62h.49v.62ZM144.75,33.03h.49v3.09h-.49v-3.09Z" style="fill: #98989a;" />
          <path
            d="M145.86,33.03h.46v.49h.01c.21-.38.54-.56.97-.56.78,0,1.03.47,1.03,1.13v2.03h-.49v-2.09c0-.38-.23-.62-.61-.62-.59,0-.88.41-.88.97v1.75h-.49v-3.09Z"
            style="fill: #98989a;" />
          <path
            d="M148.93,33.03h.46v.49h.01c.21-.38.54-.56.97-.56.78,0,1.03.47,1.03,1.13v2.03h-.49v-2.09c0-.38-.23-.62-.61-.62-.59,0-.88.41-.88.97v1.75h-.49v-3.09Z"
            style="fill: #98989a;" />
          <path d="M152.52,32.48h-.49v-.62h.49v.62ZM152.03,33.03h.49v3.09h-.49v-3.09Z" style="fill: #98989a;" />
          <path
            d="M155.69,35.15c-.13.68-.61,1.05-1.27,1.05-.95,0-1.4-.68-1.43-1.63,0-.93.59-1.61,1.4-1.61,1.06,0,1.38,1.02,1.35,1.77h-2.23c-.02.54.28,1.02.93,1.02.4,0,.69-.2.77-.6h.48ZM155.22,34.28c-.02-.48-.38-.87-.86-.87-.51,0-.82.4-.85.87h1.71Z"
            style="fill: #98989a;" />
          <path
            d="M158.25,33.03h.59v.45h-.59v1.92c0,.23.06.27.37.27h.23v.45h-.38c-.51,0-.71-.11-.71-.68v-1.97h-.51v-.45h.51v-.93h.49v.93Z"
            style="fill: #98989a;" />
          <path
            d="M159.25,31.86h.49v1.63h.01c.16-.37.58-.53.94-.53.78,0,1.03.47,1.03,1.13v2.03h-.49v-2.09c0-.38-.23-.62-.61-.62-.59,0-.88.41-.88.97v1.75h-.49v-4.27Z"
            style="fill: #98989a;" />
          <path
            d="M164.86,35.15c-.13.68-.61,1.05-1.27,1.05-.95,0-1.4-.68-1.43-1.63,0-.93.59-1.61,1.4-1.61,1.06,0,1.38,1.02,1.35,1.77h-2.23c-.02.54.28,1.02.93,1.02.4,0,.69-.2.77-.6h.48ZM164.39,34.28c-.02-.48-.38-.87-.86-.87-.51,0-.82.4-.85.87h1.71Z"
            style="fill: #98989a;" />
          <path
            d="M166.82,31.86h1.81c.82,0,1.26.47,1.26,1.26s-.44,1.27-1.26,1.26h-1.26v1.75h-.55v-4.27ZM167.37,33.9h1.07c.62,0,.9-.27.9-.78s-.28-.78-.9-.78h-1.07v1.57Z"
            style="fill: #98989a;" />
          <path
            d="M171.3,32.96c.95,0,1.45.71,1.45,1.62s-.5,1.61-1.45,1.61-1.45-.71-1.45-1.61.5-1.62,1.45-1.62ZM171.3,35.75c.51,0,.93-.42.93-1.17s-.42-1.17-.93-1.17-.93.42-.93,1.17.42,1.17.93,1.17Z"
            style="fill: #98989a;" />
          <path
            d="M174.48,32.96c.95,0,1.45.71,1.45,1.62s-.5,1.61-1.45,1.61-1.45-.71-1.45-1.61.5-1.62,1.45-1.62ZM174.48,35.75c.51,0,.93-.42.93-1.17s-.42-1.17-.93-1.17-.93.42-.93,1.17.42,1.17.93,1.17Z"
            style="fill: #98989a;" />
          <path
            d="M176.36,31.86h.49v1.63h.01c.16-.37.58-.53.94-.53.78,0,1.03.47,1.03,1.13v2.03h-.49v-2.09c0-.38-.23-.62-.61-.62-.59,0-.88.41-.88.97v1.75h-.49v-4.27Z"
            style="fill: #98989a;" />
          <path
            d="M179.12,31.86h.64v.66c0,.47-.19.88-.63.88v-.3c.26,0,.33-.31.33-.58h-.34v-.66ZM180.18,31.86h.64v.66c0,.47-.19.88-.63.88v-.3c.26,0,.33-.31.33-.58h-.34v-.66Z"
            style="fill: #98989a;" />
          <path
            d="M185.84,36.13h-.52l-.61-2.46h-.01l-.6,2.46h-.53l-.96-3.09h.54l.67,2.53h.01l.6-2.53h.54l.62,2.53h.01l.67-2.53h.51l-.95,3.09Z"
            style="fill: #98989a;" />
          <path
            d="M188.41,32.96c.95,0,1.45.71,1.45,1.62s-.5,1.61-1.45,1.61-1.45-.71-1.45-1.61.5-1.62,1.45-1.62ZM188.41,35.75c.51,0,.93-.42.93-1.17s-.42-1.17-.93-1.17-.93.42-.93,1.17.42,1.17.93,1.17Z"
            style="fill: #98989a;" />
          <path d="M190.28,33.03h.46v.65h.01c.24-.5.57-.74,1.1-.72v.54c-.79,0-1.08.47-1.08,1.25v1.38h-.49v-3.09Z"
            style="fill: #98989a;" />
          <path d="M192.1,31.86h.49v2.53l1.36-1.35h.66l-1.18,1.12,1.27,1.97h-.62l-1.02-1.62-.46.44v1.17h-.49v-4.27Z"
            style="fill: #98989a;" />
          <path
            d="M195.23,35.15c.02.46.4.6.8.6.31,0,.72-.07.72-.46s-.49-.46-.98-.57c-.48-.11-.97-.28-.97-.87,0-.62.59-.88,1.11-.88.66,0,1.18.21,1.22.97h-.49c-.03-.39-.37-.52-.69-.52-.29,0-.63.08-.63.39,0,.37.52.42.97.54.49.11.97.28.97.88,0,.74-.66.97-1.27.97-.67,0-1.23-.28-1.26-1.05h.49Z"
            style="fill: #98989a;" />
        </g>
        <g>
          <path
            d="M145.68,37.84h.49v1.6h.01c.16-.34.54-.49.95-.49.92,0,1.37.75,1.37,1.63s-.45,1.61-1.36,1.61c-.31,0-.74-.12-.96-.48h-.01v.41h-.49v-4.27ZM147.07,39.39c-.66,0-.91.59-.91,1.17,0,.61.26,1.17.94,1.17s.89-.59.89-1.2-.29-1.14-.92-1.14Z"
            style="fill: #98989a;" />
          <path
            d="M150.12,42.52c-.23.6-.43.83-.87.83-.12,0-.23-.01-.34-.05v-.47c.09.03.19.07.29.07.2,0,.31-.1.4-.28l.2-.53-1.18-3.07h.55l.87,2.53h.01l.84-2.53h.52l-1.3,3.5Z"
            style="fill: #98989a;" />
          <path
            d="M154.36,37.84h.61l1.61,4.27h-.61l-.45-1.29h-1.74l-.46,1.29h-.57l1.61-4.27ZM153.95,40.34h1.4l-.69-1.99h-.01l-.7,1.99Z"
            style="fill: #98989a;" />
          <path d="M157.05,41.44h.64v.66h-.64v-.66Z" style="fill: #98989a;" />
          <path
            d="M159.6,37.84h.61l1.61,4.27h-.61l-.45-1.29h-1.74l-.46,1.29h-.57l1.61-4.27ZM159.19,40.34h1.4l-.69-1.99h-.01l-.7,1.99Z"
            style="fill: #98989a;" />
          <path d="M162.29,41.44h.64v.66h-.64v-.66Z" style="fill: #98989a;" />
          <path
            d="M165.19,37.84h.75l1.3,3.59,1.3-3.59h.75v4.27h-.52v-3.55h-.01l-1.29,3.55h-.47l-1.29-3.55h-.01v3.55h-.52v-4.27Z"
            style="fill: #98989a;" />
          <path d="M170.51,38.46h-.49v-.62h.49v.62ZM170.02,39.02h.49v3.09h-.49v-3.09Z" style="fill: #98989a;" />
          <path d="M171.16,37.84h.49v4.27h-.49v-4.27Z" style="fill: #98989a;" />
          <path
            d="M172.27,39.02h.46v.49h.01c.21-.38.54-.56.97-.56.78,0,1.03.47,1.03,1.13v2.03h-.49v-2.09c0-.38-.23-.62-.61-.62-.59,0-.88.41-.88.97v1.75h-.49v-3.09Z"
            style="fill: #98989a;" />
          <path
            d="M177.88,41.13c-.13.68-.61,1.05-1.27,1.05-.95,0-1.4-.68-1.43-1.63,0-.93.59-1.61,1.4-1.61,1.05,0,1.38,1.02,1.35,1.77h-2.23c-.02.54.28,1.02.93,1.02.4,0,.69-.2.77-.6h.48ZM177.41,40.27c-.02-.48-.38-.87-.86-.87-.51,0-.82.4-.85.87h1.71Z"
            style="fill: #98989a;" />
          <path
            d="M182.41,42.1c-.09.05-.2.08-.35.08-.25,0-.42-.14-.42-.48-.27.33-.63.48-1.05.48-.54,0-.99-.25-.99-.87,0-.7.5-.85,1.01-.95.54-.11,1-.07,1-.45,0-.44-.35-.51-.66-.51-.42,0-.72.13-.74.59h-.49c.03-.77.6-1.03,1.26-1.03.54,0,1.12.12,1.12.85v1.59c0,.24,0,.35.16.35.04,0,.09,0,.15-.03v.4ZM181.61,40.51c-.19.14-.56.15-.89.21-.32.06-.6.18-.6.56,0,.33.28.46.58.46.65,0,.91-.42.91-.7v-.52Z"
            style="fill: #98989a;" />
          <path
            d="M182.72,39.02h.46v.49h.01c.21-.38.54-.56.97-.56.78,0,1.03.47,1.03,1.13v2.03h-.49v-2.09c0-.38-.23-.62-.61-.62-.59,0-.88.41-.88.97v1.75h-.49v-3.09Z"
            style="fill: #98989a;" />
          <path
            d="M188.46,42.11h-.49v-.42h-.01c-.16.34-.54.49-.95.49-.92,0-1.37-.75-1.37-1.63s.45-1.61,1.36-1.61c.31,0,.74.12.96.48h.01v-1.59h.49v4.27ZM187.07,41.73c.66,0,.91-.59.91-1.17,0-.61-.27-1.17-.94-1.17s-.89.59-.89,1.2.29,1.14.92,1.14Z"
            style="fill: #98989a;" />
        </g>
        <g>
          <path d="M151.82,43.82h2.84v.48h-2.29v1.36h2.14v.48h-2.14v1.48h2.31v.48h-2.86v-4.27Z"
            style="fill: #98989a;" />
          <path d="M155.34,47.43h.64v.66h-.64v-.66Z" style="fill: #98989a;" />
          <path d="M156.78,43.82h.55v1.84h2.17v-1.84h.55v4.27h-.55v-1.96h-2.17v1.96h-.55v-4.27Z"
            style="fill: #98989a;" />
          <path d="M160.72,47.43h.64v.66h-.64v-.66Z" style="fill: #98989a;" />
          <path
            d="M166,45.07c-.06-.61-.46-.87-1.02-.87-.46,0-.92.17-.92.73,0,.53.66.6,1.32.76.66.16,1.32.39,1.32,1.23,0,.91-.86,1.27-1.61,1.27-.92,0-1.7-.47-1.7-1.51h.52c0,.72.58,1.03,1.2,1.03.5,0,1.04-.16,1.04-.78s-.66-.69-1.32-.84c-.66-.15-1.32-.35-1.32-1.13,0-.87.74-1.25,1.49-1.25.84,0,1.48.41,1.52,1.35h-.52Z"
            style="fill: #98989a;" />
          <path
            d="M167.14,43.82h.49v1.63h.01c.16-.37.58-.53.94-.53.78,0,1.03.47,1.03,1.13v2.03h-.49v-2.09c0-.38-.23-.62-.61-.62-.59,0-.88.41-.88.97v1.75h-.49v-4.27Z"
            style="fill: #98989a;" />
          <path
            d="M172.75,47.11c-.13.68-.61,1.05-1.27,1.05-.95,0-1.4-.68-1.43-1.63,0-.93.59-1.61,1.4-1.61,1.06,0,1.38,1.02,1.35,1.77h-2.23c-.02.54.28,1.02.93,1.02.4,0,.69-.2.77-.6h.48ZM172.28,46.25c-.02-.48-.38-.87-.86-.87-.51,0-.82.4-.85.87h1.71Z"
            style="fill: #98989a;" />
          <path
            d="M173.18,45h.49v.42h.01c.16-.34.54-.49.95-.49.92,0,1.37.75,1.37,1.63s-.45,1.61-1.36,1.61c-.31,0-.74-.12-.96-.48h-.01v1.6h-.49v-4.28ZM174.57,45.37c-.66,0-.91.59-.91,1.17,0,.61.26,1.17.94,1.17s.89-.59.89-1.2-.29-1.14-.92-1.14Z"
            style="fill: #98989a;" />
          <path
            d="M179.09,48.08c-.09.05-.2.08-.35.08-.25,0-.42-.14-.42-.48-.27.33-.63.48-1.05.48-.54,0-.99-.25-.99-.87,0-.7.5-.85,1.01-.95.54-.11,1-.07,1-.45,0-.44-.35-.51-.66-.51-.42,0-.72.13-.74.59h-.49c.03-.77.6-1.03,1.26-1.03.54,0,1.12.12,1.12.85v1.59c0,.24,0,.35.16.35.04,0,.09,0,.15-.03v.4ZM178.29,46.49c-.19.14-.56.15-.89.21-.32.06-.6.18-.6.56,0,.33.28.46.58.46.65,0,.91-.42.91-.7v-.52Z"
            style="fill: #98989a;" />
          <path d="M179.39,45h.46v.65h.01c.24-.5.57-.74,1.1-.72v.54c-.79,0-1.08.47-1.08,1.25v1.38h-.49v-3.09Z"
            style="fill: #98989a;" />
          <path
            d="M183.85,48.09h-.49v-.42h-.01c-.16.34-.54.49-.95.49-.92,0-1.37-.75-1.37-1.63s.45-1.61,1.36-1.61c.31,0,.74.12.96.48h.01v-1.59h.49v4.27ZM182.46,47.71c.66,0,.91-.59.91-1.17,0-.61-.27-1.17-.94-1.17s-.89.59-.89,1.2.29,1.14.92,1.14Z"
            style="fill: #98989a;" />
        </g>
      </g>
      <rect x="132.37" y=".11" width="70.87" height="62.36"
        style="fill: none; stroke: #000; stroke-miterlimit: 10; stroke-width: .22px;" />
    </g>
    <g>
      <line x1="19.39" y1=".63" x2="2.31" y2=".63" style="fill: none; stroke: #00aeef; stroke-width: .49px;" />
      <line x1="10.97" y1=".76" x2="10.97" y2="61.83"
        style="fill: none; stroke: #00aeef; stroke-dasharray: 1.49 1.99; stroke-width: .5px;" />
      <line x1="19.39" y1="62.1" x2="2.31" y2="62.1" style="fill: none; stroke: #00aeef; stroke-width: .46px;" />
      <g>
        <path
          d="M6.64,39.74h.38v4.6c-1.29-.08-2-1.1-2.67-2.11-.67-1-1.31-2-2.47-2-.94,0-1.55.8-1.55,1.7,0,1.26.93,1.86,2.12,1.86v.38c-1.65-.08-2.45-.83-2.45-2.18,0-1.17.62-2.14,1.89-2.14s1.97.95,2.63,1.94c.66.99,1.27,2,2.12,2.07v-4.12Z"
          style="fill: #00aeef;" />
        <path
          d="M6.64,34.18h.38v4.6c-1.29-.08-2-1.1-2.67-2.11-.67-1-1.31-2-2.47-2-.94,0-1.55.8-1.55,1.7,0,1.26.93,1.86,2.12,1.86v.38c-1.65-.08-2.45-.83-2.45-2.18,0-1.17.62-2.14,1.89-2.14s1.97.95,2.63,1.94c.66.99,1.27,2,2.12,2.07v-4.12Z"
          style="fill: #00aeef;" />
        <path
          d="M1.88,30.32v-.38h1.05v-.02c-.65-.16-1.17-.84-1.17-1.61,0-.98.56-1.44,1.09-1.55v-.02c-.7-.3-1.09-.8-1.09-1.63,0-.93.54-1.61,1.75-1.61h3.51v.38h-3.52c-1.31,0-1.41.93-1.41,1.23,0,.93.66,1.61,1.89,1.61h3.04v.38h-3.52c-1.29,0-1.41.88-1.41,1.21,0,.73.57,1.63,1.89,1.63h3.04v.38H1.88Z"
          style="fill: #00aeef;" />
        <path
          d="M1.88,22.36v-.38h1.05v-.02c-.65-.16-1.17-.84-1.17-1.61,0-.98.56-1.44,1.09-1.55v-.02c-.7-.3-1.09-.8-1.09-1.63,0-.93.54-1.61,1.75-1.61h3.51v.38h-3.52c-1.31,0-1.41.93-1.41,1.23,0,.93.66,1.61,1.89,1.61h3.04v.38h-3.52c-1.29,0-1.41.88-1.41,1.21,0,.73.57,1.63,1.89,1.63h3.04v.38H1.88Z"
          style="fill: #00aeef;" />
      </g>
    </g>
    <g>
      <line x1="25.44" y1="74.47" x2="96.08" y2="74.47"
        style="fill: none; stroke: #00aeef; stroke-dasharray: 1.29 1.72; stroke-width: .43px;" />
      <line x1="25.46" y1="67.28" x2="25.46" y2="83.2" style="fill: none; stroke: #00aeef; stroke-width: .43px;" />
      <line x1="95.77" y1="66.89" x2="95.77" y2="82.42" style="fill: none; stroke: #00aeef; stroke-width: .43px;" />
      <g>
        <path
          d="M50.72,84.69v.38h-4.51c.08-1.29,1.08-2,2.07-2.67.98-.67,1.96-1.31,1.96-2.47,0-.94-.78-1.55-1.67-1.55-1.24,0-1.82.93-1.82,2.12h-.37c.08-1.65.81-2.45,2.14-2.45,1.15,0,2.1.62,2.1,1.89s-.93,1.97-1.9,2.63c-.97.66-1.96,1.27-2.03,2.12h4.04Z"
          style="fill: #00aeef;" />
        <path
          d="M52.49,78.17h3.42v.33h-3.13l-.58,2.75.02.02c.39-.55,1-.83,1.68-.83,1.34,0,2.3.98,2.3,2.35s-.94,2.4-2.3,2.4-2.41-.84-2.33-2.23h.37c-.02,1.15.86,1.9,1.95,1.9,1.15,0,1.92-.94,1.92-2.07s-.81-2.02-1.92-2.02c-.77,0-1.3.33-1.74.97h-.38l.71-3.57Z"
          style="fill: #00aeef;" />
        <path
          d="M59.95,79.93h.37v1.05h.02c.16-.65.82-1.17,1.58-1.17.96,0,1.41.56,1.52,1.09h.02c.29-.7.79-1.09,1.6-1.09.91,0,1.58.54,1.58,1.75v3.51h-.37v-3.52c0-1.31-.91-1.41-1.21-1.41-.91,0-1.58.66-1.58,1.89v3.04h-.37v-3.52c0-1.29-.86-1.41-1.19-1.41-.72,0-1.6.57-1.6,1.89v3.04h-.37v-5.14Z"
          style="fill: #00aeef;" />
        <path
          d="M67.77,79.93h.37v1.05h.02c.16-.65.82-1.17,1.58-1.17.96,0,1.41.56,1.52,1.09h.02c.29-.7.79-1.09,1.6-1.09.91,0,1.58.54,1.58,1.75v3.51h-.37v-3.52c0-1.31-.91-1.41-1.21-1.41-.91,0-1.58.66-1.58,1.89v3.04h-.37v-3.52c0-1.29-.86-1.41-1.19-1.41-.72,0-1.6.57-1.6,1.89v3.04h-.37v-5.14Z"
          style="fill: #00aeef;" />
      </g>
    </g>
    <rect x="25.35" y=".3" width="70.87" height="62.36"
      style="fill: none; stroke: #000; stroke-miterlimit: 10; stroke-width: .22px;" />
    <g>
      <path
        d="M78.66,30.15c-.47-.57-2.17-.86-1.42-1.86.57-.76,2.05.45,2.35-.41.17-.5.43-2.44,1.38-1.15.22.29.06.83.39,1.06.35.23.95-.1,1.33-.05,1.26.16.71,1.12.07,1.66-.89.75-.05,1.13.06,1.99.16,1.27-1.45.24-2.02.19-.77-.06-1.8,1.38-2.23.91s.09-2.34.09-2.34Z"
        style="fill: #c9cacb;" />
      <path
        d="M67.6,30.74c-.47-.22-1.64.09-1.45-.76.14-.65,1.44-.32,1.37-.96-.04-.37-.45-1.68.54-1.14.22.12.28.51.56.55.29.05.57-.34.83-.43.85-.27.79.5.54,1.04-.35.74.3.73.63,1.24.48.76-.86.57-1.23.72-.45.19-.64,1.52-1.05,1.35s-.74-1.62-.74-1.62Z"
        style="fill: #c9cacb;" />
      <path
        d="M82.8,24.89c-.23-.28-1.06-.43-.69-.91.28-.37,1,.22,1.15-.19.09-.24.22-1.19.68-.56.11.14.03.41.19.52.17.12.46-.05.65-.02.61.08.34.55.03.81-.44.36-.03.55.02.97.07.62-.71.1-.99.09-.34-.02-.86.77-1.06.54s.02-1.24.02-1.24Z"
        style="fill: #c9cacb;" />
      <path
        d="M42.68,14.25c-1.62.05-2.92.25-3.21.56-.26.28-.58.51-.59.89,0,.37.42.4.68.4.26,0,.5-.02.5-.17,0-.22-.35-.17-.35-.39,0-.25,1.34-.31,2-.31,5.73-.02,12.32,3.98,12.33,7.36,0,2.63-3.39,3.22-5.27,3.23-.67,0-1.31-.07-1.93-.19-.03-.84-.08-2.6-.1-3.71.22,0,.42,0,.59,0,1.39,0,3.21.49,3.22.82,0,.28-.48.47-.48.74,0,.2.45.16.84.19.07,0,.85-.43.85-1.13,0-.92-1.15-2.01-4.88-2-.05,0-.11,0-.16,0-.04-1.04-.19-2.67-.77-2.67-.49,0-.63,1.8-.67,2.79-2.09.32-3.95,1.17-3.95,2.02,0,.69,1.5,2.43,3.92,3.49.04.78.19,1.32.88,1.31.5,0,.67-.37.72-.76.78.2,1.63.32,2.53.32,3.51-.01,6.33-1.9,6.32-4.49,0-3.47-6.97-8.46-13.02-8.29ZM41.74,22.89c0-.61,1.82-.83,3.51-.92-.01.95-.02,2.31-.02,3.22-2.08-.74-3.49-1.91-3.49-2.3ZM57.71,24.41c.04,1.68-.12,1.74-.6,1.74-.53,0-.83-.24-.78-2.24.02-.88.03-3.29.63-3.29.46,0,.68.61.75,3.79ZM57.27,19.71c1.32,0,3.41-1.51,3.4-2.75,0-.56-.29-.85-1.01-.95-.3-.29-.74-.62-1.41-.62-2.05,0-3.38,1.65-3.37,2.54,0,.33.11.74.4,1.07.01.71.18.9.41.9.26,0,.41-.15.51-.33.29.09.64.14,1.06.14ZM57.41,18.7c-.3,0-.56-.04-.77-.11.58-.66,1.98-1.9,2.67-1.91.45,0,.53.36.53.5,0,.83-1.7,1.51-2.43,1.52ZM57.5,16.48c-.63.37-1.27.89-1.7,1.41-.02-.07-.03-.13-.03-.2,0-.4.58-1.02,1.74-1.22ZM59.51,22.16c0,.21.99.25,1.91.33,1.23.11,2.64.27,2.64,1.77,0,.62-.52,1.81-2.62,1.82-2.12,0-2.88-1.09-2.88-1.55,0-.89.85-1.14,1.44-1.14.56,0,2.39.22,2.39.67,0,.25-.46.49-1.01.49-.55,0-1.35-.49-1.74-.49-.39,0-.56.26-.56.41,0,.15.02.46,1.06.45.5,0,2.94-.28,2.94-.95,0-.3-1.12-.6-2.04-.7-1.13-.12-2.83.17-2.84-.99,0-1.71,3.04-1.78,3.64-1.78.8,0,2.22,0,2.22.55,0,.93-4.56.43-4.57,1.11ZM69.43,23.77c0,.78-.48,1.99-1.3,1.99-.75,0-2.11-2.81-2.36-2.81-.33,0,.1,3.08-.74,3.08-.56,0-.69-.51-.69-1.27,0-.76.38-3.84,1.1-3.79.7.05,2.38,3.14,2.58,3.08.12-.04.14-.33.14-.49,0-.78-.81-2.82-.81-3.4,0-.19.03-.38.2-.38.69,0,1.87,2.19,1.88,3.99ZM73.86,25.16c-.02.19-1.37,1.24-2.87,1.29-.95.03-1.3-1.01-1.3-1.48,0-.3.29-1.03.39-1.39.03-.12-.13-.27-.12-.37.04-.42.65-.47.7-.62.05-.14.18-.59.16-.71-.02-.12-.87-.29-.88-.72,0-.46,1.82-.45,3.22-.61.82-.09,1.48.68,1.42.86-.05.19-.21.3-.43.36-.13.03-1.88.08-2.14.19-.13.05-.21.59-.15.7.06.11,1.22.11,1.4.13.37.03.48.83-.11.87-.21.01-1.48,0-1.68.06-.21.07-.41,1.01-.3,1.11.11.1,1.74-.27,2.03-.27.29,0,.7.32.67.6ZM79.02,20.96c-.82.05-2.4,1.8-3.32,2.98-.06-.12-.09-.24-.09-.34,0-.5.93-2,1.11-2.37.18-.39-.02-.91-.25-.72-.44.36-1.84,2.01-1.84,3.54,0,.35.09.78.29,1.17-.32,1.03-1.08,3.31-1.06,4.7.01.72.73,1.42,1.16,1.32.16-.04.2-.97.42-1.61.3-.92.79-2.59.96-3.3.08,0,.16.01.24.01,1.71,0,3.62-1.84,3.61-3.43,0-1.58-.94-1.97-1.23-1.95ZM77.05,24.88c.69-1.2,1.69-2.8,2.06-2.79.26,0,.36.26.36.66,0,1.18-1.41,2.15-2.42,2.13Z"
        style="fill: #84dade;" />
      <path
        d="M43.44,33.84c-1.35,0-2.47.62-3.18,1.75v-5.63h-3.84v1.23h.91c.62,0,.88.26.88.88v12.49h1.14l.65-1.68c.77,1.26,1.92,1.9,3.45,1.9,2.81,0,4.63-2.15,4.63-5.47s-1.82-5.47-4.63-5.47ZM43.04,43.35c-2.5,0-2.77-2.83-2.77-4.04s.27-4.04,2.77-4.04,2.77,2.83,2.77,4.04-.27,4.04-2.77,4.04Z"
        style="fill: #ff8672;" />
      <path
        d="M59.07,37.75c0,1.14-.3,1.72-.9,1.72-.42,0-.45-.79-.45-1.03v-5.04c0-3.21-2.12-3.64-4.2-3.64-1.62,0-4.2.73-4.2,2.67,0,1.01.47,1.64,1.23,1.64.65,0,1.4-.33,1.4-1.25,0-.61-.3-1.01-.88-1.16.48-.44,1.24-.66,2.3-.66,1.92,0,2.3.67,2.3,1.74,0,.59-.12.97-.75,1.28-.61.29-1.34.49-2.11.7-1.97.54-4,1.1-4,3.19,0,1.78,1.19,2.8,3.28,2.8,1.52,0,2.72-.5,3.74-1.56.24.99.95,1.56,1.96,1.56,1.77,0,2.52-.97,2.52-3.23v-.74h-1.23v1.02ZM55.67,36.76c0,1.43-1.68,2.71-3.01,2.71-1.02,0-1.59-.59-1.59-1.68,0-.69.43-1.13,1.57-1.62.5-.21.94-.37,1.37-.52.61-.22,1.14-.4,1.66-.68v1.79Z"
        style="fill: #ff8672;" />
      <path
        d="M66.96,34.05c-1.35,0-2.47.62-3.18,1.75v-5.63h-3.84v1.23h.91c.62,0,.88.26.88.88v12.49h1.14l.65-1.68c.77,1.26,1.92,1.9,3.45,1.9,2.81,0,4.63-2.15,4.63-5.47s-1.82-5.47-4.63-5.47ZM66.55,43.57c-2.5,0-2.77-2.83-2.77-4.04s.27-4.04,2.77-4.04,2.77,2.83,2.77,4.04-.27,4.04-2.77,4.04Z"
        style="fill: #ff8672;" />
      <path
        d="M78.49,35.08h.71c.74,0,1.2.16,1.2.41,0,.27-.07.46-.14.64l-2.42,5.57-2.03-4.8-.14-.33c-.24-.57-.41-.98-.41-1.17s.08-.32,1.2-.32h.59v-1.23h-5.8v1.23h.56c.71,0,1.08.27,1.45,1.08l3.62,7.92-1.01,2.04c-.45.9-1.13,1.36-2.03,1.36-.52,0-.96-.27-1.11-.56.8-.04,1.24-.43,1.24-1.1,0-.85-.66-1.23-1.27-1.23-.67,0-1.45.47-1.45,1.81,0,1.44,1.3,2.31,2.57,2.31,1.48,0,2.83-.89,3.44-2.26l4.5-10.08c.21-.48.68-1.29,1.36-1.29h.71v-1.23h-5.35v1.23Z"
        style="fill: #ff8672;" />
    </g>
  </g>
</svg>