<?xml version="1.0" encoding="UTF-8"?>
<svg id="Layer_1" data-name="Layer 1" data-size="24mm x 50mm" xmlns="http://www.w3.org/2000/svg"
  viewBox="0 0 107.56 199.38">

  <text id="quantity" style="font-family: Arial-BoldMT, Arial; font-size: 15px; font-weight: 700; isolation: isolate;"
    y="97%" x="50%" text-anchor="middle"></text>
  <line x1="29.01" y1="161.45" x2="98.31" y2="161.45"
    style="fill: none; stroke: #00aeef; stroke-dasharray: 1.43 1.91; stroke-width: .48px;" />
  <line x1="29.03" y1="154.27" x2="29.03" y2="170.18" style="fill: none; stroke: #00aeef; stroke-width: .48px;" />
  <line x1="98.01" y1="153.88" x2="98.01" y2="169.41" style="fill: none; stroke: #00aeef; stroke-width: .48px;" />
  <g>
    <path
      d="M54.67,171.67v.38h-4.51c.08-1.29,1.08-2,2.07-2.67.98-.67,1.96-1.31,1.96-2.47,0-.94-.78-1.55-1.67-1.55-1.24,0-1.82.93-1.82,2.12h-.37c.08-1.65.81-2.45,2.14-2.45,1.15,0,2.1.62,2.1,1.89s-.93,1.97-1.9,2.63c-.97.66-1.96,1.27-2.03,2.12h4.04Z"
      style="fill: #00aeef;" />
    <path
      d="M59.11,165.15v4.81h1.14v.33h-1.14v1.76h-.37v-1.76h-3.3v-.38l3.3-4.76h.37ZM58.74,165.67h-.02l-2.9,4.29h2.92v-4.29Z"
      style="fill: #00aeef;" />
    <path
      d="M63.9,166.91h.37v1.05h.02c.16-.65.82-1.17,1.58-1.17.96,0,1.41.56,1.52,1.09h.02c.29-.7.79-1.09,1.6-1.09.91,0,1.58.54,1.58,1.75v3.51h-.37v-3.52c0-1.31-.91-1.41-1.21-1.41-.91,0-1.58.66-1.58,1.89v3.04h-.37v-3.52c0-1.29-.86-1.41-1.19-1.41-.72,0-1.6.57-1.6,1.89v3.04h-.37v-5.14Z"
      style="fill: #00aeef;" />
    <path
      d="M71.71,166.91h.37v1.05h.02c.16-.65.82-1.17,1.58-1.17.96,0,1.41.56,1.52,1.09h.02c.29-.7.79-1.09,1.6-1.09.91,0,1.58.54,1.58,1.75v3.51h-.37v-3.52c0-1.31-.91-1.41-1.21-1.41-.91,0-1.58.66-1.58,1.89v3.04h-.37v-3.52c0-1.29-.86-1.41-1.19-1.41-.72,0-1.6.57-1.6,1.89v3.04h-.37v-5.14Z"
      style="fill: #00aeef;" />
  </g>
  <g>
    <line x1="20.14" y1="5.79" x2="3.06" y2="5.79" style="fill: none; stroke: #00aeef; stroke-width: .41px;" />
    <line x1="11.73" y1="5.94" x2="11.73" y2="74.06"
      style="fill: none; stroke: #00aeef; stroke-dasharray: 1.24 1.65; stroke-width: .41px;" />
    <line x1="20.14" y1="74.28" x2="3.06" y2="74.28" style="fill: none; stroke: #00aeef; stroke-width: .41px;" />
    <g>
      <path
        d="M6.64,48.77h.38v4.39c-1.29-.08-2-1.05-2.67-2.01-.67-.95-1.31-1.91-2.47-1.91-.94,0-1.55.76-1.55,1.62,0,1.2.93,1.77,2.12,1.77v.36c-1.65-.08-2.45-.79-2.45-2.08,0-1.12.62-2.04,1.89-2.04s1.97.91,2.63,1.85c.66.94,1.27,1.91,2.12,1.97v-3.93Z"
        style="fill: #00aeef;" />
      <path
        d="M.12,47.05v-3.33h.33v3.04l2.75.56.02-.02c-.55-.38-.83-.97-.83-1.63,0-1.31.98-2.23,2.35-2.23s2.4.92,2.4,2.23-.84,2.35-2.23,2.26v-.36c1.15.02,1.9-.84,1.9-1.9,0-1.12-.94-1.87-2.07-1.87s-2.02.79-2.02,1.87c0,.74.33,1.27.97,1.69v.37l-3.57-.69Z"
        style="fill: #00aeef;" />
      <path
        d="M1.88,39.79v-.36h1.05v-.02c-.65-.15-1.17-.8-1.17-1.54,0-.93.56-1.37,1.09-1.48v-.02c-.7-.29-1.09-.76-1.09-1.55,0-.89.54-1.54,1.75-1.54h3.51v.36h-3.52c-1.31,0-1.41.89-1.41,1.17,0,.89.66,1.54,1.89,1.54h3.04v.36h-3.52c-1.29,0-1.41.84-1.41,1.15,0,.7.57,1.55,1.89,1.55h3.04v.36H1.88Z"
        style="fill: #00aeef;" />
      <path
        d="M1.88,32.2v-.36h1.05v-.02c-.65-.15-1.17-.8-1.17-1.54,0-.93.56-1.37,1.09-1.48v-.02c-.7-.29-1.09-.76-1.09-1.55,0-.89.54-1.54,1.75-1.54h3.51v.36h-3.52c-1.31,0-1.41.89-1.41,1.17,0,.89.66,1.54,1.89,1.54h3.04v.36h-3.52c-1.29,0-1.41.84-1.41,1.15,0,.7.57,1.55,1.89,1.55h3.04v.36H1.88Z"
        style="fill: #00aeef;" />
    </g>
  </g>
  <g>
    <line x1="20.14" y1="74.61" x2="3.06" y2="74.61" style="fill: none; stroke: #00aeef; stroke-width: .41px;" />
    <line x1="11.73" y1="74.76" x2="11.73" y2="142.88"
      style="fill: none; stroke: #00aeef; stroke-dasharray: 1.24 1.65; stroke-width: .41px;" />
    <line x1="20.14" y1="143.09" x2="3.06" y2="143.09" style="fill: none; stroke: #00aeef; stroke-width: .41px;" />
    <g>
      <path
        d="M6.64,117.59h.38v4.39c-1.29-.08-2-1.05-2.67-2.01-.67-.95-1.31-1.91-2.47-1.91-.94,0-1.55.76-1.55,1.62,0,1.2.93,1.77,2.12,1.77v.36c-1.65-.08-2.45-.79-2.45-2.08,0-1.12.62-2.04,1.89-2.04s1.97.91,2.63,1.85c.66.94,1.27,1.91,2.12,1.97v-3.93Z"
        style="fill: #00aeef;" />
      <path
        d="M.12,115.87v-3.33h.33v3.04l2.75.56.02-.02c-.55-.38-.83-.97-.83-1.63,0-1.31.98-2.23,2.35-2.23s2.4.92,2.4,2.23-.84,2.35-2.23,2.26v-.36c1.15.02,1.9-.84,1.9-1.9,0-1.12-.94-1.87-2.07-1.87s-2.02.79-2.02,1.87c0,.74.33,1.27.97,1.69v.37l-3.57-.69Z"
        style="fill: #00aeef;" />
      <path
        d="M1.88,108.61v-.36h1.05v-.02c-.65-.15-1.17-.8-1.17-1.54,0-.93.56-1.37,1.09-1.48v-.02c-.7-.29-1.09-.76-1.09-1.55,0-.89.54-1.54,1.75-1.54h3.51v.36h-3.52c-1.31,0-1.41.89-1.41,1.17,0,.89.66,1.54,1.89,1.54h3.04v.36h-3.52c-1.29,0-1.41.84-1.41,1.15,0,.7.57,1.55,1.89,1.55h3.04v.36H1.88Z"
        style="fill: #00aeef;" />
      <path
        d="M1.88,101.02v-.36h1.05v-.02c-.65-.15-1.17-.8-1.17-1.54,0-.93.56-1.37,1.09-1.48v-.02c-.7-.29-1.09-.76-1.09-1.55,0-.89.54-1.54,1.75-1.54h3.51v.36h-3.52c-1.31,0-1.41.89-1.41,1.17,0,.89.66,1.54,1.89,1.54h3.04v.36h-3.52c-1.29,0-1.41.84-1.41,1.15,0,.7.57,1.55,1.89,1.55h3.04v.36H1.88Z"
        style="fill: #00aeef;" />
    </g>
  </g>
  <polyline points="29.23 74.28 29.23 .25 97.26 .25 97.26 74.28"
    style="fill: none; stroke: #2e3192; stroke-width: .5px;" />
  <line x1="22.13" y1="2.79" x2="104.36" y2="2.79" style="fill: none; stroke: #00a94f; stroke-dasharray: 4 2;" />
  <line x1="22.13" y1="145.18" x2="104.36" y2="145.18" style="fill: none; stroke: #00a94f; stroke-dasharray: 4 2;" />
  <polyline points="97.26 74.77 97.26 147.74 29.23 147.74 29.23 74.77"
    style="fill: none; stroke: #2e3192; stroke-width: .5px;" />
  <line x1="20.77" y1="74.71" x2="105.71" y2="74.71" style="fill: none; stroke: #ed1c24; stroke-dasharray: 3;" />
  <g>
    <path
      d="M36.19,99.63h.5v2.59c0,1.03-.5,1.34-1.17,1.34-.18,0-.41-.04-.53-.09l.07-.41c.1.04.25.07.42.07.45,0,.71-.2.71-.96v-2.55Z"
      style="fill: #231f20;" />
    <path
      d="M38.02,99.63v2.29c0,.87.38,1.23.9,1.23.57,0,.94-.38.94-1.23v-2.29h.5v2.25c0,1.19-.63,1.68-1.46,1.68-.79,0-1.39-.45-1.39-1.65v-2.28h.5Z"
      style="fill: #231f20;" />
    <path
      d="M41.16,102.89c.22.14.55.25.9.25.51,0,.81-.27.81-.66,0-.36-.21-.57-.73-.77-.63-.22-1.02-.55-1.02-1.1,0-.6.5-1.05,1.25-1.05.4,0,.68.09.85.19l-.14.41c-.13-.07-.38-.18-.73-.18-.53,0-.73.32-.73.58,0,.36.24.54.77.75.65.25.99.57.99,1.14,0,.6-.44,1.11-1.35,1.11-.37,0-.78-.11-.99-.25l.13-.42Z"
      style="fill: #231f20;" />
    <path d="M44.8,100.05h-1.18v-.42h2.86v.42h-1.18v3.44h-.5v-3.44Z" style="fill: #231f20;" />
    <path d="M47.41,99.63v3.87h-.5v-3.87h.5Z" style="fill: #231f20;" />
    <path
      d="M50.99,103.37c-.18.09-.55.18-1.02.18-1.09,0-1.91-.69-1.91-1.96s.82-2.03,2.02-2.03c.48,0,.79.1.92.17l-.12.41c-.19-.09-.46-.16-.78-.16-.91,0-1.51.58-1.51,1.6,0,.95.54,1.55,1.49,1.55.3,0,.61-.06.81-.16l.1.4Z"
      style="fill: #231f20;" />
    <path d="M53.62,101.68h-1.5v1.39h1.68v.42h-2.17v-3.87h2.09v.42h-1.59v1.22h1.5v.41Z" style="fill: #231f20;" />
    <path d="M55.66,99.63h.5v3.45h1.65v.42h-2.15v-3.87Z" style="fill: #231f20;" />
    <path d="M60.37,101.68h-1.5v1.39h1.68v.42h-2.17v-3.87h2.09v.42h-1.59v1.22h1.5v.41Z" style="fill: #231f20;" />
    <path
      d="M61.82,102.28l-.4,1.22h-.52l1.31-3.87h.6l1.32,3.87h-.53l-.41-1.22h-1.37ZM63.08,101.89l-.38-1.11c-.09-.25-.14-.48-.2-.71h-.01c-.06.23-.12.46-.19.7l-.38,1.12h1.16Z"
      style="fill: #231f20;" />
    <path
      d="M67.56,103.32c-.22.08-.67.21-1.19.21-.58,0-1.07-.15-1.45-.51-.33-.32-.54-.84-.54-1.44,0-1.15.8-2,2.09-2,.45,0,.8.1.96.18l-.12.41c-.21-.09-.46-.17-.85-.17-.94,0-1.55.58-1.55,1.55s.59,1.56,1.49,1.56c.33,0,.55-.05.67-.1v-1.15h-.79v-.4h1.27v1.86Z"
      style="fill: #231f20;" />
    <path
      d="M68.82,99.63v2.29c0,.87.38,1.23.9,1.23.57,0,.94-.38.94-1.23v-2.29h.5v2.25c0,1.19-.63,1.68-1.46,1.68-.79,0-1.39-.45-1.39-1.65v-2.28h.5Z"
      style="fill: #231f20;" />
    <path d="M74.04,101.68h-1.5v1.39h1.68v.42h-2.17v-3.87h2.09v.42h-1.59v1.22h1.5v.41Z" style="fill: #231f20;" />
    <path
      d="M77.6,103.49l-.04-.35h-.02c-.15.22-.45.41-.85.41-.56,0-.85-.4-.85-.8,0-.67.6-1.04,1.67-1.03v-.06c0-.23-.06-.64-.63-.64-.26,0-.53.08-.72.21l-.12-.33c.23-.15.56-.25.91-.25.85,0,1.06.58,1.06,1.14v1.04c0,.24.01.48.05.67h-.46ZM77.53,102.08c-.55-.01-1.18.09-1.18.62,0,.33.22.48.48.48.36,0,.59-.23.67-.46.02-.05.03-.11.03-.16v-.48Z"
      style="fill: #231f20;" />
    <path
      d="M78.83,101.47c0-.29,0-.52-.02-.75h.45l.03.46h.01c.14-.26.46-.52.92-.52.38,0,.98.23.98,1.18v1.66h-.5v-1.6c0-.45-.17-.82-.64-.82-.33,0-.59.24-.68.52-.02.06-.03.15-.03.23v1.67h-.5v-2.03Z"
      style="fill: #231f20;" />
    <path
      d="M84.41,99.42v3.36c0,.25,0,.53.02.72h-.45l-.02-.48h-.01c-.16.31-.49.55-.95.55-.67,0-1.19-.57-1.19-1.41,0-.92.57-1.49,1.25-1.49.42,0,.71.2.84.42h.01v-1.66h.5ZM83.91,101.85c0-.06,0-.15-.02-.21-.07-.32-.35-.58-.73-.58-.52,0-.83.46-.83,1.07,0,.56.28,1.03.82,1.03.34,0,.65-.22.74-.6.02-.07.02-.14.02-.22v-.48Z"
      style="fill: #231f20;" />
    <path
      d="M88.01,103.49l-.04-.35h-.02c-.15.22-.45.41-.85.41-.56,0-.85-.4-.85-.8,0-.67.6-1.04,1.67-1.03v-.06c0-.23-.06-.64-.63-.64-.26,0-.53.08-.72.21l-.12-.33c.23-.15.56-.25.91-.25.85,0,1.06.58,1.06,1.14v1.04c0,.24.01.48.05.67h-.46ZM87.93,102.08c-.55-.01-1.18.09-1.18.62,0,.33.22.48.48.48.36,0,.59-.23.67-.46.02-.05.03-.11.03-.16v-.48Z"
      style="fill: #231f20;" />
    <path d="M89.24,99.42h.5v4.07h-.5v-4.07Z" style="fill: #231f20;" />
    <path d="M90.59,99.42h.5v4.07h-.5v-4.07Z" style="fill: #231f20;" />
    <path
      d="M37.13,108.58c0-.33,0-.61-.02-.87h.44l.02.55h.02c.13-.37.43-.61.77-.61.06,0,.1,0,.14.02v.48c-.05-.01-.1-.02-.17-.02-.36,0-.61.27-.68.65-.01.07-.02.15-.02.24v1.48h-.5v-1.91Z"
      style="fill: #231f20;" />
    <path
      d="M39.23,109.2c.01.68.45.96.95.96.36,0,.58-.06.77-.14l.09.36c-.18.08-.48.17-.92.17-.85,0-1.37-.56-1.37-1.4s.49-1.5,1.3-1.5c.91,0,1.15.8,1.15,1.31,0,.1-.01.18-.02.24h-1.95ZM40.71,108.84c0-.32-.13-.82-.7-.82-.51,0-.73.47-.77.82h1.47Z"
      style="fill: #231f20;" />
    <path d="M41.82,106.42h.5v4.07h-.5v-4.07Z" style="fill: #231f20;" />
    <path
      d="M44.71,110.49l-.04-.35h-.02c-.15.22-.45.41-.85.41-.56,0-.85-.4-.85-.8,0-.67.6-1.04,1.67-1.03v-.06c0-.23-.06-.64-.63-.64-.26,0-.53.08-.72.21l-.11-.33c.23-.15.56-.25.91-.25.85,0,1.06.58,1.06,1.14v1.04c0,.24.01.48.05.67h-.46ZM44.64,109.08c-.55-.01-1.18.09-1.18.62,0,.33.22.48.48.48.36,0,.59-.23.67-.46.02-.05.03-.11.03-.16v-.48Z"
      style="fill: #231f20;" />
    <path
      d="M46.53,106.92v.8h.72v.38h-.72v1.5c0,.34.1.54.38.54.13,0,.23-.02.29-.04l.02.38c-.1.04-.25.07-.45.07-.23,0-.42-.08-.54-.21-.14-.15-.19-.4-.19-.72v-1.51h-.43v-.38h.43v-.67l.49-.13Z"
      style="fill: #231f20;" />
    <path
      d="M48.07,109.2c.01.68.45.96.95.96.36,0,.58-.06.77-.14l.09.36c-.18.08-.48.17-.92.17-.85,0-1.37-.56-1.37-1.4s.49-1.5,1.3-1.5c.91,0,1.15.8,1.15,1.31,0,.1-.01.18-.02.24h-1.95ZM49.55,108.84c0-.32-.13-.82-.7-.82-.51,0-.73.47-.77.82h1.47Z"
      style="fill: #231f20;" />
    <path
      d="M53.06,106.42v3.36c0,.25,0,.53.02.72h-.45l-.02-.48h-.01c-.15.31-.49.55-.95.55-.67,0-1.19-.57-1.19-1.41,0-.92.57-1.49,1.24-1.49.42,0,.71.2.84.42h.01v-1.66h.5ZM52.55,108.85c0-.06,0-.15-.02-.21-.07-.32-.35-.58-.73-.58-.52,0-.83.46-.83,1.07,0,.56.28,1.03.82,1.03.34,0,.65-.22.74-.6.02-.07.02-.14.02-.22v-.48Z"
      style="fill: #231f20;" />
    <path
      d="M57.09,110.39c-.13.07-.42.16-.8.16-.84,0-1.38-.57-1.38-1.42s.58-1.47,1.49-1.47c.3,0,.56.07.7.14l-.11.39c-.12-.07-.31-.13-.59-.13-.64,0-.98.47-.98,1.05,0,.64.41,1.04.96,1.04.29,0,.48-.08.62-.14l.09.38Z"
      style="fill: #231f20;" />
    <path
      d="M57.69,106.42h.5v1.73h.01c.08-.14.21-.27.36-.36.15-.09.33-.14.52-.14.37,0,.97.23.97,1.19v1.65h-.5v-1.59c0-.45-.17-.83-.64-.83-.33,0-.59.23-.68.5-.03.07-.03.14-.03.24v1.68h-.5v-4.07Z"
      style="fill: #231f20;" />
    <path
      d="M62.41,110.49l-.04-.35h-.02c-.15.22-.45.41-.85.41-.56,0-.85-.4-.85-.8,0-.67.6-1.04,1.67-1.03v-.06c0-.23-.06-.64-.63-.64-.26,0-.53.08-.72.21l-.11-.33c.23-.15.56-.25.91-.25.85,0,1.06.58,1.06,1.14v1.04c0,.24.01.48.05.67h-.46ZM62.33,109.08c-.55-.01-1.18.09-1.18.62,0,.33.22.48.48.48.36,0,.59-.23.67-.46.02-.05.03-.11.03-.16v-.48Z"
      style="fill: #231f20;" />
    <path
      d="M63.64,108.58c0-.33,0-.61-.02-.87h.44l.02.55h.02c.13-.37.43-.61.77-.61.06,0,.1,0,.14.02v.48c-.05-.01-.1-.02-.17-.02-.36,0-.61.27-.68.65-.01.07-.02.15-.02.24v1.48h-.5v-1.91Z"
      style="fill: #231f20;" />
    <path
      d="M67.02,110.49l-.04-.35h-.02c-.15.22-.45.41-.85.41-.56,0-.85-.4-.85-.8,0-.67.6-1.04,1.67-1.03v-.06c0-.23-.06-.64-.63-.64-.26,0-.53.08-.72.21l-.12-.33c.23-.15.56-.25.91-.25.85,0,1.06.58,1.06,1.14v1.04c0,.24.01.48.05.67h-.46ZM66.95,109.08c-.55-.01-1.18.09-1.18.62,0,.33.22.48.48.48.36,0,.59-.23.67-.46.02-.05.03-.11.03-.16v-.48Z"
      style="fill: #231f20;" />
    <path
      d="M70.23,110.39c-.13.07-.42.16-.8.16-.84,0-1.38-.57-1.38-1.42s.59-1.47,1.49-1.47c.3,0,.56.07.7.14l-.11.39c-.12-.07-.31-.13-.58-.13-.64,0-.98.47-.98,1.05,0,.64.41,1.04.96,1.04.29,0,.48-.08.62-.14l.09.38Z"
      style="fill: #231f20;" />
    <path
      d="M71.51,106.92v.8h.72v.38h-.72v1.5c0,.34.1.54.38.54.13,0,.23-.02.29-.04l.02.38c-.1.04-.25.07-.45.07-.24,0-.42-.08-.55-.21-.14-.15-.19-.4-.19-.72v-1.51h-.43v-.38h.43v-.67l.49-.13Z"
      style="fill: #231f20;" />
    <path
      d="M73.04,109.2c.01.68.45.96.95.96.36,0,.58-.06.77-.14l.09.36c-.18.08-.48.17-.92.17-.85,0-1.37-.56-1.37-1.4s.49-1.5,1.3-1.5c.91,0,1.15.8,1.15,1.31,0,.1-.01.18-.02.24h-1.95ZM74.52,108.84c0-.32-.13-.82-.7-.82-.51,0-.73.47-.77.82h1.47Z"
      style="fill: #231f20;" />
    <path
      d="M75.64,108.58c0-.33,0-.61-.02-.87h.44l.02.55h.02c.13-.37.43-.61.77-.61.06,0,.1,0,.14.02v.48c-.05-.01-.1-.02-.17-.02-.36,0-.61.27-.68.65-.01.07-.02.15-.02.24v1.48h-.5v-1.91Z"
      style="fill: #231f20;" />
    <path
      d="M77.45,109.98c.15.1.41.2.67.2.37,0,.54-.18.54-.41,0-.24-.14-.37-.52-.51-.5-.18-.73-.45-.73-.79,0-.45.36-.81.96-.81.28,0,.53.08.68.17l-.13.37c-.11-.07-.31-.16-.57-.16-.3,0-.46.17-.46.38,0,.23.17.33.53.47.48.18.73.42.73.84,0,.49-.38.83-1.04.83-.3,0-.58-.08-.78-.19l.13-.38Z"
      style="fill: #231f20;" />
    <path
      d="M82.54,110.49l-.04-.35h-.02c-.15.22-.45.41-.85.41-.56,0-.85-.4-.85-.8,0-.67.6-1.04,1.67-1.03v-.06c0-.23-.06-.64-.63-.64-.26,0-.53.08-.72.21l-.12-.33c.23-.15.56-.25.91-.25.85,0,1.06.58,1.06,1.14v1.04c0,.24.01.48.05.67h-.46ZM82.47,109.08c-.55-.01-1.18.09-1.18.62,0,.33.22.48.48.48.36,0,.59-.23.67-.46.02-.05.03-.11.03-.16v-.48Z"
      style="fill: #231f20;" />
    <path
      d="M83.77,108.47c0-.29,0-.52-.02-.75h.45l.03.46h.01c.14-.26.46-.52.92-.52.38,0,.98.23.98,1.18v1.66h-.5v-1.6c0-.45-.17-.82-.64-.82-.33,0-.59.24-.68.52-.02.06-.03.15-.03.23v1.67h-.5v-2.03Z"
      style="fill: #231f20;" />
    <path
      d="M89.36,106.42v3.36c0,.25,0,.53.02.72h-.45l-.02-.48h-.01c-.16.31-.49.55-.95.55-.67,0-1.19-.57-1.19-1.41,0-.92.57-1.49,1.25-1.49.42,0,.71.2.84.42h.01v-1.66h.5ZM88.85,108.85c0-.06,0-.15-.02-.21-.07-.32-.35-.58-.73-.58-.52,0-.83.46-.83,1.07,0,.56.28,1.03.82,1.03.34,0,.65-.22.74-.6.02-.07.02-.14.02-.22v-.48Z"
      style="fill: #231f20;" />
    <path
      d="M34.51,116.2c.01.68.45.96.95.96.36,0,.58-.06.77-.14l.09.36c-.18.08-.48.17-.92.17-.85,0-1.37-.56-1.37-1.4s.49-1.5,1.3-1.5c.91,0,1.15.8,1.15,1.31,0,.1-.01.18-.02.24h-1.95ZM35.99,115.84c0-.32-.13-.82-.7-.82-.51,0-.73.47-.77.82h1.47Z"
      style="fill: #231f20;" />
    <path d="M37.11,113.42h.5v4.07h-.5v-4.07Z" style="fill: #231f20;" />
    <path
      d="M38.74,116.2c.01.68.45.96.95.96.36,0,.58-.06.77-.14l.09.36c-.18.08-.48.17-.92.17-.85,0-1.37-.56-1.37-1.4s.49-1.5,1.3-1.5c.91,0,1.15.8,1.15,1.31,0,.1-.01.18-.02.24h-1.95ZM40.22,115.84c0-.32-.13-.82-.7-.82-.51,0-.73.47-.77.82h1.47Z"
      style="fill: #231f20;" />
    <path
      d="M41.34,115.47c0-.29,0-.52-.02-.75h.44l.02.45h.02c.15-.26.41-.51.87-.51.38,0,.67.23.79.56h.01c.09-.16.2-.28.31-.36.17-.13.35-.2.61-.2.37,0,.91.24.91,1.21v1.63h-.49v-1.57c0-.53-.2-.85-.6-.85-.29,0-.51.21-.6.46-.02.07-.04.16-.04.25v1.72h-.49v-1.66c0-.44-.19-.76-.58-.76-.32,0-.54.25-.62.5-.03.07-.04.16-.04.25v1.68h-.49v-2.03Z"
      style="fill: #231f20;" />
    <path
      d="M46.4,116.2c.01.68.45.96.95.96.36,0,.58-.06.77-.14l.09.36c-.18.08-.48.17-.92.17-.85,0-1.37-.56-1.37-1.4s.49-1.5,1.3-1.5c.91,0,1.15.8,1.15,1.31,0,.1-.01.18-.02.24h-1.95ZM47.88,115.84c0-.32-.13-.82-.7-.82-.51,0-.73.47-.77.82h1.47Z"
      style="fill: #231f20;" />
    <path
      d="M49,115.47c0-.29,0-.52-.02-.75h.45l.03.46h.01c.14-.26.46-.52.92-.52.38,0,.98.23.98,1.18v1.66h-.5v-1.6c0-.45-.17-.82-.64-.82-.33,0-.59.24-.68.52-.02.06-.03.15-.03.23v1.67h-.5v-2.03Z"
      style="fill: #231f20;" />
    <path
      d="M52.77,113.92v.8h.72v.38h-.72v1.5c0,.34.1.54.38.54.13,0,.23-.02.29-.04l.02.38c-.1.04-.25.07-.45.07-.24,0-.42-.08-.55-.21-.14-.15-.19-.4-.19-.72v-1.51h-.43v-.38h.43v-.67l.49-.13Z"
      style="fill: #231f20;" />
    <path
      d="M53.99,116.98c.15.1.41.2.67.2.37,0,.54-.18.54-.41,0-.24-.14-.37-.52-.51-.5-.18-.73-.45-.73-.79,0-.45.36-.81.96-.81.28,0,.53.08.68.17l-.13.37c-.11-.07-.31-.16-.57-.16-.3,0-.46.17-.46.38,0,.23.17.33.53.47.48.18.73.42.73.84,0,.49-.38.83-1.04.83-.3,0-.58-.08-.78-.19l.13-.38Z"
      style="fill: #231f20;" />
    <path
      d="M60.81,115.54c0,.99-.76,1.78-1.73,1.78s-1.74-.79-1.74-1.78.77-1.77,1.74-1.77,1.73.79,1.73,1.77ZM57.62,115.56c0,.86.63,1.53,1.46,1.53s1.44-.67,1.44-1.54-.63-1.53-1.44-1.53-1.46.68-1.46,1.55ZM59.78,114.89c-.07-.04-.29-.13-.56-.13-.54,0-.8.34-.8.8s.28.81.81.81c.23,0,.45-.06.58-.15l.07.22c-.2.13-.46.18-.71.18-.67,0-1.05-.46-1.05-1.04,0-.65.52-1.07,1.1-1.07.3,0,.56.09.63.16l-.07.22Z"
      style="fill: #231f20;" />
    <path
      d="M65.09,117.49c-.11-.11-.21-.22-.36-.38-.33.31-.71.44-1.13.44-.75,0-1.19-.5-1.19-1.08,0-.53.32-.89.76-1.13v-.02c-.2-.25-.32-.53-.32-.81,0-.47.34-.95.98-.95.48,0,.85.32.85.82,0,.41-.24.73-.85,1.03v.02c.33.38.69.8.94,1.08.18-.27.3-.64.37-1.13h.46c-.1.61-.27,1.09-.56,1.43.21.22.41.44.64.68h-.6ZM64.48,116.83c-.23-.25-.66-.72-1.09-1.22-.21.13-.5.38-.5.79,0,.44.33.78.79.78.33,0,.61-.15.8-.35ZM63.31,114.47c0,.28.13.49.29.69.39-.22.64-.43.64-.76,0-.24-.13-.5-.45-.5s-.49.26-.49.56Z"
      style="fill: #231f20;" />
    <path
      d="M68.4,113.63v.26h-.5v1.3h-.31v-1.3h-.5v-.26h1.31ZM70.09,115.19l-.06-.92c0-.12,0-.27-.01-.44h-.02c-.04.14-.09.32-.13.46l-.28.87h-.32l-.28-.89c-.03-.12-.07-.3-.11-.44h-.02c0,.14,0,.29-.01.44l-.06.92h-.3l.12-1.56h.46l.27.76c.03.12.06.23.1.4h0c.04-.14.07-.28.11-.39l.27-.77h.45l.12,1.56h-.31Z"
      style="fill: #231f20;" />
    <path
      d="M72.13,113.68c.3-.05.67-.08,1.06-.08.72,0,1.23.17,1.57.48.34.32.54.76.54,1.39s-.2,1.15-.56,1.5c-.36.36-.96.56-1.71.56-.36,0-.65-.02-.91-.05v-3.8ZM72.63,117.1c.13.02.31.03.5.03,1.07,0,1.65-.6,1.65-1.64,0-.91-.51-1.49-1.57-1.49-.26,0-.45.02-.59.05v3.05Z"
      style="fill: #231f20;" />
    <path
      d="M78.65,117.37c-.18.09-.55.18-1.02.18-1.09,0-1.91-.69-1.91-1.96s.82-2.03,2.02-2.03c.48,0,.79.1.92.17l-.12.41c-.19-.09-.46-.16-.78-.16-.91,0-1.51.58-1.51,1.6,0,.95.54,1.55,1.49,1.55.3,0,.61-.06.81-.16l.1.4Z"
      style="fill: #231f20;" />
    <path d="M79.14,117.2c0-.21.14-.36.34-.36s.34.15.34.36-.13.36-.34.36c-.2,0-.34-.16-.34-.36Z"
      style="fill: #231f20;" />
    <path
      d="M82.76,113.51c-.42.56-.72,1.31-.72,2.35s.32,1.75.72,2.33h-.4c-.36-.48-.75-1.21-.75-2.33,0-1.13.39-1.87.75-2.35h.4Z"
      style="fill: #231f20;" />
    <path
      d="M83.23,116.98c.15.1.41.2.67.2.37,0,.54-.18.54-.41,0-.24-.14-.37-.52-.51-.5-.18-.73-.45-.73-.79,0-.45.36-.81.96-.81.28,0,.53.08.68.17l-.13.37c-.11-.07-.31-.16-.57-.16-.3,0-.46.17-.46.38,0,.23.17.33.53.47.48.18.73.42.73.84,0,.49-.38.83-1.04.83-.3,0-.58-.08-.78-.19l.13-.38Z"
      style="fill: #231f20;" />
    <path
      d="M85.41,117.49v-.31l.4-.38c.95-.91,1.38-1.39,1.39-1.95,0-.38-.18-.73-.74-.73-.34,0-.62.17-.79.32l-.16-.36c.26-.22.63-.38,1.06-.38.8,0,1.14.55,1.14,1.08,0,.69-.5,1.25-1.29,2l-.3.28h0s1.68.01,1.68.01v.42h-2.38Z"
      style="fill: #231f20;" />
    <path
      d="M88.35,117.49v-.31l.4-.38c.95-.91,1.38-1.39,1.39-1.95,0-.38-.18-.73-.74-.73-.34,0-.62.17-.79.32l-.16-.36c.26-.22.63-.38,1.06-.38.8,0,1.14.55,1.14,1.08,0,.69-.5,1.25-1.29,2l-.3.28h0s1.68.01,1.68.01v.42h-2.38Z"
      style="fill: #231f20;" />
    <path
      d="M91.16,118.19c.41-.57.72-1.31.72-2.35s-.31-1.76-.72-2.33h.39c.37.47.75,1.2.75,2.33s-.38,1.85-.75,2.34h-.39Z"
      style="fill: #231f20;" />
  </g>
  <g>
    <g>
      <g>
        <polygon points="40.68 39.12 34.94 58.92 59.58 68.92 59.68 68.96 85.71 59.23 91.54 39.12 40.68 39.12"
          style="fill: #fff; stroke: #005da6; stroke-width: .84px;" />
        <path
          d="M60.32,57.28v-2.48s-1.09,2.48-1.09,2.48h1.09ZM50.5,39.91l-3.37,11.64h-6.93s1.02-3.49,1.02-3.49l2.79-.97-.59,2.03h1.89s2.39-8.25,2.39-8.25l-.42-.97h-6l-5.37,18.54,9.1,3.69,3.06-10.57h2.51s-2.73,9.4-2.73,9.4h4.36s-.66,2.4-.66,2.4h-3.5s11.64,4.72,11.64,4.72l21.23-7.93h-4.97l2.49-8.6h5.81l-.67,2.3h-3.28l-.24.79h2.81l-.64,2.22h-2.81s-.28.98-.28.98h3.29l-.57,1.95,3.2-1.19,5.43-18.72h-39.98ZM42.95,42.17l.6-2.06.6,2.06h1.84l-1.53,1.09.57,1.93-1.48-1.26-1.48,1.26.57-1.93-1.53-1.09h1.85ZM73.76,42.16l-2.49,8.6h-2.52l2.49-8.6h2.52ZM63.68,44.46l.65-2.3h6.21l-.65,2.3h-1.89l-1.84,6.3h-2.52l1.84-6.3h-1.79ZM58.3,42.16h4.22c.29,0,.55.13.73.36.17.23.23.52.15.81h0s-.28.98-.28.98l-2.82.97.33-1.12h-1.09l-.3,1,2.36,1.28c.21.14.75.51.59,1.11l-.75,2.53c-.11.4-.49.69-.9.69h-4.22c-.29,0-.55-.13-.73-.36-.17-.23-.23-.52-.15-.81l.34-1.16,2.81-.97-.43,1.48h1.09l.35-1.21-2.31-1.27-.09-.05c-.37-.23-.64-.56-.5-1.05l.71-2.5c.11-.41.49-.69.91-.69ZM49.51,50.76c-.29,0-.55-.13-.73-.36-.17-.23-.23-.52-.15-.81l1.92-6.59-.37-.84h3.13l-1.83,6.29h.99l1.83-6.29h2.52l-2.3,7.91c-.11.4-.49.69-.9.69h-4.13ZM49.07,60.17l2.49-8.6h5.81l-.67,2.3h-3.28l-.24.79h2.81l-.64,2.22h-2.81s-.28.98-.28.98h3.29l-.67,2.3h-5.81ZM60.15,60.17v-1.14s-1.52,0-1.52,0l-.54,1.14h-2.61l3.81-7.58-.45-1.02h3.56l.16,8.6h-2.42ZM66.02,61.01l.02-.84h-2.15c-.29,0-.55-.13-.73-.36-.17-.23-.23-.52-.15-.81l1.96-6.75c.11-.4.49-.69.9-.69h3.95c.28,0,.51.13.68.35.17.22.24.51.16.78l-.51,1.75-2.76.95.53-1.83h-.82l-1.26,4.29h.83l.36-1.23-.34-.76h3.03s-1.23,4.26-1.23,4.26l-2.51.88ZM75.36,59.49c-.11.4-.49.69-.9.69h-3.93c-.29,0-.55-.13-.73-.36-.17-.23-.23-.52-.15-.81l1.92-6.59-.37-.84h3.13l-1.83,6.29h.8l1.83-6.29h2.52l-2.3,7.91ZM78.08,50.07c-.12.41-.49.69-.91.69h-3.89c-.29,0-.55-.13-.73-.36-.17-.23-.23-.52-.15-.81l1.96-6.75c.11-.4.49-.69.9-.69h3.92c.28,0,.54.13.7.35.17.22.22.51.14.78l-.2.71-.41,1.41-2.8.97.56-1.92h-.76l-1.17,3.99h.78l.3-1,2.8-.97-1.06,3.58ZM85.59,45.26l-.64,2.22h-2.81s-.28.98-.28.98h3.29l-.67,2.3h-5.81l2.49-8.6h5.81l-.67,2.3h-3.28l-.24.79h2.81Z"
          style="fill: #005da6;" />
        <path
          d="M58.57,47.46l-.43,1.48h.29l.37-1.26-.23-.22ZM59.76,44.38h.8l.07-.23h-1.09l-.3,1,.25.14.27-.91ZM56.67,45.39h0s-.24.72.7,1.21h0s.03.02.04.03l.09.05,2.06,1.13.03-.09-2.31-1.27-.09-.05c-.36-.23-.62-.54-.51-1.01ZM53.55,42.38l-.23-.22-1.83,6.29h.29l1.77-6.07ZM55.41,49.69h0s0-.02,0-.03h0s0,.01,0,.03ZM50.81,51.8l-.23-.22-2.73,9.4h.29l2.66-9.18ZM55.55,57.87l-.67,2.3h-5.81l.24.23h5.8l.67-2.31-.23-.22ZM48.78,50.4c-.17-.23-.23-.52-.15-.81,0,.02-.01.05-.02.07h0s-.28,1.32,1.01,1.32h.16s4.07,0,4.07,0c.42,0,.79-.28.9-.69l2.3-7.92-.23-.22-2.3,7.91c-.11.4-.49.69-.9.69h-4.13c-.29,0-.55-.13-.73-.36ZM52.54,56.89l-.28.98h.29l.22-.75h2.81s.65-2.23.65-2.23l-.23-.22-.64,2.22h-2.81ZM61.66,50.3v-.03s.71-2.37.72-2.41c.03-.11.07-.22.07-.34,0-.08,0-.17-.03-.25-.02-.08-.06-.15-.1-.22-.04-.07-.09-.13-.15-.19-.05-.06-.11-.11-.17-.16-.05-.04-.11-.09-.17-.12-.05-.03-.09-.06-.14-.09-.03-.02-.06-.03-.09-.05,0,0-.01,0-.02,0h0c.21.14.75.52.59,1.11l-.75,2.53c-.11.4-.49.69-.9.69h-4.22c-.29,0-.55-.13-.73-.36-.15-.2-.21-.45-.17-.69-.04.23-.13,1.28,1.02,1.28h.16s4.16,0,4.16,0c.42,0,.79-.28.9-.69ZM60.33,55.55v-.74s-1.1,2.48-1.1,2.48h.33l.77-1.73ZM43.42,49.13h.29s.53-1.82.53-1.82l-.23-.22-.59,2.03ZM44.9,45.07l.44.37-.59-2,1.48-1.05-.23-.22-1.53,1.09.57,1.93-.13-.11ZM44.39,42.17l-.51-1.75-.32-.31.6,2.06h.24ZM50.59,39.91h-.09l-3.37,11.64h-6.93s.24.23.24.23h6.92s3.39-11.71,3.39-11.71l-.16-.15ZM43.79,44.13l-.25-.21-1.48,1.26.23.22,1.5-1.27ZM86.98,42.17l-.67,2.3h-3.28l-.24.79h.3l.17-.56h3.28l.67-2.31-.23-.22ZM55.41,49.7h0s0,0,0,0h0ZM57.6,51.8l-.23-.22-.67,2.3h-3.28l-.24.79h.3l.17-.56h3.28l.67-2.31ZM84.95,47.48h-2.81s-.28.98-.28.98h.29l.22-.75h2.81s.65-2.23.65-2.23l-.23-.22-.64,2.22ZM63.92,44.69h1.49s.07-.23.07-.23h-1.79l.24.23ZM60.15,60.08v-1.05s-1.52,0-1.52,0l-.54,1.14h-2.61l.24.23h2.6l.54-1.14h1.29v.82ZM76.18,60.4h4.13l.61-.23h-4.97l.23.23ZM62.41,51.58l.16,8.6h-2.42l.24.23h2.41l-.16-8.61-.23-.22ZM79.9,42.51c.17.22.22.51.14.78l-.2.71-.41,1.41-2.8.97.23.22,2.79-.97.41-1.41.2-.71s.02-.06.02-.07c.31-1.03-.75-1.29-1.07-1.29,0,0,0,0,0,0,0,0-.01,0-.02,0,.28,0,.54.13.7.35ZM51.55,63.39h-3.5s.56.23.56.23h3.17s.66-2.41.66-2.41l-.23-.22-.66,2.4ZM84.48,50.76h-5.81l.24.23h5.8l.67-2.31-.23-.22-.67,2.3ZM76.66,44.69h.47l.07-.23h-.76l-1.17,3.99h.29l1.11-3.76ZM63.25,42.52c.17.23.23.52.15.81h0s-.28.98-.28.98l-2.82.97.23.22,2.81-.97s.31-1.07.33-1.15c.02-.06.03-.12.03-.18,0-.05,0-.11,0-.16,0-.05-.01-.1-.02-.15-.01-.04-.03-.09-.05-.13-.02-.04-.04-.08-.07-.12-.02-.04-.05-.07-.08-.1-.03-.03-.06-.06-.09-.09-.03-.03-.07-.05-.1-.07-.04-.02-.07-.04-.11-.06-.04-.02-.07-.04-.11-.05-.04-.01-.07-.03-.11-.04-.04-.01-.07-.02-.11-.03-.03,0-.07-.01-.1-.02-.03,0-.06,0-.09-.01-.02,0-.05,0-.07,0h0s-.02,0-.02,0c-.01,0-.03,0-.04,0,.29,0,.55.13.73.36ZM82.22,56.89h-2.81s-.28.98-.28.98h.29l.22-.75h2.81s.65-2.23.65-2.23l-.23-.22-.64,2.22ZM83.58,53.88h-3.28l-.24.79h.3l.17-.56h3.28l.67-2.31-.23-.22-.67,2.3ZM81.86,59.82l.33-.12.47-1.61-.23-.22-.57,1.95ZM63.87,50.98h2.51l1.84-6.3h1.89s.65-2.31.65-2.31l-.23-.22-.65,2.3h-1.89l-1.84,6.3h-2.52l.24.23ZM70.4,54.68l.51-1.75s.01-.06.02-.09c.29-1-.75-1.27-1.07-1.27,0,0,0,0,0,0,0,0-.01,0-.02,0,.28,0,.51.13.68.35.17.22.24.51.16.78l-.51,1.75-2.76.95.24.22,2.75-.95ZM68.98,50.98h2.51l2.5-8.61-.23-.22-2.49,8.6h-2.52l.24.23ZM67.35,53.81h.52s.07-.23.07-.23h-.82l-1.26,4.29h.29l.58-1.96v-.03s0,0,0,0l.61-2.07ZM77.65,51.58l-2.3,7.91c-.11.4-.49.69-.9.69h-3.93c-.29,0-.55-.13-.73-.36-.16-.21-.22-.48-.16-.74h0s-.28,1.32,1.01,1.32h.17s3.87,0,3.87,0c.42,0,.79-.28.9-.69l2.3-7.91-.23-.22ZM66.04,60.17h-2.15c-.29,0-.55-.13-.73-.36-.17-.23-.23-.52-.15-.81,0,.02-.01.05-.02.07h0s-.28,1.32,1.01,1.32h.17s1.86,0,1.86,0v-.23ZM78.31,50.29l1.07-3.59-.23-.22-1.06,3.58c-.12.41-.49.69-.91.69h-3.89c-.29,0-.55-.13-.73-.36-.17-.23-.23-.52-.15-.81,0,.02-.01.05-.02.07h0s-.28,1.32,1.01,1.32h.16s3.83,0,3.83,0c.42,0,.79-.28.91-.69ZM72.79,57.87l1.77-6.07-.23-.22-1.83,6.29h.29ZM69.75,55.87l-1.23,4.26-2.51.88.23.23,2.5-.88,1.23-4.26-.23-.22Z"
          style="fill: #e1251b;" />
      </g>
      <g>
        <path d="M84.79,51.6h-.12v-.07h.32v.07h-.12v.36h-.08v-.36Z" style="fill: #fff;" />
        <path
          d="M85.4,51.79c0-.05,0-.12,0-.18h0c-.01.05-.03.11-.05.16l-.06.18h-.06l-.06-.18c-.02-.05-.03-.11-.04-.17h0c0,.06,0,.12,0,.18v.17h-.08l.03-.43h.1l.06.17s.03.1.04.15h0s.03-.1.04-.15l.06-.17h.1l.02.43h-.08v-.17Z"
          style="fill: #fff;" />
      </g>
    </g>
    <g>
      <g>
        <path
          d="M76.42,31.62c-.01-.2-.02-.45-.02-.63h0c-.05.17-.11.35-.18.55l-.26.71h-.14l-.24-.7c-.07-.21-.13-.39-.17-.57h0c0,.18-.02.43-.03.65l-.04.63h-.18l.1-1.46h.24l.25.71c.06.18.11.34.15.49h0c.04-.15.09-.31.15-.49l.26-.71h.24l.09,1.46h-.18l-.04-.64"
          style="fill: #007ec4;" />
        <polyline
          points="74.39 30.96 73.95 30.96 73.95 30.8 75.03 30.8 75.03 30.96 74.58 30.96 74.58 32.26 74.39 32.26 74.39 30.96"
          style="fill: #007ec4;" />
      </g>
      <path
        d="M59.2,16.77h2.25c.63,0,1.14.51,1.14,1.14v5.18c0,.63-.51,1.14-1.14,1.14h-1.38v-6.74c0-.05-.03-.1-.07-.13l-.8-.58M66.3,31.73c-3.66,0-6.93-1.7-9.05-4.34-.03-.03,0-.08.04-.08h6.21c.06,0,.11-.02.16-.05l2.37-1.72s.07-.08.07-.13v-9.86c0-.05-.03-.1-.07-.13l-2.37-1.72s-.1-.05-.16-.05h-6.72s-.06-.04-.04-.07c2.09-3.04,5.6-5.04,9.57-5.04s7.48,1.99,9.57,5.04c.02.03,0,.07-.04.07h-1.67c-.06,0-.11.03-.13.08l-.37.79-1.13-.82s-.1-.05-.16-.05h-2.67c-.06,0-.11.02-.16.05l-2.37,1.72s-.07.08-.07.13v9.86c0,.05.03.1.07.13l2.37,1.72s.1.05.16.05h5.62s.06.05.04.08c-2.13,2.65-5.39,4.34-9.05,4.34ZM55.42,16.26l1.09.79s.07.08.07.14v9.13s-.06.07-.09.03c-1.14-1.8-1.8-3.93-1.8-6.21,0-1.35.23-2.64.65-3.84.01-.03.05-.05.08-.03ZM69.72,16.77h3.37v1.86s.04.09.09.09h2.82c.05,0,.09-.04.1-.09l.56-3.53s.07-.06.09-.01c.74,1.53,1.15,3.24,1.15,5.04,0,2.04-.53,3.96-1.45,5.63-.02.04-.09.03-.09-.02v-3.22s-.04-.09-.09-.09h-3.09s-.09.04-.09.09v1.72h-1.36c-.63,0-1.14-.51-1.14-1.14v-5.6c0-.05-.03-.1-.07-.13l-.81-.58ZM66.3,7.58c-6.93,0-12.55,5.62-12.55,12.55s5.62,12.55,12.55,12.55,12.55-5.62,12.55-12.55-5.62-12.55-12.55-12.55Z"
        style="fill: #007ec4;" />
    </g>
    <line x1="44.26" y1="35.9" x2="88.68" y2="35.9"
      style="fill: none; stroke: #231f20; stroke-miterlimit: 10; stroke-width: .85px;" />
  </g>
</svg>