<?xml version="1.0" encoding="UTF-8"?>
<svg id="Layer_1" data-name="Layer 1" data-size="34mm x 26mm" xmlns="http://www.w3.org/2000/svg"
  viewBox="0 0 155.31 139.32">

  <text id="quantity" style="font-family: Arial-BoldMT, Arial; font-size: 15px; font-weight: 700; isolation: isolate;"
    y="97%" x="50%" text-anchor="middle"></text>

  <g>
    <line x1="137.88" y1="92.43" x2="137.88" y2="107.96" style="fill: none; stroke: #00aeef; stroke-width: .5px;" />
    <g>
      <line x1="41.53" y1="100.01" x2="137.91" y2="100.01"
        style="fill: none; stroke: #00aeef; stroke-dasharray: 2.86 2.86; stroke-width: .65px;" />
      <line x1="42.03" y1="92.82" x2="42.03" y2="108.74" style="fill: none; stroke: #00aeef; stroke-width: .5px;" />
      <text transform="translate(76.84 110.61)"
        style="fill: #00aeef; font-family: HelveticaNeueLTStd-Lt, &apos;Helvetica Neue LT Std&apos;; font-size: 9px;">
        <tspan x="0" y="0">34 mm</tspan>
      </text>
    </g>
  </g>
  <line x1="16.13" y1="2.72" x2="16.13" y2="84.01"
    style="fill: none; stroke: #00aeef; stroke-dasharray: 4.2 4.2; stroke-width: .96px;" />
  <line x1="24.55" y1="43.43" x2="7.47" y2="43.43" style="fill: none; stroke: #00aeef; stroke-width: .47px;" />
  <line x1="24.55" y1="84.74" x2="7.47" y2="84.74" style="fill: none; stroke: #00aeef; stroke-width: .47px;" />
  <line x1="24.55" y1="2.72" x2="7.47" y2="2.72" style="fill: none; stroke: #00aeef; stroke-width: .47px;" />
  <text transform="translate(7.47 76.71) rotate(-90)"
    style="fill: #00aeef; font-family: HelveticaNeueLTStd-Lt, &apos;Helvetica Neue LT Std&apos;; font-size: 9px;">
    <tspan x="0" y="0">13 mm</tspan>
  </text>
  <text transform="translate(7.47 36.78) rotate(-90)"
    style="fill: #00aeef; font-family: HelveticaNeueLTStd-Lt, &apos;Helvetica Neue LT Std&apos;; font-size: 9px;">
    <tspan x="0" y="0">13 mm</tspan>
  </text>
  <rect x="41.53" y=".25" width="98.25" height="86.89" style="fill: #fff; stroke: #808285; stroke-width: .5px;" />
  <line x1="155.15" y1="3.03" x2="26.15" y2="3.03" style="fill: none; stroke: #00a94f; stroke-dasharray: 4 2;" />
  <line x1="155.15" y1="85.82" x2="26.15" y2="85.82" style="fill: none; stroke: #00a94f; stroke-dasharray: 4 2;" />
  <g>
    <g id="Avengers">
      <path id="Fill"
        d="M123.7,20.55l1.04-4.03s-4.99,0-5.47,0-1.06.16-1.46.41c-.41.26-.68.69-.68.69,0,0-.52-1.1-1.61-1.1h-16.7c-.26,0-.41.02-.71.16-.3.14-1.06.83-1.76,1.63-.64.73-1.42,1.77-1.42,1.77l.97-3.55h-4.18l-.49,1.72-.04-1.73h-13.97l-.59,1.91v-1.9h-3.67v-7.37h-4.1l-2.13,4.49s-3.12-.18-5.78,1.04c-2.66,1.22-5.13,3.49-6.49,6.67-1.36,3.18-1.29,6.89-.3,9.54.99,2.66,2.41,4.23,2.41,4.23l-1.88,3.98h5.54l.45-.89s2.24,1.07,4.47,1.14c2.12.07,3.97-.16,6.37-1.37,2.38-1.2,4.22-3.52,4.83-4.43h-4.57c-1.59,1.46-3.51,2.16-5.55,2.29-2.2.14-4.01-.79-4.01-.79l2.09-4.29h3.89v2.57h18.73l.53-1.84v1.84h3.81s.48-1.76.48-1.76c0,0,.24.84,1.15,1.31.93.47,1.74.45,1.97.45h14.73l.45-1.61v1.61h8.31c.16,0,.81.05,1.36-.38.55-.43.72-.99.88-1.45.16-.46.47-1.63.55-1.94.08-.31.1-.4.13-.72.04-.32,0-.62-.04-.98-.03-.36-.91-7.22-.91-7.22l.02-.08h3.35ZM117.03,28.94l-.08.27h-2.64v-3.53c.22-.05.5-.15.74-.33.31-.23.68-.7.88-1.21l.37-1.34c.16,1.34.52,4.36.73,6.14ZM102.01,20.54l-.27.95-.31,1.13h-3.23c.13-.18.27-.37.43-.57.51-.65,1.06-1.24,1.32-1.51h2.06ZM106.75,26.79l-.67,2.41h-1.98l.67-2.41h1.98ZM107.9,22.65h-1.99l.58-2.09h1.99l-.58,2.09ZM84.28,26.8l-.67,2.41h-2.04l.7-2.41h2.01ZM85.43,22.64h-1.97l.61-2.09h1.95l-.58,2.09ZM56.88,26.5c0-4.87,3.51-8.86,8.17-9.3l-6.77,14.31c-.92-1.5-1.4-3.23-1.4-5.01ZM68.16,21.96v4.19h-1.97l1.97-4.19Z"
        style="fill: #ed1c24;" />
      <path id="Outline"
        d="M65.87,38.74c-1.58,0-3.11-.32-4.55-.94l-.23-.1.99-2.04.2.08c1.14.47,2.34.71,3.58.71,2.24,0,4.39-.8,6.11-2.27.06-.05.05-.04.05-.04h3.03l-.1.13c-2.26,2.91-5.49,4.46-9.09,4.46ZM55.75,38.45l13.55-28.67h3.02v18.41l-3.5-3.44v-5.73l-3.66,7.77h3.67v-1.65l3.35,3.3-3.31,3.26v-1.58h-5l-4.08,8.34h-4.03ZM56.53,34.02c-1.63-2.17-2.49-4.76-2.49-7.51,0-6.74,5.3-12.23,11.82-12.24h.37s-1.09,2.3-1.09,2.3h-.13c-4.99.47-8.75,4.74-8.75,9.93,0,1.92.53,3.79,1.53,5.4l.07.11-1.09,2.31-.23-.31ZM95.81,32.68h-.84s-.31,0-.72-.05c-.87-.11-1.42-.4-1.75-.93-.31-.5-.3-1.19-.2-1.62.07-.29,1.29-4.64,1.94-6.97.21-.74.35-1.25.37-1.3.06-.22.22-.47.35-.67l.04-.07c.11-.18.84-1.21,1.46-1.97.61-.76,1.34-1.41,1.59-1.6.29-.22.52-.33.71-.33h4.2l-.76,2.73h-2.53s-.05,0-.12.07c-.08.08-.95,1-1.63,1.9-.65.87-.95,1.47-1.01,1.63-.06.16-1.59,5.61-1.64,5.83-.02.07-.01.27.1.37.11.1.32.16.63.17.05,0,.1,0,.15,0,.14,0,.28,0,.38-.01l1.1-3.71h-.76l.79-2.84h3.58l-2.58,9.39h-2.87ZM110.7,32.68v-5.75l-1.64,5.74h-3.03l4.33-15.51h5.01c.39,0,.6.08.82.3.17.18.39.48.45.87.05.35,0,.77-.07,1.04-.06.25-1.22,4.31-1.28,4.51-.09.29-.35.7-.66.89-.23.14-.39.21-.64.27-.12.03-.26.05-.36.07v7.57h-2.94ZM111.54,23.34c.17,0,.31,0,.4-.02.26-.03.45-.12.6-.28.18-.2.24-.37.33-.61.09-.25.39-1.36.46-1.7.06-.3.05-.5-.06-.74-.08-.19-.32-.21-.46-.21h-.3l-.97,3.57ZM99.51,32.68l4.38-15.54h5.58l-.75,2.74h-2.73l-.95,3.4h2.73l-.77,2.86h-2.75l-1.03,3.7h2.77l-.8,2.84h-5.69ZM77,32.69l4.38-15.54h5.58l-.75,2.74h-2.7l-.97,3.4h2.73l-.77,2.86h-2.8l-1.06,3.7h2.85l-.8,2.84h-5.69ZM73.18,32.69v-15.53h2.8v5.73l1.72-5.73h2.83l-4.41,15.53h-2.94ZM114.35,32.67v-2.84h3.1l.24-.81-.03-.29c-.5-4.12-.78-6.37-.82-6.7-.07-.56,0-1.17.09-1.57.07-.33.44-1.66.53-1.97.1-.38.3-.69.55-.9.26-.21.75-.44,1.33-.44h4.53l-.69,2.75h-3.32l-.22.69c.04.3.9,6.81.96,7.29.05.45.04.87-.05,1.28-.06.31-.47,1.71-.6,2.11-.13.43-.26.63-.42.88-.2.3-.63.51-1.03.51h-4.15ZM88.13,32.69l-.08-5.72-1.64,5.72h-2.82l4.3-15.52h2.65l.14,5.46,1.56-5.45h2.78l-4.29,15.5h-2.59ZM68.86,32.69v-.6l3.46-3.41v4.01h-3.46Z"
        style="fill: #fff;" />
      <path id="Outline-2" data-name="Outline"
        d="M80.23,17.4l-4.28,15.06h-2.53v-15.06h2.33v7.09l2.13-7.09h2.35ZM69.09,32.45h2.99v-3.22l-2.99,2.94v.28ZM81.52,25.92h2.79l.64-2.39h-2.74l1.11-3.87h2.7l.62-2.27h-5.09l-4.24,15.07h5.21l.67-2.38h-2.85l1.19-4.17ZM104.1,25.91h2.73l.64-2.39h-2.71l1.08-3.87h2.7l.62-2.27h-5.09l-4.24,15.07h5.21l.67-2.38h-2.74l1.15-4.17ZM92.41,17.42l-1.93,6.74-.17-6.76h-2.24l-4.17,15.05h2.33l2.03-7.07.1,7.07h2.18l4.16-15.03h-2.29ZM97.86,23.53l-.66,2.38h.77l-1.23,4.17s-.42.04-.72.02c-.25-.01-.58-.06-.77-.23-.19-.17-.2-.46-.17-.59.03-.13,1.59-5.7,1.65-5.86.06-.16.36-.79,1.04-1.69.67-.9,1.56-1.84,1.65-1.93.09-.09.18-.14.29-.14h2.35l.63-2.26h-3.89c-.14,0-.33.1-.56.28-.24.18-.95.82-1.55,1.56-.6.74-1.33,1.76-1.44,1.94-.12.19-.3.47-.36.68-.06.22-2.22,7.89-2.31,8.27-.09.38-.1,1,.17,1.44.27.45.74.72,1.57.82.38.05.69.05.69.05h3.54s2.45-8.92,2.45-8.92h-3.09ZM114.52,24.58c-.2.12-.34.18-.57.24-.23.05-.54.1-.54.1v7.53h-2.47v-6.53h-.19l-1.86,6.52h-2.54l4.2-15.04h4.84c.35,0,.5.07.65.23.15.16.34.41.39.74.05.33,0,.72-.06.95-.06.24-1.2,4.24-1.28,4.49-.08.25-.31.6-.56.76ZM113.49,19.89c-.13-.31-.48-.36-.68-.36h-.48l-1.1,4.04s.46,0,.73-.02c.28-.03.54-.13.75-.36.21-.24.28-.42.38-.69.09-.27.39-1.37.47-1.73.08-.35.05-.6-.07-.88ZM122.99,19.68l.57-2.28h-4.23c-.52,0-.95.21-1.18.39-.22.18-.38.46-.47.78-.09.32-.46,1.64-.52,1.96-.07.32-.15.92-.08,1.49.07.57.86,7.03.86,7.03l-.3,1.02h-3.04v2.37h3.91c.33,0,.68-.18.84-.41.16-.23.27-.42.39-.82.12-.39.53-1.79.59-2.09.06-.3.1-.7.04-1.21-.06-.5-.97-7.34-.97-7.34l.29-.9h3.31ZM56.12,38.22h3.52l4.08-8.34h5.38v1.26l2.75-2.69-2.79-2.75v1.33h-4.27l4.26-9.06v6.68l3.03,2.98V10.01h-2.63l-13.32,28.21ZM56.03,26.5c0,2.04.58,3.93,1.57,5.52l-.87,1.85c-1.53-2.03-2.44-4.59-2.44-7.37,0-6.63,5.19-12,11.58-12.01l-.87,1.85c-5.03.46-8.97,4.83-8.97,10.16ZM72.12,34.38s-.05.04-.08.07c-1.71,1.48-3.77,2.25-6.17,2.25-1.3,0-2.54-.26-3.67-.73l-.79,1.62c1.37.59,2.88.92,4.46.92,3.52,0,6.53-1.51,8.66-4.07.02-.02.05-.06.05-.06h-2.46Z"
        style="fill: #ed1c24;" />
      <g id="Fill-2" data-name="Fill">
        <path
          d="M69.28,32.27l2.61-2.57v2.56h-2.61ZM56.44,38.04h3.08s3.89-7.96,3.96-8.12c.07-.16.13-.24.29-.24h5.3c.15,0,.22.11.22.18v.84l2.29-2.26-2.33-2.3v.84c0,.09-.04.23-.2.23s-4.04,0-4.24,0c-.2,0-.25-.19-.2-.29.05-.1,4.18-8.89,4.23-8.98.05-.09.09-.2.23-.18.14.01.17.13.17.24v6.56l2.66,2.61V10.22h-2.33l-13.12,27.82ZM78.03,17.59s-2.01,6.65-2.09,6.87c-.08.22-.18.21-.24.2-.05,0-.16-.05-.16-.28s0-6.8,0-6.8h-1.94v14.66h2.17l4.2-14.66h-1.96ZM92.56,17.6s-1.85,6.46-1.89,6.58c-.04.11-.1.16-.2.17-.1,0-.16-.09-.17-.22-.01-.12-.17-6.53-.17-6.53h-1.92l-4.04,14.66h1.93s1.94-6.79,1.97-6.92c.03-.13.12-.18.21-.17.09,0,.18.13.17.24,0,.12.1,6.85.1,6.85h1.85l4.06-14.66h-1.9ZM119.75,19.47h3.07l.5-1.87h-3.98c-.44,0-.87.14-1.11.37s-.31.41-.39.72c-.08.32-.5,1.75-.55,2.02-.04.27-.12.61-.05,1.15.07.53.86,7.19.86,7.19,0,0-.26.93-.3,1.04-.04.12-.09.17-.24.17s-2.8.01-2.8.01v1.97h3.75c.26,0,.54-.13.74-.45.2-.32.34-.76.42-1.08.08-.32.35-1.31.43-1.62.09-.31.08-.67.07-.94,0-.27-.98-7.61-.98-7.61,0,0,.23-.8.27-.91.04-.11.11-.17.27-.17ZM114.27,24.51c-.18.11-.67.19-.84.22s-.2.13-.2.22v7.29h-2.08v-6.32c0-.13-.07-.2-.16-.2s-.16,0-.24,0c-.09,0-.16.09-.2.21-.03.11-1.78,6.3-1.78,6.3h-2.15l4.07-14.64h4.82c.43,0,.71.52.74.75.03.23,0,.74-.11,1.16-.11.42-1.07,3.8-1.21,4.24-.14.45-.47.66-.65.77ZM113.58,19.67c-.17-.24-.47-.29-.71-.32-.24-.03-.53-.01-.53-.01-.15,0-.18.07-.22.19-.03.12-1.05,3.85-1.08,3.98-.03.13.04.23.11.25.08.02.26.02.47.01.21,0,.36-.01.65-.08.3-.07.49-.25.69-.51.2-.26.35-.75.49-1.24.14-.49.28-1.09.32-1.37.04-.28-.03-.66-.19-.9ZM80.16,30.01c.03-.16,1.16-4,1.2-4.12.04-.13.11-.16.22-.16h2.6l.54-2h-2.49c-.15,0-.2-.14-.17-.26.03-.13,1.05-3.72,1.09-3.82.04-.11.13-.16.21-.16h2.54l.52-1.9h-4.7l-4.15,14.68h4.82l.55-1.99h-2.57c-.14,0-.23-.09-.2-.26ZM102.76,30c.03-.16,1.1-4,1.13-4.12.04-.13.11-.16.22-.16h2.58l.54-2h-2.49c-.15,0-.2-.14-.17-.26.02-.13,1.03-3.72,1.07-3.82.04-.11.13-.16.21-.16h2.56l.52-1.9h-4.7l-4.15,14.68h4.82l.55-1.98h-2.49c-.14,0-.23-.09-.2-.26ZM98,23.72l-.55,1.99s.38,0,.5,0c.13,0,.25.08.2.24-.05.16-1.18,4-1.22,4.12-.04.12-.08.17-.2.19-.12.02-.54.04-.81.01-.27-.02-.54-.05-.8-.25-.26-.2-.29-.6-.24-.88.06-.28,1.56-5.49,1.65-5.8.09-.31.65-1.2,1.19-1.91.54-.71,1.25-1.5,1.47-1.71.22-.22.34-.27.48-.27h2.22l.53-1.87h-3.55c-.11,0-.19,0-.33.08-.14.08-.64.42-1.55,1.48-.92,1.07-1.5,1.94-1.63,2.13-.13.19-.29.45-.36.7-.07.24-2.12,7.59-2.19,7.88-.08.29-.14.55-.12.87.02.32.09.62.31.89.22.27.59.5,1.35.59.32.03.74.03.74.03h3.27l2.35-8.53h-2.7ZM64.84,16.15h.01s.68-1.44.68-1.44h-.03c-2.89.1-5.62,1.32-7.67,3.45-2.15,2.23-3.33,5.19-3.33,8.34,0,2.51.75,4.91,2.17,6.93l.02.03.67-1.42h0c-1-1.66-1.53-3.57-1.53-5.54,0-5.36,3.88-9.81,9.02-10.35ZM72.2,34.59s-.03.02-.04.03c-1.8,1.55-3.93,2.28-6.29,2.28-1.22,0-2.42-.22-3.55-.67h-.02s-.61,1.24-.61,1.24h.02c1.32.55,2.72.82,4.15.82,3.17,0,6.05-1.25,8.2-3.64.02-.02.05-.06.05-.06h-1.92Z"
          style="fill: #fff;" />
      </g>
    </g>
    <g id="MARVEL_Logo" data-name="MARVEL Logo">
      <rect id="Block" x="85.13" y="8.83" width="15.06" height="6.1" style="fill: #ed1c24;" />
      <path id="MARVEL"
        d="M94.87,12.45l-.42-3.09h-.93l.1.83c-.11-.21-.49-.83-1.32-.83,0,0-.93,0-.93,0v4.51s-.68-4.51-.68-4.51h-1.22s-.7,4.67-.7,4.67v-4.67h-1.16l-.42,2.63-.41-2.63h-1.17v5.08h.92v-2.45l.42,2.45h.49l.41-2.45v2.45h1.77l.11-.78h.71l.11.78h1.74s0,0,0,0h0s0,0,0,0h0v-1.65l.21-.03.44,1.68h.9,0s0,0,0,0h0l-.58-1.97c.29-.22.62-.77.54-1.29h0s.55,3.27.55,3.27h1.07s.73-4.61.73-4.61v4.6h1.73v-.91h-.82v-1.16h.82v-.93h-.82v-1.15h.82s0-.93,0-.93h-2.58l-.42,3.09ZM89.83,12.85l.25-2.17.26,2.17h-.51ZM92.5,11.84c-.07.03-.14.05-.22.05v-1.63s0,0,0,0c.07,0,.61.02.61.81,0,.41-.18.67-.4.77ZM98.94,13.52h.78v.91h-1.69v-5.08h.91v4.17Z"
        style="fill: #fff;" />
    </g>
  </g>
  <line x1="155.31" y1="43.38" x2="26.31" y2="43.38"
    style="fill: none; stroke: #ff5100; stroke-dasharray: 3; stroke-width: .7px;" />
  <g>
    <g id="Marvel_Logo" data-name="Marvel Logo">
      <rect id="Fill-3" data-name="Fill" x="59.4" y="50.2" width="61.75" height="25.01" style="fill: #e1251b;" />
      <path id="Marvel"
        d="M111.65,56.16v-3.8h-10.57l-1.74,12.69-1.72-12.69h-3.81l.43,3.39c-.44-.87-2-3.39-5.44-3.39-.02,0-3.81,0-3.81,0v18.49s-2.79-18.49-2.79-18.49h-4.99s-2.87,19.16-2.87,19.16v-19.16h-4.78l-1.72,10.76-1.68-10.76h-4.78v20.83h3.76v-10.04l1.71,10.04h2l1.69-10.04v10.04h7.25l.44-3.21h2.92l.44,3.21h7.12s0,0,0,0h0s0,0,0,0h0v-6.76l.87-.13,1.81,6.89h3.69,0s0,0,0,0h0l-2.37-8.08c1.2-.89,2.56-3.15,2.2-5.31h0s2.24,13.4,2.24,13.4h4.38s2.99-18.89,2.99-18.89v18.88h7.1v-3.75h-3.37v-4.78h3.37v-3.8h-3.37v-4.71h3.37ZM78.68,66.68l1.04-8.91,1.07,8.91h-2.11ZM89.62,62.57c-.29.14-.59.21-.88.21v-6.7h.02c.29,0,2.49.09,2.49,3.31,0,1.69-.75,2.75-1.62,3.18ZM119.23,69.44v3.75h-6.93v-20.83h3.73v17.08h3.2Z"
        style="fill: #fff;" />
    </g>
    <g>
      <text transform="translate(77.52 80.26) scale(1.29 1)"
        style="fill: #130c15; font-family: GillSans, &apos;Gill Sans&apos;; font-size: 6.07px; letter-spacing: -.02em;">
        <tspan x="0" y="0" xml:space="preserve"> MARVEL </tspan>
      </text>
      <text transform="translate(71.58 80.26)"
        style="fill: #130c15; font-family: GillSans, &apos;Gill Sans&apos;; font-size: 6.07px; letter-spacing: -.02em;">
        <tspan x="0" y="0" xml:space="preserve"> ©</tspan>
      </text>
    </g>
  </g>
</svg>