<?xml version="1.0" encoding="UTF-8"?>
<svg id="Layer_1" data-name="Layer 1" data-size="34mm x 26mm" xmlns="http://www.w3.org/2000/svg"
  viewBox="0 0 149.24 139.79">
  <text id="quantity" style="font-family: Arial-BoldMT, Arial; font-size: 15px; font-weight: 700; isolation: isolate;"
    y="97%" x="50%" text-anchor="middle"></text>

  <g>
    <rect x="35.96" y=".18" width="96.48" height="89.45" style="fill: #fff; stroke: #231f20; stroke-width: .25px;" />
    <rect x="35.96" y=".18" width="96.48" height="89.45" style="fill: none; stroke: #231f20; stroke-width: .35px;" />
    <line x1="148.7" y1="7.84" x2="19.7" y2="7.84" style="fill: none; stroke: #00a94f; stroke-dasharray: 4 2;" />
    <line x1="148.7" y1="81.1" x2="19.7" y2="81.1" style="fill: none; stroke: #00a94f; stroke-dasharray: 4 2;" />
    <line x1="12.91" y1="6.85" x2="12.91" y2="81.4" style="fill: none; stroke: #00aeef; stroke-dasharray: 2.19 2.19;" />
    <line x1="21.32" y1="7.51" x2="4.24" y2="7.51" style="fill: none; stroke: #00aeef; stroke-width: .47px;" />
    <line x1="21.32" y1="44.9" x2="4.24" y2="44.9" style="fill: none; stroke: #00aeef; stroke-width: .47px;" />
    <line x1="145.32" y1="44.9" x2="23.07" y2="44.9" style="fill: none; stroke: #ed1c24; stroke-dasharray: 3;" />
    <text transform="translate(8.57 41.84) rotate(-90)"
      style="fill: #00aeef; font-family: HelveticaNeue-Thin, &apos;Helvetica Neue&apos;; font-size: 10px; font-weight: 200;">
      <tspan x="0" y="0">13 mm</tspan>
    </text>
    <line x1="21.32" y1="81.12" x2="4.24" y2="81.12" style="fill: none; stroke: #00aeef; stroke-width: .47px;" />
    <text transform="translate(8.57 78.06) rotate(-90)"
      style="fill: #00aeef; font-family: HelveticaNeue-Thin, &apos;Helvetica Neue&apos;; font-size: 10px; font-weight: 200;">
      <tspan x="0" y="0">13 mm</tspan>
    </text>
    <line x1="37.43" y1="116.94" x2="37.43" y2="99.86" style="fill: none; stroke: #00aeef; stroke-width: .47px;" />
    <line x1="132.45" y1="116.94" x2="132.45" y2="99.86" style="fill: none; stroke: #00aeef; stroke-width: .47px;" />
    <text transform="translate(70.82 105.17)"
      style="fill: #00aeef; font-family: HelveticaNeue-Thin, &apos;Helvetica Neue&apos;; font-size: 10px; font-weight: 200;">
      <tspan x="0" y="0">34 mm</tspan>
    </text>
    <line x1="37.37" y1="108.32" x2="133.61" y2="108.32"
      style="fill: none; stroke: #00aeef; stroke-dasharray: 2.19 2.19;" />
    <g id="LABEL">
      <g id="SMAF_LOGO" data-name="SMAF LOGO">
        <path id="BLUE"
          d="M114.54,35.3c-.25.24-.54.41-.87.5-.1.03-2.61.57-2.74.58-.07,0-.15.01-.22.01-.47,0-.98-.15-1.5-.46-.52-.31-.95-.78-1.26-1.4-.07.02-1.01.26-1.11.27-.22.08-.47.11-.78.11-.23,0-.47-.02-.69-.05-.18-.02-.51-.08-.52-.08-.08.04-.88.26-.92.27-.05.01-.09.02-.14.02-.26.02-.55.03-.84.03-.14,0-.27,0-.4,0-.33-.02-.62-.28-.72-.66-.06-.22-.12-.45-.18-.68-.01,0-.02,0-.03,0-.37.05-.75.08-1.19.1,0,0-.02,0-.03,0-.06,0-.11,0-.17-.02-.07.03-.15.06-.24.06-1.01.06-2.04.1-3.13.1h0c-.19,0-.37-.08-.51-.23-.06-.06-.1-.14-.14-.22,0,0-.02,0-.02,0-.4.06-.86.12-1.33.16-.02,0-.04,0-.05,0-.06,0-.13-.01-.19-.03-.03.01-.06.03-.09.04-.01,0-.02,0-.03.01-.04.03-.09.05-.13.06-.43.15-.8.25-1.2.33-.05,0-.09.01-.14.01-.13,0-.55-.04-.71-.62,0-.02,0-.03-.01-.05-.22.1-.87.31-.99.36-.07.03-.15.04-.22.04-.17,0-.33-.07-.45-.2-.06.25-.21.45-.43.56-.04.03-.66.42-.7.44-.06.05-.13.09-.2.11-.35.13-.72.21-1.08.29-.1.02-.2.04-.3.07-.05.01-.1.02-.15.02-.18,0-.35-.08-.48-.22-.14-.15-.21-.36-.2-.59.03-.83.03-1.67.03-2.5-.13.53-.37,1.12-.88,1.56-.03.03-.44.42-.47.44-.32.32-.75.58-1.36.68-.15.03-.3.04-.45.04-.61,0-1.15-.22-1.57-.64,0,.03,0,.05,0,.08-.02.15-.07.3-.14.42-.01.03-.22.42-.24.44-.09.19-.24.35-.42.42-.47.2-.85.33-1.24.43-.06.01-.11.02-.17.02h0c-.35,0-.64-.28-.71-.68-.03-.15-.05-.31-.08-.46-.32.14-.69.28-1.08.4-.06.02-.12.03-.19.03-.05,0-.1,0-.16-.02-.07.09-.16.15-.26.2l-.06.03c-.43.19-.84.38-1.3.53-.07.02-.14.04-.21.04h0c-.14,0-.27-.05-.39-.14l-.6.22c-.81.29-1.64.6-2.47.89-.06.02-.12.03-.18.03-.06.07-.13.13-.21.17l-.06.03c-.45.25-.88.48-1.35.7-.09.04-.18.06-.27.06h0c-.17,0-.33-.07-.46-.2-.03-.02-.39-.34-.41-.37,0,0-.02-.01-.02-.02l-.09.05c-.34.18-.7.37-1.08.53,0,0-.02,0-.02,0-.06.31-.26.58-.51.69l-.15.07c-.47.21-.9.42-1.39.59-.07.03-.15.04-.22.04h0c-.07,0-.14-.01-.21-.04-.06-.02-1.02-.58-1.06-.6l-.14.06c-.36.17-.73.34-1.13.48,0,0,0,0-.01,0v.02c-.03.42-.29.85-.63,1.05l-1.5.87c-.13.08-.27.11-.4.11-.08,0-.16-.01-.23-.04-.04-.01-.89-.37-.89-.37l-1.43.76c-.13.07-.25.1-.38.1h0c-.12,0-1.72-.56-1.79-.59-.1-.05-.19-.13-.26-.22-.09-.12-.21-.38-.07-.75l.78-2.19c-.11.08-.24.14-.39.18-.12.03-.34.06-.52.06-.04,0-.08,0-.12,0-.01.04-.04.08-.07.11-.12.12-.3.18-.43.22-.02,0-.05,0-.07,0-.01,0-.03,0-.04,0-.04.06-.1.11-.42.23-.11.04-.23.01-.3-.07,0,0,0,0,0,0,0,0-.15-.15-.16-.15-.04.12-.07.22-.08.3v.07s-.07.05-.07.05c-.11.1-.37.16-.45.16,0,0-.02,0-.03,0-.07,0-.14-.03-.19-.08,0,0-.2-.19-.21-.21-.05-.07-.07-.17-.03-.25.29-.72.7-2.15.7-2.16l.02-.08.07-.05s.02-.01.04-.03c0,0-.04-.04-.05-.05,0,0,0,0,0,0,0,0-.01-.01-.02-.02-.07-.08-.18-.28-.05-.64.11-.33.25-.47.42-.58-.03-.06-.05-.12-.07-.18l-.03-.11.07-.09s.35-.41.7-.48h0c.09-.01.21,0,.31.06.03-.05.06-.09.11-.12l.16-.11c.06-.04.14-.05.21-.03.14-.11.34-.21.54-.19.06,0,.23.03.35.16,0,0,0,0,0,0,.08-.1.16-.2.26-.28.19-.16.38-.24.55-.24.04-.14.1-.31.17-.5.04-.12.15-.2.19-.22h.01c.1-.08.22-.15.36-.13.06.01.11.04.15.09,0,0,.16.16.17.17.02.02.03.03.04.05h0s0,.01.01.02c.16-.27.42-.51.7-.63l1.97-.84c-.41-.25-.77-.47-.94-.58-.03-.02-.06-.03-.08-.05,0,0-.01,0-.02-.01,0,0,0,0,0,0-.03-.02-.06-.05-.09-.07,0,0-.02-.01-.02-.02-.03-.03-.06-.06-.09-.1-.2-.25-.28-.58-.2-.9l.81-3.46c.11-.49.56-.84,1.06-.84.07,0,.14,0,.2.02l.15.03c.49.1,1.16.23,1.73.23.14,0,.32,0,.48-.04-.05-.04-.97-.65-1.05-.7-.08-.05-1.08-.68-1.15-.73,0,0,0,0,0,0-.15-.08-.29-.18-.42-.27,0,0,0,0,0,0-.03-.02-.06-.04-.09-.07,0,0-.01,0-.02-.01-.03-.02-.05-.04-.08-.06,0,0-.01-.01-.02-.02-.02-.02-.05-.04-.07-.06,0,0-.01-.01-.02-.02-.02-.02-.05-.04-.07-.07,0,0-.01-.01-.02-.02-.06-.06-.11-.12-.17-.18,0,0,0-.01-.01-.02-.02-.02-.04-.05-.06-.07,0-.01-.02-.02-.02-.03-.02-.02-.03-.04-.05-.06,0-.01-.02-.02-.03-.04-.01-.02-.03-.04-.04-.06,0-.01-.02-.03-.03-.04-.01-.02-.03-.04-.04-.07,0-.01-.02-.03-.02-.04-.01-.02-.03-.05-.04-.07,0-.01-.01-.02-.02-.04-.02-.04-.04-.07-.05-.11-.4-.93-.41-1.97-.02-2.92.45-1.07,1.37-1.95,2.54-2.41.62-.25,1.41-.37,2.36-.37,1.45,0,3.08.31,3.95.61.04.01.08.03.12.05,0,0,0,0,.01,0,.04.02.07.04.1.06,0,0,.01,0,.02.01.03.02.06.04.09.07,0,0,.01.01.02.02.03.02.05.05.07.08,0,0,0,0,0,0,.01,0,.02.02.03.03,0,0,0-.02,0-.02,0-.02.01-.05.02-.07,0,0,0-.02.01-.02,0-.02.02-.05.03-.07,0,0,0-.02.01-.02.01-.02.02-.05.04-.07,0,0,0-.01.01-.02.01-.02.03-.04.04-.07,0,0,.01-.01.02-.02.01-.02.03-.04.05-.06,0,0,.01-.01.02-.02.02-.02.03-.04.05-.06,0,0,.01-.01.02-.02.02-.02.03-.04.05-.05,0,0,.02-.01.02-.02.02-.02.04-.03.06-.05,0,0,.02-.01.03-.02.02-.01.04-.03.06-.04,0,0,.02-.01.03-.02.02-.01.04-.02.06-.03.01,0,.02-.01.04-.02.02,0,.04-.02.06-.03.01,0,.03-.01.04-.02.02,0,.04-.01.05-.02.02,0,.03,0,.05-.01.02,0,.03-.01.05-.02.02,0,.04,0,.05-.01.02,0,.03,0,.05-.01.02,0,.04,0,.07,0,.01,0,.02,0,.04,0,.03,0,.07,0,.1,0h4.29c1.24,0,2.33.38,3.14,1.09.19.17.37.36.52.56l.03-.51c.04-.64.57-1.14,1.21-1.14h3.34c.37,0,.71.18.93.45.22-.27.55-.45.93-.45h4.11c1.19,0,2.43.34,3.41.94.06.04.12.07.18.11,0,0,.01,0,.02.01.05.04.1.07.16.11,0,0,0,0,0,0,.11.08.22.16.32.25,0,0,.38-.76.62-1.04.21-.24.51-.38.84-.38h5.59c.28,0,.56.1.8.26.17-.17.42-.26.7-.26h2.67c.51,0,1.08.32,1.35.75l.12.19s.73-.52,1.05-.72c0,0,0,0,0,0,.02-.01.04-.02.06-.03,0,0,0,0,0,0,.02-.01.04-.02.06-.03,0,0,.02,0,.02-.01.02,0,.04-.02.06-.03,0,0,.02,0,.03-.01.03-.01.06-.02.09-.03.02,0,.04-.01.05-.02.01,0,.03,0,.04-.01.02,0,.04,0,.06-.01.01,0,.03,0,.04,0,.02,0,.04,0,.06,0,.01,0,.02,0,.03,0,.03,0,.07,0,.1,0h2.23c.35,0,.67.16.85.43.19.27.23.62.1.95l-1.52,4.11c-.05.13-.06.43-.02.56l1.13,3.83c.1.32.05.63-.13.87-.02.02-.04.05-.06.07,0,0-.01.01-.02.02-.02.02-.03.03-.05.05-.01.01-.02.02-.04.03-.01,0-.02.02-.03.03,0,0,0,0,0,0-.01,0-.03.02-.04.02-.18.12-.87.54-1.5.93.05.04.1.08.15.12.09-.03,1.71-.4,1.78-.41.05-.01.11-.02.17-.03.1-.01.21-.02.32-.02.04,0,.07,0,.11,0,1.06.04,2.36.88,2.71,2.63.06.26.02.49-.11.66-.03.04-.06.07-.1.11.04.04.07.08.1.12.88,1.07.95,2.56.16,3.33ZM93.58,10.11h-14.86v6.02h14.86v-6.02Z"
          style="fill: #e1251b;" />
        <path id="WHITE"
          d="M55.18,35.68c.06-.17.35-1.05.48-1.49,0-.02.02-.04.04-.05l.16-.11s.04,0,.04.02l-.02.15s.29-.38.58-.35c.3.04.3.19.22.48-.08.28-.28,1.01-.28,1.01,0,0-.17.1-.27.11-.02,0-.04-.02-.03-.03.07-.2.43-1.17.26-1.25-.19-.09-.51.23-.59.45-.07.2-.28.91-.31,1,0,0,0,.01-.01.02-.07.05-.16.07-.23.07-.02,0-.03-.02-.03-.03ZM56.73,34.5c.1-.32.28-.62.52-.82.24-.2.49-.26.54-.09,0,0,.09-.35.24-.75.02-.04.06-.09.1-.11.04-.03.18-.14.23-.07.04.07-.63,1.84-.81,2.41-.07.07-.39.16-.38.13s.03-.06.04-.09c0,0,.05-.09.05-.09,0,0-.36.25-.49.14-.12-.11-.14-.33-.04-.65ZM57.14,34.87c.19-.11.32-.3.39-.54.07-.24.1-.48-.08-.45-.18.03-.34.2-.47.6-.12.4-.03.5.16.39ZM54.26,35.51c.11-.32.24-.41.42-.52.18-.1.4-.05.4-.05,0,0,.24-.54.08-.49-.16.05-.32.17-.45.33-.06,0-.09-.16-.09-.16,0,0,.29-.35.56-.4.08-.01.35.04.25.33-.09.27-.35,1.1-.39,1.22,0,.01-.01.02-.02.02-.06.03-.1.04-.14.04-.01,0-.03-.01-.02-.02l.04-.12s-.19.22-.41.27c-.22.05-.32-.13-.21-.46ZM54.62,35.7c.2-.1.29-.22.34-.4.08-.18-.12-.19-.25-.12-.13.07-.25.23-.28.36-.03.12-.01.27.19.16ZM55.62,36.08c-.1.05-.16.11-.18.24-.02.13.1.14.19.11.09-.03.18-.1.2-.25.02-.15-.11-.15-.21-.1ZM55.69,36.52c-.08,0-.22.05-.27.07-.02,0-.03.02-.03.03-.07.62-.27,1.18-.32,1.34,0,.02.02.04.04.03.08-.02.24-.08.34-.16,0,0,0-.01,0-.02,0-.09.13-.82.27-1.25,0-.03-.01-.05-.04-.05ZM56.91,36.83c-.07-.46-.59-.08-.64-.32-.06-.23.19-.35.32-.38.11-.02.28.04.35.09.03.02.21-.17.24-.25,0-.02,0-.04-.02-.05-.13-.08-.55-.1-.77.02-.23.13-.53.32-.45.73.08.42.75-.09.61.37-.15.49-.75.21-.75.21-.03-.01-.2.35-.2.4,0,.01.35.05.66-.04.39-.11.7-.44.65-.78ZM55.03,36.78c-.29-.14-.71.3-.71.3,0,0,.08-.39.23-.73.01-.03,0-.06-.04-.06-.15,0-.27.08-.27.08,0,0-.41,1.44-.71,2.18,0,.02,0,.05.04.04.09,0,.27-.06.31-.1.04-.23.21-.72.31-.98.1-.27.63-.64.63-.4,0,.24-.08.48-.13.68-.03.13-.12.31-.18.41-.02.03.01.06.05.05.11-.04.29-.11.32-.15.04-.06.43-1.17.14-1.31ZM110.51,26.95l-1.13-3.83c-.08-.27-.07-.71.03-.98l1.52-4.11c.1-.27-.05-.48-.34-.48h-2.23c-.28,0-.57.22-.65.5l-.4,1.49c-.07.27-.26.3-.4.06l-1-1.61c-.15-.24-.5-.44-.79-.44h-2.67c-.28,0-.37.18-.2.41l3.12,4.07c.17.22.35.64.4.92l.48,2.78c.05.28.31.57.58.65l3.32.93c.27.08.43-.08.35-.35ZM61.1,30.15c.97-.23,2.44-.61,4.23-1.22,2.07-.7,3.27-1.97,3.42-3.66.15-1.7-.83-2.42-1.95-2.89-1.12-.48-2.68-.92-2.02-1.65.26-.29,1.06-.26,1.85.14.68.34,1.39.86,1.86,1.24.25.2.63.04.68-.28l.52-3.26c.03-.19-.07-.38-.26-.44-1.11-.39-4.13-.93-5.85-.25-1.92.76-2.92,2.71-2.16,4.46.76,1.74,4.11,1.75,3.94,3.03-.2,1.23-2.41.73-3.44.53-.22-.04-.44.1-.49.33l-.81,3.45c-.07.3.19.55.48.48ZM95.95,24.37c.04.28.31.53.59.55l7.05.79c.28.04.44-.15.36-.42l-.4-1.31c-.08-.27-.38-.51-.66-.54l-2.39-.23c-.28-.02-.56-.27-.62-.54l-.06-.26,1.93.09c.28.01.44-.19.35-.46l-.29-.85c-.09-.27-.4-.5-.68-.52l-1.72-.1-.09-.41c-.06-.28.12-.51.4-.51l2.04-.03c.28,0,.43-.22.33-.49l-.43-1.1c-.1-.26-.42-.48-.7-.48h-5.59c-.28,0-.48.23-.43.51l1.01,6.3ZM89.82,17.56c1.97,0,4.61,1.1,4.81,3.42.21,2.47-1.65,3.88-3.29,3.92-1.58,0-5.71.28-5.71.28-.28.02-.51-.2-.51-.48l.06-6.63c0-.28.24-.51.52-.51h4.11ZM90.6,21.15c-.05-.44-.4-.68-.91-.68-.11,0-.35,0-.64,0l.09,1.4c.39,0,.68,0,.7,0,.42-.04.81-.24.76-.72ZM83.86,17.56h-3.34c-.28,0-.53.23-.54.51l-.42,7.31c-.02.28.2.48.48.44l3.91-.49c.28-.03.51-.29.51-.57l-.07-6.69c0-.28-.24-.51-.52-.51ZM69.32,27.59l1.42-9.52c.04-.28.31-.51.59-.51h4.29c2.3,0,3.68,1.48,3.71,2.97.02,1.37-.62,2.19-1.5,2.87-.88.69-3.28.51-3.28.51h-.29l-.24,2.5c-.03.28-.27.57-.55.63l-3.73.92c-.27.07-.46-.1-.42-.38ZM75.36,20.11h-.74s-.13,1.37-.13,1.37c.26,0,.43,0,.45,0,.46,0,1.11-.23,1.13-.76.02-.53-.31-.61-.71-.61ZM67.92,30.09c-.49.16-.96.36-1.44.57-.09.04-.18.15-.22.25-.34.93-.68,1.89-1.02,2.81-.04.11-.08.12-.09.01-.08-.68-.12-1.39-.19-2.07-.01-.11-.08-.16-.17-.12-.38.16-.73.34-1.1.53-.09.05-.17.16-.19.28-.38,1.81-.79,3.64-1.15,5.45-.02.12.01.2.12.17.46-.15.89-.34,1.35-.53.1-.04.18-.17.2-.29.11-.66.22-1.36.33-2,.02-.12.04-.14.06-.03.08.42.15,1.06.2,1.29.03.13.14.22.24.19.08-.02.13-.11.23-.33.23-.53.45-1.08.67-1.6.05-.11.07-.11.05.01-.16,1.04-.33,2.14-.49,3.18-.02.12.02.21.12.17.55-.18,1.07-.41,1.61-.64.1-.04.17-.17.19-.29.29-2.29.56-4.59.83-6.87.01-.12-.03-.17-.13-.14ZM105.56,27.83c-.42-.07-.82-.11-1.24-.15-.08,0-.13.05-.13.14,0,.97.04,1.96.04,2.94,0,.09-.03.05-.06-.05-.23-.74-.48-1.54-.73-2.29-.03-.1-.11-.17-.19-.18-.38-.03-.73-.04-1.1-.04-.08,0-.14.06-.15.16-.05,1.4-.09,2.81-.12,4.2,0,.1.05.17.14.17.41-.02.81-.04,1.23-.09.09-.01.13-.09.13-.19,0-.48-.04-.99-.04-1.47,0-.1.02-.06.05.04.24.89.51,1.85.76,2.75.03.11.11.2.2.2.44.02.85,0,1.28-.02.09,0,.14-.08.14-.18,0-1.92-.06-3.85-.06-5.77,0-.09-.06-.16-.13-.17ZM101.56,30.91c-.61.02-1.21.1-1.83.12-.08,0-.13-.07-.13-.16,0-.04,0-.09,0-.13.01-.09.07-.16.15-.17.34-.04.67-.03,1.01-.08.09-.01.14-.09.15-.18.01-.29.02-.6.02-.9,0-.09-.05-.16-.14-.16-.34-.01-.67.02-1.01,0-.08,0-.13-.08-.13-.16,0-.02,0-.05,0-.06.02-.08.07-.16.16-.16.48-.01.96,0,1.44-.03.08,0,.14-.07.14-.16.01-.34.02-.68.02-1.02,0-.09-.05-.15-.14-.16-.9-.02-1.79-.06-2.7-.09-.08,0-.15.06-.15.15-.13,1.7-.24,3.41-.34,5.12,0,.1.05.18.13.18,1.11,0,2.21-.03,3.32-.1.09,0,.14-.09.14-.19,0-.5.01-1.01.01-1.51,0-.1-.05-.17-.14-.16ZM97.75,27.29c-.4-.03-.78-.04-1.18-.03-.09,0-.15.06-.17.16-.2,1.65-.37,3.32-.51,4.98,0,.1.04.18.12.17.47-.04.92-.09,1.4-.16.09-.01.14-.1.15-.2.1-1.58.21-3.18.32-4.76,0-.1-.04-.16-.13-.17ZM95.65,27.56c.22.39.33,1.31.17,1.66-.29.62-.62.66-1.09.95.24.74.47,1.55.69,2.29.03.12.01.21-.07.24-.41.13-.79.23-1.21.31-.09.02-.15-.02-.2-.17-.2-.68-.41-1.46-.61-2.16-.02-.06-.08-.05-.08,0-.01.46-.02,1.02-.02,1.46,0,.15-.05.21-.13.24-.36.16-.69.22-1.05.36-.08.03-.13-.1-.12-.16.09-1.15.33-4.75.33-4.75l.02-.35c0-.12.09-.22.2-.24.43-.09,1.51-.29,2.03-.27.29,0,.92.22,1.14.6ZM94.38,28.36c-.06-.19-.28-.19-.48-.13-.05.01-.55.15-.55.15v.87s.48-.16.66-.3c.14-.11.47-.32.38-.59ZM109.41,29.81c.51.63.9,1.67.66,2.44-.24.77-.58,1.19-1.32,1.44-.58.2-1.51.02-2.14-.07-.2-.03-.31-.07-.33-.38-.07-1.47-.15-3.12-.16-4.64,0-.17,0-.23.22-.2,1.18.17,2.24.39,3.07,1.41ZM108.49,32c.21-.27.32-.64.23-1.14-.09-.5-.47-.95-1.08-1.02-.1-.02-.2.02-.19.16.04.71.04,1.33.08,2.04.01.18.07.23.27.21.2-.02.48.03.69-.24ZM113.9,32.37c-.38-.46-1.05-.76-1.58-1.11-.26-.17-.68-.35-.73-.71-.05-.36.31-.36.51-.31.29.07.44.48.48.66s.06.23.15.26c.35.11.67.17,1.01.21.09,0,.2.07.15-.15-.26-1.35-1.23-2.11-2.12-2.14-.9-.03-1.44.49-1.41,1.47.02.4.27.7.51.92.36.33.93.66,1.27.83.42.22.87.4.92.78.07.62-.54.46-.81.32-.27-.14-.48-.51-.52-.7-.04-.19-.05-.25-.14-.27-.43-.1-.77-.07-1.19-.08-.09,0-.13.08-.14.18.19.93.63,1.86,1.51,2.34s1.75.55,2.34-.02c.59-.57.43-1.71-.21-2.48ZM86.44,29.66c-.4.05-1.52.18-1.92.25-.12.02-.17.14-.17.27,0,.24,0,.52.03.76.02.19.13.34.31.36.27.02.49-.07.76-.06-.1.42-.35.78-.85.7-.67-.11-.94-.74-.94-1.44,0-.7.16-1.77.88-1.83.47-.04.58.17.6.32.01.08.08.14.16.13.25-.04.71-.1.92-.14.11-.02.17-.17.15-.25,0-.49-.51-1.83-1.94-1.53-1.43.3-1.9,1.93-1.99,3.6-.09,1.74.88,2.84,2.35,2.6,1.68-.27,1.78-1.77,1.9-2.58.07-.51.02-.85-.03-1.03-.03-.09-.11-.15-.2-.14ZM91.79,26.59c-1.03,0-2.26.04-3.22.23-.06,0-.15.08-.15.18-.07,2.29.04,4.58-.04,6.87,0,.11.04.18.13.16.45-.1.96-.18,1.41-.33.08-.03.13-.1.14-.24.02-.71.03-1.54.05-2.25,0-.15.06-.17.15-.2.21-.08.68-.17.85-.22s.18-.14.19-.24c0-.39,0-.8-.02-1.17,0-.09-.02-.15-.11-.14-.33.03-.85.21-1.18.24-.09,0-.14-.06-.15-.15s-.02-.29-.02-.37c.01-.16.05-.24.2-.27.43-.09,1.41-.25,1.76-.31.08-.01.13-.08.13-.16l.07-1.47c0-.09-.08-.16-.17-.16ZM75.59,30.66c.06-.08.11-.21.12-.32.07-.64.14-1.18.22-1.82.01-.1-.03-.17-.12-.15-.95.24-1.88.51-2.82.81-.09.03-.15.13-.17.23-.08.55-.15,1.02-.23,1.57-.01.1.03.17.11.14.51-.18.99-.43,1.49-.61.08-.03.09,0,.03.08-.67.86-1.35,1.73-2.01,2.62-.06.08-.11.23-.12.35-.05.64-.08,1.31-.13,1.94,0,.12.04.2.13.17,1.12-.36,2.21-.74,3.33-1.12.09-.03.15-.14.15-.26.02-.54.04-1.12.06-1.66,0-.11-.04-.18-.13-.16-.55.15-1.07.39-1.61.55-.09.03-.09-.02-.03-.1.56-.76,1.15-1.53,1.72-2.29ZM71.62,29.35c.04,2.13.09,4.16.12,6.29,0,.12-.06.24-.15.29-.49.25-.96.5-1.47.71-.1.04-.14-.04-.14-.16.04-.57.08-1.2.12-1.77,0-.12-.03-.17-.13-.14-.19.07-.34.17-.51.28-.09.06-.17.18-.2.3-.05.21-.09.44-.14.65-.03.12-.11.24-.2.29-.43.21-.84.42-1.28.59-.1.04-.13-.03-.1-.15.48-2.03.97-4.1,1.45-6.13.03-.11.1-.22.19-.26.77-.37,1.52-.6,2.31-.91.09-.04.14.02.14.13ZM69.93,31.48c-.07.37-.12.75-.18,1.1-.02.11.03.15.11.14.09,0,.13-.04.21-.09.08-.05.15-.15.15-.26.02-.36.03-.73.04-1.09,0-.11-.05-.12-.14-.12,0,0-.02.01-.03.02-.08.08-.16.18-.18.29ZM77.95,28.47c-.41.07-.79.17-1.19.28-.09.02-.15.11-.17.22-.24,1.84-.46,3.71-.68,5.55-.01.11.03.19.11.16.49-.16.94-.35,1.41-.54.09-.04.14-.15.15-.26.15-1.75.31-3.51.47-5.25.01-.11-.03-.17-.12-.15ZM82.26,27.45c-.46.05-.89.12-1.35.21-.08.02-.14.09-.15.2-.07,1.08-.1,2.18-.19,3.25,0,.1-.03.1-.05,0-.17-.78-.36-1.6-.54-2.38-.02-.1-.09-.17-.18-.15-.39.05-.76.13-1.14.22-.09.02-.15.11-.16.21-.16,1.57-.31,3.17-.45,4.75,0,.11.03.18.12.16.43-.12.83-.27,1.24-.44.09-.03.14-.14.15-.25.03-.52.04-1.07.08-1.59,0-.11.03-.1.05,0,.18.92.34,1.9.51,2.82.02.11.09.19.18.16.44-.11.84-.25,1.26-.41.09-.03.14-.14.16-.25.22-2.11.4-4.24.6-6.35,0-.1-.03-.16-.12-.15ZM62.44,31.86l-.42,6.69c-.01.2-.17.45-.35.54l-1.61.87c-.18.1-.3.01-.26-.19l.31-1.93-1.04.43-.27.91c-.06.19-.25.43-.43.52l-1.45.72c-.18.09-.27,0-.21-.18l2.53-7.07c.07-.19.28-.41.46-.49l2.43-1.03c.19-.08.33.02.32.22ZM60.21,34.45l-.6,2.01.77-.28.32-1.96c.03-.2-.04-.31-.16-.25-.12.06-.27.28-.32.47ZM80.1,15.65h-.91v-5.01h1.15l.4,2.59.41-2.59h1.15v4.61l.69-4.61h1.2s.67,4.45.67,4.45v-4.45s.92,0,.92,0c.83,0,1.2.61,1.31.81l-.1-.81h.92l.41,3.05.42-3.05h2.54v.91h-.81v1.13h.81v.92h-.81v1.15h.81v.9h-1.71v-4.54l-.72,4.54h-1.05s-.54-3.21-.54-3.22h0c.09.52-.24,1.06-.53,1.28l.57,1.94h0,0s0,0,0,0h-.88l-.43-1.66-.21.03v1.63h0s0,0,0,0h-1.71s-.11-.77-.11-.77h-.7l-.11.77h-1.75v-2.42l-.41,2.42h-.48l-.41-2.42v2.42ZM85.77,13.14c.07,0,.14-.02.21-.05.21-.1.39-.36.39-.76,0-.78-.53-.8-.6-.8,0,0,0,0,0,0v1.61ZM83.36,14.08h.51l-.26-2.14-.25,2.14ZM93.11,14.74h-.77v-4.11h-.9v5.01h1.67v-.9Z"
          style="fill: #fff;" />
      </g>
    </g>
    <g>
      <text transform="translate(67.75 77.04)"
        style="fill: #120c15; font-family: GillSans, &apos;Gill Sans&apos;; font-size: 5.99px;">
        <tspan x="0" y="0" style="letter-spacing: -.02em;"> </tspan>
        <tspan x="1.38" y="0" style="letter-spacing: -.02em;">©</tspan>
        <tspan x="5.87" y="0"> </tspan>
      </text>
      <text transform="translate(72.62 77.05) scale(1.27 1)"
        style="fill: #120c15; font-family: GillSans, &apos;Gill Sans&apos;; font-size: 5.92px;">
        <tspan x="0" y="0" xml:space="preserve" style="letter-spacing: -.02em;"> MA</tspan>
        <tspan x="9.76" y="0" style="letter-spacing: -.02em;">R</tspan>
        <tspan x="13.15" y="0" style="letter-spacing: -.02em;">VE</tspan>
        <tspan x="19.43" y="0" style="letter-spacing: -.02em;">L</tspan>
        <tspan x="22.16" y="0"> </tspan>
      </text>
      <rect x="56.5" y="48.95" width="55.4" height="22.44" style="fill: #e1251b;" />
      <path
        d="M103.37,54.29v-3.41h-9.48l-1.56,11.38-1.54-11.38h-3.42l.38,3.04c-.4-.78-1.79-3.04-4.87-3.04-.02,0-3.42,0-3.42,0v16.59s-2.5-16.59-2.5-16.59h-4.48s-2.58,17.18-2.58,17.18v-17.18h-4.29l-1.54,9.65-1.5-9.65h-4.29v18.69h3.38v-9.01l1.54,9.01h1.79l1.51-9.01v9.01h6.51l.4-2.87h2.62l.39,2.87h6.39s0,0,0,0h0s0,0,0,0h0v-6.06l.78-.12,1.62,6.19h3.31,0s0,0,0,0h0l-2.13-7.25c1.08-.8,2.29-2.82,1.97-4.76h0s2.01,12.02,2.01,12.02h3.93s2.69-16.95,2.69-16.95v16.94h6.37v-3.36h-3.02v-4.29h3.02v-3.41h-3.02v-4.22h3.02ZM73.79,63.73l.93-7.99.96,7.99h-1.89ZM83.6,60.05c-.26.12-.53.19-.79.19v-6.01h.02c.26,0,2.23.08,2.23,2.97,0,1.51-.67,2.47-1.46,2.85M110.17,66.21v3.36h-6.22v-18.69h3.35v15.32h2.87Z"
        style="fill: #fff;" />
    </g>
  </g>
</svg>