<?xml version="1.0" encoding="UTF-8"?>
<svg id="Layer_1" data-name="Layer 1" data-size="34mm x 26mm" xmlns="http://www.w3.org/2000/svg" viewBox="0 0 150.31 139.62">
   <text id="quantity" style="font-family: Arial-BoldMT, Arial; font-size: 15px; font-weight: 700; isolation: isolate;" y="97%" x="50%" text-anchor="middle"></text>
  <g>
    <rect x="36.68" y=".25" width="98.25" height="86.89" style="fill: #fff;"/>
    <rect x="36.68" y=".25" width="98.25" height="86.89" style="fill: none; stroke: #808285; stroke-width: .5px;"/>
    <line x1="11.35" y1="2.04" x2="11.35" y2="41.97" style="fill: none; stroke: #00aeef; stroke-dasharray: 1.5 2; stroke-width: .5px;"/>
    <line x1="19.77" y1="2.7" x2="2.68" y2="2.7" style="fill: none; stroke: #00aeef; stroke-width: .5px;"/>
    <g>
      <path d="M7.02,33.72v.38H.86c.52.49.81,1.16.88,1.85h-.33c-.12-.8-.59-1.48-1.29-1.89v-.34h6.9Z" style="fill: #00aeef;"/>
      <path d="M4.74,30.73c1.28.05,2.07-.74,2.07-2.01,0-1.02-.6-1.98-1.7-1.98-1.32,0-1.67,1.18-1.59,2.32h-.33c.04-1.01-.25-2.16-1.45-2.16-.97,0-1.41.98-1.41,1.82,0,1.21.83,1.79,1.97,1.84v.38c-1.36,0-2.3-.85-2.3-2.22,0-1.11.51-2.2,1.74-2.2.82,0,1.47.54,1.58,1.35h.02c.11-.94.84-1.51,1.77-1.51,1.36,0,2.03,1.08,2.03,2.36,0,1.52-.86,2.46-2.4,2.39v-.38Z" style="fill: #00aeef;"/>
      <path d="M1.88,22.56v-.38h1.05v-.02c-.65-.16-1.17-.84-1.17-1.61,0-.98.56-1.44,1.09-1.55v-.02c-.7-.3-1.09-.8-1.09-1.63,0-.93.54-1.61,1.75-1.61h3.51v.38h-3.52c-1.31,0-1.41.93-1.41,1.23,0,.93.66,1.61,1.89,1.61h3.04v.38h-3.52c-1.29,0-1.41.88-1.41,1.21,0,.73.57,1.63,1.89,1.63h3.04v.38H1.88Z" style="fill: #00aeef;"/>
      <path d="M1.88,14.6v-.38h1.05v-.02c-.65-.16-1.17-.84-1.17-1.61,0-.98.56-1.44,1.09-1.55v-.02c-.7-.3-1.09-.8-1.09-1.63,0-.93.54-1.61,1.75-1.61h3.51v.38h-3.52c-1.31,0-1.41.93-1.41,1.23,0,.93.66,1.61,1.89,1.61h3.04v.38h-3.52c-1.29,0-1.41.88-1.41,1.21,0,.73.57,1.63,1.89,1.63h3.04v.38H1.88Z" style="fill: #00aeef;"/>
    </g>
    <line x1="11.35" y1="44.1" x2="11.35" y2="84.03" style="fill: none; stroke: #00aeef; stroke-dasharray: 1.5 2; stroke-width: .5px;"/>
    <line x1="19.77" y1="44.76" x2="2.68" y2="44.76" style="fill: none; stroke: #00aeef; stroke-width: .5px;"/>
    <line x1="19.77" y1="84.76" x2="2.68" y2="84.76" style="fill: none; stroke: #00aeef; stroke-width: .5px;"/>
    <g>
      <path d="M7.02,75.78v.38H.86c.52.49.81,1.16.88,1.85h-.33c-.12-.8-.59-1.48-1.29-1.89v-.34h6.9Z" style="fill: #00aeef;"/>
      <path d="M4.74,72.79c1.28.05,2.07-.74,2.07-2.01,0-1.02-.6-1.98-1.7-1.98-1.32,0-1.67,1.18-1.59,2.32h-.33c.04-1.01-.25-2.16-1.45-2.16-.97,0-1.41.98-1.41,1.82,0,1.21.83,1.79,1.97,1.84v.38c-1.36,0-2.3-.85-2.3-2.22,0-1.11.51-2.2,1.74-2.2.82,0,1.47.54,1.58,1.35h.02c.11-.94.84-1.51,1.77-1.51,1.36,0,2.03,1.08,2.03,2.36,0,1.52-.86,2.46-2.4,2.39v-.38Z" style="fill: #00aeef;"/>
      <path d="M1.88,64.62v-.38h1.05v-.02c-.65-.16-1.17-.84-1.17-1.61,0-.98.56-1.44,1.09-1.55v-.02c-.7-.3-1.09-.8-1.09-1.63,0-.93.54-1.61,1.75-1.61h3.51v.38h-3.52c-1.31,0-1.41.93-1.41,1.23,0,.93.66,1.61,1.89,1.61h3.04v.38h-3.52c-1.29,0-1.41.88-1.41,1.21,0,.73.57,1.63,1.89,1.63h3.04v.38H1.88Z" style="fill: #00aeef;"/>
      <path d="M1.88,56.66v-.38h1.05v-.02c-.65-.16-1.17-.84-1.17-1.61,0-.98.56-1.44,1.09-1.55v-.02c-.7-.3-1.09-.8-1.09-1.63,0-.93.54-1.61,1.75-1.61h3.51v.38h-3.52c-1.31,0-1.41.93-1.41,1.23,0,.93.66,1.61,1.89,1.61h3.04v.38h-3.52c-1.29,0-1.41.88-1.41,1.21,0,.73.57,1.63,1.89,1.63h3.04v.38H1.88Z" style="fill: #00aeef;"/>
    </g>
    <line x1="150.31" y1="3.03" x2="21.31" y2="3.03" style="fill: none; stroke: #00a94f; stroke-dasharray: 4 2;"/>
    <line x1="150.31" y1="85.82" x2="21.31" y2="85.82" style="fill: none; stroke: #00a94f; stroke-dasharray: 4 2;"/>
    <line x1="150.31" y1="43.69" x2="21.31" y2="43.69" style="fill: none; stroke: #231f20; stroke-dasharray: 3 3;"/>
    <path d="M73.98,79.4c-1.23,0-2.22-.99-2.22-2.21s.99-2.22,2.22-2.22,2.21,1.01,2.21,2.22-.98,2.21-2.21,2.21ZM73.98,75.28c-1.05,0-1.9.85-1.9,1.9s.85,1.9,1.9,1.9,1.9-.86,1.9-1.9-.84-1.9-1.9-1.9ZM74.65,76.71c-.04-.1-.19-.47-.66-.47s-.8.38-.8.92.26.99.76.99c.53,0,.69-.44.74-.58l.31.1c-.05.15-.13.4-.41.59-.23.16-.46.19-.62.19-.71,0-1.13-.57-1.13-1.27s.4-1.23,1.15-1.23c.41,0,.76.18.97.66l-.32.08Z" style="fill: #120c15;"/>
    <g>
      <path d="M82.22,79.12h-.56v-3.36l-1.77,1.72h-.06l-1.78-1.72v3.36h-.56v-4.04h.54l1.83,1.77,1.82-1.77h.54v4.04Z" style="fill: #120c15;"/>
      <path d="M87.69,79.12h-.59l-.74-1.3h-2.35l-.73,1.3h-.59l2.28-4.06h.38l2.34,4.06ZM85.17,75.75l-.93,1.68h1.9l-.96-1.68Z" style="fill: #120c15;"/>
      <path d="M89.48,75.08c1.33,0,1.69.6,1.69,1.08,0,.55-.43.85-.92.99.37.19.62.5,1.26,1.29.22.27.33.4.59.68h-.68l-.49-.61c-.2-.25-.43-.51-.66-.75-.33-.33-.62-.49-1.17-.49h-.37v1.85h-.56v-4.04h1.31ZM88.73,75.47v1.41h.66c.73,0,1.17-.25,1.17-.71,0-.42-.39-.7-1.17-.7h-.66Z" style="fill: #120c15;"/>
      <path d="M94.21,79.16h-.14l-2.19-4.08h.57l1.69,3.13,1.67-3.13h.56l-2.16,4.08Z" style="fill: #120c15;"/>
      <path d="M99.71,75.47h-2.29v1.41h2.23v.39h-2.23v1.45h2.35v.39h-2.92v-4.04h2.86v.39Z" style="fill: #120c15;"/>
      <path d="M101.02,78.73h2.42v.39h-2.99v-4.04h.56v3.65Z" style="fill: #120c15;"/>
    </g>
    <rect x="59.04" y="51.01" width="55.4" height="22.44" style="fill: #ed1c24;"/>
    <path d="M105.9,56.36v-3.41h-9.48l-1.56,11.38-1.54-11.38h-3.42l.38,3.04c-.4-.78-1.79-3.04-4.87-3.04-.02,0-3.42,0-3.42,0v16.59s-2.5-16.59-2.5-16.59h-4.48s-2.58,17.19-2.58,17.19v-17.19h-4.29l-1.54,9.65-1.5-9.65h-4.29v18.69h3.38v-9.01l1.54,9.01h1.79l1.51-9.01v9.01h6.51l.4-2.87h2.62l.39,2.87h6.39s0,0,0,0h0s0,0,0,0h0v-6.07l.78-.11,1.62,6.18h3.31,0s0,0,0,0h0l-2.13-7.25c1.08-.8,2.29-2.82,1.97-4.76h0s2.01,12.02,2.01,12.02h3.93s2.69-16.95,2.69-16.95v16.94h6.37v-3.36h-3.02v-4.29h3.02v-3.41h-3.02v-4.22h3.02ZM76.33,65.8l.93-7.99.96,7.99h-1.89ZM86.14,62.11c-.26.12-.53.19-.79.19v-6.01h.02c.26,0,2.23.08,2.23,2.97,0,1.51-.67,2.47-1.46,2.85M112.7,68.27v3.36h-6.22v-18.69h3.35v15.32h2.87Z" style="fill: #fff;"/>
    <path d="M127.12,28.2l-.36-.46-9.52-12.36-.21-.27h-.32s-.8,0-.8,0h-1.14s-.29.41-.29.41c-.25-.25-.42-.42-.42-.42h-1.3s-.7,0-.7,0h-.35s-.4.63-.4.63l.19.29.26.39c-.48-.56-1.11-1.31-1.11-1.31h-1.36s-1.19,0-1.19,0h-.31l-.37.65.09.25c.25.65.51,1.31.77,1.96l-1.52-2.56-.18-.3h-3.38s-.32.67-.32.67l.06.24.49,1.91c-.68-.87-1.37-1.73-2.05-2.59l-.19-.24h-.33s-2.91,0-2.91,0h-.43s-.26.7-.26.7l.14.32,1.34,3.31-1.32.04h-.3c.52-1.29-.52-2.51-1.55-3.19-1.21-.8-2.68-1.08-4.1-1.17-.84-.05-1.68-.04-2.52-.04h-.46s-4.72-.01-4.72-.01h-.52s-.09.77-.09.77l.07.35c.08.41.16.81.24,1.22-1.42-1.52-3.48-2.09-5.49-2.28-.59-.06-1.18-.08-1.77-.08h-1.72s-.13,0-.13,0h-3.42s-.62,0-.62,0v.19s0,.19,0,.19l-.02,1.5c-.87-.83-2.05-1.25-3.2-1.5-1.21-.27-2.46-.35-3.7-.38-.74-.02-1.47-.01-2.21-.01h-.68s-.02.14-.02.14c-1.99-.23-4.05-.26-5.99.27-1.75.48-3.47,1.54-4.01,3.37-.5,1.68.24,3.37.92,4.89.74,1.64,1.59,3.48,1,5.31-.26.82-.81,1.53-1.54,1.98-.77.48-1.69.69-2.59.67-.23,0-.46-.02-.69-.06l-1.22-.2-.32.98c-.58,1.79-1.17,3.57-1.75,5.36l-.21.64.79.73.77.05c.84.05,1.7-.04,2.53-.2.85-.16,1.69-.39,2.5-.7,1.6-.6,3.09-1.47,4.42-2.54.74-.59,1.43-1.25,2.05-1.96l-.11.64-.16.91.45.74,1.16-.34c1.67-.48,3.35-.95,5.03-1.39l.69-.18.05-.54.79-8.95c1.92-.53,3.85-1.29,5.19-2.84l-.13,9.39v.66s-.01.06-.01.06l.14.74.89-.2c1.4-.32,2.81-.62,4.21-.91l.67-.13.51-.11c.28-.08.57-.12.86-.18.37-.08.74-.16,1.11-.24.7-.15,1.38-.36,2.04-.63,1.33-.56,2.7-1.39,3.52-2.62.48-.72.81-1.55.99-2.39.25,1.28.51,2.55.76,3.83l.11.56.65-.1c1.81-.27,3.61-.53,5.43-.74l.58-.07c.99-.11,1.98-.22,2.97-.31l.54-.05.31-.67-.17-.48-.71-2.03c-.17-.48-.34-.97-.51-1.45.94,1.22,1.57,2.66,2.15,4.08l.18.45.5-.04c.99-.08,1.98-.14,2.97-.2l.58-.03.39-.66-.28-.52c-.8-1.51-1.61-3.05-2.64-4.42l1.05-.05h.16s2.24,5.17,2.24,5.17l.19.43.47-.02c.91-.04,1.83-.07,2.75-.09h.54s.37-.54.37-.54c.04.06.09.13.13.19l.23.33h.36c.41,0,.83-.01,1.24-.01h.43s.44-.57.44-.57c.03.06.06.12.09.17l.2.4h.43c1.77.02,3.54.08,5.3.18l.49.03.52-.55c.06.09.12.18.19.27l.22.34.36.03c.85.06,1.7.14,2.55.22l.21.02.35.04c.65.07,1.3.14,1.95.22l.56.08.41-.36c.07.08.14.16.2.24l.22.27.29.05c.76.12,1.51.26,2.27.41l.61.12.69-.55-.44-.57ZM58.59,23.8s0,0,0,0c0,0,0,0,0,0,0,0,0,0,0,0,0,0,0,0,0,0M58.81,24.31s-.02-.05-.03-.08l-.04-.1s-.02-.06-.04-.09l-.02-.04s-.01-.04-.02-.05l-.03-.07s-.04-.09-.06-.14l-.05-.12c-.02-.06-.05-.12-.08-.18l-.02-.06c-.21-.51-.46-1.01-.73-1.49-.27-.48-.57-.95-.82-1.43-.1-.34-.14-.71-.06-1.07v-.02s0-.02,0-.02c.11-.59.67-.87,1.21-.97.61-.12,1.24-.09,1.85,0l-1.07,5.95ZM65.76,19.21s0,0,0,0c-.06.21-.18.4-.32.57.03-.33.06-.66.09-.99.1.07.19.16.27.26,0,.05-.02.11-.04.16M81.06,23.6c-.09.55-.29,1.1-.67,1.52l-.8-6.02c.65.5,1.02,1.28,1.21,2.06.19.79.27,1.64.25,2.44M88,18.31l-.15-.55c.33,0,.66-.01.98-.02l.52,1.84-1.01.03-.35-1.3ZM89.82,25.1c-.21-.8-.43-1.6-.64-2.39l1.05-.05.67,2.35c-.36.03-.72.06-1.08.1M93.41,19.11l-.27-.77c.07.07.14.16.19.24-.01-.02-.03-.04,0,0,.03.05.01.02,0,0,.09.14.15.29.19.44-.03.03-.07.05-.11.08M96.71,20.35s0,0,0-.01v.03s0,0,0-.01M96.95,19.74s0,.02,0-.04t0,0s0,.03,0,.04" style="fill: #ed1c24;"/>
    <path d="M127.12,28.2l-10.09-13.1h-2.26s1.89,2.58,1.89,2.58c-.79-.79-2.6-2.59-2.6-2.59h-2.35s4.67,6.85,4.67,6.85c-1.4-1.73-2.82-3.44-4.27-5.13-.42-.49-1.46-1.72-1.46-1.72h-2.86s1.46,3.61,2.18,5.28c.21.49.42.97.63,1.46l-4.01-6.75h-3.38s1.01,3.83,1.01,3.83c-.94-1.2-3.03-3.84-3.03-3.84h-3.67s1.8,4.31,1.8,4.31l-1.9.06h-.3c.31-.65.1-1.4-.28-1.98s-.91-1.01-1.49-1.35c-1.26-.74-2.75-.98-4.19-1.04-.73-.03-1.46-.02-2.2-.02h-.47s-4.72-.01-4.72-.01h-.52s.07.35.07.35c.16.79.32,1.58.48,2.37-.68-.85-1.57-1.49-2.57-1.91-1.01-.42-2.09-.63-3.17-.74-.61-.06-1.23-.09-1.85-.09h-5.88s0,.37,0,.37l-.02,1.49c-.88-.84-2.11-1.27-3.28-1.52-1.21-.26-2.45-.34-3.69-.37-.71-.02-1.43-.01-2.14,0h-.68s-.02.14-.02.14c-1.81-.21-3.68-.25-5.48.14-1.67.36-3.38,1.17-4.22,2.74-.44.84-.56,1.78-.41,2.71.16.98.56,1.9.96,2.79.76,1.69,1.66,3.53,1.07,5.41-.27.86-.84,1.59-1.61,2.05-.75.44-1.64.65-2.51.64-.24,0-.48-.03-.71-.06l-1.22-.2-.32.98c-.58,1.79-1.17,3.57-1.75,5.36l-.21.64.79.05c.95.06,1.9-.05,2.83-.24.94-.19,1.86-.45,2.75-.81,1.76-.71,3.41-1.73,4.84-2.98.8-.7,1.55-1.48,2.17-2.34l-.42,2.34-.16.91,1.19-.34c1.71-.49,3.43-.95,5.16-1.39l.7-.18.05-.55.84-9.03c2.01-.54,4.07-1.33,5.43-2.99l-.16,11.09,6.4-1.34c.28-.08.58-.12.87-.18.38-.08.75-.16,1.13-.24.71-.15,1.4-.35,2.07-.63,1.35-.56,2.75-1.39,3.58-2.63.48-.72.82-1.55,1-2.4.26,1.29.52,2.57.78,3.86l.12.56.66-.1c1.83-.27,3.67-.52,5.52-.73l.59-.07c1-.11,2.01-.21,3.01-.3l.55-.05-.17-.48-.71-2.03c-.35-1.01-.71-2.02-1.06-3.03.73.61,1.27,1.43,1.73,2.25.5.88.91,1.81,1.3,2.74l.19.45.51-.04c1-.07,2.01-.14,3.01-.19l.59-.03-.27-.52c-.46-.87-.93-1.74-1.44-2.59-.51-.86-1.06-1.72-1.72-2.48l1.91-.09h.16s2.3,5.2,2.3,5.2l.19.43.48-.02c.93-.03,1.85-.06,2.78-.07h.55s-.26-.51-.26-.51c-.56-1.06-1.12-2.11-1.69-3.17.83,1.1,1.66,2.21,2.46,3.33l.23.33h.37c.42,0,.84,0,1.26,0h.44l-.13-.4c-.37-1.11-.71-2.23-1.05-3.35.57,1.12,1.14,2.24,1.72,3.36l.21.4h.43c1.79.03,3.58.09,5.36.2l.49.03-.26-.46c-.43-.77-.86-1.55-1.29-2.32.18,0,.36.01.55.02.57.83,1.15,1.66,1.72,2.5l.23.34.36.03c.86.06,1.72.14,2.58.23l.21.02.36.04c.66.07,1.32.14,1.97.23l.56.08-.38-.53-2.53-3.51c1.2,1.28,2.38,2.58,3.53,3.91l.23.27.29.05c.77.12,1.53.26,2.29.42l.61.12-.44-.57ZM58.79,24.4c-.14-.45-.3-.89-.5-1.33-.34-.76-.76-1.47-1.18-2.18-.41-.71-.87-1.56-.68-2.4v-.02s0-.02,0-.02c.17-.66.79-.91,1.42-1,.36-.05.72-.06,1.08-.03.28.02.61.03.89.11l.18.03-1.23,6.85ZM65.76,19.21s0,.01,0,0c-.1.35-.35.64-.63.86v-.02c.07-.71.13-1.41.2-2.12.41.31.58.78.43,1.28,0-.03.03-.09,0,0M81.08,23.47s0-.08.01-.09c0,0,0,.03-.01.09-.02.17-.01.09,0,0-.08.6-.28,1.18-.69,1.64l-.92-6.92c.79.52,1.21,1.41,1.42,2.3.11.5.17,1.01.21,1.52.04.48.04.97-.02,1.45M87.65,17.01h.16s1.19-.02,1.19-.02l.75,2.57-1.4.04-.7-2.59ZM90.93,25s0,0,0,0c0,0,0,0,0,0-.37.03-.74.07-1.11.1-.28-1.04-.56-2.07-.83-3.11l1.45-.07.88,3.04c-.13.01-.26.02-.39.03h0,0ZM93.76,18.71s0,0,0-.01h0s0,.03,0,.01c-.05.18-.2.3-.35.4l-.66-1.89c.31.13.6.33.79.61.17.24.31.59.22.89M93.77,18.69s0,0,0,0M96.47,20.2c.2-.16.39-.35.53-.57l.08.2.45,1.12c-.33-.28-.69-.53-1.06-.75M113.52,21.96l-.39-.71c.05.07.09.13.14.19h0s0,0,0,0c.02.03.01.02,0,0,.12.17.25.34.37.51-.04,0-.08,0-.13,0" style="fill: #ed1c24;"/>
    <path d="M116.92,15.38l9.84,12.87c-.19-.04-.38-.08-.57-.11-.19-.04-.38-.07-.57-.11-.19-.03-.38-.07-.58-.1-.19-.03-.39-.07-.58-.1-.85-.98-1.67-1.9-2.43-2.72-.74-.8-1.42-1.52-1.99-2.11-.57-.59-1.04-1.06-1.37-1.4-.33-.33-.54-.53-.58-.57l4.67,6.52c-.21-.03-.4-.06-.59-.08-.19-.02-.38-.05-.56-.07-.19-.02-.38-.04-.57-.06-.19-.02-.4-.04-.61-.07l-8.17-11.89h1.74c.38.38.85.85,1.36,1.36.52.52,1.07,1.07,1.58,1.58s1,1,1.37,1.37c.37.37.61.61.66.66l-3.66-4.97h1.62ZM100.05,21.2l-.59-1.44-1.9.06.6,1.46,1.9-.08ZM89.04,24.35c-.12-.44-.23-.89-.34-1.29-.1-.4-.19-.75-.26-1.01-.07-.26-.11-.43-.12-.46l2.02-.09-.45-1.55-1.98.06s-.05-.19-.11-.44c-.06-.24-.15-.57-.24-.92-.09-.35-.19-.72-.28-1.07-.09-.35-.18-.68-.24-.94.17,0,.33,0,.49,0,.16,0,.31,0,.46,0,.15,0,.3,0,.46,0,.16,0,.31,0,.48,0-.03-.11-.07-.24-.11-.37-.04-.14-.08-.27-.12-.4-.04-.13-.07-.24-.09-.32-.02-.08-.04-.14-.04-.15h-4.75c.02.08.11.52.26,1.22.15.72.36,1.71.61,2.88.26,1.21.55,2.62.87,4.09.33,1.54.67,3.15.99,4.67.52-.07,1.01-.14,1.5-.21.48-.06.95-.13,1.4-.19.45-.06.9-.11,1.35-.17.44-.05.88-.1,1.31-.15-.06-.19-.11-.37-.16-.55-.05-.18-.1-.36-.15-.53-.05-.17-.1-.35-.15-.52-.05-.17-.1-.34-.15-.51-.19.02-.36.03-.54.05-.17.02-.34.03-.51.05-.17.01-.34.03-.52.05-.18.02-.36.03-.55.05-.1-.38-.21-.82-.33-1.27M70.86,31.07c.39-.08.85-.18,1.33-.28.47-.1.96-.2,1.39-.29.44-.09.82-.17,1.1-.22.28-.06.6-.14.62-.14l-.84-14.74h-3.55s-.06,15.67-.06,15.67ZM55.74,18.23c.06-.15.16-.34.36-.53.19-.18.48-.37.89-.51.41-.14.95-.23,1.65-.24.18,0,.37,0,.54.02.17.01.33.03.47.05.14.02.26.04.34.05.09.01.14.02.15.03l.28-1.55s-.1-.01-.24-.03c-.14-.02-.33-.03-.56-.06-.23-.02-.5-.04-.8-.05-.29-.01-.61-.02-.94-.02-1.32,0-2.37.15-3.21.39-.85.24-1.49.57-1.97.93-.48.36-.81.75-1.02,1.1-.22.35-.33.66-.39.85-.13.43-.18.85-.17,1.28.02.43.1.86.22,1.28.12.43.29.86.47,1.28.18.43.38.85.58,1.27.15.33.31.67.45,1.02.14.35.28.71.38,1.09.11.38.19.76.23,1.15.04.4.04.81-.03,1.23-.06.37-.16.76-.33,1.14-.17.39-.41.77-.73,1.12-.32.36-.72.69-1.21.97-.5.28-1.09.52-1.78.67-.07.01-.14.03-.21.04-.07.01-.14.02-.2.03s-.14.02-.2.03-.13.01-.2.02c-.14.01-.27.02-.4.02-.13,0-.26,0-.39,0-.13,0-.26-.01-.38-.02-.12-.01-.25-.03-.37-.05-.01.04-.08.26-.19.6-.11.34-.25.81-.42,1.33-.17.53-.35,1.12-.54,1.71-.19.59-.37,1.18-.53,1.69.11,0,.23.01.35.01s.24,0,.36,0c.12,0,.24-.01.37-.02.12-.01.25-.02.38-.04.2-.02.4-.05.6-.09.2-.03.4-.07.6-.11.2-.04.4-.09.59-.14.19-.05.39-.1.57-.16.73-.22,1.44-.51,2.11-.84.66-.32,1.29-.69,1.87-1.09.58-.39,1.11-.81,1.6-1.24.48-.42.91-.86,1.3-1.29.9-1.05,1.5-2.07,1.85-3.06.35-.96.47-1.9.44-2.79-.03-.88-.21-1.72-.48-2.52-.27-.78-.62-1.53-1.01-2.23-.15-.27-.32-.55-.48-.84-.16-.28-.32-.57-.44-.86-.13-.29-.22-.59-.27-.88-.05-.29-.05-.59.03-.88,0-.02,0-.13.07-.27M120.18,27.25c-.21-.02-.42-.04-.63-.07s-.42-.04-.63-.06c-.21-.02-.43-.04-.64-.06-.21-.02-.43-.03-.64-.05-.18-.26-.35-.51-.52-.76-.17-.24-.33-.48-.5-.72-.16-.23-.32-.46-.47-.68-.15-.22-.31-.44-.46-.66-.11,0-1.33-.05-1.34-.05.12.21.23.42.35.64.12.22.24.44.37.67.12.23.25.46.38.7.13.24.27.48.41.74-.21-.01-.43-.02-.64-.04s-.43-.02-.64-.03c-.22-.01-.43-.02-.65-.03-.22,0-.43-.02-.65-.03-.65-1.4-1.22-2.64-1.73-3.77-.49-1.09-.92-2.07-1.31-2.98-.38-.88-.73-1.7-1.05-2.47-.31-.75-.61-1.47-.89-2.17h2.24c.58.69,1.18,1.38,1.8,2.13.64.76,1.32,1.57,2.06,2.47.76.92,1.59,1.94,2.51,3.11.96,1.2,2.04,2.57,3.28,4.16M114.32,22.34s-2.97-3.86-3.01-3.91l1.99,3.89M96.06,19.9c.13-.1.24-.21.34-.32.1-.11.18-.24.24-.37.06-.13.1-.27.11-.42.02-.23,0-.46-.08-.69s-.19-.45-.35-.67c-.16-.22-.35-.42-.57-.61-.22-.19-.47-.37-.75-.52-.35-.2-.72-.35-1.1-.47s-.77-.21-1.17-.28c-.4-.06-.8-.11-1.2-.13-.4-.02-.8-.03-1.18-.03-.12,0-.26,0-.41,0h-.77c-.09,0-.15,0-.16,0,.47,1.59.85,2.83,1.15,3.85.32,1.06.56,1.88.79,2.63.23.77.44,1.47.69,2.32.26.86.56,1.88.99,3.3.27-.03.53-.06.79-.08.26-.03.51-.05.76-.08.25-.02.5-.05.74-.07.24-.02.48-.04.72-.06-.21-.6-.4-1.18-.59-1.73-.18-.54-.36-1.06-.53-1.56-.17-.5-.33-.97-.49-1.44-.16-.46-.31-.91-.46-1.35.31.12.6.28.86.46.26.18.5.39.72.62.22.22.43.46.61.71.19.25.36.49.51.73.17.26.33.53.48.8.15.27.3.55.44.83.14.28.27.57.4.86.13.29.26.59.38.88.25-.02.51-.03.76-.05.25-.02.5-.03.76-.05.25-.01.5-.03.75-.04.25-.01.5-.03.74-.04-.21-.4-.45-.85-.71-1.34-.26-.48-.54-.98-.84-1.46-.29-.48-.6-.96-.91-1.39-.31-.43-.63-.82-.95-1.13-.15-.14-.29-.27-.44-.39-.15-.12-.3-.24-.45-.35-.16-.11-.32-.21-.49-.31-.17-.1-.35-.19-.54-.28.15-.09.29-.18.41-.28M93.12,19.7l-1.04-3.03c.24.05.48.11.7.19.22.08.43.18.61.3.18.12.35.26.48.42.14.16.25.35.32.56.08.21.11.4.09.56s-.08.31-.18.43c-.1.12-.24.23-.4.32-.17.09-.36.17-.58.24M105.11,20.67c-.39-.51-.77-1-1.13-1.47-.36-.47-.71-.91-1.05-1.35-.34-.43-.66-.85-.99-1.26-.32-.41-.64-.81-.95-1.2h-2.92s5.11,11.36,5.11,11.36c.23,0,.46-.01.69-.02.23,0,.46-.01.69-.02.23,0,.46-.01.7-.01.23,0,.46,0,.7-.01-.39-.73-.75-1.43-1.09-2.08-.34-.64-.66-1.25-.97-1.84-.3-.57-.6-1.12-.88-1.65-.28-.52-.55-1.03-.81-1.52,0,0,.21.25.54.66.33.42.8,1.01,1.32,1.7.54.7,1.15,1.5,1.76,2.31.62.83,1.24,1.66,1.78,2.41h.94c.11,0,.21,0,.31,0-.24-.74-.5-1.58-.75-2.4-.24-.8-.47-1.59-.67-2.29-.19-.68-.36-1.28-.48-1.71-.12-.43-.19-.7-.21-.75.03.05.17.32.39.75.22.43.53,1.02.88,1.71.36.69.77,1.49,1.18,2.29.43.82.86,1.66,1.26,2.42.22,0,.43,0,.65.01.22,0,.43,0,.65.01s.43.01.65.02c.22,0,.43.01.65.02l-6.69-11.37h-2.7s1.43,5.29,1.43,5.29ZM62.44,15.4h-.11c-.1,0-.21,0-.31,0s-.2,0-.31,0-.2,0-.31,0c-.1,0-.2,0-.31,0l-3.17,18.85c.44-.12.88-.24,1.31-.36.43-.12.87-.23,1.3-.35.43-.11.86-.22,1.28-.33.42-.11.84-.22,1.26-.32l.98-9.45c.31-.08.61-.16.9-.24.29-.08.58-.17.86-.26.28-.09.56-.19.82-.3.27-.11.52-.22.78-.35.72-.38,1.35-.84,1.85-1.33.48-.48.84-.99,1.02-1.5.18-.5.2-1.01.01-1.48-.18-.47-.56-.92-1.17-1.31-.43-.27-.91-.48-1.42-.65-.51-.17-1.05-.29-1.62-.38-.57-.09-1.16-.15-1.77-.18-.61-.04-1.24-.05-1.86-.05h-.03ZM66.44,19.26c-.05.19-.14.38-.26.55-.12.17-.27.34-.45.49-.18.15-.39.29-.63.42-.24.13-.5.25-.78.35.04-.37.08-.73.11-1.08.03-.35.07-.68.1-1,.03-.32.07-.63.1-.94.03-.3.06-.6.09-.9.35.09.64.2.89.34.25.14.44.3.59.48.15.18.24.38.28.6.04.22.03.45-.04.69M75.32,15.39l1.01,14.56s.11-.02.26-.05c.15-.03.35-.07.57-.12s.48-.1.74-.15c.26-.05.52-.11.75-.16.36-.08.79-.2,1.24-.36.44-.16.91-.37,1.37-.61.45-.24.89-.52,1.29-.85.39-.32.74-.67,1.01-1.06.3-.45.54-.92.71-1.4.18-.47.29-.95.37-1.42.07-.47.1-.94.09-1.4,0-.46-.05-.91-.13-1.34-.07-.42-.17-.84-.31-1.26-.14-.41-.32-.81-.54-1.2-.22-.38-.49-.74-.82-1.08-.32-.33-.7-.64-1.15-.92-.39-.23-.81-.42-1.24-.58-.44-.15-.89-.27-1.36-.36-.47-.09-.96-.15-1.45-.19-.5-.04-1-.06-1.5-.06h-.9ZM79.88,26.22l-1.08-8.74s.19.03.41.1c.23.08.52.21.83.44.31.23.62.56.9,1.02.28.47.51,1.1.64,1.92.09.59.15,1.14.16,1.66.01.52-.03,1.01-.14,1.45-.11.45-.3.85-.58,1.21-.28.36-.65.67-1.14.94" style="fill: #fff;"/>
    <path d="M45.8,37.67s-.07,0-.1,0c-.12,0-.24,0-.35-.01h-.13s1.74-5.54,1.74-5.54h.09c.12.03.24.05.37.06.12.01.25.02.38.02.13,0,.26,0,.38,0,.13,0,.26-.01.39-.02.07,0,.13-.01.2-.02.07,0,.13-.02.2-.03.07,0,.13-.02.2-.03.07-.01.14-.02.2-.04.65-.14,1.24-.37,1.75-.66.46-.26.85-.58,1.19-.95.29-.33.53-.7.71-1.1.16-.36.27-.73.33-1.12.06-.39.07-.8.02-1.21-.03-.37-.11-.74-.22-1.14-.09-.33-.22-.68-.38-1.07-.14-.35-.3-.69-.45-1.02l-.14-.31c-.14-.31-.29-.64-.43-.96-.21-.49-.36-.91-.47-1.29-.13-.47-.21-.9-.22-1.31-.02-.46.04-.89.17-1.31.06-.2.18-.52.4-.87.26-.42.62-.8,1.05-1.13.54-.4,1.22-.72,2-.94.92-.26,2-.39,3.23-.39.3,0,.61,0,.94.02.26.01.53.03.8.05.19.02.39.03.57.05.14.02.23.03.24.03h.11s-.31,1.77-.31,1.77l-.1-.02s-.06-.01-.15-.03c-.08-.01-.2-.03-.34-.05-.16-.02-.32-.04-.47-.05-.19-.01-.37-.02-.53-.02-.63,0-1.18.08-1.62.23-.35.12-.64.28-.85.48-.15.15-.26.31-.33.49-.05.12-.06.21-.06.25v.02c-.07.27-.08.54-.03.84.04.26.13.55.26.86.14.32.3.62.44.86.07.13.15.25.22.38.09.16.18.31.26.46.44.79.78,1.52,1.02,2.24.3.87.46,1.73.49,2.55.03.96-.11,1.91-.44,2.83-.38,1.05-1.01,2.09-1.87,3.09-.4.45-.84.89-1.31,1.3-.5.44-1.04.86-1.61,1.24-.61.41-1.24.78-1.88,1.1-.7.34-1.41.62-2.12.84-.2.06-.39.11-.58.16-.2.05-.4.1-.6.14-.2.04-.41.08-.6.11-.21.03-.41.06-.6.09-.13.01-.26.03-.38.04-.13.01-.25.02-.37.02-.09,0-.18,0-.26,0M45.49,37.46c.07,0,.14,0,.21,0,.11,0,.23,0,.35,0,.12,0,.24-.01.37-.02.12,0,.25-.02.37-.04.19-.02.39-.05.59-.08.19-.03.39-.07.6-.11.19-.04.39-.09.59-.14.19-.05.38-.1.57-.16.7-.21,1.4-.49,2.09-.83.63-.31,1.26-.67,1.86-1.08.55-.38,1.09-.79,1.59-1.23.46-.41.9-.84,1.29-1.28.85-.98,1.46-2,1.83-3.03.32-.89.47-1.82.43-2.75-.03-.8-.19-1.64-.48-2.49-.24-.71-.57-1.43-1-2.21-.08-.15-.17-.3-.26-.46-.07-.12-.15-.25-.22-.38-.13-.24-.31-.55-.45-.88-.14-.33-.23-.62-.28-.9-.05-.32-.04-.62.03-.91,0-.06.02-.16.07-.3.08-.21.21-.4.38-.56.23-.22.55-.4.93-.53.46-.15,1.02-.23,1.68-.24.17,0,.35,0,.55.02.15.01.32.03.48.05.14.02.26.04.35.05.02,0,.03,0,.05,0l.24-1.34s-.08,0-.13-.02c-.14-.01-.33-.03-.56-.05-.27-.02-.53-.04-.79-.05-.32-.02-.64-.02-.93-.02-1.21,0-2.28.13-3.18.38-.76.22-1.41.52-1.93.91-.41.31-.75.67-1,1.07-.21.33-.31.63-.38.83-.12.4-.18.81-.16,1.24.01.39.08.81.21,1.26.11.38.26.78.47,1.27.14.32.29.64.43.95l.15.32c.15.32.31.67.45,1.03.16.4.29.76.39,1.09.12.41.19.8.23,1.17.04.43.03.85-.03,1.26-.06.4-.17.8-.34,1.17-.19.42-.44.81-.75,1.15-.34.39-.76.72-1.24.99-.53.3-1.14.53-1.81.68-.07.01-.14.03-.21.04-.07.01-.14.02-.21.03-.07,0-.14.02-.2.03-.07,0-.14.01-.2.02-.13.01-.27.02-.41.03-.13,0-.26,0-.4,0-.13,0-.26-.01-.39-.03-.1-.01-.19-.02-.29-.04l-1.61,5.12ZM57.81,34.39l3.21-19.09h1.38s.07,0,.07,0c.7,0,1.31.02,1.86.05.66.04,1.24.1,1.78.18.61.1,1.14.22,1.64.39.54.18,1.02.4,1.44.66.61.39,1.02.85,1.22,1.36.19.49.18,1.01-.01,1.55-.19.52-.54,1.04-1.05,1.54-.5.5-1.15.96-1.87,1.35-.25.13-.5.25-.78.36-.26.1-.53.2-.83.3-.26.09-.55.17-.87.26-.24.07-.5.14-.83.22l-.99,9.45-.07.02c-.42.11-.84.21-1.26.32-.42.11-.85.22-1.28.33-.43.11-.86.23-1.3.35-.44.12-.87.24-1.31.36l-.15.04ZM61.19,15.5l-3.13,18.61c.39-.11.77-.21,1.16-.32.43-.12.87-.23,1.3-.35.43-.11.86-.23,1.28-.33.4-.1.8-.2,1.19-.31l.98-9.45.07-.02c.37-.09.64-.17.9-.24.32-.09.6-.17.86-.26.3-.1.56-.19.82-.3.27-.11.53-.23.77-.35.7-.38,1.33-.83,1.82-1.31.48-.48.82-.97,1-1.47.18-.5.18-.97.02-1.41-.18-.47-.56-.9-1.13-1.26-.4-.25-.87-.47-1.39-.64-.48-.16-1.02-.28-1.6-.38-.53-.08-1.11-.14-1.76-.18-.55-.03-1.15-.05-1.85-.05h-1.28ZM70.75,31.19l.06-15.9h3.74s.85,14.92.85,14.92l-.11.02c-.09.02-.36.09-.59.14h-.02c-.28.06-.66.14-1.09.22-.44.09-.92.19-1.39.29-.48.1-.94.19-1.33.28l-.12.03ZM71.01,15.5l-.05,15.44c.36-.08.78-.16,1.2-.25.47-.1.96-.2,1.39-.29.43-.09.81-.16,1.09-.22h.02c.19-.04.42-.1.53-.12l-.83-14.56h-3.35ZM76.24,30.08l-1.03-14.78h1c.54,0,1.04.02,1.51.05.52.04,1.01.11,1.46.19.49.09.96.22,1.38.36.46.16.88.36,1.26.58.44.27.83.58,1.17.93.32.33.6.7.83,1.1.22.37.4.78.55,1.22.14.4.24.83.32,1.27.08.46.12.91.13,1.36,0,.48-.02.96-.09,1.42-.08.5-.2.99-.37,1.44-.19.5-.43.98-.73,1.42-.27.38-.61.74-1.03,1.09-.38.31-.82.6-1.3.86-.43.24-.9.44-1.38.62-.43.16-.86.29-1.25.37-.24.05-.5.11-.75.16-.26.05-.51.1-.74.15s-.43.09-.57.12c-.15.03-.24.05-.26.05l-.11.02ZM75.43,15.5l1,14.34s.09-.02.15-.03c.15-.03.35-.07.57-.11.23-.05.48-.1.73-.15s.51-.11.75-.16c.38-.08.8-.21,1.22-.36.47-.17.93-.38,1.36-.61.47-.26.9-.54,1.27-.84.4-.33.74-.68.99-1.04.28-.43.52-.89.7-1.37.17-.45.29-.92.36-1.4.07-.45.1-.91.09-1.38,0-.43-.05-.88-.12-1.33-.07-.44-.18-.85-.31-1.24-.14-.42-.32-.82-.53-1.18-.23-.39-.5-.74-.81-1.06-.33-.34-.71-.64-1.13-.9-.37-.22-.78-.41-1.22-.56-.41-.14-.87-.26-1.35-.36-.44-.08-.93-.15-1.44-.19-.46-.04-.97-.06-1.49-.06h-.79ZM127.01,28.4l-.27-.06c-.19-.04-.38-.08-.57-.11-.19-.04-.38-.07-.57-.11-.19-.03-.38-.07-.58-.1s-.39-.07-.58-.1h-.04s-.02-.03-.02-.03c-.77-.89-1.59-1.81-2.43-2.71-.66-.71-1.32-1.42-1.99-2.11-.43-.45-.8-.83-1.09-1.11l4.1,5.73-.23-.03c-.2-.03-.4-.06-.59-.08s-.38-.05-.56-.07c-.19-.02-.37-.04-.57-.06l-.85-.09c-.21-.02-.42-.04-.63-.06-.21-.02-.42-.04-.63-.06-.21-.02-.42-.04-.64-.06-.21-.02-.43-.03-.64-.05h-.05s-1.52-2.2-1.52-2.2c-.14-.21-.29-.41-.43-.62-.19,0-.81-.03-1.11-.04.09.16.17.32.26.49.12.22.24.44.36.67.12.23.25.46.38.7l.5.9h-.18c-.21-.02-.43-.04-.64-.05-.21-.01-.43-.02-.64-.03-.21,0-.43-.02-.64-.03-.22-.01-.43-.02-.65-.03h-.19c-.21-.02-.43-.02-.65-.03-.21,0-.43-.01-.65-.02-.22,0-.43-.01-.65-.02-.22,0-.43,0-.65-.01h-.06s-.03-.06-.03-.06c-.39-.76-.83-1.6-1.26-2.42-.42-.8-.82-1.59-1.18-2.29-.32-.62-.6-1.17-.82-1.59.1.38.25.91.42,1.52.23.81.45,1.58.66,2.29.27.91.52,1.72.74,2.4l.04.13h-1.08s-.37,0-.37,0l-.03-.04c-.49-.69-1.09-1.49-1.78-2.41-.55-.73-1.15-1.51-1.76-2.31-.43-.56-.84-1.08-1.18-1.52.1.19.2.38.3.57.28.53.57,1.08.88,1.65.31.58.63,1.19.97,1.84.34.65.71,1.35,1.09,2.08l.08.15h-.16c-.23,0-.46.01-.7.01-.23,0-.46.01-.69.02-.23,0-.46.01-.69.02-.23,0-.46.01-.69.02h-.07s-5.2-11.56-5.2-11.56h3.13s.04.05.04.05c.31.4.62.79.94,1.19.32.41.65.83.99,1.26.34.43.69.88,1.05,1.35.26.34.54.7.82,1.06l-1.33-4.91h2.89s.03.05.03.05l6.5,11.04c-.55-1.17-1.05-2.27-1.53-3.33-.47-1.04-.89-2.01-1.31-2.98-.35-.82-.7-1.62-1.05-2.47-.28-.66-.56-1.35-.89-2.17l-.06-.14h2.44s.03.03.03.03c.65.77,1.21,1.42,1.8,2.13.71.85,1.39,1.66,2.06,2.47.82,1,1.64,2.01,2.52,3.11.97,1.22,1.99,2.51,3.1,3.94l-8.02-11.68h1.98s.03.03.03.03c.38.38.85.85,1.36,1.36l2.65,2.65-2.98-4.04h1.87s.03.04.03.04l10.01,13.08ZM124.51,27.73c.18.03.37.06.55.09.19.03.39.07.58.1.19.03.38.07.57.11.1.02.2.04.3.06l-9.64-12.61h-1.37s3.54,4.81,3.54,4.81l-.15.13-3.6-3.61c-.5-.49-.96-.96-1.33-1.33h-1.5s8.03,11.69,8.03,11.69l.56.06c.19.02.38.04.57.06.19.02.37.04.56.07.12.01.24.03.36.05l-4.53-6.33.15-.13c.05.05.25.25.58.57.3.3.78.78,1.38,1.4.67.69,1.34,1.4,1.99,2.11.83.9,1.64,1.81,2.41,2.69M117.69,26.92c.2.02.4.03.6.05.21.02.43.04.64.06.21.02.42.04.63.06.13.01.26.03.39.04-1.12-1.44-2.15-2.74-3.13-3.97-.87-1.09-1.7-2.11-2.51-3.11-.67-.81-1.34-1.62-2.05-2.47-.58-.7-1.13-1.34-1.77-2.09h-2.05c.31.76.57,1.4.83,2.03.35.85.7,1.65,1.05,2.47.42.97.85,1.94,1.31,2.98.53,1.18,1.09,2.39,1.7,3.71.2,0,.39.02.59.02.22.01.43.02.65.03s.43.02.64.03c.15,0,.3.02.45.03l-.32-.57c-.13-.24-.26-.47-.38-.7-.12-.23-.25-.45-.37-.66-.12-.22-.23-.43-.35-.64l-.09-.16h.3c.32.02,1.13.05,1.22.06h.05s.03.04.03.04c.15.22.3.44.46.66l1.47,2.12ZM110.54,26.58c.2,0,.39,0,.59.01.22,0,.43.01.65.02.22,0,.43.01.65.02.15,0,.31.01.46.02l-6.57-11.16h-2.5s1.53,5.66,1.53,5.66l-.31-.41c-.39-.51-.77-1-1.13-1.47-.36-.46-.71-.91-1.05-1.35-.33-.43-.66-.85-.99-1.26-.31-.39-.62-.78-.92-1.17h-2.72s5.02,11.15,5.02,11.15c.21,0,.41-.01.62-.02.23,0,.46-.01.69-.02.23,0,.46-.01.7-.02.18,0,.35,0,.53,0-.36-.68-.69-1.32-1.02-1.93-.34-.64-.66-1.25-.97-1.84-.3-.57-.59-1.12-.88-1.65-.28-.52-.55-1.03-.81-1.52l-.08-.14h.16q.06,0,.62.69c.36.46.83,1.07,1.33,1.7.62.8,1.21,1.58,1.76,2.31.67.89,1.26,1.69,1.75,2.37h.26s.8,0,.8,0c-.21-.65-.45-1.41-.7-2.27-.21-.71-.43-1.48-.67-2.29-.2-.72-.37-1.33-.48-1.71-.11-.41-.19-.68-.2-.75l-.25-.93.82,1.6c.22.43.53,1.03.88,1.71.36.69.77,1.49,1.18,2.29.42.81.84,1.62,1.23,2.37M86.46,28.36l-.02-.09c-.32-1.52-.66-3.13-.99-4.67l-1.76-8.31h4.95s.42,1.45.42,1.45l-1.89.02.82,3.16,1.98-.06.51,1.75-2.02.09,1,3.83.46-.04c.17-.02.34-.03.51-.05.17-.02.34-.03.51-.05s.35-.03.54-.05h.08s.67,2.3.67,2.3h-.12c-.44.06-.87.11-1.31.16-.44.05-.89.11-1.34.17-.46.06-.92.12-1.4.19-.48.06-.98.14-1.5.21h-.09ZM83.94,15.49l1.71,8.07c.32,1.51.65,3.09.97,4.58.48-.07.95-.13,1.4-.19.48-.07.95-.13,1.4-.19.45-.06.9-.11,1.34-.17.4-.05.8-.09,1.19-.14l-.56-1.92c-.16.01-.31.03-.45.04-.17.01-.34.03-.51.05-.17.01-.34.03-.52.05l-.63.06-1.1-4.24,2.02-.09-.39-1.35-1.98.06-.93-3.57,1.88-.02-.3-1.05h-4.54ZM92.57,27.6l-3.68-12.31h1.47c.44,0,.82.01,1.18.03.44.03.83.07,1.21.13.42.07.82.16,1.18.28.4.13.78.29,1.12.48.28.16.54.34.76.53.23.2.42.41.58.63.16.23.29.46.36.7.08.25.11.49.09.73-.01.16-.06.31-.12.45-.06.14-.15.27-.25.39-.1.11-.21.23-.35.33-.08.06-.17.13-.27.19.13.07.26.13.38.2.17.1.33.2.49.31.16.11.31.22.46.35.14.12.29.25.44.39.31.3.63.69.97,1.15.29.4.6.87.92,1.4.26.44.54.92.84,1.47.26.48.5.93.71,1.33l.07.14h-.16c-.25.03-.49.04-.74.05-.25.01-.5.03-.75.04-.25.01-.5.03-.75.05-.25.02-.51.03-.76.05h-.07s-.03-.06-.03-.06c-.14-.34-.27-.62-.38-.88-.14-.31-.27-.59-.4-.85-.14-.3-.29-.57-.43-.83-.15-.28-.32-.55-.48-.8-.18-.27-.34-.51-.51-.73-.2-.26-.4-.49-.6-.7-.23-.23-.47-.44-.71-.6-.2-.14-.42-.26-.63-.36.13.37.26.75.39,1.13l1.66,4.85h-.13c-.24.03-.47.05-.72.07-.24.02-.49.04-.74.07-.25.02-.51.05-.76.08-.26.03-.52.05-.79.08h-.08ZM89.16,15.49l3.56,11.89c.24-.03.47-.05.71-.07.26-.03.51-.05.77-.08.25-.02.5-.05.74-.07.2-.02.39-.03.59-.05l-1.57-4.6c-.16-.46-.31-.91-.46-1.35l-.07-.21.2.08c.3.12.6.27.88.47.25.18.5.39.74.63.21.21.41.45.62.72.17.22.34.46.52.74.16.26.33.53.48.81.15.26.29.54.44.84.13.27.26.55.4.86.11.24.22.51.35.82.23-.02.46-.03.69-.05.25-.02.5-.03.75-.05.25-.02.5-.03.75-.04.19-.01.39-.02.58-.03-.19-.37-.4-.77-.64-1.2-.3-.55-.57-1.03-.84-1.46-.32-.52-.62-.99-.91-1.38-.33-.45-.64-.83-.94-1.12-.15-.14-.29-.27-.43-.38-.15-.12-.3-.24-.45-.34-.16-.11-.31-.21-.48-.3-.17-.1-.34-.19-.53-.27l-.17-.08.16-.1c.15-.09.28-.18.4-.28.13-.1.23-.2.32-.31.09-.11.17-.23.22-.34.06-.12.09-.25.1-.39.02-.21,0-.43-.08-.65-.07-.21-.18-.43-.34-.64-.15-.21-.34-.41-.55-.6-.22-.19-.46-.36-.73-.51-.33-.18-.69-.34-1.08-.47-.35-.11-.74-.2-1.15-.27-.37-.06-.76-.1-1.19-.13-.36-.02-.74-.03-1.17-.03h-1.2ZM79.79,26.38l-1.11-9.02.13.02c.07.01.23.04.43.11.3.1.59.25.85.45.36.27.68.63.93,1.06.31.53.53,1.19.65,1.96.1.64.15,1.19.16,1.67,0,.56-.04,1.04-.15,1.47-.12.48-.32.89-.59,1.24-.3.38-.68.7-1.17.97l-.13.07ZM78.92,17.61l1.04,8.45c.4-.24.72-.51.98-.84.26-.34.44-.72.56-1.17.1-.41.15-.88.14-1.42,0-.47-.06-1.01-.16-1.64-.12-.74-.33-1.38-.63-1.89-.23-.4-.53-.74-.87-.99-.25-.18-.51-.33-.8-.42-.1-.03-.19-.06-.26-.07M114.24,22.4c-.08-.11-1.46-1.9-2.32-3.02l1.48,2.9-.18.09-1.99-3.89.17-.11c.04.06,2.98,3.87,3,3.91l-.16.12ZM98.09,21.39l-.68-1.66,2.12-.07.68,1.64-2.11.09ZM97.7,19.91l.52,1.26,1.68-.07-.51-1.24-1.69.05ZM64.2,21.22l.44-4.2.11.03c.35.09.66.2.92.35.26.14.46.31.62.51.15.19.26.41.3.65.04.24.03.48-.04.74-.06.2-.15.4-.28.58-.12.18-.28.35-.47.51-.18.15-.4.3-.64.43-.24.13-.51.25-.8.36l-.15.06ZM64.81,17.27l-.38,3.64c.22-.09.43-.18.62-.28.23-.13.44-.26.61-.41.17-.15.32-.31.43-.47.11-.17.2-.34.25-.52.06-.23.08-.44.04-.65-.04-.2-.12-.39-.26-.56-.14-.17-.33-.33-.56-.46-.21-.12-.47-.22-.75-.3M93.05,19.83l-1.13-3.29.17.03c.26.05.5.12.72.2.23.09.44.19.63.31.2.13.37.28.51.45.15.18.26.38.34.59.08.22.11.43.09.61-.02.18-.09.34-.2.48-.1.13-.25.25-.43.35-.16.09-.36.17-.6.24l-.09.03ZM92.23,16.81l.95,2.77c.19-.06.34-.13.47-.2.16-.09.29-.19.37-.3.09-.11.14-.23.16-.38.02-.15-.01-.33-.08-.52-.07-.19-.17-.37-.31-.53-.13-.15-.28-.29-.46-.4-.17-.11-.37-.21-.59-.29-.16-.06-.33-.11-.51-.15" style="fill: #fff;"/>
    <path d="M110.46,15.38v.11h.01s0,.01.01.02v.02c1.64,1.91,2.94,3.46,4.12,4.9.71.87,1.45,1.79,2.21,2.74.97,1.22,2,2.51,3.12,3.95-.53-.05-1.06-.1-1.6-.15-.15-.01-.3-.02-.44-.04-.02,0-.05,0-.08,0-.04,0-.09,0-.11,0-.02-.01-.06-.08-.08-.11-.01-.02-.03-.04-.04-.06-.17-.25-.35-.5-.52-.76-.35-.5-.7-1.01-1.05-1.51l-.13-.19s-.01-.02-.02-.04c-.05-.08-.08-.14-.14-.16-.03-.01-.06-.02-.09-.02-.01,0-.03,0-.04,0h-.38s-.06-.01-.06-.01h-.23c-.2-.01-.39-.02-.59-.03h-.19s.09.16.09.16c.49.89.98,1.79,1.41,2.57-.44-.03-.88-.05-1.33-.07-.26-.01-.51-.02-.77-.03h-.2s0,0,0,0c0,0,0,0,0-.02h0s-.17-.38-.17-.38c-.42-.91-.81-1.76-1.19-2.59-.83-1.84-1.59-3.56-2.3-5.25-.37-.88-.76-1.81-1.21-2.93h1.38s.39,0,.39,0h.24v-.11M114.55,22.45l-.14-.18s-2.96-3.85-3.01-3.91l-.8-1.08.61,1.2,2,3.89.03.06h.07s1.01.02,1.01.02h.23M115.52,15.49h1.35s9.63,12.59,9.63,12.59c-.63-.13-1.3-.25-1.98-.36-1.68-1.94-3.46-3.87-5.3-5.72-.28-.29-.66-.67-1.05-1.05l-.89-.86.72,1.01,4.52,6.32c-.6-.08-1.2-.14-1.79-.21l-.24-.03-8.02-11.68h1.49c1.28,1.28,2.59,2.58,3.85,3.85l.3.3.79.79,1.04,1.04-.87-1.19-3.53-4.8M90.36,15.49c.43,0,.82.01,1.17.03.43.03.82.07,1.19.13.41.07.8.16,1.15.27.39.12.75.28,1.08.47.27.15.51.32.73.51.22.19.4.39.55.59.15.21.26.43.33.64.07.22.1.44.08.65-.04.37-.25.72-.65,1.03-.12.09-.25.18-.4.28l-.18.11.19.09c.67.31,1.31.75,1.89,1.3.28.28.56.61.87,1.02.95,1.28,1.72,2.72,2.45,4.12-.9.04-1.82.1-2.76.16-.13-.31-.24-.57-.35-.81-.14-.31-.27-.6-.4-.86-.15-.3-.29-.57-.44-.84-.16-.28-.32-.55-.48-.81-.55-.85-1.44-2.05-2.76-2.56l-.22-.08.08.22c.16.46.31.91.47,1.37.34,1,.68,2,1.03,3l.54,1.57c-.91.08-1.84.17-2.78.27l-.77-2.56-1.39-4.67-1.39-4.65h.19s.16,0,.16,0h.83M93.05,19.84l.1-.03c.24-.07.44-.16.61-.25.19-.1.33-.22.44-.35.12-.14.18-.31.2-.49.02-.18-.01-.39-.1-.61-.29-.78-1.07-1.33-2.2-1.55l-.19-.04.06.18,1.04,3.03.03.1M88.48,15.49l.3,1.03h-.8s-.94.02-.94.02h-.14s.04.14.04.14c.29,1.1.58,2.21.86,3.31l.02.05.02.09h.09s1.89-.06,1.89-.06l.39,1.33-1.88.08h-.14s.03.14.03.14l.72,2.77.02.09.31,1.18.02.09h.09c.69-.08,1.36-.14,2.02-.2l.55,1.9c-1.61.18-3.31.4-5.33.68-.22-1.02-.43-2.03-.65-3.05-.38-1.81-.77-3.63-1.15-5.44-.29-1.38-.58-2.76-.88-4.13h4.53M106.32,15.5l6.56,11.14c-.76-.03-1.54-.05-2.33-.06-.29-.55-.57-1.1-.86-1.66-.91-1.75-1.83-3.53-2.81-5.45l-.48-.92.27,1c.09.33.19.69.31,1.12.52,1.88,1.09,3.9,1.74,5.89-.24,0-.47,0-.7,0h-.34c-.37-.52-.78-1.06-1.26-1.71-.73-.97-1.49-1.98-2.34-3.08-.34-.44-1.76-2.23-1.77-2.24l-.75-.95.57,1.07c.03.05,2.65,4.99,3.67,6.93-.83.01-1.68.03-2.52.06l-5.01-11.14h2.7c.3.37.59.75.89,1.12,1.2,1.53,2.25,2.87,3.19,4.12l.34.45-.15-.55-1.39-5.15h2.49M57.88,15.5h0c.81,0,1.62.05,2.4.15l-.24,1.32c-.46-.08-.92-.13-1.36-.13h-.06c-1.65.02-2.66.47-3,1.34-.05.13-.07.24-.07.3-.07.29-.08.59-.03.92.05.28.14.58.28.91.14.33.31.64.45.88.07.13.15.25.22.38.09.16.18.31.26.46.44.77.76,1.5,1.01,2.21.29.85.45,1.68.48,2.49.03.94-.11,1.86-.43,2.75-.37,1.03-.98,2.05-1.83,3.03-.39.44-.82.88-1.29,1.28-.5.44-1.03.85-1.59,1.23-.6.41-1.22.77-1.86,1.08-.68.34-1.39.61-2.09.83-.19.06-.38.11-.57.16-.2.05-.39.1-.59.14-.2.04-.4.08-.6.11-.2.03-.4.06-.59.09-.36.04-.68.06-.99.06-.1,0-.21,0-.31,0,.53-1.7,1.07-3.4,1.6-5.1.09.01.19.02.28.03.13.01.26.02.39.03.08,0,.15,0,.23,0,.06,0,.11,0,.17,0,.14,0,.27-.01.41-.02.07,0,.14-.01.2-.02.07,0,.14-.02.2-.03.07-.01.14-.02.21-.03.07-.01.14-.03.21-.04.67-.15,1.28-.38,1.81-.68.48-.27.89-.61,1.24-.99.31-.35.56-.74.75-1.15.17-.38.28-.77.34-1.17.06-.41.07-.83.03-1.26-.04-.38-.11-.76-.23-1.17-.1-.34-.23-.7-.39-1.1-.15-.35-.31-.7-.45-1.03-.05-.1-.1-.21-.15-.31-.14-.31-.29-.63-.43-.95-.21-.49-.36-.89-.47-1.26-.13-.45-.2-.86-.22-1.26-.01-.44.04-.84.16-1.24.16-.5.42-.95.76-1.34,1.11-1.24,2.98-1.84,5.72-1.85M76.22,15.5c1.65,0,3.77.14,5.5,1.16.42.26.8.56,1.13.9.31.32.58.67.8,1.06.21.36.39.76.53,1.18.13.39.24.81.31,1.24.34,2.04-.03,3.99-1.02,5.48-.47.68-1.17,1.26-2.12,1.8-.88.49-1.8.85-2.72,1.04-.64.14-1.32.28-2.2.45l-.99-14.32h.78M79.79,26.4l.14-.08c.4-.22.74-.48,1.01-.77,1.1-1.2,1.01-2.92.75-4.59-.15-.96-.46-1.75-.91-2.35-.51-.67-1.24-1.13-1.96-1.23l-.14-.02.02.14,1.08,8.74.02.16M74.35,15.5l.83,14.54c-.11.02-.23.05-.34.08-.13.03-.27.06-.4.09-.39.08-.78.16-1.17.24-.78.16-1.54.32-2.31.48l.06-15.42h3.33M62.33,15.51h.14c.7,0,1.3.02,1.85.05.65.04,1.23.1,1.76.18.59.09,1.13.22,1.6.38.52.17.99.38,1.39.64.57.37.95.79,1.13,1.26.17.44.16.91-.02,1.4-.18.49-.51.98-.99,1.46-.49.48-1.12.94-1.82,1.31-1.02.53-2.12.83-3.34,1.14l-.07.02v.08s-.99,9.38-.99,9.38c-1.61.41-3.26.84-4.91,1.3l3.13-18.59h.22s.31,0,.31,0h.3s.31,0,.31,0M64.19,21.23l.17-.06c.29-.11.56-.23.8-.36.24-.13.46-.28.65-.43.19-.16.35-.33.47-.51.13-.18.22-.38.28-.58.16-.57.02-1.13-.39-1.54-.33-.33-.79-.56-1.41-.72l-.12-.03v.13c-.09.79-.18,1.59-.26,2.38l-.16,1.54-.02.17M99.39,19.87l.51,1.23-1.66.07-.51-1.25,1.67-.05M115.3,15.38l3.66,4.97c-.26-.26-.53-.53-.79-.79-1.39-1.39-2.78-2.79-4.18-4.18h-1.74s8.17,11.89,8.17,11.89c.78.09,1.56.17,2.33.28l-4.67-6.52c.35.34.7.7,1.05,1.05,1.83,1.86,3.61,3.77,5.32,5.75.77.13,1.54.27,2.3.42l-9.84-12.87h-1.62ZM90.36,15.38c-.12,0-.26,0-.41,0h-.77c-.09,0-.15,0-.16,0,.48,1.6.95,3.19,1.43,4.79.47,1.56.93,3.11,1.4,4.67l.79,2.65c1-.11,2.01-.21,3.01-.29-.54-1.57-1.07-3.13-1.61-4.7-.16-.46-.31-.91-.47-1.37,1.19.46,2.03,1.47,2.71,2.52.17.26.33.53.48.8.15.27.3.55.44.83.14.28.27.57.4.86.13.29.26.59.38.88,1-.07,2-.13,3.01-.18-.77-1.47-1.55-2.96-2.54-4.29-.27-.36-.56-.72-.88-1.03-.57-.54-1.21-.99-1.92-1.32.15-.09.29-.18.41-.28.35-.28.65-.65.69-1.11.02-.23,0-.46-.08-.69s-.19-.45-.35-.67c-.16-.22-.35-.42-.57-.61-.22-.19-.47-.37-.75-.52-.35-.2-.72-.35-1.1-.47-.38-.12-.77-.21-1.17-.28-.4-.06-.8-.1-1.2-.13-.4-.02-.8-.03-1.18-.03M93.12,19.7l-1.04-3.03c.87.17,1.79.59,2.12,1.48.08.21.11.4.09.57s-.08.31-.18.43c-.1.12-.24.23-.4.32-.17.09-.36.17-.58.24M110.46,15.38h-.25c-.26,0-.52,0-.78,0h-1.15c.42,1.03.84,2.06,1.27,3.08.74,1.76,1.51,3.51,2.3,5.25.39.86.79,1.73,1.19,2.59l.17.36c.03.07.04.09.12.09.07,0,.13,0,.2,0,.26,0,.51.02.77.03.51.02,1.02.05,1.53.08-.51-.91-1.01-1.82-1.51-2.74.27,0,.55.02.82.03.14,0,.28.01.42.01h0s.04,0,.06,0c.02,0,.03,0,.04,0,.04.02.09.13.12.16l.13.18c.35.5.7,1,1.05,1.51.18.25.35.51.52.76.04.06.1.18.17.21.06.02.16.01.22.02.15.01.3.02.44.04.62.05,1.24.11,1.85.18-1.24-1.59-2.32-2.95-3.28-4.16-.73-.92-1.47-1.83-2.21-2.74-1.35-1.65-2.72-3.28-4.1-4.9-.06-.07-.05-.07-.13-.07M114.32,22.34l-1.01-.02-2-3.89s3.01,3.91,3.01,3.91M88.56,15.38h-4.75c.3,1.42.6,2.85.9,4.27.38,1.81.77,3.63,1.15,5.44.22,1.05.45,2.1.67,3.15,1.85-.26,3.7-.51,5.56-.71l-.62-2.12c-.7.06-1.41.13-2.11.2-.1-.38-.21-.82-.33-1.27-.24-.92-.48-1.84-.72-2.76.67-.03,1.35-.06,2.02-.08l-.45-1.55-1.98.06c-.29-1.12-.58-2.24-.88-3.37.63,0,1.26-.01,1.89-.02l-.36-1.25ZM106.38,15.39h-2.7s1.43,5.29,1.43,5.29c-1.05-1.38-2.12-2.75-3.19-4.12-.31-.39-.61-.78-.92-1.17h-2.92s5.11,11.36,5.11,11.36c.93-.03,1.85-.05,2.78-.07-.96-1.84-3.75-7.1-3.75-7.1,0,0,1.42,1.79,1.77,2.24.79,1.02,1.57,2.05,2.34,3.08.44.58.87,1.17,1.29,1.76h.4c.29,0,.57,0,.86,0-.65-1.99-1.23-4.01-1.79-6.03-.1-.37-.21-.75-.31-1.12.94,1.82,1.87,3.64,2.81,5.45.3.57.59,1.14.89,1.71.86.01,1.73.04,2.59.07l-6.69-11.37ZM57.88,15.39c-2,0-4.39.3-5.8,1.89-.36.4-.62.87-.78,1.38-.13.43-.18.85-.17,1.28.02.43.1.86.22,1.28.12.43.29.86.47,1.28.18.43.38.85.58,1.27.15.33.31.67.45,1.02.14.35.28.71.38,1.09.11.38.19.76.23,1.16.04.4.04.81-.03,1.23-.06.37-.16.76-.33,1.14-.17.39-.41.77-.73,1.12-.32.36-.72.69-1.21.97-.5.28-1.09.52-1.78.67-.07.01-.14.03-.21.04-.07.01-.14.02-.2.03-.07.01-.14.02-.2.03s-.13.01-.2.02c-.14.01-.27.02-.4.02-.06,0-.11,0-.17,0-.07,0-.15,0-.22,0-.13,0-.26-.01-.38-.03-.13-.01-.25-.03-.37-.05-.56,1.77-1.12,3.55-1.67,5.32.15.01.3.01.45.01.34,0,.67-.02,1-.06.2-.02.4-.05.6-.09.2-.03.4-.07.6-.11.2-.04.4-.09.59-.14.19-.05.39-.1.57-.16.73-.22,1.44-.51,2.11-.83.66-.32,1.29-.69,1.87-1.09.58-.39,1.11-.81,1.6-1.24.48-.42.91-.86,1.3-1.29.9-1.05,1.5-2.07,1.85-3.06.35-.96.47-1.9.44-2.79-.03-.88-.21-1.72-.48-2.52-.27-.79-.62-1.53-1.01-2.23-.15-.27-.32-.55-.48-.84-.16-.28-.32-.57-.44-.87-.13-.29-.22-.58-.27-.88-.05-.29-.05-.59.03-.88,0-.02,0-.13.07-.27.41-1.09,1.9-1.26,2.89-1.27h.06c.48,0,.98.05,1.45.15l.28-1.55c-.84-.11-1.69-.16-2.53-.16M76.22,15.39h-.9s1.01,14.56,1.01,14.56c.77-.15,1.55-.31,2.32-.48.96-.21,1.89-.58,2.75-1.06.82-.46,1.61-1.05,2.16-1.83,1.09-1.64,1.36-3.65,1.04-5.56-.07-.42-.17-.85-.31-1.26-.14-.41-.32-.81-.54-1.2-.22-.38-.49-.74-.82-1.08-.33-.33-.7-.64-1.15-.92-1.66-.98-3.68-1.17-5.56-1.18M79.88,26.22l-1.08-8.74c.75.1,1.44.59,1.89,1.19.5.66.76,1.49.89,2.3.24,1.5.39,3.29-.72,4.5-.28.31-.62.55-.98.75M74.46,15.39h-3.55s-.06,15.67-.06,15.67c.82-.17,1.63-.34,2.45-.51.39-.08.78-.16,1.17-.24.28-.06.55-.13.83-.19l-.84-14.74ZM62.33,15.4c-.1,0-.21,0-.31,0s-.2,0-.3,0-.2,0-.31,0c-.1,0-.2,0-.31,0l-3.17,18.85c1.71-.47,3.43-.93,5.15-1.37l.98-9.45c1.15-.29,2.31-.6,3.36-1.15.72-.38,1.35-.84,1.85-1.33.48-.48.84-.99,1.02-1.5.18-.5.2-1.01.01-1.48-.18-.47-.56-.92-1.17-1.31-.43-.27-.91-.48-1.42-.65-.51-.17-1.05-.29-1.62-.38-.57-.09-1.16-.15-1.77-.18-.61-.04-1.24-.05-1.86-.05h-.14ZM64.32,21.07c.14-1.31.27-2.62.41-3.92.49.12,1,.32,1.36.68.38.38.51.91.36,1.43-.05.19-.14.38-.26.55-.12.17-.27.34-.45.49-.18.15-.39.29-.63.42-.24.13-.5.25-.78.35M99.46,19.76l-1.9.06.6,1.46,1.9-.08-.59-1.44Z" style="fill: #ed1c24;"/>
    <rect x="77.25" y="7.05" width="17.25" height="6.94" style="fill: #ed1c24;"/>
    <path d="M91.85,8.66v-1.06h-2.96l-.49,3.55-.48-3.55h-1.07l.12.95c-.12-.24-.56-.95-1.52-.95h-1.07v5.18s-.78-5.18-.78-5.18h-1.4s-.8,5.36-.8,5.36v-5.36h-1.34l-.48,3.01-.47-3.01h-1.34v5.83h1.05v-2.81l.48,2.81h.56l.47-2.81v2.81h2.03l.12-.9h.82l.12.9h1.99s0,0,0,0h0s0,0,0,0h0v-1.89l.24-.04.51,1.93h1.03,0s0,0,0,0h0l-.66-2.26c.34-.25.72-.88.61-1.49,0,0,.63,3.75.63,3.75h1.23s.84-5.29.84-5.29v5.28h1.99v-1.05h-.94v-1.34h.94v-1.06h-.94v-1.32h.94ZM82.62,11.61l.29-2.49.3,2.49h-.59ZM85.68,10.46c-.08.04-.16.06-.25.06v-1.88s0,0,0,0c.08,0,.7.02.7.93,0,.47-.21.77-.45.89M93.97,12.38v1.05h-1.94v-5.83h1.04v4.78h.9Z" style="fill: #fff;"/>
    <line x1="36.89" y1="101.79" x2="133.42" y2="101.79" style="fill: none; stroke: #00aeef; stroke-dasharray: 1.5 2; stroke-width: .5px;"/>
    <line x1="36.94" y1="94.6" x2="36.94" y2="110.52" style="fill: none; stroke: #00aeef; stroke-width: .5px;"/>
    <line x1="133.99" y1="94.21" x2="133.99" y2="109.74" style="fill: none; stroke: #00aeef; stroke-width: .5px;"/>
    <g>
      <path d="M74.12,110.11c-.05,1.28.74,2.07,2.01,2.07,1.02,0,1.98-.6,1.98-1.7,0-1.32-1.18-1.67-2.32-1.59v-.33c1.01.04,2.16-.25,2.16-1.45,0-.97-.98-1.41-1.82-1.41-1.21,0-1.79.83-1.84,1.97h-.38c0-1.36.85-2.3,2.22-2.3,1.11,0,2.2.51,2.2,1.74,0,.82-.54,1.47-1.35,1.58v.02c.94.11,1.51.84,1.51,1.77,0,1.36-1.08,2.03-2.36,2.03-1.52,0-2.46-.86-2.39-2.4h.38Z" style="fill: #00aeef;"/>
      <path d="M82.97,105.49v4.81h1.16v.33h-1.16v1.76h-.38v-1.76h-3.36v-.38l3.36-4.76h.38ZM82.59,106.01h-.02l-2.96,4.29h2.98v-4.29Z" style="fill: #00aeef;"/>
      <path d="M87.85,107.25h.38v1.05h.02c.16-.65.84-1.17,1.61-1.17.98,0,1.44.56,1.55,1.09h.02c.3-.7.8-1.09,1.63-1.09.93,0,1.61.54,1.61,1.75v3.51h-.38v-3.52c0-1.31-.93-1.41-1.23-1.41-.93,0-1.61.66-1.61,1.89v3.04h-.38v-3.52c0-1.29-.88-1.41-1.21-1.41-.73,0-1.63.57-1.63,1.89v3.04h-.38v-5.14Z" style="fill: #00aeef;"/>
      <path d="M95.81,107.25h.38v1.05h.02c.16-.65.84-1.17,1.61-1.17.98,0,1.44.56,1.55,1.09h.02c.3-.7.8-1.09,1.63-1.09.93,0,1.61.54,1.61,1.75v3.51h-.38v-3.52c0-1.31-.93-1.41-1.23-1.41-.93,0-1.61.66-1.61,1.89v3.04h-.38v-3.52c0-1.29-.88-1.41-1.21-1.41-.73,0-1.63.57-1.63,1.89v3.04h-.38v-5.14Z" style="fill: #00aeef;"/>
    </g>
  </g>
</svg>