<?xml version="1.0" encoding="UTF-8"?>
<svg id="Layer_1" data-name="Layer 1" data-size="30mm x 30mm" xmlns="http://www.w3.org/2000/svg" viewBox="0 0 113.07 148.87">
  
    <text id="quantity" style="font-family: Arial-BoldMT, Arial; font-size: 15px; font-weight: 700; isolation: isolate;"
    y="96%" x="62%" text-anchor="middle"></text>
  <g>
    <line x1="15.64" y1="5.93" x2="7.06" y2="5.93" style="fill: none; stroke: #00aeef; stroke-width: .46px;"/>
    <line x1="15.64" y1="90.26" x2="7.06" y2="90.26" style="fill: none; stroke: #00aeef; stroke-width: .46px;"/>
    <line x1="11.54" y1="6.19" x2="11.54" y2="90.2" style="fill: none; stroke: #00aeef; stroke-dasharray: 2.19 2.19; stroke-width: .5px;"/>
    <line x1="27.97" y1="110.28" x2="27.97" y2="101.7" style="fill: none; stroke: #00aeef; stroke-width: .46px;"/>
    <line x1="112.74" y1="110.28" x2="112.74" y2="101.7" style="fill: none; stroke: #00aeef; stroke-width: .46px;"/>
    <g>
      <path d="M55.71,114.02c.25.16.83.41,1.44.41,1.13,0,1.48-.72,1.47-1.26,0-.91-.83-1.3-1.68-1.3h-.49v-.66h.49c.64,0,1.45-.33,1.45-1.1,0-.52-.33-.98-1.14-.98-.52,0-1.02.23-1.3.43l-.23-.64c.34-.25,1-.5,1.7-.5,1.28,0,1.86.76,1.86,1.55,0,.67-.4,1.24-1.2,1.53v.02c.8.16,1.45.76,1.45,1.67,0,1.04-.81,1.95-2.37,1.95-.73,0-1.37-.23-1.69-.44l.24-.68Z" style="fill: #00aeef;"/>
      <path d="M64.94,111.72c0,2.21-.82,3.43-2.26,3.43-1.27,0-2.13-1.19-2.15-3.34,0-2.18.94-3.38,2.26-3.38s2.15,1.22,2.15,3.29ZM61.42,111.82c0,1.69.52,2.65,1.32,2.65.9,0,1.33-1.05,1.33-2.71s-.41-2.65-1.32-2.65c-.77,0-1.33.94-1.33,2.71Z" style="fill: #00aeef;"/>
      <path d="M68.16,111.51c0-.5,0-.91-.04-1.31h.77l.04.78h.03c.27-.46.72-.89,1.52-.89.66,0,1.16.4,1.37.97h.02c.15-.27.34-.48.54-.63.29-.22.61-.34,1.07-.34.64,0,1.59.42,1.59,2.1v2.85h-.86v-2.74c0-.93-.34-1.49-1.05-1.49-.5,0-.89.37-1.04.8-.04.12-.07.28-.07.44v2.99h-.86v-2.9c0-.77-.34-1.33-1.01-1.33-.55,0-.95.44-1.09.88-.05.13-.07.28-.07.43v2.92h-.86v-3.53Z" style="fill: #00aeef;"/>
      <path d="M76.5,111.51c0-.5,0-.91-.04-1.31h.77l.04.78h.03c.27-.46.72-.89,1.52-.89.66,0,1.16.4,1.37.97h.02c.15-.27.34-.48.54-.63.29-.22.61-.34,1.07-.34.64,0,1.59.42,1.59,2.1v2.85h-.86v-2.74c0-.93-.34-1.49-1.05-1.49-.5,0-.89.37-1.04.8-.04.12-.07.28-.07.44v2.99h-.86v-2.9c0-.77-.34-1.33-1.01-1.33-.55,0-.95.44-1.09.88-.05.13-.07.28-.07.43v2.92h-.86v-3.53Z" style="fill: #00aeef;"/>
    </g>
    <g>
      <path d="M.82,39.55v.02l.61,1.13-.67.17-.76-1.42v-.75h6.5v.85H.82Z" style="fill: #00aeef;"/>
      <path d="M.74,32.45v2.48l1.67.25c-.02-.15-.04-.29-.04-.53,0-.5.11-1,.35-1.4.29-.51.85-.93,1.67-.93,1.27,0,2.22,1.01,2.22,2.42,0,.71-.2,1.31-.4,1.62l-.67-.22c.16-.27.36-.8.36-1.39,0-.83-.54-1.54-1.41-1.54-.84,0-1.44.57-1.44,1.87,0,.37.04.66.07.9l-3.12-.42v-3.11h.74Z" style="fill: #00aeef;"/>
      <path d="M2.97,28.8c-.5,0-.91,0-1.31.04v-.77l.78-.04v-.03c-.46-.27-.89-.72-.89-1.52,0-.66.4-1.16.97-1.37v-.02c-.27-.15-.48-.34-.63-.54-.22-.29-.34-.61-.34-1.07,0-.64.42-1.59,2.1-1.59h2.85v.86h-2.74c-.93,0-1.49.34-1.49,1.05,0,.5.37.89.8,1.04.12.04.28.07.44.07h2.99v.86h-2.9c-.77,0-1.33.34-1.33,1.01,0,.55.44.95.88,1.09.13.05.28.07.43.07h2.92v.86h-3.53Z" style="fill: #00aeef;"/>
      <path d="M2.97,20.46c-.5,0-.91,0-1.31.04v-.77l.78-.04v-.03c-.46-.27-.89-.72-.89-1.52,0-.66.4-1.16.97-1.37v-.02c-.27-.15-.48-.34-.63-.54-.22-.29-.34-.61-.34-1.07,0-.64.42-1.59,2.1-1.59h2.85v.86h-2.74c-.93,0-1.49.34-1.49,1.05,0,.5.37.89.8,1.04.12.04.28.07.44.07h2.99v.86h-2.9c-.77,0-1.33.34-1.33,1.01,0,.55.44.95.88,1.09.13.05.28.07.43.07h2.92v.86h-3.53Z" style="fill: #00aeef;"/>
    </g>
    <g>
      <path d="M.82,80.05v.02l.61,1.13-.67.17-.76-1.42v-.75h6.5v.85H.82Z" style="fill: #00aeef;"/>
      <path d="M.74,72.95v2.48l1.67.25c-.02-.15-.04-.29-.04-.53,0-.5.11-1,.35-1.4.29-.51.85-.93,1.67-.93,1.27,0,2.22,1.01,2.22,2.42,0,.71-.2,1.31-.4,1.62l-.67-.22c.16-.27.36-.8.36-1.39,0-.83-.54-1.54-1.41-1.54-.84,0-1.44.57-1.44,1.87,0,.37.04.66.07.9l-3.12-.42v-3.11h.74Z" style="fill: #00aeef;"/>
      <path d="M2.97,69.3c-.5,0-.91,0-1.31.04v-.77l.78-.04v-.03c-.46-.27-.89-.72-.89-1.52,0-.66.4-1.16.97-1.37v-.02c-.27-.15-.48-.34-.63-.54-.22-.29-.34-.61-.34-1.07,0-.64.42-1.59,2.1-1.59h2.85v.86h-2.74c-.93,0-1.49.34-1.49,1.05,0,.5.37.89.8,1.04.12.04.28.07.44.07h2.99v.86h-2.9c-.77,0-1.33.34-1.33,1.01,0,.55.44.95.88,1.09.13.05.28.07.43.07h2.92v.86h-3.53Z" style="fill: #00aeef;"/>
      <path d="M2.97,60.96c-.5,0-.91,0-1.31.04v-.77l.78-.04v-.03c-.46-.27-.89-.72-.89-1.52,0-.66.4-1.16.97-1.37v-.02c-.27-.15-.48-.34-.63-.54-.22-.29-.34-.61-.34-1.07,0-.64.42-1.59,2.1-1.59h2.85v.86h-2.74c-.93,0-1.49.34-1.49,1.05,0,.5.37.89.8,1.04.12.04.28.07.44.07h2.99v.86h-2.9c-.77,0-1.33.34-1.33,1.01,0,.55.44.95.88,1.09.13.05.28.07.43.07h2.92v.86h-3.53Z" style="fill: #00aeef;"/>
    </g>
    <line x1="113.07" y1="105.3" x2="28.03" y2="105.3" style="fill: none; stroke: #00aeef; stroke-dasharray: 2.19 2.19; stroke-width: .5px;"/>
    <rect x="27.64" y=".12" width="84.79" height="96.13" style="fill: #fff;"/>
    <rect x="27.64" y=".12" width="84.79" height="96.13" style="fill: none; stroke: #d52f89; stroke-miterlimit: 10; stroke-width: .25px;"/>
    <line x1="27.64" y1="5.92" x2="112.43" y2="5.92" style="fill: none; stroke: #97bf0d; stroke-dasharray: 1.76 1.76; stroke-width: .55px;"/>
    <line x1="27.64" y1="90.46" x2="112.43" y2="90.46" style="fill: none; stroke: #97bf0d; stroke-dasharray: 1.76 1.76; stroke-width: .55px;"/>
    <line x1="112.43" y1="48.19" x2="27.64" y2="48.19" style="fill: none; stroke: #ee701e; stroke-dasharray: 2.17 2.17; stroke-width: .25px;"/>
    <g>
      <g>
        <path d="M64.92,19.21c.02-.36-.11-.7-.35-.96-.26-.28-.61-.43-.99-.43-.34,0-.66.13-.91.35-.2.18-.34.42-.4.68.05.07.1.15.16.21.35.39.84.6,1.36.6.4,0,.79-.14,1.11-.38,0-.02,0-.04,0-.07Z" style="fill: none;"/>
        <path d="M43.72,21.62s-.02-.04-.03-.06v.06s.03,0,.03,0Z" style="fill: none;"/>
        <path d="M51.52,17.24c-.06,0-.11,0-.17.01-.73.09-1.25.76-1.16,1.5.04.28.16.53.34.72.08,0,.16,0,.24,0,.96-.12,1.65-.96,1.61-1.91-.23-.2-.53-.31-.86-.31Z" style="fill: none;"/>
        <path d="M106.58,15.08l.67-.64-6.66-1.58-2.63,2.57-.71-2.14-.24-.05-.44-1.33-3.78-.92v-.57s-2.52-.04-2.52-.04l-.06-.02h0s-8.17-.12-8.17-.12l-.02.93-3.62-.58-.45,2.83-.48-1.32-1.36-.23-.64-1.75-5.7-.91-.47,2.92c-1.47-1.41-3.44-2.23-5.49-2.23s-3.88.74-5.34,2.08c-.43.39-.8.83-1.13,1.3-.16-.16-.34-.31-.51-.45-1.45-1.89-3.73-3.1-6.26-3.1-.33,0-.67.02-1,.06-3.8.48-6.64,3.6-6.89,7.29l-.65-2.8-1.28.3-.39-1.7-6.37,1.47,3.42,14.85,1.52-.35.34,1.47,1.79-.41.65,4.31,1.61-.25.24,1.57,1.09-.17,1.2,7.93,1.64-.26.21,1.32,6.22-.97-.59-3.78c.39.38.84.7,1.35.96,1.13,1.38,2.93,2.13,5.3,2.13h.05c1.56,0,2.88-.33,3.92-.95v.02s1.77-.13,1.77-.13l.1,1.29,5.65-.43-.28-3.69,1.58,2.3.97-.07.84,1.23,2.96-.23-.05.79,8.75.57.22.16c.95.71,1.59.88,2.55,1.13l.26.07c.52.14,1.04.21,1.55.21,2.71,0,4.85-1.97,5.33-4.9.21-1.3.08-2.39-.4-3.41-.46-1.02-1.21-1.89-1.96-2.67-.05-.06-.11-.13-.17-.2-.16-.18-.33-.38-.45-.56-.13-.21-.19-.42-.18-.61.02-.37.3-.43.47-.43.04,0,.08,0,.12,0,.85.13,1.81,1.32,2.12,1.71l.98,1.21.77-6.03,1.49.35,1.49-6.29,8.09-7.59-1.9-.45ZM77.44,27.09l9.16.59-.24,3.64-4.18-.27-.09,1.48,3.82.25-.22,3.37-3.82-.25-.1,1.51,4.32.28-.23,3.64-8.89-.57,1.51-.12-.03-.34-.05-.59-.97-12.62ZM97.44,17.03l3.39-3.31,4.84,1.15-6.68,6.41-1.36,5.73-4.73-1.12,1.36-5.73-1.64-4.52h.09s.06-3.82.06-3.82l3.18.76,1.49,4.47ZM82.8,11.04l9.19.15-.06,3.65-4.19-.07-.02,1.48,3.83.06-.06,3.38-3.82-.06-.02,1.52,4.33.07-.06,3.65-9.33-.15.06-3.75,1.51-9.44-1.36-.22v-.26ZM74.87,10.83l2.98,8.15,1.18-7.48,4.21.68-2.16,13.49-4.45-.71-2.96-7.74-1.15,7.09-2.44-.39c.11-.17.22-.34.31-.52.1-.18.19-.36.28-.55.37-.84.59-1.74.65-2.64.77-2.45.32-5.2-1.37-7.31l.44-2.76,4.47.72ZM58.98,12.57c2.9-2.66,7.4-2.47,10.06.43,2.66,2.9,2.47,7.4-.43,10.06-2.9,2.66-7.4,2.47-10.06-.43-.39-.43-.71-.89-.98-1.38.73-1.41,1.02-3,.81-4.6-.11-.87-.36-1.69-.73-2.44.35-.6.79-1.15,1.33-1.64ZM49.65,10.57c3.9-.49,7.46,2.27,7.96,6.17.49,3.9-2.27,7.46-6.17,7.95-1.53.19-3.01-.12-4.27-.81l-.67-2.91-1.96.45c-.54-.86-.91-1.84-1.05-2.91-.49-3.9,2.27-7.46,6.17-7.95ZM43.72,21.62h-.02s-.01-.06-.01-.06c.01.02.02.04.03.06ZM37.98,28.25l-3.07-13.32,4.84-1.11,2.09,9.04,4.06-.93.99,4.27-8.9,2.05ZM42.24,33.49l-.66-4.26,10.31-1.6.66,4.26-2.7.42,1.43,9.24-4.91.76-1.43-9.24-2.71.42ZM52.34,34.79v-2.28s.96-.16.96-.16l-.85-5.64,4.57-.02.04,7.61c0,1.07.04,2.01,1.3,2.01,1.26,0,1.29-.95,1.28-2.02l-.04-7.61,4.72-.02.04,8.08c.02,3.99-2.35,5.81-5.98,5.83-3.63.02-6.02-1.78-6.04-5.77ZM73.14,40.26l-4.69-6.84.54,7.16-4.34.33-.21-2.77c.47-.95.71-2.09.7-3.41l-.04-7.56,3.02-.23,4.8,7.23-.6-7.55,4.25-.33,1.05,13.63-4.5.35ZM94.41,35.79c.38.76.51,1.6.33,2.72-.45,2.75-2.8,4.54-5.67,3.97-.84-.17-1.67-.48-2.43-.9l.26-4.11c.48.74,1.33,1.13,2.27,1.32.57.11,1.27-.09,1.38-.74.06-.35-.02-.63-.19-.89-.15-.25-.36-.48-.59-.71-.71-.77-1.32-1.48-1.73-2.29-.39-.79-.58-1.68-.41-2.75.29-1.72,1.94-4.63,5.45-3.93.99.2,2.01.71,2.81,1.33l-.6,3.64c-.36-.84-1.34-1.37-2.26-1.51-.65-.1-1.24.28-1.27.97-.01.32.09.62.27.9.18.28.45.53.65.76.77.76,1.37,1.45,1.73,2.21Z" style="fill: #000104;"/>
        <path d="M62.02,15.87c-1.07.98-1.14,2.65-.16,3.72.98,1.07,2.65,1.14,3.72.16,1.07-.98,1.14-2.65.16-3.72-.98-1.07-2.65-1.14-3.72-.16ZM62.44,19.06c-.06-.07-.11-.14-.16-.21.06-.26.2-.49.4-.68.25-.23.57-.35.91-.35.38,0,.73.15.99.43.24.26.37.61.35.96,0,.02,0,.05,0,.07-.32.24-.7.38-1.11.38-.52,0-1.01-.21-1.36-.6Z" style="fill: #000104;"/>
        <path d="M47.93,17.96c.18,1.44,1.5,2.47,2.94,2.29,1.44-.18,2.47-1.5,2.29-2.94-.18-1.44-1.5-2.47-2.94-2.29-1.44.18-2.47,1.5-2.28,2.94ZM50.77,19.47c-.08.01-.16,0-.24,0-.18-.2-.3-.44-.34-.72-.09-.73.43-1.4,1.16-1.5.06,0,.11-.01.17-.01.32,0,.62.12.86.31.04.95-.65,1.79-1.61,1.91Z" style="fill: #000104;"/>
        <g>
          <path d="M92.76,11.81l-.06,3.83h-.09s1.64,4.52,1.64,4.52l-1.36,5.73,4.73,1.12,1.36-5.73,6.68-6.41-4.84-1.15-3.39,3.31-1.49-4.47-3.18-.76ZM104.17,15.49l-5.7,5.48-1.2,5.06-.57-.14,1.24-5.23,5.83-5.6.41.42ZM96.95,17.69l-.56.18-1.44-4.43.56-.18,1.44,4.43Z" style="fill: #fff;"/>
          <path d="M82.64,20.96l-.06,3.75,9.33.15.06-3.65-4.33-.07.02-1.52,3.82.06.06-3.38-3.83-.06.02-1.48,4.19.07.06-3.65-9.19-.15v.26s1.35.22,1.35.22l-1.51,9.44ZM91.35,24.3l-8.02-.13v-.59s7.44.12,7.44.12l.03-1.79h.59s-.04,2.39-.04,2.39ZM90.91,19.11l-3.82-.06-.04,2.33h-.59s.05-2.93.05-2.93l3.82.06.02-1.48h.59s-.03,2.08-.03,2.08ZM91.29,14.21l-4.13-.07-.04,2.31h-.59s.05-2.91.05-2.91l4.13.07.03-1.59h.59s-.04,2.19-.04,2.19Z" style="fill: #fff;"/>
          <path d="M71.33,20.18c-.06.91-.28,1.8-.65,2.64l.94.15.98-6.12.58.09-1.08,6.7-1.7-.27c-.1.18-.2.35-.31.52l2.44.39,1.15-7.09,2.96,7.74,4.45.71,2.16-13.49-4.21-.68-1.18,7.48-2.98-8.15-4.47-.72-.44,2.76c1.69,2.11,2.14,4.86,1.37,7.31ZM80.68,25.03l-3.5-.56.09-.58,2.92.47,1.84-11.49.58.09-1.94,12.07ZM77.3,19l-.55.21-2.84-7.65.55-.21,2.84,7.65Z" style="fill: #fff;"/>
          <path d="M57.66,14.21c.36.75.62,1.57.73,2.44.2,1.6-.09,3.2-.81,4.6.27.49.59.95.98,1.38,2.66,2.9,7.16,3.09,10.06.43,2.89-2.66,3.09-7.16.43-10.06-2.66-2.9-7.16-3.09-10.06-.43-.54.49-.98,1.05-1.33,1.64ZM59.97,17.11c.36-2.09,2.36-3.5,4.45-3.14.45.08.89.24,1.28.47l-.3.51c-.33-.19-.7-.33-1.09-.39-1.77-.31-3.46.89-3.77,2.66-.09.51-.06,1.03.1,1.52l-.56.18c-.18-.58-.22-1.2-.12-1.8ZM65.58,19.75c-1.07.98-2.74.91-3.72-.16-.98-1.07-.91-2.74.16-3.72,1.07-.99,2.74-.91,3.72.16.98,1.07.91,2.74-.16,3.72ZM70.15,18.81c-.49,3.1-3.21,5.32-6.31,5.32-.34,0-.68-.03-1.02-.08-1.52-.24-2.91-1.01-3.9-2.16l.45-.38c.9,1.05,2.16,1.74,3.55,1.96,3.18.5,6.16-1.63,6.66-4.75.21-1.36-.08-2.74-.81-3.91l.5-.32c.81,1.28,1.13,2.82.9,4.31Z" style="fill: #fff;"/>
          <path d="M44.53,21.43l1.96-.45.67,2.91c1.26.68,2.74,1,4.27.81,3.9-.49,6.67-4.05,6.17-7.95-.49-3.9-4.05-6.67-7.96-6.17-3.9.49-6.66,4.05-6.17,7.95.14,1.07.51,2.05,1.05,2.91ZM50.21,15.02c1.44-.18,2.76.84,2.94,2.29.18,1.44-.84,2.76-2.29,2.94-1.44.18-2.76-.84-2.94-2.29-.18-1.44.84-2.76,2.28-2.94ZM47.77,14.91c.33-.32.7-.58,1.12-.77l.25.54c-.35.16-.67.38-.95.66-.62.61-.96,1.43-.96,2.3,0,.87.33,1.69.95,2.31.37.37.8.64,1.3.8l-.18.56c-.58-.19-1.1-.51-1.53-.95-.72-.73-1.12-1.7-1.12-2.73,0-1.03.41-1.99,1.14-2.72ZM55.03,13.04c1.21,1.18,1.88,2.77,1.88,4.47,0,1.7-.65,3.31-1.85,4.54-1.07,1.1-2.5,1.78-4.02,1.93l-.06-.59c1.38-.13,2.68-.76,3.65-1.76,1.09-1.12,1.69-2.58,1.68-4.13,0-1.54-.61-2.98-1.71-4.05-.98-.96-2.28-1.52-3.65-1.6l.03-.59c1.52.08,2.95.71,4.03,1.76Z" style="fill: #fff;"/>
          <path d="M46.88,26.2l-.99-4.27-4.06.93-2.09-9.04-4.84,1.11,3.07,13.32,8.9-2.05ZM41.32,23.22l-.57.13-1.96-8.49.57-.13,1.96,8.49ZM38.58,27.56l-.13-.57,7.06-1.63-.58-2.51.57-.13.71,3.08-7.63,1.76Z" style="fill: #fff;"/>
          <path d="M92.03,32.82c-.18-.28-.28-.59-.27-.9.03-.69.62-1.07,1.27-.97.92.14,1.9.67,2.26,1.51l.6-3.64c-.79-.63-1.82-1.14-2.81-1.33-3.52-.71-5.17,2.2-5.45,3.93-.18,1.08.01,1.97.41,2.75.41.81,1.02,1.52,1.73,2.29.23.23.45.46.59.71.17.26.25.53.19.89-.11.65-.81.85-1.38.74-.94-.19-1.79-.58-2.27-1.32l-.26,4.11c.76.42,1.59.73,2.43.9,2.87.58,5.22-1.22,5.67-3.97.18-1.12.05-1.95-.33-2.72-.36-.76-.95-1.45-1.73-2.21-.19-.22-.46-.48-.65-.76ZM94.15,38.33c-.22,1.3-.91,2.36-1.95,2.98-.67.4-1.44.6-2.26.6-.57,0-1.16-.1-1.74-.3-.18-.06-.37-.14-.61-.27l.27-.52c.22.11.38.18.53.23,1.24.43,2.52.34,3.5-.25.9-.54,1.48-1.42,1.67-2.56.16-.98-.1-1.62-.57-2.35-.2-.3-.67-.8-1.14-1.28-.2-.21-.4-.42-.58-.61-.73-.78-1-1.73-.75-2.6.22-.78.84-1.39,1.65-1.61.95-.26,2.26.08,2.98.8l-.42.42c-.57-.57-1.65-.86-2.41-.65-.61.17-1.08.62-1.24,1.2-.19.67.04,1.41.62,2.04.18.19.37.39.57.6.5.52.98,1.02,1.21,1.37.46.71.86,1.54.66,2.77Z" style="fill: #fff;"/>
          <path d="M78.41,39.71l6.36.41.12-1.79.59.04-.16,2.38-6.87-.44.03.34-1.51.12,8.89.57.23-3.64-4.32-.28.1-1.51,3.82.25.22-3.37-3.82-.25.09-1.48,4.18.27.24-3.64-9.16-.59.97,12.62ZM85.14,35.54l-3.82-.25-.15,2.33-.59-.04.19-2.91,3.82.25.1-1.48.59.04-.13,2.07ZM85.76,30.67l-4.12-.27-.15,2.3-.59-.04.19-2.89,4.12.27.1-1.59.59.04-.14,2.18Z" style="fill: #fff;"/>
          <path d="M77.64,39.91l-1.05-13.63-4.25.33.6,7.55-4.8-7.23-3.02.23.04,7.56c0,1.32-.23,2.46-.7,3.41l.21,2.77,4.34-.33-.54-7.16,4.69,6.84,4.5-.35ZM67.84,27.54l4.55,6.77-.49.33-4.55-6.77.49-.33ZM68.43,40.06l-3.17.24-.05-.59,2.58-.2-.48-6.18.59-.05.52,6.77ZM73.5,39.08l2.95-.23-.89-11.6.59-.05.94,12.19-3.54.27-.05-.59Z" style="fill: #fff;"/>
          <path d="M58.38,40.56c3.63-.02,6-1.84,5.98-5.83l-.04-8.08-4.72.02.04,7.61c0,1.07-.03,2.01-1.28,2.02-1.26,0-1.3-.94-1.3-2.01l-.04-7.61-4.57.02.85,5.64-.97.16v2.28c.03,3.99,2.41,5.79,6.05,5.77ZM63.83,34.32c0,1.89-.44,3.26-1.37,4.18-.96.95-2.44,1.42-4.51,1.42-.05,0-.1,0-.16,0-1.11-.01-2.54-.48-2.88-.83l.42-.41c.18.18,1.41.64,2.47.66,1.98.02,3.38-.39,4.24-1.25.81-.81,1.21-2.04,1.2-3.76l-.03-6.91h.59s.03,6.91.03,6.91ZM56.49,27.45l.04,7.28c0,.64.07,1.42.6,1.84.43.35,1.14.42,2.1.21l.13.58c-.4.09-.76.13-1.09.13-.62,0-1.12-.15-1.5-.46-.72-.58-.81-1.53-.82-2.3l-.04-7.28h.59Z" style="fill: #fff;"/>
          <path d="M44.95,33.07l1.43,9.24,4.91-.76-1.43-9.24,2.7-.42-.66-4.26-10.31,1.6.66,4.26,2.71-.42ZM43.25,32.17l2.2-.34.09.58-2.2.34-.09-.58ZM51.95,31.43l-2.76.43,1.4,8.99-.58.09-1.49-9.57,2.76-.43-.37-2.35.58-.09.46,2.94Z" style="fill: #fff;"/>
        </g>
        <g>
          <rect x="95.66" y="13.24" width=".59" height="4.66" transform="translate(-.12 30.35) rotate(-17.96)" style="fill: #e21d39;"/>
          <polygon points="97.93 20.66 96.69 25.89 97.27 26.03 98.47 20.97 104.17 15.49 103.76 15.06 97.93 20.66" style="fill: #e21d39;"/>
          <polygon points="91.33 12.03 90.74 12.02 90.72 13.61 86.59 13.54 86.54 16.44 87.13 16.45 87.17 14.14 91.29 14.21 91.33 12.03" style="fill: #e21d39;"/>
          <polygon points="90.36 17.03 90.33 18.51 86.51 18.45 86.46 21.37 87.05 21.38 87.09 19.04 90.91 19.11 90.94 17.04 90.36 17.03" style="fill: #e21d39;"/>
          <polygon points="90.8 21.91 90.77 23.7 83.34 23.58 83.33 24.17 91.35 24.3 91.39 21.91 90.8 21.91" style="fill: #e21d39;"/>
          <rect x="75.31" y="11.2" width=".59" height="8.16" transform="translate(-.58 27.3) rotate(-20.39)" style="fill: #e21d39;"/>
          <polygon points="82.61 12.96 82.03 12.86 80.19 24.35 77.27 23.89 77.17 24.47 80.68 25.03 82.61 12.96" style="fill: #e21d39;"/>
          <path d="M72.1,23.65l1.08-6.7-.58-.09-.98,6.12-.94-.15c-.08.19-.18.37-.28.55l1.7.27Z" style="fill: #e21d39;"/>
          <path d="M60.65,18.73c-.15-.49-.19-1.01-.1-1.52.31-1.77,2-2.96,3.77-2.66.39.07.75.2,1.09.39l.3-.51c-.4-.23-.83-.39-1.28-.47-2.09-.36-4.09,1.05-4.45,3.14-.11.6-.07,1.22.12,1.8l.56-.18Z" style="fill: #e21d39;"/>
          <path d="M69.25,14.5l-.5.32c.74,1.16,1.03,2.55.81,3.91-.49,3.12-3.48,5.25-6.66,4.75-1.39-.22-2.65-.92-3.55-1.96l-.45.38c.99,1.15,2.38,1.92,3.9,2.16.34.05.68.08,1.02.08,3.1,0,5.82-2.22,6.31-5.32.23-1.5-.08-3.03-.9-4.31Z" style="fill: #e21d39;"/>
          <path d="M47.75,20.35c.43.44.95.76,1.53.95l.18-.56c-.49-.16-.93-.43-1.3-.8-.61-.62-.95-1.44-.95-2.31,0-.87.34-1.69.96-2.3.28-.27.6-.49.95-.66l-.25-.54c-.42.19-.79.45-1.12.77-.73.72-1.13,1.69-1.14,2.72,0,1.03.39,2,1.12,2.73Z" style="fill: #e21d39;"/>
          <path d="M50.96,11.86c1.37.07,2.67.64,3.65,1.6,1.09,1.07,1.7,2.51,1.71,4.05,0,1.55-.59,3.01-1.68,4.13-.98,1-2.27,1.62-3.65,1.76l.06.59c1.52-.15,2.94-.83,4.02-1.93,1.2-1.23,1.85-2.84,1.85-4.54,0-1.7-.67-3.29-1.88-4.47-1.08-1.06-2.52-1.68-4.03-1.76l-.03.59Z" style="fill: #e21d39;"/>
          <polygon points="46.21 25.8 45.5 22.72 44.93 22.85 45.5 25.36 38.45 26.98 38.58 27.56 46.21 25.8" style="fill: #e21d39;"/>
          <rect x="39.76" y="14.69" width=".59" height="8.71" transform="translate(-3.25 9.47) rotate(-12.97)" style="fill: #e21d39;"/>
          <path d="M93.49,35.56c-.23-.35-.7-.84-1.21-1.37-.2-.21-.4-.41-.57-.6-.58-.63-.81-1.37-.62-2.04.17-.58.63-1.03,1.24-1.2.76-.21,1.83.08,2.41.65l.42-.42c-.72-.71-2.03-1.06-2.98-.8-.81.23-1.43.83-1.65,1.61-.25.87.03,1.82.75,2.6.18.19.38.4.58.61.46.48.94.97,1.14,1.28.47.73.73,1.38.57,2.35-.19,1.14-.77,2.03-1.67,2.56-.98.59-2.26.68-3.5.25-.15-.05-.32-.12-.53-.23l-.27.52c.24.12.43.21.61.27.58.2,1.17.3,1.74.3.81,0,1.59-.2,2.26-.6,1.04-.62,1.73-1.68,1.95-2.98.2-1.23-.2-2.06-.66-2.77Z" style="fill: #e21d39;"/>
          <polygon points="85.31 28.45 85.21 30.04 81.09 29.77 80.9 32.66 81.49 32.7 81.64 30.4 85.76 30.67 85.9 28.49 85.31 28.45" style="fill: #e21d39;"/>
          <polygon points="84.68 33.43 84.59 34.91 80.77 34.67 80.59 37.58 81.17 37.62 81.32 35.29 85.14 35.54 85.27 33.47 84.68 33.43" style="fill: #e21d39;"/>
          <polygon points="85.32 40.74 85.48 38.36 84.89 38.33 84.77 40.12 78.41 39.71 78.46 40.3 85.32 40.74" style="fill: #e21d39;"/>
          <rect x="69.58" y="27.02" width=".59" height="8.16" transform="translate(-5.46 44.3) rotate(-33.94)" style="fill: #e21d39;"/>
          <polygon points="77.09 39.39 76.15 27.21 75.56 27.25 76.45 38.85 73.5 39.08 73.55 39.67 77.09 39.39" style="fill: #e21d39;"/>
          <polygon points="67.32 33.33 67.8 39.52 65.22 39.72 65.26 40.3 68.43 40.06 67.91 33.29 67.32 33.33" style="fill: #e21d39;"/>
          <path d="M63.21,27.41l.03,6.91c0,1.72-.38,2.95-1.2,3.76-.87.86-2.26,1.26-4.24,1.25-1.05-.01-2.29-.47-2.47-.66l-.42.41c.35.36,1.77.82,2.88.83.05,0,.1,0,.16,0,2.07,0,3.55-.46,4.51-1.42.93-.93,1.38-2.29,1.37-4.18l-.03-6.91h-.59Z" style="fill: #e21d39;"/>
          <path d="M55.94,34.74c0,.77.09,1.72.82,2.3.38.3.88.46,1.5.46.33,0,.7-.04,1.09-.13l-.13-.58c-.96.21-1.67.14-2.1-.21-.53-.42-.59-1.21-.6-1.84l-.04-7.28h-.59s.04,7.29.04,7.29Z" style="fill: #e21d39;"/>
          <polygon points="50.91 28.58 51.27 30.94 48.51 31.36 50 40.93 50.58 40.84 49.19 31.86 51.95 31.43 51.49 28.49 50.91 28.58" style="fill: #e21d39;"/>
          <rect x="43.28" y="31.99" width="2.23" height=".59" transform="translate(-4.42 7.18) rotate(-8.81)" style="fill: #e21d39;"/>
        </g>
      </g>
      <path d="M98.1,42.49v.26h-.75v1.96h-.31v-1.96h-.75v-.26h1.81Z" style="fill: #000104;"/>
      <path d="M98.43,42.49h.43l.64,1.88.64-1.88h.43v2.22h-.29v-1.31s0-.12,0-.23c0-.1,0-.22,0-.34l-.64,1.88h-.3l-.64-1.88v.07c0,.06,0,.14,0,.25,0,.11,0,.19,0,.25v1.31h-.29v-2.22Z" style="fill: #000104;"/>
    </g>
    <g>
      <path d="M34.04,60.55h.49v3.41h1.63v.41h-2.13v-3.83Z" style="fill: #131718; stroke: #131718; stroke-linecap: round; stroke-linejoin: round; stroke-width: .1px;"/>
      <path d="M39.77,62.43c0,1.32-.8,2.01-1.78,2.01s-1.72-.78-1.72-1.94c0-1.21.75-2.01,1.78-2.01s1.72.8,1.72,1.94ZM36.8,62.49c0,.82.44,1.55,1.22,1.55s1.23-.72,1.23-1.59c0-.76-.4-1.56-1.22-1.56s-1.23.75-1.23,1.6Z" style="fill: #131718; stroke: #131718; stroke-linecap: round; stroke-linejoin: round; stroke-width: .1px;"/>
      <path d="M43.69,62.43c0,1.32-.8,2.01-1.78,2.01s-1.72-.78-1.72-1.94c0-1.21.75-2.01,1.78-2.01s1.72.8,1.72,1.94ZM40.72,62.49c0,.82.44,1.55,1.22,1.55s1.23-.72,1.23-1.59c0-.76-.4-1.56-1.22-1.56s-1.23.75-1.23,1.6Z" style="fill: #131718; stroke: #131718; stroke-linecap: round; stroke-linejoin: round; stroke-width: .1px;"/>
      <path d="M44.33,64.38v-3.83h.54l1.23,1.94c.28.45.51.85.69,1.24h.01c-.04-.52-.06-.98-.06-1.58v-1.6h.47v3.83h-.5l-1.21-1.94c-.27-.43-.52-.86-.71-1.28h-.02c.03.49.04.95.04,1.58v1.63h-.46Z" style="fill: #131718; stroke: #131718; stroke-linecap: round; stroke-linejoin: round; stroke-width: .1px;"/>
      <path d="M50.05,62.58h-1.49v1.38h1.66v.41h-2.15v-3.83h2.07v.41h-1.57v1.21h1.49v.41Z" style="fill: #131718; stroke: #131718; stroke-linecap: round; stroke-linejoin: round; stroke-width: .1px;"/>
      <path d="M51.74,64.38v-1.62l-1.21-2.2h.56l.54,1.06c.15.29.26.52.38.79h.01c.11-.25.24-.5.39-.79l.55-1.06h.56l-1.28,2.2v1.63h-.5Z" style="fill: #131718; stroke: #131718; stroke-linecap: round; stroke-linejoin: round; stroke-width: .1px;"/>
      <path d="M55.66,60.97h-1.16v-.42h2.83v.42h-1.17v3.41h-.5v-3.41Z" style="fill: #131718; stroke: #131718; stroke-linecap: round; stroke-linejoin: round; stroke-width: .1px;"/>
      <path d="M58.25,60.55v2.26c0,.86.38,1.22.89,1.22.57,0,.93-.37.93-1.22v-2.26h.5v2.23c0,1.17-.62,1.66-1.45,1.66-.78,0-1.37-.45-1.37-1.63v-2.25h.5Z" style="fill: #131718; stroke: #131718; stroke-linecap: round; stroke-linejoin: round; stroke-width: .1px;"/>
      <path d="M61.43,64.38v-3.83h.54l1.23,1.94c.28.45.51.85.69,1.24h.01c-.04-.52-.06-.98-.06-1.58v-1.6h.47v3.83h-.5l-1.21-1.94c-.27-.43-.52-.86-.71-1.28h-.02c.03.49.04.95.04,1.58v1.63h-.46Z" style="fill: #131718; stroke: #131718; stroke-linecap: round; stroke-linejoin: round; stroke-width: .1px;"/>
      <path d="M67.15,62.58h-1.49v1.38h1.66v.41h-2.15v-3.83h2.07v.41h-1.57v1.21h1.49v.41Z" style="fill: #131718; stroke: #131718; stroke-linecap: round; stroke-linejoin: round; stroke-width: .1px;"/>
      <path d="M67.9,63.78c.22.14.54.25.89.25.5,0,.8-.27.8-.65,0-.36-.2-.56-.72-.76-.62-.22-1.01-.54-1.01-1.08,0-.6.49-1.04,1.24-1.04.39,0,.67.09.85.19l-.14.4c-.12-.07-.38-.18-.73-.18-.52,0-.72.31-.72.57,0,.36.23.53.76.74.65.25.98.56.98,1.12s-.44,1.1-1.34,1.1c-.37,0-.77-.11-.98-.24l.12-.41Z" style="fill: #131718; stroke: #131718; stroke-linecap: round; stroke-linejoin: round; stroke-width: .1px;"/>
      <path d="M73.48,64.38l-.04-.35h-.02c-.15.22-.45.41-.84.41-.56,0-.84-.39-.84-.79,0-.66.59-1.03,1.65-1.02v-.06c0-.23-.06-.64-.62-.64-.26,0-.52.08-.72.2l-.11-.33c.23-.15.56-.24.9-.24.84,0,1.04.57,1.04,1.12v1.03c0,.24.01.47.04.66h-.45ZM73.4,62.98c-.54-.01-1.16.08-1.16.62,0,.32.22.48.47.48.36,0,.58-.23.66-.46.02-.05.03-.11.03-.16v-.48Z" style="fill: #131718; stroke: #131718; stroke-linecap: round; stroke-linejoin: round; stroke-width: .1px;"/>
      <path d="M74.7,62.37c0-.28,0-.52-.02-.74h.44l.03.45h.01c.14-.26.45-.52.91-.52.38,0,.97.23.97,1.17v1.64h-.5v-1.58c0-.44-.17-.81-.64-.81-.33,0-.58.23-.67.51-.02.06-.03.15-.03.23v1.65h-.5v-2Z" style="fill: #131718; stroke: #131718; stroke-linecap: round; stroke-linejoin: round; stroke-width: .1px;"/>
      <path d="M80.22,60.35v3.32c0,.24,0,.52.02.71h-.45l-.02-.48h-.01c-.15.31-.49.54-.94.54-.66,0-1.17-.56-1.17-1.4,0-.91.56-1.48,1.23-1.48.42,0,.7.2.83.42h.01v-1.64h.5ZM79.72,62.75c0-.06,0-.15-.02-.21-.07-.32-.35-.58-.72-.58-.52,0-.82.45-.82,1.06,0,.56.27,1.02.81,1.02.33,0,.64-.22.73-.6.02-.07.02-.14.02-.22v-.48Z" style="fill: #131718; stroke: #131718; stroke-linecap: round; stroke-linejoin: round; stroke-width: .1px;"/>
      <path d="M83.78,64.38l-.04-.35h-.02c-.15.22-.45.41-.84.41-.56,0-.84-.39-.84-.79,0-.66.59-1.03,1.65-1.02v-.06c0-.23-.06-.64-.62-.64-.25,0-.52.08-.71.2l-.11-.33c.23-.15.56-.24.9-.24.84,0,1.04.57,1.04,1.12v1.03c0,.24.01.47.04.66h-.45ZM83.71,62.98c-.54-.01-1.16.08-1.16.62,0,.32.22.48.47.48.36,0,.58-.23.66-.46.02-.05.03-.11.03-.16v-.48Z" style="fill: #131718; stroke: #131718; stroke-linecap: round; stroke-linejoin: round; stroke-width: .1px;"/>
      <path d="M85,60.35h.5v4.03h-.5v-4.03Z" style="fill: #131718; stroke: #131718; stroke-linecap: round; stroke-linejoin: round; stroke-width: .1px;"/>
      <path d="M86.34,60.35h.5v4.03h-.5v-4.03Z" style="fill: #131718; stroke: #131718; stroke-linecap: round; stroke-linejoin: round; stroke-width: .1px;"/>
      <path d="M88.89,62.49c0-.32,0-.6-.02-.86h.44l.02.54h.02c.12-.37.43-.6.76-.6.06,0,.1,0,.14.02v.47c-.05-.01-.1-.02-.17-.02-.35,0-.6.27-.67.64-.01.07-.02.15-.02.23v1.46h-.49v-1.89Z" style="fill: #131718; stroke: #131718; stroke-linecap: round; stroke-linejoin: round; stroke-width: .1px;"/>
      <path d="M90.97,63.1c.01.67.44.95.94.95.36,0,.57-.06.76-.14l.08.36c-.18.08-.48.17-.91.17-.85,0-1.35-.56-1.35-1.38s.49-1.48,1.29-1.48c.9,0,1.14.79,1.14,1.29,0,.1-.01.18-.02.23h-1.93ZM92.43,62.74c0-.32-.13-.81-.69-.81-.51,0-.73.47-.77.81h1.46Z" style="fill: #131718; stroke: #131718; stroke-linecap: round; stroke-linejoin: round; stroke-width: .1px;"/>
      <path d="M93.53,60.35h.5v4.03h-.5v-4.03Z" style="fill: #131718; stroke: #131718; stroke-linecap: round; stroke-linejoin: round; stroke-width: .1px;"/>
      <path d="M96.4,64.38l-.04-.35h-.02c-.15.22-.45.41-.84.41-.56,0-.84-.39-.84-.79,0-.66.59-1.03,1.65-1.02v-.06c0-.23-.06-.64-.62-.64-.25,0-.52.08-.71.2l-.11-.33c.23-.15.56-.24.9-.24.84,0,1.04.57,1.04,1.12v1.03c0,.24.01.47.04.66h-.45ZM96.32,62.98c-.54-.01-1.16.08-1.16.62,0,.32.22.48.47.48.36,0,.58-.23.66-.46.02-.05.03-.11.03-.16v-.48Z" style="fill: #131718; stroke: #131718; stroke-linecap: round; stroke-linejoin: round; stroke-width: .1px;"/>
      <path d="M98.19,60.84v.79h.72v.38h-.72v1.48c0,.34.1.53.38.53.13,0,.23-.02.29-.03l.02.38c-.1.04-.25.07-.44.07-.23,0-.42-.07-.54-.21-.14-.15-.19-.39-.19-.71v-1.5h-.43v-.38h.43v-.66l.49-.13Z" style="fill: #131718; stroke: #131718; stroke-linecap: round; stroke-linejoin: round; stroke-width: .1px;"/>
      <path d="M99.72,63.1c.01.67.44.95.94.95.36,0,.57-.06.76-.14l.08.36c-.18.08-.48.17-.91.17-.85,0-1.35-.56-1.35-1.38s.49-1.48,1.29-1.48c.9,0,1.14.79,1.14,1.29,0,.1-.01.18-.02.23h-1.93ZM101.18,62.74c0-.32-.13-.81-.69-.81-.51,0-.73.47-.77.81h1.46Z" style="fill: #131718; stroke: #131718; stroke-linecap: round; stroke-linejoin: round; stroke-width: .1px;"/>
      <path d="M104.66,60.35v3.32c0,.24,0,.52.02.71h-.45l-.02-.48h-.01c-.15.31-.49.54-.94.54-.66,0-1.17-.56-1.17-1.4,0-.91.56-1.48,1.23-1.48.42,0,.7.2.83.42h.01v-1.64h.5ZM104.16,62.75c0-.06,0-.15-.02-.21-.07-.32-.35-.58-.72-.58-.52,0-.82.45-.82,1.06,0,.56.27,1.02.81,1.02.33,0,.64-.22.73-.6.02-.07.02-.14.02-.22v-.48Z" style="fill: #131718; stroke: #131718; stroke-linecap: round; stroke-linejoin: round; stroke-width: .1px;"/>
      <path d="M35.59,71.1c-.13.07-.42.16-.79.16-.83,0-1.37-.56-1.37-1.4s.58-1.46,1.48-1.46c.29,0,.56.07.69.14l-.11.39c-.12-.07-.31-.13-.58-.13-.63,0-.97.46-.97,1.04,0,.64.41,1.03.95,1.03.28,0,.47-.07.61-.14l.09.38Z" style="fill: #131718; stroke: #131718; stroke-linecap: round; stroke-linejoin: round; stroke-width: .1px;"/>
      <path d="M36.18,67.17h.5v1.71h.01c.08-.14.21-.27.36-.35.15-.08.32-.14.51-.14.37,0,.96.23.96,1.17v1.63h-.5v-1.58c0-.44-.17-.82-.64-.82-.32,0-.58.23-.67.5-.03.07-.03.14-.03.24v1.66h-.5v-4.03Z" style="fill: #131718; stroke: #131718; stroke-linecap: round; stroke-linejoin: round; stroke-width: .1px;"/>
      <path d="M40.86,71.2l-.04-.35h-.02c-.15.22-.45.41-.84.41-.56,0-.84-.39-.84-.79,0-.66.59-1.03,1.65-1.02v-.06c0-.23-.06-.64-.62-.64-.25,0-.52.08-.71.2l-.11-.33c.23-.15.56-.24.9-.24.84,0,1.04.57,1.04,1.12v1.03c0,.24.01.47.04.66h-.45ZM40.78,69.8c-.54-.01-1.16.08-1.16.62,0,.32.22.48.47.48.36,0,.58-.23.66-.46.02-.05.03-.11.03-.16v-.48Z" style="fill: #131718; stroke: #131718; stroke-linecap: round; stroke-linejoin: round; stroke-width: .1px;"/>
      <path d="M42.08,69.31c0-.32,0-.6-.02-.86h.44l.02.54h.02c.12-.37.43-.6.76-.6.06,0,.1,0,.14.02v.47c-.05-.01-.1-.02-.17-.02-.35,0-.6.27-.67.64-.01.07-.02.15-.02.23v1.46h-.49v-1.89Z" style="fill: #131718; stroke: #131718; stroke-linecap: round; stroke-linejoin: round; stroke-width: .1px;"/>
      <path d="M45.43,71.2l-.04-.35h-.02c-.15.22-.45.41-.84.41-.56,0-.84-.39-.84-.79,0-.66.59-1.03,1.65-1.02v-.06c0-.23-.06-.64-.62-.64-.26,0-.52.08-.72.2l-.11-.33c.23-.15.56-.24.9-.24.84,0,1.04.57,1.04,1.12v1.03c0,.24.01.47.04.66h-.45ZM45.35,69.8c-.54-.01-1.16.08-1.16.62,0,.32.22.48.47.48.36,0,.58-.23.66-.46.02-.05.03-.11.03-.16v-.48Z" style="fill: #131718; stroke: #131718; stroke-linecap: round; stroke-linejoin: round; stroke-width: .1px;"/>
      <path d="M48.6,71.1c-.13.07-.42.16-.79.16-.83,0-1.37-.56-1.37-1.4s.58-1.46,1.48-1.46c.29,0,.56.07.69.14l-.11.39c-.12-.07-.31-.13-.58-.13-.63,0-.97.46-.97,1.04,0,.64.41,1.03.95,1.03.28,0,.47-.07.61-.14l.09.38Z" style="fill: #131718; stroke: #131718; stroke-linecap: round; stroke-linejoin: round; stroke-width: .1px;"/>
      <path d="M49.87,67.66v.79h.72v.38h-.72v1.48c0,.34.1.53.38.53.13,0,.23-.02.29-.03l.02.38c-.1.04-.25.07-.44.07-.23,0-.42-.07-.54-.21-.14-.15-.19-.39-.19-.71v-1.5h-.43v-.38h.43v-.66l.49-.13Z" style="fill: #131718; stroke: #131718; stroke-linecap: round; stroke-linejoin: round; stroke-width: .1px;"/>
      <path d="M51.39,69.92c.01.67.44.95.94.95.36,0,.57-.06.76-.14l.08.36c-.18.08-.48.17-.91.17-.85,0-1.35-.56-1.35-1.38s.49-1.48,1.29-1.48c.9,0,1.14.79,1.14,1.29,0,.1-.01.18-.02.23h-1.93ZM52.85,69.56c0-.32-.13-.81-.69-.81-.51,0-.73.47-.77.81h1.46Z" style="fill: #131718; stroke: #131718; stroke-linecap: round; stroke-linejoin: round; stroke-width: .1px;"/>
      <path d="M53.96,69.31c0-.32,0-.6-.02-.86h.44l.02.54h.02c.12-.37.43-.6.76-.6.06,0,.1,0,.14.02v.47c-.05-.01-.1-.02-.17-.02-.35,0-.6.27-.67.64-.01.07-.02.15-.02.23v1.46h-.49v-1.89Z" style="fill: #131718; stroke: #131718; stroke-linecap: round; stroke-linejoin: round; stroke-width: .1px;"/>
      <path d="M55.75,70.69c.15.1.41.2.66.2.36,0,.53-.18.53-.41s-.14-.37-.51-.5c-.49-.18-.73-.45-.73-.78,0-.44.36-.81.95-.81.28,0,.52.08.67.17l-.12.36c-.11-.07-.31-.16-.56-.16-.29,0-.46.17-.46.37,0,.23.17.33.52.47.48.18.72.42.72.83,0,.48-.37.82-1.03.82-.3,0-.58-.07-.77-.19l.12-.38Z" style="fill: #131718; stroke: #131718; stroke-linecap: round; stroke-linejoin: round; stroke-width: .1px;"/>
      <path d="M60.79,71.2l-.04-.35h-.02c-.15.22-.45.41-.84.41-.56,0-.84-.39-.84-.79,0-.66.59-1.03,1.65-1.02v-.06c0-.23-.06-.64-.62-.64-.25,0-.52.08-.71.2l-.11-.33c.23-.15.56-.24.9-.24.84,0,1.04.57,1.04,1.12v1.03c0,.24.01.47.04.66h-.45ZM60.72,69.8c-.54-.01-1.16.08-1.16.62,0,.32.22.48.47.48.36,0,.58-.23.66-.46.02-.05.03-.11.03-.16v-.48Z" style="fill: #131718; stroke: #131718; stroke-linecap: round; stroke-linejoin: round; stroke-width: .1px;"/>
      <path d="M62.01,69.19c0-.28,0-.52-.02-.74h.44l.03.45h.01c.14-.26.45-.52.91-.52.38,0,.97.23.97,1.17v1.64h-.5v-1.58c0-.44-.17-.81-.64-.81-.33,0-.58.23-.67.51-.02.06-.03.15-.03.23v1.65h-.5v-2Z" style="fill: #131718; stroke: #131718; stroke-linecap: round; stroke-linejoin: round; stroke-width: .1px;"/>
      <path d="M67.54,67.17v3.32c0,.24,0,.52.02.71h-.45l-.02-.48h-.01c-.15.31-.49.54-.94.54-.66,0-1.17-.56-1.17-1.4,0-.91.56-1.48,1.23-1.48.42,0,.7.2.83.42h.01v-1.64h.5ZM67.04,69.57c0-.06,0-.15-.02-.21-.07-.32-.35-.58-.72-.58-.52,0-.82.45-.82,1.06,0,.56.27,1.02.81,1.02.33,0,.64-.22.73-.6.02-.07.02-.14.02-.22v-.48Z" style="fill: #131718; stroke: #131718; stroke-linecap: round; stroke-linejoin: round; stroke-width: .1px;"/>
      <path d="M69.85,69.92c.01.67.44.95.94.95.36,0,.57-.06.76-.14l.08.36c-.18.08-.48.17-.91.17-.85,0-1.35-.56-1.35-1.38s.49-1.48,1.29-1.48c.9,0,1.14.79,1.14,1.29,0,.1-.01.18-.02.23h-1.93ZM71.32,69.56c0-.32-.13-.81-.69-.81-.51,0-.73.47-.77.81h1.46Z" style="fill: #131718; stroke: #131718; stroke-linecap: round; stroke-linejoin: round; stroke-width: .1px;"/>
      <path d="M72.42,67.17h.5v4.03h-.5v-4.03Z" style="fill: #131718; stroke: #131718; stroke-linecap: round; stroke-linejoin: round; stroke-width: .1px;"/>
      <path d="M74.04,69.92c.01.67.44.95.94.95.36,0,.57-.06.76-.14l.08.36c-.18.08-.48.17-.91.17-.85,0-1.35-.56-1.35-1.38s.49-1.48,1.29-1.48c.9,0,1.14.79,1.14,1.29,0,.1-.01.18-.02.23h-1.93ZM75.51,69.56c0-.32-.13-.81-.69-.81-.51,0-.73.47-.77.81h1.46Z" style="fill: #131718; stroke: #131718; stroke-linecap: round; stroke-linejoin: round; stroke-width: .1px;"/>
      <path d="M76.61,69.19c0-.28,0-.52-.02-.74h.44l.02.44h.02c.15-.26.41-.5.86-.5.37,0,.66.23.78.55h.01c.08-.15.19-.27.31-.36.16-.12.35-.19.61-.19.36,0,.9.24.9,1.19v1.62h-.49v-1.55c0-.53-.19-.85-.6-.85-.28,0-.51.21-.59.45-.02.07-.04.16-.04.25v1.7h-.49v-1.65c0-.44-.19-.75-.57-.75-.31,0-.54.25-.62.5-.03.07-.04.16-.04.24v1.66h-.49v-2Z" style="fill: #131718; stroke: #131718; stroke-linecap: round; stroke-linejoin: round; stroke-width: .1px;"/>
      <path d="M81.63,69.92c.01.67.44.95.94.95.36,0,.57-.06.76-.14l.08.36c-.18.08-.48.17-.91.17-.85,0-1.35-.56-1.35-1.38s.49-1.48,1.29-1.48c.9,0,1.14.79,1.14,1.29,0,.1-.01.18-.02.23h-1.93ZM83.09,69.56c0-.32-.13-.81-.69-.81-.51,0-.73.47-.77.81h1.46Z" style="fill: #131718; stroke: #131718; stroke-linecap: round; stroke-linejoin: round; stroke-width: .1px;"/>
      <path d="M84.2,69.19c0-.28,0-.52-.02-.74h.44l.03.45h.01c.14-.26.45-.52.91-.52.38,0,.97.23.97,1.17v1.64h-.5v-1.58c0-.44-.17-.81-.64-.81-.33,0-.58.23-.67.51-.02.06-.03.15-.03.23v1.65h-.5v-2Z" style="fill: #131718; stroke: #131718; stroke-linecap: round; stroke-linejoin: round; stroke-width: .1px;"/>
      <path d="M87.93,67.66v.79h.72v.38h-.72v1.48c0,.34.1.53.38.53.13,0,.23-.02.29-.03l.02.38c-.1.04-.25.07-.44.07-.23,0-.42-.07-.54-.21-.14-.15-.19-.39-.19-.71v-1.5h-.43v-.38h.43v-.66l.49-.13Z" style="fill: #131718; stroke: #131718; stroke-linecap: round; stroke-linejoin: round; stroke-width: .1px;"/>
      <path d="M89.14,70.69c.15.1.41.2.66.2.36,0,.53-.18.53-.41s-.14-.37-.51-.5c-.49-.18-.73-.45-.73-.78,0-.44.36-.81.95-.81.28,0,.52.08.67.17l-.12.36c-.11-.07-.31-.16-.56-.16-.29,0-.46.17-.46.37,0,.23.17.33.52.47.48.18.72.42.72.83,0,.48-.37.82-1.03.82-.3,0-.58-.07-.77-.19l.12-.38Z" style="fill: #131718; stroke: #131718; stroke-linecap: round; stroke-linejoin: round; stroke-width: .1px;"/>
      <path d="M95.89,69.27c0,.98-.75,1.76-1.71,1.76s-1.73-.78-1.73-1.76.76-1.75,1.73-1.75,1.71.78,1.71,1.75ZM92.74,69.29c0,.85.62,1.51,1.44,1.51s1.42-.67,1.42-1.53-.62-1.52-1.42-1.52-1.44.67-1.44,1.53ZM94.87,68.62c-.07-.04-.28-.13-.55-.13-.53,0-.79.34-.79.79s.28.8.8.8c.23,0,.44-.06.57-.15l.07.22c-.2.13-.46.18-.7.18-.66,0-1.04-.45-1.04-1.03,0-.65.51-1.06,1.08-1.06.29,0,.55.08.62.15l-.07.22Z" style="fill: #131718; stroke: #131718; stroke-linecap: round; stroke-linejoin: round; stroke-width: .1px;"/>
      <path d="M100.13,71.2c-.11-.11-.21-.22-.36-.37-.33.31-.7.44-1.12.44-.74,0-1.17-.5-1.17-1.07,0-.52.31-.88.75-1.12v-.02c-.2-.25-.32-.53-.32-.8,0-.47.33-.94.97-.94.48,0,.85.32.85.81,0,.4-.23.72-.84,1.02v.02c.32.37.69.79.93,1.07.18-.27.29-.64.37-1.12h.45c-.1.6-.27,1.08-.55,1.41.2.21.4.43.63.67h-.59ZM99.53,70.54c-.23-.25-.65-.71-1.08-1.2-.2.13-.49.37-.49.78,0,.44.32.77.78.77.33,0,.61-.15.79-.35ZM98.36,68.21c0,.27.12.48.29.69.39-.22.64-.43.64-.75,0-.23-.13-.49-.44-.49s-.48.26-.48.56Z" style="fill: #131718; stroke: #131718; stroke-linecap: round; stroke-linejoin: round; stroke-width: .1px;"/>
      <path d="M103.41,67.37v.25h-.49v1.29h-.31v-1.29h-.49v-.25h1.29ZM105.08,68.92l-.06-.91c0-.12,0-.27-.01-.43h-.02c-.04.14-.08.32-.13.46l-.28.86h-.32l-.28-.88c-.03-.12-.07-.3-.11-.44h-.02c0,.14,0,.29-.01.43l-.06.91h-.29l.11-1.54h.46l.27.75c.03.12.06.23.1.39h0c.04-.14.07-.27.11-.39l.27-.76h.44l.12,1.54h-.31Z" style="fill: #131718; stroke: #131718; stroke-linecap: round; stroke-linejoin: round; stroke-width: .1px;"/>
      <path d="M57.53,78.02l-.97-3.83h.52l.45,1.94c.11.48.22.95.28,1.32h.01c.06-.38.18-.83.31-1.33l.51-1.93h.52l.47,1.94c.11.45.21.91.27,1.31h.01c.08-.42.19-.85.31-1.32l.51-1.93h.5l-1.08,3.83h-.52l-.48-1.99c-.12-.49-.2-.86-.25-1.25h-.01c-.07.38-.15.75-.29,1.25l-.54,1.99h-.52Z" style="fill: #131718; stroke: #131718; stroke-linecap: round; stroke-linejoin: round; stroke-width: .1px;"/>
      <path d="M61.71,74.24c.22-.04.56-.08.9-.08.49,0,.81.08,1.05.28.2.15.32.37.32.68,0,.37-.24.69-.65.84h0c.36.1.79.4.79.97,0,.33-.13.58-.32.77-.27.24-.7.36-1.32.36-.34,0-.6-.02-.77-.05v-3.76ZM62.21,75.81h.45c.52,0,.83-.27.83-.64,0-.45-.34-.62-.84-.62-.23,0-.36.02-.44.03v1.23ZM62.21,77.64c.1.02.24.02.42.02.51,0,.98-.19.98-.74,0-.52-.45-.74-.99-.74h-.41v1.46Z" style="fill: #131718; stroke: #131718; stroke-linecap: round; stroke-linejoin: round; stroke-width: .1px;"/>
      <path d="M66.78,76.22h-1.49v1.38h1.66v.42h-2.15v-3.83h2.07v.41h-1.57v1.21h1.49v.41Z" style="fill: #131718; stroke: #131718; stroke-linecap: round; stroke-linejoin: round; stroke-width: .1px;"/>
      <path d="M68.08,74.19v3.83h-.49v-3.83h.49Z" style="fill: #131718; stroke: #131718; stroke-linecap: round; stroke-linejoin: round; stroke-width: .1px;"/>
      <path d="M68.81,77.72c0-.21.14-.36.34-.36s.33.15.33.36-.13.36-.34.36c-.2,0-.33-.15-.33-.36Z" style="fill: #131718; stroke: #131718; stroke-linecap: round; stroke-linejoin: round; stroke-width: .1px;"/>
      <path d="M72.4,74.08c-.41.56-.71,1.29-.71,2.32s.31,1.74.71,2.3h-.39c-.36-.47-.74-1.2-.74-2.3,0-1.12.39-1.84.74-2.32h.39Z" style="fill: #131718; stroke: #131718; stroke-linecap: round; stroke-linejoin: round; stroke-width: .1px;"/>
      <path d="M72.86,77.51c.15.1.41.2.66.2.36,0,.53-.18.53-.41,0-.24-.14-.37-.51-.51-.49-.18-.73-.45-.73-.78,0-.44.36-.81.95-.81.28,0,.52.08.67.17l-.12.36c-.11-.07-.31-.16-.56-.16-.29,0-.46.17-.46.38,0,.23.17.33.52.46.48.18.72.42.72.83,0,.48-.37.82-1.03.82-.3,0-.58-.07-.77-.19l.12-.38Z" style="fill: #131718; stroke: #131718; stroke-linecap: round; stroke-linejoin: round; stroke-width: .1px;"/>
      <path d="M75.02,78.02v-.31l.39-.38c.94-.9,1.37-1.37,1.37-1.93,0-.37-.18-.72-.73-.72-.33,0-.61.17-.78.31l-.16-.35c.25-.22.62-.37,1.04-.37.79,0,1.13.54,1.13,1.07,0,.68-.49,1.23-1.27,1.98l-.29.27h0s1.66.01,1.66.01v.42h-2.36Z" style="fill: #131718; stroke: #131718; stroke-linecap: round; stroke-linejoin: round; stroke-width: .1px;"/>
      <path d="M79.48,78.02v-1h-1.71v-.33l1.65-2.36h.54v2.29h.52v.39h-.52v1h-.47ZM79.48,76.62v-1.23c0-.19,0-.39.02-.58h-.02c-.11.22-.21.37-.31.54l-.9,1.25h0s1.21.01,1.21.01Z" style="fill: #131718; stroke: #131718; stroke-linecap: round; stroke-linejoin: round; stroke-width: .1px;"/>
      <path d="M80.71,78.7c.4-.56.72-1.3.72-2.32s-.31-1.74-.72-2.3h.39c.36.46.74,1.19.74,2.31s-.38,1.83-.74,2.32h-.39Z" style="fill: #131718; stroke: #131718; stroke-linecap: round; stroke-linejoin: round; stroke-width: .1px;"/>
    </g>
    <line x1="14.18" y1="48.19" x2="8.72" y2="48.19" style="fill: none; stroke: #00aeef; stroke-width: .46px;"/>
  </g>
</svg>