<?xml version="1.0" encoding="UTF-8"?>
<svg id="Layer_1" data-name="Layer 1" data-size="30mm x 30mm" xmlns="http://www.w3.org/2000/svg" viewBox="0 0 148.7 147.16">
    <text id="quantity" style="font-family: Arial-BoldMT, Arial; font-size: 15px; font-weight: 700; isolation: isolate;"
    y="96%" x="60%" text-anchor="middle"></text>
  <g>
    <rect x="53.98" y=".12" width="84.79" height="96.13" style="fill: #fff;"/>
    <rect x="53.98" y=".12" width="84.79" height="96.13" style="fill: none; stroke: #d52f89; stroke-miterlimit: 10; stroke-width: .25px;"/>
    <line x1="138.77" y1="47.63" x2="138.77" y2="48.75" style="fill: none; stroke: #161410; stroke-width: .25px;"/>
    <line x1="53.98" y1="47.63" x2="53.98" y2="48.75" style="fill: none; stroke: #161410; stroke-width: .25px;"/>
    <line x1="46.17" y1="5.92" x2="148.7" y2="5.92" style="fill: none; stroke: #97bf0d; stroke-dasharray: 1.76 1.76; stroke-width: .55px;"/>
    <line x1="46.17" y1="90.46" x2="148.7" y2="90.46" style="fill: none; stroke: #97bf0d; stroke-dasharray: 1.76 1.76; stroke-width: .55px;"/>
    <line x1="139.94" y1="48.19" x2="52.61" y2="48.19" style="fill: none; stroke: #ee701e; stroke-dasharray: 2.17 2.17; stroke-width: .25px;"/>
    <g>
      <path d="M86.76,113.26l.47-.75c.32.35.72.53,1.21.53.9,0,1.36-.44,1.36-1.33,0-.4-.13-.73-.4-.98s-.61-.38-1.05-.38h-.08v-.79h.04c.83,0,1.24-.36,1.24-1.09s-.39-1.14-1.17-1.14c-.42,0-.76.14-1.01.42l-.43-.66c.3-.39.81-.59,1.52-.59.62,0,1.13.17,1.53.5s.59.76.59,1.28c0,.4-.11.75-.33,1.05s-.48.51-.77.62c.41.13.74.36.98.68s.36.71.36,1.16c0,.66-.21,1.18-.63,1.54s-1.01.54-1.77.54c-.32,0-.63-.06-.94-.18s-.55-.26-.73-.43Z" style="fill: #00a3cc;"/>
      <path d="M91.79,109.97c0-1.03.21-1.87.62-2.51s1-.97,1.76-.97,1.31.27,1.69.81.56,1.48.56,2.83c0,1.16-.2,2.07-.59,2.74s-.97,1-1.73,1-1.33-.27-1.73-.81-.59-1.57-.59-3.09ZM92.76,110.06c0,1.98.42,2.97,1.27,2.97.48,0,.84-.22,1.07-.66s.34-1.21.34-2.31c0-.76-.04-1.31-.13-1.67s-.23-.62-.42-.81-.44-.27-.74-.27c-.92,0-1.38.91-1.38,2.74Z" style="fill: #00a3cc;"/>
      <path d="M106.45,113.77v-3.31c0-.82-.36-1.24-1.07-1.24-.22,0-.43.07-.63.21s-.33.3-.4.47v3.87h-.93v-3.72c0-.26-.1-.46-.29-.61s-.45-.22-.77-.22c-.19,0-.38.07-.59.21s-.36.3-.45.47v3.86h-.93v-5.23h.61l.31.61c.36-.47.81-.7,1.34-.7.75,0,1.27.23,1.57.7.1-.2.3-.36.58-.5s.57-.2.87-.2c.54,0,.96.16,1.25.48s.44.77.44,1.35v3.5h-.93Z" style="fill: #00a3cc;"/>
      <path d="M114.75,113.77v-3.31c0-.82-.36-1.24-1.07-1.24-.22,0-.43.07-.63.21s-.33.3-.4.47v3.87h-.93v-3.72c0-.26-.1-.46-.29-.61s-.45-.22-.77-.22c-.19,0-.38.07-.59.21s-.36.3-.45.47v3.86h-.93v-5.23h.61l.31.61c.36-.47.81-.7,1.34-.7.75,0,1.27.23,1.57.7.1-.2.3-.36.58-.5s.57-.2.87-.2c.54,0,.96.16,1.25.48s.44.77.44,1.35v3.5h-.93Z" style="fill: #00a3cc;"/>
    </g>
    <line x1="139.19" y1="104.25" x2="54.15" y2="104.25" style="fill: none; stroke: #161410; stroke-width: .27px;"/>
    <line x1="139.19" y1="103.69" x2="139.19" y2="104.82" style="fill: none; stroke: #161410; stroke-width: .27px;"/>
    <line x1="54.15" y1="103.69" x2="54.15" y2="104.82" style="fill: none; stroke: #161410; stroke-width: .27px;"/>
    <line x1="139.19" y1="104.25" x2="54.15" y2="104.25" style="fill: none; stroke: #00a3cc; stroke-width: .56px;"/>
    <line x1="139.19" y1="103.69" x2="139.19" y2="104.82" style="fill: none; stroke: #00a3cc; stroke-width: .56px;"/>
    <line x1="54.15" y1="103.69" x2="54.15" y2="104.82" style="fill: none; stroke: #00a3cc; stroke-width: .56px;"/>
    <g>
      <path d="M0,49.28l.47-.75c.32.35.72.53,1.21.53.9,0,1.36-.44,1.36-1.33,0-.4-.13-.73-.4-.98s-.61-.38-1.05-.38h-.08v-.79h.04c.83,0,1.24-.36,1.24-1.09s-.39-1.14-1.17-1.14c-.42,0-.76.14-1.01.42l-.43-.66c.3-.39.81-.59,1.52-.59.62,0,1.13.17,1.53.5s.59.76.59,1.28c0,.4-.11.75-.33,1.05s-.48.51-.77.62c.41.13.74.36.98.68s.36.71.36,1.16c0,.66-.21,1.18-.63,1.54s-1.01.54-1.77.54c-.32,0-.63-.06-.94-.18s-.55-.26-.73-.43Z" style="fill: #00a3cc;"/>
      <path d="M5.02,46c0-1.03.21-1.87.62-2.51s1-.97,1.76-.97,1.31.27,1.69.81.56,1.48.56,2.83c0,1.16-.2,2.07-.59,2.74s-.97,1-1.73,1-1.33-.27-1.73-.81-.59-1.57-.59-3.09ZM6,46.08c0,1.98.42,2.97,1.27,2.97.48,0,.84-.22,1.07-.66s.34-1.21.34-2.31c0-.76-.04-1.31-.13-1.67s-.23-.62-.42-.81-.44-.27-.74-.27c-.92,0-1.38.91-1.38,2.74Z" style="fill: #00a3cc;"/>
      <path d="M19.68,49.79v-3.31c0-.82-.36-1.24-1.07-1.24-.22,0-.43.07-.63.21s-.33.3-.4.47v3.87h-.93v-3.72c0-.26-.1-.46-.29-.61s-.45-.22-.77-.22c-.19,0-.38.07-.59.21s-.36.3-.45.47v3.86h-.93v-5.23h.61l.31.61c.36-.47.81-.7,1.34-.7.75,0,1.27.23,1.57.7.1-.2.3-.36.58-.5s.57-.2.87-.2c.54,0,.96.16,1.25.48s.44.77.44,1.35v3.5h-.93Z" style="fill: #00a3cc;"/>
      <path d="M27.98,49.79v-3.31c0-.82-.36-1.24-1.07-1.24-.22,0-.43.07-.63.21s-.33.3-.4.47v3.87h-.93v-3.72c0-.26-.1-.46-.29-.61s-.45-.22-.77-.22c-.19,0-.38.07-.59.21s-.36.3-.45.47v3.86h-.93v-5.23h.61l.31.61c.36-.47.81-.7,1.34-.7.75,0,1.27.23,1.57.7.1-.2.3-.36.58-.5s.57-.2.87-.2c.54,0,.96.16,1.25.48s.44.77.44,1.35v3.5h-.93Z" style="fill: #00a3cc;"/>
    </g>
    <line x1="35.67" y1="90.42" x2="35.67" y2="5.38" style="fill: none; stroke: #161410; stroke-width: .27px;"/>
    <line x1="36.23" y1="90.42" x2="35.11" y2="90.42" style="fill: none; stroke: #161410; stroke-width: .27px;"/>
    <line x1="36.23" y1="5.38" x2="35.11" y2="5.38" style="fill: none; stroke: #161410; stroke-width: .27px;"/>
    <line x1="35.67" y1="90.42" x2="35.67" y2="5.38" style="fill: none; stroke: #00a3cc; stroke-width: .56px;"/>
    <line x1="36.23" y1="90.42" x2="35.11" y2="90.42" style="fill: none; stroke: #00a3cc; stroke-width: .56px;"/>
    <line x1="36.23" y1="5.38" x2="35.11" y2="5.38" style="fill: none; stroke: #00a3cc; stroke-width: .56px;"/>
    <path d="M85.49,85.49c-1.23,0-2.22-.99-2.22-2.21s.99-2.22,2.22-2.22,2.21,1.01,2.21,2.22-.98,2.21-2.21,2.21ZM85.49,81.37c-1.05,0-1.9.85-1.9,1.9s.85,1.9,1.9,1.9,1.9-.86,1.9-1.9-.84-1.9-1.9-1.9ZM86.17,82.8c-.04-.1-.19-.47-.66-.47s-.8.38-.8.92.26.99.76.99c.53,0,.69-.44.74-.58l.31.1c-.05.15-.13.4-.41.59-.23.16-.46.19-.62.19-.71,0-1.13-.57-1.13-1.27s.4-1.23,1.15-1.23c.41,0,.76.18.97.66l-.32.08Z" style="fill: #1e191a;"/>
    <g>
      <path d="M93.58,85.2h-.56v-3.36l-1.77,1.72h-.06l-1.78-1.72v3.36h-.56v-4.04h.54l1.83,1.77,1.82-1.77h.54v4.04Z" style="fill: #1e191a;"/>
      <path d="M99.05,85.2h-.59l-.74-1.3h-2.35l-.73,1.3h-.59l2.28-4.06h.38l2.34,4.06ZM96.52,81.84l-.93,1.68h1.9l-.96-1.68Z" style="fill: #1e191a;"/>
    </g>
    <path d="M100.96,81.17c1.33,0,1.69.6,1.69,1.08,0,.55-.43.85-.92.99.37.19.62.5,1.26,1.28.22.27.33.4.59.68h-.68l-.49-.61c-.2-.25-.43-.51-.66-.75-.33-.33-.62-.49-1.17-.49h-.37v1.85h-.56v-4.04h1.31ZM100.22,81.56v1.41h.66c.73,0,1.17-.25,1.17-.71,0-.42-.39-.7-1.17-.7h-.66Z" style="fill: #1e191a;"/>
    <path d="M105.79,85.24h-.14l-2.19-4.08h.57l1.69,3.13,1.67-3.13h.56l-2.16,4.08Z" style="fill: #1e191a;"/>
    <g>
      <path d="M111.3,81.56h-2.29v1.42h2.23v.39h-2.23v1.45h2.35v.39h-2.92v-4.04h2.86v.39Z" style="fill: #1e191a;"/>
      <path d="M112.61,84.81h2.42v.39h-2.99v-4.04h.56v3.65Z" style="fill: #1e191a;"/>
    </g>
    <rect x="70.38" y="57.1" width="55.4" height="22.44" style="fill: #e21f26;"/>
    <path d="M117.25,62.44v-3.41h-9.48l-1.56,11.38-1.54-11.38h-3.42l.38,3.04c-.4-.78-1.79-3.04-4.87-3.04-.02,0-3.42,0-3.42,0v16.59s-2.5-16.59-2.5-16.59h-4.48s-2.58,17.18-2.58,17.18v-17.18h-4.29l-1.55,9.65-1.5-9.65h-4.29v18.69h3.38v-9.01l1.53,9.01h1.79l1.51-9.01v9.01h6.51l.4-2.87h2.62l.39,2.87h6.39s0,0,0,0h0s0,0,0,0h0v-6.07l.78-.11,1.62,6.19h3.31,0s0,0,0,0h0l-2.13-7.25c1.08-.8,2.29-2.82,1.97-4.76h0s2.01,12.02,2.01,12.02h3.93s2.69-16.95,2.69-16.95v16.94h6.37v-3.36h-3.02v-4.29h3.02v-3.41h-3.02v-4.22h3.02ZM87.67,71.89l.93-7.99.96,7.99h-1.89ZM97.48,68.2c-.26.12-.53.19-.79.19v-6.01h.01c.26,0,2.24.08,2.24,2.97,0,1.51-.67,2.47-1.46,2.85M124.05,74.36v3.36h-6.22v-18.69h3.35v15.32h2.87Z" style="fill: #fff;"/>
    <polygon points="86.97 31.83 88.74 31.83 87.84 24.37 86.97 31.83" style="fill: #e21f26;"/>
    <path d="M95.41,22.95h-.02v5.62c.25,0,.5-.06.74-.18.74-.36,1.36-1.25,1.36-2.66,0-2.7-1.84-2.78-2.09-2.78" style="fill: #e21f26;"/>
    <path d="M70.88,38.96h51.67v-20.8h-51.67v20.8ZM114.61,23.01h-2.83v3.95h2.83v3.19h-2.83v4h2.83v3.14h-5.96v-15.83l-2.51,15.83h-3.67s-1.87-11.2-1.88-11.22c.3,1.81-.84,3.7-1.84,4.45l1.99,6.77h0,0s0,0,0,0h-3.08l-1.51-5.78-.73.11v5.67h0s0,0,0,0h-5.97s-.37-2.69-.37-2.69h-2.45l-.37,2.69h-6.08v-8.42l-1.41,8.42h-1.68l-1.44-8.42v8.42h-3.15v-17.46h4.01l1.4,9.02,1.44-9.02h4.01v16.06s2.41-16.06,2.41-16.06h4.18s2.33,15.5,2.33,15.5v-15.5s3.19,0,3.21,0c2.88,0,4.19,2.11,4.55,2.84l-.36-2.84h3.2l1.44,10.64,1.46-10.64h8.86v3.18ZM120.96,37.28h-5.81v-17.46h3.13v14.32h2.68v3.14Z" style="fill: #e21f26;"/>
    <path d="M104.29,30.46l-1.44-10.64h-3.19l.36,2.84c-.37-.73-1.68-2.84-4.56-2.84-.02,0-3.2,0-3.2,0v15.5s-2.34-15.5-2.34-15.5h-4.18s-2.41,16.06-2.41,16.06v-16.06s-4,0-4,0l-1.44,9.02-1.4-9.02h-4.01v17.46h3.15v-8.41l1.44,8.41h1.68l1.41-8.41v8.41h6.08l.37-2.68h2.45l.37,2.68h5.97s0,0,0,0h0s0,0,0,0h0v-5.67l.73-.1,1.52,5.78h3.09,0s0,0,0,0h0l-1.99-6.77c1.01-.75,2.14-2.64,1.84-4.45,0,.02,1.88,11.23,1.88,11.23h3.67s2.51-15.84,2.51-15.84v15.82h5.96v-3.14h-2.83v-4h2.83v-3.19h-2.83v-3.95h2.83v-3.18h-8.86l-1.46,10.64ZM86.97,31.83l.87-7.47.9,7.47h-1.77ZM96.14,28.39c-.24.12-.5.18-.74.18v-5.61h.02c.25,0,2.09.07,2.09,2.78,0,1.41-.63,2.31-1.36,2.66" style="fill: #fff;"/>
    <polygon points="118.28 19.82 115.15 19.82 115.15 37.28 120.96 37.28 120.96 34.14 118.28 34.14 118.28 19.82" style="fill: #fff;"/>
  </g>
</svg>