<?xml version="1.0" encoding="UTF-8"?>
<svg id="Layer_1" data-name="Layer 1" data-size="30mm x 30mm" xmlns="http://www.w3.org/2000/svg" viewBox="0 0 127.91 146.54">

    <text id="quantity" style="font-family: Arial-BoldMT, Arial; font-size: 15px; font-weight: 700; isolation: isolate;"
    y="96%" x="62%" text-anchor="middle"></text>
  <g>
    <path d="M1.46,26.97v-5.48l-1.46.91v-.91c.37-.19.76-.44,1.17-.77.42-.33.74-.63.96-.93h.29v7.18h-.98Z" style="fill: #00a3cc;"/>
    <path d="M5.4,23.47l-.33-.23v-3.46h3.56v.83h-2.63v1.74c.24-.18.55-.27.92-.27.66,0,1.17.2,1.52.6.35.4.52.96.52,1.69,0,1.79-.8,2.69-2.4,2.69-.67,0-1.22-.19-1.66-.56l.38-.82c.44.36.87.54,1.28.54.92,0,1.38-.57,1.38-1.72,0-1.07-.45-1.6-1.36-1.6-.44,0-.83.19-1.18.56Z" style="fill: #00a3cc;"/>
    <path d="M19.24,26.97v-3.31c0-.82-.36-1.24-1.07-1.24-.22,0-.43.07-.63.21-.2.14-.33.29-.4.47v3.87h-.93v-3.72c0-.26-.1-.46-.29-.61-.19-.15-.45-.22-.77-.22-.19,0-.38.07-.59.21-.21.14-.36.3-.45.47v3.86h-.93v-5.23h.61l.31.61c.36-.47.81-.7,1.34-.7.75,0,1.27.23,1.57.7.1-.2.3-.36.58-.5.28-.13.57-.2.87-.2.54,0,.96.16,1.25.48.3.32.44.77.44,1.35v3.5h-.93Z" style="fill: #00a3cc;"/>
    <path d="M27.54,26.97v-3.31c0-.82-.36-1.24-1.07-1.24-.22,0-.43.07-.63.21-.2.14-.33.29-.4.47v3.87h-.93v-3.72c0-.26-.1-.46-.29-.61-.19-.15-.45-.22-.77-.22-.19,0-.38.07-.59.21-.21.14-.36.3-.45.47v3.86h-.93v-5.23h.61l.31.61c.36-.47.81-.7,1.34-.7.75,0,1.27.23,1.57.7.1-.2.3-.36.58-.5.28-.13.57-.2.87-.2.54,0,.96.16,1.25.48.3.32.44.77.44,1.35v3.5h-.93Z" style="fill: #00a3cc;"/>
  </g>
  <g>
    <path d="M1.46,75.71v-5.48l-1.46.91v-.91c.37-.19.76-.44,1.17-.77s.74-.63.96-.93h.29v7.18h-.98Z" style="fill: #00a3cc;"/>
    <path d="M5.4,72.21l-.33-.23v-3.46h3.56v.83h-2.63v1.74c.24-.18.55-.27.92-.27.66,0,1.17.2,1.52.6s.52.96.52,1.69c0,1.79-.8,2.69-2.4,2.69-.67,0-1.22-.19-1.66-.56l.38-.82c.44.36.87.54,1.28.54.92,0,1.38-.57,1.38-1.72,0-1.07-.45-1.6-1.36-1.6-.44,0-.83.19-1.18.56Z" style="fill: #00a3cc;"/>
    <path d="M19.24,75.71v-3.31c0-.82-.36-1.24-1.07-1.24-.22,0-.43.07-.63.21-.2.14-.33.29-.4.47v3.87h-.93v-3.72c0-.26-.1-.46-.29-.61-.19-.15-.45-.22-.77-.22-.19,0-.38.07-.59.21s-.36.3-.45.47v3.86h-.93v-5.23h.61l.31.61c.36-.47.81-.7,1.34-.7.75,0,1.27.23,1.57.7.1-.2.3-.36.58-.5s.57-.2.87-.2c.54,0,.96.16,1.25.48.3.32.44.77.44,1.35v3.5h-.93Z" style="fill: #00a3cc;"/>
    <path d="M27.54,75.71v-3.31c0-.82-.36-1.24-1.07-1.24-.22,0-.43.07-.63.21-.2.14-.33.29-.4.47v3.87h-.93v-3.72c0-.26-.1-.46-.29-.61-.19-.15-.45-.22-.77-.22-.19,0-.38.07-.59.21s-.36.3-.45.47v3.86h-.93v-5.23h.61l.31.61c.36-.47.81-.7,1.34-.7.75,0,1.27.23,1.57.7.1-.2.3-.36.58-.5s.57-.2.87-.2c.54,0,.96.16,1.25.48.3.32.44.77.44,1.35v3.5h-.93Z" style="fill: #00a3cc;"/>
  </g>
  <g>
    <path d="M67.53,108.49l.47-.75c.32.35.72.53,1.21.53.9,0,1.36-.44,1.36-1.33,0-.4-.13-.73-.4-.98-.26-.25-.61-.38-1.05-.38h-.08v-.79h.04c.83,0,1.24-.36,1.24-1.09s-.39-1.14-1.17-1.14c-.42,0-.76.14-1.01.42l-.43-.66c.3-.39.81-.59,1.52-.59.62,0,1.13.17,1.53.5.39.33.59.76.59,1.28,0,.4-.11.75-.33,1.05s-.48.51-.77.62c.41.13.74.36.98.68.24.32.36.71.36,1.16,0,.66-.21,1.18-.63,1.54s-1.01.54-1.77.54c-.32,0-.63-.06-.94-.18-.31-.12-.55-.26-.73-.43Z" style="fill: #00a3cc;"/>
    <path d="M72.55,105.2c0-1.03.21-1.87.62-2.51s1-.97,1.76-.97,1.31.27,1.69.81.56,1.48.56,2.83c0,1.16-.2,2.07-.59,2.74-.39.67-.97,1-1.73,1s-1.33-.27-1.73-.81-.59-1.57-.59-3.09ZM73.53,105.29c0,1.98.42,2.97,1.27,2.97.48,0,.84-.22,1.07-.66s.34-1.21.34-2.31c0-.76-.04-1.32-.13-1.67s-.23-.62-.42-.81-.44-.27-.74-.27c-.92,0-1.38.92-1.38,2.74Z" style="fill: #00a3cc;"/>
    <path d="M87.21,109v-3.31c0-.82-.36-1.24-1.07-1.24-.22,0-.43.07-.63.21-.2.14-.33.29-.4.47v3.87h-.93v-3.72c0-.26-.1-.46-.29-.61-.19-.15-.45-.22-.77-.22-.19,0-.38.07-.59.21s-.36.3-.45.47v3.86h-.93v-5.23h.61l.31.61c.36-.47.81-.7,1.34-.7.75,0,1.27.23,1.57.7.1-.2.3-.36.58-.5s.57-.2.87-.2c.54,0,.96.16,1.25.48.3.32.44.77.44,1.35v3.5h-.93Z" style="fill: #00a3cc;"/>
    <path d="M95.51,109v-3.31c0-.82-.36-1.24-1.07-1.24-.22,0-.43.07-.63.21-.2.14-.33.29-.4.47v3.87h-.93v-3.72c0-.26-.1-.46-.29-.61-.19-.15-.45-.22-.77-.22-.19,0-.38.07-.59.21s-.36.3-.45.47v3.86h-.93v-5.23h.61l.31.61c.36-.47.81-.7,1.34-.7.75,0,1.27.23,1.57.7.1-.2.3-.36.58-.5s.57-.2.87-.2c.54,0,.96.16,1.25.48.3.32.44.77.44,1.35v3.5h-.93Z" style="fill: #00a3cc;"/>
  </g>
  <line x1="36.3" y1="4.66" x2="36.3" y2="89.14" style="fill: none; stroke: #00a3cc; stroke-width: .56px;"/>
  <rect x="34.48" y="4.38" width="3.64" height=".56" style="fill: #00a3cc;"/>
  <rect x="34.48" y="88.86" width="3.64" height=".56" style="fill: #00a3cc;"/>
  <line x1="127.51" y1="98.43" x2="43.03" y2="98.43" style="fill: none; stroke: #00a3cc; stroke-width: .56px;"/>
  <rect x="127.23" y="96.6" width=".56" height="3.64" style="fill: #00a3cc;"/>
  <rect x="42.75" y="96.6" width=".56" height="3.64" style="fill: #00a3cc;"/>
  <rect x="42.75" y=".12" width="85.04" height="93.54" style="fill: none; stroke: #d52f89; stroke-miterlimit: 10; stroke-width: .25px;"/>
  <line x1="32.27" y1="46.9" x2="39.72" y2="46.9" style="fill: none; stroke: #00a3cc; stroke-width: .56px;"/>
  <line x1="127.79" y1="46.9" x2="42.75" y2="46.9" style="fill: none; stroke: #ee701e; stroke-dasharray: 2.17 2.17; stroke-width: .25px;"/>
  <line x1="42.75" y1="4.38" x2="127.79" y2="4.38" style="fill: none; stroke: #97bf0d; stroke-dasharray: 1.76 1.76; stroke-width: .55px;"/>
  <line x1="42.75" y1="89.42" x2="127.79" y2="89.42" style="fill: none; stroke: #97bf0d; stroke-dasharray: 1.76 1.76; stroke-width: .55px;"/>
  <g>
    <path d="M70.95,82.88c-1.27,0-2.29-1.03-2.29-2.29s1.03-2.29,2.29-2.29,2.29,1.04,2.29,2.29-1.01,2.29-2.29,2.29ZM70.95,78.63c-1.08,0-1.97.88-1.97,1.96s.88,1.96,1.97,1.96,1.96-.89,1.96-1.96-.87-1.96-1.96-1.96ZM71.65,80.1c-.04-.11-.2-.48-.68-.48s-.82.4-.82.95.27,1.03.79,1.03c.55,0,.71-.45.76-.6l.32.1c-.05.16-.13.41-.43.61-.23.17-.48.2-.64.2-.73,0-1.17-.59-1.17-1.31s.41-1.27,1.19-1.27c.43,0,.79.19,1,.69l-.33.09Z" style="fill: #1d1719;"/>
    <g>
      <path d="M79.46,82.59h-.58v-3.47l-1.83,1.78h-.06l-1.83-1.78v3.47h-.58v-4.16h.56l1.89,1.83,1.88-1.83h.56v4.16Z" style="fill: #1d1719;"/>
      <path d="M85.1,82.59h-.61l-.77-1.34h-2.42l-.75,1.34h-.61l2.35-4.19h.39l2.42,4.19ZM82.49,79.12l-.96,1.73h1.96l-.99-1.73Z" style="fill: #1d1719;"/>
      <path d="M86.94,78.43c1.38,0,1.75.62,1.75,1.12,0,.57-.44.87-.95,1.02.38.2.64.52,1.3,1.32.23.28.34.41.61.7h-.7l-.5-.63c-.21-.26-.44-.53-.68-.77-.34-.34-.64-.51-1.2-.51h-.38v1.9h-.58v-4.16h1.35ZM86.17,78.83v1.45h.68c.75,0,1.21-.26,1.21-.73,0-.43-.4-.72-1.21-.72h-.68Z" style="fill: #1d1719;"/>
      <path d="M91.83,82.63h-.15l-2.26-4.21h.59l1.74,3.22,1.72-3.22h.58l-2.23,4.21Z" style="fill: #1d1719;"/>
      <path d="M97.5,78.83h-2.37v1.46h2.3v.4h-2.3v1.5h2.43v.4h-3.01v-4.16h2.95v.4Z" style="fill: #1d1719;"/>
      <path d="M98.85,82.19h2.5v.4h-3.08v-4.16h.58v3.76Z" style="fill: #1d1719;"/>
    </g>
    <g>
      <rect x="55.52" y="53.58" width="57.18" height="23.16" style="fill: #21305a;"/>
      <path d="M103.9,59.1v-3.52h-9.78l-1.61,11.75-1.59-11.75h-3.53l.4,3.13c-.41-.8-1.85-3.13-5.03-3.13-.02,0-3.53,0-3.53,0v17.12s-2.58-17.12-2.58-17.12h-4.62s-2.66,17.74-2.66,17.74v-17.74h-4.42l-1.59,9.97-1.55-9.97h-4.43v19.29h3.49v-9.3l1.58,9.3h1.85l1.56-9.3v9.3h6.72l.41-2.97h2.7l.4,2.97h6.6s0,0,0,0h0s0,0,0,0h0v-6.26l.81-.12,1.67,6.39h3.41,0s0,0,0,0h0l-2.19-7.48c1.11-.83,2.37-2.91,2.03-4.91h0s2.07,12.41,2.07,12.41h4.06s2.77-17.49,2.77-17.49v17.48h6.58v-3.47h-3.12v-4.42h3.12v-3.52h-3.12v-4.36h3.12ZM73.37,68.84l.96-8.25.99,8.25h-1.95ZM83.5,65.04c-.27.13-.55.19-.82.19v-6.2h.02c.27,0,2.31.08,2.31,3.07,0,1.56-.69,2.55-1.5,2.94M110.92,71.4v3.47h-6.42v-19.29h3.45v15.82h2.96Z" style="fill: #fff;"/>
    </g>
  </g>
  <g id="SMAF_LOGO" data-name="SMAF LOGO">
    <path id="BLUE" d="M118.98,36.1c-.29.27-.62.47-1,.57-.12.03-3,.65-3.15.67-.08,0-.17.01-.25.01-.54,0-1.12-.18-1.72-.53-.6-.35-1.09-.9-1.44-1.61-.08.02-1.16.29-1.28.31-.25.09-.55.13-.9.13-.26,0-.53-.02-.8-.06-.2-.03-.59-.09-.59-.09-.09.05-1.01.3-1.06.31-.05.01-.11.02-.16.03-.3.02-.63.03-.97.03-.16,0-.31,0-.46-.01-.38-.02-.72-.32-.83-.75-.07-.26-.14-.52-.2-.78-.01,0-.03,0-.04,0-.43.05-.86.09-1.36.11,0,0-.02,0-.03,0-.07,0-.13,0-.19-.03-.08.04-.18.06-.27.07-1.16.07-2.34.11-3.59.11h0c-.22,0-.43-.1-.58-.27-.07-.07-.12-.16-.16-.26,0,0-.02,0-.03,0-.46.07-.99.14-1.53.19-.02,0-.04,0-.06,0-.07,0-.15-.01-.22-.03-.03.02-.06.03-.1.04-.01,0-.02,0-.04.01-.05.03-.1.05-.15.07-.49.17-.92.29-1.38.38-.05.01-.11.02-.16.02-.14,0-.63-.05-.82-.71,0-.02-.01-.04-.02-.06-.25.12-1,.36-1.14.42-.08.03-.17.05-.26.05-.19,0-.38-.08-.52-.23-.07.29-.24.52-.5.65-.04.03-.76.48-.81.51-.07.05-.15.1-.23.13-.41.15-.83.24-1.24.33-.12.03-.23.05-.35.08-.06.01-.11.02-.17.02-.21,0-.4-.09-.55-.25-.16-.17-.24-.42-.23-.68.03-.95.04-1.91.03-2.87-.15.61-.43,1.28-1.01,1.79-.03.03-.51.48-.54.51-.36.37-.87.66-1.56.78-.17.03-.35.04-.52.04-.7,0-1.32-.25-1.8-.73,0,.03,0,.06,0,.09-.02.18-.08.34-.16.48-.01.03-.26.48-.27.51-.1.22-.27.4-.48.48-.54.23-.98.38-1.43.5-.06.02-.13.03-.19.03h0c-.4,0-.74-.32-.81-.78-.03-.18-.06-.35-.09-.53-.37.16-.79.33-1.24.46-.07.02-.14.03-.22.03-.06,0-.12,0-.18-.02-.09.1-.19.18-.3.23l-.07.03c-.5.22-.97.44-1.49.61-.08.03-.16.04-.24.04h0c-.16,0-.32-.06-.44-.16l-.69.25c-.93.34-1.88.69-2.84,1.02-.07.02-.13.04-.2.04-.07.08-.15.15-.24.2l-.07.04c-.52.29-1.01.56-1.55.8-.1.05-.2.07-.31.07h0c-.2,0-.38-.08-.52-.23-.03-.02-.45-.39-.48-.42,0,0-.02-.02-.03-.02l-.1.05c-.4.21-.81.43-1.24.61,0,0-.02,0-.03.01-.07.36-.3.66-.59.8l-.18.08c-.53.25-1.04.48-1.6.68-.09.03-.17.05-.26.05h0c-.08,0-.16-.01-.24-.04-.07-.03-1.18-.66-1.22-.69l-.16.07c-.42.19-.84.39-1.3.55,0,0-.01,0-.02,0v.03c-.03.48-.33.98-.72,1.21l-1.73,1c-.15.09-.31.13-.46.13-.09,0-.18-.02-.27-.05-.04-.02-1.02-.42-1.02-.42l-1.64.88c-.15.08-.29.12-.43.12h0c-.13,0-1.98-.65-2.05-.68-.12-.06-.22-.15-.3-.26-.1-.14-.24-.44-.09-.87l.9-2.52c-.13.09-.28.16-.45.21-.14.04-.39.07-.6.07-.05,0-.09,0-.14,0-.02.05-.04.09-.08.13-.14.13-.35.21-.5.25-.03,0-.05.01-.08.01-.02,0-.03,0-.04,0-.05.06-.12.13-.48.26-.12.05-.26.01-.35-.08,0,0,0,0,0,0,0,0-.18-.17-.18-.18-.04.14-.08.26-.09.34l-.02.08-.06.06c-.13.12-.42.18-.51.19-.01,0-.02,0-.03,0-.08,0-.16-.03-.21-.09,0,0-.23-.22-.24-.24-.06-.08-.08-.19-.04-.29.33-.83.8-2.47.81-2.48l.03-.09.08-.05s.02-.02.05-.03c0,0-.05-.04-.05-.05,0,0,0,0,0,0,0,0-.01-.01-.02-.02-.09-.09-.21-.32-.06-.74.13-.38.29-.54.48-.66-.04-.07-.06-.14-.08-.21l-.03-.13.08-.1s.4-.48.8-.55h0c.1-.02.24,0,.36.07.03-.05.07-.1.12-.13l.19-.12c.07-.05.16-.06.24-.04.16-.13.39-.24.63-.21.07,0,.27.03.4.18,0,0,0,0,0,0,.09-.12.19-.22.3-.32.21-.18.44-.28.63-.28.05-.16.11-.36.19-.58.05-.13.17-.23.22-.26h.01c.12-.09.25-.18.41-.15.07.01.13.05.17.1,0,0,.18.18.19.19.02.02.04.04.05.06h0s0,.01.01.02c.19-.31.49-.59.8-.72l2.26-.96c-.47-.29-.89-.54-1.08-.66-.03-.02-.06-.04-.09-.06,0,0-.02-.01-.02-.01,0,0,0,0,0,0-.03-.03-.07-.05-.1-.08,0,0-.02-.01-.03-.02-.04-.04-.07-.07-.11-.12-.23-.29-.32-.67-.23-1.04l.94-3.97c.13-.56.64-.97,1.22-.97.08,0,.16,0,.23.02l.17.03c.56.11,1.33.26,1.99.26.16,0,.37,0,.55-.05-.06-.04-1.12-.75-1.2-.81-.09-.05-1.24-.78-1.33-.84,0,0,0,0,0,0-.17-.1-.33-.2-.48-.32,0,0,0,0,0,0-.03-.03-.07-.05-.1-.08,0,0-.01-.01-.02-.02-.03-.02-.06-.05-.09-.07,0,0-.02-.01-.03-.02-.03-.02-.05-.05-.08-.07,0,0-.02-.01-.03-.02-.03-.02-.05-.05-.08-.08,0,0-.01-.01-.02-.02-.07-.07-.13-.13-.19-.2,0,0-.01-.01-.02-.02-.02-.03-.05-.06-.07-.09,0-.01-.02-.02-.03-.04-.02-.02-.04-.05-.05-.07-.01-.01-.02-.03-.03-.04-.02-.02-.03-.05-.05-.07,0-.01-.02-.03-.03-.05-.02-.02-.03-.05-.05-.08,0-.02-.02-.03-.03-.05-.02-.03-.03-.06-.04-.08,0-.01-.01-.03-.02-.04-.02-.04-.04-.09-.06-.13-.47-1.07-.47-2.27-.02-3.36.51-1.23,1.58-2.24,2.92-2.77.71-.28,1.63-.42,2.71-.42,1.67,0,3.54.35,4.54.7.05.02.09.04.14.06,0,0,0,0,.01,0,.04.02.08.04.12.07,0,0,.01,0,.02.01.03.02.07.05.1.08,0,0,.02.01.02.02.03.03.06.06.09.09,0,0,0,0,.01.01.01,0,.03.02.04.03,0,0,0-.02,0-.03,0-.03.02-.05.03-.08,0,0,0-.02.01-.03.01-.03.02-.05.03-.08,0,0,0-.02.01-.03.01-.03.03-.05.04-.08,0,0,.01-.02.02-.02.02-.03.03-.05.05-.07,0,0,.01-.02.02-.02.02-.02.03-.05.05-.07,0,0,.01-.01.02-.02.02-.02.04-.04.06-.07,0,0,.02-.01.02-.02.02-.02.04-.04.06-.06,0,0,.02-.01.03-.02.02-.02.04-.04.06-.05,0,0,.02-.01.03-.02.02-.02.04-.03.07-.05.01,0,.02-.01.04-.02.02-.01.04-.03.06-.04.01,0,.03-.01.04-.02.02-.01.04-.02.06-.03.02,0,.03-.01.05-.02.02,0,.04-.02.06-.02.02,0,.04-.01.05-.02.02,0,.04-.01.06-.02.02,0,.04,0,.06-.01.02,0,.04,0,.05-.01.02,0,.05,0,.08,0,.01,0,.03,0,.04,0,.04,0,.08,0,.12,0h4.93c1.43,0,2.68.43,3.61,1.25.22.2.42.41.6.64l.03-.58c.04-.73.65-1.31,1.39-1.31h3.84c.43,0,.82.2,1.07.52.25-.32.64-.52,1.07-.52h4.72c1.36,0,2.79.39,3.92,1.08.07.04.14.09.21.13,0,0,.02.01.02.02.06.04.12.08.18.12,0,0,0,0,0,0,.13.09.25.19.37.29,0,0,.43-.87.71-1.2.24-.28.59-.44.97-.44h6.42c.32,0,.65.11.92.3.2-.19.48-.3.81-.3h3.07c.59,0,1.24.36,1.55.86l.14.22s.84-.6,1.21-.83c0,0,0,0,0,0,.02-.01.05-.03.06-.04,0,0,0,0,0,0,.02-.01.05-.03.07-.04,0,0,.02,0,.03-.01.02-.01.05-.02.07-.03.01,0,.02,0,.03-.01.03-.01.07-.03.1-.04.02,0,.04-.01.06-.02.02,0,.03,0,.05-.01.02,0,.04-.01.07-.01.01,0,.03,0,.04,0,.02,0,.05,0,.07-.01.01,0,.03,0,.04,0,.04,0,.08,0,.11,0h2.56c.41,0,.77.18.98.49.22.31.26.71.12,1.09l-1.74,4.72c-.06.15-.07.49-.02.64l1.3,4.4c.11.37.06.73-.15,1-.02.03-.04.05-.07.08,0,0-.01.02-.02.02-.02.02-.04.04-.06.05-.01.01-.03.02-.04.03-.01.01-.03.02-.04.03,0,0,0,0-.01,0-.01,0-.03.02-.04.03-.21.13-.99.62-1.72,1.07.06.05.11.09.17.14.11-.03,1.97-.46,2.04-.47.06-.01.13-.02.19-.03.12-.02.24-.02.37-.02.04,0,.08,0,.12,0,1.22.05,2.72,1.01,3.11,3.03.07.3.03.56-.13.76-.04.05-.07.09-.12.12.04.04.08.09.12.13,1.01,1.23,1.09,2.94.18,3.82ZM94.89,7.15h-17.08v6.92h17.08v-6.92Z" style="fill: #21305a;"/>
    <path id="WHITE" d="M50.76,36.53c.07-.2.4-1.21.55-1.71,0-.02.02-.04.04-.05l.19-.12s.04,0,.04.02l-.02.17s.34-.44.67-.4c.34.04.34.22.25.55-.09.33-.32,1.16-.32,1.16,0,0-.19.11-.31.13-.02,0-.04-.02-.04-.04.08-.22.49-1.35.3-1.44-.22-.1-.58.27-.67.52-.08.23-.33,1.04-.36,1.15,0,0,0,.02-.01.02-.08.06-.18.08-.27.08-.02,0-.04-.02-.03-.04ZM52.55,35.18c.12-.37.32-.71.59-.94.27-.23.57-.3.62-.1,0,0,.11-.4.28-.87.02-.05.07-.1.12-.13.04-.03.21-.16.26-.09.05.07-.72,2.11-.93,2.77-.08.08-.45.19-.43.15.01-.04.03-.07.05-.11,0,0,.05-.1.05-.1,0,0-.42.29-.56.16-.14-.12-.17-.38-.05-.75ZM53.02,35.61c.22-.12.37-.35.45-.62.08-.28.12-.55-.09-.52-.21.03-.39.23-.54.69-.14.46-.04.57.18.45ZM49.71,36.33c.13-.37.27-.47.48-.59.21-.12.46-.05.46-.05,0,0,.28-.62.09-.57-.18.05-.37.2-.52.38-.07,0-.11-.19-.11-.19,0,0,.33-.4.64-.46.09-.01.4.05.29.38-.1.31-.41,1.26-.45,1.4,0,.01-.01.02-.03.03-.07.03-.12.04-.17.05-.02,0-.03-.01-.02-.03l.04-.14s-.22.25-.48.31c-.26.06-.37-.15-.24-.53ZM50.13,36.55c.23-.12.33-.25.4-.46.09-.2-.13-.22-.29-.14-.16.08-.29.27-.32.41-.04.14-.01.31.22.19ZM51.27,36.99c-.12.05-.19.13-.21.28-.02.15.12.16.22.12.11-.04.21-.12.23-.29.02-.17-.12-.17-.24-.11ZM51.36,37.49c-.09,0-.25.06-.31.08-.02,0-.03.02-.03.04-.08.72-.31,1.35-.36,1.54,0,.03.02.05.05.04.1-.03.28-.09.39-.19,0,0,0-.01.01-.02.01-.11.15-.94.31-1.43,0-.03-.01-.06-.05-.06ZM52.76,37.85c-.08-.53-.67-.1-.74-.37-.07-.27.21-.41.37-.44.12-.03.33.05.4.1.03.02.24-.19.28-.29,0-.02,0-.04-.02-.05-.15-.09-.63-.12-.88.03-.26.15-.6.37-.52.84.09.49.86-.11.7.42-.17.57-.86.24-.86.24-.04-.01-.23.4-.23.46,0,.02.4.05.76-.04.45-.12.81-.51.75-.89ZM50.59,37.79c-.33-.16-.81.34-.81.34,0,0,.09-.45.27-.84.02-.03,0-.07-.04-.07-.17,0-.31.09-.31.09,0,0-.47,1.66-.81,2.51-.01.03.01.05.04.05.11,0,.31-.07.36-.12.05-.26.24-.82.36-1.12.12-.31.73-.74.72-.45,0,.28-.09.56-.15.78-.04.15-.14.35-.2.47-.02.04.02.07.06.05.13-.05.33-.13.36-.17.05-.07.49-1.35.16-1.5ZM114.35,26.5l-1.3-4.4c-.09-.31-.08-.82.04-1.12l1.74-4.72c.11-.31-.06-.56-.39-.56h-2.56c-.33,0-.66.26-.74.57l-.46,1.71c-.08.31-.29.35-.46.07l-1.15-1.85c-.17-.28-.58-.5-.9-.5h-3.07c-.33,0-.43.21-.23.47l3.59,4.68c.2.26.4.73.46,1.05l.55,3.2c.05.32.36.66.67.74l3.81,1.07c.31.09.49-.1.4-.41ZM57.57,30.18c1.12-.26,2.8-.7,4.86-1.4,2.38-.8,3.76-2.26,3.94-4.2.17-1.95-.95-2.78-2.24-3.33-1.29-.55-3.08-1.06-2.33-1.89.3-.34,1.22-.3,2.13.16.79.39,1.59.99,2.13,1.42.28.23.72.05.78-.32l.6-3.75c.04-.22-.09-.43-.29-.51-1.28-.45-4.74-1.07-6.72-.29-2.21.87-3.35,3.12-2.48,5.12.87,2,4.72,2.01,4.53,3.49-.23,1.41-2.77.84-3.95.61-.25-.05-.51.12-.57.38l-.93,3.97c-.08.34.22.63.56.55ZM97.62,23.53c.05.32.36.61.68.63l8.1.91c.32.04.51-.18.41-.49l-.46-1.5c-.1-.31-.44-.59-.76-.62l-2.75-.27c-.32-.03-.65-.31-.72-.62l-.07-.3,2.22.11c.33.02.51-.22.4-.53l-.33-.98c-.1-.31-.46-.58-.78-.59l-1.97-.12-.1-.47c-.07-.32.14-.58.46-.59l2.34-.03c.33,0,.5-.26.38-.56l-.49-1.27c-.12-.3-.48-.55-.8-.55h-6.42c-.33,0-.55.26-.5.58l1.16,7.24ZM90.58,15.71c2.26,0,5.3,1.26,5.53,3.93.24,2.83-1.9,4.46-3.78,4.51-1.81,0-6.56.32-6.56.32-.32.02-.59-.23-.58-.56l.07-7.61c0-.33.27-.59.6-.59h4.72ZM91.47,19.83c-.06-.51-.46-.78-1.05-.78-.13,0-.41,0-.74,0l.11,1.61c.44,0,.78,0,.81,0,.48-.05.94-.27.87-.83ZM83.72,15.71h-3.84c-.33,0-.61.27-.63.59l-.48,8.4c-.02.32.23.55.55.51l4.49-.57c.32-.04.59-.33.58-.66l-.08-7.68c0-.33-.27-.59-.6-.59ZM67.01,27.23l1.64-10.94c.05-.32.35-.59.68-.59h4.93c2.64,0,4.23,1.7,4.26,3.41.03,1.58-.71,2.51-1.72,3.3-1.01.79-3.77.59-3.77.59h-.33l-.27,2.87c-.03.32-.32.65-.63.72l-4.29,1.06c-.31.08-.53-.11-.48-.43ZM73.96,18.64h-.85s-.15,1.58-.15,1.58c.3,0,.5,0,.52,0,.53,0,1.27-.26,1.3-.87.03-.61-.36-.7-.82-.7ZM65.41,30.1c-.57.19-1.1.41-1.66.65-.11.05-.2.17-.25.29-.39,1.07-.78,2.17-1.17,3.23-.05.13-.09.14-.11.01-.09-.78-.13-1.6-.22-2.38-.01-.13-.09-.19-.19-.14-.44.19-.84.39-1.27.61-.1.06-.19.18-.22.32-.44,2.08-.91,4.18-1.32,6.26-.03.14.02.23.13.2.53-.17,1.03-.39,1.55-.61.12-.05.21-.2.23-.34.13-.75.25-1.56.38-2.3.02-.14.05-.17.07-.04.09.48.17,1.22.23,1.49.03.15.16.26.27.22.09-.02.14-.13.27-.38.27-.61.51-1.25.77-1.84.05-.13.08-.12.06.01-.18,1.2-.38,2.46-.56,3.66-.02.14.03.24.14.2.63-.21,1.23-.47,1.85-.74.11-.05.2-.19.22-.33.33-2.63.65-5.27.95-7.9.02-.13-.04-.2-.14-.16ZM108.66,27.51c-.48-.08-.94-.13-1.43-.17-.09,0-.15.06-.15.17,0,1.12.05,2.26.04,3.37,0,.11-.04.06-.07-.05-.26-.85-.56-1.77-.83-2.64-.04-.11-.12-.2-.22-.21-.43-.04-.84-.04-1.27-.04-.1,0-.16.07-.17.18-.06,1.61-.1,3.23-.14,4.83,0,.11.06.19.16.19.48-.02.93-.05,1.41-.11.1-.01.15-.11.15-.22,0-.55-.05-1.14-.05-1.69,0-.11.02-.07.06.05.28,1.03.58,2.13.87,3.16.03.12.13.23.23.23.5.02.97,0,1.47-.02.1,0,.16-.1.16-.21,0-2.21-.07-4.42-.07-6.63,0-.11-.06-.18-.15-.2ZM104.06,31.05c-.71.03-1.4.12-2.1.13-.1,0-.15-.09-.15-.18,0-.05,0-.11,0-.15.02-.1.08-.19.18-.2.39-.04.77-.03,1.17-.09.1-.01.16-.1.17-.21.02-.34.02-.69.02-1.03,0-.11-.06-.18-.16-.18-.39-.01-.77.03-1.17,0-.1,0-.14-.09-.15-.19,0-.02,0-.05,0-.07.02-.09.08-.18.18-.18.55-.02,1.1,0,1.65-.03.1,0,.16-.08.17-.19.02-.39.03-.78.03-1.17,0-.1-.06-.18-.16-.18-1.04-.03-2.06-.06-3.1-.1-.09,0-.17.07-.17.18-.14,1.95-.28,3.92-.39,5.88,0,.11.05.21.15.21,1.28,0,2.54-.04,3.82-.11.1,0,.16-.1.17-.21,0-.57.02-1.17.02-1.74,0-.11-.06-.19-.16-.19ZM99.69,26.89c-.46-.04-.9-.05-1.36-.03-.1,0-.18.07-.19.18-.22,1.9-.42,3.82-.58,5.72,0,.12.04.21.14.2.54-.04,1.06-.11,1.6-.18.1-.01.16-.11.17-.23.11-1.82.24-3.65.36-5.47,0-.11-.05-.19-.15-.19ZM97.27,27.2c.25.44.38,1.5.19,1.9-.33.72-.71.76-1.25,1.09.27.85.54,1.78.8,2.63.04.14.02.24-.08.27-.47.15-.9.27-1.39.35-.1.02-.17-.03-.23-.2-.23-.78-.48-1.68-.7-2.48-.02-.07-.09-.05-.09,0-.01.53-.02,1.17-.03,1.67,0,.18-.06.24-.15.28-.41.18-.79.26-1.21.41-.1.03-.14-.11-.14-.19.1-1.33.38-5.46.38-5.46l.02-.4c0-.14.1-.25.23-.28.5-.1,1.74-.33,2.33-.31.33,0,1.06.25,1.31.69ZM95.81,28.12c-.07-.21-.32-.21-.56-.15-.06.02-.63.18-.63.18v1s.55-.19.75-.35c.16-.13.54-.37.44-.68ZM113.09,29.79c.58.72,1.03,1.92.75,2.8-.28.88-.66,1.36-1.52,1.65-.66.23-1.73.02-2.45-.09-.23-.03-.36-.08-.38-.44-.08-1.68-.17-3.59-.19-5.33,0-.19,0-.26.26-.23,1.35.19,2.57.44,3.53,1.62ZM112.03,32.3c.24-.31.37-.74.27-1.31-.11-.57-.54-1.09-1.24-1.18-.12-.02-.23.02-.22.18.05.82.04,1.53.09,2.34.01.2.08.26.31.24.23-.02.55.03.79-.28ZM118.24,32.73c-.44-.53-1.21-.88-1.82-1.27-.3-.2-.78-.4-.84-.81-.06-.41.36-.41.59-.36.34.08.51.55.56.76.05.21.07.26.17.3.41.13.76.2,1.16.24.1.01.23.08.17-.17-.3-1.55-1.41-2.42-2.44-2.46-1.03-.04-1.66.56-1.62,1.68.02.45.31.81.58,1.06.41.38,1.07.76,1.46.96.49.25,1,.45,1.06.9.08.72-.62.53-.93.37-.31-.16-.55-.59-.6-.81-.05-.22-.06-.28-.16-.31-.49-.11-.88-.08-1.36-.09-.1,0-.15.1-.17.2.22,1.07.73,2.14,1.74,2.69,1.01.55,2.02.63,2.69-.02.67-.65.5-1.96-.24-2.85ZM86.69,29.62c-.46.05-1.75.21-2.21.29-.14.02-.2.16-.2.31,0,.27,0,.6.04.87.02.22.15.4.36.41.31.02.57-.08.87-.07-.12.48-.4.9-.98.81-.77-.12-1.08-.85-1.08-1.66,0-.81.18-2.03,1.01-2.1.54-.05.67.2.69.37.01.09.09.16.18.15.28-.04.81-.12,1.05-.16.12-.02.2-.19.17-.29,0-.57-.59-2.1-2.23-1.76-1.64.34-2.19,2.22-2.29,4.14-.11,2,1.01,3.26,2.7,2.99,1.93-.31,2.05-2.04,2.18-2.96.08-.59.02-.98-.04-1.18-.03-.1-.13-.17-.23-.16ZM92.84,26.08c-1.18,0-2.59.05-3.7.26-.07.01-.17.09-.17.21-.08,2.63.04,5.26-.05,7.89,0,.12.05.21.14.18.52-.11,1.11-.21,1.62-.38.1-.03.15-.12.16-.28.02-.82.04-1.77.05-2.58,0-.17.07-.19.17-.23.24-.09.78-.19.98-.25.2-.06.21-.16.21-.28,0-.45,0-.92-.02-1.35,0-.11-.02-.17-.13-.16-.38.04-.98.24-1.36.27-.11.01-.16-.07-.17-.17-.01-.11-.03-.34-.02-.43.01-.18.06-.27.23-.31.49-.1,1.62-.29,2.02-.35.09-.01.15-.09.15-.18l.07-1.69c0-.11-.09-.19-.19-.19ZM74.22,30.76c.07-.09.13-.25.14-.37.09-.74.17-1.36.25-2.09.01-.12-.04-.19-.14-.17-1.09.28-2.16.59-3.24.93-.1.03-.18.15-.19.27-.09.63-.17,1.17-.26,1.8-.02.12.03.19.13.16.58-.21,1.14-.49,1.71-.7.1-.03.1,0,.03.09-.77.99-1.55,1.99-2.31,3.02-.07.1-.13.27-.14.4-.06.74-.1,1.51-.15,2.23-.01.13.05.23.15.2,1.29-.42,2.54-.85,3.82-1.28.1-.03.17-.17.17-.29.03-.62.04-1.29.07-1.91,0-.13-.05-.21-.15-.18-.63.17-1.23.45-1.85.64-.1.03-.1-.02-.03-.11.64-.87,1.32-1.75,1.98-2.63ZM69.65,29.26c.04,2.44.1,4.78.13,7.23,0,.13-.06.28-.17.33-.57.29-1.11.57-1.69.82-.11.05-.17-.04-.16-.18.05-.66.1-1.38.14-2.04,0-.14-.04-.2-.15-.16-.21.08-.39.2-.59.32-.11.07-.19.21-.23.34-.06.24-.1.5-.16.74-.03.14-.12.28-.23.33-.5.24-.97.48-1.48.68-.11.04-.15-.04-.12-.17.55-2.33,1.11-4.71,1.66-7.05.03-.13.12-.25.22-.3.89-.42,1.75-.69,2.65-1.05.1-.04.16.02.17.15ZM67.72,31.7c-.08.42-.14.86-.21,1.27-.02.13.03.18.13.17.1-.01.15-.05.25-.1.09-.06.17-.17.18-.3.02-.41.04-.84.04-1.25,0-.13-.05-.14-.16-.14-.01,0-.02.01-.03.02-.09.09-.18.2-.2.33ZM76.93,28.25c-.47.08-.9.19-1.37.33-.1.03-.18.13-.19.25-.28,2.11-.53,4.26-.78,6.37-.01.13.03.21.13.18.56-.18,1.07-.4,1.62-.63.1-.04.17-.17.18-.3.17-2.01.35-4.04.54-6.04.01-.12-.04-.19-.14-.17ZM81.89,27.08c-.52.06-1.03.14-1.55.24-.1.02-.16.11-.17.22-.08,1.24-.12,2.5-.22,3.73,0,.12-.04.11-.06,0-.19-.9-.41-1.84-.62-2.73-.03-.12-.11-.19-.21-.18-.45.06-.87.15-1.31.25-.1.02-.17.12-.19.24-.19,1.81-.36,3.65-.52,5.45-.01.13.04.21.14.18.49-.14.95-.31,1.43-.5.1-.04.16-.16.17-.29.04-.6.05-1.23.09-1.82,0-.12.03-.12.05,0,.21,1.06.39,2.18.59,3.25.02.13.1.21.2.19.5-.12.96-.28,1.44-.47.1-.04.17-.16.18-.29.25-2.43.46-4.88.69-7.3.01-.12-.04-.18-.14-.17ZM59.11,32.15l-.49,7.69c-.01.23-.19.51-.4.62l-1.85,1c-.2.11-.34.01-.3-.22l.36-2.21-1.19.5-.31,1.04c-.07.22-.29.49-.5.59l-1.67.83c-.21.1-.31,0-.24-.21l2.91-8.13c.08-.22.32-.47.53-.56l2.79-1.19c.21-.09.38.02.36.26ZM56.54,35.12l-.69,2.31.88-.32.37-2.25c.04-.23-.05-.36-.18-.28-.14.07-.31.32-.37.54ZM79.4,13.51h-1.04v-5.76h1.32l.46,2.98.48-2.98h1.32v5.3l.79-5.3h1.38s.77,5.11.77,5.11v-5.11s1.05,0,1.06,0c.95,0,1.38.7,1.5.94l-.12-.94h1.05l.48,3.51.48-3.51h2.92v1.05h-.93v1.3h.93v1.05h-.93v1.32h.93v1.04h-1.96v-5.22l-.83,5.22h-1.21s-.62-3.69-.62-3.7h0c.1.6-.28,1.22-.61,1.47l.66,2.23h0,0s0,0,0,0h-1.02l-.5-1.91-.24.04v1.87h0s0,0,0,0h-1.97s-.12-.89-.12-.89h-.81l-.12.89h-2.01v-2.78l-.47,2.78h-.55l-.47-2.78v2.78ZM85.92,10.63c.08,0,.16-.02.24-.06.24-.12.45-.41.45-.88,0-.89-.61-.92-.69-.92,0,0,0,0,0,0v1.85ZM83.14,11.71h.58l-.3-2.46-.29,2.46ZM94.36,12.47h-.88v-4.72h-1.03v5.76h1.92v-1.04Z" style="fill: #fff;"/>
  </g>
</svg>