<?xml version="1.0" encoding="UTF-8"?>
<svg id="Layer_1" data-name="Layer 1" data-size="25mm x 24mm" xmlns="http://www.w3.org/2000/svg" viewBox="0 0 118.66 125.08">
  
    <text id="quantity" style="font-family: Arial-BoldMT, Arial; font-size: 15px; font-weight: 700; isolation: isolate;"
    y="96%" x="67%" text-anchor="middle"></text>
  <g>
    <rect x="45.37" y=".12" width="70.62" height="79.12" style="fill: none; stroke: #d52f89; stroke-miterlimit: 10; stroke-width: .25px;"/>
    <path d="M88.14,12.66c0,.46-.35.84-.77.84s-.77-.38-.77-.84.35-.84.77-.84.77.38.77.84" style="fill: #c8c0bb;"/>
    <path d="M94.54,14.72c.39.28.58.78.42,1.6-.09.44-.33.87-.57,1.23-.23.34-.49.7-.74.99-.57.68-2.61,2.71-3.34,2.96-.28.1-.47-.3-.56-.59-.14-.47-.17-1.08-.22-1.7-.05-.63-.13-1.28-.05-1.81.15-.1.27.07.4.09.04.1.08.2.15.28.09.43.04,1.39.18,1.81.05.16.22.59.37.58.45-.04,2.38-2.37,2.64-2.66.27-.3.68-.71.68-1.26,0-.47-.31-.85-.8-.85-.12,0-.6.07-.71.08-.62.08-1.25.41-1.84.66-.6.27-1.19.56-1.58.99-.18-.03-.26-.26-.35-.35-.02-.07.03-.14.09-.2-.07-.06-.17-.09-.21-.18.19-.35.53-.53.83-.73.89-.56,4-1.8,5.2-.95" style="fill: #c8c0bb;"/>
    <path d="M77.29,21.74c-.57.16-1.47.02-1.98-.35-.66-.48-.95-1.05-.95-1.05-.58.12-1.25.33-1.92.33-.26,0-.43-.03-.63-.15-.93-.56-.73-2.29-.63-3.32.07-.69.04-1.34.23-1.99.09,0,.17-.06.24.04.13-.1.17-.1.32-.06.19.06.03,2.12.03,2.33,0,.43-.02.87.01,1.3.02.23,0,.65.18.83.17.18.51.07.73.04.4-.07.91-.19,1.18-.31-.18-.93-.33-1.37-.3-2.64.01-.56.05-.62.42-.67.12-.02.31-.02.35.03.11.11-.1,1.64.35,3.09.17.03.21.03.3.19.13.22.21.48-.06.6.03.19.18.41.3.57.39.55.98.8,1.61.62,1.22-.35,1.61-1.73,1.74-2.92.14-1.27,0-2.58-.2-3.6.09-.1.21-.04.36-.05.03-.24.24-.2.34-.07.09.11.14.52.19.73.07.25.1.53.12.74.05.56.15,1.11.09,1.69-.16,1.71-.94,3.67-2.41,4.08" style="fill: #c8c0bb;"/>
    <path d="M96.34,16.23c.09.21.35.29.53.32,1.5.21,2.4.92,2.49,1.7.12,1.02-.55,2.15-1.32,2.63-.27.17-.55.3-.85.41-.57.2-1.2.33-1.79.18-.4-.09-.79-.25-1.13-.5-.16-.12-.7-.44-.61-.67.08-.18.22,0,.35-.15.1-.04.15.05.23-.02.02-.12-.1-.12-.05-.26.1-.15.61.15.65.18.11.06.22.14.33.2.72.39,1.82.18,2.49-.26.43-.29.66-.95.5-1.47-.14-.43-.45-.74-.87-.9-.42-.17-.99-.05-1.46-.16-.76-.18-.66-1.01-.44-1.6.28-.75.79-1.38,1.4-1.83.51-.37,1.09-.62,1.69-.75.47-.1.83.36.45.6-.41.26-.73.33-1.11.54-.48.26-1.03.59-1.32,1.07-.14.22-.25.55-.17.74" style="fill: #c8c0bb;"/>
    <path d="M81.51,8.07s.03-.02,0-.02c.03-.08.07.15.01.1.17.64.02,8.1.07,8.78,1.43-.62,5.38-2.65,5.66-2.77.19-.09.39-.21.5.06-.05.13-.3.21-.47.27-.09.09-.23.13-.35.19.03.11.07.16,0,.26.09.02.21-.04.26-.06.07.05.2.14.17.26-.03.1-3.57,1.78-4.39,2.28.26.23.57.39.86.55.88.51,1.8,1,2.66,1.55.52.25,1.01.54,1.57.75.02-.37-.49-3.02-.63-3.98.08-.12.27-.18.43-.23.22-.07.37.15.5.3.14,1.54.48,3.03.7,4.55-.15.28-.3.4-.59.44-.15-.16-.2-.4-.27-.63-.05,0-.1,0-.15-.01.04.12,0,.31-.12.39-.21,0-.29-.11-.48-.12-.09.04,0,.17-.05.24-.6-.28-4.85-2.65-5.72-3.19-.05.23.33,3.67.29,4.02-.22.08-.25.4-.48.47-.1-.15-.1-.39-.13-.6-.04-.06-.12.03-.17-.03-.12-1.14-.22-2.31-.3-3.49-.18,0-.67.42-.87.4-.25-.03-.24-.31-.01-.37-.03-.18-.2-.23-.25-.38.33-.26.7-.47,1.07-.66.01-1.38-.25-5.21-.23-6.21.02-.7-.03-1.38-.05-2.03,0-.21-.02-.43.08-.62.06-.05.12.04.2.04.04-.11.04-.26.15-.33.11,0,.08.18.2.12.02-.12.02-.38.16-.45.12.03.17.07.16.17" style="fill: #c8c0bb;"/>
    <path d="M70.14,12.61c.12.09.23.2.3.32.28.5.39,1.35.24,1.91-.13.53-.49,1.05-.81,1.5-.16.23-.29.46-.47.65-.19.21-.39.39-.53.59.48.05.89-.02,1.29.21.77.42.7,1.33.33,2.03-.72,1.39-1.97,2.1-3.25,2.74-.53.26-1.32.28-1.78-.17-.33-.33-.4-.96-.44-1.42-.06-.82-.13-1.65-.12-2.47,0-.35.03-.73.03-1.03,0-.32,0-.6.02-.87.02-.37.07-.61.33-.5.06.03.09.12.14.13-.06,1.38-.06,5.27,1.05,5.41.41.05,1.26-.46,1.57-.68.45-.32,2.73-2.08,1.74-2.5-1.11-.47-3.08.75-3.23.82-.18.08-.44.11-.52-.08.07-.25.28-.41.45-.59.16-.17.33-.34.5-.51.33-.32.67-.68,1-1.01.69-.69,1.36-1.41,1.75-2.35.57-1.37-.88-1.55-1.76-1.41-.5.08-.99.24-1.47.4-.82.25-1.6.59-2.39.95-.39.18-.74.42-1.04.67.19-.03.28.12.26.24-.06.59-1.84.62-1.29-.34.19-.32.54-.56.83-.75.58-.39,1.2-.71,1.83-1.01,1.03-.49,2.04-.95,3.25-1.14.31-.05.67-.09.99-.08.33,0,.81.12,1.15.36" style="fill: #c8c0bb;"/>
    <path d="M96.49,23.16h-.41c-2.49-.05-4.98.04-7.75.12-1.94.04-4.15.21-6.08.36,4.58-.32,9.4-.54,13.82-.42-.45.07-.98.12-1.6.13-1.49,0-2.96.03-4.42.08v-.1c-4.14.24-8.02.3-12.14.87.15,0,.06.03.03.05h-.03s.03,0,.03,0c-.03.02,0,.03.25,0-.26.03-.27.02-.25,0,4.05-.46,7.87-.69,11.94-.81-3.16.1-6.26.3-9.38.59-3.11.29-6.24.67-9.44,1.19l-1.09.18c-1.1.12-2.19.3-3.27.55.12-.09-.1-.14-.08-.22.02-.08.28-.2,1.37-.39l-.02-.1c-1.1.16-1.87.22-2.1.16-.23-.06.09-.28,1.18-.56,2.45-.64,5.77-1.06,8.8-1.47,2.21-.29,4.42-.53,6.64-.66,3.05-.17,6.38-.36,9.44-.36,1.11-.01,3.05-.13,3.61-.06.4.03.42.08.36.15-1.82.02-3.64.06-5.44.12-2.2.05-4.41.14-6.61.25,2.16-.08,4.37-.18,6.61-.25,1.79-.04,3.59-.07,5.38-.07-.07.05-.13.11-.02.15h.83c1.11.11.83.29.28.42l-.48.09Z" style="fill: #c8c0bb;"/>
    <path d="M76.96,32.48c0-.42-.14-.78-.41-1.06-.28-.28-.63-.42-1.06-.42-1.07,0-1.78.66-2.11,1.99-.12.49-.18.84-.18,1.04,0,.24.03.4.08.48.13.2.52.3,1.16.3.68,0,1.27-.22,1.75-.65.52-.45.77-1.01.77-1.68M77.7,32.34c0,.93-.35,1.71-1.05,2.35-.65.59-1.37.89-2.17.89-.09,0-.34-.02-.74-.03l-.74-.02c-.13,0-.23-.04-.29-.12-.04-.09-.11-.22-.21-.39-.14-.18-.21-.34-.21-.47,0-.04.05-.19.14-.47-.09-1.09-.14-1.83-.14-2.24,0-.96.05-1.88.16-2.74l.12-.97c.05-.34.12-.59.2-.76.05-.11.18-.17.37-.17.27,0,.4.12.4.38,0,.04-.02.17-.07.41-.28,1.4-.43,2.37-.44,2.9,0,.12,0,.29,0,.49.01.23.02.4.02.49.56-1.1,1.35-1.64,2.37-1.64.64,0,1.17.19,1.6.58.45.4.68.91.68,1.54" style="fill: #c8c0bb;"/>
    <path d="M80.86,30.91c0-.31-.1-.46-.31-.46-.24,0-.5.19-.77.57-.42.57-.63,1.24-.63,2.01,0,.26.03.42.1.5.53-.24.96-.73,1.3-1.45.21-.44.31-.83.31-1.16M82.68,33.75c0,.24-.14.52-.42.85-.24.3-.49.51-.74.64-.43.22-.84.34-1.22.34-.61,0-1.09-.27-1.43-.8-.27-.42-.41-.91-.41-1.46,0-1.07.24-1.95.72-2.64.55-.79,1.04-1.18,1.49-1.18.64,0,.96.34.96,1.01,0,.6-.22,1.27-.66,2.02s-.93,1.27-1.45,1.58c-.02.2.08.36.3.47.17.09.35.13.53.13.8,0,1.4-.35,1.82-1.06.06-.1.15-.14.28-.14.15,0,.22.08.22.25" style="fill: #c8c0bb;"/>
    <path d="M87.74,32.48c0-.42-.14-.78-.41-1.06-.28-.28-.63-.42-1.06-.42-1.07,0-1.78.66-2.11,1.99-.12.49-.18.84-.18,1.04,0,.24.03.4.08.48.13.2.52.3,1.16.3.68,0,1.27-.22,1.75-.65.52-.45.77-1.01.77-1.68M88.47,32.34c0,.93-.35,1.71-1.05,2.35-.65.59-1.37.89-2.17.89-.09,0-.34-.02-.74-.03l-.74-.02c-.13,0-.23-.04-.29-.12-.04-.09-.11-.22-.21-.39-.14-.18-.21-.34-.21-.47,0-.04.05-.19.14-.47-.09-1.09-.14-1.83-.14-2.24,0-.96.05-1.88.16-2.74l.12-.97c.05-.34.12-.59.2-.76.05-.11.18-.17.37-.17.27,0,.4.12.4.38,0,.04-.02.17-.07.41-.28,1.4-.43,2.37-.44,2.9,0,.12,0,.29,0,.49.01.23.02.4.02.49.56-1.1,1.35-1.64,2.37-1.64.64,0,1.17.19,1.6.58.45.4.68.91.68,1.54" style="fill: #c8c0bb;"/>
    <path d="M93.18,28.33c0,.09-.04.18-.11.25-.07.08-.16.11-.25.11-.02,0-.09-.05-.24-.15-.14-.1-.23-.16-.28-.18l-1.91-.68c-.26-.09-.38-.27-.38-.54,0-.36.18-.54.53-.54.12,0,.29.09.5.26.07.06.21.16.4.3.54.37,1,.63,1.38.8.23.1.35.22.35.37M91.63,30.91c0-.31-.1-.46-.31-.46-.24,0-.5.19-.77.57-.42.57-.63,1.24-.63,2.01,0,.26.03.42.1.5.53-.24.96-.73,1.3-1.45.21-.44.31-.83.31-1.16M93.46,33.75c0,.24-.14.52-.42.85-.24.3-.49.51-.74.64-.43.22-.84.34-1.22.34-.61,0-1.09-.27-1.43-.8-.27-.42-.41-.91-.41-1.46,0-1.07.24-1.95.72-2.64.55-.79,1.04-1.18,1.49-1.18.64,0,.96.34.96,1.01,0,.6-.22,1.27-.66,2.02s-.93,1.27-1.45,1.58c-.02.2.08.36.3.47.17.09.35.13.53.13.8,0,1.4-.35,1.82-1.06.06-.1.15-.14.28-.14.15,0,.22.08.22.25" style="fill: #c8c0bb;"/>
    <text transform="translate(0 41.46)" style="fill: #00a3cc; font-family: TrebuchetMS, &apos;Trebuchet MS&apos;; font-size: 10px;"><tspan x="0" y="0">24 mm</tspan></text>
    <line x1="114.3" y1="84.1" x2="45.12" y2="84.1" style="fill: none; stroke: #1f9dd9; stroke-width: .5px;"/>
    <rect x="114.05" y="82.47" width=".5" height="3.25" style="fill: #1f9dd9;"/>
    <rect x="44.87" y="82.47" width=".5" height="3.25" style="fill: #1f9dd9;"/>
    <line x1="39.09" y1="74.28" x2="39.09" y2="5.1" style="fill: none; stroke: #1f9dd9; stroke-width: .5px;"/>
    <rect x="37.46" y="74.03" width="3.25" height=".5" style="fill: #1f9dd9;"/>
    <rect x="37.46" y="4.84" width="3.25" height=".5" style="fill: #1f9dd9;"/>
    <text transform="translate(60.82 94.39)" style="fill: #00a3cc; font-family: TrebuchetMS, &apos;Trebuchet MS&apos;; font-size: 10px;"><tspan x="0" y="0">25 mm</tspan></text>
    <line x1="43.13" y1="5.15" x2="118.66" y2="5.15" style="fill: none; stroke: #1f9dd9; stroke-dasharray: 1.49 1.49; stroke-width: .46px;"/>
    <line x1="43.13" y1="73.7" x2="118.66" y2="73.7" style="fill: none; stroke: #1f9dd9; stroke-dasharray: 1.49 1.49; stroke-width: .46px;"/>
    <line x1="118.66" y1="39.69" x2="43.13" y2="39.69" style="fill: none; stroke: #ee701e; stroke-dasharray: 2.04 2.04; stroke-width: .5px;"/>
  </g>
</svg>