<?xml version="1.0" encoding="UTF-8"?>
<svg id="Layer_1" data-name="Layer 1" data-size="25mm x 12mm" xmlns="http://www.w3.org/2000/svg" viewBox="0 0 125.25 89.5">
    <text id="quantity" style="font-family: Arial-BoldMT, Arial; font-size: 15px; font-weight: 700; isolation: isolate;"
    y="96%" x="63%" text-anchor="middle"></text>
  <g>
    <rect x="43.05" y="4.6" width="81.95" height="33.77" style="fill: none; stroke: #d52f89; stroke-miterlimit: 10; stroke-width: .25px;"/>
    <path d="M91.61,12.7c0,.46-.34.83-.76.83s-.76-.37-.76-.83.34-.83.76-.83.76.37.76.83" style="fill: #c8c0bb;"/>
    <path d="M97.92,14.73c.38.27.57.77.41,1.58-.09.43-.33.86-.56,1.21-.23.34-.48.68-.73.98-.56.67-2.57,2.67-3.29,2.91-.28.1-.46-.29-.55-.58-.14-.46-.17-1.06-.22-1.67-.05-.62-.13-1.26-.04-1.78.14-.1.26.07.4.09.04.1.08.2.15.27.08.43.04,1.37.18,1.78.05.16.21.59.37.57.44-.04,2.34-2.34,2.6-2.62.27-.29.67-.71.67-1.24,0-.46-.3-.84-.79-.84-.12,0-.59.07-.7.08-.61.08-1.23.4-1.81.65-.59.26-1.17.55-1.56.97-.18-.03-.25-.26-.34-.35-.02-.07.02-.14.09-.19-.07-.06-.17-.09-.21-.18.18-.34.52-.52.82-.71.88-.55,3.94-1.78,5.12-.94" style="fill: #c8c0bb;"/>
    <path d="M80.92,21.65c-.56.15-1.45.02-1.95-.34-.65-.47-.94-1.04-.94-1.04-.57.11-1.23.32-1.9.32-.26,0-.43-.03-.62-.14-.92-.55-.72-2.26-.62-3.27.07-.68.04-1.32.23-1.96.09,0,.17-.06.23.04.13-.1.17-.1.32-.06.18.06.03,2.09.03,2.3,0,.42-.02.85,0,1.28.02.23,0,.64.18.82.17.17.5.07.72.04.39-.07.89-.19,1.16-.31-.18-.92-.33-1.35-.3-2.6.01-.56.04-.61.41-.67.11-.02.3-.02.35.03.11.11-.1,1.62.34,3.04.16.03.21.03.3.18.13.21.21.48-.06.59.03.19.17.4.29.56.39.54.97.78,1.58.61,1.21-.35,1.59-1.7,1.71-2.88.14-1.25,0-2.54-.2-3.55.09-.1.21-.04.35-.05.03-.24.23-.19.34-.07.09.11.14.52.19.71.07.25.1.52.11.73.05.55.14,1.09.09,1.66-.16,1.68-.93,3.62-2.37,4.02" style="fill: #c8c0bb;"/>
    <path d="M99.7,16.22c.08.21.34.29.52.31,1.47.2,2.36.91,2.45,1.68.12,1-.54,2.12-1.3,2.59-.27.16-.55.3-.84.4-.56.2-1.18.32-1.76.18-.39-.09-.78-.25-1.11-.5-.15-.11-.69-.43-.6-.66.08-.18.22,0,.35-.15.09-.04.15.05.23-.02.02-.12-.09-.11-.05-.25.1-.15.6.15.64.18.11.06.21.13.33.19.71.38,1.8.18,2.45-.26.43-.29.65-.94.49-1.45-.14-.43-.45-.73-.85-.89-.42-.17-.97-.05-1.44-.15-.75-.17-.65-1-.44-1.58.27-.74.78-1.36,1.38-1.81.5-.37,1.07-.61,1.67-.74.46-.1.82.36.44.59-.4.26-.72.33-1.09.53-.47.26-1.01.58-1.3,1.05-.13.22-.25.54-.16.73" style="fill: #c8c0bb;"/>
    <path d="M85.08,8.18s.03-.02,0-.02c.03-.08.07.15.01.1.17.63.02,7.98.07,8.65,1.41-.61,5.3-2.61,5.58-2.73.19-.09.39-.2.49.06-.05.13-.29.2-.46.26-.09.09-.23.13-.34.19.03.1.06.15,0,.26.09.02.21-.04.26-.06.07.05.2.13.17.25-.03.1-3.52,1.76-4.33,2.25.25.22.56.38.85.55.87.5,1.78.99,2.62,1.53.52.25,1,.53,1.55.74.02-.36-.48-2.97-.62-3.92.08-.12.27-.18.42-.23.22-.06.37.14.49.3.14,1.51.47,2.98.69,4.49-.15.28-.3.4-.58.43-.15-.15-.2-.4-.27-.62-.05,0-.1,0-.15-.01.04.12,0,.31-.12.39-.21,0-.29-.11-.47-.12-.09.04,0,.17-.05.24-.59-.28-4.78-2.61-5.64-3.15-.05.22.32,3.62.28,3.96-.22.08-.24.4-.47.46-.1-.15-.1-.38-.13-.59-.04-.06-.12.03-.16-.03-.12-1.13-.22-2.27-.3-3.44-.18,0-.66.41-.86.39-.24-.02-.24-.31-.01-.36-.03-.17-.2-.22-.25-.38.32-.26.68-.46,1.05-.65.01-1.36-.25-5.13-.22-6.12.02-.69-.03-1.36-.05-2,0-.21-.02-.43.08-.61.06-.04.12.04.2.04.04-.11.04-.25.15-.33.11,0,.08.17.2.12.02-.12.02-.37.16-.45.12.03.16.07.16.17" style="fill: #c8c0bb;"/>
    <path d="M73.88,12.65c.12.09.23.2.29.32.28.5.38,1.33.24,1.88-.13.52-.49,1.04-.8,1.47-.16.23-.29.45-.47.64-.19.2-.38.38-.52.58.48.04.88-.02,1.27.2.76.42.69,1.31.32,2-.71,1.37-1.94,2.07-3.2,2.7-.52.26-1.3.27-1.75-.16-.33-.33-.4-.94-.43-1.4-.06-.81-.12-1.62-.12-2.43,0-.34.03-.71.03-1.02,0-.32,0-.59.02-.86.02-.37.07-.6.33-.49.06.03.09.12.14.13-.06,1.36-.05,5.2,1.04,5.33.41.05,1.24-.45,1.55-.67.44-.31,2.68-2.05,1.71-2.46-1.1-.46-3.03.74-3.18.8-.18.07-.44.11-.51-.08.07-.24.28-.41.44-.58.16-.17.33-.34.49-.5.33-.32.66-.67.99-1,.68-.68,1.34-1.39,1.72-2.32.56-1.35-.86-1.53-1.73-1.39-.49.08-.97.24-1.45.39-.8.25-1.58.58-2.35.94-.39.18-.72.41-1.02.66.18-.03.27.12.26.24-.06.58-1.81.61-1.27-.33.18-.32.54-.55.82-.74.57-.39,1.19-.7,1.8-.99,1.01-.48,2.01-.93,3.2-1.12.31-.05.66-.09.98-.08.33,0,.8.11,1.13.35" style="fill: #c8c0bb;"/>
    <path d="M99.84,23.05h-.4c-2.45-.05-4.91.04-7.63.12-1.91.04-4.09.2-5.99.36,4.51-.32,9.27-.53,13.61-.41-.44.06-.96.12-1.57.13-1.47,0-2.92.03-4.36.08v-.1c-4.08.24-7.9.3-11.96.86.15,0,.06.03.03.04h-.03s.03,0,.03,0c-.03.02-.01.03.24,0-.25.03-.27.02-.24,0,3.99-.45,7.75-.68,11.76-.8-3.12.1-6.17.3-9.24.58-3.07.28-6.15.66-9.3,1.17l-1.07.18c-1.08.11-2.16.3-3.22.54.12-.09-.09-.14-.08-.21.02-.08.28-.19,1.35-.39l-.02-.1c-1.08.15-1.84.22-2.07.16-.23-.05.09-.27,1.16-.55,2.41-.63,5.69-1.04,8.67-1.45,2.18-.29,4.36-.52,6.55-.65,3.01-.16,6.29-.36,9.3-.35,1.09-.01,3.01-.12,3.56-.05.39.03.41.08.35.14-1.8.01-3.59.06-5.36.11-2.17.05-4.35.14-6.52.24,2.13-.08,4.3-.17,6.52-.24,1.77-.04,3.54-.07,5.3-.06-.07.05-.13.11-.02.15h.82c1.09.1.82.28.28.41l-.47.09Z" style="fill: #c8c0bb;"/>
    <path d="M80.6,32.24c0-.42-.13-.77-.41-1.04s-.62-.41-1.05-.41c-1.06,0-1.75.66-2.08,1.96-.12.49-.18.83-.18,1.02,0,.24.03.39.08.47.13.2.51.3,1.14.3.67,0,1.25-.21,1.73-.64.51-.45.76-1,.76-1.66M81.32,32.1c0,.91-.35,1.68-1.03,2.31-.64.58-1.35.87-2.14.87-.09,0-.33-.02-.73-.03l-.73-.02c-.12,0-.22-.04-.29-.12-.04-.08-.1-.21-.2-.39-.14-.18-.2-.33-.2-.46,0-.04.04-.19.13-.46-.09-1.07-.13-1.81-.13-2.21,0-.95.05-1.85.16-2.7l.12-.95c.05-.34.12-.58.2-.75.05-.11.17-.16.36-.16.26,0,.39.12.39.37,0,.04-.02.17-.07.41-.28,1.38-.42,2.34-.43,2.86,0,.12,0,.28,0,.49.01.23.02.39.02.49.56-1.08,1.33-1.62,2.34-1.62.63,0,1.16.19,1.58.57.45.39.67.9.67,1.52" style="fill: #c8c0bb;"/>
    <path d="M84.44,30.69c0-.3-.1-.46-.31-.46-.23,0-.49.19-.76.56-.41.56-.62,1.22-.62,1.98,0,.25.03.42.1.49.52-.24.95-.72,1.28-1.43.21-.43.31-.81.31-1.14M86.24,33.49c0,.24-.14.52-.41.84-.24.3-.48.5-.73.63-.43.22-.83.33-1.2.33-.6,0-1.07-.26-1.41-.79-.27-.42-.4-.9-.4-1.44,0-1.06.23-1.92.71-2.6.54-.77,1.03-1.16,1.47-1.16.63,0,.94.33.94,1,0,.59-.22,1.25-.65,1.99s-.91,1.25-1.43,1.56c-.02.2.08.35.3.46.17.08.34.13.53.13.79,0,1.38-.35,1.79-1.05.06-.09.15-.14.28-.14.15,0,.22.08.22.24" style="fill: #c8c0bb;"/>
    <path d="M91.22,32.24c0-.42-.13-.77-.41-1.04s-.62-.41-1.05-.41c-1.06,0-1.75.66-2.08,1.96-.12.49-.18.83-.18,1.02,0,.24.03.39.08.47.13.2.51.3,1.14.3.67,0,1.25-.21,1.73-.64.51-.45.76-1,.76-1.66M91.94,32.1c0,.91-.34,1.68-1.03,2.31-.64.58-1.35.87-2.14.87-.09,0-.33-.02-.73-.03l-.73-.02c-.12,0-.22-.04-.29-.12-.04-.08-.1-.21-.2-.39-.14-.18-.2-.33-.2-.46,0-.04.04-.19.13-.46-.09-1.07-.13-1.81-.13-2.21,0-.95.05-1.85.16-2.7l.12-.95c.05-.34.12-.58.2-.75.05-.11.17-.16.36-.16.26,0,.39.12.39.37,0,.04-.02.17-.07.41-.28,1.38-.42,2.34-.43,2.86,0,.12,0,.28,0,.49.01.23.02.39.02.49.55-1.08,1.33-1.62,2.33-1.62.63,0,1.16.19,1.58.57.45.39.67.9.67,1.52" style="fill: #c8c0bb;"/>
    <path d="M96.58,28.15c0,.09-.04.17-.11.25-.07.08-.16.11-.24.11-.02,0-.09-.05-.23-.15-.14-.1-.23-.16-.28-.18l-1.88-.67c-.25-.09-.38-.27-.38-.53,0-.36.18-.53.53-.53.12,0,.28.09.5.26.07.06.2.16.39.3.53.36.99.62,1.36.79.23.1.35.22.35.36M95.06,30.69c0-.3-.1-.46-.31-.46-.24,0-.49.19-.76.56-.41.56-.62,1.22-.62,1.98,0,.25.03.42.09.49.52-.24.95-.72,1.28-1.43.2-.43.31-.81.31-1.14M96.86,33.49c0,.24-.14.52-.41.84-.24.3-.48.5-.73.63-.43.22-.83.33-1.2.33-.6,0-1.07-.26-1.41-.79-.27-.42-.4-.9-.4-1.44,0-1.06.23-1.92.71-2.6.54-.77,1.03-1.16,1.47-1.16.63,0,.94.33.94,1,0,.59-.22,1.25-.65,1.99s-.91,1.25-1.43,1.56c-.02.2.08.35.3.46.17.08.34.13.53.13.79,0,1.38-.35,1.79-1.05.06-.09.15-.14.28-.14.15,0,.22.08.22.24" style="fill: #c8c0bb;"/>
    <line x1="37.57" y1="4.65" x2="37.57" y2="38.17" style="fill: none; stroke: #1f9dd9; stroke-width: .5px;"/>
    <rect x="35.95" y="4.4" width="3.25" height=".5" style="fill: #1f9dd9;"/>
    <rect x="35.95" y="37.92" width="3.25" height=".5" style="fill: #1f9dd9;"/>
    <line x1="119.32" y1="46.82" x2="50.14" y2="46.82" style="fill: none; stroke: #1f9dd9; stroke-width: .5px;"/>
    <rect x="119.07" y="45.19" width=".5" height="3.25" style="fill: #1f9dd9;"/>
    <rect x="49.89" y="45.19" width=".5" height="3.25" style="fill: #1f9dd9;"/>
    <text transform="translate(65.83 57.11)" style="fill: #00a3cc; font-family: TrebuchetMS, &apos;Trebuchet MS&apos;; font-size: 10px;"><tspan x="0" y="0">25 mm</tspan></text>
    <text transform="translate(0 24.05)" style="fill: #00a3cc; font-family: TrebuchetMS, &apos;Trebuchet MS&apos;; font-size: 10px;"><tspan x="0" y="0">12 mm</tspan></text>
    <line x1="42.92" y1="42.62" x2="42.92" y2=".2" style="fill: none; stroke: #97bf0d; stroke-dasharray: 1 1 1 1; stroke-width: .5px;"/>
    <line x1="125" y1="42.62" x2="125" y2=".2" style="fill: none; stroke: #97bf0d; stroke-dasharray: 1 1 1 1; stroke-width: .5px;"/>
    <line x1="48.82" x2="48.82" y2="42.82" style="fill: none; stroke: #ee701e; stroke-dasharray: 2.04 2.04; stroke-width: .5px;"/>
    <line x1="119.12" x2="119.12" y2="42.82" style="fill: none; stroke: #ee701e; stroke-dasharray: 2.04 2.04; stroke-width: .5px;"/>
  </g>
</svg>