<?xml version="1.0" encoding="UTF-8"?>
<svg id="Layer_1" data-name="Layer 1" data-size="24mm x 50mm" xmlns="http://www.w3.org/2000/svg"
  viewBox="0 0 115.8 230.12">
  <text id="quantity" style="font-family: Arial-BoldMT, Arial; font-size: 15px; font-weight: 700; isolation: isolate;"
    y="97%" x="60%" text-anchor="middle"></text>
  <rect x="39.32" y=".16" width="68.03" height="161.54" style="fill: #1275b6;" />
  <rect x="39.32" y=".16" width="68.03" height="161.54"
    style="fill: none; stroke: #e50695; stroke-miterlimit: 10; stroke-width: .32px;" />
  <line x1="39.48" y1="176.52" x2="107.79" y2="176.52"
    style="fill: none; stroke: #00a6ce; stroke-dasharray: 2.19 2.19;" />
  <rect x="38.98" y="173.27" width="1" height="6.5" style="fill: #00a6ce;" />
  <rect x="107.29" y="173.27" width="1" height="6.5" style="fill: #00a6ce;" />
  <text transform="translate(54.3 195.23)"
    style="fill: #00a6ce; font-family: Barlow-Regular, Barlow; font-size: 14.33px;">
    <tspan x="0" y="0">24 mm</tspan>
  </text>
  <line x1="21.7" y1="12.73" x2="21.7" y2="79.85" style="fill: none; stroke: #00a6ce; stroke-dasharray: 2.19 2.19;" />
  <rect x="18.45" y="12.23" width="6.5" height="1" style="fill: #00a6ce;" />
  <rect x="18.45" y="79.35" width="6.5" height="1" style="fill: #00a6ce;" />
  <text transform="translate(12.18 63.78) rotate(-90)"
    style="fill: #00a6ce; font-family: Barlow-Regular, Barlow; font-size: 14.33px;">
    <tspan x="0" y="0">25 mm</tspan>
  </text>
  <line x1="21.7" y1="82.96" x2="21.7" y2="150.09" style="fill: none; stroke: #00a6ce; stroke-dasharray: 2.19 2.19;" />
  <rect x="18.45" y="82.46" width="6.5" height="1" style="fill: #00a6ce;" />
  <rect x="18.45" y="149.59" width="6.5" height="1" style="fill: #00a6ce;" />
  <text transform="translate(12.18 132.6) rotate(-90)"
    style="fill: #00a6ce; font-family: Barlow-Regular, Barlow; font-size: 14.33px;">
    <tspan x="0" y="0">25 mm</tspan>
  </text>
  <line x1="32.22" y1="9.07" x2="114.45" y2="9.07"
    style="fill: none; stroke: #38d430; stroke-dasharray: 2.19 2.19; stroke-width: .99px;" />
  <line x1="32.22" y1="151.47" x2="114.45" y2="151.47"
    style="fill: none; stroke: #38d430; stroke-dasharray: 2.19 2.19; stroke-width: .99px;" />
  <line x1="30.86" y1="81" x2="115.8" y2="81"
    style="fill: none; stroke: #e50695; stroke-dasharray: 2.19 2.19; stroke-width: .73px;" />
  <path
    d="M61.04,116.03c0,1.11-.39,2.05-1.16,2.83-.77.78-1.71,1.17-2.81,1.17s-2.04-.39-2.82-1.17c-.77-.78-1.16-1.72-1.16-2.84,0-.62.13-1.18.38-1.68.25-.54.61-1,1.06-1.37.74-.61,1.58-.92,2.5-.92.61,0,1.17.11,1.67.35.71.31,1.27.8,1.7,1.47.43.67.65,1.4.65,2.17M57.03,112.63c-.91,0-1.69.33-2.34,1-.65.67-.98,1.47-.98,2.4s.33,1.75.98,2.43c.65.67,1.44,1,2.37,1s1.7-.33,2.36-1c.65-.67.97-1.48.97-2.43,0-.51-.13-1.03-.38-1.57-.25-.51-.59-.91-1-1.21-.59-.42-1.25-.63-1.97-.63M58.59,114.01v1l-.12-.1c-.4-.32-.82-.47-1.23-.47-.45,0-.82.16-1.13.47-.31.31-.46.7-.46,1.15s.15.83.46,1.13c.32.3.69.46,1.14.46.4,0,.81-.16,1.23-.49l.12-.1v1.01c-.44.24-.89.36-1.36.36-.69,0-1.27-.23-1.75-.69-.48-.46-.72-1.02-.72-1.68s.24-1.23.74-1.7c.49-.47,1.08-.7,1.78-.7.44,0,.86.11,1.27.33l.04.02Z"
    style="fill: #fff;" />
  <path
    d="M62.34,119.88v-7.67h1.61c.77,0,1.38.08,1.83.23.48.15.92.4,1.31.76.79.72,1.19,1.67,1.19,2.85s-.41,2.13-1.24,2.86c-.41.36-.85.62-1.3.76-.43.14-1.03.21-1.81.21h-1.59ZM63.5,118.79h.52c.52,0,.95-.05,1.3-.16.35-.12.66-.3.94-.55.57-.52.85-1.2.85-2.03s-.28-1.52-.85-2.05c-.51-.47-1.25-.7-2.24-.7h-.52v5.5Z"
    style="fill: #fff;" />
  <path
    d="M69.35,113.02c0-.19.07-.36.21-.51s.31-.21.51-.21.38.07.52.21c.14.14.21.31.21.51s-.07.37-.21.52c-.14.14-.31.21-.51.21s-.38-.07-.52-.21-.21-.32-.21-.52M70.63,119.88h-1.12v-4.84h1.12v4.84Z"
    style="fill: #fff;" />
  <path
    d="M74.86,115.86l-.92.49c-.15-.3-.33-.45-.54-.45-.1,0-.19.03-.26.1-.07.07-.11.15-.11.26,0,.18.21.37.65.55.59.26.99.49,1.2.71.21.21.31.51.31.87,0,.47-.17.86-.52,1.17-.33.3-.74.45-1.21.45-.81,0-1.39-.4-1.72-1.19l.95-.44c.13.23.23.38.3.44.14.13.3.19.49.19.38,0,.57-.17.57-.52,0-.2-.14-.38-.44-.56-.11-.06-.22-.11-.34-.16-.11-.05-.23-.11-.34-.16-.32-.16-.55-.32-.69-.48-.17-.2-.25-.46-.25-.78,0-.42.14-.77.43-1.04.29-.27.65-.41,1.07-.41.62,0,1.08.32,1.38.96"
    style="fill: #fff;" />
  <path
    d="M76.18,115.04h1.12v.45c.39-.39.83-.58,1.32-.58.56,0,1,.18,1.32.53.27.3.41.79.41,1.48v2.97h-1.12v-2.7c0-.48-.07-.81-.2-.99-.13-.18-.36-.28-.71-.28-.37,0-.64.12-.79.37-.15.24-.23.66-.23,1.27v2.34h-1.12v-4.84Z"
    style="fill: #fff;" />
  <path
    d="M86.17,117.72h-3.47c.03.4.16.71.39.95.23.23.52.35.88.35.28,0,.51-.07.69-.2.18-.13.38-.38.61-.74l.94.53c-.15.25-.3.46-.46.64-.16.18-.34.32-.52.44-.18.12-.39.2-.6.25-.21.05-.45.08-.7.08-.72,0-1.3-.23-1.74-.7-.44-.47-.66-1.09-.66-1.86s.21-1.38.64-1.86c.43-.47.99-.7,1.7-.7s1.28.23,1.69.68c.41.45.62,1.08.62,1.87v.26ZM85.02,116.81c-.16-.6-.53-.89-1.13-.89-.14,0-.26.02-.38.06-.12.04-.23.1-.33.18-.1.08-.18.17-.25.28-.07.11-.12.23-.16.37h2.25Z"
    style="fill: #fff;" />
  <polygon
    points="88.75 118.98 86.57 115.04 87.87 115.04 89.35 117.82 90.73 115.04 91.99 115.04 88.13 122.51 86.86 122.51 88.75 118.98"
    style="fill: #fff;" />
  <path
    d="M70.53,29.38c-.16-.65-.76-1.48-1.64-2.16-1.57-1.21-4.17-2.13-6.3-1.5-.14.03-.39.36-.4.53-.02.2.33.28.61.22.07-.02.21-.03.18-.14-.11-.14-.29-.09-.39-.17.04-.07.14-.07.21-.1,1.37-.21,2.4,0,3.59.48,1.3.55,2.81,1.3,3.35,2.73.17.53.06,1.25-.41,1.59-.86.66-2.21.73-3.26.5-.02-.66.02-1.26.02-1.96.74.01,1.82.15,1.99.45.03.05-.02.15-.1.19-.16.08-.31.17-.28.23.04.08.37.21.51.14.19-.09.36-.27.43-.48.06-.18-.02-.44-.15-.57-.51-.5-1.93-.62-2.38-.6,0,0-.02-.66-.04-.89-.03-.39-.32-.67-.38-.54-.2.47-.23,1.15-.26,1.45-.2.03-.57.08-1.07.26-.28.1-.62.23-.88.47-.12.11-.15.34-.1.48.18.49,1.15,1.29,1.95,1.66.03.24.03.6.18.68.12.06.23.09.38.04.17-.05.17-.36.18-.45,1.22.33,2.64.28,3.67-.44.82-.62.95-1.48.79-2.12M65.32,31.17c-.58-.2-1.33-.63-1.69-1.14-.09-.14-.11-.26.15-.36.48-.18,1.24-.23,1.6-.23-.02.47-.05,1.17-.06,1.73"
    style="fill: #fff;" />
  <path
    d="M71.51,29.27c.09.75.1,2.21.02,2.39-.07.13-.27.14-.4.09-.28-.07-.21-.42-.24-.66.01-.7.02-1.41.16-2.07.03-.12.07-.17.18-.17.1,0,.26.25.28.42"
    style="fill: #fff;" />
  <path
    d="M72.26,30.95c.12.23.78.28,1.06.24.59-.08.92-.3.96-.48.07-.27-.35-.36-.64-.42-.52-.12-1-.04-1.52-.17-.14-.03-.2-.11-.21-.23-.03-.26.05-.54.23-.68.52-.39,2.14-.48,2.66-.21.09.05.05.19,0,.27-.12.16-.35.11-.56.13-.59.06-1.21,0-1.75.19-.09.03-.07.19.1.21.72.11,1.81.04,2.04.55.12.26.09.81-.1,1-.42.42-1.22.4-1.57.33-.23-.05-.81-.25-.97-.74-.03-.19.03-.33.15-.42.31-.23.69-.17,1.1-.11.24.03.63.18.66.24.05.11.02.22-.45.27-.49.04-.74-.4-1.1-.22-.07.03-.11.2-.08.25"
    style="fill: #fff;" />
  <path
    d="M75.63,29.14c.37.35.77,1.18,1.06,1.6.05.08.14.03.14-.05.01-.74-.29-1.32-.38-2,0-.06-.04-.2.03-.22.17-.02.32.19.42.32.36.45.55,1.33.46,2.01-.03.22-.15.68-.35.77-.1.04-.34.07-.42,0-.36-.26-.83-1.54-.97-1.53-.04,0-.07.05-.08.16-.04.36-.08,1.32-.08,1.32-.03.22-.19.2-.27.2-.14,0-.25-.08-.26-.16-.05-.32-.03-.78,0-1.1.05-.41.18-.95.34-1.25.08-.16.25-.16.34-.08"
    style="fill: #fff;" />
  <path
    d="M77.99,30.1l.21-.48c-.15-.03-.46-.17-.51-.42,0-.04.22-.1.31-.11.67-.07,1.13-.14,1.72-.11.13,0,.47.4.38.54-.06.1-.56.09-.75.08-.19,0-.56.03-.56.03l-.18.46c.29,0,.75-.06.87.03.05.03.06.27.03.32-.06.14-.38.09-.57.09s-.53.02-.53.02c.01-.03-.25.5-.19.62.05.1,1-.17,1.24-.13.15.03.26.28.16.37-.44.39-1.16.71-1.56.59-.37-.11-.54-.49-.46-.79.06-.24.19-.67.19-.67,0,0-.07-.04-.09-.31-.01-.11.29-.12.29-.12"
    style="fill: #fff;" />
  <path
    d="M82.62,29.37c-.1-.11-.31-.2-.47-.14-.43.15-.68.46-1.01.81-.21.24-.44.62-.59.84-.05-.04-.07-.18-.07-.29.08-.63.75-1.1.68-1.65-.01-.11-.27.13-.34.2-.45.49-.84,1.1-.76,1.81.03.24.17.48.17.48,0,0-.49.97-.64,1.62-.07.33-.09.67,0,.91.1.23.49.52.53.34.17-.83.44-1.67.7-2.44,0,0,.17.06.36.04.7-.06,1.35-.66,1.54-1.39.12-.41.13-.82-.11-1.14M82.02,30.91c-.25.2-.58.36-.85.34.14-.24.31-.53.5-.8.14-.19.43-.53.67-.66.07-.04.12.05.12.17,0,.38-.16.71-.44.96"
    style="fill: #fff;" />
  <path
    d="M72.98,26.67c-.09-.09-.26-.11-.4-.09-.06-.37-.83-.34-1.12-.26-.57.14-.94.5-1.15.89-.15.28-.07.69.13.82-.03.07-.03.2-.02.26.02.15.16.3.27.3.1,0,.19-.23.22-.26.26.07.55.13.86.06.62-.14,1.08-.57,1.27-.98.11-.25.13-.55-.06-.72M70.69,27.63c-.07-.08-.05-.24,0-.32.03-.07.1-.16.17-.23.11-.1.22-.17.35-.24.07-.03.22-.07.3-.04-.32.19-.64.54-.82.82M72,27.85c-.33.12-.74.07-.85.03.29-.48.81-.91,1.17-.96.19-.03.36-.03.4.12.06.22-.12.59-.72.82"
    style="fill: #fff;" />
  <path
    d="M59.66,48.37c-.49-.03-1.04.01-1.6.12l.85,3.84c2.03-.68,3.03-1.7,2.77-2.78-.23-.89-1.23-1.14-2.03-1.18M59.86,51.53l-.39-1.76c.36-.04.7-.06,1.02-.04.28.02.59.06.86.15.03.58-.51,1.17-1.49,1.65"
    style="fill: #fff;" />
  <path d="M81.35,41.06c.01-.31.02-.65.03-1l-3.7-5.16-.37.53,4.04,5.63Z" style="fill: #fff;" />
  <polygon points="76.75 38.75 75.93 40.3 77.59 40.29 76.75 38.75" style="fill: #fff;" />
  <path
    d="M84.59,40.72c.34-.03.9-.07,1.42-.12.05-1.66.11-3.25.14-4.02-.11-.51-.21-.93-.28-1.21l-.45-.03c-.13,0-.37-.02-.64-.03-.04.98-.15,4.36-.18,5.41"
    style="fill: #fff;" />
  <path d="M72.8,40.31c.56-.8,1.23-1.75,1.84-2.62l.21-1.67-1.48-.26-.57,4.56Z" style="fill: #fff;" />
  <path
    d="M91.08,39.75l-.28-1.26c.24-.02.48-.03.7-.02.24.01.5.05.73.13.08-.21.09-.43.04-.66-.18-.72-1.01-.92-1.66-.96-.4-.02-.84.01-1.29.09l.7,3.13c.41-.14.76-.3,1.06-.46"
    style="fill: #fff;" />
  <path d="M58.42,37.78c.07-.17.15-.33.24-.49-.39-.33-.9-.66-1.55-.93.54.37,1,.84,1.31,1.42" style="fill: #fff;" />
  <polygon points="70.26 38.86 70.3 38.52 66.44 35.21 66.4 35.55 70.26 38.86" style="fill: #fff;" />
  <path d="M65.67,37.1l.05-.51c-.3-.2-.63-.37-.98-.5.36.28.68.62.92,1.01" style="fill: #fff;" />
  <path
    d="M62.12,40.53s.09,0,.14,0c0,0,.01,0,.02,0-.03-.08-.05-.16-.05-.24-.02-.46.37-.86.87-.88.03,0,.07,0,.1,0,.13,0,.24.04.35.09.02-.11.04-.22.03-.33-.03-.67-.58-1.2-1.28-1.24-.05,0-.09,0-.14,0-.75.03-1.34.64-1.31,1.36.03.66.59,1.21,1.28,1.25"
    style="fill: #fff;" />
  <path
    d="M54.43,41.17l-.28-1.26c.24-.02.48-.03.7-.02.24.01.5.05.73.13.08-.21.09-.44.04-.66-.18-.72-1.01-.92-1.66-.96-.4-.02-.84.01-1.29.09l.7,3.13c.41-.14.76-.3,1.06-.46"
    style="fill: #fff;" />
  <path
    d="M89.71,55.74c-.89.13-1.51,1.26-1.39,2.5.13,1.25.96,2.16,1.85,2.03.08-.01.16-.03.24-.06.02,0,.04-.01.06-.02,0,0,.01,0,.02,0,.02,0,.04-.02.05-.02,0,0,.01,0,.02-.01.02,0,.03-.02.05-.03,0,0,.01,0,.02-.01.02-.01.03-.02.05-.03,0,0,.01,0,.02-.01.01-.01.03-.02.04-.03,0,0,.02-.01.02-.02.02-.01.03-.02.04-.03,0,0,.01-.01.02-.02.02-.01.03-.02.04-.04,0,0,.01-.01.02-.02.02-.01.03-.03.04-.04,0,0,0,0,.01-.01.05-.05.1-.11.15-.17,0,0,0,0,0,0,.01-.02.02-.03.03-.05,0,0,.01-.02.02-.03.01-.02.02-.03.03-.04,0-.01.01-.02.02-.03.01-.01.02-.03.03-.05,0-.01.01-.02.02-.03,0-.02.02-.03.02-.05,0-.01.01-.02.02-.04,0-.01.02-.03.02-.05,0-.01.01-.03.02-.04,0-.02.01-.03.02-.05,0-.01.01-.03.02-.04,0-.02.01-.03.02-.05,0-.01.01-.03.02-.04,0-.02.01-.03.02-.05,0-.02.01-.03.02-.05,0-.01.01-.03.02-.04,0-.02.01-.05.02-.07,0-.02.01-.04.02-.05,0-.02.01-.04.02-.07,0-.01,0-.03,0-.04,0-.02,0-.04.01-.06v-.04s.02-.04.02-.06c0-.02,0-.03,0-.05,0-.02,0-.04,0-.06,0-.02,0-.03,0-.05,0-.02,0-.04,0-.06,0-.02,0-.03,0-.05,0-.02,0-.04,0-.06,0-.02,0-.03,0-.05,0-.02,0-.04,0-.06v-.05s0-.04,0-.07c0-.01,0-.03,0-.04,0-.02,0-.05,0-.07,0-.01,0-.03,0-.04,0-.04,0-.07,0-.11h0s-.01-.09-.02-.14c0-.01,0-.02,0-.04,0-.04-.01-.07-.02-.11,0,0,0-.02,0-.03-.02-.09-.04-.18-.07-.27-.28-.93-.99-1.56-1.75-1.45M90.93,57.08c.1.22.17.47.2.75.1.97-.35,1.81-1.01,1.91,0,0-.01,0-.01,0-.1-.22-.17-.47-.2-.75-.1-.95.35-1.81,1-1.9,0,0,.02,0,.03,0"
    style="fill: #fff;" />
  <path
    d="M85.69,53.76c-.98-.71-2.13-.83-3.4-.33-1,.39-1.76,1.1-2.25,2.12-.47.96-.58,1.93-.31,2.87.23.81.7,1.4,1.41,1.75.56.28,1.23.38,2.01.31-.4.79-.91,1.5-1.54,2.1l-.45.42,2.2,1.49.21-.21c.93-.93,1.78-2.22,2.51-3.83.9-1.99,1.17-3.67.8-4.97-.2-.72-.61-1.3-1.19-1.72M85.72,60.23c-.71,1.59-1.51,2.81-2.42,3.7l-1.45-.99c.88-.82,1.55-1.83,2-3.04-1.04.24-1.9.2-2.57-.16-.6-.3-.99-.77-1.18-1.46-.23-.8-.14-1.64.28-2.49.44-.92,1.11-1.55,2.03-1.9,1.15-.45,2.17-.35,3.06.28.5.37.84.86,1.02,1.48.33,1.18.08,2.72-.77,4.59"
    style="fill: #fff;" />
  <path
    d="M85.47,54.16c.5.37.84.86,1.02,1.48.02.09.04.17.06.26.14-.4.32-.78.54-1.11-.08-.07-.17-.15-.26-.21-.52-.38-1.08-.58-1.69-.62.11.06.22.13.33.21"
    style="fill: #fff;" />
  <path
    d="M84.62,56.63c-.01-.09-.04-.18-.06-.27-.14-.49-.36-.81-.66-.95-.13-.06-.29-.09-.45-.08-.04,0-.08,0-.13.01-.09.01-.18.03-.28.06-.39.12-.68.31-.88.57-.06.07-.1.15-.14.24-.04.08-.07.17-.1.27-.06.24-.07.52-.04.83.02.11.05.21.08.32.1.35.26.59.51.74.08.05.17.09.27.11.04,0,.07.02.11.02.01,0,.02,0,.04,0,.03,0,.05,0,.08,0,.01,0,.03,0,.04,0,.03,0,.06,0,.09,0,0,0,.02,0,.03,0,.04,0,.07,0,.11,0,.02,0,.03,0,.05,0,.02,0,.05,0,.07-.01.02,0,.04,0,.05-.01.02,0,.05-.01.07-.02.02,0,.03,0,.05-.01.08-.02.17-.06.26-.09.69-.42.97-.99.84-1.72M83.61,57.92l-.1.04s-.06.02-.1.03c-.07-.66.15-1.05.71-1.27l.08-.03s0,.03,0,.04c.07.35.05.78-.61,1.18"
    style="fill: #fff;" />
  <path
    d="M83.19,61.28c.26-.43.48-.89.67-1.38-1.04.24-1.9.19-2.57-.16-.12-.06-.23-.12-.33-.2.25.66.69,1.15,1.31,1.46.28.14.58.23.92.28"
    style="fill: #fff;" />
  <path
    d="M86.29,58.75c-.14.47-.33.96-.57,1.48-.7,1.59-1.51,2.81-2.41,3.7l-.65-.44-.36.35,2.2,1.49.21-.21c.93-.93,1.78-2.22,2.51-3.83.01-.03.02-.05.03-.08-.48-.66-.82-1.5-.96-2.45"
    style="fill: #fff;" />
  <path
    d="M53.96,38.41c-.4-.02-.84.01-1.29.09l.7,3.13c1.65-.57,2.46-1.39,2.25-2.27-.19-.73-1.01-.92-1.66-.96M53.75,41.07l-.47-2.13c.25-.02.48-.03.7-.02.5.03,1.13.16,1.24.6.13.53-.42,1.09-1.47,1.54"
    style="fill: #fff;" />
  <path d="M75.93,40.3h1.66s-.83-1.55-.83-1.55l-.83,1.55ZM76.86,39.88h-.12s.06-.11.06-.11l.06.11Z"
    style="fill: #fff;" />
  <path
    d="M90.61,36.99c-.4-.02-.84.01-1.29.09l.7,3.13c1.65-.57,2.46-1.39,2.25-2.27-.19-.73-1.01-.92-1.66-.96M90.4,39.64l-.47-2.13c.25-.02.48-.03.7-.02.5.03,1.13.16,1.24.6.13.53-.42,1.09-1.47,1.54"
    style="fill: #fff;" />
  <path
    d="M62.29,37.93s-.09,0-.14,0c-.75.03-1.34.64-1.31,1.36.03.66.59,1.21,1.28,1.25.05,0,.09,0,.14,0,.75-.03,1.34-.65,1.31-1.37-.03-.67-.58-1.2-1.28-1.24M62.29,40.12s-.06,0-.1,0c-.46-.02-.83-.38-.85-.81-.02-.46.37-.86.87-.88.03,0,.07,0,.1,0,.46.03.83.37.84.8.02.47-.37.87-.87.89"
    style="fill: #fff;" />
  <path
    d="M95.19,58.17c-.27-2.63-1.99-4.61-4-4.72.27.14.54.31.78.53,0,0,0,0,.01.01.1.09.19.18.28.27,0,0,.02.02.02.03.03.03.06.06.08.09,0,0,.01.02.02.02.05.06.1.12.14.18.01.01.02.03.03.04.02.03.05.06.07.09l.04.06s.06.09.09.14c.02.03.03.05.05.08.02.03.03.06.05.08.02.03.03.05.05.08.02.03.03.05.05.08.03.05.05.1.08.15.01.02.02.05.03.07.02.04.04.07.05.11.01.02.02.05.03.07.02.05.04.1.06.15,0,.02.02.04.02.06.02.05.04.1.06.15,0,.02.02.04.02.07.02.05.03.1.05.15,0,.02.01.03.02.05.02.06.04.13.06.19,0,.02,0,.04.01.06.01.05.03.1.04.16,0,.02,0,.04.01.05.02.07.03.14.04.21,0,.01,0,.03,0,.04.01.06.02.12.03.18,0,.02,0,.04,0,.06,0,.07.02.15.03.22h0c.06.58.04,1.14-.06,1.68-.01.08-.03.15-.04.23-.03.15-.07.3-.11.44-.21.72-.56,1.36-1.01,1.86-.54.6-1.21,1.01-1.98,1.12h0c-.06,0-.13.02-.19.02-.02,0-.04,0-.05,0-.05,0-.09,0-.14,0-.02,0-.04,0-.06,0-.04,0-.09,0-.13,0-.02,0-.04,0-.05,0-.04,0-.09,0-.13-.01-.01,0-.03,0-.05,0-.05,0-.09-.01-.14-.02-.01,0-.02,0-.04,0-.05-.01-.1-.02-.14-.03-.01,0-.02,0-.03,0-.05-.01-.1-.03-.15-.04,0,0-.02,0-.02,0-.05-.02-.1-.04-.15-.06,0,0-.01,0-.02,0-.05-.02-.11-.04-.16-.07,0,0,0,0,0,0-.06-.02-.11-.05-.16-.08,0,0,0,0,0,0-.05-.03-.11-.06-.16-.09-.28-.17-.54-.38-.77-.63.85,1.63,2.36,2.61,3.96,2.37,2.28-.33,3.87-2.97,3.58-5.89"
    style="fill: #fff;" />
  <path d="M83.7,55.35c-.2-.04-.42-.03-.68.05-.45.14-.76.37-.95.69.07-.02.14-.05.2-.07.56-.21,1.01-.42,1.43-.67"
    style="fill: #fff;" />
  <path
    d="M96.24,41.24c.52-.92.71-1.91.57-2.84-.17-1.06-.73-1.89-1.47-2.51-.91-1.39-2.63-2.15-4.09-2.39-.18-.03-.38-.05-.58-.06-1.25-.07-2.86.22-4.79.86l-.55.18v-.07s-.78-.05-.78-.05c-.24-.01-.8-.03-1.3-.05-.52-.02-1.05-.04-1.26-.05l-.82-.05v.77c-.02.24-.1,2.6-.18,4.77l-4.17-5.82-.6.85c-.13.19-1.44,2.04-2.68,3.81l.44-3.55-3.62-.64-.4,3.59-4.39-3.76-.19,1.79c-.77-.7-1.77-1.14-2.85-1.19-.15,0-.3,0-.46,0-1.52.07-2.88.87-3.66,2.11-.59-.71-1.75-1.67-3.8-2-.19-.03-.38-.05-.59-.06-1.25-.07-2.86.22-4.79.85l-.63.21.14.65c.03.14.28,1.22.65,2.85v.05c.47,2.02,1.17,5.07,1.21,5.26l.12.62.63-.03s.03,0,.04,0c.05.22.08.36.09.39l.12.62.63-.03c.47-.02.93-.07,1.37-.14v.02c.04.18.39,1.68.78,3.42v.02c.59,2.56,1.39,6.06,1.43,6.29l.12.62.58-.03c.03.14.05.23.06.26l.12.62.63-.03c2.71-.12,5.22-1.05,6.5-1.93.64-.44,1.22-1,1.69-1.63.27.41.58.78.94,1.1.26.36.57.69.9.98.48.41,1.03.73,1.64.94h.01c.39.13.79.2,1.2.23.25.01.5,0,.76-.02h0c.71-.08,1.36-.29,1.93-.62.55-.31,1.03-.73,1.44-1.25.37-.48.66-1.04.87-1.66.16.18.32.36.5.52.54.74,1.26,1.35,2.1,1.76.69.35,1.43.54,2.19.58.05,0,.09,0,.14,0,.06-.19.14-.39.23-.59.19-.41.44-.76.72-1.05-.63.22-1.27.31-1.93.27-.7-.04-1.37-.22-2.01-.53-1.28-.62-2.26-1.75-2.67-3.09-.1-.31-.16-.63-.19-.95,0,.03,0,.07,0,.1-.08,1.36-.49,2.55-1.18,3.45-.36.46-.8.84-1.3,1.13-.52.3-1.11.49-1.76.56-.24.02-.47.03-.69.02-.37-.02-.73-.09-1.08-.2-.56-.2-1.06-.49-1.5-.86-.91-.77-1.54-1.86-1.79-3.07,0-.05-.02-.09-.02-.14-.48,1.13-1.35,2.1-2.28,2.73-1.23.84-3.64,1.74-6.26,1.85h-.24s-.05-.22-.05-.22c-.05-.23-.82-3.61-1.44-6.32-.4-1.74-.74-3.24-.78-3.41l-.05-.24.24-.08c2.23-.73,4.07-1.07,5.49-.99.22.01.43.03.63.07,1.87.3,4.13,1.37,4.87,3.4.2-1.08.51-2.15.83-3.01l.09-.24,3.04.93-.08.27c-.18.58-.76,2.55-.74,3.69,0,.57.12,1.04.35,1.37.21.3.51.47.87.49h.01s.03,0,.04,0c.17,0,.49-.01.82-.24.35-.27.57-.71.66-1.32.09-.56.06-1.29-.08-2.19-.09-.63-.23-1.23-.34-1.67l-.07-.29,3.23-.56.06.25c.12.49.46,2,.49,3.68.08-.64.28-1.27.6-1.88.71-1.3,1.88-2.27,3.21-2.66.82-.24,1.74-.35,2.6-.3.25.01.5.04.74.08l.26.04-.32,2.9-.27-.03c-.09,0-.18-.02-.26-.02-.5-.03-.93.02-1.3.13-1.11.34-1.71,1.5-1.36,2.63.15.52.52.95,1.02,1.22.27.15.55.23.85.24.26.01.51-.02.77-.1.46-.14.82-.34,1.26-.71l.2-.17,1.86,2.05-.2.19c-.27.26-.53.47-.79.67.76-.13,1.45,0,2.08.38l-2.61-8.83.26-.08c.21-.06.9-.27,1.57-.46.65-.19,1.33-.39,1.53-.45l.27-.08.97,3.29,2.17-3.67c.17-.03.34-.06.51-.09.3.18,1.01.59,1.6.93.36.21.67.39.8.47l.24.14-.15.24c-.2.32-1.42,2.39-1.81,3.06l3.79,2.8-.19.22c-.27.33-1.54,1.94-1.79,2.25l-.17.21-3.94-2.95c.22.75.54,1.82.66,2.22.15-.05.3-.08.45-.11.14-.02.29-.03.43-.03-.02-.07-.04-.14-.06-.22l.31.23c1.17.11,2.22.92,2.87,2.15h.02s.44-.56.44-.56c.24-.31,1.51-1.92,1.78-2.24l.5-.6-.66-.49.11-.13-3.21-2.37c.51-.87,1.35-2.29,1.51-2.55l.4-.64-.65-.38s-.03-.02-.04-.02l.13-.21-.65-.38c-.11-.06-.36-.21-.65-.38.99-.31,1.83-.7,2.39-1.09.75-.51,1.41-1.23,1.85-2.01M85.29,35.14l.02-.35.08.36c.03.15.31,1.37.63,2.79,0,0,.35,1.51.51,2.21-.45.04-1.01.08-1.41.12.08-2.41.16-4.88.18-5.13M65.63,45.09c-.22.59-.42,1.23-.58,1.87-1.09-1.49-3-2.29-4.62-2.56-.21-.03-.44-.06-.68-.07-.49-.03-1.03,0-1.62.06.54-.44,1.01-.98,1.37-1.56.79,1.03,2.01,1.69,3.37,1.77.15,0,.3,0,.45,0,.7-.03,1.37-.21,1.97-.53l.21.02-.1.89.26.02-.03.09ZM70.59,48.07h0c.14.86.17,1.55.08,2.06-.08.48-.24.82-.48,1.02-.21.14-.42.16-.52.15,0,0-.01,0-.02,0-.03-.16-.05-.35-.05-.55h0c-.01-.86.36-2.4.72-3.56l.07-.21c.08.33.15.71.21,1.09M70.07,45.68l.17.72-.65-.2.17-.57-1.17-.36.46.04.24-2.91,3.33,2.83-2.55.44ZM78.1,44.44c-1.15.34-2.19,1.07-2.95,2.06,0,0,0-.02,0-.02l-.16-.67-.54.09c-.03-.11-.05-.2-.07-.28l-.16-.67-.49.09.06-.47c.47.19,1.05.43,1.21.49l.64.27.67-1.35,2.43-.02.16.28c-.27.05-.54.11-.79.19M79.16,44.21h.04s0,0,0,0c-.01,0-.03,0-.04,0M82.68,48.96l.19-1.71,1.48,4.99-1.88-2.07-.54.45c-.39.33-.7.5-1.1.62-.2.06-.4.09-.61.08-.23-.01-.45-.08-.66-.19h0s-.02-.07-.03-.1c-.27-.89.2-1.79,1.06-2.05.31-.1.7-.13,1.14-.11.08,0,.16.01.24.02l.72.07ZM82.27,44.93l.02-.18h.17c.06.01.17.02.32.03l-.51.16ZM87.74,45.91l-.27-.91.5.04.17-.61.1.48h.09s-.59,1-.59,1ZM93.21,41.84c-1.04.71-3.07,1.47-5.28,1.56h-.24s-.05-.22-.05-.22c-.02-.09-.17-.74-.37-1.64l-.57,1.99-.23-.02s-.1,0-.21-.01c-.54-.03-1.95-.1-3.07-.15-.8-.04-1.47-.07-1.65-.08l-.3-.02v-.28s.02-.1.02-.21c-.73.3-1.76.72-1.98.81l-.23.1-.67-1.2-3.32.03-.61,1.22-.24-.1c-.19-.08-1.07-.44-1.77-.72l-.15,1.24-4.33-3.69-.27,3.34-2.73-.25.18-1.66c-.7.72-1.68,1.19-2.79,1.24-.14,0-.27,0-.41,0-1.53-.08-2.82-.98-3.43-2.25-.4,1-1.16,1.86-1.97,2.41-1.04.71-3.07,1.46-5.28,1.56h-.24s-.05-.22-.05-.22c-.04-.2-.72-3.16-1.21-5.32-.35-1.51-.62-2.71-.65-2.85l-.05-.24.24-.08c1.88-.62,3.43-.9,4.62-.83.19.01.37.03.54.06,1.44.24,3.16,1.01,3.93,2.45.56-1.43,1.95-2.47,3.62-2.54.14,0,.28,0,.41,0,1.37.07,2.55.8,3.22,1.86l.21-1.99,4.38,3.76.44-3.97,2.71.48-.61,4.95c1.43-2.05,3.57-5.08,3.74-5.32l.22-.32,4.58,6.39c.08-2.28.2-5.81.21-6.13v-.29s.35.02.35.02c.22.01.76.03,1.28.05.52.02,1.06.04,1.29.06l.33.02v.27c-.03.34-.17,4.48-.21,5.65.6-.05,1.92-.16,2.46-.2-.19-.85-.41-1.78-.6-2.64-.33-1.46-.62-2.72-.65-2.87l-.05-.24.24-.08c1.88-.62,3.43-.9,4.62-.83.19.01.37.03.54.06,1.77.29,3.96,1.39,4.3,3.53.28,1.81-.91,3.51-2.22,4.4"
    style="fill: #fff;" />
  <path
    d="M85.92,54.58c.26.3.45.66.56,1.06,0,.03.02.07.02.1h.01s.06-.02.1-.03c.25-.65.62-1.21,1.07-1.65-.12.04-.25.07-.38.11-.53.16-1.08.32-1.38.4"
    style="fill: #fff;" />
  <path
    d="M94.05,57.35c-.3-2.91-2.38-5.02-4.66-4.69-1.33.19-2.43,1.19-3.05,2.57.06.13.11.26.15.41.02.08.04.17.06.26.51-1.46,1.58-2.55,2.89-2.74,2.03-.3,3.91,1.62,4.18,4.26.27,2.64-1.17,5.04-3.2,5.33-1.95.28-3.77-1.49-4.13-4-.08.26-.17.53-.28.8.61,2.39,2.47,3.98,4.46,3.69,2.28-.33,3.87-2.97,3.58-5.89"
    style="fill: #fff;" />
</svg>