<?xml version="1.0" encoding="UTF-8"?>
<svg id="Layer_1" data-name="Layer 1" data-size="34mm x 26mm" xmlns="http://www.w3.org/2000/svg"
  viewBox="0 0 165.81 157.36">
  <text id="quantity" style="font-family: Arial-BoldMT, Arial; font-size: 15px; font-weight: 700; isolation: isolate;"
    y="97%" x="58%" text-anchor="middle"></text>

  <g>
    <line x1="53.38" y1="106.76" x2="150.67" y2="106.76"
      style="fill: none; stroke: #715091; stroke-dasharray: 2.19 2.19;" />
    <rect x="52.88" y="103.51" width="1" height="6.5" style="fill: #715091;" />
    <rect x="150.16" y="103.51" width="1" height="6.5" style="fill: #715091;" />
    <text transform="translate(79.89 125.47)"
      style="fill: #715091; font-family: Barlow-Regular, Barlow; font-size: 14.33px;">
      <tspan x="0" y="0">34 mm</tspan>
    </text>
    <rect x="52.45" y=".2" width="98.25" height="91.14" style="fill: #b31983;" />
    <rect x="52.45" y=".2" width="98.25" height="91.14" style="fill: none; stroke: #231f20; stroke-width: .4px;" />
    <line x1="165.81" y1="4.4" x2="36.81" y2="4.4" style="fill: none; stroke: #38d430; stroke-dasharray: 4 2;" />
    <line x1="165.81" y1="86.65" x2="36.81" y2="86.65" style="fill: none; stroke: #38d430; stroke-dasharray: 4 2;" />
    <line x1="165.81" y1="45.06" x2="36.81" y2="45.06"
      style="fill: none; stroke: #e50695; stroke-dasharray: 2.19 2.19; stroke-width: .73px;" />
    <path
      d="M94.83,23.73c-.12-.41-.3-.82-.76-.89-.27.06-.42.33-.47.53-.33,1.92-.38,3.92-.35,5.96.03.7-.09,1.71.77,1.89.41.12.82,0,1.15-.27.11-2.3-.07-4.41-.22-6.62-.03-.27-.09-.5-.12-.61"
      style="fill: #fff;" />
    <path
      d="M118.45,24.7c.41-.03,1.53.03,2.07-.41.06-.65-.53-1.24-1.12-1.51-1.8-.12-3.52.26-5.23.47-.16.02-.47.06-.47.3.15.77.92.91,1.51,1.06l-.03.09-.47,1.43h-.12s-.23.02-.23.02c-.05,0-.1.02-.15.03-.2.06-.43.16-.36.4.56,1.12-.56,1.89-.44,3.01.08.73.46,1.49,1.11,1.86.1.04.24.1.43.12,1.72.15,3.12-.75,4.42-1.77.15-.33-.09-.74-.3-1-1.24-.27-2.42.29-3.66.38h0s-.1,0-.1,0c.13-.32.36-1,.62-1.79.16-.02.47-.04.73-.02.25,0,.52.03.67.03.6,0,1.2.05,1.64-.27.07-.06.09-.14.09-.18.02-.21.08-.61-.08-.84-.74-.27-1.65-.15-2.45-.15h-.11s.38-1.21.38-1.21l1.65-.06Z"
      style="fill: #fff;" />
    <path
      d="M127.95,23.69c-.06-.07-.12-.12-.16-.16-.2-.16-.44-.25-.69-.26-.2,0-.46.13-.59.2-.97.56-1.82,1.35-2.6,2.26-.02.02-.03.03-.04.05-.46.56-1.1,1.4-1.74,2.45-.18-.2-.18-.63-.16-.89.21-1.8,2.03-3.01,1.82-4.88-.34-.02-.56.29-.79.51-.08.09-.17.18-.26.28-1.28,1.6-2.3,3.41-2.02,5.59.05.29.16.61.29.87.05.11.11.2.15.26-.3.63-.59,1.31-.82,2.02-.34,1.15-.66,2.32-.85,3.54-.06.28-.14.81-.08,1.28.01.14.04.28.1.41.29.62.98,1.3,1.65,1.21.21-1.56.57-3.06,1-4.54.23-.74.53-1.62.92-2.56.89.15,1.61-.11,1.61-.11,1.86-.65,3.62-2.42,4.03-4.34.29-1.17-.04-2.29-.76-3.2M127.61,25.82h0c-.01.94-.39,1.76-1.11,2.4-.7.56-1.53,1-2.44,1,.04-.08.09-.16.13-.25.21-.36.42-.72.63-1.09.52-.84,1.11-1.66,1.78-2.41.02-.02.04-.04.05-.06.01-.02.03-.03.04-.05.14-.15.28-.3.43-.44.04-.03.1-.06.15-.05h0c.15.03.21.21.26.37.03.12.07.33.07.57h0Z"
      style="fill: #fff;" />
    <path
      d="M99.2,16.59h0s-.08-.09-.12-.12h0s-.24-.24-.57-.35c-.04-.01-.07-.02-.1-.03-.15-.04-.29-.04-.38-.04-.03,0-.06,0-.1,0-.11-.35-.53-.57-.53-.57-.29-.16-.61-.24-.91-.27h-.04c-.71-.08-1.26.01-1.69.12-.34.09-.64.22-.82.3-1.67.83-2.31,1.79-2.55,2.36,0,.02-.02.03-.02.04-.03.07-.05.13-.07.2-.03.1-.05.17-.05.21-.15.72.02,1.5.56,2.04,0,.07,0,.27,0,.47,0,.11.02.25.05.38.02.08.05.16.09.26.13.27.25.36.46.36.38.03.56-.59.68-.74.74.23,1.62.39,2.42.15.56-.18,1.03-.41,1.53-.74.82-.54,1.57-1.22,2.1-2.1.17-.29.24-.58.28-.76.08-.45.04-.85-.23-1.17M92.54,19.07s-.06.08-.09.12c-.16-.14-.13-.36-.07-.57.05-.16.11-.27.13-.31.12-.21.3-.42.47-.6.27-.27.59-.49.92-.68.06-.03.15-.08.24-.11,0,0,.02-.01.03-.01.09-.03.29-.09.58-.06h0c.06,0,.12.02.18.03-1.18.78-2.1,1.84-2.39,2.19M97.26,19.21c-.26.18-.53.29-.8.41-.83.3-1.68.45-2.54.3.73-1.15,1.89-2.28,3.15-2.76.07-.02.2-.06.35-.09.36-.03.78-.06.9.37.15.77-.5,1.36-1.06,1.77"
      style="fill: #fff;" />
    <path
      d="M110.97,22.4c-.24-.34-.65-.97-1.18-1-.21.09-.21.38-.18.56.38,1.94,1.14,3.71,1.15,5.79,0,.08,0,.22-.02.3-.03.08-.07.16-.15.16-1.17-1.57-1.96-3.34-3.39-4.78-.06-.06-.11-.09-.13-.1-.23-.1-.44.02-.61.2-.04.06-.13.18-.23.4-.45,1.06-.67,2.24-.83,3.41-.09.6-.35,2.24.06,3.16.18.33.5.65.89.62.26-.03.47-.35.56-.62l.29-4.78.12.21c.97,1.56,1.47,3.33,3.01,4.57.22.14.5.11.74.02.15-.05.36-.15.54-.3.53-.42.81-1.16.88-1.75.26-2.24-.3-4.33-1.51-6.08"
      style="fill: #fff;" />
    <path
      d="M104.6,23.37s-.02-.08-.05-.11c-.02-.02-.05-.04-.08-.05-2.23-.92-5.33-.65-7.41.49-.63.33-.92.94-.97,1.63,0,.11,0,.41.13.66.11.18.25.34.42.43.03.01.07.03.12.04.68.14,1.41.2,2.14.24.37.03.63.04.63.04,1.38.12,2.02.29,2.02.29h0c.55.15,1.31.28,1.46.96,0,.03,0,.05,0,.08-.46.74-1.85,1-2.78,1.15-.61.07-2.16.33-2.91-.29-.1-.09-.13-.19-.13-.25,0-.02,0-.03,0-.05h0c0-.11.04-.22.11-.32.01-.01.04-.06.1-.09.98-.57,2.22.64,3.21.52,1-.1,1.32-.34,1.42-.55.08-.16.05-.27.05-.27-.35-.29-1.15-.53-1.8-.65-.92-.13-2.23-.33-3.15.23-.01,0-.19.12-.31.29-.18.26-.31.58-.32.92,0,.06,0,.15.04.25.47,1.18,1.7,1.8,2.82,2.06,1.52.24,3.17.04,4.29-.97h0c.21-.19.33-.36.39-.46.28-.56.37-1.46.19-2.16-.05-.2-.14-.35-.21-.45-1.16-1.54-3.32-1.11-5.14-1.4-.23-.03-.55-.09-.83-.18-.18-.05-.28-.1-.33-.13-.02,0-.03-.02-.05-.03,0,0,0,0,0,0-.04-.03-.07-.07-.09-.12,0-.03.01-.05.03-.06,1.58-.64,3.49-.55,5.24-.76.56-.08,1.14-.06,1.53-.49.01-.01.03-.03.05-.06,0,0,0,0,0,0,0,0,0,0,0,0,.04-.05.08-.12.11-.21.02-.05.02-.09.03-.12v-.02s0-.02,0-.02h0Z"
      style="fill: #fff;" />
    <path
      d="M92.07,25.27h0s-.29-3.19-4.78-6.58c-.03-.02-.06-.05-.09-.07-.02-.01-.03-.02-.05-.03-.31-.23-.65-.47-1-.7-1.42-.94-2.89-1.65-4.06-2.16-3.46-1.52-8.53-2.59-13.06-1.21-.65.23-.89.86-1.1,1.45-.02.09-.05.25,0,.35.24.26.63.29,1.01.3.16,0,.5,0,.73-.04.14-.03.27-.09.27-.25,0-.04-.01-.06-.03-.08-.29-.37-.76-.22-1.07-.4-.01-.01-.01-.02,0-.03.01-.02.03-.05.05-.06h0c.11-.1.3-.16.46-.19,0,0,.06-.01.07-.02.03,0,.06-.01.1-.01.04,0,.06,0,.06,0,3.66-.58,7.21.1,10.38,1.26,3.64,1.48,7.88,3.72,9.58,7.69.04.1.09.23.13.37,0,.01,0,.02.01.04,0,.03.01.05.02.08.02.08.04.16.05.24,0,.02,0,.04.01.05.26,1.39-.06,2.92-1.22,3.87-2.51,2.01-6.08,2.18-9.23,1.59l-.08-4.48c0-.23,0-.74,0-.98,0-.08,0-.04,0-.13.42,0,.54,0,.67,0,1.42.06,3.43.32,4.92,1.06.02.02.06.05.06.1h0s0,.02,0,.03c-.02.09-.05.17-.1.24,0,0,0,0,0,0-.02.03-.04.06-.05.09-.12.17-.19.23-.21.25-.26.22-.65.33-.65.67,0,.03,0,.03.04.05.3.13.66.19.99.2.05,0,.23,0,.41-.1.5-.27,1.08-.71,1.21-1.27.14-.5-.03-.93-.25-1.32-.14-.23-.35-.42-.46-.51-1.23-.94-2.73-1.3-4.27-1.42-.93-.08-1.63-.07-2.03-.05h-.22s-.09.02-.1.02l-.06-2.55c-.09-.65-.44-1.41-1.12-1.65-.71,1.3-.73,4.17-.79,4.4-.08.02-.17.04-.25.05-.47.08-.97.19-1.5.34-.44.11-.88.23-1.31.4-.8.32-1.6.72-2.3,1.38-.05.05-.11.12-.16.19-.16.26-.27.59-.21.91,0,.03.03.12.08.22,1.22,2.09,3.43,3.66,5.5,4.62.15.74.15,1.53.62,2.07.41.11.87.05,1.18-.03.41-.17.39-.74.42-1.13.03,0,.03,0,.05,0,3.6.86,7.55.53,10.44-1.59,1.81-1.35,2.69-3.35,2.33-5.54M76.93,30.01c-1.76-.64-3.61-1.58-4.82-3.27-.02-.03-.03-.06-.04-.08,0,0,0,0,0,0,0,0,0,0,0,0-.05-.32.33-.56.58-.64.68-.23,1.42-.39,2.15-.5,1.29-.2,2-.23,2.3-.26,0,1.59-.12,3.15-.18,4.77"
      style="fill: #fff;" />
    <path
      d="M84.15,61.46c1.83,0,3.27,1.5,3.27,3.36s-1.44,3.38-3.28,3.38-3.31-1.51-3.31-3.38,1.46-3.36,3.31-3.36h.01ZM84.14,61.9c-1.55,0-2.75,1.29-2.75,2.94s1.2,2.9,2.77,2.9c1.54.02,2.74-1.27,2.74-2.93s-1.2-2.91-2.74-2.91h-.01ZM85.47,63.59c-.14-.09-.54-.26-1.07-.26-1.01,0-1.51.66-1.51,1.53s.53,1.54,1.52,1.54c.44,0,.86-.12,1.11-.28l.13.42c-.38.25-.89.34-1.34.34-1.26,0-1.99-.87-1.99-1.97,0-1.24.98-2.03,2.08-2.03.57,0,1.05.17,1.2.3l-.13.44Z"
      style="fill: #fff;" />
    <path
      d="M88.64,61.27c.59-.09,1.27-.15,2.03-.15,1.36,0,2.33.31,2.98.91.66.6,1.04,1.46,1.04,2.65s-.38,2.18-1.05,2.86c-.7.69-1.84,1.05-3.26,1.05-.69,0-1.25-.02-1.73-.09v-7.22ZM89.59,67.78c.24.04.59.04.96.04,2.03.02,3.13-1.13,3.13-3.11.01-1.75-.97-2.83-2.98-2.83-.49,0-.86.04-1.11.1v5.81Z"
      style="fill: #fff;" />
    <path
      d="M96.35,62.28c-.36,0-.6-.28-.6-.62s.25-.61.62-.61.61.27.61.61-.24.62-.62.62h-.01ZM95.89,63.25h.96v5.28h-.96v-5.28Z"
      style="fill: #fff;" />
    <path
      d="M98.31,67.55c.3.17.8.37,1.28.37.69,0,1.01-.34,1.01-.78s-.27-.71-.97-.97c-.96-.34-1.41-.86-1.41-1.49,0-.85.7-1.55,1.83-1.55.53,0,1,.14,1.28.32l-.23.68c-.21-.12-.59-.3-1.08-.3-.56,0-.87.33-.87.72,0,.45.31.64,1,.9.9.34,1.38.8,1.38,1.59,0,.94-.73,1.59-1.96,1.59-.58,0-1.11-.15-1.48-.37l.23-.72Z"
      style="fill: #fff;" />
    <path
      d="M102.76,64.68c0-.56,0-.99-.05-1.43h.86l.06.86h.02c.26-.49.88-.98,1.74-.98.73,0,1.87.43,1.87,2.24v3.15h-.96v-3.04c0-.86-.32-1.57-1.23-1.57-.62,0-1.11.45-1.29.98-.04.12-.07.3-.07.45v3.18h-.96v-3.85Z"
      style="fill: #fff;" />
    <path
      d="M109.35,66.05c.02,1.29.84,1.83,1.8,1.83.69,0,1.11-.12,1.46-.26l.17.68c-.33.15-.92.34-1.76.34-1.61,0-2.6-1.08-2.6-2.66s.95-2.86,2.49-2.86c1.72,0,2.17,1.51,2.17,2.48,0,.2,0,.35-.03.46h-3.69ZM112.15,65.36c.01-.6-.25-1.56-1.32-1.56-.98,0-1.39.89-1.47,1.56h2.79Z"
      style="fill: #fff;" />
    <path
      d="M114.59,63.25l1.14,3.11c.13.35.26.76.35,1.08h.02c.1-.32.21-.72.34-1.09l1.04-3.1h1.02l-1.44,3.76c-.7,1.81-1.16,2.74-1.82,3.32-.48.4-.94.56-1.18.61l-.24-.8c.24-.07.55-.22.83-.47.26-.21.58-.58.81-1.08.05-.09.08-.16.08-.23,0-.05-.03-.13-.08-.24l-1.94-4.87h1.04Z"
      style="fill: #fff;" />
    <line x1="21.7" y1="3.78" x2="21.7" y2="44.18" style="fill: none; stroke: #715091; stroke-dasharray: 2.19 2.19;" />
    <rect x="18.45" y="3.27" width="6.5" height="1" style="fill: #715091;" />
    <rect x="18.45" y="43.68" width="6.5" height="1" style="fill: #715091;" />
    <text transform="translate(12.18 42.44) rotate(-90)"
      style="fill: #715091; font-family: Barlow-Regular, Barlow; font-size: 14.33px;">
      <tspan x="0" y="0">13 mm</tspan>
    </text>
    <line x1="21.7" y1="47.3" x2="21.7" y2="88.02" style="fill: none; stroke: #715091; stroke-dasharray: 2.19 2.19;" />
    <rect x="18.45" y="46.79" width="6.5" height="1" style="fill: #715091;" />
    <rect x="18.45" y="87.52" width="6.5" height="1" style="fill: #715091;" />
    <text transform="translate(12.18 92.03) rotate(-90)"
      style="fill: #715091; font-family: Barlow-Regular, Barlow; font-size: 14.33px;">
      <tspan x="0" y="0">13 mm</tspan>
    </text>
  </g>
</svg>