<svg xmlns="http://www.w3.org/2000/svg" id="Layer_1" data-name="Layer 1" viewBox="0 0 167.77 318.83">
  <defs>
    <style>
      .cls-1 {
        stroke: #5bba47;
        stroke-dasharray: 2.36 2.36;
        stroke-width: .43px;
      }

      .cls-1, .cls-2, .cls-3, .cls-4, .cls-5, .cls-6 {
        fill: none;
      }

      .cls-2, .cls-3 {
        stroke-dasharray: 3.2 3.2;
        stroke-width: .43px;
      }

      .cls-2, .cls-6 {
        stroke: #1f9dd9;
      }

      .cls-3, .cls-4 {
        stroke: #29abe2;
      }

      .cls-4, .cls-6 {
        stroke-width: .44px;
      }

      .cls-5 {
        stroke: #e50695;
        stroke-width: .5px;
      }

      .cls-7 {
        fill: #29abe2;
      }
    </style>
  </defs>
  <line class="cls-1" x1="41.29" y1="246.43" x2="166.2" y2="246.43" />
  <g>
    <path class="cls-7" d="M.13,163.49v-.7c0-.12.06-.19.19-.19h9.66c.12,0,.19.06.19.19v.65c0,.12-.06.19-.19.19H1.25s-.05,0-.06.02c0,.01,0,.04,0,.06l.63,1.5s.01.05.01.09c0,.09-.05.13-.16.13h-.44c-.1,0-.17-.04-.21-.13l-.83-1.56c-.04-.07-.06-.15-.06-.24Z" />
    <path class="cls-7" d="M9.52,159.43c-.53.54-1.23.82-2.11.82H2.88c-.88,0-1.58-.27-2.1-.82-.52-.54-.78-1.28-.78-2.19s.26-1.67.79-2.22,1.22-.83,2.09-.83h4.53c.88,0,1.58.28,2.11.83.53.55.79,1.29.79,2.22s-.26,1.65-.79,2.19ZM8.88,155.77c-.35-.37-.83-.56-1.42-.56H2.84c-.58,0-1.05.18-1.4.55-.35.37-.53.86-.53,1.48s.18,1.08.53,1.45c.35.36.82.54,1.4.54h4.63c.59,0,1.07-.18,1.42-.54.35-.36.53-.85.53-1.45s-.18-1.1-.53-1.48Z" />
    <path class="cls-7" d="M9.52,151.34c-.53.54-1.23.82-2.11.82H2.88c-.88,0-1.58-.27-2.1-.82-.52-.54-.78-1.28-.78-2.19s.26-1.67.79-2.22,1.22-.83,2.09-.83h4.53c.88,0,1.58.28,2.11.83.53.55.79,1.29.79,2.22s-.26,1.65-.79,2.19ZM8.88,147.67c-.35-.37-.83-.56-1.42-.56H2.84c-.58,0-1.05.18-1.4.55-.35.37-.53.86-.53,1.48s.18,1.08.53,1.45c.35.36.82.54,1.4.54h4.63c.59,0,1.07-.18,1.42-.54.35-.36.53-.85.53-1.45s-.18-1.1-.53-1.48Z" />
    <path class="cls-7" d="M3.45,132.03c.43-.42,1.02-.62,1.76-.62h4.76c.12,0,.19.06.19.19v.63c0,.12-.06.19-.19.19h-4.56c-.53,0-.94.15-1.25.45s-.47.69-.47,1.18.15.92.46,1.23.72.47,1.23.47h4.59c.12,0,.19.06.19.19v.65c0,.12-.06.19-.19.19h-4.56c-.53,0-.94.15-1.25.44-.31.3-.47.69-.47,1.19s.15.91.46,1.21.72.45,1.23.45h4.59c.12,0,.19.06.19.19v.65c0,.12-.06.19-.19.19H3.1c-.12,0-.19-.06-.19-.19v-.65c0-.12.06-.19.19-.19h.5s.05,0,.06-.03c0-.02,0-.04-.03-.06-.28-.21-.48-.48-.62-.8s-.2-.69-.2-1.09c0-.49.1-.91.3-1.26.2-.35.48-.62.85-.8.06-.03.06-.06.01-.09-.39-.21-.68-.51-.87-.89-.19-.38-.29-.82-.29-1.3,0-.72.21-1.28.65-1.7Z" />
    <path class="cls-7" d="M3.45,120.18c.43-.42,1.02-.62,1.76-.62h4.76c.12,0,.19.06.19.19v.63c0,.12-.06.19-.19.19h-4.56c-.53,0-.94.15-1.25.45s-.47.69-.47,1.18.15.92.46,1.23.72.47,1.23.47h4.59c.12,0,.19.06.19.19v.65c0,.12-.06.19-.19.19h-4.56c-.53,0-.94.15-1.25.44-.31.3-.47.69-.47,1.19s.15.91.46,1.21.72.45,1.23.45h4.59c.12,0,.19.06.19.19v.65c0,.12-.06.19-.19.19H3.1c-.12,0-.19-.06-.19-.19v-.65c0-.12.06-.19.19-.19h.5s.05,0,.06-.03c0-.02,0-.04-.03-.06-.28-.21-.48-.48-.62-.8s-.2-.69-.2-1.09c0-.49.1-.91.3-1.26.2-.35.48-.62.85-.8.06-.03.06-.06.01-.09-.39-.21-.68-.51-.87-.89-.19-.38-.29-.82-.29-1.3,0-.72.21-1.28.65-1.7Z" />
  </g>
  <line class="cls-4" x1="21.39" y1=".31" x2="8.5" y2=".31" />
  <line class="cls-4" x1="21.39" y1="284.02" x2="8.5" y2="284.02" />
  <line class="cls-3" x1="15.17" y1=".31" x2="15.17" y2="283.77" />
  <g>
    <path class="cls-7" d="M89.56,315.23v.54c0,.12-.06.19-.19.19h-.56s-.07.02-.07.07v2.51c0,.12-.06.19-.19.19h-.65c-.12,0-.19-.06-.19-.19v-2.51s-.02-.07-.07-.07h-4.24c-.12,0-.19-.06-.19-.19v-.46c0-.06.02-.13.06-.23l2.9-6.25c.05-.1.12-.14.23-.14h.66c.08,0,.13.02.15.06.02.04.02.09,0,.16l-2.81,6.05s0,.04,0,.06c0,.02.02.03.04.03h3.21s.07-.02.07-.07v-2.25c0-.12.06-.19.19-.19h.65c.12,0,.19.06.19.19v2.25s.02.07.07.07h.56c.12,0,.19.06.19.19Z" />
    <path class="cls-7" d="M97.07,315.63c0,.47-.04.87-.13,1.2-.16.61-.49,1.1-.97,1.46s-1.07.54-1.76.54-1.26-.17-1.73-.52c-.48-.34-.8-.8-.97-1.38-.06-.19-.1-.38-.13-.57v-.03c0-.06.02-.1.05-.13.03-.03.08-.04.14-.04h.66c.12,0,.19.06.2.19,0,.05.02.13.06.24.1.41.3.74.6.98.31.24.68.37,1.13.37s.84-.13,1.15-.39.51-.61.6-1.06c.06-.22.09-.5.09-.85,0-.32-.02-.64-.07-.95-.07-.44-.26-.77-.57-1-.32-.23-.71-.34-1.19-.34-.41,0-.77.09-1.09.26-.32.17-.53.41-.65.72-.04.1-.11.16-.21.16h-.7c-.12,0-.19-.06-.19-.19v-5.42c0-.12.06-.19.19-.19h4.93c.12,0,.19.06.19.19v.52c0,.12-.06.19-.19.19h-4.03s-.07.02-.07.07v3.43s0,.06.01.06.04,0,.06-.02c.24-.22.52-.39.85-.5.32-.11.66-.17,1.02-.17.68,0,1.25.17,1.72.49.47.33.77.8.9,1.4.09.42.13.85.13,1.29Z" />
    <path class="cls-7" d="M110.84,312.02c.42.43.62,1.02.62,1.76v4.76c0,.12-.06.19-.19.19h-.63c-.12,0-.19-.06-.19-.19v-4.56c0-.53-.15-.94-.45-1.25s-.69-.47-1.18-.47-.92.15-1.23.46-.47.72-.47,1.23v4.58c0,.12-.06.19-.19.19h-.65c-.12,0-.19-.06-.19-.19v-4.56c0-.53-.15-.94-.44-1.25-.3-.31-.69-.47-1.19-.47s-.91.15-1.21.46-.45.72-.45,1.23v4.58c0,.12-.06.19-.19.19h-.65c-.12,0-.19-.06-.19-.19v-6.88c0-.12.06-.19.19-.19h.65c.12,0,.19.06.19.19v.5s0,.05.03.06c.02,0,.04,0,.06-.03.21-.28.48-.48.8-.62s.69-.2,1.09-.2c.49,0,.91.1,1.26.3.35.2.62.48.8.85.03.06.06.06.09.01.21-.39.51-.68.89-.87.38-.19.82-.29,1.3-.29.72,0,1.28.21,1.7.65Z" />
    <path class="cls-7" d="M122.69,312.02c.42.43.62,1.02.62,1.76v4.76c0,.12-.06.19-.19.19h-.63c-.12,0-.19-.06-.19-.19v-4.56c0-.53-.15-.94-.45-1.25s-.69-.47-1.18-.47-.92.15-1.23.46-.47.72-.47,1.23v4.58c0,.12-.06.19-.19.19h-.65c-.12,0-.19-.06-.19-.19v-4.56c0-.53-.15-.94-.44-1.25-.3-.31-.69-.47-1.19-.47s-.91.15-1.21.46-.45.72-.45,1.23v4.58c0,.12-.06.19-.19.19h-.65c-.12,0-.19-.06-.19-.19v-6.88c0-.12.06-.19.19-.19h.65c.12,0,.19.06.19.19v.5s0,.05.03.06c.02,0,.04,0,.06-.03.21-.28.48-.48.8-.62s.69-.2,1.09-.2c.49,0,.91.1,1.26.3.35.2.62.48.8.85.03.06.06.06.09.01.21-.39.51-.68.89-.87.38-.19.82-.29,1.3-.29.72,0,1.28.21,1.7.65Z" />
  </g>
  <line class="cls-4" x1="167.52" y1="307.8" x2="167.52" y2="297.01" />
  <line class="cls-4" x1="39.96" y1="297.01" x2="39.96" y2="307.81" />
  <line class="cls-3" x1="39.96" y1="301.8" x2="167.52" y2="301.8" />
  <rect class="cls-5" x="39.96" y=".25" width="127.56" height="283.46" />
  <path class="cls-5" d="M107.62,21.2c0,2.36-1.91,4.27-4.27,4.27s-4.27-1.91-4.27-4.27,1.91-4.27,4.27-4.27,4.27,1.91,4.27,4.27" />
  <line class="cls-6" x1="21.39" y1=".31" x2="8.5" y2=".31" />
  <line class="cls-6" x1="21.61" y1="283.71" x2="8.72" y2="283.71" />
  <line class="cls-2" x1="15.17" y1=".31" x2="15.17" y2="283.77" />
  <line class="cls-6" x1="167.52" y1="307.8" x2="167.52" y2="297.01" />
  <line class="cls-6" x1="39.96" y1="297.01" x2="39.96" y2="307.8" />
  <line class="cls-2" x1="39.96" y1="301.8" x2="167.52" y2="301.8" />
</svg>