<?xml version="1.0" encoding="UTF-8" standalone="no"?>
<svg
   id="Layer_1"
   data-name="Layer 1"
   viewBox="0 0 306.78 152.09"
   version="1.1"
   sodipodi:docname="6539112_3.svg"
   inkscape:version="1.4 (1:1.4+202410161351+e7c3feb100)"
   xmlns:inkscape="http://www.inkscape.org/namespaces/inkscape"
   xmlns:sodipodi="http://sodipodi.sourceforge.net/DTD/sodipodi-0.dtd"
   xmlns="http://www.w3.org/2000/svg"
   xmlns:svg="http://www.w3.org/2000/svg">
  <defs
     id="defs136" />
  <sodipodi:namedview
     id="namedview136"
     pagecolor="#ffffff"
     bordercolor="#000000"
     borderopacity="0.25"
     inkscape:showpageshadow="2"
     inkscape:pageopacity="0.0"
     inkscape:pagecheckerboard="0"
     inkscape:deskcolor="#d1d1d1"
     inkscape:zoom="2.5034227"
     inkscape:cx="139.20941"
     inkscape:cy="76.09582"
     inkscape:window-width="1854"
     inkscape:window-height="1011"
     inkscape:window-x="0"
     inkscape:window-y="0"
     inkscape:window-maximized="1"
     inkscape:current-layer="Layer_1" />
  <g
     id="g36">
    <svg
       version="1.1"
       id="svg36">
      <rect
         x="187.1"
         y="8.37"
         width="1.312959349593495"
         height="23"
         fill="cmyk(0,0,0,100)"
         id="rect1" />
      <rect
         x="189.06943902439022"
         y="8.37"
         width="0.6564796747967475"
         height="23"
         fill="cmyk(0,0,0,100)"
         id="rect2" />
      <rect
         x="191.03887804878045"
         y="8.37"
         width="1.9694390243902424"
         height="23"
         fill="cmyk(0,0,0,100)"
         id="rect3" />
      <rect
         x="194.32127642276419"
         y="8.37"
         width="0.6564796747967475"
         height="23"
         fill="cmyk(0,0,0,100)"
         id="rect4" />
      <rect
         x="195.63423577235767"
         y="8.37"
         width="0.6564796747967475"
         height="23"
         fill="cmyk(0,0,0,100)"
         id="rect5" />
      <rect
         x="197.6036747967479"
         y="8.37"
         width="2.62591869918699"
         height="23"
         fill="cmyk(0,0,0,100)"
         id="rect6" />
      <rect
         x="201.54255284552838"
         y="8.37"
         width="1.9694390243902424"
         height="23"
         fill="cmyk(0,0,0,100)"
         id="rect7" />
      <rect
         x="204.16847154471537"
         y="8.37"
         width="0.6564796747967475"
         height="23"
         fill="cmyk(0,0,0,100)"
         id="rect8" />
      <rect
         x="205.48143089430886"
         y="8.37"
         width="1.312959349593495"
         height="23"
         fill="cmyk(0,0,0,100)"
         id="rect9" />
      <rect
         x="208.7638292682926"
         y="8.37"
         width="0.6564796747967475"
         height="23"
         fill="cmyk(0,0,0,100)"
         id="rect10" />
      <rect
         x="210.73326829268282"
         y="8.37"
         width="1.312959349593495"
         height="23"
         fill="cmyk(0,0,0,100)"
         id="rect11" />
      <rect
         x="212.70270731707305"
         y="8.37"
         width="0.6564796747967475"
         height="23"
         fill="cmyk(0,0,0,100)"
         id="rect12" />
      <rect
         x="215.9851056910568"
         y="8.37"
         width="0.6564796747967475"
         height="23"
         fill="cmyk(0,0,0,100)"
         id="rect13" />
      <rect
         x="219.26750406504053"
         y="8.37"
         width="1.312959349593495"
         height="23"
         fill="cmyk(0,0,0,100)"
         id="rect14" />
      <rect
         x="221.8934227642275"
         y="8.37"
         width="0.6564796747967475"
         height="23"
         fill="cmyk(0,0,0,100)"
         id="rect15" />
      <rect
         x="223.20638211382098"
         y="8.37"
         width="1.312959349593495"
         height="23"
         fill="cmyk(0,0,0,100)"
         id="rect16" />
      <rect
         x="225.1758211382112"
         y="8.37"
         width="1.312959349593495"
         height="23"
         fill="cmyk(0,0,0,100)"
         id="rect17" />
      <rect
         x="228.45821951219494"
         y="8.37"
         width="1.312959349593495"
         height="23"
         fill="cmyk(0,0,0,100)"
         id="rect18" />
      <rect
         x="230.42765853658517"
         y="8.37"
         width="2.62591869918699"
         height="23"
         fill="cmyk(0,0,0,100)"
         id="rect19" />
      <rect
         x="233.7100569105689"
         y="8.37"
         width="1.9694390243902424"
         height="23"
         fill="cmyk(0,0,0,100)"
         id="rect20" />
      <rect
         x="236.3359756097559"
         y="8.37"
         width="0.6564796747967475"
         height="23"
         fill="cmyk(0,0,0,100)"
         id="rect21" />
      <rect
         x="237.6489349593494"
         y="8.37"
         width="1.312959349593495"
         height="23"
         fill="cmyk(0,0,0,100)"
         id="rect22" />
      <rect
         x="239.61837398373962"
         y="8.37"
         width="1.312959349593495"
         height="23"
         fill="cmyk(0,0,0,100)"
         id="rect23" />
      <rect
         x="242.24429268292658"
         y="8.37"
         width="1.312959349593495"
         height="23"
         fill="cmyk(0,0,0,100)"
         id="rect24" />
      <rect
         x="244.87021138211355"
         y="8.37"
         width="0.6564796747967475"
         height="23"
         fill="cmyk(0,0,0,100)"
         id="rect25" />
      <rect
         x="246.83965040650378"
         y="8.37"
         width="1.9694390243902424"
         height="23"
         fill="cmyk(0,0,0,100)"
         id="rect26" />
      <rect
         x="249.46556910569078"
         y="8.37"
         width="1.312959349593495"
         height="23"
         fill="cmyk(0,0,0,100)"
         id="rect27" />
      <rect
         x="252.09148780487774"
         y="8.37"
         width="1.312959349593495"
         height="23"
         fill="cmyk(0,0,0,100)"
         id="rect28" />
      <rect
         x="254.7174065040647"
         y="8.37"
         width="1.312959349593495"
         height="23"
         fill="cmyk(0,0,0,100)"
         id="rect29" />
      <rect
         x="257.3433252032517"
         y="8.37"
         width="1.312959349593495"
         height="23"
         fill="cmyk(0,0,0,100)"
         id="rect30" />
      <rect
         x="259.31276422764194"
         y="8.37"
         width="1.312959349593495"
         height="23"
         fill="cmyk(0,0,0,100)"
         id="rect31" />
      <rect
         x="262.59516260162565"
         y="8.37"
         width="1.9694390243902424"
         height="23"
         fill="cmyk(0,0,0,100)"
         id="rect32" />
      <rect
         x="265.2210813008126"
         y="8.37"
         width="0.6564796747967475"
         height="23"
         fill="cmyk(0,0,0,100)"
         id="rect33" />
      <rect
         x="266.5340406504061"
         y="8.37"
         width="1.312959349593495"
         height="23"
         fill="cmyk(0,0,0,100)"
         id="rect34" />
      <rect
         x="267.8469999999996"
         y="8.37"
         width="0.0"
         height="23"
         fill="cmyk(0,0,0,100)"
         id="rect35" />
      <rect
         x="267.8469999999996"
         y="8.37"
         width="0.0"
         height="23"
         fill="cmyk(0,0,0,100)"
         id="rect36" />
    </svg>
  </g>
  <line
     x1="177.87"
     y1="38.21"
     x2="276.95"
     y2="38.21"
     style="fill: none; stroke: #231f20; stroke-width: .5px;"
     id="line36" />
  <g
     id="g66">
    <svg
       version="1.1"
       id="svg66">
      <rect
         x="194.87"
         y="69.52"
         width="0.7157894736842101"
         height="23"
         fill="cmyk(0,0,0,100)"
         id="rect37" />
      <rect
         x="196.3015789473684"
         y="69.52"
         width="0.7157894736842101"
         height="23"
         fill="cmyk(0,0,0,100)"
         id="rect38" />
      <rect
         x="199.1647368421052"
         y="69.52"
         width="1.4315789473684202"
         height="23"
         fill="cmyk(0,0,0,100)"
         id="rect39" />
      <rect
         x="201.31210526315783"
         y="69.52"
         width="0.7157894736842101"
         height="23"
         fill="cmyk(0,0,0,100)"
         id="rect40" />
      <rect
         x="202.74368421052623"
         y="69.52"
         width="2.1473684210526303"
         height="23"
         fill="cmyk(0,0,0,100)"
         id="rect41" />
      <rect
         x="206.32263157894727"
         y="69.52"
         width="0.7157894736842101"
         height="23"
         fill="cmyk(0,0,0,100)"
         id="rect42" />
      <rect
         x="207.75421052631566"
         y="69.52"
         width="0.7157894736842101"
         height="23"
         fill="cmyk(0,0,0,100)"
         id="rect43" />
      <rect
         x="210.61736842105248"
         y="69.52"
         width="1.4315789473684202"
         height="23"
         fill="cmyk(0,0,0,100)"
         id="rect44" />
      <rect
         x="213.48052631578932"
         y="69.52"
         width="0.7157894736842101"
         height="23"
         fill="cmyk(0,0,0,100)"
         id="rect45" />
      <rect
         x="216.34368421052613"
         y="69.52"
         width="0.7157894736842101"
         height="23"
         fill="cmyk(0,0,0,100)"
         id="rect46" />
      <rect
         x="217.77526315789453"
         y="69.52"
         width="1.4315789473684202"
         height="23"
         fill="cmyk(0,0,0,100)"
         id="rect47" />
      <rect
         x="220.63842105263137"
         y="69.52"
         width="1.4315789473684202"
         height="23"
         fill="cmyk(0,0,0,100)"
         id="rect48" />
      <rect
         x="222.785789473684"
         y="69.52"
         width="2.1473684210526303"
         height="23"
         fill="cmyk(0,0,0,100)"
         id="rect49" />
      <rect
         x="225.6489473684208"
         y="69.52"
         width="1.4315789473684202"
         height="23"
         fill="cmyk(0,0,0,100)"
         id="rect50" />
      <rect
         x="227.79631578947343"
         y="69.52"
         width="0.7157894736842101"
         height="23"
         fill="cmyk(0,0,0,100)"
         id="rect51" />
      <rect
         x="229.22789473684182"
         y="69.52"
         width="0.7157894736842101"
         height="23"
         fill="cmyk(0,0,0,100)"
         id="rect52" />
      <rect
         x="230.6594736842102"
         y="69.52"
         width="0.7157894736842101"
         height="23"
         fill="cmyk(0,0,0,100)"
         id="rect53" />
      <rect
         x="232.0910526315786"
         y="69.52"
         width="2.1473684210526303"
         height="23"
         fill="cmyk(0,0,0,100)"
         id="rect54" />
      <rect
         x="235.66999999999965"
         y="69.52"
         width="0.7157894736842101"
         height="23"
         fill="cmyk(0,0,0,100)"
         id="rect55" />
      <rect
         x="239.2489473684207"
         y="69.52"
         width="0.7157894736842101"
         height="23"
         fill="cmyk(0,0,0,100)"
         id="rect56" />
      <rect
         x="240.68052631578908"
         y="69.52"
         width="1.4315789473684202"
         height="23"
         fill="cmyk(0,0,0,100)"
         id="rect57" />
      <rect
         x="243.54368421052592"
         y="69.52"
         width="1.4315789473684202"
         height="23"
         fill="cmyk(0,0,0,100)"
         id="rect58" />
      <rect
         x="245.69105263157854"
         y="69.52"
         width="0.7157894736842101"
         height="23"
         fill="cmyk(0,0,0,100)"
         id="rect59" />
      <rect
         x="248.55421052631536"
         y="69.52"
         width="0.7157894736842101"
         height="23"
         fill="cmyk(0,0,0,100)"
         id="rect60" />
      <rect
         x="250.70157894736798"
         y="69.52"
         width="0.7157894736842101"
         height="23"
         fill="cmyk(0,0,0,100)"
         id="rect61" />
      <rect
         x="253.5647368421048"
         y="69.52"
         width="0.7157894736842101"
         height="23"
         fill="cmyk(0,0,0,100)"
         id="rect62" />
      <rect
         x="255.7121052631574"
         y="69.52"
         width="1.4315789473684202"
         height="23"
         fill="cmyk(0,0,0,100)"
         id="rect63" />
      <rect
         x="257.85947368421"
         y="69.52"
         width="1.4315789473684202"
         height="23"
         fill="cmyk(0,0,0,100)"
         id="rect64" />
      <rect
         x="260.7226315789468"
         y="69.52"
         width="0.7157894736842101"
         height="23"
         fill="cmyk(0,0,0,100)"
         id="rect65" />
      <rect
         x="262.1542105263152"
         y="69.52"
         width="0.7157894736842101"
         height="23"
         fill="cmyk(0,0,0,100)"
         id="rect66" />
    </svg>
  </g>
  <text
     id="material_model_code"
     x="58%"
     y="30.5%"
     text-anchor="start"
     style="fill: #231f20; font-family: Poppins-Regular, Poppins; font-size: 6px;">GPU0111NC<tspan
   id="tspan66" /></text>
  <text
     id="color_code"
     x="58%"
     y="36%"
     text-anchor="start"
     style="fill: #231f20; font-family: Poppins-SemiBold, Poppins; font-size: 6px; font-weight: 600;">W128<tspan
   id="tspan67" /></text>
  <text
     id="tag_color"
     x="58%"
     y="40%"
     text-anchor="start"
     style="fill: #231f20; font-family: Poppins-SemiBold, Poppins; font-size: 6px; font-weight: 600;">BLUE/GREY MELANGE<tspan
   id="tspan68" /></text>
  <text
     x="90.5%"
     y="40%"
     text-anchor="end"
     style="fill: #231f20; font-family: Poppins-SemiBold, Poppins; font-size: 6px; font-weight: 600;"
     id="text69"><tspan
       id="tspan69">TG.</tspan><tspan
       id="INT">XL</tspan></text>
  <rect
     x="22"
     y="47"
     width="123"
     height="65"
     style="stroke: #fff;fill: none;"
     id="size_rect" />
  <text
     id="article_name"
     text-anchor="end"
     style="fill: #231f20; font-family: Poppins-Regular, Poppins; font-size: 5px;"><tspan
       x="90.5%"
       y="29.7%"
       id="tspan70">PIGIAMA CORTO</tspan><tspan
       x="90.5%"
       y="33.8%"
       id="tspan71">COCKTAIL TIME</tspan></text>
  <text
     id="ean_128c"
     transform="translate(198.51 36.7)"
     style="fill: #231f20; font-family: MinionPro-Regular, 'Minion Pro'; font-size: 7.5px;">8054717431770016<tspan
   x="0"
   y="0"
   id="tspan72" /></text>
  <text
     id="quantity"
     text-anchor="end"
     style="fill: #231f20; font-family: MinionPro-Regular, 'Minion Pro'; font-size: 12px;">Qty - 519<tspan
   x="56%"
   y="97%"
   id="tspan73" /></text>
  <rect
     x="197.9"
     y="89.54"
     width="29.44"
     height="4.06"
     style="fill: #fff;"
     id="rect73" />
  <rect
     x="230.34"
     y="89.54"
     width="29.43"
     height="4.08"
     style="fill: #fff;"
     id="rect74" />
  <text
     id="bar1"
     transform="translate(190.83 95.45)"
     style="fill: #231f20; font-family: MinionPro-Regular, 'Minion Pro'; font-size: 7.5px;">8<tspan
   x="0"
   y="0"
   id="tspan74" /></text>
  <text
     id="bar2"
     transform="translate(199.2 95.45)"
     style="fill: #231f20; font-family: MinionPro-Regular, 'Minion Pro'; font-size: 7.5px;">054717<tspan
   x="0"
   y="0"
   style="letter-spacing: .1em;"
   id="tspan75" /></text>
  <text
     id="bar3"
     transform="translate(232.02 95.45)"
     style="fill: #231f20; font-family: MinionPro-Regular, 'Minion Pro'; font-size: 7.5px;">431772<tspan
   x="0"
   y="0"
   style="letter-spacing: .11em;"
   id="tspan76" /></text>
  <g
     id="g86">
    <rect
       x=".12"
       y=".12"
       width="291.72"
       height="113.14"
       style="fill: none; stroke: #e11f8f; stroke-width: .25px;"
       id="rect76" />
    <line
       x1=".44"
       y1="123.37"
       x2="290.68"
       y2="123.37"
       style="fill: none; stroke: #0a9dd5; stroke-dasharray: 3.19 3.19; stroke-width: .43px;"
       id="line76" />
    <path
       d="M291.75,117.76v10.8M.22,117.76v10.8"
       style="fill: none; stroke: #0a9dd5; stroke-width: .44px;"
       id="path76" />
    <path
       d="M135.01,127.18h.67c.08,0,.12.04.12.12v5c0,.08-.04.12-.12.12h-.63c-.08,0-.12-.04-.12-.12v-4.25s-.02-.05-.05-.04l-.69.19s-.02,0-.04,0c-.03,0-.05,0-.07-.03-.02-.02-.03-.05-.03-.08v-.43c0-.06.03-.1.09-.13l.72-.33s.09-.03.14-.03"
       style="fill: #00a6cf;"
       id="path77" />
    <path
       d="M139.04,131.52c.15-.15.23-.36.23-.62v-2.19c0-.26-.08-.47-.23-.62-.15-.15-.36-.23-.62-.23s-.46.08-.61.23c-.15.15-.23.36-.23.62v2.19c0,.26.07.47.23.62.15.15.35.23.61.23s.46-.08.62-.23M137.18,132.06c-.31-.3-.46-.7-.46-1.2v-2.11c0-.5.15-.89.46-1.19.3-.29.72-.44,1.24-.44s.94.15,1.25.44c.31.29.47.69.47,1.19v2.11c0,.5-.16.9-.47,1.2-.31.3-.73.44-1.25.44s-.93-.15-1.24-.44"
       style="fill: #00a6cf;"
       id="path78" />
    <path
       d="M144.12,130.75c0,.24-.05.48-.13.74-.11.32-.3.56-.57.73-.26.17-.58.26-.95.26s-.69-.09-.96-.28c-.27-.19-.46-.44-.58-.76-.05-.17-.09-.36-.1-.58,0-.08.04-.12.12-.12h.63c.08,0,.12.04.13.12,0,.13.03.25.06.35.05.16.13.29.26.38.12.09.27.14.44.14.33,0,.56-.15.67-.45.07-.16.11-.35.11-.56,0-.24-.04-.46-.13-.64-.12-.28-.34-.42-.66-.42-.09,0-.18.03-.3.1-.03.01-.05.02-.07.02-.03,0-.06-.02-.09-.05l-.31-.4s-.03-.05-.03-.08.01-.06.04-.09l1.2-1.19s.02-.03.01-.04-.02-.02-.04-.02h-1.85c-.08,0-.12-.04-.12-.12v-.51c0-.08.04-.12.12-.12h2.91c.08,0,.12.04.12.12v.56c0,.05-.02.1-.06.15l-1.07,1.09s0,.01,0,.02c0,.01.01.03.04.04.47.07.8.33,1,.77.1.24.15.51.15.82"
       style="fill: #00a6cf;"
       id="path79" />
    <path
       d="M151.42,128.89c.22.23.32.56.32.97v2.45c0,.08-.04.12-.12.12h-.62c-.08,0-.12-.04-.12-.12v-2.27c0-.23-.06-.41-.18-.55-.12-.14-.28-.2-.49-.2s-.37.07-.5.2-.19.32-.19.54v2.28c0,.08-.04.12-.12.12h-.62c-.08,0-.12-.04-.12-.12v-2.27c0-.23-.06-.41-.19-.55-.12-.14-.29-.2-.49-.2-.19,0-.34.06-.46.16-.12.11-.19.26-.21.45v2.4c0,.08-.04.12-.12.12h-.62c-.08,0-.12-.04-.12-.12v-3.59c0-.08.04-.12.12-.12h.62c.08,0,.12.04.12.12v.2s0,.03.02.04c.01,0,.02,0,.03-.02.21-.27.53-.4.94-.4.24,0,.46.05.64.15.18.1.32.24.42.43.01.01.02.02.03.02.01,0,.02-.01.03-.03.11-.19.27-.33.46-.43.19-.1.41-.14.64-.14.38,0,.68.12.9.35"
       style="fill: #00a6cf;"
       id="path80" />
    <path
       d="M157.59,128.89c.22.23.32.56.32.97v2.45c0,.08-.04.12-.12.12h-.62c-.08,0-.12-.04-.12-.12v-2.27c0-.23-.06-.41-.18-.55-.12-.14-.28-.2-.49-.2s-.37.07-.5.2-.19.32-.19.54v2.28c0,.08-.04.12-.12.12h-.62c-.08,0-.12-.04-.12-.12v-2.27c0-.23-.06-.41-.19-.55-.12-.14-.29-.2-.49-.2-.19,0-.34.06-.46.16-.12.11-.19.26-.21.45v2.4c0,.08-.04.12-.12.12h-.62c-.08,0-.12-.04-.12-.12v-3.59c0-.08.04-.12.12-.12h.62c.08,0,.12.04.12.12v.2s0,.03.02.04c.01,0,.02,0,.03-.02.21-.27.53-.4.94-.4.24,0,.46.05.64.15.18.1.32.24.42.43.01.01.02.02.03.02.01,0,.02-.01.03-.03.11-.19.27-.33.46-.43.19-.1.41-.14.64-.14.38,0,.68.12.9.35"
       style="fill: #00a6cf;"
       id="path81" />
    <line
       x1="298.95"
       y1=".44"
       x2="298.95"
       y2="113.39"
       style="fill: none; stroke: #0a9dd5; stroke-dasharray: 3.23 3.23; stroke-width: .43px;"
       id="line81" />
    <path
       d="M304.56,112.95h-10.8M304.56.22h-10.8"
       style="fill: none; stroke: #0a9dd5; stroke-width: .44px;"
       id="path82" />
    <path
       d="M303.33,49.32h-.57c-.09,0-.13-.04-.13-.13v-.29s-.02-.05-.05-.05h-1.28c-.09,0-.13-.04-.13-.13v-.66c0-.08.04-.13.13-.13h1.28s.05-.01.05-.05v-2.37c0-.08.04-.13.13-.13h.46c.06,0,.11.01.15.03l3.26,1.48c.06.03.1.07.1.14v.7c0,.07-.03.11-.09.11l-.06-.02-3.06-1.38s-.06,0-.06.04v1.38s.02.05.05.05h1.04c.08,0,.13.04.13.13v.66c0,.08-.04.13-.13.13h-1.04s-.05.01-.05.05v.29c0,.08-.04.13-.13.13"
       style="fill: #00a6cf;"
       id="path83" />
    <path
       d="M302.13,52.61c.16.16.38.24.65.24h2.31c.27,0,.49-.08.65-.24.16-.16.24-.38.24-.65s-.08-.48-.24-.64c-.16-.16-.38-.24-.65-.24h-2.31c-.28,0-.49.08-.65.24-.16.16-.24.38-.24.64s.08.49.24.65M301.56,50.65c.31-.32.74-.49,1.27-.49h2.23c.53,0,.95.16,1.25.49.31.32.46.76.46,1.31s-.15.99-.46,1.32c-.31.33-.73.49-1.25.49h-2.23c-.53,0-.96-.16-1.27-.49-.31-.33-.47-.77-.47-1.32s.16-.99.47-1.31"
       style="fill: #00a6cf;"
       id="path84" />
    <path
       d="M304.91,61.54c-.25.23-.59.34-1.03.34h-2.59c-.08,0-.13-.04-.13-.13v-.65c0-.08.04-.13.13-.13h2.4c.24,0,.43-.06.58-.19.14-.13.21-.3.21-.52s-.07-.39-.21-.53c-.14-.14-.33-.2-.57-.2h-2.41c-.08,0-.13-.04-.13-.13v-.65c0-.08.04-.13.13-.13h2.4c.24,0,.43-.07.58-.2.14-.13.21-.31.21-.52,0-.2-.06-.37-.17-.49-.12-.13-.27-.2-.48-.23h-2.54c-.08,0-.13-.04-.13-.13v-.66c0-.08.04-.13.13-.13h3.79c.08,0,.13.04.13.13v.66c0,.08-.04.13-.13.13h-.21s-.03,0-.04.02,0,.03.02.03c.28.23.42.56.42.99,0,.26-.05.48-.15.67-.1.19-.25.34-.46.45-.02,0-.02.02-.02.04s.01.02.03.03c.2.12.35.28.45.49.1.2.15.43.15.68,0,.4-.12.72-.37.95"
       style="fill: #00a6cf;"
       id="path85" />
    <path
       d="M304.91,68.08c-.25.23-.59.34-1.03.34h-2.59c-.08,0-.13-.04-.13-.13v-.65c0-.08.04-.13.13-.13h2.4c.24,0,.43-.06.58-.19.14-.13.21-.3.21-.52s-.07-.39-.21-.53c-.14-.14-.33-.21-.57-.21h-2.41c-.08,0-.13-.04-.13-.13v-.65c0-.08.04-.13.13-.13h2.4c.24,0,.43-.07.58-.2.14-.13.21-.31.21-.52,0-.2-.06-.36-.17-.49-.12-.13-.27-.2-.48-.22h-2.54c-.08,0-.13-.04-.13-.13v-.66c0-.08.04-.13.13-.13h3.79c.08,0,.13.04.13.13v.66c0,.08-.04.13-.13.13h-.21s-.03,0-.04.02,0,.03.02.04c.28.23.42.56.42.99,0,.26-.05.48-.15.67-.1.19-.25.34-.46.45-.02,0-.02.02-.02.04s.01.02.03.03c.2.12.35.28.45.49s.15.43.15.68c0,.4-.12.72-.37.95"
       style="fill: #00a6cf;"
       id="path86" />
  </g>
  <g
     id="g103">
    <path
       d="M41.31,13.9v1.22h.52c.48,0,1.14,0,1.14-.62,0-.16-.05-.32-.22-.44-.21-.17-.43-.17-.99-.17h-.46ZM40.37,13.17h1.51c.82,0,1.08.02,1.33.13.3.13.74.46.74,1.19s-.47,1.08-.76,1.2c-.33.14-.84.15-1.25.15h-.62v1.62h-.94v-4.29Z"
       id="path87" />
    <rect
       x="44.55"
       y="13.17"
       width=".94"
       height="4.29"
       id="rect87" />
    <path
       d="M48.42,15.16h2.03v1.71c-.27.25-1.05.67-2,.67-1.68,0-2.37-1.1-2.37-2.23,0-1.05.63-2.21,2.32-2.21.76,0,1.74.2,1.99,1.26l-.94.16c-.18-.59-.76-.68-1.04-.68-.4,0-.82.11-1.1.48-.2.27-.26.62-.26.95,0,.64.24,1.52,1.34,1.52.55,0,.99-.28,1.1-.37v-.54h-1.08v-.73Z"
       id="path88" />
    <rect
       x="51.2"
       y="13.17"
       width=".94"
       height="4.29"
       id="rect88" />
    <path
       d="M55.4,15.77l-.65-1.6-.63,1.6h1.28ZM56.11,17.46l-.41-.97h-1.87l-.38.97h-1.01l1.82-4.29h1l1.88,4.29h-1.03Z"
       id="path89" />
    <polygon
       points="57.48 13.17 58.89 13.17 59.73 16.1 59.75 16.1 60.58 13.17 61.99 13.17 61.99 17.46 61.12 17.46 61.12 14.08 61.11 14.08 60.2 17.46 59.29 17.46 58.37 14.08 58.36 14.08 58.36 17.46 57.48 17.46 57.48 13.17"
       id="polygon89" />
    <rect
       x="62.76"
       y="13.17"
       width=".94"
       height="4.29"
       id="rect89" />
    <path
       d="M67.13,13.17v2.32c0,.51,0,.72.12.92.18.31.54.38.83.38.9,0,.9-.52.9-1.25v-2.37h.94v2.25c0,.77-.03,1.19-.26,1.52-.36.51-1.03.59-1.55.59-1.91,0-1.91-1.08-1.91-2.07v-2.29h.94Z"
       id="path90" />
    <path
       d="M72.27,16.86c.4,0,.83-.27.83-.96,0-.62-.37-.95-.83-.95-.43,0-.82.3-.82.95s.4.95.82.95M72.27,14.29c1.18,0,1.75.83,1.75,1.61,0,.86-.65,1.64-1.74,1.64-.54,0-1.75-.23-1.75-1.67,0-.74.54-1.58,1.74-1.58"
       id="path91" />
    <path
       d="M75.38,14.36v.42h.01c.39-.46.8-.49,1.04-.49.65,0,.88.36.96.49.15-.17.48-.49,1.03-.49,1.11,0,1.11.85,1.11,1.19v1.99h-.9v-1.77c0-.37,0-.77-.48-.77-.24,0-.48.14-.56.34-.08.17-.11.33-.11.71v1.49h-.89v-1.7c0-.53,0-.85-.46-.85-.24,0-.48.12-.57.3-.07.14-.12.28-.12.74v1.51h-.89v-3.11h.83Z"
       id="path92" />
    <path
       d="M81.8,16.86c.4,0,.83-.27.83-.96,0-.62-.37-.95-.83-.95-.43,0-.82.3-.82.95s.4.95.82.95M81.8,14.29c1.18,0,1.75.83,1.75,1.61,0,.86-.65,1.64-1.74,1.64-.54,0-1.75-.23-1.75-1.67,0-.74.54-1.58,1.74-1.58"
       id="path93" />
    <rect
       x="85.57"
       y="15.5"
       width="1.76"
       height=".82"
       id="rect93" />
    <path
       d="M89.32,17.46l.97-4.3h.77l.47,2.78c.06.37.1.72.12,1.05.13-.29.35-.68.65-1.18l1.64-2.66h.78l-.98,4.3h-.61l.49-2.09c.11-.48.28-1.02.49-1.62-.13.28-.3.58-.5.9l-1.74,2.81h-.6l-.47-2.75c-.04-.25-.07-.55-.09-.88-.05.38-.1.68-.16.9l-.62,2.74h-.61Z"
       id="path94" />
    <path
       d="M97.05,15.89c-.08.03-.17.05-.26.07-.09.02-.25.03-.46.05-.34.03-.57.06-.71.1-.14.04-.24.11-.31.2-.07.09-.1.19-.1.3,0,.15.06.27.17.37.11.1.27.14.48.14.19,0,.38-.05.55-.14.18-.09.32-.22.42-.39.1-.17.18-.4.24-.71M96.84,17.08c-.2.16-.39.27-.58.35-.18.07-.38.11-.59.11-.31,0-.56-.08-.75-.25-.19-.17-.29-.39-.29-.65,0-.17.04-.33.13-.46.09-.13.2-.24.34-.32s.32-.14.52-.17c.13-.02.38-.04.74-.06.36-.01.62-.05.78-.1.04-.15.07-.27.07-.36,0-.12-.05-.22-.15-.29-.13-.1-.33-.15-.59-.15-.24,0-.44.05-.59.15-.15.1-.27.24-.34.42l-.58-.05c.12-.31.31-.55.57-.71.26-.16.58-.25.98-.25.42,0,.75.09.99.28.19.14.28.32.28.53,0,.17-.03.36-.08.58l-.19.77c-.06.25-.09.45-.09.6,0,.1.02.24.07.42h-.58c-.03-.1-.05-.23-.07-.39"
       id="path95" />
    <path
       d="M98.06,17.46l.71-3.11h.52l-.12.54c.23-.21.44-.37.64-.47.2-.1.4-.15.61-.15.27,0,.49.07.64.21.16.14.24.32.24.55,0,.12-.03.3-.08.54l-.43,1.88h-.58l.45-1.97c.04-.19.07-.33.07-.42,0-.1-.04-.19-.12-.25-.08-.07-.19-.1-.34-.1-.3,0-.56.1-.79.29-.23.2-.4.53-.51,1.01l-.33,1.45h-.58Z"
       id="path96" />
    <path
       d="M104.44,15.23h1.03c.4,0,.69-.04.88-.12.19-.08.34-.2.45-.36.11-.16.17-.33.17-.52,0-.14-.03-.26-.09-.35-.06-.09-.14-.15-.25-.2-.11-.04-.32-.06-.62-.06h-1.2l-.36,1.6ZM103.31,17.46l.98-4.3h1.95c.34,0,.59.04.76.11.17.07.31.19.42.37s.17.37.17.58c0,.18-.04.36-.12.54-.08.18-.18.33-.3.45-.12.12-.24.21-.36.27-.12.06-.25.11-.4.14-.3.07-.6.1-.91.1h-1.17l-.39,1.74h-.62Z"
       id="path97" />
    <path
       d="M109.97,15.89c-.08.03-.17.05-.26.07-.09.02-.25.03-.46.05-.34.03-.57.06-.71.1-.14.04-.24.11-.31.2-.07.09-.1.19-.1.3,0,.15.06.27.17.37.11.1.27.14.48.14.19,0,.38-.05.55-.14.18-.09.32-.22.42-.39.1-.17.18-.4.24-.71M109.75,17.08c-.2.16-.39.27-.58.35-.18.07-.38.11-.59.11-.31,0-.56-.08-.75-.25-.19-.17-.29-.39-.29-.65,0-.17.04-.33.13-.46.09-.13.2-.24.34-.32s.32-.14.52-.17c.13-.02.38-.04.74-.06.36-.01.62-.05.78-.1.04-.15.07-.27.07-.36,0-.12-.05-.22-.15-.29-.13-.1-.33-.15-.59-.15-.24,0-.44.05-.59.15-.15.1-.27.24-.34.42l-.58-.05c.12-.31.31-.55.57-.71.26-.16.58-.25.98-.25.42,0,.75.09.99.28.19.14.28.32.28.53,0,.17-.03.36-.08.58l-.19.77c-.06.25-.09.45-.09.6,0,.1.02.24.07.42h-.58c-.03-.1-.05-.23-.07-.39"
       id="path98" />
    <path
       d="M111.79,13.77l.14-.6h.57l-.14.6h-.57ZM109.96,18.63l.1-.45c.13.03.25.05.35.05.12,0,.22-.04.29-.11.07-.07.15-.28.23-.63l.71-3.14h.58l-.73,3.24c-.09.4-.2.68-.32.83-.16.2-.38.29-.67.29-.15,0-.33-.02-.55-.08"
       id="path99" />
    <path
       d="M114.79,15.89c-.08.03-.17.05-.26.07-.09.02-.25.03-.46.05-.34.03-.57.06-.71.1-.14.04-.24.11-.31.2-.07.09-.1.19-.1.3,0,.15.06.27.17.37.11.1.27.14.48.14.19,0,.38-.05.55-.14.18-.09.31-.22.42-.39.1-.17.18-.4.24-.71M114.57,17.08c-.2.16-.39.27-.58.35-.18.07-.38.11-.59.11-.31,0-.56-.08-.75-.25-.19-.17-.29-.39-.29-.65,0-.17.04-.33.13-.46.09-.13.2-.24.34-.32s.32-.14.52-.17c.13-.02.38-.04.74-.06.36-.01.62-.05.78-.1.04-.15.07-.27.07-.36,0-.12-.05-.22-.15-.29-.13-.1-.33-.15-.59-.15-.24,0-.44.05-.59.15-.15.1-.27.24-.34.42l-.58-.05c.12-.31.31-.55.57-.71.26-.16.58-.25.98-.25.42,0,.75.09.99.28.19.14.28.32.28.53,0,.17-.03.36-.08.58l-.19.77c-.06.25-.09.45-.09.6,0,.1.02.24.07.42h-.58c-.03-.1-.05-.23-.07-.39"
       id="path100" />
    <path
       d="M115.79,17.46l.71-3.11h.58l-.12.51c.22-.22.41-.37.58-.46s.35-.13.55-.13c.21,0,.39.05.53.15.14.1.23.25.28.43.17-.2.35-.34.54-.44.19-.1.39-.15.6-.15.28,0,.49.06.64.18.14.12.21.3.21.52,0,.1-.02.25-.07.47l-.46,2h-.58l.47-2.06c.04-.17.06-.29.06-.36,0-.1-.03-.18-.1-.24-.07-.06-.17-.09-.3-.09-.17,0-.35.05-.53.14-.18.1-.32.22-.42.38-.1.15-.19.39-.26.72l-.34,1.51h-.58l.48-2.1c.03-.14.05-.24.05-.3,0-.1-.04-.18-.1-.25-.07-.06-.16-.09-.27-.09-.16,0-.33.05-.51.14-.18.1-.33.23-.44.4-.11.17-.21.42-.28.73l-.33,1.47h-.58Z"
       id="path101" />
    <path
       d="M123.59,15.89c-.08.03-.17.05-.26.07-.09.02-.25.03-.46.05-.34.03-.57.06-.71.1-.14.04-.24.11-.31.2-.07.09-.1.19-.1.3,0,.15.06.27.17.37.11.1.27.14.48.14.19,0,.38-.05.55-.14.18-.09.32-.22.42-.39.1-.17.18-.4.24-.71M123.38,17.08c-.2.16-.39.27-.58.35-.18.07-.38.11-.59.11-.31,0-.56-.08-.75-.25-.19-.17-.29-.39-.29-.65,0-.17.04-.33.13-.46.09-.13.2-.24.34-.32s.32-.14.52-.17c.13-.02.37-.04.74-.06.36-.01.62-.05.78-.1.04-.15.07-.27.07-.36,0-.12-.05-.22-.15-.29-.13-.1-.33-.15-.59-.15-.24,0-.44.05-.59.15-.15.1-.27.24-.34.42l-.58-.05c.12-.31.31-.55.57-.71.26-.16.58-.25.98-.25.42,0,.75.09.99.28.19.14.28.32.28.53,0,.17-.03.36-.08.58l-.19.77c-.06.25-.09.45-.09.6,0,.1.02.24.07.42h-.58c-.03-.1-.05-.23-.07-.39"
       id="path102" />
    <path
       d="M124.64,16.4l.58-.03c0,.15.02.28.08.39.05.11.14.2.28.26.14.07.3.1.48.1.26,0,.45-.05.57-.14.13-.09.19-.2.19-.33,0-.09-.04-.18-.11-.26-.08-.08-.27-.18-.57-.3-.31-.12-.5-.2-.58-.25-.14-.08-.25-.17-.32-.28-.07-.11-.11-.23-.11-.37,0-.25.11-.46.32-.63.21-.17.51-.26.89-.26.42,0,.75.09.97.27.22.18.34.42.35.71l-.56.04c0-.19-.08-.34-.22-.45-.14-.11-.33-.16-.58-.16-.2,0-.36.04-.47.13-.11.08-.17.17-.17.27s.05.18.14.26c.06.05.23.13.49.24.44.17.72.31.83.42.18.16.27.36.27.59,0,.15-.05.31-.15.45-.1.15-.26.27-.47.36-.21.09-.46.13-.75.13-.39,0-.72-.09-1-.27s-.4-.47-.39-.87"
       id="path103" />
  </g>
  <g
     id="g115">
    <rect
       x="22.32"
       y="28.11"
       width="22.04"
       height="17.27"
       style="fill: #231f20;"
       id="rect103" />
    <rect
       x="44.93"
       y="28.11"
       width="22.04"
       height="17.27"
       style="fill: #231f20;"
       id="rect104" />
    <rect
       x="67.54"
       y="28.11"
       width="22.04"
       height="17.27"
       style="fill: #231f20;"
       id="rect105" />
    <rect
       x="90.14"
       y="28.11"
       width="22.04"
       height="17.27"
       style="fill: #231f20;"
       id="rect106" />
    <rect
       x="112.75"
       y="28.11"
       width="32.24"
       height="17.27"
       style="fill: #231f20;"
       id="rect107" />
    <polygon
       points="75.86 35.29 78.17 35.29 78.17 35.77 76.49 35.77 76.49 36.41 78.06 36.41 78.06 36.89 76.49 36.89 76.49 37.67 78.23 37.67 78.23 38.15 75.86 38.15 75.86 35.29"
       style="fill: #fff;"
       id="polygon107" />
    <path
       d="M79.39,35.29v1.55c0,.34,0,.48.08.62.12.2.36.25.55.25.6,0,.6-.35.6-.84v-1.58h.63v1.5c0,.51-.02.8-.17,1.01-.24.34-.69.4-1.04.4-1.27,0-1.27-.72-1.27-1.38v-1.53h.63Z"
       style="fill: #fff;"
       id="path107" />
    <polygon
       points="98.43 35.32 100.57 35.32 100.57 35.8 99.06 35.8 99.06 36.48 100.37 36.48 100.37 36.96 99.06 36.96 99.06 38.18 98.43 38.18 98.43 35.32"
       style="fill: #fff;"
       id="polygon108" />
    <path
       d="M101.72,36.53h.46c.19,0,.46,0,.57-.04.22-.07.24-.25.24-.34,0-.12-.04-.23-.16-.29-.12-.06-.2-.06-.62-.06h-.49v.73ZM101.09,35.32h1.32c.46,0,.62.04.71.07.36.12.51.45.51.73,0,.31-.17.59-.47.7-.11.04-.23.08-.35.09h0c.26.14.38.25.7.71l.38.56h-.75l-.45-.62c-.38-.52-.42-.57-.84-.57h-.13v1.19h-.63v-2.86Z"
       style="fill: #fff;"
       id="path108" />
    <path
       d="M120.2,35.29v1.55c0,.34,0,.48.08.62.12.2.36.25.55.25.6,0,.6-.35.6-.84v-1.58h.63v1.5c0,.51-.02.8-.17,1.01-.24.34-.69.4-1.04.4-1.27,0-1.27-.72-1.27-1.38v-1.53h.63Z"
       style="fill: #fff;"
       id="path109" />
    <path
       d="M123.18,37.17c.03.15.11.55.68.55.44,0,.61-.21.61-.4,0-.24-.22-.29-.79-.42-.31-.07-1-.23-1-.86,0-.31.22-.8,1.13-.8.61,0,1.17.22,1.19.87l-.63.02c-.03-.15-.07-.42-.57-.42-.19,0-.53.05-.53.28,0,.18.2.26.7.37.47.1,1.12.24,1.12.95,0,.35-.24.64-.51.75-.28.12-.59.13-.74.13-.34,0-1.16-.03-1.28-.98l.61-.05Z"
       style="fill: #fff;"
       id="path110" />
    <path
       d="M127.26,37.02l-.43-1.06-.42,1.06h.85ZM127.73,38.15l-.27-.65h-1.24l-.26.65h-.67l1.21-2.86h.67l1.25,2.86h-.69Z"
       style="fill: #fff;"
       id="path111" />
    <polygon
       points="130.74 35.29 131.48 35.29 130.2 38.25 129.48 38.25 130.74 35.29"
       style="fill: #fff;"
       id="polygon111" />
    <path
       d="M132.85,35.29v1.55c0,.34,0,.48.08.62.12.2.36.25.55.25.6,0,.6-.35.6-.84v-1.58h.63v1.5c0,.51-.02.8-.17,1.01-.24.34-.69.4-1.04.4-1.27,0-1.27-.72-1.27-1.38v-1.53h.63Z"
       style="fill: #fff;"
       id="path112" />
    <polygon
       points="135.36 35.29 135.99 35.29 135.99 36.56 137.26 35.29 138.11 35.29 136.94 36.41 138.17 38.15 137.36 38.15 136.5 36.81 135.99 37.29 135.99 38.15 135.36 38.15 135.36 35.29"
       style="fill: #fff;"
       id="polygon112" />
    <rect
       x="31.6"
       y="35.32"
       width=".63"
       height="2.86"
       style="fill: #fff;"
       id="rect112" />
    <polygon
       points="33.54 35.8 32.61 35.8 32.61 35.32 35.08 35.32 35.08 35.8 34.16 35.8 34.16 38.18 33.54 38.18 33.54 35.8"
       style="fill: #fff;"
       id="polygon113" />
    <rect
       x="52.64"
       y="35.32"
       width=".63"
       height="2.86"
       style="fill: #fff;"
       id="rect113" />
    <polygon
       points="53.89 35.32 54.5 35.32 55.77 37.23 55.78 37.23 55.78 35.32 56.36 35.32 56.36 38.18 55.73 38.18 54.49 36.31 54.48 36.31 54.48 38.18 53.89 38.18 53.89 35.32"
       style="fill: #fff;"
       id="polygon114" />
    <polygon
       points="57.71 35.8 56.79 35.8 56.79 35.32 59.26 35.32 59.26 35.8 58.34 35.8 58.34 38.18 57.71 38.18 57.71 35.8"
       style="fill: #fff;"
       id="polygon115" />
  </g>
  <text
     id="variable_size_text"
     transform="translate(28.34 63.9)"
     style="fill: #231f20; font-family: ArialMT, Arial; font-size: 4px;"><tspan
       x="0"
       y="0"
       id="tspan115" /></text>
  <text
     id="variable_size_box"
     transform="translate(28.34 86.86)"
     style="fill: #231f20; font-family: Arial-BoldMT, 'Arial MT'; font-size: 4px; font-weight: 700;"><tspan
       x="0"
       y="0"
       id="tspan116" /></text>
  <g
     id="size_text_group">
    <text
       id="size_0_0"
       transform="translate(34.0 52.0)"
       text-anchor="middle"
       style="fill: #231f20; font-family: ArialMT, Arial; font-size: 4px;"><tspan
         id="tspan117">48/50</tspan></text>
    <text
       id="size_0_1"
       transform="translate(56.6 52.0)"
       text-anchor="middle"
       style="fill: #231f20; font-family: ArialMT, Arial; font-size: 4px;"><tspan
         id="tspan118">S</tspan></text>
    <text
       id="size_0_2"
       transform="translate(79.2 52.0)"
       text-anchor="middle"
       style="fill: #231f20; font-family: ArialMT, Arial; font-size: 4px;"><tspan
         id="tspan119">44/46</tspan></text>
    <text
       id="size_0_3"
       transform="translate(101.80000000000001 52.0)"
       text-anchor="middle"
       style="fill: #231f20; font-family: ArialMT, Arial; font-size: 4px;"><tspan
         id="tspan120">46/48</tspan></text>
    <text
       id="size_0_4"
       transform="translate(127.4 52.0)"
       text-anchor="middle"
       style="fill: #231f20; font-family: ArialMT, Arial; font-size: 4px;"><tspan
         id="tspan121">16/18</tspan></text>
    <text
       id="size_1_0"
       transform="translate(34.0 61.0)"
       text-anchor="middle"
       style="fill: #231f20; font-family: ArialMT, Arial; font-size: 4px;"><tspan
         id="tspan122">46/48</tspan></text>
    <text
       id="size_1_1"
       transform="translate(56.6 61.0)"
       text-anchor="middle"
       style="fill: #231f20; font-family: ArialMT, Arial; font-size: 4px;"><tspan
         id="tspan123">M</tspan></text>
    <text
       id="size_1_2"
       transform="translate(79.2 61.0)"
       text-anchor="middle"
       style="fill: #231f20; font-family: ArialMT, Arial; font-size: 4px;"><tspan
         id="tspan124">42/44</tspan></text>
    <text
       id="size_1_3"
       transform="translate(101.80000000000001 61.0)"
       text-anchor="middle"
       style="fill: #231f20; font-family: ArialMT, Arial; font-size: 4px;"><tspan
         id="tspan125">44/46</tspan></text>
    <text
       id="size_1_4"
       transform="translate(127.4 61.0)"
       text-anchor="middle"
       style="fill: #231f20; font-family: ArialMT, Arial; font-size: 4px;"><tspan
         id="tspan126">14/16</tspan></text>
    <text
       id="size_2_0"
       transform="translate(34.0 70.0)"
       text-anchor="middle"
       style="fill: #231f20; font-family: ArialMT, Arial; font-size: 4px;"><tspan
         id="tspan127">44/46</tspan></text>
    <text
       id="size_2_1"
       transform="translate(56.6 70.0)"
       text-anchor="middle"
       style="fill: #231f20; font-family: ArialMT, Arial; font-size: 4px;"><tspan
         id="tspan128">L</tspan></text>
    <text
       id="size_2_2"
       transform="translate(79.2 70.0)"
       text-anchor="middle"
       style="fill: #231f20; font-family: ArialMT, Arial; font-size: 4px;"><tspan
         id="tspan129">40/42</tspan></text>
    <text
       id="size_2_3"
       transform="translate(101.80000000000001 70.0)"
       text-anchor="middle"
       style="fill: #231f20; font-family: ArialMT, Arial; font-size: 4px;"><tspan
         id="tspan130">42/44</tspan></text>
    <text
       id="size_2_4"
       transform="translate(127.4 70.0)"
       text-anchor="middle"
       style="fill: #231f20; font-family: ArialMT, Arial; font-size: 4px;"><tspan
         id="tspan131">12/14</tspan></text>
    <text
       id="size_3_0"
       transform="translate(34.0 79.0)"
       text-anchor="middle"
       style="fill: #231f20; font-family: Arial-BoldMT, 'Arial MT'; font-size: 4px; font-weight: 700;"><tspan
         id="tspan132">52/54</tspan></text>
    <text
       id="size_3_1"
       transform="translate(56.6 79.0)"
       text-anchor="middle"
       style="fill: #231f20; font-family: Arial-BoldMT, 'Arial MT'; font-size: 4px; font-weight: 700;"><tspan
         id="tspan133">XL</tspan></text>
    <text
       id="size_3_2"
       transform="translate(79.2 79.0)"
       text-anchor="middle"
       style="fill: #231f20; font-family: Arial-BoldMT, 'Arial MT'; font-size: 4px; font-weight: 700;"><tspan
         id="tspan134">46/48</tspan></text>
    <text
       id="size_3_3"
       transform="translate(101.80000000000001 79.0)"
       text-anchor="middle"
       style="fill: #231f20; font-family: Arial-BoldMT, 'Arial MT'; font-size: 4px; font-weight: 700;"><tspan
         id="tspan135">48/50</tspan></text>
    <text
       id="size_3_4"
       transform="translate(127.4 79.0)"
       text-anchor="middle"
       style="fill: #231f20; font-family: Arial-BoldMT, 'Arial MT'; font-size: 4px; font-weight: 700;"><tspan
         id="tspan136">18/20</tspan></text>
  </g>
</svg>
