<?xml version="1.0" encoding="UTF-8"?>
<svg xmlns="http://www.w3.org/2000/svg" width="105" height="105.5" style="">
<rect x="46.5" y="65" width="1.105263157894737" height="30.5" fill="cmyk(0,0,0,100)" />
<rect x="48.71052631578948" y="65" width="1.105263157894737" height="30.5" fill="cmyk(0,0,0,100)" />
<rect x="53.13157894736843" y="65" width="2.210526315789474" height="30.5" fill="cmyk(0,0,0,100)" />
<rect x="56.447368421052644" y="65" width="1.105263157894737" height="30.5" fill="cmyk(0,0,0,100)" />
<rect x="58.657894736842124" y="65" width="3.315789473684211" height="30.5" fill="cmyk(0,0,0,100)" />
<rect x="64.18421052631581" y="65" width="1.105263157894737" height="30.5" fill="cmyk(0,0,0,100)" />
<rect x="66.39473684210529" y="65" width="1.105263157894737" height="30.5" fill="cmyk(0,0,0,100)" />
<rect x="70.81578947368423" y="65" width="2.210526315789474" height="30.5" fill="cmyk(0,0,0,100)" />
<rect x="74.13157894736845" y="65" width="1.105263157894737" height="30.5" fill="cmyk(0,0,0,100)" />
<rect x="77.44736842105267" y="65" width="3.315789473684211" height="30.5" fill="cmyk(0,0,0,100)" />
<rect x="81.86842105263162" y="65" width="1.105263157894737" height="30.5" fill="cmyk(0,0,0,100)" />
<rect x="87.3947368421053" y="65" width="1.105263157894737" height="30.5" fill="cmyk(0,0,0,100)" />
<rect x="90.71052631578952" y="65" width="2.210526315789474" height="30.5" fill="cmyk(0,0,0,100)" />
<rect x="95.13157894736848" y="65" width="1.105263157894737" height="30.5" fill="cmyk(0,0,0,100)" />
<rect x="97.34210526315796" y="65" width="1.105263157894737" height="30.5" fill="cmyk(0,0,0,100)" />
<rect x="99.55263157894744" y="65" width="1.105263157894737" height="30.5" fill="cmyk(0,0,0,100)" />
<rect x="101.76315789473692" y="65" width="1.105263157894737" height="30.5" fill="cmyk(0,0,0,100)" />
<rect x="105.07894736842114" y="65" width="3.315789473684211" height="30.5" fill="cmyk(0,0,0,100)" />
<rect x="109.50000000000009" y="65" width="1.105263157894737" height="30.5" fill="cmyk(0,0,0,100)" />
<rect x="111.71052631578956" y="65" width="3.315789473684211" height="30.5" fill="cmyk(0,0,0,100)" />
<rect x="117.23684210526325" y="65" width="1.105263157894737" height="30.5" fill="cmyk(0,0,0,100)" />
<rect x="121.6578947368422" y="65" width="1.105263157894737" height="30.5" fill="cmyk(0,0,0,100)" />
<rect x="124.97368421052641" y="65" width="1.105263157894737" height="30.5" fill="cmyk(0,0,0,100)" />
<rect x="127.1842105263159" y="65" width="1.105263157894737" height="30.5" fill="cmyk(0,0,0,100)" />
<rect x="132.7105263157896" y="65" width="1.105263157894737" height="30.5" fill="cmyk(0,0,0,100)" />
<rect x="134.92105263157907" y="65" width="1.105263157894737" height="30.5" fill="cmyk(0,0,0,100)" />
<rect x="140.44736842105277" y="65" width="2.210526315789474" height="30.5" fill="cmyk(0,0,0,100)" />
<rect x="144.86842105263173" y="65" width="2.210526315789474" height="30.5" fill="cmyk(0,0,0,100)" />
<rect x="148.18421052631595" y="65" width="1.105263157894737" height="30.5" fill="cmyk(0,0,0,100)" />
<rect x="150.39473684210543" y="65" width="1.105263157894737" height="30.5" fill="cmyk(0,0,0,100)" />
</svg>