<?xml version="1.0" encoding="UTF-8"?>
<!DOCTYPE svg PUBLIC "-//W3C//DTD SVG 1.1//EN" "http://www.w3.org/Graphics/SVG/1.1/DTD/svg11.dtd">
<svg width="65" height="24.1" version="1.1" xmlns="http://www.w3.org/2000/svg" viewBox="0 0 65 24.1" style="background-color:white">
	<g id="bars" fill="cmyk(0,0,0,100)" stroke="none">
		<rect x="10" y="0" width="0.732" height="24.1" fill="cmyk(0,0,0,100)" />
		<rect x="11.097999999999999" y="0" width="0.366" height="24.1" fill="cmyk(0,0,0,100)" />
		<rect x="12.195999999999998" y="0" width="1.098" height="24.1" fill="cmyk(0,0,0,100)" />
		<rect x="14.025999999999998" y="0" width="0.366" height="24.1" fill="cmyk(0,0,0,100)" />
		<rect x="14.757999999999997" y="0" width="0.366" height="24.1" fill="cmyk(0,0,0,100)" />
		<rect x="15.855999999999996" y="0" width="1.463" height="24.1" fill="cmyk(0,0,0,100)" />
		<rect x="18.050999999999995" y="0" width="1.098" height="24.1" fill="cmyk(0,0,0,100)" />
		<rect x="19.514999999999993" y="0" width="0.366" height="24.1" fill="cmyk(0,0,0,100)" />
		<rect x="20.246999999999993" y="0" width="0.732" height="24.1" fill="cmyk(0,0,0,100)" />
		<rect x="22.07699999999999" y="0" width="0.366" height="24.1" fill="cmyk(0,0,0,100)" />
		<rect x="23.17499999999999" y="0" width="0.732" height="24.1" fill="cmyk(0,0,0,100)" />
		<rect x="24.27299999999999" y="0" width="0.366" height="24.1" fill="cmyk(0,0,0,100)" />
		<rect x="26.10199999999999" y="0" width="0.366" height="24.1" fill="cmyk(0,0,0,100)" />
		<rect x="27.93099999999999" y="0" width="0.732" height="24.1" fill="cmyk(0,0,0,100)" />
		<rect x="29.39499999999999" y="0" width="0.366" height="24.1" fill="cmyk(0,0,0,100)" />
		<rect x="30.12699999999999" y="0" width="0.732" height="24.1" fill="cmyk(0,0,0,100)" />
		<rect x="31.224999999999987" y="0" width="0.732" height="24.1" fill="cmyk(0,0,0,100)" />
		<rect x="33.054999999999986" y="0" width="0.732" height="24.1" fill="cmyk(0,0,0,100)" />
		<rect x="34.152999999999984" y="0" width="0.366" height="24.1" fill="cmyk(0,0,0,100)" />
		<rect x="34.884999999999984" y="0" width="0.732" height="24.1" fill="cmyk(0,0,0,100)" />
		<rect x="36.71499999999998" y="0" width="0.366" height="24.1" fill="cmyk(0,0,0,100)" />
		<rect x="38.17899999999998" y="0" width="0.732" height="24.1" fill="cmyk(0,0,0,100)" />
		<rect x="39.27699999999998" y="0" width="0.732" height="24.1" fill="cmyk(0,0,0,100)" />
		<rect x="40.74099999999998" y="0" width="0.732" height="24.1" fill="cmyk(0,0,0,100)" />
		<rect x="42.20499999999998" y="0" width="0.366" height="24.1" fill="cmyk(0,0,0,100)" />
		<rect x="43.302999999999976" y="0" width="1.098" height="24.1" fill="cmyk(0,0,0,100)" />
		<rect x="44.766999999999975" y="0" width="0.732" height="24.1" fill="cmyk(0,0,0,100)" />
		<rect x="46.23099999999997" y="0" width="0.366" height="24.1" fill="cmyk(0,0,0,100)" />
		<rect x="47.32899999999997" y="0" width="0.366" height="24.1" fill="cmyk(0,0,0,100)" />
		<rect x="48.06099999999997" y="0" width="0.732" height="24.1" fill="cmyk(0,0,0,100)" />
		<rect x="50.25599999999997" y="0" width="0.732" height="24.1" fill="cmyk(0,0,0,100)" />
		<rect x="52.08599999999997" y="0" width="1.098" height="24.1" fill="cmyk(0,0,0,100)" />
		<rect x="53.54999999999997" y="0" width="0.366" height="24.1" fill="cmyk(0,0,0,100)" />
		<rect x="54.28199999999997" y="0" width="0.732" height="24.1" fill="cmyk(0,0,0,100)" />
		<rect x="55.01399999999997" y="0" width="0.0" height="24.1" fill="cmyk(0,0,0,100)" />
		<rect x="55.01399999999997" y="0" width="0.0" height="24.1" fill="cmyk(0,0,0,100)" />
	</g>
</svg>