<?xml version="1.0" encoding="UTF-8"?>
<svg id="Layer_1" data-name="Layer 1" data-size="34mm x 26mm" xmlns="http://www.w3.org/2000/svg" viewBox="0 0 149.65 149.27">
 
  <text id="quantity" style="font-family: Arial-BoldMT, Arial; font-size: 15px; font-weight: 700; isolation: isolate;" y="97%" x="50%" text-anchor="middle"></text>

  <g>
    <line x1="11.35" y1="1.51" x2="11.35" y2="41.44" style="fill: none; stroke: #00aeef; stroke-dasharray: 1.5 2; stroke-width: .5px;"/>
    <line x1="19.77" y1="2.17" x2="2.68" y2="2.17" style="fill: none; stroke: #00aeef; stroke-width: .5px;"/>
    <g>
      <path d="M7.02,33.19v.38H.86c.52.49.81,1.16.88,1.85h-.33c-.12-.8-.59-1.48-1.29-1.89v-.34h6.9Z" style="fill: #00aeef;"/>
      <path d="M4.74,30.2c1.28.05,2.07-.74,2.07-2.01,0-1.02-.6-1.98-1.7-1.98-1.32,0-1.67,1.18-1.59,2.32h-.33c.04-1.01-.25-2.16-1.45-2.16-.97,0-1.41.98-1.41,1.82,0,1.21.83,1.79,1.97,1.84v.38c-1.36,0-2.3-.85-2.3-2.22,0-1.11.51-2.2,1.74-2.2.82,0,1.47.54,1.58,1.35h.02c.11-.94.84-1.51,1.77-1.51,1.36,0,2.03,1.08,2.03,2.36,0,1.52-.86,2.46-2.4,2.39v-.38Z" style="fill: #00aeef;"/>
      <path d="M1.88,22.03v-.38h1.05v-.02c-.65-.16-1.17-.84-1.17-1.61,0-.98.56-1.44,1.09-1.55v-.02c-.7-.3-1.09-.8-1.09-1.63,0-.93.54-1.61,1.75-1.61h3.51v.38h-3.52c-1.31,0-1.41.93-1.41,1.23,0,.93.66,1.61,1.89,1.61h3.04v.38h-3.52c-1.29,0-1.41.88-1.41,1.21,0,.73.57,1.63,1.89,1.63h3.04v.38H1.88Z" style="fill: #00aeef;"/>
      <path d="M1.88,14.07v-.38h1.05v-.02c-.65-.16-1.17-.84-1.17-1.61,0-.98.56-1.44,1.09-1.55v-.02c-.7-.3-1.09-.8-1.09-1.63,0-.93.54-1.61,1.75-1.61h3.51v.38h-3.52c-1.31,0-1.41.93-1.41,1.23,0,.93.66,1.61,1.89,1.61h3.04v.38h-3.52c-1.29,0-1.41.88-1.41,1.21,0,.73.57,1.63,1.89,1.63h3.04v.38H1.88Z" style="fill: #00aeef;"/>
    </g>
    <line x1="11.35" y1="43.57" x2="11.35" y2="83.5" style="fill: none; stroke: #00aeef; stroke-dasharray: 1.5 2; stroke-width: .5px;"/>
    <line x1="19.77" y1="44.23" x2="2.68" y2="44.23" style="fill: none; stroke: #00aeef; stroke-width: .5px;"/>
    <line x1="19.77" y1="84.23" x2="2.68" y2="84.23" style="fill: none; stroke: #00aeef; stroke-width: .5px;"/>
    <g>
      <path d="M7.02,75.25v.38H.86c.52.49.81,1.16.88,1.85h-.33c-.12-.8-.59-1.48-1.29-1.89v-.34h6.9Z" style="fill: #00aeef;"/>
      <path d="M4.74,72.26c1.28.05,2.07-.74,2.07-2.01,0-1.02-.6-1.98-1.7-1.98-1.32,0-1.67,1.18-1.59,2.32h-.33c.04-1.01-.25-2.16-1.45-2.16-.97,0-1.41.98-1.41,1.82,0,1.21.83,1.79,1.97,1.84v.38c-1.36,0-2.3-.85-2.3-2.22,0-1.11.51-2.2,1.74-2.2.82,0,1.47.54,1.58,1.35h.02c.11-.94.84-1.51,1.77-1.51,1.36,0,2.03,1.08,2.03,2.36,0,1.52-.86,2.46-2.4,2.39v-.38Z" style="fill: #00aeef;"/>
      <path d="M1.88,64.09v-.38h1.05v-.02c-.65-.16-1.17-.84-1.17-1.61,0-.98.56-1.44,1.09-1.55v-.02c-.7-.3-1.09-.8-1.09-1.63,0-.93.54-1.61,1.75-1.61h3.51v.38h-3.52c-1.31,0-1.41.93-1.41,1.23,0,.93.66,1.61,1.89,1.61h3.04v.38h-3.52c-1.29,0-1.41.88-1.41,1.21,0,.73.57,1.63,1.89,1.63h3.04v.38H1.88Z" style="fill: #00aeef;"/>
      <path d="M1.88,56.13v-.38h1.05v-.02c-.65-.16-1.17-.84-1.17-1.61,0-.98.56-1.44,1.09-1.55v-.02c-.7-.3-1.09-.8-1.09-1.63,0-.93.54-1.61,1.75-1.61h3.51v.38h-3.52c-1.31,0-1.41.93-1.41,1.23,0,.93.66,1.61,1.89,1.61h3.04v.38h-3.52c-1.29,0-1.41.88-1.41,1.21,0,.73.57,1.63,1.89,1.63h3.04v.38H1.88Z" style="fill: #00aeef;"/>
    </g>
    <line x1="36.89" y1="101.25" x2="133.42" y2="101.25" style="fill: none; stroke: #00aeef; stroke-dasharray: 1.5 2; stroke-width: .5px;"/>
    <line x1="36.94" y1="94.07" x2="36.94" y2="109.99" style="fill: none; stroke: #00aeef; stroke-width: .5px;"/>
    <line x1="133.99" y1="93.68" x2="133.99" y2="109.21" style="fill: none; stroke: #00aeef; stroke-width: .5px;"/>
    <g>
      <path d="M74.12,109.58c-.05,1.28.74,2.07,2.01,2.07,1.02,0,1.98-.6,1.98-1.7,0-1.32-1.18-1.67-2.32-1.59v-.33c1.01.04,2.16-.25,2.16-1.45,0-.97-.98-1.41-1.82-1.41-1.21,0-1.79.83-1.84,1.97h-.38c0-1.36.85-2.3,2.22-2.3,1.11,0,2.2.51,2.2,1.74,0,.82-.54,1.47-1.35,1.58v.02c.94.11,1.51.84,1.51,1.77,0,1.36-1.08,2.03-2.36,2.03-1.52,0-2.46-.86-2.39-2.4h.38Z" style="fill: #00aeef;"/>
      <path d="M82.97,104.96v4.81h1.16v.33h-1.16v1.76h-.38v-1.76h-3.36v-.38l3.36-4.76h.38ZM82.59,105.48h-.02l-2.96,4.29h2.98v-4.29Z" style="fill: #00aeef;"/>
      <path d="M87.85,106.72h.38v1.05h.02c.16-.65.84-1.17,1.61-1.17.98,0,1.44.56,1.55,1.09h.02c.3-.7.8-1.09,1.63-1.09.93,0,1.61.54,1.61,1.75v3.51h-.38v-3.52c0-1.31-.93-1.41-1.23-1.41-.93,0-1.61.66-1.61,1.89v3.04h-.38v-3.52c0-1.29-.88-1.41-1.21-1.41-.73,0-1.63.57-1.63,1.89v3.04h-.38v-5.14Z" style="fill: #00aeef;"/>
      <path d="M95.81,106.72h.38v1.05h.02c.16-.65.84-1.17,1.61-1.17.98,0,1.44.56,1.55,1.09h.02c.3-.7.8-1.09,1.63-1.09.93,0,1.61.54,1.61,1.75v3.51h-.38v-3.52c0-1.31-.93-1.41-1.23-1.41-.93,0-1.61.66-1.61,1.89v3.04h-.38v-3.52c0-1.29-.88-1.41-1.21-1.41-.73,0-1.63.57-1.63,1.89v3.04h-.38v-5.14Z" style="fill: #00aeef;"/>
    </g>
    <rect x="36.3" y=".12" width="98.25" height="86.89" style="fill: #231f20; stroke: #a5a7aa; stroke-miterlimit: 10; stroke-width: .25px;"/>
    <line x1="149.65" y1="2.91" x2="20.65" y2="2.91" style="fill: none; stroke: #00a94f; stroke-dasharray: 4 2;"/>
    <line x1="149.65" y1="85.16" x2="20.65" y2="85.16" style="fill: none; stroke: #00a94f; stroke-dasharray: 4 2;"/>
    <g>
      <path d="M48.71,63.72c0-1.83,1.46-3.29,3.3-3.29s3.3,1.46,3.3,3.29-1.46,3.29-3.3,3.29-3.3-1.46-3.3-3.29ZM49.24,63.72c0,1.55,1.26,2.76,2.77,2.76s2.76-1.21,2.76-2.76-1.26-2.76-2.76-2.76-2.77,1.2-2.77,2.76ZM53.17,63.04c-.1-.46-.49-.71-1.05-.71-.91,0-1.28.69-1.28,1.35,0,.78.46,1.37,1.3,1.37.55,0,.91-.26,1.03-.75h.51c-.1.8-.78,1.28-1.54,1.28-1.11,0-1.84-.85-1.84-1.89s.69-1.9,1.83-1.9c.78,0,1.4.47,1.55,1.25h-.51Z" style="fill: #fff;"/>
      <path d="M62.06,66.02c-.48.56-1.15.99-1.89.99-1.06,0-1.94-.77-1.94-1.86,0-.8.5-1.24,1.11-1.68l.39-.28c-.36-.38-.7-.85-.7-1.38,0-.87.63-1.38,1.46-1.38.77,0,1.46.49,1.46,1.32,0,.71-.62,1.19-1.15,1.58l1.32,1.59.74-.86.5.52-.77.9,1.13,1.4h-.97l-.69-.85ZM60.11,63.81c-.44.3-1.15.73-1.15,1.33s.57,1.16,1.17,1.16,1.06-.44,1.45-.84l-1.4-1.71-.08.05ZM60.46,62.71c.32-.25.75-.51.75-.97s-.32-.69-.74-.69c-.38,0-.7.27-.7.67,0,.32.19.55.38.79l.21.27.1-.07Z" style="fill: #fff;"/>
      <path d="M69.14,61.1h-1.16v2.99h-.54v-2.99h-1.16v-.54h2.85v.54ZM73.6,64.09h-.54v-2.99h-.02l-1.21,2.99h-.33l-1.17-2.99h-.02v2.99h-.54v-3.53h.88l1.01,2.49,1.05-2.49h.87v3.53Z" style="fill: #fff;"/>
      <path d="M77.7,66.16h1.92v.72h-2.71v-6.32h.79v5.6Z" style="fill: #fff;"/>
      <path d="M80.77,62.96v2.17c0,.63.16,1.18.91,1.18s.91-.55.91-1.18v-2.17h.75v2.25c0,1.07-.5,1.8-1.66,1.8s-1.66-.73-1.66-1.8v-2.25h.75Z" style="fill: #fff;"/>
      <path d="M87.23,64.07c-.3-.34-.67-.53-1.12-.53-.74,0-1.31.65-1.31,1.37,0,.8.56,1.39,1.36,1.39.44,0,.79-.2,1.07-.52v.96c-.34.18-.69.26-1.08.26-1.16,0-2.1-.89-2.1-2.06s.94-2.11,2.14-2.11c.35,0,.74.08,1.04.26v.97Z" style="fill: #fff;"/>
      <path d="M91.72,66.88h-.75v-.61h-.02c-.3.44-.77.75-1.33.75-1.2,0-1.88-1-1.88-2.12s.71-2.05,1.85-2.05c.58,0,1.05.3,1.36.77h.02v-.65h.75v3.92ZM91.01,64.92c0-.76-.46-1.41-1.27-1.41s-1.24.68-1.24,1.41.44,1.42,1.24,1.42,1.27-.65,1.27-1.42Z" style="fill: #fff;"/>
      <path d="M94.27,63.85c-.09-.19-.29-.34-.5-.34s-.41.17-.41.39c0,.34.45.49.91.7.46.21.9.49.9,1.11,0,.75-.62,1.3-1.35,1.3-.57,0-1.15-.33-1.36-.88l.65-.29c.16.29.35.5.71.5.32,0,.6-.22.6-.55,0-.21-.1-.31-.28-.43l-.74-.39c-.44-.23-.75-.45-.75-.99,0-.64.52-1.14,1.16-1.14.48,0,.86.26,1.07.69l-.61.33Z" style="fill: #fff;"/>
      <path d="M97.86,60.37c-.15-.07-.34-.16-.5-.16-.54,0-.54.68-.54,1.06v1.68h1.04v.7h-1.04v3.22h-.75v-3.22h-.34v-.7h.34v-1.91c0-.86.29-1.54,1.27-1.54.18,0,.36.03.53.1v.76Z" style="fill: #fff;"/>
      <path d="M99.29,61.16c0,.28-.23.51-.52.51s-.52-.23-.52-.51.23-.53.52-.53.52.23.52.53ZM99.15,66.88h-.75v-3.92h.75v3.92Z" style="fill: #fff;"/>
      <path d="M101.14,66.88h-.75v-7.27h.75v7.27Z" style="fill: #fff;"/>
      <path d="M102.94,63.45h.02c.22-.34.61-.61,1.04-.61.51,0,.88.26,1.13.7.24-.42.71-.7,1.21-.7,1.03,0,1.3.8,1.3,1.69v2.35h-.75v-2.22c0-.5-.07-1.15-.73-1.15-.8,0-.86.84-.86,1.44v1.93h-.75v-2.08c0-.51-.03-1.29-.72-1.29-.81,0-.87.83-.87,1.44v1.93h-.75v-3.92h.75v.49Z" style="fill: #fff;"/>
      <path d="M111.93,66.16h1.92v.72h-2.71v-6.32h.79v5.6Z" style="fill: #fff;"/>
      <path d="M115.15,66.88h-.75v-3.22h-.41v-.7h.41v-1.5h.75v1.5h.74v.7h-.74v3.22Z" style="fill: #fff;"/>
      <path d="M119.23,66.27h-.02c-.3.44-.78.75-1.33.75-1.21,0-1.88-1-1.88-2.12s.71-2.05,1.84-2.05c.59,0,1.06.3,1.37.77h.02v-4.01h.75v7.27h-.75v-.61ZM119.27,64.92c0-.76-.46-1.41-1.27-1.41s-1.24.68-1.24,1.41.44,1.42,1.24,1.42,1.27-.65,1.27-1.42Z" style="fill: #fff;"/>
      <path d="M122.14,66.53c0,.27-.22.49-.49.49s-.49-.22-.49-.49.22-.49.49-.49.49.23.49.49Z" style="fill: #fff;"/>
    </g>
    <g id="Logo">
      <path d="M116.16,36.12h.56v1.55h.29v-1.55h.56v-.24h-1.41v.24ZM119.45,35.88l-.52,1.36-.53-1.36h-.45v1.79h.29v-1.49h.01l.58,1.49h.19l.59-1.49h0v1.49h.29v-1.79h-.45Z" style="fill: #fff;"/>
      <path d="M108.03,24.33c-.69.51-1.69,1.68-1.69,3.28s.97,2.85.97,2.85c.5.62,1.76,1.91,1.76,1.91.03.03.05.07.05.12,0,.1-.08.18-.17.18h-7.04c-.85,0-.91-.34-.91-.39,0-.09.11-.14.11-.14.32-.15.97-.66.97-.66,1.39-1.08,1.56-2.57,1.56-3.36s-.12-2.21-1.54-3.44c-1.43-1.24-3.23-1.27-3.23-1.27h-10.04v14.36h5.67v-4.11l3.02,3.03c1.03,1.05,2.75,1.08,2.75,1.08h11c1.88,0,2.92-1.02,3.21-1.31s1.24-1.35,1.24-3.12-.81-2.68-1.15-3.09c-.31-.37-1.54-1.67-1.79-1.94-.03-.02-.05-.06-.05-.11,0-.06.03-.12.09-.14h7.1v-4.66h-9.13c-.86,0-2.05.44-2.75.95ZM97.77,29.26h-3.22s0-1.82,0-1.82h2.96c.33,0,1.01.17,1.01.94s-.75.88-.75.88ZM75.23,23.38s-4.34,14.33-4.34,14.36h5.32s.65-2.08.65-2.08h4.88s.67,2.08.67,2.08h5.24s-4.45-14.36-4.45-14.36h-7.96ZM78.12,31.76l1.23-3.99,1.23,3.99h-2.46ZM67.36,23.38s-1.17,3.9-1.17,3.91l-1.22-3.91s-5.95,0-5.95,0l-1.09,3.91-1.17-3.91s-5.82,0-5.82,0l4.44,14.36h4.81l1.71-5.52,1.66,5.52h4.86s4.37-14.34,4.37-14.36h-5.45ZM112.97,17.24c-.86,0-.91-.34-.91-.39,0-.09.11-.14.11-.14.32-.15.97-.67.97-.67,1.39-1.08,1.56-2.56,1.56-3.36s-.12-2.21-1.55-3.44c-1.42-1.24-3.23-1.27-3.23-1.27h-10.04v14.36s5.68,0,5.68,0v-4.11l3.02,3.03c1.03,1.04,2.74,1.08,2.74,1.08h8.59v-5.08h-6.94ZM108.83,13.84h-3.22s0-1.82,0-1.82h2.96c.33,0,1.01.17,1.01.94s-.75.88-.75.88ZM93.73,22.32h5.24s-4.45-14.36-4.45-14.36h-7.96s-4.34,14.34-4.34,14.36h5.32s.65-2.08.65-2.08h4.89l.66,2.08ZM89.45,16.34l1.23-3.99,1.23,3.99h-2.46ZM67.97,21.01c.28-.28,1.24-1.35,1.24-3.12s-.81-2.68-1.15-3.1c-.31-.37-1.53-1.66-1.79-1.93-.03-.02-.05-.06-.05-.1,0-.06.03-.12.09-.14h6.64v9.7h5.11v-9.68h6.2v-4.68h-19.98c-.85,0-2.06.44-2.75.95-.69.51-1.69,1.67-1.69,3.28s.97,2.85.97,2.85c.5.62,1.76,1.92,1.76,1.92.03.03.05.07.05.11,0,.1-.08.18-.17.18h-11.48v5.07h13.79c1.88,0,2.92-1.02,3.21-1.31Z" style="fill: #fff;"/>
    </g>
    <line x1="149.65" y1="43.57" x2="20.65" y2="43.57" style="fill: none; stroke: #616161; stroke-dasharray: 3;"/>
  </g>
</svg>