<?xml version="1.0" encoding="UTF-8"?>
<svg id="Layer_1" data-name="Layer 1" data-size="mm x mm" xmlns="http://www.w3.org/2000/svg"
  viewBox="0 0 106.22 209.34">

  <text id="quantity" style="font-family: Arial-BoldMT, Arial; font-size: 15px; font-weight: 700; isolation: isolate;"
    y="97%" x="50%" text-anchor="middle"></text>

  <line x1="29.01" y1="160.95" x2="98.31" y2="160.95"
    style="fill: none; stroke: #00aeef; stroke-dasharray: 1.43 1.91; stroke-width: .48px;" />
  <line x1="29.03" y1="153.77" x2="29.03" y2="169.69" style="fill: none; stroke: #00aeef; stroke-width: .48px;" />
  <line x1="98.01" y1="153.38" x2="98.01" y2="168.91" style="fill: none; stroke: #00aeef; stroke-width: .48px;" />
  <g>
    <path
      d="M54.67,171.17v.38h-4.51c.08-1.29,1.08-2,2.07-2.67.98-.67,1.96-1.31,1.96-2.47,0-.94-.78-1.55-1.67-1.55-1.24,0-1.82.93-1.82,2.12h-.37c.08-1.65.81-2.45,2.14-2.45,1.15,0,2.1.62,2.1,1.89s-.93,1.97-1.9,2.63c-.97.66-1.96,1.27-2.03,2.12h4.04Z"
      style="fill: #00aeef;" />
    <path
      d="M59.11,164.66v4.81h1.14v.33h-1.14v1.76h-.37v-1.76h-3.3v-.38l3.3-4.76h.37ZM58.74,165.18h-.02l-2.9,4.29h2.92v-4.29Z"
      style="fill: #00aeef;" />
    <path
      d="M63.9,166.42h.37v1.05h.02c.16-.65.82-1.17,1.58-1.17.96,0,1.41.56,1.52,1.09h.02c.29-.7.79-1.09,1.6-1.09.91,0,1.58.54,1.58,1.75v3.51h-.37v-3.52c0-1.31-.91-1.41-1.21-1.41-.91,0-1.58.66-1.58,1.89v3.04h-.37v-3.52c0-1.29-.86-1.41-1.19-1.41-.72,0-1.6.57-1.6,1.89v3.04h-.37v-5.14Z"
      style="fill: #00aeef;" />
    <path
      d="M71.71,166.42h.37v1.05h.02c.16-.65.82-1.17,1.58-1.17.96,0,1.41.56,1.52,1.09h.02c.29-.7.79-1.09,1.6-1.09.91,0,1.58.54,1.58,1.75v3.51h-.37v-3.52c0-1.31-.91-1.41-1.21-1.41-.91,0-1.58.66-1.58,1.89v3.04h-.37v-3.52c0-1.29-.86-1.41-1.19-1.41-.72,0-1.6.57-1.6,1.89v3.04h-.37v-5.14Z"
      style="fill: #00aeef;" />
  </g>
  <g>
    <line x1="20.14" y1="5.29" x2="3.06" y2="5.29" style="fill: none; stroke: #00aeef; stroke-width: .41px;" />
    <line x1="11.73" y1="5.44" x2="11.73" y2="73.57"
      style="fill: none; stroke: #00aeef; stroke-dasharray: 1.24 1.65; stroke-width: .41px;" />
    <line x1="20.14" y1="73.78" x2="3.06" y2="73.78" style="fill: none; stroke: #00aeef; stroke-width: .41px;" />
    <g>
      <path
        d="M6.64,48.27h.38v4.39c-1.29-.08-2-1.05-2.67-2.01-.67-.95-1.31-1.91-2.47-1.91-.94,0-1.55.76-1.55,1.62,0,1.2.93,1.77,2.12,1.77v.36c-1.65-.08-2.45-.79-2.45-2.08,0-1.12.62-2.04,1.89-2.04s1.97.91,2.63,1.85c.66.94,1.27,1.91,2.12,1.97v-3.93Z"
        style="fill: #00aeef;" />
      <path
        d="M.12,46.56v-3.33h.33v3.04l2.75.56.02-.02c-.55-.38-.83-.97-.83-1.63,0-1.31.98-2.23,2.35-2.23s2.4.92,2.4,2.23-.84,2.35-2.23,2.26v-.36c1.15.02,1.9-.84,1.9-1.9,0-1.12-.94-1.87-2.07-1.87s-2.02.79-2.02,1.87c0,.74.33,1.27.97,1.69v.37l-3.57-.69Z"
        style="fill: #00aeef;" />
      <path
        d="M1.88,39.29v-.36h1.05v-.02c-.65-.15-1.17-.8-1.17-1.54,0-.93.56-1.37,1.09-1.48v-.02c-.7-.29-1.09-.76-1.09-1.55,0-.89.54-1.54,1.75-1.54h3.51v.36h-3.52c-1.31,0-1.41.89-1.41,1.17,0,.89.66,1.54,1.89,1.54h3.04v.36h-3.52c-1.29,0-1.41.84-1.41,1.15,0,.7.57,1.55,1.89,1.55h3.04v.36H1.88Z"
        style="fill: #00aeef;" />
      <path
        d="M1.88,31.7v-.36h1.05v-.02c-.65-.15-1.17-.8-1.17-1.54,0-.93.56-1.37,1.09-1.48v-.02c-.7-.29-1.09-.76-1.09-1.55,0-.89.54-1.54,1.75-1.54h3.51v.36h-3.52c-1.31,0-1.41.89-1.41,1.17,0,.89.66,1.54,1.89,1.54h3.04v.36h-3.52c-1.29,0-1.41.84-1.41,1.15,0,.7.57,1.55,1.89,1.55h3.04v.36H1.88Z"
        style="fill: #00aeef;" />
    </g>
  </g>
  <g>
    <line x1="20.14" y1="74.11" x2="3.06" y2="74.11" style="fill: none; stroke: #00aeef; stroke-width: .41px;" />
    <line x1="11.73" y1="74.26" x2="11.73" y2="142.39"
      style="fill: none; stroke: #00aeef; stroke-dasharray: 1.24 1.65; stroke-width: .41px;" />
    <line x1="20.14" y1="142.6" x2="3.06" y2="142.6" style="fill: none; stroke: #00aeef; stroke-width: .41px;" />
    <g>
      <path
        d="M6.64,117.09h.38v4.39c-1.29-.08-2-1.05-2.67-2.01-.67-.95-1.31-1.91-2.47-1.91-.94,0-1.55.76-1.55,1.62,0,1.2.93,1.77,2.12,1.77v.36c-1.65-.08-2.45-.79-2.45-2.08,0-1.12.62-2.04,1.89-2.04s1.97.91,2.63,1.85c.66.94,1.27,1.91,2.12,1.97v-3.93Z"
        style="fill: #00aeef;" />
      <path
        d="M.12,115.37v-3.33h.33v3.04l2.75.56.02-.02c-.55-.38-.83-.97-.83-1.63,0-1.31.98-2.23,2.35-2.23s2.4.92,2.4,2.23-.84,2.35-2.23,2.26v-.36c1.15.02,1.9-.84,1.9-1.9,0-1.12-.94-1.87-2.07-1.87s-2.02.79-2.02,1.87c0,.74.33,1.27.97,1.69v.37l-3.57-.69Z"
        style="fill: #00aeef;" />
      <path
        d="M1.88,108.11v-.36h1.05v-.02c-.65-.15-1.17-.8-1.17-1.54,0-.93.56-1.37,1.09-1.48v-.02c-.7-.29-1.09-.76-1.09-1.55,0-.89.54-1.54,1.75-1.54h3.51v.36h-3.52c-1.31,0-1.41.89-1.41,1.17,0,.89.66,1.54,1.89,1.54h3.04v.36h-3.52c-1.29,0-1.41.84-1.41,1.15,0,.7.57,1.55,1.89,1.55h3.04v.36H1.88Z"
        style="fill: #00aeef;" />
      <path
        d="M1.88,100.52v-.36h1.05v-.02c-.65-.15-1.17-.8-1.17-1.54,0-.93.56-1.37,1.09-1.48v-.02c-.7-.29-1.09-.76-1.09-1.55,0-.89.54-1.54,1.75-1.54h3.51v.36h-3.52c-1.31,0-1.41.89-1.41,1.17,0,.89.66,1.54,1.89,1.54h3.04v.36h-3.52c-1.29,0-1.41.84-1.41,1.15,0,.7.57,1.55,1.89,1.55h3.04v.36H1.88Z"
        style="fill: #00aeef;" />
    </g>
  </g>
  <polyline points="29.74 74.28 29.74 .25 97.77 .25 97.77 74.28"
    style="fill: #fff; stroke: #2e3192; stroke-width: .5px;" />
  <line x1="22.64" y1="2.29" x2="104.87" y2="2.29" style="fill: none; stroke: #00a94f; stroke-dasharray: 4 2;" />
  <polyline points="97.77 74.28 97.77 147.24 29.74 147.24 29.74 74.28"
    style="fill: #fff; stroke: #2e3192; stroke-width: .5px;" />
  <line x1="21.28" y1="74.22" x2="106.22" y2="74.22" style="fill: none; stroke: #ed1c24; stroke-dasharray: 3;" />
  <line x1="22.64" y1="144.68" x2="104.87" y2="144.68" style="fill: none; stroke: #00a94f; stroke-dasharray: 4 2;" />
  <g>
    <path
      d="M63.46,30.57c.34.04.89.15,1.18.31.39.23.7.64.65,1.15-.06.61-.36,1.34-.63,1.65-.63.84-1.44,1.34-2.43,1.79-.77.36-1.93.44-2.83.22-.13.17-.43.64-.83.57-.45-.23-.46-.79-.42-1.29-.42-.47-.76-1.1-.56-1.81.13-.79.56-1.36,1.13-1.87.77-.66,1.67-.98,2.65-1.19.75-.16,1.64-.12,2.09.48ZM58.54,33.23c-.02.2.11.45.28.5.4-.86,1.4-1.95,2.28-2.47-1.05-.1-2.45.83-2.55,1.97ZM63.79,31.75c-1.56-.26-2.62.99-3.37,1.86-.18.21-.32.48-.42.79.19.2.71.14,1.08.08,1.23-.21,2.66-.69,3.13-1.87.05-.23.05-.53-.13-.69l-.29-.17Z" />
    <path
      d="M75.61,36.76c.66,1.06,1.17,2.13,1.35,3.42h0c.05,1.13.19,2.2-.33,3.17-.25.46-.77,1.15-1.5.87-.71-.39-1.12-1.23-1.55-1.91-.41-.69-.87-1.52-1.26-2.27-.04-.08-.16-.19-.22-.12-.03.09-.05.22-.05.36-.06,1.19-.14,2.26-.18,3.41-.03.35-.1.66-.3.88-.14.1-.46.08-.66.01-.65-.33-.6-1.15-.6-1.84.05-.54.08-1.13.17-1.68.16-1.06.35-2.19.77-3.15.11-.21.21-.35.45-.44.42-.09.78.49.94.69.91,1.16,1.67,2.42,2.54,3.65.11.16.16.33.29.26.15-.1.02-.83-.05-1.29-.12-.69-.25-1.34-.45-2.01-.23-.77-.49-1.51-.58-2.34-.03-.2-.05-.39-.02-.58.05-.17.27-.15.4-.09.41.2.64.68.84.99Z" />
    <path
      d="M84.03,37.87c.1.15.29.41.2.54-.48.53-1.29.28-1.92.35l-1.62.05c-.16.06-.18.23-.26.35-.08.27-.2.57-.16.84l.1.06c.78.04,1.6-.12,2.32.1.12.05.16.53.14.82-.07.28-.87.28-1.31.3-.56.02-1.09,0-1.63.01-.11.19-.25.48-.37.71-.1.25-.38.62-.14.96.16.22,2.12-.58,3.34-.49.16.01.47.57.46.96,0,0-.06.16-.18.25-.29.22-2.06,1.33-3.29,1.48-.7.07-1.2-.01-1.77-.72-.42-.54-.56-1.39-.32-2.07.17-.5.46-.97.64-1.52-.04-.07-.06-.17-.08-.28.02-.12-.05-.29.08-.36.19-.09.43-.18.43-.18.24-.21.3-.61.42-.91.04-.1.12-.28.14-.4-.3-.12-.75-.12-1.08-.29-.28-.13-.59-.44-.46-.77.42-.34,1.93-.38,3.01-.53.71-.1,1.43-.22,2.19-.2.2.02.36.06.53.24l.59.68Z" />
    <path
      d="M69.37,37.15c.24.06.39.16.64.28.08.25-.12.5-.26.69-.33.21-.77.24-1.15.27-1.42.1-2.85.22-4.24.43-.37.09-.75.19-1.1.37-.03.06.06.13.11.15,1.59.4,3.37.28,4.97.65.88.26,1.36,1.12,1.49,1.95.01.59-.14,1.21-.49,1.62-1.27,1.21-3.28,1.24-4.92.77-.81-.25-1.81-.82-2.01-1.8-.05-.26-.02-.49.14-.67.21-.25.49-.47.8-.64,1.21-.53,2.62-.05,3.8.21.28.07.65.12.62.37-.08.31-.44.38-.7.51-1.12.52-2.37-.51-3.1-.52-.33.03-.67.08-.83.41-.06.13-.03.27.06.38.42.42,1.08.44,1.55.48.95.06,1.82-.22,2.66-.47.47-.15,1.07-.37,1.24-.88.11-.39-.66-.73-1.28-.9-1.48-.29-3.06.13-4.51-.37-.34-.12-.88-.35-.9-.82.07-.68.25-1.4.85-1.75,1.19-.7,2.56-.95,3.96-1.01.88-.03,1.72.02,2.61.26Z" />
    <path
      d="M60.68,38.59c0,.23.09.46.05.69.06,1.69.24,3.48.12,5.14-.03.23-.25.34-.43.41-.36.07-.71-.02-1.02-.14-.35-.49-.33-1.07-.37-1.7-.08-1.89.14-3.7.49-5.5.05-.18.05-.44.29-.48.62.27.89.86.86,1.57Z" />
    <path
      d="M87.21,36.82c.03.28,0,.5-.1.68-.15.35-.3.6-.44.88-.37.77-.77,1.53-1.07,2.29-.14.43-.36,1.01-.1,1.53.02-.05.28-.41.31-.48.83-1.28,1.52-2.08,2.63-3.18.56-.57,1.42-1.51,2.36-.98.43.37.63.76.84,1.26.42.97.21,2.24-.3,3.12-.55.95-1.24,1.53-2.07,2.19-.74.5-1.58.77-2.53.73-.13.21-.38.67-.53,1.02-.28.68-.93,2.91-1.08,3.68l-.25,1.57c0,.09-.11.2-.24.22-.54.05-.91-.39-1.1-.65-.33-.61-.51-1.42-.39-2.17.33-1.69.9-3.34,1.59-4.89-.24-.4-.42-1-.47-1.52-.09-1.48.62-3.05,1.43-4.15h0c.37-.46.73-1.04,1.29-1.33.08-.03.17.07.2.15ZM90.55,38.92c-.04-.06-.18-.11-.23-.02-.77.96-1.5,1.87-2.29,2.97-.26.37-.48.64-.8,1.13,0,0-.07.11.63.03.71-.09,1.99-.96,2.55-1.82.26-.4.4-1.09.39-1.41-.02-.33-.1-.63-.24-.89Z" />
    <path
      d="M48.7,30.08c2.82,1.11,5.47,2.77,7.52,4.99.84.9,1.5,1.97,2,3.14.21.71.41,1.39.29,2.25-.29,1.7-1.31,3.02-2.8,3.96-1.18.76-2.44,1.16-3.93,1.36-1.67.21-4.85-.02-5.27-.18,0,.44-.19.88-.46,1.05-.26.12-1.05.24-1.37-.26-.26-.48-.38-1.07-.44-1.6-2.01-.92-3.82-2.43-5.11-4.16-.2-.36-.22-.92.08-1.25,1.27-1.34,3.12-1.69,4.9-1.99.25-.04.39-.03.39-.03.02-.31.02-.73.09-.98,0-.88.2-1.77.33-2.62.03-.23.05-.46.25-.56.3-.1.56.32.7.62.18.46.33,1.5.33,1.5.07.64.13,1.25.18,1.8h.11c.89-.02,1.73.01,2.64.14,1.25.22,2.34.34,3.32,1.06.53.45,1.02,1.08.83,1.84-.24.61-.65,1.08-1.19,1.28-.52.12-1.07-.07-1.41-.27v-.1c.52-.24.99-.57,1.08-1.16,0-.24-.75-.34-1.07-.41-1.02-.25-2.05-.44-3.14-.54-.49-.05-.75-.03-1.11-.04.04.68.09,1.58.06,2.15,0,1.15.01,1.96-.02,2.93l.12.04c1.61.35,2.38.25,3.66.25,1.69-.17,3.27-.65,4.59-1.58.91-.63,1.48-1.47,1.54-2.58.13-.92-.45-1.8-.73-2.63-.91-1.37-2.12-2.6-3.49-3.61-2.85-2.02-6.1-3.11-9.55-3.73-1.5-.19-2.95-.37-4.56-.23-.35.03-.77.06-1.11.34.06.18.33.26.5.37.13.08.22.12.22.24-.17.2-.47.25-.72.26-.39.05-1.42.06-1.3-.53.12-.54.47-1.14.82-1.39,2.87-1.21,6.5-.82,9.47-.06.93.29,1.88.56,2.78.93ZM44.43,39.05c-.44-.09-.94.04-1.38.01-1.2.25-2.37.21-3.35.98-.14.16-.07.38.01.5,1.03,1.21,2.38,2.13,3.84,2.65.27.1.59.19.75.2,0-1.26.07-2.46.14-3.83.02-.21,0-.52,0-.52Z" />
  </g>
  <g>
    <path
      d="M51.49,110c0-1.71,1.37-3.08,3.1-3.08s3.1,1.37,3.1,3.08-1.37,3.08-3.1,3.08-3.1-1.37-3.1-3.08ZM57.21,110c0-1.45-1.21-2.61-2.62-2.61s-2.62,1.15-2.62,2.61,1.21,2.61,2.62,2.61,2.62-1.15,2.62-2.61ZM55.68,109.37c-.1-.43-.46-.7-.98-.7-.85,0-1.23.67-1.23,1.29,0,.73.46,1.31,1.25,1.31.52,0,.85-.27.96-.72h.48c-.1.74-.74,1.19-1.45,1.19-1.04,0-1.72-.79-1.72-1.77s.65-1.78,1.72-1.78c.73,0,1.31.43,1.45,1.17h-.48Z" />
    <path
      d="M58.35,107.02h1.12c.89,0,1.62.12,2.32.72.68.59.99,1.38.99,2.27s-.32,1.64-.97,2.22c-.71.63-1.42.75-2.36.75h-1.11v-5.96ZM59.5,112.36c.73,0,1.34-.1,1.88-.62.49-.46.74-1.08.74-1.75s-.26-1.34-.77-1.79c-.55-.48-1.15-.58-1.85-.58h-.48v4.73h.48Z" />
    <path
      d="M64.6,107.86c0,.25-.21.45-.45.45s-.45-.2-.45-.45.21-.45.45-.45.45.21.45.45ZM64.47,112.98h-.63v-3.72h.63v3.72Z" />
    <path
      d="M67.29,110.12c-.09-.2-.28-.38-.51-.38s-.46.17-.46.41c0,.34.43.47.86.65.44.18.86.44.86,1.07,0,.7-.57,1.21-1.26,1.21-.62,0-1.11-.36-1.31-.94l.56-.24c.16.35.34.59.76.59.34,0,.6-.23.6-.57,0-.83-1.68-.55-1.68-1.72,0-.62.51-1.05,1.11-1.05.43,0,.82.3.99.69l-.53.28Z" />
    <path
      d="M69.58,109.71h.02c.26-.36.6-.55,1.06-.55,1.03,0,1.26.74,1.26,1.61v2.21h-.63v-2.1c0-.6-.05-1.14-.78-1.14-.87,0-.93.81-.93,1.47v1.76h-.63v-3.72h.63v.45Z" />
    <path
      d="M73.44,111.26c0,.69.5,1.24,1.22,1.24.54,0,.89-.32,1.13-.77l.54.31c-.36.66-.96,1.04-1.71,1.04-1.11,0-1.82-.85-1.82-1.91s.64-2.01,1.8-2.01,1.83.99,1.76,2.1h-2.92ZM75.69,110.72c-.09-.54-.54-.97-1.09-.97s-1.05.44-1.13.97h2.22Z" />
    <path d="M76.61,109.26h.73l1.31,2.66,1.2-2.66h.72l-2.74,5.8h-.72l1.2-2.44-1.71-3.37Z" />
  </g>
</svg>