<?xml version="1.0" encoding="UTF-8"?>
<svg id="Layer_1" data-name="Layer 1" data-size="34mm x 26mm" xmlns="http://www.w3.org/2000/svg"
  viewBox="0 0 150.64 145.22">

  <text id="quantity" style="font-family: Arial-BoldMT, Arial; font-size: 15px; font-weight: 700; isolation: isolate;"
    y="97%" x="50%" text-anchor="middle"></text>
  <g>
    <rect x="37.01" y=".25" width="98.25" height="86.89" style="fill: #fff;" />
    <rect x="37.01" y=".25" width="98.25" height="86.89" style="fill: none; stroke: #808285; stroke-width: .5px;" />
    <line x1="11.35" y1="2.04" x2="11.35" y2="41.97"
      style="fill: none; stroke: #00aeef; stroke-dasharray: 1.5 2; stroke-width: .5px;" />
    <line x1="19.77" y1="2.7" x2="2.68" y2="2.7" style="fill: none; stroke: #00aeef; stroke-width: .5px;" />
    <g>
      <path d="M7.02,33.72v.38H.86c.52.49.81,1.16.88,1.85h-.33c-.12-.8-.59-1.48-1.29-1.89v-.34h6.9Z"
        style="fill: #00aeef;" />
      <path
        d="M4.74,30.73c1.28.05,2.07-.74,2.07-2.01,0-1.02-.6-1.98-1.7-1.98-1.32,0-1.67,1.18-1.59,2.32h-.33c.04-1.01-.25-2.16-1.45-2.16-.97,0-1.41.98-1.41,1.82,0,1.21.83,1.79,1.97,1.84v.38c-1.36,0-2.3-.85-2.3-2.22,0-1.11.51-2.2,1.74-2.2.82,0,1.47.54,1.58,1.35h.02c.11-.94.84-1.51,1.77-1.51,1.36,0,2.03,1.08,2.03,2.36,0,1.52-.86,2.46-2.4,2.39v-.38Z"
        style="fill: #00aeef;" />
      <path
        d="M1.88,22.56v-.38h1.05v-.02c-.65-.16-1.17-.84-1.17-1.61,0-.98.56-1.44,1.09-1.55v-.02c-.7-.3-1.09-.8-1.09-1.63,0-.93.54-1.61,1.75-1.61h3.51v.38h-3.52c-1.31,0-1.41.93-1.41,1.23,0,.93.66,1.61,1.89,1.61h3.04v.38h-3.52c-1.29,0-1.41.88-1.41,1.21,0,.73.57,1.63,1.89,1.63h3.04v.38H1.88Z"
        style="fill: #00aeef;" />
      <path
        d="M1.88,14.6v-.38h1.05v-.02c-.65-.16-1.17-.84-1.17-1.61,0-.98.56-1.44,1.09-1.55v-.02c-.7-.3-1.09-.8-1.09-1.63,0-.93.54-1.61,1.75-1.61h3.51v.38h-3.52c-1.31,0-1.41.93-1.41,1.23,0,.93.66,1.61,1.89,1.61h3.04v.38h-3.52c-1.29,0-1.41.88-1.41,1.21,0,.73.57,1.63,1.89,1.63h3.04v.38H1.88Z"
        style="fill: #00aeef;" />
    </g>
    <line x1="11.35" y1="44.1" x2="11.35" y2="84.03"
      style="fill: none; stroke: #00aeef; stroke-dasharray: 1.5 2; stroke-width: .5px;" />
    <line x1="19.77" y1="44.76" x2="2.68" y2="44.76" style="fill: none; stroke: #00aeef; stroke-width: .5px;" />
    <line x1="19.77" y1="84.76" x2="2.68" y2="84.76" style="fill: none; stroke: #00aeef; stroke-width: .5px;" />
    <g>
      <path d="M7.02,75.78v.38H.86c.52.49.81,1.16.88,1.85h-.33c-.12-.8-.59-1.48-1.29-1.89v-.34h6.9Z"
        style="fill: #00aeef;" />
      <path
        d="M4.74,72.79c1.28.05,2.07-.74,2.07-2.01,0-1.02-.6-1.98-1.7-1.98-1.32,0-1.67,1.18-1.59,2.32h-.33c.04-1.01-.25-2.16-1.45-2.16-.97,0-1.41.98-1.41,1.82,0,1.21.83,1.79,1.97,1.84v.38c-1.36,0-2.3-.85-2.3-2.22,0-1.11.51-2.2,1.74-2.2.82,0,1.47.54,1.58,1.35h.02c.11-.94.84-1.51,1.77-1.51,1.36,0,2.03,1.08,2.03,2.36,0,1.52-.86,2.46-2.4,2.39v-.38Z"
        style="fill: #00aeef;" />
      <path
        d="M1.88,64.62v-.38h1.05v-.02c-.65-.16-1.17-.84-1.17-1.61,0-.98.56-1.44,1.09-1.55v-.02c-.7-.3-1.09-.8-1.09-1.63,0-.93.54-1.61,1.75-1.61h3.51v.38h-3.52c-1.31,0-1.41.93-1.41,1.23,0,.93.66,1.61,1.89,1.61h3.04v.38h-3.52c-1.29,0-1.41.88-1.41,1.21,0,.73.57,1.63,1.89,1.63h3.04v.38H1.88Z"
        style="fill: #00aeef;" />
      <path
        d="M1.88,56.66v-.38h1.05v-.02c-.65-.16-1.17-.84-1.17-1.61,0-.98.56-1.44,1.09-1.55v-.02c-.7-.3-1.09-.8-1.09-1.63,0-.93.54-1.61,1.75-1.61h3.51v.38h-3.52c-1.31,0-1.41.93-1.41,1.23,0,.93.66,1.61,1.89,1.61h3.04v.38h-3.52c-1.29,0-1.41.88-1.41,1.21,0,.73.57,1.63,1.89,1.63h3.04v.38H1.88Z"
        style="fill: #00aeef;" />
    </g>
    <line x1="150.64" y1="3.03" x2="21.64" y2="3.03" style="fill: none; stroke: #00a94f; stroke-dasharray: 4 2;" />
    <line x1="150.64" y1="85.82" x2="21.64" y2="85.82" style="fill: none; stroke: #00a94f; stroke-dasharray: 4 2;" />
    <line x1="150.64" y1="43.69" x2="21.64" y2="43.69" style="fill: none; stroke: #231f20; stroke-dasharray: 3 3;" />
    <line x1="37.87" y1="101.79" x2="134.41" y2="101.79"
      style="fill: none; stroke: #00aeef; stroke-dasharray: 1.5 2; stroke-width: .5px;" />
    <g>
      <line x1="36.94" y1="94.6" x2="36.94" y2="110.52" style="fill: none; stroke: #00aeef; stroke-width: .5px;" />
      <line x1="133.99" y1="94.21" x2="133.99" y2="109.74" style="fill: none; stroke: #00aeef; stroke-width: .5px;" />
    </g>
    <g>
      <path
        d="M71.97,110.11c-.05,1.28.74,2.07,2.01,2.07,1.02,0,1.98-.6,1.98-1.7,0-1.32-1.18-1.67-2.32-1.59v-.33c1.01.04,2.16-.25,2.16-1.45,0-.97-.98-1.41-1.82-1.41-1.21,0-1.79.83-1.84,1.97h-.38c0-1.36.85-2.3,2.22-2.3,1.11,0,2.2.51,2.2,1.74,0,.82-.54,1.47-1.35,1.58v.02c.94.11,1.51.84,1.51,1.77,0,1.36-1.08,2.03-2.36,2.03-1.52,0-2.46-.86-2.39-2.4h.38Z"
        style="fill: #00aeef;" />
      <path
        d="M80.82,105.49v4.81h1.16v.33h-1.16v1.76h-.38v-1.76h-3.36v-.38l3.36-4.76h.38ZM80.44,106.01h-.02l-2.96,4.29h2.98v-4.29Z"
        style="fill: #00aeef;" />
      <path
        d="M85.7,107.25h.38v1.05h.02c.16-.65.84-1.17,1.61-1.17.98,0,1.44.56,1.55,1.09h.02c.3-.7.8-1.09,1.63-1.09.93,0,1.61.54,1.61,1.75v3.51h-.38v-3.52c0-1.31-.93-1.41-1.23-1.41-.93,0-1.61.66-1.61,1.89v3.04h-.38v-3.52c0-1.29-.88-1.41-1.21-1.41-.73,0-1.63.57-1.63,1.89v3.04h-.38v-5.14Z"
        style="fill: #00aeef;" />
      <path
        d="M93.66,107.25h.38v1.05h.02c.16-.65.84-1.17,1.61-1.17.98,0,1.44.56,1.55,1.09h.02c.3-.7.8-1.09,1.63-1.09.93,0,1.61.54,1.61,1.75v3.51h-.38v-3.52c0-1.31-.93-1.41-1.23-1.41-.93,0-1.61.66-1.61,1.89v3.04h-.38v-3.52c0-1.29-.88-1.41-1.21-1.41-.73,0-1.63.57-1.63,1.89v3.04h-.38v-5.14Z"
        style="fill: #00aeef;" />
    </g>
    <g>
      <path
        d="M59.08,54.81h.5v2.59c0,1.03-.5,1.34-1.17,1.34-.18,0-.41-.04-.53-.09l.07-.41c.1.04.25.07.42.07.45,0,.71-.2.71-.96v-2.55Z"
        style="fill: #005da6;" />
      <path
        d="M60.92,54.81v2.29c0,.87.38,1.23.9,1.23.57,0,.94-.38.94-1.23v-2.29h.5v2.25c0,1.19-.63,1.68-1.46,1.68-.79,0-1.39-.45-1.39-1.65v-2.28h.5Z"
        style="fill: #005da6;" />
      <path
        d="M64.06,58.07c.22.14.55.25.9.25.51,0,.81-.27.81-.66,0-.36-.21-.57-.73-.77-.63-.22-1.02-.55-1.02-1.1,0-.6.5-1.05,1.25-1.05.4,0,.68.09.85.19l-.14.41c-.13-.07-.38-.18-.73-.18-.53,0-.73.32-.73.58,0,.36.24.54.77.75.65.25.99.57.99,1.14,0,.6-.44,1.11-1.35,1.11-.37,0-.78-.11-.99-.25l.13-.42Z"
        style="fill: #005da6;" />
      <path d="M67.69,55.24h-1.18v-.42h2.86v.42h-1.18v3.44h-.5v-3.44Z" style="fill: #005da6;" />
      <path d="M70.31,54.81v3.87h-.5v-3.87h.5Z" style="fill: #005da6;" />
      <path
        d="M73.89,58.55c-.18.09-.55.18-1.02.18-1.09,0-1.91-.69-1.91-1.96s.82-2.03,2.02-2.03c.48,0,.79.1.92.17l-.12.41c-.19-.09-.46-.16-.78-.16-.91,0-1.51.58-1.51,1.6,0,.95.54,1.55,1.49,1.55.3,0,.61-.06.81-.16l.1.4Z"
        style="fill: #005da6;" />
      <path d="M76.52,56.87h-1.5v1.39h1.68v.42h-2.17v-3.87h2.09v.42h-1.59v1.22h1.5v.41Z" style="fill: #005da6;" />
      <path d="M78.55,54.81h.5v3.45h1.65v.42h-2.15v-3.87Z" style="fill: #005da6;" />
      <path d="M83.27,56.87h-1.5v1.39h1.68v.42h-2.17v-3.87h2.09v.42h-1.59v1.22h1.5v.41Z" style="fill: #005da6;" />
      <path
        d="M84.71,57.46l-.4,1.22h-.52l1.31-3.87h.6l1.32,3.87h-.53l-.41-1.22h-1.37ZM85.98,57.07l-.38-1.11c-.09-.25-.14-.48-.2-.71h-.01c-.06.23-.12.46-.19.7l-.38,1.12h1.16Z"
        style="fill: #005da6;" />
      <path
        d="M90.46,58.51c-.22.08-.67.21-1.19.21-.58,0-1.07-.15-1.45-.51-.33-.32-.54-.84-.54-1.44,0-1.15.8-2,2.09-2,.45,0,.8.1.96.18l-.12.41c-.21-.09-.46-.17-.85-.17-.94,0-1.55.58-1.55,1.55s.59,1.56,1.49,1.56c.33,0,.55-.05.67-.1v-1.15h-.79v-.4h1.27v1.86Z"
        style="fill: #005da6;" />
      <path
        d="M91.72,54.81v2.29c0,.87.38,1.23.9,1.23.57,0,.94-.38.94-1.23v-2.29h.5v2.25c0,1.19-.63,1.68-1.46,1.68-.79,0-1.39-.45-1.39-1.65v-2.28h.5Z"
        style="fill: #005da6;" />
      <path d="M96.94,56.87h-1.5v1.39h1.68v.42h-2.17v-3.87h2.09v.42h-1.59v1.22h1.5v.41Z" style="fill: #005da6;" />
      <path
        d="M100.5,58.68l-.04-.35h-.02c-.15.22-.45.41-.85.41-.56,0-.85-.4-.85-.8,0-.67.6-1.04,1.67-1.03v-.06c0-.23-.06-.64-.63-.64-.26,0-.53.08-.72.21l-.12-.33c.23-.15.56-.25.91-.25.85,0,1.06.58,1.06,1.14v1.04c0,.24.01.48.05.67h-.46ZM100.42,57.26c-.55-.01-1.18.09-1.18.62,0,.33.22.48.48.48.36,0,.59-.23.67-.46.02-.05.03-.11.03-.16v-.48Z"
        style="fill: #005da6;" />
      <path
        d="M101.73,56.65c0-.29,0-.52-.02-.75h.45l.03.46h.01c.14-.26.46-.52.92-.52.38,0,.98.23.98,1.18v1.66h-.5v-1.6c0-.45-.17-.82-.64-.82-.33,0-.59.24-.68.52-.02.06-.03.15-.03.23v1.67h-.5v-2.03Z"
        style="fill: #005da6;" />
      <path
        d="M107.31,54.61v3.36c0,.25,0,.53.02.72h-.45l-.02-.48h-.01c-.16.31-.49.55-.95.55-.67,0-1.19-.57-1.19-1.41,0-.92.57-1.49,1.25-1.49.42,0,.71.2.84.42h.01v-1.66h.5ZM106.81,57.03c0-.06,0-.15-.02-.21-.07-.32-.35-.58-.73-.58-.52,0-.83.46-.83,1.07,0,.56.28,1.03.82,1.03.34,0,.65-.22.74-.6.02-.07.02-.14.02-.22v-.48Z"
        style="fill: #005da6;" />
      <path
        d="M110.9,58.68l-.04-.35h-.02c-.15.22-.45.41-.85.41-.56,0-.85-.4-.85-.8,0-.67.6-1.04,1.67-1.03v-.06c0-.23-.06-.64-.63-.64-.26,0-.53.08-.72.21l-.12-.33c.23-.15.56-.25.91-.25.85,0,1.06.58,1.06,1.14v1.04c0,.24.01.48.05.67h-.46ZM110.83,57.26c-.55-.01-1.18.09-1.18.62,0,.33.22.48.48.48.36,0,.59-.23.67-.46.02-.05.03-.11.03-.16v-.48Z"
        style="fill: #005da6;" />
      <path d="M112.13,54.61h.5v4.07h-.5v-4.07Z" style="fill: #005da6;" />
      <path d="M113.49,54.61h.5v4.07h-.5v-4.07Z" style="fill: #005da6;" />
      <path
        d="M60.02,63.77c0-.33,0-.61-.02-.87h.44l.02.55h.02c.13-.37.43-.61.77-.61.06,0,.1,0,.14.02v.48c-.05-.01-.1-.02-.17-.02-.36,0-.61.27-.68.65-.01.07-.02.15-.02.24v1.48h-.5v-1.91Z"
        style="fill: #005da6;" />
      <path
        d="M62.12,64.38c.01.68.45.96.95.96.36,0,.58-.06.77-.14l.09.36c-.18.08-.48.17-.92.17-.85,0-1.37-.56-1.37-1.4s.49-1.5,1.3-1.5c.91,0,1.15.8,1.15,1.31,0,.1-.01.18-.02.24h-1.95ZM63.6,64.02c0-.32-.13-.82-.7-.82-.51,0-.73.47-.77.82h1.47Z"
        style="fill: #005da6;" />
      <path d="M64.72,61.61h.5v4.07h-.5v-4.07Z" style="fill: #005da6;" />
      <path
        d="M67.61,65.68l-.04-.35h-.02c-.15.22-.45.41-.85.41-.56,0-.85-.4-.85-.8,0-.67.6-1.04,1.67-1.03v-.06c0-.23-.06-.64-.63-.64-.26,0-.53.08-.72.21l-.11-.33c.23-.15.56-.25.91-.25.85,0,1.06.58,1.06,1.14v1.04c0,.24.01.48.05.67h-.46ZM67.54,64.26c-.55-.01-1.18.09-1.18.62,0,.33.22.48.48.48.36,0,.59-.23.67-.46.02-.05.03-.11.03-.16v-.48Z"
        style="fill: #005da6;" />
      <path
        d="M69.42,62.11v.8h.72v.38h-.72v1.5c0,.34.1.54.38.54.13,0,.23-.02.29-.04l.02.38c-.1.04-.25.07-.45.07-.23,0-.42-.08-.54-.21-.14-.15-.19-.4-.19-.72v-1.51h-.43v-.38h.43v-.67l.49-.13Z"
        style="fill: #005da6;" />
      <path
        d="M70.96,64.38c.01.68.45.96.95.96.36,0,.58-.06.77-.14l.09.36c-.18.08-.48.17-.92.17-.85,0-1.37-.56-1.37-1.4s.49-1.5,1.3-1.5c.91,0,1.15.8,1.15,1.31,0,.1-.01.18-.02.24h-1.95ZM72.44,64.02c0-.32-.13-.82-.7-.82-.51,0-.73.47-.77.82h1.47Z"
        style="fill: #005da6;" />
      <path
        d="M75.96,61.61v3.36c0,.25,0,.53.02.72h-.45l-.02-.48h-.01c-.15.31-.49.55-.95.55-.67,0-1.19-.57-1.19-1.41,0-.92.57-1.49,1.24-1.49.42,0,.71.2.84.42h.01v-1.66h.5ZM75.45,64.03c0-.06,0-.15-.02-.21-.07-.32-.35-.58-.73-.58-.52,0-.83.46-.83,1.07,0,.56.28,1.03.82,1.03.34,0,.65-.22.74-.6.02-.07.02-.14.02-.22v-.48Z"
        style="fill: #005da6;" />
      <path
        d="M79.99,65.58c-.13.07-.42.16-.8.16-.84,0-1.38-.57-1.38-1.42s.58-1.47,1.49-1.47c.3,0,.56.07.7.14l-.11.39c-.12-.07-.31-.13-.59-.13-.64,0-.98.47-.98,1.05,0,.64.41,1.04.96,1.04.29,0,.48-.08.62-.14l.09.38Z"
        style="fill: #005da6;" />
      <path
        d="M80.58,61.61h.5v1.73h.01c.08-.14.21-.27.36-.36.15-.09.33-.14.52-.14.37,0,.97.23.97,1.19v1.65h-.5v-1.59c0-.45-.17-.83-.64-.83-.33,0-.59.23-.68.5-.03.07-.03.14-.03.24v1.68h-.5v-4.07Z"
        style="fill: #005da6;" />
      <path
        d="M85.31,65.68l-.04-.35h-.02c-.15.22-.45.41-.85.41-.56,0-.85-.4-.85-.8,0-.67.6-1.04,1.67-1.03v-.06c0-.23-.06-.64-.63-.64-.26,0-.53.08-.72.21l-.11-.33c.23-.15.56-.25.91-.25.85,0,1.06.58,1.06,1.14v1.04c0,.24.01.48.05.67h-.46ZM85.23,64.26c-.55-.01-1.18.09-1.18.62,0,.33.22.48.48.48.36,0,.59-.23.67-.46.02-.05.03-.11.03-.16v-.48Z"
        style="fill: #005da6;" />
      <path
        d="M86.54,63.77c0-.33,0-.61-.02-.87h.44l.02.55h.02c.13-.37.43-.61.77-.61.06,0,.1,0,.14.02v.48c-.05-.01-.1-.02-.17-.02-.36,0-.61.27-.68.65-.01.07-.02.15-.02.24v1.48h-.5v-1.91Z"
        style="fill: #005da6;" />
      <path
        d="M89.92,65.68l-.04-.35h-.02c-.15.22-.45.41-.85.41-.56,0-.85-.4-.85-.8,0-.67.6-1.04,1.67-1.03v-.06c0-.23-.06-.64-.63-.64-.26,0-.53.08-.72.21l-.12-.33c.23-.15.56-.25.91-.25.85,0,1.06.58,1.06,1.14v1.04c0,.24.01.48.05.67h-.46ZM89.85,64.26c-.55-.01-1.18.09-1.18.62,0,.33.22.48.48.48.36,0,.59-.23.67-.46.02-.05.03-.11.03-.16v-.48Z"
        style="fill: #005da6;" />
      <path
        d="M93.13,65.58c-.13.07-.42.16-.8.16-.84,0-1.38-.57-1.38-1.42s.59-1.47,1.49-1.47c.3,0,.56.07.7.14l-.11.39c-.12-.07-.31-.13-.58-.13-.64,0-.98.47-.98,1.05,0,.64.41,1.04.96,1.04.29,0,.48-.08.62-.14l.09.38Z"
        style="fill: #005da6;" />
      <path
        d="M94.4,62.11v.8h.72v.38h-.72v1.5c0,.34.1.54.38.54.13,0,.23-.02.29-.04l.02.38c-.1.04-.25.07-.45.07-.24,0-.42-.08-.55-.21-.14-.15-.19-.4-.19-.72v-1.51h-.43v-.38h.43v-.67l.49-.13Z"
        style="fill: #005da6;" />
      <path
        d="M95.94,64.38c.01.68.45.96.95.96.36,0,.58-.06.77-.14l.09.36c-.18.08-.48.17-.92.17-.85,0-1.37-.56-1.37-1.4s.49-1.5,1.3-1.5c.91,0,1.15.8,1.15,1.31,0,.1-.01.18-.02.24h-1.95ZM97.42,64.02c0-.32-.13-.82-.7-.82-.51,0-.73.47-.77.82h1.47Z"
        style="fill: #005da6;" />
      <path
        d="M98.54,63.77c0-.33,0-.61-.02-.87h.44l.02.55h.02c.13-.37.43-.61.77-.61.06,0,.1,0,.14.02v.48c-.05-.01-.1-.02-.17-.02-.36,0-.61.27-.68.65-.01.07-.02.15-.02.24v1.48h-.5v-1.91Z"
        style="fill: #005da6;" />
      <path
        d="M100.35,65.16c.15.1.41.2.67.2.37,0,.54-.18.54-.41,0-.24-.14-.37-.52-.51-.5-.18-.73-.45-.73-.79,0-.45.36-.81.96-.81.28,0,.53.08.68.17l-.13.37c-.11-.07-.31-.16-.57-.16-.3,0-.46.17-.46.38,0,.23.17.33.53.47.48.18.73.42.73.84,0,.49-.38.83-1.04.83-.3,0-.58-.08-.78-.19l.13-.38Z"
        style="fill: #005da6;" />
      <path
        d="M105.44,65.68l-.04-.35h-.02c-.15.22-.45.41-.85.41-.56,0-.85-.4-.85-.8,0-.67.6-1.04,1.67-1.03v-.06c0-.23-.06-.64-.63-.64-.26,0-.53.08-.72.21l-.12-.33c.23-.15.56-.25.91-.25.85,0,1.06.58,1.06,1.14v1.04c0,.24.01.48.05.67h-.46ZM105.37,64.26c-.55-.01-1.18.09-1.18.62,0,.33.22.48.48.48.36,0,.59-.23.67-.46.02-.05.03-.11.03-.16v-.48Z"
        style="fill: #005da6;" />
      <path
        d="M106.67,63.65c0-.29,0-.52-.02-.75h.45l.03.46h.01c.14-.26.46-.52.92-.52.38,0,.98.23.98,1.18v1.66h-.5v-1.6c0-.45-.17-.82-.64-.82-.33,0-.59.24-.68.52-.02.06-.03.15-.03.23v1.67h-.5v-2.03Z"
        style="fill: #005da6;" />
      <path
        d="M112.25,61.61v3.36c0,.25,0,.53.02.72h-.45l-.02-.48h-.01c-.16.31-.49.55-.95.55-.67,0-1.19-.57-1.19-1.41,0-.92.57-1.49,1.25-1.49.42,0,.71.2.84.42h.01v-1.66h.5ZM111.75,64.03c0-.06,0-.15-.02-.21-.07-.32-.35-.58-.73-.58-.52,0-.83.46-.83,1.07,0,.56.28,1.03.82,1.03.34,0,.65-.22.74-.6.02-.07.02-.14.02-.22v-.48Z"
        style="fill: #005da6;" />
      <path
        d="M57.41,71.38c.01.68.45.96.95.96.36,0,.58-.06.77-.14l.09.36c-.18.08-.48.17-.92.17-.85,0-1.37-.56-1.37-1.4s.49-1.5,1.3-1.5c.91,0,1.15.8,1.15,1.31,0,.1-.01.18-.02.24h-1.95ZM58.89,71.02c0-.32-.13-.82-.7-.82-.51,0-.73.47-.77.82h1.47Z"
        style="fill: #005da6;" />
      <path d="M60,68.61h.5v4.07h-.5v-4.07Z" style="fill: #005da6;" />
      <path
        d="M61.64,71.38c.01.68.45.96.95.96.36,0,.58-.06.77-.14l.09.36c-.18.08-.48.17-.92.17-.85,0-1.37-.56-1.37-1.4s.49-1.5,1.3-1.5c.91,0,1.15.8,1.15,1.31,0,.1-.01.18-.02.24h-1.95ZM63.12,71.02c0-.32-.13-.82-.7-.82-.51,0-.73.47-.77.82h1.47Z"
        style="fill: #005da6;" />
      <path
        d="M64.23,70.65c0-.29,0-.52-.02-.75h.44l.02.45h.02c.15-.26.41-.51.87-.51.38,0,.67.23.79.56h.01c.09-.16.2-.28.31-.36.17-.13.35-.2.61-.2.37,0,.91.24.91,1.21v1.63h-.49v-1.57c0-.53-.2-.85-.6-.85-.29,0-.51.21-.6.46-.02.07-.04.16-.04.25v1.72h-.49v-1.66c0-.44-.19-.76-.58-.76-.32,0-.54.25-.62.5-.03.07-.04.16-.04.25v1.68h-.49v-2.03Z"
        style="fill: #005da6;" />
      <path
        d="M69.3,71.38c.01.68.45.96.95.96.36,0,.58-.06.77-.14l.09.36c-.18.08-.48.17-.92.17-.85,0-1.37-.56-1.37-1.4s.49-1.5,1.3-1.5c.91,0,1.15.8,1.15,1.31,0,.1-.01.18-.02.24h-1.95ZM70.78,71.02c0-.32-.13-.82-.7-.82-.51,0-.73.47-.77.82h1.47Z"
        style="fill: #005da6;" />
      <path
        d="M71.9,70.65c0-.29,0-.52-.02-.75h.45l.03.46h.01c.14-.26.46-.52.92-.52.38,0,.98.23.98,1.18v1.66h-.5v-1.6c0-.45-.17-.82-.64-.82-.33,0-.59.24-.68.52-.02.06-.03.15-.03.23v1.67h-.5v-2.03Z"
        style="fill: #005da6;" />
      <path
        d="M75.67,69.11v.8h.72v.38h-.72v1.5c0,.34.1.54.38.54.13,0,.23-.02.29-.04l.02.38c-.1.04-.25.07-.45.07-.24,0-.42-.08-.55-.21-.14-.15-.19-.4-.19-.72v-1.51h-.43v-.38h.43v-.67l.49-.13Z"
        style="fill: #005da6;" />
      <path
        d="M76.89,72.16c.15.1.41.2.67.2.37,0,.54-.18.54-.41,0-.24-.14-.37-.52-.51-.5-.18-.73-.45-.73-.79,0-.45.36-.81.96-.81.28,0,.53.08.68.17l-.13.37c-.11-.07-.31-.16-.57-.16-.3,0-.46.17-.46.38,0,.23.17.33.53.47.48.18.73.42.73.84,0,.49-.38.83-1.04.83-.3,0-.58-.08-.78-.19l.13-.38Z"
        style="fill: #005da6;" />
      <path
        d="M83.71,70.73c0,.99-.76,1.78-1.73,1.78s-1.74-.79-1.74-1.78.77-1.77,1.74-1.77,1.73.79,1.73,1.77ZM80.52,70.75c0,.86.63,1.53,1.46,1.53s1.44-.67,1.44-1.54-.63-1.53-1.44-1.53-1.46.68-1.46,1.55ZM82.68,70.07c-.07-.04-.29-.13-.56-.13-.54,0-.8.34-.8.8s.28.81.81.81c.23,0,.45-.06.58-.15l.07.22c-.2.13-.46.18-.71.18-.67,0-1.05-.46-1.05-1.04,0-.65.52-1.07,1.1-1.07.3,0,.56.09.63.16l-.07.22Z"
        style="fill: #005da6;" />
      <path
        d="M87.99,72.68c-.11-.11-.21-.22-.36-.38-.33.31-.71.44-1.13.44-.75,0-1.19-.5-1.19-1.08,0-.53.32-.89.76-1.13v-.02c-.2-.25-.32-.53-.32-.81,0-.47.34-.95.98-.95.48,0,.85.32.85.82,0,.41-.24.73-.85,1.03v.02c.33.38.69.8.94,1.08.18-.27.3-.64.37-1.13h.46c-.1.61-.27,1.09-.56,1.43.21.22.41.44.64.68h-.6ZM87.38,72.01c-.23-.25-.66-.72-1.09-1.22-.21.13-.5.38-.5.79,0,.44.33.78.79.78.33,0,.61-.15.8-.35ZM86.2,69.66c0,.28.13.49.29.69.39-.22.64-.43.64-.76,0-.24-.13-.5-.45-.5s-.49.26-.49.56Z"
        style="fill: #005da6;" />
      <path
        d="M91.3,68.81v.26h-.5v1.3h-.31v-1.3h-.5v-.26h1.31ZM92.99,70.37l-.06-.92c0-.12,0-.27-.01-.44h-.02c-.04.14-.09.32-.13.46l-.28.87h-.32l-.28-.89c-.03-.12-.07-.3-.11-.44h-.02c0,.14,0,.29-.01.44l-.06.92h-.3l.12-1.56h.46l.27.76c.03.12.06.23.1.4h0c.04-.14.07-.28.11-.39l.27-.77h.45l.12,1.56h-.31Z"
        style="fill: #005da6;" />
      <path
        d="M95.03,68.86c.3-.05.67-.08,1.06-.08.72,0,1.23.17,1.57.48.34.32.54.76.54,1.39s-.2,1.15-.56,1.5c-.36.36-.96.56-1.71.56-.36,0-.65-.02-.91-.05v-3.8ZM95.53,72.28c.13.02.31.03.5.03,1.07,0,1.65-.6,1.65-1.64,0-.91-.51-1.49-1.57-1.49-.26,0-.45.02-.59.05v3.05Z"
        style="fill: #005da6;" />
      <path
        d="M101.55,72.55c-.18.09-.55.18-1.02.18-1.09,0-1.91-.69-1.91-1.96s.82-2.03,2.02-2.03c.48,0,.79.1.92.17l-.12.41c-.19-.09-.46-.16-.78-.16-.91,0-1.51.58-1.51,1.6,0,.95.54,1.55,1.49,1.55.3,0,.61-.06.81-.16l.1.4Z"
        style="fill: #005da6;" />
      <path d="M102.04,72.38c0-.21.14-.36.34-.36s.34.15.34.36-.13.36-.34.36c-.2,0-.34-.16-.34-.36Z"
        style="fill: #005da6;" />
      <path
        d="M105.66,68.7c-.42.56-.72,1.31-.72,2.35s.32,1.75.72,2.33h-.4c-.36-.48-.75-1.21-.75-2.33,0-1.13.39-1.87.75-2.35h.4Z"
        style="fill: #005da6;" />
      <path
        d="M106.13,72.16c.15.1.41.2.67.2.37,0,.54-.18.54-.41,0-.24-.14-.37-.52-.51-.5-.18-.73-.45-.73-.79,0-.45.36-.81.96-.81.28,0,.53.08.68.17l-.13.37c-.11-.07-.31-.16-.57-.16-.3,0-.46.17-.46.38,0,.23.17.33.53.47.48.18.73.42.73.84,0,.49-.38.83-1.04.83-.3,0-.58-.08-.78-.19l.13-.38Z"
        style="fill: #005da6;" />
      <path
        d="M108.31,72.68v-.31l.4-.38c.95-.91,1.38-1.39,1.39-1.95,0-.38-.18-.73-.74-.73-.34,0-.62.17-.79.32l-.16-.36c.26-.22.63-.38,1.06-.38.8,0,1.14.55,1.14,1.08,0,.69-.5,1.25-1.29,2l-.3.28h0s1.68.01,1.68.01v.42h-2.38Z"
        style="fill: #005da6;" />
      <path
        d="M111.25,72.68v-.31l.4-.38c.95-.91,1.38-1.39,1.39-1.95,0-.38-.18-.73-.74-.73-.34,0-.62.17-.79.32l-.16-.36c.26-.22.63-.38,1.06-.38.8,0,1.14.55,1.14,1.08,0,.69-.5,1.25-1.29,2l-.3.28h0s1.68.01,1.68.01v.42h-2.38Z"
        style="fill: #005da6;" />
      <path
        d="M114.05,73.37c.41-.57.72-1.31.72-2.35s-.31-1.76-.72-2.33h.39c.37.47.75,1.2.75,2.33s-.38,1.85-.75,2.34h-.39Z"
        style="fill: #005da6;" />
    </g>
    <g>
      <g>
        <polygon points="65.2 11.04 59.88 29.42 82.74 38.7 82.83 38.74 106.99 29.71 112.4 11.04 65.2 11.04"
          style="fill: #fff; stroke: #005da6; stroke-width: .78px;" />
        <path
          d="M83.43,27.9v-2.3s-1.02,2.3-1.02,2.3h1.02ZM74.32,11.78l-3.13,10.8h-6.43s.94-3.24.94-3.24l2.59-.9-.55,1.89h1.76s2.22-7.65,2.22-7.65l-.39-.9h-5.57l-4.99,17.21,8.44,3.43,2.84-9.81h2.33s-2.53,8.73-2.53,8.73h4.05s-.62,2.23-.62,2.23h-3.25s10.8,4.38,10.8,4.38l19.7-7.36h-4.61l2.31-7.98h5.39l-.62,2.14h-3.05l-.22.73h2.61l-.6,2.06h-2.61s-.26.91-.26.91h3.06l-.53,1.81,2.97-1.11,5.04-17.37h-37.1ZM67.31,13.87l.55-1.91.56,1.91h1.71l-1.42,1.01.53,1.79-1.38-1.17-1.38,1.17.53-1.79-1.42-1.01h1.72ZM95.9,13.86l-2.31,7.98h-2.34l2.31-7.98h2.34ZM86.55,16l.61-2.13h5.76l-.61,2.13h-1.75l-1.71,5.84h-2.34l1.71-5.84h-1.66ZM81.56,13.86h3.91c.27,0,.51.12.67.33.16.21.21.49.14.75h0s-.26.91-.26.91l-2.61.9.3-1.04h-1.01l-.28.93,2.19,1.19c.19.13.7.48.55,1.03l-.7,2.35c-.11.37-.45.64-.84.64h-3.91c-.27,0-.51-.12-.67-.33-.16-.21-.21-.49-.14-.75l.31-1.08,2.61-.9-.4,1.37h1.01l.33-1.12-2.15-1.18-.08-.05c-.34-.22-.59-.52-.46-.98l.66-2.32c.11-.38.45-.64.84-.64ZM73.39,21.84c-.27,0-.51-.12-.67-.33-.16-.21-.21-.49-.14-.75l1.78-6.12-.34-.78h2.91l-1.7,5.84h.92l1.7-5.84h2.34l-2.13,7.34c-.11.37-.45.64-.84.64h-3.83ZM72.99,30.58l2.31-7.98h5.39l-.62,2.14h-3.05l-.22.73h2.61l-.6,2.06h-2.61s-.26.91-.26.91h3.06l-.62,2.14h-5.39ZM83.27,30.58v-1.06s-1.41,0-1.41,0l-.5,1.06h-2.42l3.54-7.04-.41-.94h3.3l.15,7.98h-2.25ZM88.72,31.36l.02-.78h-1.99c-.27,0-.51-.12-.67-.33-.16-.21-.21-.49-.14-.75l1.82-6.26c.11-.37.45-.64.84-.64h3.66c.26,0,.48.12.63.32.16.21.23.47.15.73l-.47,1.62-2.56.88.49-1.7h-.76l-1.17,3.98h.77l.33-1.14-.31-.71h2.82s-1.14,3.95-1.14,3.95l-2.33.82ZM97.38,29.95c-.11.37-.45.64-.84.64h-3.65c-.27,0-.51-.12-.67-.33-.16-.21-.21-.49-.14-.75l1.78-6.12-.34-.78h2.91l-1.7,5.84h.74l1.7-5.84h2.34l-2.13,7.34ZM99.91,21.2c-.11.38-.45.64-.84.64h-3.61c-.27,0-.51-.12-.67-.33-.16-.21-.21-.49-.14-.75l1.82-6.26c.11-.37.45-.64.84-.64h3.64c.26,0,.5.12.65.32.16.21.2.47.13.73l-.19.66-.38,1.31-2.6.9.52-1.78h-.71l-1.09,3.7h.72l.28-.93,2.6-.9-.99,3.33ZM106.88,16.74l-.6,2.06h-2.61s-.26.91-.26.91h3.06l-.62,2.14h-5.39l2.31-7.98h5.39l-.62,2.14h-3.05l-.22.73h2.61Z"
          style="fill: #005da6;" />
        <path
          d="M81.81,18.78l-.4,1.37h.27l.34-1.17-.21-.2ZM82.91,15.92h.74l.06-.21h-1.01l-.28.93.24.13.25-.85ZM80.04,16.86h0s-.22.67.65,1.12h0s.02.02.04.02l.08.05,1.91,1.05.02-.08-2.15-1.18-.08-.05c-.33-.21-.57-.5-.47-.94ZM77.14,14.06l-.21-.2-1.7,5.84h.27l1.64-5.64ZM78.87,20.85h0s0-.02,0-.03h0s0,0,0,.03ZM74.6,22.81l-.21-.2-2.53,8.73h.27l2.47-8.52ZM79,28.44l-.62,2.14h-5.39l.22.21h5.38l.62-2.15-.21-.2ZM72.72,21.51c-.16-.21-.21-.49-.14-.75,0,.02-.01.04-.01.07h0s-.26,1.23.94,1.23h.15s3.78,0,3.78,0c.39,0,.73-.26.84-.64l2.13-7.35-.21-.2-2.13,7.34c-.11.37-.45.64-.84.64h-3.83c-.27,0-.51-.12-.67-.33ZM76.2,27.53l-.26.91h.27l.2-.7h2.61s.6-2.07.6-2.07l-.21-.2-.6,2.06h-2.61ZM84.67,21.42v-.03s.66-2.2.67-2.23c.03-.1.06-.21.07-.32,0-.08,0-.15-.03-.23-.02-.07-.05-.14-.09-.2-.04-.06-.09-.12-.14-.18-.05-.05-.1-.1-.16-.15-.05-.04-.1-.08-.15-.12-.04-.03-.09-.06-.13-.08-.03-.02-.06-.03-.09-.05,0,0-.01,0-.02,0h0c.19.13.7.48.55,1.03l-.7,2.35c-.11.37-.45.64-.84.64h-3.92c-.27,0-.51-.12-.67-.33-.14-.19-.2-.41-.16-.64-.03.21-.12,1.19.95,1.19h.15s3.86,0,3.86,0c.39,0,.73-.26.84-.64ZM83.43,26.29v-.69s-1.02,2.3-1.02,2.3h.3l.72-1.61ZM67.75,20.33h.27s.49-1.68.49-1.68l-.21-.2-.55,1.89ZM69.12,16.57l.41.35-.55-1.86,1.37-.98-.22-.21-1.42,1.01.53,1.79-.12-.1ZM68.64,13.87l-.48-1.62-.3-.29.56,1.91h.22ZM74.4,11.78h-.08l-3.13,10.8h-6.43s.22.21.22.21h6.42s3.15-10.87,3.15-10.87l-.15-.14ZM68.09,15.69l-.23-.19-1.37,1.17.22.21,1.39-1.18ZM108.17,13.87l-.62,2.14h-3.05l-.22.73h.28l.16-.52h3.05l.62-2.14-.21-.2ZM78.87,20.86h0s0,0,0,0h0ZM80.91,22.81l-.21-.2-.62,2.14h-3.05l-.22.73h.28l.16-.52h3.05l.62-2.15ZM106.28,18.8h-2.61s-.26.91-.26.91h.27l.2-.7h2.61s.6-2.07.6-2.07l-.21-.2-.6,2.06ZM86.77,16.21h1.38s.06-.21.06-.21h-1.66l.22.21ZM83.27,30.49v-.97s-1.41,0-1.41,0l-.5,1.06h-2.42l.22.21h2.41l.5-1.06h1.2v.76ZM98.15,30.79h3.83l.56-.21h-4.61l.21.21ZM85.37,22.6l.15,7.98h-2.25l.22.21h2.24l-.15-7.99-.21-.2ZM101.6,14.19c.16.21.2.47.13.73l-.19.66-.38,1.31-2.6.9.22.21,2.59-.9.38-1.31.19-.66s.02-.06.02-.06c.29-.95-.69-1.2-.99-1.2,0,0,0,0,0,0,0,0,0,0-.01,0,.26,0,.5.12.65.32ZM75.29,33.56h-3.25s.52.21.52.21h2.94s.62-2.24.62-2.24l-.21-.2-.62,2.23ZM105.85,21.85h-5.39l.22.21h5.38l.62-2.15-.21-.2-.62,2.14ZM98.59,16.21h.44l.06-.21h-.71l-1.09,3.7h.27l1.03-3.49ZM86.14,14.2c.16.21.21.49.14.75h0s-.26.91-.26.91l-2.61.9.22.21,2.61-.9s.29-.99.31-1.07c.01-.06.02-.11.03-.17,0-.05,0-.1,0-.15,0-.05-.01-.09-.02-.14-.01-.04-.03-.08-.04-.12-.02-.04-.04-.07-.06-.11-.02-.03-.05-.06-.08-.09-.03-.03-.06-.06-.09-.08-.03-.02-.06-.05-.1-.07-.03-.02-.07-.04-.1-.06-.03-.02-.07-.03-.1-.05-.03-.01-.07-.03-.1-.04-.03-.01-.07-.02-.1-.03-.03,0-.06-.01-.09-.02-.03,0-.05,0-.08-.01-.02,0-.04,0-.07,0h0s-.02,0-.02,0c-.01,0-.03,0-.04,0,.27,0,.51.12.67.33ZM103.76,27.53h-2.61s-.26.91-.26.91h.27l.2-.7h2.61s.6-2.07.6-2.07l-.21-.21-.6,2.06ZM105.02,24.74h-3.05l-.22.73h.28l.16-.52h3.05l.62-2.14-.21-.21-.62,2.14ZM103.42,30.26l.3-.11.43-1.49-.21-.21-.53,1.81ZM86.73,22.05h2.33l1.71-5.84h1.75s.61-2.14.61-2.14l-.21-.2-.61,2.14h-1.75l-1.71,5.84h-2.34l.22.21ZM92.78,25.48l.47-1.62s.01-.06.02-.08c.27-.93-.7-1.18-.99-1.18,0,0,0,0,0,0,0,0-.01,0-.02,0,.26,0,.48.12.63.32.16.21.23.47.15.73l-.47,1.62-2.56.88.22.21,2.55-.88ZM91.46,22.05h2.33l2.32-7.99-.21-.2-2.31,7.98h-2.34l.22.21ZM89.95,24.67h.48s.06-.21.06-.21h-.76l-1.17,3.98h.27l.53-1.82v-.03s0,0,0,0l.56-1.92ZM99.52,22.6l-2.13,7.34c-.11.37-.45.64-.84.64h-3.65c-.27,0-.51-.12-.67-.33-.15-.2-.2-.44-.15-.68h0s-.26,1.23.94,1.23h.16s3.59,0,3.59,0c.39,0,.73-.26.84-.64l2.13-7.35-.21-.21ZM88.73,30.58h-1.99c-.27,0-.51-.12-.67-.33-.16-.21-.21-.49-.14-.75,0,.02-.01.04-.01.07h0s-.26,1.23.94,1.23h.16s1.72,0,1.72,0v-.21ZM100.12,21.41l.99-3.33-.21-.2-.99,3.33c-.11.38-.45.64-.84.64h-3.61c-.27,0-.51-.12-.67-.33-.16-.21-.21-.49-.14-.75,0,.02-.01.04-.01.07h0s-.26,1.23.94,1.23h.15s3.56,0,3.56,0c.39,0,.74-.26.84-.64ZM95,28.44l1.64-5.63-.21-.21-1.7,5.84h.27ZM92.18,26.59l-1.14,3.95-2.33.82.21.21,2.32-.82,1.14-3.95-.21-.21Z"
          style="fill: #e1251b;" />
      </g>
      <g>
        <path d="M106.14,22.62h-.11v-.06h.3v.06h-.11v.34h-.07v-.34Z" style="fill: #fff;" />
        <path
          d="M106.7,22.8c0-.05,0-.11,0-.17h0s-.03.1-.05.15l-.06.17h-.06l-.05-.17c-.02-.05-.03-.1-.04-.15h0c0,.05,0,.11,0,.17v.16h-.08l.03-.4h.09l.05.16s.03.09.04.14h0s.02-.09.04-.14l.05-.16h.09l.02.4h-.07v-.16Z"
          style="fill: #fff;" />
      </g>
    </g>
  </g>
</svg>