<?xml version="1.0" encoding="UTF-8"?>
<svg id="Layer_1" data-name="Layer 1" data-size="24mm x 50mm" xmlns="http://www.w3.org/2000/svg"
  viewBox="0 0 113.76 221.37">

  <text id="quantity" style="font-family: Arial-BoldMT, Arial; font-size: 15px; font-weight: 700; isolation: isolate;"
    y="97%" x="50%" text-anchor="middle"></text>

  <g>
    <rect x="37.28" y=".28" width="68.03" height="161.54" style="fill: none; stroke: #d50057; stroke-width: .57px;" />
    <line x1="37.45" y1="176.64" x2="105.76" y2="176.64"
      style="fill: none; stroke: #38d430; stroke-dasharray: 2.19 2.19; stroke-width: .99px;" />
    <rect x="36.95" y="173.42" width=".99" height="6.45" style="fill: #38d430;" />
    <rect x="105.26" y="173.42" width=".99" height="6.45" style="fill: #38d430;" />
    <g>
      <path
        d="M54.47,194.46h4.5c.1,0,.14.05.14.14v.6c0,.1-.05.14-.14.14h-5.72c-.1,0-.14-.05-.14-.14v-.6c0-.07.02-.12.07-.17.32-.38,1.06-1.28,2.19-2.69l1.06-1.32c.9-1.14,1.35-2.02,1.35-2.65,0-.51-.17-.91-.52-1.22-.34-.31-.79-.46-1.35-.46s-.98.16-1.32.47c-.33.31-.5.72-.49,1.23v.44c0,.1-.05.14-.14.14h-.75c-.1,0-.14-.05-.14-.14v-.57c.02-.74.29-1.33.82-1.78.53-.45,1.2-.67,2.01-.67.57,0,1.08.11,1.52.33s.78.52,1.02.91c.24.39.36.82.36,1.31,0,.81-.45,1.79-1.35,2.94-.47.6-1.37,1.71-2.71,3.32l-.32.37s-.02.07.03.07Z"
        style="fill: #38d430;" />
      <path
        d="M66.97,191.81v.63c0,.1-.05.14-.14.14h-.62s-.06.02-.06.06v2.57c0,.1-.05.14-.14.14h-.73c-.1,0-.14-.05-.14-.14v-2.57s-.02-.06-.06-.06h-4.28c-.1,0-.14-.05-.14-.14v-.53s.01-.1.04-.17l2.94-6.32c.03-.07.08-.1.16-.1h.76s.08.02.11.05c.02.03.03.07,0,.12l-2.85,6.1s0,.04,0,.05c0,.01.02.02.04.02h3.22s.06-.02.06-.06v-2.31c0-.1.05-.14.14-.14h.73c.1,0,.14.05.14.14v2.31s.02.06.06.06h.62c.1,0,.14.05.14.14Z"
        style="fill: #38d430;" />
      <path
        d="M80.89,188.65c.42.43.62,1.02.62,1.76v4.8c0,.1-.05.14-.14.14h-.72c-.1,0-.14-.05-.14-.14v-4.6c0-.53-.15-.94-.45-1.25s-.69-.47-1.18-.47-.92.15-1.23.46-.47.72-.47,1.23v4.63c0,.1-.05.14-.14.14h-.73c-.1,0-.14-.05-.14-.14v-4.6c0-.53-.15-.94-.44-1.25-.3-.31-.69-.47-1.19-.47s-.91.15-1.21.46-.45.72-.45,1.23v4.63c0,.1-.05.14-.14.14h-.73c-.1,0-.14-.05-.14-.14v-6.96c0-.1.05-.14.14-.14h.73c.1,0,.14.05.14.14v.57s0,.03.02.04c.01,0,.03,0,.05-.02.21-.28.48-.48.81-.62s.69-.21,1.1-.21c.5,0,.92.1,1.28.3.35.2.62.49.8.87.02.05.04.05.07,0,.21-.39.51-.69.89-.88.38-.2.82-.29,1.3-.29.72,0,1.28.21,1.7.65Z"
        style="fill: #38d430;" />
      <path
        d="M92.74,188.65c.42.43.62,1.02.62,1.76v4.8c0,.1-.05.14-.14.14h-.72c-.1,0-.14-.05-.14-.14v-4.6c0-.53-.15-.94-.45-1.25s-.69-.47-1.18-.47-.92.15-1.23.46-.47.72-.47,1.23v4.63c0,.1-.05.14-.14.14h-.73c-.1,0-.14-.05-.14-.14v-4.6c0-.53-.15-.94-.44-1.25-.3-.31-.69-.47-1.19-.47s-.91.15-1.21.46-.45.72-.45,1.23v4.63c0,.1-.05.14-.14.14h-.73c-.1,0-.14-.05-.14-.14v-6.96c0-.1.05-.14.14-.14h.73c.1,0,.14.05.14.14v.57s0,.03.02.04c.01,0,.03,0,.05-.02.21-.28.48-.48.81-.62s.69-.21,1.1-.21c.5,0,.92.1,1.28.3.35.2.62.49.8.87.02.05.04.05.07,0,.21-.39.51-.69.89-.88.38-.2.82-.29,1.3-.29.72,0,1.28.21,1.7.65Z"
        style="fill: #38d430;" />
    </g>
    <line x1="19.67" y1="12.84" x2="19.67" y2="79.98"
      style="fill: none; stroke: #38d430; stroke-dasharray: 2.19 2.19; stroke-width: .99px;" />
    <rect x="16.44" y="12.35" width="6.45" height=".99" style="fill: #38d430;" />
    <rect x="16.44" y="79.48" width="6.45" height=".99" style="fill: #38d430;" />
    <g>
      <path
        d="M9.26,61.7v-4.5c0-.1.05-.14.14-.14h.6c.1,0,.14.05.14.14v5.72c0,.1-.05.14-.14.14h-.6c-.07,0-.12-.02-.17-.07-.38-.32-1.28-1.06-2.69-2.19l-1.32-1.06c-1.14-.9-2.02-1.35-2.65-1.35-.51,0-.91.17-1.22.52-.31.34-.46.79-.46,1.35s.16.98.47,1.32c.31.33.72.5,1.23.49h.44c.1,0,.14.05.14.14v.75c0,.1-.05.14-.14.14h-.57c-.74-.02-1.33-.29-1.78-.82-.45-.53-.67-1.2-.67-2.01,0-.57.11-1.08.33-1.52s.52-.78.91-1.02c.39-.24.82-.36,1.31-.36.81,0,1.79.45,2.94,1.35.6.47,1.71,1.37,3.32,2.71l.37.32s.07.02.07-.03Z"
        style="fill: #38d430;" />
      <path
        d="M7.05,49.57c.47,0,.87.04,1.2.13.61.16,1.1.49,1.45.97s.54,1.07.54,1.76-.17,1.26-.52,1.73c-.34.48-.8.8-1.38.97-.21.07-.42.11-.63.13h-.03c-.08,0-.11-.04-.11-.13v-.76c0-.1.05-.15.14-.16.06,0,.15-.02.29-.06.41-.1.74-.29.98-.59.24-.3.37-.68.37-1.12s-.13-.84-.39-1.15c-.26-.31-.61-.51-1.06-.61-.22-.06-.51-.09-.86-.09-.32,0-.63.02-.93.07-.44.07-.77.26-1,.57s-.34.71-.34,1.18c0,.42.1.8.29,1.13.19.33.44.55.76.65.09.03.13.08.13.16v.77c0,.1-.05.14-.14.14H.26c-.09,0-.14-.05-.14-.14v-5.02c0-.1.05-.14.14-.14h.6c.1,0,.14.05.14.14v4.08s.02.06.06.06h3.47s.03,0,.04,0c0-.01,0-.03-.01-.05-.22-.24-.39-.52-.51-.85-.12-.32-.18-.67-.18-1.03,0-.68.17-1.25.5-1.72.33-.47.79-.77,1.4-.9.42-.09.85-.13,1.29-.13Z"
        style="fill: #38d430;" />
      <path
        d="M3.44,35.81c.43-.42,1.02-.62,1.76-.62h4.8c.1,0,.14.05.14.14v.72c0,.1-.05.14-.14.14h-4.6c-.53,0-.94.15-1.25.45s-.47.69-.47,1.18.15.92.46,1.23.72.47,1.23.47h4.63c.1,0,.14.05.14.14v.73c0,.1-.05.14-.14.14h-4.6c-.53,0-.94.15-1.25.44-.31.3-.47.69-.47,1.19s.15.91.46,1.21.72.45,1.23.45h4.63c.1,0,.14.05.14.14v.73c0,.1-.05.14-.14.14H3.04c-.09,0-.14-.05-.14-.14v-.73c0-.1.05-.14.14-.14h.57s.03,0,.04-.02c0-.01,0-.03-.02-.05-.28-.21-.48-.48-.62-.81s-.21-.69-.21-1.1c0-.5.1-.92.3-1.28.2-.35.49-.62.87-.8.05-.02.05-.04,0-.07-.39-.21-.69-.51-.88-.89-.2-.38-.29-.82-.29-1.3,0-.72.21-1.28.64-1.7Z"
        style="fill: #38d430;" />
      <path
        d="M3.44,23.96c.43-.42,1.02-.62,1.76-.62h4.8c.1,0,.14.05.14.14v.72c0,.1-.05.14-.14.14h-4.6c-.53,0-.94.15-1.25.45s-.47.69-.47,1.18.15.92.46,1.23.72.47,1.23.47h4.63c.1,0,.14.05.14.14v.73c0,.1-.05.14-.14.14h-4.6c-.53,0-.94.15-1.25.44-.31.3-.47.69-.47,1.19s.15.91.46,1.21.72.45,1.23.45h4.63c.1,0,.14.05.14.14v.73c0,.1-.05.14-.14.14H3.04c-.09,0-.14-.05-.14-.14v-.73c0-.1.05-.14.14-.14h.57s.03,0,.04-.02c0-.01,0-.03-.02-.05-.28-.21-.48-.48-.62-.81s-.21-.69-.21-1.1c0-.5.1-.92.3-1.28.2-.35.49-.62.87-.8.05-.02.05-.04,0-.07-.39-.21-.69-.51-.88-.89-.2-.38-.29-.82-.29-1.3,0-.72.21-1.28.64-1.7Z"
        style="fill: #38d430;" />
    </g>
    <line x1="19.67" y1="83.08" x2="19.67" y2="150.21"
      style="fill: none; stroke: #38d430; stroke-dasharray: 2.19 2.19; stroke-width: .99px;" />
    <rect x="16.44" y="82.59" width="6.45" height=".99" style="fill: #38d430;" />
    <rect x="16.44" y="149.72" width="6.45" height=".99" style="fill: #38d430;" />
    <g>
      <path
        d="M9.26,130.52v-4.5c0-.1.05-.14.14-.14h.6c.1,0,.14.05.14.14v5.72c0,.1-.05.14-.14.14h-.6c-.07,0-.12-.02-.17-.07-.38-.32-1.28-1.06-2.69-2.19l-1.32-1.06c-1.14-.9-2.02-1.35-2.65-1.35-.51,0-.91.17-1.22.52-.31.34-.46.79-.46,1.35s.16.98.47,1.32c.31.33.72.5,1.23.49h.44c.1,0,.14.05.14.14v.75c0,.1-.05.14-.14.14h-.57c-.74-.02-1.33-.29-1.78-.82-.45-.53-.67-1.2-.67-2.01,0-.57.11-1.08.33-1.52s.52-.78.91-1.02c.39-.24.82-.36,1.31-.36.81,0,1.79.45,2.94,1.35.6.47,1.71,1.37,3.32,2.71l.37.32s.07.02.07-.03Z"
        style="fill: #38d430;" />
      <path
        d="M7.05,118.39c.47,0,.87.04,1.2.13.61.16,1.1.49,1.45.97s.54,1.07.54,1.76-.17,1.26-.52,1.73c-.34.48-.8.8-1.38.97-.21.07-.42.11-.63.13h-.03c-.08,0-.11-.04-.11-.13v-.76c0-.1.05-.15.14-.16.06,0,.15-.02.29-.06.41-.1.74-.29.98-.59.24-.3.37-.68.37-1.12s-.13-.84-.39-1.15c-.26-.31-.61-.51-1.06-.61-.22-.06-.51-.09-.86-.09-.32,0-.64.02-.93.07-.44.07-.77.26-1,.57-.23.32-.34.71-.34,1.18,0,.42.1.8.29,1.13.19.33.44.55.76.65.09.03.13.08.13.16v.77c0,.1-.05.14-.14.14H.26c-.1,0-.14-.05-.14-.14v-5.02c0-.1.05-.14.14-.14h.6c.1,0,.14.05.14.14v4.08s.02.06.06.06h3.47s.03,0,.04,0c0-.01,0-.03-.01-.05-.22-.24-.39-.52-.51-.85-.12-.32-.18-.67-.18-1.03,0-.68.17-1.25.49-1.72.33-.47.8-.77,1.4-.9.42-.09.85-.13,1.29-.13Z"
        style="fill: #38d430;" />
      <path
        d="M3.44,104.63c.43-.42,1.02-.62,1.76-.62h4.8c.1,0,.14.05.14.14v.72c0,.1-.05.14-.14.14h-4.6c-.53,0-.94.15-1.25.45s-.47.69-.47,1.18.15.92.46,1.23.72.47,1.23.47h4.63c.1,0,.14.05.14.14v.73c0,.1-.05.14-.14.14h-4.6c-.53,0-.94.15-1.25.44-.31.3-.47.69-.47,1.19s.15.91.46,1.21.72.45,1.23.45h4.63c.1,0,.14.05.14.14v.73c0,.1-.05.14-.14.14H3.04c-.1,0-.14-.05-.14-.14v-.73c0-.1.05-.14.14-.14h.57s.03,0,.04-.02c0-.01,0-.03-.02-.05-.28-.21-.48-.48-.62-.81s-.21-.69-.21-1.1c0-.5.1-.92.3-1.28.2-.35.49-.62.87-.8.05-.02.05-.04,0-.07-.39-.21-.69-.51-.88-.89-.2-.38-.29-.82-.29-1.3,0-.72.21-1.28.65-1.7Z"
        style="fill: #38d430;" />
      <path
        d="M3.44,92.78c.43-.42,1.02-.62,1.76-.62h4.8c.1,0,.14.05.14.14v.72c0,.1-.05.14-.14.14h-4.6c-.53,0-.94.15-1.25.45s-.47.69-.47,1.18.15.92.46,1.23.72.47,1.23.47h4.63c.1,0,.14.05.14.14v.73c0,.1-.05.14-.14.14h-4.6c-.53,0-.94.15-1.25.44-.31.3-.47.69-.47,1.19s.15.91.46,1.21.72.45,1.23.45h4.63c.1,0,.14.05.14.14v.73c0,.1-.05.14-.14.14H3.04c-.1,0-.14-.05-.14-.14v-.73c0-.1.05-.14.14-.14h.57s.03,0,.04-.02c0-.01,0-.03-.02-.05-.28-.21-.48-.48-.62-.81s-.21-.69-.21-1.1c0-.5.1-.92.3-1.28.2-.35.49-.62.87-.8.05-.02.05-.04,0-.07-.39-.21-.69-.51-.88-.89-.2-.38-.29-.82-.29-1.3,0-.72.21-1.28.65-1.7Z"
        style="fill: #38d430;" />
    </g>
    <line x1="30.18" y1="9.2" x2="112.41" y2="9.2"
      style="fill: none; stroke: #38d430; stroke-dasharray: 2.19 2.19; stroke-width: .99px;" />
    <line x1="30.18" y1="151.59" x2="112.41" y2="151.59"
      style="fill: none; stroke: #38d430; stroke-dasharray: 2.19 2.19; stroke-width: .99px;" />
    <line x1="28.83" y1="81.12" x2="113.76" y2="81.12"
      style="fill: none; stroke: #d50057; stroke-dasharray: 3 3; stroke-width: .57px;" />
    <polygon points="48.29 32.24 42.48 52.28 67.41 62.4 67.52 62.44 93.86 52.6 99.76 32.24 48.29 32.24"
      style="fill: #fff;" />
    <polygon points="48.29 32.24 42.48 52.28 67.41 62.4 67.52 62.44 93.86 52.6 99.76 32.24 48.29 32.24"
      style="fill: none; stroke: #005da6; stroke-width: .49px;" />
    <path
      d="M68.16,50.62v-2.51s-1.11,2.51-1.11,2.51h1.11ZM58.23,33.04l-3.41,11.78h-7.01s1.03-3.53,1.03-3.53l2.83-.98-.6,2.06h1.92s2.42-8.35,2.42-8.35l-.43-.98h-6.08l-5.44,18.77,9.21,3.74,3.1-10.7h2.54l-2.76,9.52h4.42s-.67,2.43-.67,2.43h-3.54l11.77,4.78,21.48-8.03h-5.03l2.52-8.7h5.88l-.67,2.33h-3.32l-.25.79h2.84l-.65,2.25h-2.84s-.29.99-.29.99h3.33l-.57,1.97,3.24-1.21,5.49-18.94h-40.46ZM50.59,35.33l.6-2.08.61,2.08h1.86l-1.55,1.1.57,1.95-1.5-1.27-1.5,1.27.57-1.95-1.55-1.1h1.87ZM81.76,35.32l-2.52,8.7h-2.55l2.52-8.7h2.55ZM71.56,37.65l.66-2.33h6.28l-.66,2.33h-1.91l-1.86,6.37h-2.55l1.86-6.37h-1.82ZM66.12,35.32h4.27c.29,0,.56.13.73.36.18.23.23.53.15.82h0s-.28.99-.28.99l-2.85.98.33-1.13h-1.1l-.3,1.01,2.39,1.29c.21.14.76.52.59,1.12l-.76,2.56c-.11.41-.49.69-.92.69h-4.27c-.29,0-.56-.13-.73-.36-.18-.23-.23-.53-.15-.82l.34-1.17,2.84-.98-.43,1.49h1.1l.36-1.23-2.34-1.29-.09-.05c-.37-.24-.64-.57-.5-1.06l.72-2.53c.12-.41.49-.7.92-.7M57.22,44.02c-.29,0-.56-.13-.73-.36-.18-.23-.23-.53-.15-.82l1.94-6.67-.38-.85h3.17l-1.86,6.37h1.01l1.86-6.37h2.55l-2.33,8.01c-.12.41-.49.69-.91.69h-4.18ZM56.78,53.55l2.52-8.7h5.88l-.67,2.33h-3.32l-.25.79h2.84l-.65,2.25h-2.84s-.29.99-.29.99h3.33l-.68,2.33h-5.88ZM67.99,53.55v-1.16h-1.53l-.54,1.16h-2.64l3.86-7.67-.45-1.03h3.6l.16,8.7h-2.45ZM73.93,54.4l.02-.85h-2.18c-.29,0-.56-.13-.73-.36-.18-.23-.23-.53-.15-.82l1.99-6.83c.12-.41.49-.69.92-.69h3.99c.28,0,.52.13.69.35.17.23.25.52.17.79l-.51,1.77-2.79.96.54-1.85h-.83l-1.27,4.34h.84l.36-1.24-.34-.77h3.07s-1.24,4.31-1.24,4.31l-2.54.89ZM83.38,52.86c-.12.41-.49.69-.92.69h-3.98c-.29,0-.56-.13-.73-.36-.18-.23-.23-.53-.15-.82l1.95-6.67-.38-.85h3.17l-1.86,6.37h.81l1.86-6.37h2.55l-2.32,8.01ZM86.14,43.32c-.12.41-.5.7-.92.7h-3.94c-.29,0-.56-.13-.73-.36-.18-.23-.23-.53-.15-.82l1.99-6.83c.11-.41.49-.69.92-.69h3.97c.28,0,.54.13.71.35.17.23.22.52.14.79l-.21.72-.41,1.42-2.84.98.57-1.94h-.77l-1.19,4.04h.79l.3-1.01,2.84-.98-1.08,3.63ZM93.74,38.45l-.65,2.25h-2.84s-.29.99-.29.99h3.33l-.68,2.33h-5.88l2.52-8.7h5.88l-.68,2.33h-3.32l-.24.8h2.84Z"
      style="fill: #005da6;" />
    <path
      d="M66.4,40.68l-.43,1.49h.3l.37-1.27-.23-.22ZM67.6,37.57h.81l.07-.23h-1.1l-.3,1.02.26.14.27-.92ZM64.48,38.59h0s-.24.73.7,1.22h0s.02.02.04.03l.09.06,2.08,1.15.03-.09-2.34-1.29-.09-.05c-.36-.23-.63-.55-.51-1.02M61.31,35.54l-.23-.22-1.86,6.37h.3l1.79-6.15ZM63.19,42.94h0s0-.02,0-.03h0s0,.01,0,.03M58.54,45.07l-.23-.22-2.76,9.52h.3l2.69-9.29ZM63.33,51.22l-.68,2.33h-5.88l.24.23h5.87l.68-2.34-.23-.22ZM56.49,43.65c-.18-.23-.23-.53-.15-.82,0,.02-.01.05-.02.07h0s-.29,1.34,1.02,1.34h.17s4.12,0,4.12,0c.42,0,.8-.29.91-.69l2.33-8.01-.23-.22-2.32,8.01c-.12.41-.49.69-.92.69h-4.17c-.29,0-.56-.13-.74-.36M60.29,50.23l-.29.99h.3l.22-.76h2.84s.65-2.26.65-2.26l-.23-.22-.65,2.25h-2.84ZM69.52,43.56s0-.02,0-.03c0-.03.71-2.39.72-2.43.03-.11.07-.23.07-.35,0-.08,0-.17-.03-.25-.02-.08-.06-.15-.1-.22-.04-.07-.09-.13-.15-.19-.05-.06-.11-.11-.17-.16-.05-.04-.11-.09-.17-.13-.05-.03-.09-.06-.14-.09-.03-.02-.06-.03-.09-.05,0,0-.01,0-.02,0h0c.21.15.76.52.6,1.12l-.76,2.56c-.11.41-.49.69-.92.69h-4.27c-.29,0-.56-.13-.74-.36-.15-.2-.21-.45-.17-.7-.04.23-.14,1.29,1.03,1.29h.16s4.21,0,4.21,0c.42,0,.8-.29.92-.69M68.17,48.87v-.75s-1.12,2.51-1.12,2.51h.33l.78-1.76ZM51.07,42.37h.3s.54-1.84.54-1.84l-.23-.22-.6,2.06ZM52.56,38.27l.44.38-.6-2.03,1.5-1.07-.24-.22-1.55,1.1.57,1.95-.13-.11ZM52.04,35.33l-.52-1.77-.33-.31.61,2.08h.24ZM58.32,33.04h-.09l-3.41,11.78h-7.01s.24.23.24.23h7s3.43-11.85,3.43-11.85l-.16-.16ZM51.44,37.32l-.25-.21-1.5,1.27.24.22,1.51-1.28ZM95.14,35.33l-.68,2.33h-3.32l-.25.8h.3l.17-.57h3.32l.68-2.34-.23-.22ZM65.41,45.07l-.23-.22-.68,2.33h-3.32l-.24.8h.3l.17-.57h3.32l.68-2.34ZM93.09,40.7h-2.84s-.29.99-.29.99h.3l.22-.76h2.84s.65-2.26.65-2.26l-.23-.22-.65,2.25ZM71.8,37.88h1.51l.07-.23h-1.82l.24.23ZM67.99,53.45v-1.06s-1.53,0-1.53,0l-.54,1.16h-2.64l.24.23h2.63l.54-1.16h1.3v.83ZM84.22,53.78h4.18l.61-.23h-5.03l.23.23ZM70.28,44.85l.16,8.7h-2.45l.24.23h2.44l-.16-8.71-.23-.22ZM87.98,35.67c.17.23.22.51.14.79l-.2.72-.41,1.43-2.84.98.24.23,2.83-.98.41-1.43.21-.72s.02-.06.02-.07c.31-1.04-.76-1.31-1.08-1.31,0,0,0,0-.01,0,0,0-.01,0-.02,0,.28,0,.54.13.71.35M59.29,56.8h-3.54l.57.23h3.2l.67-2.44-.23-.22-.67,2.43ZM92.62,44.03h-5.88l.24.23h5.87l.68-2.34-.23-.22-.68,2.33ZM84.7,37.88h.48l.07-.23h-.77l-1.19,4.04h.3l1.12-3.81ZM71.13,35.68c.18.23.23.53.15.82h0s-.28.99-.28.99l-2.85.98.24.23,2.84-.98s.32-1.08.34-1.16c.02-.06.03-.12.03-.18,0-.05,0-.11,0-.17,0-.05-.01-.1-.02-.15-.01-.05-.03-.09-.05-.13-.02-.04-.04-.08-.07-.12-.02-.04-.05-.07-.08-.1-.03-.03-.06-.06-.1-.09-.03-.03-.07-.05-.11-.08s-.07-.04-.11-.06c-.04-.02-.08-.04-.11-.05-.04-.02-.07-.03-.11-.04-.04-.01-.07-.02-.11-.03-.03,0-.07-.02-.1-.02-.03,0-.06,0-.09-.01-.03,0-.05,0-.07,0h0s-.02,0-.02,0c-.02,0-.03,0-.04,0,.29,0,.56.13.73.36M90.33,50.23h-2.84s-.29.99-.29.99h.3l.22-.76h2.84s.65-2.25.65-2.25l-.23-.23-.65,2.25ZM91.71,47.18h-3.32l-.24.8h.3l.17-.57h3.32l.68-2.33-.23-.23-.68,2.33ZM89.96,53.19l.33-.12.47-1.63-.23-.23-.57,1.98ZM71.76,44.25h2.54l1.86-6.37h1.91l.66-2.34-.23-.22-.66,2.33h-1.91l-1.86,6.37h-2.55l.24.23ZM78.36,47.99l.51-1.77s.02-.06.02-.09c.3-1.01-.76-1.28-1.08-1.28h0s-.01,0-.02,0c.28,0,.52.13.69.35.17.23.25.52.17.79l-.51,1.77-2.79.96.24.23,2.78-.96ZM76.93,44.25h2.54l2.53-8.71-.23-.22-2.52,8.7h-2.56l.24.23ZM75.28,47.11h.53l.07-.23h-.82l-1.27,4.34h.3l.58-1.98v-.03s0,0,0,0l.61-2.09ZM85.71,44.85l-2.32,8.01c-.12.41-.49.69-.92.69h-3.98c-.29,0-.56-.13-.73-.36-.16-.21-.22-.48-.17-.74h0s-.29,1.34,1.02,1.34h.17s3.92,0,3.92,0c.42,0,.8-.28.92-.69l2.33-8.01-.23-.23ZM73.95,53.55h-2.18c-.29,0-.56-.13-.73-.36-.18-.23-.23-.53-.15-.82,0,.02-.01.05-.02.07h0s-.28,1.34,1.02,1.34h.17s1.88,0,1.88,0v-.23ZM86.37,43.55l1.08-3.64-.23-.22-1.08,3.63c-.12.41-.49.7-.92.7h-3.94c-.29,0-.56-.13-.73-.36-.18-.23-.23-.53-.15-.82,0,.02-.01.05-.02.07h0s-.29,1.34,1.02,1.34h.16s3.88,0,3.88,0c.43,0,.8-.29.92-.7M80.78,51.22l1.79-6.14-.23-.23-1.86,6.37h.3ZM77.71,49.2l-1.24,4.31-2.54.89.23.23,2.54-.89,1.24-4.31-.23-.23Z"
      style="fill: #e1251b;" />
    <polygon
      points="92.93 44.87 92.81 44.87 92.81 44.81 93.13 44.81 93.13 44.87 93.01 44.87 93.01 45.24 92.93 45.24 92.93 44.87"
      style="fill: #fff;" />
    <path
      d="M93.54,45.06c0-.06,0-.12,0-.18h0c-.01.05-.03.11-.05.16l-.06.19h-.06l-.06-.18c-.02-.06-.03-.11-.04-.17h0c0,.06,0,.12,0,.18v.17h-.08l.03-.43h.1l.06.17c.01.05.03.1.04.15h0s.03-.1.04-.15l.06-.17h.1l.02.43h-.08v-.18Z"
      style="fill: #fff;" />
    <g>
      <path
        d="M50.01,101.68h.57v2.93c0,1.16-.57,1.52-1.33,1.52-.21,0-.46-.05-.6-.1l.08-.46c.12.05.29.08.47.08.51,0,.81-.23.81-1.09v-2.89Z"
        style="fill: #101820;" />
      <path
        d="M52.09,101.68v2.59c0,.98.44,1.4,1.02,1.4.65,0,1.07-.43,1.07-1.4v-2.59h.57v2.55c0,1.35-.71,1.9-1.66,1.9-.9,0-1.57-.51-1.57-1.87v-2.58h.57Z"
        style="fill: #101820;" />
      <path
        d="M55.65,105.37c.25.16.62.29,1.01.29.58,0,.92-.31.92-.75,0-.41-.23-.64-.83-.87-.71-.25-1.16-.62-1.16-1.24,0-.68.57-1.19,1.42-1.19.45,0,.77.1.97.21l-.16.46c-.14-.08-.44-.21-.83-.21-.6,0-.83.36-.83.66,0,.41.27.61.87.85.74.29,1.12.64,1.12,1.29,0,.68-.5,1.26-1.53,1.26-.42,0-.88-.12-1.12-.28l.14-.47Z"
        style="fill: #101820;" />
      <path d="M59.76,102.16h-1.33v-.48h3.24v.48h-1.34v3.9h-.57v-3.9Z" style="fill: #101820;" />
      <path d="M62.73,101.68v4.38h-.57v-4.38h.57Z" style="fill: #101820;" />
      <path
        d="M66.78,105.92c-.21.1-.62.21-1.16.21-1.23,0-2.16-.78-2.16-2.22s.93-2.3,2.29-2.3c.55,0,.89.12,1.04.19l-.14.46c-.21-.1-.52-.18-.88-.18-1.03,0-1.71.66-1.71,1.81,0,1.07.62,1.76,1.68,1.76.34,0,.7-.07.92-.18l.12.45Z"
        style="fill: #101820;" />
      <path d="M69.75,104h-1.7v1.58h1.9v.47h-2.46v-4.38h2.37v.47h-1.8v1.38h1.7v.47Z" style="fill: #101820;" />
      <path d="M72.06,101.68h.57v3.91h1.87v.47h-2.44v-4.38Z" style="fill: #101820;" />
      <path d="M77.4,104h-1.7v1.58h1.9v.47h-2.46v-4.38h2.37v.47h-1.8v1.38h1.7v.47Z" style="fill: #101820;" />
      <path
        d="M79.04,104.68l-.46,1.38h-.58l1.49-4.38h.68l1.5,4.38h-.6l-.47-1.38h-1.55ZM80.47,104.24l-.43-1.26c-.1-.29-.16-.55-.23-.8h-.01c-.06.26-.14.53-.22.79l-.43,1.27h1.32Z"
        style="fill: #101820;" />
      <path
        d="M85.55,105.86c-.25.09-.75.24-1.35.24-.66,0-1.21-.17-1.64-.58-.38-.36-.61-.95-.61-1.63,0-1.31.9-2.26,2.37-2.26.51,0,.9.11,1.09.2l-.14.46c-.23-.1-.53-.19-.97-.19-1.07,0-1.76.66-1.76,1.76s.67,1.77,1.69,1.77c.37,0,.62-.05.75-.12v-1.31h-.89v-.46h1.44v2.11Z"
        style="fill: #101820;" />
      <path
        d="M86.98,101.68v2.59c0,.98.44,1.4,1.02,1.4.65,0,1.07-.43,1.07-1.4v-2.59h.57v2.55c0,1.35-.71,1.9-1.66,1.9-.9,0-1.57-.51-1.57-1.87v-2.58h.57Z"
        style="fill: #101820;" />
      <path d="M92.89,104h-1.7v1.58h1.9v.47h-2.46v-4.38h2.37v.47h-1.8v1.38h1.7v.47Z" style="fill: #101820;" />
    </g>
    <g>
      <path
        d="M54.7,113.06l-.05-.4h-.02c-.18.25-.51.47-.96.47-.64,0-.96-.45-.96-.9,0-.76.68-1.18,1.89-1.17v-.06c0-.26-.07-.73-.71-.73-.29,0-.6.09-.82.23l-.13-.38c.26-.17.64-.28,1.03-.28.96,0,1.2.66,1.2,1.29v1.18c0,.27.01.54.05.75h-.52ZM54.62,111.45c-.62-.01-1.33.1-1.33.71,0,.37.25.55.54.55.41,0,.67-.26.76-.53.02-.06.03-.12.03-.18v-.55Z"
        style="fill: #101820;" />
      <path
        d="M56.09,110.77c0-.33,0-.59-.03-.85h.51l.03.52h.01c.16-.3.52-.59,1.04-.59.44,0,1.11.26,1.11,1.34v1.88h-.57v-1.81c0-.51-.19-.93-.73-.93-.38,0-.67.27-.77.58-.03.07-.04.17-.04.27v1.89h-.57v-2.29Z"
        style="fill: #101820;" />
      <path
        d="M62.42,108.44v3.8c0,.28,0,.6.03.81h-.51l-.03-.55h-.01c-.18.35-.56.62-1.07.62-.76,0-1.35-.64-1.35-1.6,0-1.05.64-1.69,1.41-1.69.48,0,.81.23.95.48h.01v-1.88h.57ZM61.84,111.19c0-.07,0-.17-.03-.24-.08-.36-.4-.66-.83-.66-.59,0-.94.52-.94,1.22,0,.64.31,1.16.93,1.16.38,0,.73-.25.84-.68.02-.08.03-.16.03-.25v-.55Z"
        style="fill: #101820;" />
      <path
        d="M66.49,113.06l-.05-.4h-.02c-.18.25-.51.47-.96.47-.64,0-.96-.45-.96-.9,0-.76.68-1.18,1.89-1.17v-.06c0-.26-.07-.73-.71-.73-.29,0-.6.09-.82.23l-.13-.38c.26-.17.64-.28,1.03-.28.96,0,1.2.66,1.2,1.29v1.18c0,.27.01.54.05.75h-.52ZM66.4,111.45c-.62-.01-1.33.1-1.33.71,0,.37.25.55.54.55.41,0,.67-.26.76-.53.02-.06.03-.12.03-.18v-.55Z"
        style="fill: #101820;" />
      <path d="M67.88,108.44h.57v4.62h-.57v-4.62Z" style="fill: #101820;" />
      <path d="M69.41,108.44h.57v4.62h-.57v-4.62Z" style="fill: #101820;" />
      <path
        d="M72.32,110.89c0-.37,0-.69-.03-.98h.5l.02.62h.03c.14-.42.49-.69.87-.69.06,0,.11,0,.16.02v.54c-.06-.01-.12-.02-.2-.02-.4,0-.69.31-.77.73-.01.08-.03.17-.03.27v1.68h-.57v-2.16Z"
        style="fill: #101820;" />
      <path
        d="M74.71,111.59c.01.77.51,1.09,1.08,1.09.41,0,.66-.07.87-.16l.1.41c-.2.09-.55.19-1.05.19-.97,0-1.55-.64-1.55-1.59s.56-1.7,1.48-1.7c1.03,0,1.3.9,1.3,1.48,0,.12-.01.21-.02.27h-2.21ZM76.38,111.18c0-.36-.15-.93-.79-.93-.58,0-.83.53-.88.93h1.67Z"
        style="fill: #101820;" />
      <path d="M77.65,108.44h.57v4.62h-.57v-4.62Z" style="fill: #101820;" />
      <path
        d="M80.92,113.06l-.05-.4h-.02c-.18.25-.51.47-.96.47-.64,0-.96-.45-.96-.9,0-.76.68-1.18,1.89-1.17v-.06c0-.26-.07-.73-.71-.73-.29,0-.6.09-.82.23l-.13-.38c.26-.17.64-.28,1.03-.28.96,0,1.2.66,1.2,1.29v1.18c0,.27.01.54.05.75h-.52ZM80.84,111.45c-.62-.01-1.33.1-1.33.71,0,.37.25.55.54.55.41,0,.67-.26.76-.53.02-.06.03-.12.03-.18v-.55Z"
        style="fill: #101820;" />
      <path
        d="M82.98,109.01v.9h.82v.44h-.82v1.7c0,.39.11.61.43.61.15,0,.26-.02.33-.04l.03.43c-.11.05-.29.08-.51.08-.27,0-.48-.08-.62-.24-.16-.17-.22-.45-.22-.82v-1.72h-.49v-.44h.49v-.75l.56-.15Z"
        style="fill: #101820;" />
      <path
        d="M84.72,111.59c.01.77.51,1.09,1.08,1.09.41,0,.66-.07.87-.16l.1.41c-.2.09-.55.19-1.05.19-.97,0-1.55-.64-1.55-1.59s.56-1.7,1.48-1.7c1.03,0,1.3.9,1.3,1.48,0,.12-.01.21-.02.27h-2.21ZM86.4,111.18c0-.36-.15-.93-.79-.93-.58,0-.83.53-.88.93h1.67Z"
        style="fill: #101820;" />
      <path
        d="M90.38,108.44v3.8c0,.28,0,.6.03.81h-.51l-.03-.55h-.01c-.18.35-.56.62-1.07.62-.76,0-1.35-.64-1.35-1.6,0-1.05.64-1.69,1.41-1.69.48,0,.81.23.95.48h.01v-1.88h.57ZM89.81,111.19c0-.07,0-.17-.03-.24-.08-.36-.4-.66-.83-.66-.59,0-.94.52-.94,1.22,0,.64.31,1.16.93,1.16.38,0,.73-.25.84-.68.02-.08.03-.16.03-.25v-.55Z"
        style="fill: #101820;" />
    </g>
    <g>
      <path
        d="M53.13,119.94c-.15.08-.48.18-.9.18-.95,0-1.57-.64-1.57-1.61s.66-1.67,1.69-1.67c.34,0,.64.08.79.16l-.13.44c-.14-.08-.35-.15-.66-.15-.72,0-1.11.53-1.11,1.19,0,.73.47,1.18,1.09,1.18.33,0,.54-.08.7-.16l.1.43Z"
        style="fill: #101820;" />
      <path
        d="M53.8,115.44h.57v1.96h.01c.09-.16.23-.31.41-.4.17-.1.37-.16.58-.16.42,0,1.1.26,1.1,1.35v1.87h-.57v-1.81c0-.51-.19-.94-.73-.94-.37,0-.66.26-.77.57-.03.08-.04.16-.04.27v1.9h-.57v-4.62Z"
        style="fill: #101820;" />
      <path
        d="M59.15,120.06l-.05-.4h-.02c-.18.25-.51.47-.96.47-.64,0-.96-.45-.96-.9,0-.76.68-1.18,1.89-1.17v-.06c0-.26-.07-.73-.72-.73-.29,0-.6.09-.82.23l-.13-.38c.26-.17.64-.28,1.03-.28.96,0,1.2.66,1.2,1.29v1.18c0,.27.01.54.05.75h-.52ZM59.07,118.45c-.62-.01-1.33.1-1.33.71,0,.37.25.55.54.55.41,0,.67-.26.76-.53.02-.06.03-.12.03-.18v-.55Z"
        style="fill: #101820;" />
      <path
        d="M60.54,117.9c0-.37,0-.69-.03-.98h.5l.02.62h.03c.14-.42.49-.69.87-.69.06,0,.11,0,.16.02v.54c-.06-.01-.12-.02-.19-.02-.4,0-.69.31-.77.73-.01.08-.03.17-.03.27v1.68h-.57v-2.16Z"
        style="fill: #101820;" />
      <path
        d="M64.39,120.06l-.05-.4h-.02c-.18.25-.51.47-.96.47-.64,0-.96-.45-.96-.9,0-.76.68-1.18,1.89-1.17v-.06c0-.26-.07-.73-.72-.73-.29,0-.6.09-.82.23l-.13-.38c.26-.17.64-.28,1.03-.28.96,0,1.2.66,1.2,1.29v1.18c0,.27.01.54.05.75h-.52ZM64.3,118.45c-.62-.01-1.33.1-1.33.71,0,.37.25.55.54.55.41,0,.67-.26.76-.53.02-.06.03-.12.03-.18v-.55Z"
        style="fill: #101820;" />
      <path
        d="M68.02,119.94c-.15.08-.48.18-.9.18-.95,0-1.57-.64-1.57-1.61s.66-1.67,1.69-1.67c.34,0,.64.08.79.16l-.13.44c-.14-.08-.35-.15-.66-.15-.72,0-1.11.53-1.11,1.19,0,.73.47,1.18,1.09,1.18.33,0,.54-.08.7-.16l.1.43Z"
        style="fill: #101820;" />
      <path
        d="M69.46,116.01v.9h.82v.44h-.82v1.7c0,.39.11.61.43.61.15,0,.26-.02.33-.04l.03.43c-.11.05-.29.08-.51.08-.27,0-.48-.08-.62-.24-.16-.17-.22-.45-.22-.82v-1.72h-.49v-.44h.49v-.75l.56-.15Z"
        style="fill: #101820;" />
      <path
        d="M71.2,118.59c.01.77.51,1.09,1.08,1.09.41,0,.66-.07.87-.16l.1.41c-.2.09-.55.19-1.05.19-.97,0-1.55-.64-1.55-1.59s.56-1.7,1.48-1.7c1.03,0,1.3.9,1.3,1.48,0,.12-.01.21-.02.27h-2.21ZM72.88,118.18c0-.36-.15-.93-.79-.93-.58,0-.83.53-.88.93h1.67Z"
        style="fill: #101820;" />
      <path
        d="M74.14,117.9c0-.37,0-.69-.03-.98h.5l.02.62h.03c.14-.42.49-.69.87-.69.06,0,.11,0,.16.02v.54c-.06-.01-.12-.02-.19-.02-.4,0-.69.31-.77.73-.01.08-.03.17-.03.27v1.68h-.57v-2.16Z"
        style="fill: #101820;" />
      <path
        d="M76.19,119.48c.17.11.47.23.75.23.42,0,.61-.21.61-.47s-.16-.42-.58-.58c-.57-.2-.83-.51-.83-.89,0-.51.41-.92,1.09-.92.32,0,.6.09.77.2l-.14.42c-.12-.08-.35-.18-.64-.18-.34,0-.53.19-.53.43,0,.26.19.38.6.53.55.21.83.48.83.95,0,.55-.43.94-1.18.94-.34,0-.66-.08-.88-.21l.14-.44Z"
        style="fill: #101820;" />
      <path
        d="M81.96,120.06l-.05-.4h-.02c-.18.25-.51.47-.96.47-.64,0-.96-.45-.96-.9,0-.76.68-1.18,1.89-1.17v-.06c0-.26-.07-.73-.71-.73-.29,0-.6.09-.82.23l-.13-.38c.26-.17.64-.28,1.03-.28.96,0,1.2.66,1.2,1.29v1.18c0,.27.01.54.05.75h-.52ZM81.88,118.45c-.62-.01-1.33.1-1.33.71,0,.37.25.55.54.55.41,0,.67-.26.76-.53.02-.06.03-.12.03-.18v-.55Z"
        style="fill: #101820;" />
      <path
        d="M83.35,117.77c0-.33,0-.59-.03-.85h.51l.03.52h.01c.16-.3.52-.59,1.04-.59.44,0,1.11.26,1.11,1.34v1.88h-.57v-1.81c0-.51-.19-.93-.73-.93-.38,0-.67.27-.77.58-.03.07-.04.17-.04.27v1.89h-.57v-2.29Z"
        style="fill: #101820;" />
      <path
        d="M89.68,115.44v3.8c0,.28,0,.6.03.81h-.51l-.03-.55h-.01c-.18.35-.56.62-1.07.62-.76,0-1.35-.64-1.35-1.6,0-1.05.64-1.69,1.41-1.69.48,0,.81.23.95.48h.01v-1.88h.57ZM89.1,118.19c0-.07,0-.17-.03-.24-.08-.36-.4-.66-.83-.66-.59,0-.94.52-.94,1.22,0,.64.31,1.16.93,1.16.38,0,.73-.25.84-.68.02-.08.03-.16.03-.25v-.55Z"
        style="fill: #101820;" />
    </g>
    <g>
      <path
        d="M50.31,125.59c.01.77.51,1.09,1.08,1.09.41,0,.66-.07.87-.16l.1.41c-.2.09-.55.19-1.05.19-.97,0-1.55-.64-1.55-1.59s.56-1.7,1.48-1.7c1.03,0,1.3.9,1.3,1.48,0,.12-.01.21-.02.27h-2.21ZM51.99,125.18c0-.36-.15-.93-.79-.93-.58,0-.83.53-.88.93h1.67Z"
        style="fill: #101820;" />
      <path d="M53.25,122.45h.57v4.62h-.57v-4.62Z" style="fill: #101820;" />
      <path
        d="M55.1,125.59c.01.77.51,1.09,1.08,1.09.41,0,.66-.07.87-.16l.1.41c-.2.09-.55.19-1.05.19-.97,0-1.55-.64-1.55-1.59s.56-1.7,1.48-1.7c1.03,0,1.3.9,1.3,1.48,0,.12-.01.21-.02.27h-2.21ZM56.78,125.18c0-.36-.15-.93-.79-.93-.58,0-.83.53-.88.93h1.67Z"
        style="fill: #101820;" />
      <path
        d="M58.04,124.77c0-.33,0-.59-.03-.85h.5l.03.51h.02c.18-.3.47-.58.99-.58.43,0,.75.26.89.63h.01c.1-.18.22-.31.35-.41.19-.14.4-.22.7-.22.42,0,1.03.27,1.03,1.37v1.85h-.56v-1.78c0-.6-.22-.97-.68-.97-.33,0-.58.24-.68.52-.03.08-.05.18-.05.29v1.94h-.56v-1.89c0-.5-.22-.86-.66-.86-.36,0-.62.29-.71.57-.03.08-.05.18-.05.28v1.9h-.56v-2.29Z"
        style="fill: #101820;" />
      <path
        d="M63.78,125.59c.01.77.51,1.09,1.08,1.09.41,0,.66-.07.87-.16l.1.41c-.2.09-.55.19-1.05.19-.97,0-1.55-.64-1.55-1.59s.56-1.7,1.48-1.7c1.03,0,1.3.9,1.3,1.48,0,.12-.01.21-.02.27h-2.21ZM65.46,125.18c0-.36-.15-.93-.79-.93-.58,0-.83.53-.88.93h1.67Z"
        style="fill: #101820;" />
      <path
        d="M66.72,124.77c0-.33,0-.59-.03-.85h.51l.03.52h.01c.16-.3.52-.59,1.04-.59.44,0,1.11.26,1.11,1.34v1.88h-.57v-1.81c0-.51-.19-.93-.73-.93-.38,0-.67.27-.77.58-.03.07-.04.17-.04.27v1.89h-.57v-2.29Z"
        style="fill: #101820;" />
      <path
        d="M70.99,123.01v.9h.82v.44h-.82v1.7c0,.39.11.61.43.61.15,0,.26-.02.33-.04l.03.43c-.11.05-.29.08-.51.08-.27,0-.48-.08-.62-.24-.16-.17-.22-.45-.22-.82v-1.72h-.49v-.44h.49v-.75l.56-.15Z"
        style="fill: #101820;" />
      <path
        d="M72.37,126.48c.17.11.47.23.75.23.42,0,.61-.21.61-.47s-.16-.42-.58-.58c-.57-.2-.83-.51-.83-.89,0-.51.41-.92,1.09-.92.32,0,.6.09.77.2l-.14.42c-.12-.08-.35-.18-.64-.18-.34,0-.53.19-.53.43,0,.26.19.38.6.53.55.21.83.48.83.95,0,.55-.43.94-1.18.94-.34,0-.66-.08-.88-.21l.14-.44Z"
        style="fill: #101820;" />
      <path
        d="M80.1,124.85c0,1.12-.86,2.02-1.96,2.02s-1.98-.9-1.98-2.02.87-2,1.98-2,1.96.9,1.96,2ZM76.49,124.87c0,.97.71,1.73,1.65,1.73s1.63-.76,1.63-1.75-.72-1.74-1.63-1.74-1.65.77-1.65,1.76ZM78.93,124.11c-.08-.05-.32-.15-.63-.15-.61,0-.91.39-.91.91s.32.92.92.92c.26,0,.51-.07.66-.17l.08.25c-.23.15-.53.2-.8.2-.75,0-1.19-.52-1.19-1.18,0-.74.58-1.21,1.24-1.21.34,0,.63.1.71.18l-.08.25Z"
        style="fill: #101820;" />
      <path
        d="M84.95,127.06c-.12-.12-.24-.25-.41-.43-.38.35-.8.5-1.28.5-.85,0-1.35-.57-1.35-1.23,0-.6.36-1.01.86-1.28v-.02c-.23-.29-.36-.6-.36-.92,0-.53.38-1.08,1.11-1.08.55,0,.97.36.97.93,0,.46-.27.83-.96,1.17v.02c.37.43.79.91,1.07,1.22.2-.31.34-.73.42-1.28h.52c-.12.69-.31,1.23-.63,1.62.23.25.46.49.72.77h-.68ZM84.26,126.31c-.26-.29-.75-.82-1.23-1.38-.23.15-.57.43-.57.89,0,.5.37.88.9.88.38,0,.7-.17.9-.4ZM82.92,123.63c0,.31.14.55.33.79.44-.25.73-.49.73-.86,0-.27-.15-.57-.51-.57s-.55.3-.55.64Z"
        style="fill: #101820;" />
      <path
        d="M88.7,122.68v.29h-.57v1.48h-.35v-1.48h-.57v-.29h1.48ZM90.61,124.45l-.06-1.04c0-.14,0-.31-.01-.49h-.02c-.05.16-.1.36-.15.53l-.32.98h-.36l-.32-1.01c-.03-.14-.08-.34-.12-.5h-.02c0,.16,0,.33-.01.49l-.06,1.04h-.34l.13-1.77h.53l.31.86c.04.14.07.27.12.45h0c.05-.16.08-.31.12-.44l.31-.87h.51l.14,1.77h-.35Z"
        style="fill: #101820;" />
    </g>
    <g>
      <path
        d="M59.58,129.74c.34-.05.75-.09,1.2-.09.81,0,1.39.19,1.77.55.39.36.62.86.62,1.57s-.22,1.3-.63,1.7c-.41.41-1.09.63-1.94.63-.4,0-.74-.02-1.03-.05v-4.31ZM60.15,133.61c.14.03.35.03.57.03,1.21,0,1.87-.68,1.87-1.86,0-1.03-.58-1.69-1.77-1.69-.29,0-.51.03-.66.06v3.46Z"
        style="fill: #101820;" />
      <path
        d="M66.97,133.92c-.21.1-.62.21-1.16.21-1.23,0-2.16-.78-2.16-2.22s.93-2.3,2.29-2.3c.55,0,.89.12,1.04.19l-.14.46c-.21-.1-.52-.18-.88-.18-1.03,0-1.71.66-1.71,1.81,0,1.07.62,1.76,1.68,1.76.34,0,.7-.07.92-.18l.12.45Z"
        style="fill: #101820;" />
      <path d="M67.53,133.72c0-.24.16-.41.39-.41s.38.17.38.41-.15.41-.39.41c-.23,0-.38-.18-.38-.41Z"
        style="fill: #101820;" />
      <path
        d="M71.63,129.55c-.47.64-.82,1.48-.82,2.66s.36,1.99.82,2.64h-.45c-.41-.54-.85-1.37-.85-2.64,0-1.28.44-2.11.85-2.66h.45Z"
        style="fill: #101820;" />
      <path
        d="M72.15,133.48c.17.11.47.23.75.23.42,0,.61-.21.61-.47s-.16-.42-.58-.58c-.57-.2-.83-.51-.83-.89,0-.51.41-.92,1.09-.92.32,0,.6.09.77.2l-.14.42c-.12-.08-.35-.18-.64-.18-.34,0-.53.19-.53.43,0,.26.19.38.6.53.55.21.83.48.83.95,0,.55-.43.94-1.18.94-.34,0-.66-.08-.88-.21l.14-.44Z"
        style="fill: #101820;" />
      <path
        d="M74.62,134.06v-.35l.45-.44c1.08-1.03,1.57-1.57,1.57-2.21,0-.43-.21-.83-.84-.83-.38,0-.7.2-.9.36l-.18-.4c.29-.25.71-.43,1.2-.43.91,0,1.29.62,1.29,1.23,0,.78-.57,1.41-1.46,2.27l-.34.31h0s1.9.01,1.9.01v.47h-2.7Z"
        style="fill: #101820;" />
      <path
        d="M77.96,134.06v-.35l.45-.44c1.08-1.03,1.57-1.57,1.57-2.21,0-.43-.21-.83-.84-.83-.38,0-.7.2-.9.36l-.18-.4c.29-.25.71-.43,1.2-.43.91,0,1.29.62,1.29,1.23,0,.78-.57,1.41-1.46,2.27l-.34.31h0s1.9.01,1.9.01v.47h-2.7Z"
        style="fill: #101820;" />
      <path d="M81.13,134.85c.46-.64.82-1.49.82-2.66s-.35-2-.82-2.64h.44c.42.53.85,1.37.85,2.65s-.44,2.1-.85,2.65h-.44Z"
        style="fill: #101820;" />
    </g>
  </g>
</svg>