<?xml version="1.0" encoding="UTF-8"?>
<svg id="Layer_1" data-name="Layer 1" data-size="40mm x 25mm" xmlns="http://www.w3.org/2000/svg" viewBox="0 0 168.36 145.69">
  
    <text id="quantity" style="font-family: Arial-BoldMT, Arial; font-size: 15px; font-weight: 700; isolation: isolate;"
    y="96%" x="62.5%" text-anchor="middle"></text>
  <g>
    <path d="M.05,41.06v-.2l2.24-3.43c.47-.72.7-1.33.7-1.83,0-.66-.37-.99-1.12-.99-.26,0-.51.07-.74.21-.23.14-.4.31-.5.53l-.63-.52c.11-.32.33-.57.65-.76.32-.19.72-.28,1.17-.28.69,0,1.22.16,1.61.48s.58.77.58,1.35c0,.54-.26,1.21-.77,2.03l-1.61,2.55h2.8v.88H.05Z" style="fill: #00a3cc;"/>
    <path d="M6.09,37.57l-.33-.23v-3.46h3.56v.83h-2.63v1.74c.24-.18.55-.27.92-.27.66,0,1.17.2,1.52.6.35.4.52.96.52,1.69,0,1.79-.8,2.69-2.4,2.69-.67,0-1.22-.19-1.66-.56l.38-.82c.44.36.87.54,1.28.54.92,0,1.38-.57,1.38-1.72,0-1.07-.45-1.6-1.36-1.6-.44,0-.83.19-1.18.56Z" style="fill: #00a3cc;"/>
    <path d="M19.93,41.06v-3.31c0-.82-.36-1.24-1.07-1.24-.22,0-.43.07-.63.21-.2.14-.33.3-.4.47v3.87h-.93v-3.72c0-.26-.1-.46-.29-.61-.19-.15-.45-.22-.77-.22-.19,0-.38.07-.59.21-.21.14-.36.3-.45.47v3.86h-.93v-5.23h.61l.31.61c.36-.47.81-.7,1.34-.7.75,0,1.27.23,1.57.7.1-.2.3-.37.58-.5.28-.13.57-.2.87-.2.54,0,.96.16,1.25.48.3.32.44.77.44,1.35v3.5h-.93Z" style="fill: #00a3cc;"/>
    <path d="M28.23,41.06v-3.31c0-.82-.36-1.24-1.07-1.24-.22,0-.43.07-.63.21-.2.14-.33.3-.4.47v3.87h-.93v-3.72c0-.26-.1-.46-.29-.61-.19-.15-.45-.22-.77-.22-.19,0-.38.07-.59.21-.21.14-.36.3-.45.47v3.86h-.93v-5.23h.61l.31.61c.36-.47.81-.7,1.34-.7.75,0,1.27.23,1.57.7.1-.2.3-.37.58-.5.28-.13.57-.2.87-.2.54,0,.96.16,1.25.48.3.32.44.77.44,1.35v3.5h-.93Z" style="fill: #00a3cc;"/>
  </g>
  <g>
    <path d="M92.65,100.07v1.95h-.93v-1.95h-3.26v-.56l3.84-4.68h.34v4.48h.72v.75h-.72ZM91.72,96.78l-2.1,2.53h2.1v-2.53Z" style="fill: #00a3cc;"/>
    <path d="M93.9,98.22c0-1.03.21-1.87.62-2.51.42-.65,1-.97,1.76-.97s1.31.27,1.69.81c.38.54.56,1.48.56,2.83,0,1.16-.2,2.07-.59,2.74-.39.67-.97,1-1.73,1s-1.33-.27-1.73-.81-.59-1.57-.59-3.09ZM94.88,98.31c0,1.98.42,2.97,1.27,2.97.48,0,.84-.22,1.07-.66s.34-1.21.34-2.31c0-.76-.04-1.32-.13-1.67-.09-.36-.23-.62-.42-.81-.2-.18-.44-.27-.74-.27-.92,0-1.38.91-1.38,2.74Z" style="fill: #00a3cc;"/>
    <path d="M108.56,102.02v-3.31c0-.82-.36-1.24-1.07-1.24-.22,0-.43.07-.63.21-.2.14-.33.3-.4.47v3.87h-.93v-3.72c0-.26-.1-.46-.29-.61-.19-.15-.45-.22-.77-.22-.19,0-.38.07-.59.21-.21.14-.36.3-.45.47v3.86h-.93v-5.23h.61l.31.61c.36-.47.81-.7,1.34-.7.75,0,1.27.23,1.57.7.1-.2.3-.37.58-.5.28-.13.57-.2.87-.2.54,0,.96.16,1.25.48.3.32.44.77.44,1.35v3.5h-.93Z" style="fill: #00a3cc;"/>
    <path d="M116.86,102.02v-3.31c0-.82-.36-1.24-1.07-1.24-.22,0-.43.07-.63.21-.2.14-.33.3-.4.47v3.87h-.93v-3.72c0-.26-.1-.46-.29-.61-.19-.15-.45-.22-.77-.22-.19,0-.38.07-.59.21-.21.14-.36.3-.45.47v3.86h-.93v-5.23h.61l.31.61c.36-.47.81-.7,1.34-.7.75,0,1.27.23,1.57.7.1-.2.3-.37.58-.5.28-.13.57-.2.87-.2.54,0,.96.16,1.25.48.3.32.44.77.44,1.35v3.5h-.93Z" style="fill: #00a3cc;"/>
  </g>
  <line x1="36.67" y1="4.66" x2="36.67" y2="75.29" style="fill: none; stroke: #00a3cc; stroke-width: .81px;"/>
  <rect x="34.02" y="4.25" width="5.3" height=".82" style="fill: #00a3cc;"/>
  <rect x="34.02" y="74.88" width="5.3" height=".82" style="fill: #00a3cc;"/>
  <rect x="45.99" y="4.4" width="121.89" height="70.87" style="fill: none; stroke: #d52f89; stroke-miterlimit: 10; stroke-width: .44px;"/>
  <line x1="163.58" y1="88.45" x2="50.9" y2="88.45" style="fill: none; stroke: #00a3cc; stroke-width: .71px;"/>
  <rect x="163.22" y="86.14" width=".71" height="4.61" style="fill: #00a3cc;"/>
  <rect x="50.55" y="86.14" width=".71" height="4.61" style="fill: #00a3cc;"/>
  <path d="M121.38,31.91c0,.88-.66,1.59-1.47,1.59s-1.46-.71-1.46-1.59.66-1.58,1.46-1.58,1.47.71,1.47,1.58" style="fill: #c12029;"/>
  <path d="M133.52,35.81c.74.53,1.1,1.47.79,3.03-.16.83-.62,1.65-1.08,2.33-.43.65-.92,1.31-1.4,1.88-1.09,1.28-4.95,5.11-6.32,5.59-.54.18-.89-.57-1.06-1.12-.26-.88-.32-2.04-.42-3.21-.09-1.19-.24-2.43-.08-3.42.28-.19.5.13.76.17.08.19.15.38.29.52.16.82.08,2.64.35,3.42.1.31.41,1.12.71,1.09.84-.09,4.5-4.49,4.99-5.03.52-.56,1.29-1.35,1.29-2.39,0-.89-.58-1.61-1.51-1.61-.23,0-1.14.13-1.36.16-1.17.16-2.37.77-3.48,1.26-1.14.5-2.26,1.07-2.99,1.87-.34-.06-.48-.49-.66-.67-.03-.13.04-.26.17-.37-.13-.12-.33-.17-.4-.34.35-.65,1.01-1.01,1.58-1.37,1.68-1.06,7.58-3.41,9.85-1.8" style="fill: #021d49;"/>
  <path d="M100.82,49.09c-1.08.3-2.78.04-3.75-.65-1.26-.91-1.81-1.99-1.81-1.99-1.09.22-2.37.62-3.64.62-.49,0-.82-.05-1.19-.27-1.76-1.06-1.38-4.34-1.2-6.28.13-1.31.09-2.53.44-3.76.18.01.32-.11.45.07.26-.19.32-.2.61-.1.36.12.06,4.02.06,4.41-.02.82-.04,1.64.02,2.46.03.44.01,1.23.34,1.57.33.33.96.14,1.38.07.75-.13,1.71-.37,2.23-.59-.34-1.76-.64-2.59-.57-4.99.02-1.07.08-1.18.79-1.27.22-.03.59-.04.68.05.21.2-.19,3.11.65,5.84.32.07.4.06.58.35.25.41.4.91-.11,1.14.07.37.34.77.56,1.08.75,1.04,1.87,1.51,3.05,1.17,2.32-.66,3.05-3.28,3.3-5.53.26-2.4,0-4.87-.38-6.82.17-.18.41-.08.67-.1.06-.46.45-.38.65-.14.16.21.26.99.36,1.38.14.48.19,1.01.22,1.39.09,1.06.28,2.1.17,3.19-.3,3.23-1.78,6.95-4.56,7.71" style="fill: #021d49;"/>
  <path d="M136.93,38.66c.16.4.66.55,1,.6,2.83.39,4.54,1.74,4.71,3.22.22,1.92-1.04,4.07-2.51,4.98-.51.32-1.05.57-1.61.78-1.07.39-2.27.62-3.39.35-.75-.18-1.49-.48-2.14-.95-.29-.22-1.33-.84-1.15-1.26.15-.35.42-.01.66-.28.19-.08.29.09.45-.04.03-.22-.19-.22-.11-.48.19-.28,1.15.29,1.23.34.21.12.42.26.62.37,1.36.73,3.45.35,4.72-.49.82-.55,1.25-1.8.94-2.78-.26-.82-.86-1.39-1.64-1.7-.8-.32-1.87-.09-2.77-.29-1.44-.34-1.25-1.92-.84-3.03.52-1.42,1.5-2.62,2.65-3.47.97-.71,2.07-1.17,3.21-1.41.89-.19,1.57.69.85,1.14-.77.49-1.39.63-2.1,1.01-.9.49-1.95,1.12-2.49,2.02-.25.43-.47,1.04-.31,1.41" style="fill: #021d49;"/>
  <path d="M108.82,23.22c.02.08.06-.03,0-.04.07-.15.14.28.02.19.34,1.21.03,15.32.14,16.6,2.71-1.17,10.2-5.01,10.72-5.25.36-.16.74-.39.95.12-.1.24-.56.39-.88.5-.18.17-.44.25-.66.37.05.2.12.29,0,.5.17.04.41-.08.5-.12.14.09.38.26.32.49-.05.19-6.77,3.37-8.32,4.32.48.43,1.07.73,1.62,1.05,1.67.97,3.42,1.89,5.04,2.93.99.48,1.92,1.02,2.98,1.43.04-.7-.93-5.7-1.19-7.53.16-.22.51-.35.81-.43.42-.12.71.28.95.57.28,2.91.91,5.73,1.33,8.61-.28.54-.58.76-1.12.84-.28-.3-.38-.77-.52-1.2-.1,0-.19-.01-.29-.02.09.22,0,.59-.23.75-.39,0-.55-.2-.9-.23-.17.07.02.33-.11.45-1.13-.53-9.18-5.02-10.83-6.04-.1.43.62,6.94.55,7.59-.42.15-.47.77-.91.89-.18-.28-.18-.73-.24-1.13-.08-.11-.23.05-.32-.06-.23-2.16-.42-4.36-.58-6.6-.35,0-1.27.79-1.64.75-.46-.04-.46-.59-.03-.69-.06-.33-.38-.43-.48-.73.62-.49,1.32-.88,2.03-1.26.02-2.62-.48-9.85-.43-11.76.03-1.33-.06-2.62-.1-3.84,0-.39-.04-.82.15-1.18.12-.08.24.07.38.07.09-.21.09-.49.29-.63.22,0,.16.33.38.23.03-.23.04-.72.31-.86.22.05.31.12.29.33" style="fill: #021d49;"/>
  <path d="M87.28,31.82c.24.17.43.37.56.61.53.95.74,2.54.46,3.61-.25.99-.94,1.99-1.53,2.83-.32.44-.55.86-.9,1.23-.37.39-.73.73-.99,1.11.91.08,1.68-.04,2.45.38,1.45.81,1.32,2.52.62,3.85-1.37,2.62-3.73,3.98-6.15,5.18-1.01.5-2.5.53-3.36-.32-.64-.62-.77-1.81-.83-2.68-.11-1.55-.24-3.12-.24-4.67,0-.66.07-1.37.07-1.95,0-.6,0-1.14.04-1.65.05-.71.15-1.16.63-.95.12.05.17.24.27.25-.12,2.61-.11,9.97,2,10.24.79.1,2.38-.87,2.98-1.29.85-.6,5.17-3.94,3.3-4.72-2.11-.89-5.83,1.42-6.12,1.54-.34.14-.84.21-.98-.16.13-.47.54-.78.85-1.12.29-.32.63-.65.95-.96.63-.61,1.26-1.28,1.9-1.92,1.31-1.31,2.58-2.67,3.32-4.45,1.08-2.6-1.66-2.94-3.34-2.67-.95.15-1.87.46-2.78.75-1.55.48-3.04,1.12-4.53,1.8-.74.34-1.39.79-1.96,1.26.35-.06.52.24.5.46-.11,1.11-3.49,1.17-2.45-.64.36-.61,1.03-1.05,1.58-1.42,1.1-.75,2.28-1.35,3.47-1.91,1.95-.92,3.85-1.79,6.16-2.15.6-.1,1.26-.16,1.89-.16.63,0,1.54.22,2.18.67" style="fill: #021d49;"/>
  <path d="M137.21,51.77l-.77-.02c-4.72-.08-9.44.1-14.68.25-3.68.08-7.86.39-11.51.68,8.67-.61,17.82-1.01,26.18-.78-.84.12-1.85.23-3.02.25-2.83,0-5.61.06-8.38.15v-.19c-7.86.46-15.2.57-23.01,1.64.28,0,.11.05.06.09h-.05s.05,0,.05,0c-.05.03-.02.05.47,0-.49.05-.52.03-.47,0,7.68-.86,14.91-1.3,22.62-1.53-5.99.2-11.87.57-17.77,1.12-5.89.55-11.81,1.26-17.88,2.25l-2.07.35c-2.08.22-4.15.57-6.18,1.03.23-.18-.18-.27-.15-.41.04-.15.53-.37,2.6-.75l-.03-.19c-2.08.3-3.54.42-3.98.31-.44-.1.17-.52,2.23-1.06,4.64-1.21,10.94-2,16.68-2.78,4.19-.55,8.38-1,12.59-1.24,5.79-.31,12.1-.69,17.89-.67,2.1-.02,5.78-.24,6.83-.11.76.06.79.16.67.27-3.45.03-6.9.11-10.3.22-4.18.1-8.36.27-12.53.47,4.09-.16,8.28-.34,12.53-.47,3.4-.08,6.8-.13,10.2-.12-.13.1-.25.2-.04.29l1.58-.02c2.1.22,1.58.56.53.81l-.9.17Z" style="fill: #c12029;"/>
  <line x1="50.55" y1="0" x2="50.55" y2="81.86" style="fill: none; stroke: #ee701e; stroke-dasharray: 2.04 2.04; stroke-width: .25px;"/>
  <line x1="163.93" y1="0" x2="163.93" y2="81.86" style="fill: none; stroke: #ee701e; stroke-dasharray: 2.04 2.04; stroke-width: .25px;"/>
  <line x1="45.87" y1="80.37" x2="45.87" style="fill: none; stroke: #97bf0d; stroke-dasharray: 2.62 2.62; stroke-width: .81px;"/>
  <line x1="167.96" y1="84.24" x2="167.96" y2="3.87" style="fill: none; stroke: #97bf0d; stroke-dasharray: 2.62 2.62; stroke-width: .81px;"/>
</svg>