<?xml version="1.0" encoding="UTF-8"?>
<svg id="Layer_1" data-name="Layer 1" data-size="30mm x 30mm" xmlns="http://www.w3.org/2000/svg" viewBox="0 0 113.07 140.79">
  
    <text id="quantity" style="font-family: Arial-BoldMT, Arial; font-size: 15px; font-weight: 700; isolation: isolate;"
    y="96%" x="60%" text-anchor="middle"></text>
  <g>
    <line x1="15.64" y1="5.93" x2="7.06" y2="5.93" style="fill: none; stroke: #00aeef; stroke-width: .46px;"/>
    <line x1="15.64" y1="90.26" x2="7.06" y2="90.26" style="fill: none; stroke: #00aeef; stroke-width: .46px;"/>
    <line x1="11.54" y1="6.19" x2="11.54" y2="90.2" style="fill: none; stroke: #00aeef; stroke-dasharray: 2.19 2.19; stroke-width: .5px;"/>
    <line x1="27.97" y1="110.28" x2="27.97" y2="101.7" style="fill: none; stroke: #00aeef; stroke-width: .46px;"/>
    <line x1="112.74" y1="110.28" x2="112.74" y2="101.7" style="fill: none; stroke: #00aeef; stroke-width: .46px;"/>
    <g>
      <path d="M55.71,114.02c.25.16.83.41,1.44.41,1.13,0,1.48-.72,1.47-1.26,0-.91-.83-1.3-1.68-1.3h-.49v-.66h.49c.64,0,1.45-.33,1.45-1.1,0-.52-.33-.98-1.14-.98-.52,0-1.02.23-1.3.43l-.23-.64c.34-.25,1-.5,1.7-.5,1.28,0,1.86.76,1.86,1.55,0,.67-.4,1.24-1.2,1.53v.02c.8.16,1.45.76,1.45,1.67,0,1.04-.81,1.95-2.37,1.95-.73,0-1.37-.23-1.69-.44l.24-.68Z" style="fill: #00aeef;"/>
      <path d="M64.94,111.72c0,2.21-.82,3.43-2.26,3.43-1.27,0-2.13-1.19-2.15-3.34,0-2.18.94-3.38,2.26-3.38s2.15,1.22,2.15,3.29ZM61.41,111.82c0,1.69.52,2.65,1.32,2.65.9,0,1.33-1.05,1.33-2.71s-.41-2.65-1.32-2.65c-.77,0-1.33.94-1.33,2.71Z" style="fill: #00aeef;"/>
      <path d="M68.15,111.51c0-.5,0-.91-.04-1.31h.77l.04.78h.03c.27-.46.72-.89,1.52-.89.66,0,1.16.4,1.37.97h.02c.15-.27.34-.48.54-.63.29-.22.61-.34,1.07-.34.64,0,1.59.42,1.59,2.1v2.85h-.86v-2.74c0-.93-.34-1.49-1.05-1.49-.5,0-.89.37-1.04.8-.04.12-.07.28-.07.44v2.99h-.86v-2.9c0-.77-.34-1.33-1.01-1.33-.55,0-.95.44-1.09.88-.05.13-.07.28-.07.43v2.92h-.86v-3.53Z" style="fill: #00aeef;"/>
      <path d="M76.49,111.51c0-.5,0-.91-.04-1.31h.77l.04.78h.03c.27-.46.72-.89,1.52-.89.66,0,1.16.4,1.37.97h.02c.15-.27.34-.48.54-.63.29-.22.61-.34,1.07-.34.64,0,1.59.42,1.59,2.1v2.85h-.86v-2.74c0-.93-.34-1.49-1.05-1.49-.5,0-.89.37-1.04.8-.04.12-.07.28-.07.44v2.99h-.86v-2.9c0-.77-.34-1.33-1.01-1.33-.55,0-.95.44-1.09.88-.05.13-.07.28-.07.43v2.92h-.86v-3.53Z" style="fill: #00aeef;"/>
    </g>
    <g>
      <path d="M.82,39.55v.02l.61,1.13-.67.17-.76-1.42v-.75h6.5v.85H.82Z" style="fill: #00aeef;"/>
      <path d="M.74,32.45v2.48l1.67.25c-.02-.15-.04-.29-.04-.53,0-.5.11-1,.35-1.4.29-.51.85-.93,1.67-.93,1.27,0,2.22,1.01,2.22,2.42,0,.71-.2,1.31-.4,1.62l-.67-.22c.16-.27.36-.8.36-1.39,0-.83-.54-1.54-1.41-1.54-.84,0-1.44.57-1.44,1.87,0,.37.04.66.07.9l-3.12-.42v-3.11h.74Z" style="fill: #00aeef;"/>
      <path d="M2.97,28.8c-.5,0-.91,0-1.31.04v-.77l.78-.04v-.03c-.46-.27-.89-.72-.89-1.52,0-.66.4-1.16.97-1.37v-.02c-.27-.15-.48-.34-.63-.54-.22-.29-.34-.61-.34-1.07,0-.64.42-1.59,2.1-1.59h2.85v.86h-2.74c-.93,0-1.49.34-1.49,1.05,0,.5.37.89.8,1.04.12.04.28.07.44.07h2.99v.86h-2.9c-.77,0-1.33.34-1.33,1.01,0,.55.44.95.88,1.09.13.05.28.07.43.07h2.92v.86h-3.53Z" style="fill: #00aeef;"/>
      <path d="M2.97,20.46c-.5,0-.91,0-1.31.04v-.77l.78-.04v-.03c-.46-.27-.89-.72-.89-1.52,0-.66.4-1.16.97-1.37v-.02c-.27-.15-.48-.34-.63-.54-.22-.29-.34-.61-.34-1.07,0-.64.42-1.59,2.1-1.59h2.85v.86h-2.74c-.93,0-1.49.34-1.49,1.05,0,.5.37.89.8,1.04.12.04.28.07.44.07h2.99v.86h-2.9c-.77,0-1.33.34-1.33,1.01,0,.55.44.95.88,1.09.13.05.28.07.43.07h2.92v.86h-3.53Z" style="fill: #00aeef;"/>
    </g>
    <g>
      <path d="M.82,80.05v.02l.61,1.13-.67.17-.76-1.42v-.75h6.5v.85H.82Z" style="fill: #00aeef;"/>
      <path d="M.74,72.95v2.48l1.67.25c-.02-.15-.04-.29-.04-.53,0-.5.11-1,.35-1.4.29-.51.85-.93,1.67-.93,1.27,0,2.22,1.01,2.22,2.42,0,.71-.2,1.31-.4,1.62l-.67-.22c.16-.27.36-.8.36-1.39,0-.83-.54-1.54-1.41-1.54-.84,0-1.44.57-1.44,1.87,0,.37.04.66.07.9l-3.12-.42v-3.11h.74Z" style="fill: #00aeef;"/>
      <path d="M2.97,69.3c-.5,0-.91,0-1.31.04v-.77l.78-.04v-.03c-.46-.27-.89-.72-.89-1.52,0-.66.4-1.16.97-1.37v-.02c-.27-.15-.48-.34-.63-.54-.22-.29-.34-.61-.34-1.07,0-.64.42-1.59,2.1-1.59h2.85v.86h-2.74c-.93,0-1.49.34-1.49,1.05,0,.5.37.89.8,1.04.12.04.28.07.44.07h2.99v.86h-2.9c-.77,0-1.33.34-1.33,1.01,0,.55.44.95.88,1.09.13.05.28.07.43.07h2.92v.86h-3.53Z" style="fill: #00aeef;"/>
      <path d="M2.97,60.96c-.5,0-.91,0-1.31.04v-.77l.78-.04v-.03c-.46-.27-.89-.72-.89-1.52,0-.66.4-1.16.97-1.37v-.02c-.27-.15-.48-.34-.63-.54-.22-.29-.34-.61-.34-1.07,0-.64.42-1.59,2.1-1.59h2.85v.86h-2.74c-.93,0-1.49.34-1.49,1.05,0,.5.37.89.8,1.04.12.04.28.07.44.07h2.99v.86h-2.9c-.77,0-1.33.34-1.33,1.01,0,.55.44.95.88,1.09.13.05.28.07.43.07h2.92v.86h-3.53Z" style="fill: #00aeef;"/>
    </g>
    <line x1="113.07" y1="105.3" x2="28.03" y2="105.3" style="fill: none; stroke: #00aeef; stroke-dasharray: 2.19 2.19; stroke-width: .5px;"/>
    <rect x="27.64" y=".12" width="84.79" height="96.13" style="fill: #fff;"/>
    <rect x="27.64" y=".12" width="84.79" height="96.13" style="fill: none; stroke: #d52f89; stroke-miterlimit: 10; stroke-width: .25px;"/>
    <line x1="27.64" y1="5.92" x2="112.43" y2="5.92" style="fill: none; stroke: #97bf0d; stroke-dasharray: 1.76 1.76; stroke-width: .55px;"/>
    <line x1="27.64" y1="90.46" x2="112.43" y2="90.46" style="fill: none; stroke: #97bf0d; stroke-dasharray: 1.76 1.76; stroke-width: .55px;"/>
    <line x1="112.43" y1="48.19" x2="27.64" y2="48.19" style="fill: none; stroke: #ee701e; stroke-dasharray: 2.17 2.17; stroke-width: .25px;"/>
    <line x1="14.18" y1="48.19" x2="8.72" y2="48.19" style="fill: none; stroke: #00aeef; stroke-width: .46px;"/>
    <g>
      <path d="M34.52,59.56c.28-.06.71-.1,1.16-.1.63,0,1.04.11,1.35.36.26.19.41.48.41.87,0,.47-.31.89-.83,1.08h0c.47.13,1.01.52,1.01,1.25,0,.42-.17.74-.42.98-.34.31-.9.46-1.7.46-.44,0-.77-.03-.98-.06v-4.84ZM35.15,61.58h.58c.67,0,1.06-.35,1.06-.82,0-.58-.44-.8-1.08-.8-.29,0-.46.02-.56.04v1.58ZM35.15,63.93c.12.02.31.03.53.03.66,0,1.26-.24,1.26-.96,0-.67-.58-.95-1.27-.95h-.52v1.87Z" style="fill: #1d1d1b;"/>
      <path d="M39.26,62.87l-.51,1.55h-.66l1.67-4.92h.77l1.68,4.92h-.68l-.53-1.55h-1.74ZM40.88,62.37l-.48-1.42c-.11-.32-.18-.61-.26-.9h-.01c-.07.29-.15.59-.25.89l-.48,1.42h1.48Z" style="fill: #1d1d1b;"/>
      <path d="M43.3,60.04h-1.5v-.54h3.64v.54h-1.5v4.38h-.64v-4.38Z" style="fill: #1d1d1b;"/>
      <path d="M50.14,62.25c-.04-.69-.08-1.51-.07-2.12h-.02c-.17.58-.37,1.19-.62,1.87l-.87,2.38h-.48l-.79-2.34c-.23-.69-.43-1.33-.57-1.91h-.01c-.01.61-.05,1.44-.09,2.17l-.13,2.11h-.61l.34-4.92h.81l.84,2.38c.2.61.37,1.14.5,1.66h.02c.12-.5.3-1.04.52-1.66l.88-2.38h.81l.31,4.92h-.62l-.12-2.16Z" style="fill: #1d1d1b;"/>
      <path d="M52.57,62.87l-.51,1.55h-.66l1.67-4.92h.77l1.68,4.92h-.68l-.52-1.55h-1.74ZM54.19,62.37l-.48-1.42c-.11-.32-.18-.61-.26-.9h-.01c-.07.29-.15.59-.25.89l-.48,1.42h1.48Z" style="fill: #1d1d1b;"/>
      <path d="M56.24,64.41v-4.92h.69l1.58,2.49c.36.58.65,1.09.88,1.6h.01c-.06-.66-.07-1.26-.07-2.03v-2.06h.6v4.92h-.64l-1.56-2.49c-.34-.55-.67-1.11-.92-1.64h-.02c.04.63.05,1.22.05,2.04v2.1h-.6Z" style="fill: #1d1d1b;"/>
      <path d="M64.51,64.41l-.05-.45h-.02c-.2.28-.58.53-1.08.53-.71,0-1.08-.5-1.08-1.01,0-.85.76-1.32,2.12-1.31v-.07c0-.29-.08-.82-.8-.82-.33,0-.67.1-.92.26l-.15-.42c.29-.19.71-.31,1.16-.31,1.08,0,1.34.74,1.34,1.44v1.32c0,.31.01.61.06.85h-.58ZM64.42,62.61c-.7-.01-1.5.11-1.5.79,0,.42.28.61.61.61.46,0,.75-.29.85-.59.02-.07.04-.14.04-.2v-.61Z" style="fill: #1d1d1b;"/>
      <path d="M66.07,61.84c0-.37,0-.66-.03-.96h.57l.04.58h.01c.18-.34.58-.66,1.17-.66.49,0,1.25.29,1.25,1.5v2.11h-.64v-2.04c0-.57-.21-1.04-.82-1.04-.42,0-.75.3-.86.66-.03.08-.04.19-.04.3v2.12h-.64v-2.57Z" style="fill: #1d1d1b;"/>
      <path d="M73.17,59.23v4.27c0,.31,0,.67.03.91h-.58l-.03-.61h-.01c-.2.39-.63.69-1.2.69-.85,0-1.51-.72-1.51-1.79,0-1.17.72-1.9,1.58-1.9.54,0,.9.25,1.06.54h.01v-2.11h.64ZM72.52,62.32c0-.08,0-.19-.03-.27-.09-.41-.44-.74-.93-.74-.66,0-1.06.58-1.06,1.36,0,.71.35,1.31,1.04,1.31.43,0,.82-.28.94-.77.02-.09.03-.18.03-.28v-.61Z" style="fill: #1d1d1b;"/>
      <path d="M77.73,64.41l-.05-.45h-.02c-.2.28-.58.53-1.08.53-.71,0-1.08-.5-1.08-1.01,0-.85.76-1.32,2.12-1.31v-.07c0-.29-.08-.82-.8-.82-.33,0-.67.1-.92.26l-.15-.42c.29-.19.71-.31,1.16-.31,1.08,0,1.34.74,1.34,1.44v1.32c0,.31.01.61.06.85h-.58ZM77.63,62.61c-.7-.01-1.5.11-1.5.79,0,.42.28.61.61.61.46,0,.75-.29.85-.59.02-.07.04-.14.04-.2v-.61Z" style="fill: #1d1d1b;"/>
      <path d="M79.29,59.23h.64v5.18h-.64v-5.18Z" style="fill: #1d1d1b;"/>
      <path d="M81.01,59.23h.64v5.18h-.64v-5.18Z" style="fill: #1d1d1b;"/>
      <path d="M84.27,61.98c0-.42,0-.77-.03-1.1h.56l.02.69h.03c.16-.47.55-.77.98-.77.07,0,.12,0,.18.02v.61c-.07-.01-.13-.02-.22-.02-.45,0-.77.34-.86.82-.01.09-.03.19-.03.3v1.88h-.63v-2.43Z" style="fill: #1d1d1b;"/>
      <path d="M86.94,62.76c.01.87.57,1.23,1.21,1.23.46,0,.74-.08.98-.18l.11.46c-.23.1-.61.22-1.17.22-1.09,0-1.74-.71-1.74-1.78s.63-1.9,1.66-1.9c1.15,0,1.46,1.01,1.46,1.66,0,.13-.01.23-.02.3h-2.48ZM88.82,62.31c0-.41-.17-1.04-.89-1.04-.65,0-.93.6-.98,1.04h1.87Z" style="fill: #1d1d1b;"/>
      <path d="M90.23,59.23h.64v5.18h-.64v-5.18Z" style="fill: #1d1d1b;"/>
      <path d="M93.91,64.41l-.05-.45h-.02c-.2.28-.58.53-1.08.53-.71,0-1.08-.5-1.08-1.01,0-.85.76-1.32,2.12-1.31v-.07c0-.29-.08-.82-.8-.82-.33,0-.67.1-.92.26l-.15-.42c.29-.19.71-.31,1.16-.31,1.08,0,1.34.74,1.34,1.44v1.32c0,.31.01.61.06.85h-.58ZM93.81,62.61c-.7-.01-1.5.11-1.5.79,0,.42.28.61.61.61.46,0,.75-.29.85-.59.02-.07.04-.14.04-.2v-.61Z" style="fill: #1d1d1b;"/>
      <path d="M96.21,59.87v1.01h.92v.49h-.92v1.9c0,.44.12.69.48.69.17,0,.29-.02.37-.04l.03.48c-.12.05-.32.09-.57.09-.3,0-.54-.09-.69-.27-.18-.19-.25-.5-.25-.92v-1.92h-.55v-.49h.55v-.85l.63-.17Z" style="fill: #1d1d1b;"/>
      <path d="M98.16,62.76c.01.87.57,1.23,1.21,1.23.46,0,.74-.08.98-.18l.11.46c-.23.1-.61.22-1.17.22-1.09,0-1.74-.71-1.74-1.78s.63-1.9,1.66-1.9c1.15,0,1.46,1.01,1.46,1.66,0,.13-.01.23-.02.3h-2.48ZM100.04,62.31c0-.41-.17-1.04-.89-1.04-.65,0-.93.6-.98,1.04h1.87Z" style="fill: #1d1d1b;"/>
      <path d="M104.5,59.23v4.27c0,.31,0,.67.03.91h-.58l-.03-.61h-.01c-.2.39-.63.69-1.2.69-.85,0-1.51-.72-1.51-1.79,0-1.17.72-1.9,1.58-1.9.54,0,.9.25,1.06.54h.01v-2.11h.64ZM103.86,62.32c0-.08,0-.19-.03-.27-.09-.41-.45-.74-.93-.74-.66,0-1.06.58-1.06,1.36,0,.71.35,1.31,1.04,1.31.43,0,.82-.28.94-.77.02-.09.03-.18.03-.28v-.61Z" style="fill: #1d1d1b;"/>
      <path d="M35.47,73.03c-.17.09-.54.2-1.01.2-1.06,0-1.76-.72-1.76-1.8s.74-1.88,1.9-1.88c.38,0,.71.1.89.18l-.15.5c-.15-.09-.39-.17-.74-.17-.81,0-1.25.6-1.25,1.33,0,.82.53,1.32,1.23,1.32.36,0,.6-.09.79-.17l.11.48Z" style="fill: #1d1d1b;"/>
      <path d="M36.22,67.98h.64v2.2h.01c.1-.18.26-.34.46-.45.19-.11.42-.18.66-.18.47,0,1.23.29,1.23,1.51v2.1h-.64v-2.03c0-.57-.21-1.05-.82-1.05-.42,0-.74.29-.86.64-.04.09-.04.18-.04.31v2.13h-.64v-5.18Z" style="fill: #1d1d1b;"/>
      <path d="M42.22,73.16l-.05-.45h-.02c-.2.28-.58.53-1.08.53-.71,0-1.08-.5-1.08-1.01,0-.85.76-1.32,2.12-1.31v-.07c0-.29-.08-.82-.8-.82-.33,0-.67.1-.92.26l-.15-.42c.29-.19.71-.31,1.16-.31,1.08,0,1.34.74,1.34,1.44v1.32c0,.31.01.61.06.85h-.58ZM42.12,71.36c-.7-.01-1.5.11-1.5.79,0,.42.28.61.61.61.46,0,.75-.29.85-.59.02-.07.04-.14.04-.2v-.61Z" style="fill: #1d1d1b;"/>
      <path d="M43.78,70.73c0-.42,0-.77-.03-1.1h.56l.02.69h.03c.16-.47.55-.77.98-.77.07,0,.12,0,.18.02v.61c-.07-.01-.13-.02-.22-.02-.45,0-.77.34-.86.82-.01.09-.03.19-.03.3v1.88h-.63v-2.43Z" style="fill: #1d1d1b;"/>
      <path d="M48.08,73.16l-.05-.45h-.02c-.2.28-.58.53-1.08.53-.71,0-1.08-.5-1.08-1.01,0-.85.76-1.32,2.12-1.31v-.07c0-.29-.08-.82-.8-.82-.33,0-.67.1-.92.26l-.15-.42c.29-.19.71-.31,1.16-.31,1.08,0,1.34.74,1.34,1.44v1.32c0,.31.01.61.06.85h-.58ZM47.98,71.36c-.7-.01-1.5.11-1.5.79,0,.42.28.61.61.61.46,0,.75-.29.85-.59.02-.07.04-.14.04-.2v-.61Z" style="fill: #1d1d1b;"/>
      <path d="M52.15,73.03c-.17.09-.54.2-1.01.2-1.06,0-1.76-.72-1.76-1.8s.74-1.88,1.9-1.88c.38,0,.71.1.89.18l-.15.5c-.15-.09-.39-.17-.74-.17-.81,0-1.25.6-1.25,1.33,0,.82.53,1.32,1.23,1.32.36,0,.6-.09.79-.17l.11.48Z" style="fill: #1d1d1b;"/>
      <path d="M53.77,68.62v1.01h.92v.49h-.92v1.9c0,.44.12.69.48.69.17,0,.29-.02.37-.04l.03.48c-.12.05-.32.09-.57.09-.3,0-.54-.09-.69-.27-.18-.19-.25-.5-.25-.92v-1.92h-.55v-.49h.55v-.85l.63-.17Z" style="fill: #1d1d1b;"/>
      <path d="M55.72,71.51c.01.87.57,1.23,1.21,1.23.46,0,.74-.08.98-.18l.11.46c-.23.1-.61.22-1.17.22-1.09,0-1.74-.71-1.74-1.78s.63-1.9,1.66-1.9c1.15,0,1.46,1.01,1.46,1.66,0,.13-.01.23-.02.3h-2.48ZM57.6,71.05c0-.41-.17-1.04-.89-1.04-.65,0-.93.6-.98,1.04h1.87Z" style="fill: #1d1d1b;"/>
      <path d="M59.02,70.73c0-.42,0-.77-.03-1.1h.56l.02.69h.03c.16-.47.55-.77.98-.77.07,0,.12,0,.18.02v.61c-.07-.01-.13-.02-.22-.02-.45,0-.77.34-.86.82-.01.09-.03.19-.03.3v1.88h-.63v-2.43Z" style="fill: #1d1d1b;"/>
      <path d="M61.31,72.5c.19.12.53.25.85.25.47,0,.69-.23.69-.53s-.18-.47-.66-.65c-.63-.23-.93-.58-.93-1,0-.57.46-1.04,1.22-1.04.36,0,.67.1.87.22l-.16.47c-.14-.09-.39-.2-.72-.2-.38,0-.59.22-.59.48,0,.29.21.42.67.6.61.23.93.54.93,1.07,0,.62-.48,1.06-1.32,1.06-.39,0-.74-.09-.99-.24l.16-.49Z" style="fill: #1d1d1b;"/>
      <path d="M67.79,73.16l-.05-.45h-.02c-.2.28-.58.53-1.08.53-.71,0-1.08-.5-1.08-1.01,0-.85.76-1.32,2.12-1.31v-.07c0-.29-.08-.82-.8-.82-.33,0-.67.1-.92.26l-.15-.42c.29-.19.71-.31,1.16-.31,1.08,0,1.34.74,1.34,1.44v1.32c0,.31.01.61.06.85h-.58ZM67.69,71.36c-.7-.01-1.5.11-1.5.79,0,.42.28.61.61.61.46,0,.75-.29.85-.59.02-.07.04-.14.04-.2v-.61Z" style="fill: #1d1d1b;"/>
      <path d="M69.34,70.59c0-.37,0-.66-.03-.96h.57l.04.58h.01c.18-.34.58-.66,1.17-.66.49,0,1.25.29,1.25,1.5v2.11h-.64v-2.04c0-.57-.21-1.04-.82-1.04-.42,0-.75.3-.86.66-.03.08-.04.19-.04.3v2.12h-.64v-2.57Z" style="fill: #1d1d1b;"/>
      <path d="M76.44,67.98v4.27c0,.31,0,.67.03.91h-.58l-.03-.61h-.01c-.2.39-.63.69-1.2.69-.85,0-1.51-.72-1.51-1.79,0-1.17.72-1.9,1.58-1.9.54,0,.9.25,1.06.54h.01v-2.11h.64ZM75.8,71.07c0-.08,0-.19-.03-.27-.09-.41-.45-.74-.93-.74-.66,0-1.06.58-1.06,1.36,0,.71.35,1.31,1.04,1.31.43,0,.82-.28.94-.77.02-.09.03-.18.03-.28v-.61Z" style="fill: #1d1d1b;"/>
      <path d="M79.4,71.51c.01.87.57,1.23,1.21,1.23.46,0,.74-.08.98-.18l.11.46c-.23.1-.61.22-1.17.22-1.09,0-1.74-.71-1.74-1.78s.63-1.9,1.66-1.9c1.15,0,1.46,1.01,1.46,1.66,0,.13-.01.23-.02.3h-2.48ZM81.28,71.05c0-.41-.17-1.04-.89-1.04-.65,0-.93.6-.98,1.04h1.87Z" style="fill: #1d1d1b;"/>
      <path d="M82.7,67.98h.64v5.18h-.64v-5.18Z" style="fill: #1d1d1b;"/>
      <path d="M84.77,71.51c.01.87.57,1.23,1.21,1.23.46,0,.74-.08.98-.18l.11.46c-.23.1-.61.22-1.17.22-1.09,0-1.74-.71-1.74-1.78s.63-1.9,1.66-1.9c1.15,0,1.46,1.01,1.46,1.66,0,.13-.01.23-.02.3h-2.48ZM86.66,71.05c0-.41-.17-1.04-.89-1.04-.65,0-.93.6-.98,1.04h1.87Z" style="fill: #1d1d1b;"/>
      <path d="M88.07,70.59c0-.37,0-.66-.03-.96h.56l.03.57h.02c.2-.34.52-.65,1.11-.65.48,0,.85.29,1,.71h.01c.11-.2.25-.35.39-.46.21-.16.45-.25.78-.25.47,0,1.16.31,1.16,1.53v2.08h-.63v-2c0-.68-.25-1.09-.77-1.09-.37,0-.65.27-.76.58-.03.09-.05.2-.05.32v2.18h-.63v-2.12c0-.56-.25-.97-.74-.97-.4,0-.69.32-.79.64-.04.09-.05.2-.05.31v2.13h-.63v-2.57Z" style="fill: #1d1d1b;"/>
      <path d="M94.5,71.51c.01.87.57,1.23,1.21,1.23.46,0,.74-.08.98-.18l.11.46c-.23.1-.61.22-1.17.22-1.09,0-1.74-.71-1.74-1.78s.63-1.9,1.66-1.9c1.15,0,1.46,1.01,1.46,1.66,0,.13-.01.23-.02.3h-2.48ZM96.39,71.05c0-.41-.17-1.04-.89-1.04-.65,0-.93.6-.98,1.04h1.87Z" style="fill: #1d1d1b;"/>
      <path d="M97.8,70.59c0-.37,0-.66-.03-.96h.57l.04.58h.01c.17-.34.58-.66,1.17-.66.49,0,1.25.29,1.25,1.5v2.11h-.64v-2.04c0-.57-.21-1.04-.82-1.04-.42,0-.75.3-.86.66-.03.08-.04.19-.04.3v2.12h-.64v-2.57Z" style="fill: #1d1d1b;"/>
      <path d="M102.59,68.62v1.01h.92v.49h-.92v1.9c0,.44.12.69.48.69.17,0,.29-.02.37-.04l.03.48c-.12.05-.32.09-.57.09-.3,0-.54-.09-.69-.27-.18-.19-.25-.5-.25-.92v-1.92h-.55v-.49h.55v-.85l.63-.17Z" style="fill: #1d1d1b;"/>
      <path d="M104.14,72.5c.19.12.52.25.85.25.47,0,.69-.23.69-.53s-.18-.47-.66-.65c-.63-.23-.93-.58-.93-1,0-.57.46-1.04,1.22-1.04.36,0,.67.1.87.22l-.16.47c-.14-.09-.39-.2-.72-.2-.38,0-.59.22-.59.48,0,.29.21.42.67.6.61.23.93.54.93,1.07,0,.62-.48,1.06-1.32,1.06-.39,0-.74-.09-.99-.24l.16-.49Z" style="fill: #1d1d1b;"/>
      <path d="M51.61,79.43c0,1.25-.96,2.26-2.2,2.26s-2.22-1.01-2.22-2.26.98-2.25,2.22-2.25,2.2,1.01,2.2,2.25ZM47.56,79.45c0,1.09.8,1.94,1.85,1.94s1.83-.85,1.83-1.96-.8-1.95-1.83-1.95-1.85.86-1.85,1.97ZM50.31,78.6c-.09-.05-.36-.17-.71-.17-.69,0-1.02.44-1.02,1.02s.36,1.03,1.03,1.03c.29,0,.57-.08.74-.19l.09.28c-.26.17-.59.23-.9.23-.85,0-1.33-.58-1.33-1.32,0-.83.66-1.36,1.39-1.36.38,0,.71.11.8.2l-.09.28Z" style="fill: #1d1d1b;"/>
      <path d="M57.05,81.91c-.14-.14-.27-.28-.46-.48-.42.39-.9.56-1.44.56-.96,0-1.51-.64-1.51-1.38,0-.67.4-1.13.96-1.44v-.02c-.26-.32-.41-.68-.41-1.03,0-.6.43-1.21,1.25-1.21.61,0,1.09.41,1.09,1.04,0,.52-.3.93-1.08,1.31v.02c.42.48.88,1.02,1.2,1.37.23-.34.38-.82.47-1.44h.58c-.13.77-.34,1.39-.71,1.82.26.28.52.55.81.87h-.76ZM56.27,81.06c-.29-.32-.84-.92-1.39-1.55-.26.17-.63.48-.63,1,0,.56.42.99,1.01.99.42,0,.78-.19,1.01-.44ZM54.78,78.06c0,.35.16.62.37.88.5-.29.82-.55.82-.96,0-.3-.17-.63-.57-.63s-.62.34-.62.71Z" style="fill: #1d1d1b;"/>
      <path d="M61.25,76.99v.33h-.63v1.66h-.39v-1.66h-.63v-.33h1.66ZM63.4,78.97l-.07-1.17c0-.15,0-.34-.01-.55h-.02c-.05.17-.11.41-.17.59l-.36,1.1h-.41l-.36-1.13c-.04-.15-.09-.39-.14-.56h-.02c0,.18,0,.37-.01.55l-.07,1.17h-.38l.15-1.98h.59l.34.97c.04.15.08.3.13.5h0c.05-.18.1-.35.14-.5l.34-.98h.57l.15,1.98h-.39Z" style="fill: #1d1d1b;"/>
      <path d="M65.98,77.06c.39-.06.85-.1,1.35-.1.91,0,1.56.21,1.99.61.44.4.69.97.69,1.77s-.25,1.46-.71,1.91c-.46.46-1.22.71-2.17.71-.45,0-.83-.02-1.15-.06v-4.84ZM66.62,81.4c.16.03.39.04.64.04,1.36,0,2.09-.76,2.09-2.09,0-1.16-.65-1.9-1.99-1.9-.33,0-.58.03-.74.07v3.88Z" style="fill: #1d1d1b;"/>
      <path d="M74.27,81.75c-.23.12-.7.23-1.3.23-1.39,0-2.43-.88-2.43-2.49s1.04-2.58,2.57-2.58c.61,0,1,.13,1.17.22l-.15.52c-.24-.12-.58-.2-.99-.2-1.15,0-1.92.74-1.92,2.03,0,1.2.69,1.98,1.89,1.98.39,0,.78-.08,1.04-.2l.13.5Z" style="fill: #1d1d1b;"/>
      <path d="M74.89,81.53c0-.27.18-.46.44-.46s.43.19.43.46-.17.46-.44.46c-.25,0-.43-.2-.43-.46Z" style="fill: #1d1d1b;"/>
      <path d="M79.49,76.85c-.53.71-.92,1.66-.92,2.98s.4,2.23.92,2.96h-.5c-.46-.61-.96-1.54-.96-2.96,0-1.44.5-2.37.96-2.98h.5Z" style="fill: #1d1d1b;"/>
      <path d="M80.08,81.25c.19.12.52.25.85.25.47,0,.69-.23.69-.53s-.18-.47-.66-.65c-.63-.23-.93-.58-.93-1,0-.57.46-1.04,1.22-1.04.36,0,.67.1.87.22l-.16.47c-.14-.09-.39-.2-.72-.2-.38,0-.59.22-.59.48,0,.29.21.42.67.6.61.23.93.54.93,1.07,0,.62-.48,1.06-1.32,1.06-.39,0-.74-.09-.99-.24l.16-.49Z" style="fill: #1d1d1b;"/>
      <path d="M82.85,81.91v-.39l.5-.49c1.21-1.15,1.76-1.76,1.77-2.48,0-.48-.23-.93-.94-.93-.43,0-.79.22-1.01.4l-.2-.45c.33-.28.79-.48,1.34-.48,1.02,0,1.45.7,1.45,1.38,0,.88-.63,1.58-1.63,2.54l-.38.35h0s2.13.01,2.13.01v.53h-3.03Z" style="fill: #1d1d1b;"/>
      <path d="M88.57,81.91v-1.29h-2.2v-.42l2.12-3.03h.69v2.95h.66v.5h-.66v1.29h-.61ZM88.57,80.11v-1.58c0-.25,0-.5.02-.74h-.02c-.15.28-.26.48-.39.7l-1.16,1.61h0s1.55.01,1.55.01Z" style="fill: #1d1d1b;"/>
      <path d="M90.14,82.79c.52-.72.92-1.67.92-2.98s-.39-2.24-.92-2.96h.5c.47.6.96,1.53.96,2.97s-.49,2.36-.96,2.98h-.5Z" style="fill: #1d1d1b;"/>
    </g>
    <g>
      <g>
        <path d="M69.28,38.08c-14.34,0-25.58-6.46-25.58-14.7s11.24-14.53,25.58-14.53,25.58,6.38,25.58,14.53-11.23,14.7-25.58,14.7Z" style="fill: #000104;"/>
        <path d="M69.28,37.27c13.68,0,24.76-6.12,24.76-13.88s-11.09-13.72-24.76-13.72-24.76,5.96-24.76,13.72,11.09,13.88,24.76,13.88" style="fill: #fed306;"/>
        <path d="M69.28,37.27v.25c6.87,0,13.1-1.54,17.63-4.06,2.26-1.26,4.1-2.78,5.38-4.48,1.28-1.7,2-3.59,2-5.59,0-2-.72-3.88-2-5.57-1.92-2.53-5.1-4.62-9.08-6.09-3.98-1.47-8.78-2.31-13.93-2.31-6.87,0-13.1,1.5-17.63,3.98-2.26,1.24-4.11,2.73-5.39,4.42-1.28,1.68-2,3.57-2,5.57,0,2,.72,3.89,2,5.59,1.92,2.55,5.1,4.68,9.08,6.18,3.98,1.5,8.78,2.36,13.93,2.36v-.5c-6.8,0-12.96-1.52-17.39-4-2.22-1.24-4-2.71-5.23-4.34-1.23-1.63-1.9-3.41-1.9-5.29,0-1.88.67-3.65,1.9-5.27,1.84-2.42,4.94-4.48,8.86-5.92,3.92-1.45,8.66-2.28,13.76-2.28,6.8,0,12.96,1.48,17.39,3.92,2.22,1.22,4,2.67,5.23,4.28,1.23,1.62,1.89,3.39,1.9,5.27,0,1.88-.67,3.66-1.9,5.29-1.84,2.45-4.94,4.54-8.86,6.01-3.92,1.47-8.66,2.33-13.76,2.33v.25Z" style="fill: #000104;"/>
        <path d="M75.02,27.83c1.97.27,2.37,2.16,2.37,2.16,0,0,2.86-3.21,5.25-2.33,3.53,1.3.81,4.64.32,5.41.61-.17,9.14-2.7,9.14-9.86s-13.05-10.63-13.05-10.63c1.1.88,2.26,2.75.66,5.29-1.75,2.78-5.23,1.87-6.39,1.27-.77-.99-1.16-6.17-1.27-7.55-.5.17-1.49,2.64-1.49,2.64h-2.55s-.99-2.48-1.49-2.64c-.11,1.38-.5,6.56-1.27,7.55-1.16.61-4.64,1.51-6.39-1.27-1.6-2.53-.44-4.41.66-5.29,0,0-13.05,3.47-13.05,10.63s8.54,9.69,9.14,9.86c-.5-.77-3.21-4.11.32-5.41,2.39-.88,5.25,2.33,5.25,2.33,0,0,.4-1.89,2.37-2.16,2.91-.4,5.73,6.03,5.73,6.03,0,0,2.83-6.43,5.74-6.03" style="fill: #000104;"/>
      </g>
      <g>
        <path d="M87.45,35.81h-.4v-.21h1.03v.21h-.4v1.06h-.22v-1.06Z" style="fill: #000104;"/>
        <path d="M88.31,35.61h.24l.39.6.39-.6h.24v1.27h-.22v-.91l-.4.6h0l-.4-.59v.9h-.22v-1.27Z" style="fill: #000104;"/>
      </g>
    </g>
    <g>
      <path d="M55.21,40.22c.31-.06.8-.11,1.29-.11.71,0,1.16.12,1.51.4.28.21.46.54.46.97,0,.53-.35.99-.93,1.2v.02c.52.13,1.13.56,1.13,1.38,0,.47-.19.83-.46,1.1-.38.35-1,.51-1.9.51-.49,0-.86-.03-1.1-.06v-5.4ZM55.91,42.46h.64c.75,0,1.19-.39,1.19-.92,0-.64-.49-.89-1.2-.89-.33,0-.51.02-.63.05v1.76ZM55.91,45.09c.14.02.34.03.59.03.73,0,1.41-.27,1.41-1.07,0-.75-.64-1.06-1.42-1.06h-.59v2.09Z" style="fill: #000104;"/>
      <path d="M60.5,43.9l-.57,1.73h-.73l1.86-5.48h.85l1.87,5.48h-.76l-.59-1.73h-1.95ZM62.3,43.35l-.54-1.58c-.12-.36-.2-.68-.28-1h-.02c-.08.33-.17.66-.28.99l-.54,1.59h1.65Z" style="fill: #000104;"/>
      <path d="M65.01,40.75h-1.67v-.6h4.06v.6h-1.68v4.88h-.72v-4.88Z" style="fill: #000104;"/>
      <path d="M72.64,43.22c-.04-.76-.09-1.68-.08-2.37h-.03c-.19.64-.41,1.33-.69,2.08l-.97,2.66h-.54l-.89-2.61c-.26-.77-.48-1.48-.63-2.13h-.02c-.02.68-.06,1.6-.11,2.42l-.15,2.35h-.68l.38-5.48h.9l.94,2.65c.23.68.41,1.28.55,1.85h.02c.14-.55.33-1.16.58-1.85l.98-2.65h.9l.34,5.48h-.69l-.14-2.41Z" style="fill: #000104;"/>
      <path d="M75.37,43.9l-.57,1.73h-.73l1.86-5.48h.85l1.87,5.48h-.76l-.59-1.73h-1.95ZM77.17,43.35l-.54-1.58c-.12-.36-.2-.68-.28-1h-.02c-.08.33-.17.66-.28.99l-.54,1.59h1.65Z" style="fill: #000104;"/>
      <path d="M79.46,45.63v-5.48h.77l1.76,2.77c.41.64.72,1.22.98,1.78h.02c-.06-.74-.08-1.41-.08-2.26v-2.29h.67v5.48h-.72l-1.74-2.78c-.38-.61-.75-1.24-1.02-1.83h-.03c.04.7.06,1.36.06,2.27v2.34h-.67Z" style="fill: #000104;"/>
    </g>
  </g>
</svg>