<?xml version="1.0" encoding="UTF-8"?>
<svg id="Layer_1" data-name="Layer 1" data-size="24mm x 48mm" xmlns="http://www.w3.org/2000/svg" viewBox="0 0 115.85 192.84">
 
    <text id="quantity" style="font-family: Arial-BoldMT, Arial; font-size: 15px; font-weight: 700; isolation: isolate;"
    y="96%" x="62%" text-anchor="middle"></text>
  <g>
    <g>
      <path d="M.05,39.98v-.2l2.24-3.43c.47-.72.7-1.33.7-1.83,0-.66-.37-.99-1.12-.99-.26,0-.51.07-.74.21s-.4.31-.5.52l-.63-.52c.11-.32.33-.57.65-.76s.72-.28,1.17-.28c.69,0,1.22.16,1.61.48s.58.77.58,1.35c0,.54-.26,1.21-.77,2.03l-1.61,2.55h2.8v.88H.05Z" style="fill: #00a3cc;"/>
      <path d="M9.26,38.03v1.95h-.93v-1.95h-3.26v-.56l3.84-4.68h.34v4.48h.72v.75h-.72ZM8.33,34.74l-2.1,2.53h2.1v-2.53Z" style="fill: #00a3cc;"/>
      <path d="M19.93,39.98v-3.31c0-.82-.36-1.24-1.07-1.24-.22,0-.43.07-.63.21s-.33.3-.4.47v3.87h-.93v-3.72c0-.26-.1-.46-.29-.61s-.45-.22-.77-.22c-.19,0-.38.07-.59.21s-.36.3-.45.47v3.86h-.93v-5.23h.61l.31.61c.36-.47.81-.7,1.34-.7.75,0,1.27.23,1.57.7.1-.2.3-.36.58-.5s.57-.2.87-.2c.54,0,.96.16,1.25.48s.44.77.44,1.35v3.5h-.93Z" style="fill: #00a3cc;"/>
      <path d="M28.23,39.98v-3.31c0-.82-.36-1.24-1.07-1.24-.22,0-.43.07-.63.21s-.33.3-.4.47v3.87h-.93v-3.72c0-.26-.1-.46-.29-.61s-.45-.22-.77-.22c-.19,0-.38.07-.59.21s-.36.3-.45.47v3.86h-.93v-5.23h.61l.31.61c.36-.47.81-.7,1.34-.7.75,0,1.27.23,1.57.7.1-.2.3-.36.58-.5s.57-.2.87-.2c.54,0,.96.16,1.25.48s.44.77.44,1.35v3.5h-.93Z" style="fill: #00a3cc;"/>
    </g>
    <g>
      <path d="M.05,109.96v-.2l2.24-3.43c.47-.72.7-1.33.7-1.83,0-.66-.37-.99-1.12-.99-.26,0-.51.07-.74.21-.23.14-.4.31-.5.52l-.63-.52c.11-.32.33-.57.65-.76s.72-.28,1.17-.28c.69,0,1.22.16,1.61.48.39.32.58.77.58,1.35,0,.54-.26,1.21-.77,2.03l-1.61,2.55h2.8v.88H.05Z" style="fill: #00a3cc;"/>
      <path d="M9.26,108.01v1.95h-.93v-1.95h-3.26v-.56l3.84-4.68h.34v4.48h.72v.75h-.72ZM8.33,104.73l-2.1,2.53h2.1v-2.53Z" style="fill: #00a3cc;"/>
      <path d="M19.93,109.96v-3.31c0-.82-.36-1.24-1.07-1.24-.22,0-.43.07-.63.21-.2.14-.33.29-.4.47v3.87h-.93v-3.72c0-.26-.1-.46-.29-.61-.19-.15-.45-.22-.77-.22-.19,0-.38.07-.59.21s-.36.3-.45.47v3.86h-.93v-5.23h.61l.31.61c.36-.47.81-.7,1.34-.7.75,0,1.27.23,1.57.7.1-.2.3-.36.58-.5s.57-.2.87-.2c.54,0,.96.16,1.25.48.3.32.44.77.44,1.35v3.5h-.93Z" style="fill: #00a3cc;"/>
      <path d="M28.23,109.96v-3.31c0-.82-.36-1.24-1.07-1.24-.22,0-.43.07-.63.21-.2.14-.33.29-.4.47v3.87h-.93v-3.72c0-.26-.1-.46-.29-.61-.19-.15-.45-.22-.77-.22-.19,0-.38.07-.59.21s-.36.3-.45.47v3.86h-.93v-5.23h.61l.31.61c.36-.47.81-.7,1.34-.7.75,0,1.27.23,1.57.7.1-.2.3-.36.58-.5s.57-.2.87-.2c.54,0,.96.16,1.25.48.3.32.44.77.44,1.35v3.5h-.93Z" style="fill: #00a3cc;"/>
    </g>
    <g>
      <path d="M67,159.23v-.2l2.24-3.43c.47-.72.7-1.33.7-1.83,0-.66-.37-.99-1.12-.99-.26,0-.51.07-.74.21-.23.14-.4.31-.5.52l-.63-.52c.11-.32.33-.57.65-.76s.72-.28,1.17-.28c.69,0,1.22.16,1.61.48.39.32.58.77.58,1.35,0,.54-.26,1.21-.77,2.03l-1.61,2.55h2.8v.88h-4.39Z" style="fill: #00a3cc;"/>
      <path d="M76.21,157.28v1.95h-.93v-1.95h-3.26v-.56l3.84-4.68h.34v4.48h.72v.75h-.72ZM75.28,154l-2.1,2.53h2.1v-2.53Z" style="fill: #00a3cc;"/>
      <path d="M86.88,159.23v-3.31c0-.82-.36-1.24-1.07-1.24-.22,0-.43.07-.63.21-.2.14-.33.29-.4.47v3.87h-.93v-3.72c0-.26-.1-.46-.29-.61-.19-.15-.45-.22-.77-.22-.19,0-.38.07-.59.21s-.36.3-.45.47v3.86h-.93v-5.23h.61l.31.61c.36-.47.81-.7,1.34-.7.75,0,1.27.23,1.57.7.1-.2.3-.36.58-.5s.57-.2.87-.2c.54,0,.96.16,1.25.48.3.32.44.77.44,1.35v3.5h-.93Z" style="fill: #00a3cc;"/>
      <path d="M95.18,159.23v-3.31c0-.82-.36-1.24-1.07-1.24-.22,0-.43.07-.63.21-.2.14-.33.29-.4.47v3.87h-.93v-3.72c0-.26-.1-.46-.29-.61-.19-.15-.45-.22-.77-.22-.19,0-.38.07-.59.21s-.36.3-.45.47v3.86h-.93v-5.23h.61l.31.61c.36-.47.81-.7,1.34-.7.75,0,1.27.23,1.57.7.1-.2.3-.36.58-.5s.57-.2.87-.2c.54,0,.96.16,1.25.48.3.32.44.77.44,1.35v3.5h-.93Z" style="fill: #00a3cc;"/>
    </g>
    <line x1="36.99" y1="2.5" x2="36.99" y2="138.89" style="fill: none; stroke: #00a3cc; stroke-width: .56px;"/>
    <rect x="35.17" y="2.22" width="3.64" height=".56" style="fill: #00a3cc;"/>
    <rect x="35.17" y="138.61" width="3.64" height=".56" style="fill: #00a3cc;"/>
    <g>
      <line x1="115.49" y1="148.66" x2="47.93" y2="148.66" style="fill: none; stroke: #00a3cc; stroke-width: .56px;"/>
      <rect x="115.27" y="147.2" width=".45" height="2.91" style="fill: #00a3cc;"/>
      <rect x="47.71" y="147.2" width=".45" height="2.91" style="fill: #00a3cc;"/>
    </g>
    <line x1="32.96" y1="70.99" x2="40.4" y2="70.99" style="fill: none; stroke: #00a3cc; stroke-width: .56px;"/>
    <polyline points="115.73 70.82 115.73 141.69 47.7 141.69 47.7 70.82" style="fill: #533278; stroke: #d52f89; stroke-miterlimit: 10; stroke-width: .25px;"/>
    <polyline points="47.65 70.99 47.65 .12 115.69 .12 115.69 70.99" style="fill: #533278; stroke: #d52f89; stroke-miterlimit: 10; stroke-width: .25px;"/>
    <line x1="47.23" y1="2.5" x2="115.26" y2="2.5" style="fill: none; stroke: #97bf0d; stroke-dasharray: 1.76 1.76; stroke-width: .55px;"/>
    <line x1="47.72" y1="138.89" x2="115.5" y2="138.89" style="fill: none; stroke: #97bf0d; stroke-dasharray: 1.76 1.76; stroke-width: .55px;"/>
    <line x1="115.69" y1="70.99" x2="47.65" y2="70.99" style="fill: none; stroke: #ee701e; stroke-dasharray: 2.17 2.17; stroke-width: .25px;"/>
    <g>
      <path d="M64.03,105.99c0-2.07,1.64-3.71,3.71-3.71s3.72,1.64,3.72,3.71-1.64,3.71-3.72,3.71-3.71-1.64-3.71-3.71ZM64.63,105.99c0,1.74,1.41,3.1,3.11,3.1s3.11-1.36,3.11-3.1-1.41-3.1-3.11-3.1-3.11,1.35-3.11,3.1ZM69.06,105.23c-.11-.52-.56-.8-1.18-.8-1.02,0-1.44.77-1.44,1.52,0,.88.52,1.55,1.46,1.55.62,0,1.03-.29,1.16-.84h.58c-.11.9-.88,1.44-1.74,1.44-1.25,0-2.07-.95-2.07-2.13s.77-2.14,2.06-2.14c.88,0,1.57.53,1.74,1.41h-.58Z" style="fill: #3cb4e5;"/>
      <path d="M72.12,102.44h1.47c2.18,0,3.99,1.15,3.99,3.52s-1.77,3.59-4.02,3.59h-1.44v-7.11ZM73.01,108.74h.31c1.81,0,3.38-.68,3.38-2.74s-1.56-2.74-3.38-2.74h-.31v5.49Z" style="fill: #3cb4e5;"/>
      <path d="M79.58,103.12c0,.32-.26.58-.58.58s-.58-.25-.58-.58.26-.59.58-.59.58.26.58.59ZM79.42,109.55h-.85v-4.41h.85v4.41Z" style="fill: #3cb4e5;"/>
      <path d="M82.55,106.14c-.1-.22-.32-.39-.57-.39s-.46.19-.46.43c0,.39.51.56,1.03.79.52.23,1.02.56,1.02,1.25,0,.84-.7,1.46-1.52,1.46-.64,0-1.29-.37-1.53-.99l.73-.33c.18.33.4.57.8.57.36,0,.67-.25.67-.62,0-.24-.11-.35-.31-.48l-.83-.44c-.49-.26-.85-.51-.85-1.11,0-.72.58-1.28,1.3-1.28.54,0,.97.29,1.21.77l-.69.37Z" style="fill: #3cb4e5;"/>
      <path d="M85.25,105.73h.02c.26-.47.79-.73,1.33-.73,1.24,0,1.57.84,1.57,1.91v2.63h-.85v-2.53c0-.75-.1-1.26-.97-1.26-1.09,0-1.09.96-1.09,1.76v2.03h-.85v-4.41h.85v.59Z" style="fill: #3cb4e5;"/>
      <path d="M89.84,107.48c0,.75.52,1.46,1.33,1.46.65,0,1-.33,1.32-.86l.72.41c-.41.76-1.19,1.21-2.05,1.21-1.35,0-2.17-1.02-2.17-2.32s.73-2.38,2.15-2.38,2.07,1.04,2.07,2.35v.13h-3.37ZM92.36,106.84c-.1-.66-.54-1.1-1.22-1.1s-1.15.47-1.25,1.1h2.47Z" style="fill: #3cb4e5;"/>
      <path d="M93.23,105.14h.99l1.49,2.8,1.39-2.8h.95l-3.57,6.94h-.96l1.74-3.28-2.02-3.66Z" style="fill: #3cb4e5;"/>
    </g>
    <g>
      <path d="M94.72,28.7l-1.47-1.78s.05-.1.06-.15l3.26-.23-3.26-.24c-.02-.06-.04-.12-.07-.17l2.35-2.66-2.66,2.36c-.06-.03-.12-.06-.18-.08l-.22-4.27-.24,4.27c-.05.02-.1.04-.15.06l-1.68-1.39,1.38,1.67c-.04.06-.07.13-.09.2l-2.67.23,2.67.23c.08.26.28.47.54.55l.24,5.48.24-5.47c.07-.02.14-.05.2-.09l1.76,1.47Z" style="fill: #3cb4e5; fill-rule: evenodd;"/>
      <g id="WISH">
        <path d="M91.3,42.43c-1.01-1.37-1.97-2.67-2.64-4.13-1.21-2.62-1.08-6.07.58-8.25,0,0,1.15-1.69,3.5-3.12l-.6-.34c-.12.05-.23.11-.35.16l-.02-.02-.02.04c-4.84,2.36-7.13,7.45-5.03,11.99.73,1.58,1.77,2.99,2.78,4.36,1.81,2.46,3.75,4.76,3.75,8,0,7.12-7.56,10.62-7.62,10.65l2.42-1.07c.07-.03,1.72-.84,3.38-2.41,2.22-2.1,3.54-4.57,3.54-7.16,0-3.65-1.79-6.18-3.65-8.7Z" style="fill: #3cb4e5;"/>
        <path d="M80.5,44.17c0,6.38.12,11.86.25,16.51h-2.19s.26-10.8.26-16.51-.26-16.9-.26-16.9h2.2s-.26,11.47-.26,16.9Z" style="fill: #3cb4e5;"/>
        <path d="M110.78,27.28h-2.14s.19,10.21.2,15.17h-6.91c.01-4.77.2-15.17.2-15.17h-2.14s.26,11.26.26,16.9-.26,16.51-.26,16.51h2.14c-.13-4.65-.2-10.14-.2-16.51,0-.06,0-.13,0-.19h6.91c0,.06,0,.13,0,.19,0,5.71-.2,16.51-.2,16.51h2.14c-.13-4.65-.25-10.14-.25-16.51,0-5.43.26-16.9.26-16.9Z" style="fill: #3cb4e5;"/>
        <path d="M71.75,27.28s-1.72,9.98-2.74,14.98c-.69,3.36-1.94,10.77-1.94,10.77l-4.39-26.07v-.05.03-.03.05l-4.39,26.07s-1.25-7.41-1.94-10.77c-1.02-5-2.74-14.98-2.74-14.98h-2.18s2.18,10.17,3.17,14.98c1.16,5.65,3.54,19.33,3.54,19.33l4.55-26.47,4.55,26.47s2.38-13.67,3.54-19.33c.98-4.81,3.17-14.98,3.17-14.98h-2.18Z" style="fill: #3cb4e5;"/>
      </g>
      <path d="M78.79,16.34c-.05-.18-.13-.35-.32-.38-.11.03-.18.14-.2.23-.14.82-.16,1.69-.15,2.56.01.3-.04.74.33.81.18.05.35,0,.49-.11.05-.99-.03-1.9-.09-2.85-.01-.12-.04-.21-.05-.26Z" style="fill: #3cb4e5;"/>
      <path d="M88.96,16.75c.17-.01.66.01.89-.18.03-.28-.23-.53-.48-.65-.78-.05-1.51.11-2.25.2-.07.01-.2.02-.2.13.06.33.39.39.65.46v.04s-.21.62-.21.62h-.05s-.1,0-.1,0c-.02,0-.04,0-.07.01-.08.03-.19.07-.15.17.24.48-.24.81-.19,1.29.03.31.2.64.48.8.04.02.1.04.18.05.74.07,1.34-.32,1.9-.76.06-.14-.04-.32-.13-.43-.53-.11-1.04.13-1.57.16h0s-.04,0-.04,0c.06-.14.16-.43.27-.77.07,0,.2-.02.31,0,.11,0,.22.01.29.01.26,0,.52.02.7-.12.03-.03.04-.06.04-.08,0-.09.03-.26-.03-.36-.32-.11-.71-.06-1.05-.06h-.05s.16-.52.16-.52l.71-.03Z" style="fill: #3cb4e5;"/>
      <path d="M93.04,16.32s-.05-.05-.07-.07c-.09-.07-.19-.11-.3-.11-.08,0-.2.05-.25.09-.42.24-.78.58-1.12.97,0,0-.01.01-.02.02-.2.24-.47.6-.75,1.05-.08-.09-.08-.27-.07-.38.09-.77.87-1.29.78-2.1-.15-.01-.24.12-.34.22-.03.04-.07.08-.11.12-.55.69-.99,1.46-.87,2.4.02.12.07.26.13.37.02.05.05.09.07.11-.13.27-.25.56-.35.87-.15.5-.28,1-.37,1.52-.02.12-.06.35-.04.55h0c0,.06.02.12.04.18.13.27.42.56.71.52.09-.67.25-1.32.43-1.95.1-.32.23-.7.4-1.1.38.07.69-.05.69-.05.8-.28,1.56-1.04,1.73-1.87.12-.51-.02-.99-.33-1.37ZM92.9,17.23h0c0,.4-.17.76-.48,1.03-.3.24-.66.43-1.05.43.02-.04.04-.07.06-.11.09-.16.18-.31.27-.47.22-.36.48-.71.77-1.04,0,0,.02-.02.02-.03,0,0,.01-.01.02-.02.06-.06.12-.13.19-.19.02-.01.04-.03.06-.02h0c.07.01.09.09.11.16.01.05.03.14.03.25h0Z" style="fill: #3cb4e5;"/>
      <path d="M80.67,13.26h0s-.03-.04-.05-.05h0s-.1-.11-.25-.15h0s-.03,0-.04-.01c-.07-.02-.12-.02-.16-.02-.01,0-.03,0-.04,0-.04-.15-.23-.25-.23-.25-.12-.07-.26-.1-.39-.12h-.02c-.3-.03-.54,0-.73.05-.15.04-.28.1-.35.13-.72.36-.99.77-1.1,1.01,0,0,0,.01,0,.02-.01.03-.02.06-.03.09-.01.04-.02.07-.02.09-.06.31,0,.64.24.88,0,.03,0,.12,0,.2,0,.05,0,.11.02.16,0,.03.02.07.04.11.06.12.11.16.2.16.16.01.24-.25.29-.32.32.1.7.17,1.04.06.24-.08.44-.18.66-.32.35-.23.68-.52.9-.9.07-.13.11-.25.12-.33.04-.19.02-.37-.1-.51ZM77.81,14.33s-.03.03-.04.05c-.07-.06-.06-.15-.03-.24.02-.07.05-.12.06-.13.05-.09.13-.18.2-.26.12-.11.25-.21.4-.29.03-.01.07-.03.1-.05,0,0,0,0,.01,0h0s.13-.04.25-.03h0s.05,0,.08.01c-.51.33-.9.79-1.03.94ZM79.84,14.39c-.11.08-.23.13-.34.18-.36.13-.72.19-1.09.13.31-.5.81-.98,1.35-1.19.03,0,.09-.03.15-.04.16-.01.33-.03.39.16.06.33-.22.58-.46.76Z" style="fill: #3cb4e5;"/>
      <path d="M85.74,15.76c-.1-.15-.28-.42-.51-.43-.09.04-.09.16-.08.24.17.83.49,1.59.49,2.49,0,.04,0,.1,0,.13-.01.04-.03.07-.07.07-.5-.68-.84-1.44-1.46-2.06-.03-.02-.05-.04-.06-.04-.1-.04-.19.01-.26.09-.02.03-.06.08-.1.17-.2.46-.29.96-.36,1.47-.04.26-.15.96.02,1.36.08.14.22.28.38.27.11-.01.2-.15.24-.27l.12-2.05.05.09c.42.67.63,1.43,1.29,1.97.09.06.21.05.32,0,.07-.02.16-.06.23-.13.23-.18.35-.5.38-.75.11-.96-.13-1.87-.65-2.61Z" style="fill: #3cb4e5;"/>
      <path d="M83,16.18s0-.03-.02-.05c0,0-.02-.02-.03-.02-.96-.4-2.3-.28-3.19.21-.27.14-.39.4-.42.7,0,.05,0,.18.06.28.05.08.11.15.18.18.01,0,.03.01.05.02.29.06.61.08.92.1.16.01.27.02.27.02.59.05.87.13.87.13h0c.24.07.56.12.63.41,0,.01,0,.02,0,.03-.2.32-.8.43-1.2.49-.26.03-.93.14-1.25-.13-.04-.04-.05-.08-.06-.11,0,0,0-.01,0-.02h0s.02-.09.05-.14c0,0,.02-.02.04-.04.42-.24.95.28,1.38.22.43-.04.57-.15.61-.24.04-.07.02-.12.02-.12-.15-.13-.49-.23-.77-.28-.4-.06-.96-.14-1.36.1,0,0-.08.05-.13.13-.08.11-.13.25-.14.39,0,.03,0,.06.02.11.2.51.73.77,1.21.89.65.11,1.36.02,1.85-.41h0c.09-.08.14-.16.17-.2.12-.24.16-.63.08-.93-.02-.08-.06-.15-.09-.19-.5-.66-1.43-.48-2.22-.6-.1-.01-.24-.04-.36-.08-.08-.02-.12-.04-.14-.05,0,0-.01,0-.02-.01,0,0,0,0,0,0h0s-.03-.03-.04-.05c0-.01,0-.02.01-.02.68-.27,1.5-.24,2.26-.32.24-.04.49-.03.66-.21,0,0,.01-.01.02-.03,0,0,0,0,0,0,0,0,0,0,0,0,.02-.02.03-.05.05-.09,0-.02.01-.04.01-.05h0s0-.02,0-.02h0Z" style="fill: #3cb4e5;"/>
      <path d="M77.6,17h0s-.13-1.37-2.06-2.83c-.01,0-.03-.02-.04-.03,0,0-.01,0-.02-.01-.13-.1-.28-.2-.43-.3-.61-.41-1.24-.71-1.75-.93-1.49-.65-3.67-1.12-5.62-.52-.28.1-.38.37-.47.62,0,.04-.02.11,0,.15.1.11.27.12.44.13.07,0,.21,0,.31-.02.06-.01.12-.04.12-.11,0-.02,0-.02-.01-.03-.12-.16-.33-.1-.46-.17,0,0,0,0,0-.01,0-.01.01-.02.02-.03h0s.13-.07.2-.08c0,0,.03,0,.03,0,.01,0,.03,0,.04,0,.02,0,.03,0,.03,0,1.58-.25,3.1.04,4.46.54,1.57.64,3.39,1.6,4.12,3.31.02.05.04.1.06.16,0,0,0,.01,0,.02,0,.01,0,.02,0,.03,0,.03.02.07.02.1,0,0,0,.02,0,.02.11.6-.03,1.26-.52,1.67-1.08.86-2.61.94-3.97.69l-.04-1.93c0-.1,0-.32,0-.42,0-.04,0-.02,0-.06.18,0,.23,0,.29,0,.61.03,1.48.14,2.12.46.01,0,.03.02.03.04h0s0,0,0,.01c0,.04-.02.08-.04.11h0s0,0,0,0c0,.01-.02.03-.02.04-.05.07-.08.1-.09.11-.11.1-.28.14-.28.29,0,.01,0,.01.02.02.13.06.28.08.43.08.02,0,.1,0,.18-.04.22-.12.47-.31.52-.55.06-.22-.01-.4-.11-.57-.06-.1-.15-.18-.2-.22-.53-.4-1.17-.56-1.84-.61-.4-.04-.7-.03-.87-.02h-.1s-.04,0-.04,0l-.03-1.1c-.04-.28-.19-.61-.48-.71-.3.56-.31,1.79-.34,1.89-.04,0-.07.02-.11.02-.2.04-.42.08-.65.15-.19.05-.38.1-.57.17-.35.14-.69.31-.99.6-.02.02-.05.05-.07.08-.07.11-.12.25-.09.39,0,.01.01.05.03.09.53.9,1.48,1.57,2.37,1.99.06.32.06.66.27.89.18.05.38.02.51-.01.18-.07.17-.32.18-.49.01,0,.01,0,.02,0,1.55.37,3.25.23,4.49-.69.78-.58,1.16-1.44,1-2.38ZM71.09,19.04c-.76-.28-1.55-.68-2.07-1.41,0-.01-.01-.03-.02-.04,0,0,0,0,0,0,0,0,0,0,0,0-.02-.14.14-.24.25-.28.29-.1.61-.17.93-.22.55-.08.86-.1.99-.11,0,.69-.05,1.35-.08,2.05Z" style="fill: #3cb4e5;"/>
    </g>
  </g>
</svg>