<?xml version="1.0" encoding="UTF-8"?>
<svg id="Layer_1" data-name="Layer 1" data-size="60mm x 20mm" xmlns="http://www.w3.org/2000/svg" viewBox="0 0 218.69 112.12">
    <text id="quantity" style="font-family: Arial-BoldMT, Arial; font-size: 15px; font-weight: 700; isolation: isolate;"
    y="96%" x="59%" text-anchor="middle"></text>
  <text transform="translate(116.14 75.88)" style="fill: #00a3cc; font-family: TrebuchetMS, &apos;Trebuchet MS&apos;; font-size: 10px;"><tspan x="0" y="0">60 mm</tspan></text>
  <g>
    <line x1="217.95" y1="64.72" x2="49.06" y2="64.72" style="fill: none; stroke: #00a3cc; stroke-width: 1.19px;"/>
    <rect x="217.35" y="60.85" width="1.19" height="7.74" style="fill: #00a3cc;"/>
    <rect x="48.46" y="60.85" width="1.19" height="7.74" style="fill: #00a3cc;"/>
  </g>
  <g>
    <text transform="translate(0 29.28)" style="fill: #00a3cc; font-family: TrebuchetMS, &apos;Trebuchet MS&apos;; font-size: 10px;"><tspan x="0" y="0">20 mm</tspan></text>
    <g>
      <line x1="33.72" y1=".57" x2="33.72" y2="56.42" style="fill: none; stroke: #00a3cc; stroke-width: .84px;"/>
      <rect x="30.99" y=".15" width="5.46" height=".84" style="fill: #00a3cc;"/>
      <rect x="30.99" y="56" width="5.46" height=".84" style="fill: #00a3cc;"/>
    </g>
  </g>
  <g>
    <rect x="48.46" y=".15" width="170.08" height="56.69" style="fill: #fff;"/>
    <rect x="48.46" y=".15" width="170.08" height="56.69" style="fill: none; stroke: #e50695; stroke-width: .3px;"/>
    <path d="M83.32,29.14h1.92c.62,0,1.11.07,1.46.2.33.13.6.32.78.57.18.25.27.49.27.75,0,.23-.06.45-.19.67-.13.22-.32.4-.57.56-.25.15-.55.22-.89.22h-2.79v-2.98ZM86.35,27.9c-.34.15-.73.23-1.14.23h-1.89v-2.66h2.14c.51,0,.91.14,1.22.41.3.28.45.56.45.87,0,.22-.07.43-.21.65-.14.22-.33.38-.58.49M88.29,29.31c-.25-.32-.61-.58-1.07-.8.62-.45.93-1.03.93-1.71,0-.63-.26-1.19-.76-1.65-.5-.46-1.15-.69-1.94-.69h-3.72c-.2,0-.34.04-.44.13-.11.09-.16.22-.16.37s.05.28.16.37c.1.09.25.14.44.14h.59v6.65h-.59c-.2,0-.34.04-.44.13-.1.09-.16.22-.16.37,0,.14.05.27.16.36.1.09.25.14.44.14h4.43c.49,0,.95-.13,1.37-.38.42-.25.73-.55.94-.91.21-.36.31-.75.31-1.18,0-.49-.16-.94-.47-1.34"/>
    <path d="M125.06,25.56l1.45,3.8h-2.85l1.4-3.8ZM128.92,32.12h-.32l-2.84-7.52c-.03-.08-.11-.13-.19-.13h-2.98c-.2,0-.34.05-.44.13-.11.09-.16.22-.16.37s.06.28.16.37c.1.09.24.14.44.14h1.45l-2.46,6.65h-.32c-.2,0-.34.04-.44.13-.11.09-.16.22-.16.37s.06.27.16.36c.1.09.25.14.44.14h2.21c.2,0,.34-.04.45-.14.1-.1.16-.22.16-.36,0-.15-.06-.27-.16-.37-.1-.09-.24-.13-.44-.13h-.84l.65-1.75h3.6l.66,1.75h-.83c-.2,0-.34.04-.44.13-.11.09-.16.22-.16.37s.05.27.16.36c.1.09.25.14.45.14h2.21c.2,0,.34-.04.44-.14.1-.1.16-.22.16-.36,0-.15-.06-.28-.16-.37-.1-.09-.24-.13-.44-.13"/>
    <path d="M143.24,24.46h-2.19c-.2,0-.35.04-.45.14-.1.09-.15.22-.15.37s.06.27.16.37c.1.09.24.13.44.13h.89v5.84l-3.99-6.74c-.04-.06-.1-.1-.18-.1h-1.55c-.2,0-.34.04-.44.13-.11.09-.16.22-.16.37s.05.28.16.37c.1.09.25.13.44.13h.59v6.65h-.29c-.2,0-.35.04-.45.13-.1.09-.16.22-.16.37s.05.27.16.36c.1.1.25.14.45.14h2.18c.2,0,.35-.05.45-.14.1-.09.16-.22.16-.36s-.06-.28-.16-.37c-.1-.09-.25-.13-.45-.13h-.89v-5.83l3.98,6.73c.04.06.1.1.18.1h.76c.11,0,.2-.09.2-.21v-7.45h.3c.19,0,.34-.04.44-.13.1-.09.16-.22.16-.37s-.05-.28-.16-.37c-.1-.09-.24-.13-.44-.13"/>
    <path d="M157.24,29.06h-2.85c-.2,0-.34.04-.44.13-.1.09-.16.22-.16.37s.05.28.16.37c.1.09.24.13.44.13h1.83v1.85c-.35.15-.66.26-.91.33-.29.07-.61.11-.95.11-1,0-1.79-.27-2.35-.81-.56-.54-.84-1.26-.84-2.19v-1.08c0-.52.12-.98.35-1.38.36-.63.75-1.06,1.15-1.28.84-.45,2-.43,2.89.03.43.22.65.49.67.8,0,.19.05.33.15.43.19.19.53.17.7-.01.1-.1.14-.25.14-.45v-1.34c0-.2-.05-.34-.14-.44-.17-.18-.45-.21-.66-.07-.09.06-.15.14-.18.23,0,.02-.01.05-.02.09-.63-.4-1.38-.6-2.23-.6-.69,0-1.34.17-1.93.51-.59.34-1.06.84-1.4,1.49-.34.64-.51,1.31-.51,1.99v1.08c0,.67.1,1.23.3,1.68.2.44.47.84.82,1.19.35.36.79.64,1.29.84.5.2,1.09.3,1.75.3.46,0,.93-.07,1.4-.2.46-.13.93-.32,1.39-.58.07-.04.11-.1.11-.18v-2.33c.17,0,.24-.02.28-.03.09-.03.17-.09.23-.18.06-.09.1-.19.1-.29,0-.15-.06-.28-.16-.37-.1-.09-.24-.13-.44-.13"/>
    <path d="M170.96,30.14c-.09.1-.13.25-.13.44v1.54h-4.14v-2.98h1.71v.46c0,.19.05.34.14.44.19.2.54.21.73,0,.09-.1.14-.25.14-.44v-1.93c0-.2-.05-.34-.14-.44-.19-.21-.54-.2-.73,0-.09.1-.14.25-.14.44v.46h-1.71v-2.67h3.83v1.24c0,.2.04.34.13.44.19.21.55.22.74,0,.09-.1.13-.24.13-.44v-2.04c0-.11-.09-.21-.21-.21h-6.22c-.19,0-.34.04-.44.13-.1.09-.16.22-.16.37s.06.28.16.37c.1.09.24.13.44.13h.59v6.65h-.59c-.19,0-.34.04-.44.13-.1.09-.16.22-.16.37,0,.14.05.27.16.36.1.1.25.14.44.14h6.53c.11,0,.21-.09.21-.21v-2.34c0-.2-.04-.34-.13-.44-.18-.21-.55-.21-.74,0"/>
    <path d="M185.74,29.52c-.19-.2-.54-.2-.73,0-.09.1-.14.25-.14.44v2.15h-3.52v-6.65h1.2c.2,0,.34-.04.44-.13.11-.09.16-.22.16-.37s-.06-.28-.16-.37c-.1-.09-.24-.13-.44-.13h-3.42c-.2,0-.34.04-.44.13-.11.09-.16.22-.16.37s.06.28.16.37c.1.09.24.13.44.13h1.2v6.65h-1.2c-.2,0-.34.04-.44.13-.11.09-.16.22-.16.37,0,.14.06.27.16.36.1.09.25.14.44.14h6.54c.11,0,.21-.09.21-.21v-2.94c0-.21-.05-.35-.14-.45"/>
    <path d="M105.19,34.13c-14.38-7.42-5.75-15.03-.23-8.63,5.18-6.68,14.2.46.23,8.63"/>
  </g>
</svg>