<?xml version="1.0" encoding="UTF-8"?>
<svg id="Layer_1" data-size="15mm x 100mm" data-name="Layer 1" xmlns="http://www.w3.org/2000/svg"
  viewBox="0 0 126.95 346.81">
  <text id="quantity" style="font-family: Arial-BoldMT, Arial; font-size: 15px; font-weight: 700; isolation: isolate;"
    y="98%" x="64%" text-anchor="middle">Qty-740</text>

  <rect x="33.81" y=".14" width="42.52" height="283.46" style="fill: #010101;" />
  <rect x="33.81" y=".14" width="42.52" height="283.46" style="fill: none; stroke: #e50695; stroke-width: .29px;" />
  <rect x="33.81" y=".14" width="42.52" height="283.46" style="fill: #010101;" />
  <rect x="33.81" y=".14" width="42.52" height="283.46" style="fill: none; stroke: #e50695; stroke-width: .29px;" />
  <path d="M60.03,21.01c0,2.74-2.22,4.96-4.96,4.96s-4.96-2.22-4.96-4.96,2.22-4.96,4.96-4.96,4.96,2.22,4.96,4.96"
    style="fill: #fff;" />
  <path d="M60.03,21.01c0,2.74-2.22,4.96-4.96,4.96s-4.96-2.22-4.96-4.96,2.22-4.96,4.96-4.96,4.96,2.22,4.96,4.96"
    style="fill: none; stroke: #e50695; stroke-width: .5px;" />
  <g>
    <path
      d="M58.94,208.25l-8.11,2.47h-.05c-.08.01-.12-.03-.12-.12v-1.51c0-.09.04-.14.12-.17l5.86-1.6s.04-.02.04-.04c0-.02-.01-.03-.04-.04l-5.86-1.57c-.08-.02-.12-.08-.12-.17v-1.48s.02-.08.05-.11c.03-.02.07-.03.12-.01l8.11,2.51c.08.02.12.08.12.16v1.51c0,.08-.04.13-.12.16Z"
      style="fill: #fff;" />
    <path
      d="M52.07,196.9s.04.06.04.1v3.94s.02.06.06.06h1.86s.06-.02.06-.06v-2.58s.01-.07.04-.1c.03-.03.06-.04.1-.04h1.16s.07.01.1.04c.03.03.04.06.04.1v2.58s.02.06.06.06h1.94s.06-.02.06-.06v-3.94s.01-.07.04-.1c.03-.03.06-.04.1-.04h1.16s.07.01.1.04c.03.03.04.06.04.1v5.54s-.01.07-.04.1c-.03.03-.06.04-.1.04h-8.11s-.07-.01-.1-.04c-.03-.03-.04-.06-.04-.1v-5.54s.01-.07.04-.1c.03-.03.06-.04.1-.04h1.16s.07.01.1.04Z"
      style="fill: #fff;" />
    <path
      d="M58.95,191.01l-3.32,1.5s-.05.04-.05.07v1.12s.02.06.06.06h3.28s.07.01.1.04c.03.03.04.06.04.1v1.4s-.01.07-.04.1c-.03.03-.06.04-.1.04h-8.11s-.07-.01-.1-.04c-.03-.03-.04-.06-.04-.1v-3.43c0-.51.1-.96.31-1.35.21-.39.5-.69.89-.9.38-.21.83-.32,1.33-.32.54,0,1.01.14,1.4.41.39.27.66.65.82,1.14.02.04.04.05.08.04l3.4-1.63s.06-.02.07-.02c.06,0,.1.04.1.13v1.48c0,.08-.04.14-.11.17ZM52.17,193.76h2.05s.06-.02.06-.06v-1.57c0-.34-.1-.61-.3-.82-.2-.21-.46-.32-.78-.32s-.58.11-.79.32-.31.49-.31.82v1.57s.02.06.06.06Z"
      style="fill: #fff;" />
    <path
      d="M58.94,182.5l-1.18.36s-.05.04-.05.06v2.95s.02.04.05.06l1.18.35c.08.02.12.08.12.16v1.52s-.01.08-.04.11c-.03.02-.07.03-.13.01l-8.11-2.59c-.08-.02-.12-.08-.12-.16v-1.88c0-.08.04-.13.12-.16l8.11-2.59s.04-.01.06-.01c.07,0,.11.04.11.13v1.52c0,.08-.04.13-.12.16ZM56.41,185.45v-2.11s-.02-.06-.07-.05l-3.56,1.08s-.05.02-.04.04c0,.02.02.03.04.04l3.56,1.06s.07,0,.07-.05Z"
      style="fill: #fff;" />
    <path
      d="M50.97,171.9c.22-.4.52-.71.92-.93.4-.22.85-.33,1.36-.33s.95.11,1.33.34c.38.23.68.55.89.96s.32.89.32,1.42v1.7s.02.06.06.06h3.06s.07.01.1.04c.03.03.04.06.04.1v1.4s-.01.07-.04.1c-.03.03-.06.04-.1.04h-8.12s-.07-.01-.1-.04c-.03-.03-.04-.06-.04-.1v-3.38c0-.53.11-.99.32-1.39ZM54.12,172.66c-.21-.22-.49-.34-.83-.34s-.64.11-.85.34-.32.52-.32.89v1.52s.02.06.06.06h2.21s.06-.02.06-.06v-1.52c0-.37-.11-.66-.32-.89Z"
      style="fill: #fff;" />
    <path
      d="M52.07,163.56s.04.06.04.1v3.94s.02.06.06.06h1.86s.06-.02.06-.06v-2.58s.01-.07.04-.1c.03-.03.06-.04.1-.04h1.16s.07.01.1.04c.03.03.04.06.04.1v2.58s.02.06.06.06h1.94s.06-.02.06-.06v-3.94s.01-.07.04-.1c.03-.03.06-.04.1-.04h1.16s.07.01.1.04c.03.03.04.06.04.1v5.54s-.01.07-.04.1c-.03.03-.06.04-.1.04h-8.11s-.07-.01-.1-.04c-.03-.03-.04-.06-.04-.1v-5.54s.01-.07.04-.1c.03-.03.06-.04.1-.04h1.16s.07.01.1.04Z"
      style="fill: #fff;" />
    <path
      d="M59.02,162.06s-.06.04-.1.04h-8.11s-.07-.01-.1-.04c-.03-.03-.04-.06-.04-.1v-1.4s.01-.07.04-.1.06-.04.1-.04h6.74s.06-.02.06-.06v-3.92s.01-.07.04-.1c.03-.03.06-.04.1-.04h1.16s.07.01.1.04c.03.03.04.06.04.1v5.53s-.01.07-.04.1Z"
      style="fill: #fff;" />
    <path
      d="M59.02,154.96s-.06.04-.1.04h-8.11s-.07-.01-.1-.04c-.03-.03-.04-.06-.04-.1v-1.4s.01-.07.04-.1.06-.04.1-.04h6.74s.06-.02.06-.06v-3.92s.01-.07.04-.1c.03-.03.06-.04.1-.04h1.16s.07.01.1.04c.03.03.04.06.04.1v5.53s-.01.07-.04.1Z"
      style="fill: #fff;" />
    <path
      d="M52.07,142.11s.04.06.04.1v3.94s.02.06.06.06h1.86s.06-.02.06-.06v-2.58s.01-.07.04-.1c.03-.03.06-.04.1-.04h1.16s.07.01.1.04c.03.03.04.06.04.1v2.58s.02.06.06.06h1.94s.06-.02.06-.06v-3.94s.01-.07.04-.1c.03-.03.06-.04.1-.04h1.16s.07.01.1.04c.03.03.04.06.04.1v5.54s-.01.07-.04.1c-.03.03-.06.04-.1.04h-8.11s-.07-.01-.1-.04c-.03-.03-.04-.06-.04-.1v-5.54s.01-.07.04-.1c.03-.03.06-.04.1-.04h1.16s.07.01.1.04Z"
      style="fill: #fff;" />
  </g>
  <rect x="84.28" y=".14" width="42.52" height="283.46" style="fill: #010101;" />
  <rect x="84.28" y=".14" width="42.52" height="283.46" style="fill: none; stroke: #e50695; stroke-width: .29px;" />
  <rect x="84.28" y=".14" width="42.52" height="283.46" style="fill: #010101;" />
  <rect x="84.28" y=".14" width="42.52" height="283.46" style="fill: none; stroke: #e50695; stroke-width: .29px;" />
  <path d="M110.5,21.01c0,2.74-2.22,4.96-4.96,4.96s-4.96-2.22-4.96-4.96,2.22-4.96,4.96-4.96,4.96,2.22,4.96,4.96"
    style="fill: #fff;" />
  <path d="M110.5,21.01c0,2.74-2.22,4.96-4.96,4.96s-4.96-2.22-4.96-4.96,2.22-4.96,4.96-4.96,4.96,2.22,4.96,4.96"
    style="fill: none; stroke: #e50695; stroke-width: .5px;" />
  <g>
    <path
      d="M109.6,213.23l-3.32,1.5s-.05.04-.05.07v1.12s.02.06.06.06h3.28s.07.01.1.04c.03.03.04.06.04.1v1.4s-.01.07-.04.1c-.03.03-.06.04-.1.04h-8.11s-.07-.01-.1-.04c-.03-.03-.04-.06-.04-.1v-3.43c0-.51.1-.96.31-1.35.21-.39.5-.69.89-.9.38-.21.83-.32,1.33-.32.54,0,1.01.14,1.4.41.39.27.66.65.82,1.14.02.04.04.05.08.04l3.4-1.63s.06-.02.07-.02c.06,0,.1.04.1.13v1.48c0,.08-.04.14-.11.17ZM102.82,215.97h2.05s.06-.02.06-.06v-1.57c0-.34-.1-.61-.3-.82-.2-.21-.46-.32-.78-.32s-.58.11-.79.32-.31.49-.31.82v1.57s.02.06.06.06Z"
      style="fill: #fff;" />
    <path
      d="M102.71,204.28s.04.06.04.1v3.94s.02.06.06.06h1.86s.06-.02.06-.06v-2.58s.01-.07.04-.1c.03-.03.06-.04.1-.04h1.16s.07.01.1.04c.03.03.04.06.04.1v2.58s.02.06.06.06h1.94s.06-.02.06-.06v-3.94s.01-.07.04-.1c.03-.03.06-.04.1-.04h1.16s.07.01.1.04c.03.03.04.06.04.1v5.54s-.01.07-.04.1c-.03.03-.06.04-.1.04h-8.11s-.07-.01-.1-.04c-.03-.03-.04-.06-.04-.1v-5.54s.01-.07.04-.1c.03-.03.06-.04.1-.04h1.16s.07.01.1.04Z"
      style="fill: #fff;" />
    <path
      d="M109.58,197.65l-1.18.36s-.05.04-.05.06v2.95s.02.04.05.06l1.18.35c.08.02.12.08.12.16v1.52s-.01.08-.04.11c-.03.02-.07.03-.13.01l-8.11-2.59c-.08-.02-.12-.08-.12-.16v-1.88c0-.08.04-.13.12-.16l8.11-2.59s.04-.01.06-.01c.07,0,.11.04.11.13v1.52c0,.08-.04.13-.12.16ZM107.05,200.6v-2.11s-.02-.06-.07-.05l-3.56,1.08s-.05.02-.04.04c0,.02.02.03.04.04l3.56,1.06s.07,0,.07-.05Z"
      style="fill: #fff;" />
    <path
      d="M109.66,194.5s-.06.04-.1.04h-8.11s-.07-.01-.1-.04c-.03-.03-.04-.06-.04-.1v-1.4s.01-.07.04-.1.06-.04.1-.04h6.74s.06-.02.06-.06v-3.92s.01-.07.04-.1c.03-.03.06-.04.1-.04h1.16s.07.01.1.04c.03.03.04.06.04.1v5.53s-.01.07-.04.1Z"
      style="fill: #fff;" />
    <path
      d="M109.66,184.77s-.06.04-.1.04h-8.11s-.07-.01-.1-.04c-.03-.03-.04-.06-.04-.1v-1.4s.01-.07.04-.1.06-.04.1-.04h6.74s.06-.02.06-.06v-3.92s.01-.07.04-.1c.03-.03.06-.04.1-.04h1.16s.07.01.1.04c.03.03.04.06.04.1v5.53s-.01.07-.04.1Z"
      style="fill: #fff;" />
    <path
      d="M102.71,171.92s.04.06.04.1v3.94s.02.06.06.06h1.86s.06-.02.06-.06v-2.58s.01-.07.04-.1c.03-.03.06-.04.1-.04h1.16s.07.01.1.04c.03.03.04.06.04.1v2.58s.02.06.06.06h1.94s.06-.02.06-.06v-3.94s.01-.07.04-.1c.03-.03.06-.04.1-.04h1.16s.07.01.1.04c.03.03.04.06.04.1v5.54s-.01.07-.04.1c-.03.03-.06.04-.1.04h-8.11s-.07-.01-.1-.04c-.03-.03-.04-.06-.04-.1v-5.54s.01-.07.04-.1c.03-.03.06-.04.1-.04h1.16s.07.01.1.04Z"
      style="fill: #fff;" />
    <path
      d="M109.58,165.29l-1.18.36s-.05.04-.05.06v2.95s.02.04.05.06l1.18.35c.08.02.12.08.12.16v1.52s-.01.08-.04.11c-.03.02-.07.03-.13.01l-8.11-2.59c-.08-.02-.12-.08-.12-.16v-1.88c0-.08.04-.13.12-.16l8.11-2.59s.04-.01.06-.01c.07,0,.11.04.11.13v1.52c0,.08-.04.13-.12.16ZM107.05,168.24v-2.11s-.02-.06-.07-.05l-3.56,1.08s-.05.02-.04.04c0,.02.02.03.04.04l3.56,1.06s.07,0,.07-.05Z"
      style="fill: #fff;" />
    <path
      d="M101.35,157.3s.06-.04.1-.04h1.18s.07.01.1.04c.03.03.04.06.04.1v2.15s.02.06.06.06h6.73s.07.01.1.04c.03.03.04.06.04.1v1.4s-.01.07-.04.1c-.03.03-.06.04-.1.04h-6.73s-.06.02-.06.06v2.09s-.01.07-.04.1c-.03.03-.06.04-.1.04h-1.18s-.07-.01-.1-.04-.04-.06-.04-.1v-6.05s.01-.07.04-.1Z"
      style="fill: #fff;" />
    <path
      d="M101.35,151.43s-.04-.06-.04-.1v-1.4s.01-.07.04-.1c.03-.03.06-.04.1-.04h8.11s.07.01.1.04c.03.03.04.06.04.1v1.4s-.01.07-.04.1c-.03.03-.06.04-.1.04h-3.31s-.06.02-.06.06v2.65s.02.06.06.06h3.31s.07.01.1.04c.03.03.04.06.04.1v1.4s-.01.07-.04.1c-.03.03-.06.04-.1.04h-8.11s-.07-.01-.1-.04c-.03-.03-.04-.06-.04-.1v-1.4s.01-.07.04-.1.06-.04.1-.04h3.23s.06-.02.06-.06v-2.65s-.02-.06-.06-.06h-3.23s-.07-.01-.1-.04Z"
      style="fill: #fff;" />
    <path
      d="M102.71,142.37s.04.06.04.1v3.94s.02.06.06.06h1.86s.06-.02.06-.06v-2.58s.01-.07.04-.1c.03-.03.06-.04.1-.04h1.16s.07.01.1.04c.03.03.04.06.04.1v2.58s.02.06.06.06h1.94s.06-.02.06-.06v-3.94s.01-.07.04-.1c.03-.03.06-.04.1-.04h1.16s.07.01.1.04c.03.03.04.06.04.1v5.54s-.01.07-.04.1c-.03.03-.06.04-.1.04h-8.11s-.07-.01-.1-.04c-.03-.03-.04-.06-.04-.1v-5.54s.01-.07.04-.1c.03-.03.06-.04.1-.04h1.16s.07.01.1.04Z"
      style="fill: #fff;" />
    <path
      d="M109.6,136.49l-3.32,1.5s-.05.04-.05.07v1.12s.02.06.06.06h3.28s.07.01.1.04c.03.03.04.06.04.1v1.4s-.01.07-.04.1c-.03.03-.06.04-.1.04h-8.11s-.07-.01-.1-.04c-.03-.03-.04-.06-.04-.1v-3.43c0-.51.1-.96.31-1.35.21-.39.5-.69.89-.9.38-.21.83-.32,1.33-.32.54,0,1.01.14,1.4.41.39.27.66.65.82,1.14.02.04.04.05.08.04l3.4-1.63s.06-.02.07-.02c.06,0,.1.04.1.13v1.48c0,.08-.04.14-.11.17ZM102.82,139.24h2.05s.06-.02.06-.06v-1.57c0-.34-.1-.61-.3-.82-.2-.21-.46-.32-.78-.32s-.58.11-.79.32-.31.49-.31.82v1.57s.02.06.06.06Z"
      style="fill: #fff;" />
  </g>
  <path
    d="M91.9,38.67v-3.14s.01-.05.04-.05h.64c.21,0,.38.08.51.23.13.16.19.36.19.62v1.51c0,.26-.06.47-.19.63-.13.16-.3.23-.51.23h-.64s-.04-.01-.04-.05M92.21,38.43h.37c.12,0,.22-.06.29-.16.07-.11.11-.25.11-.43v-1.49c0-.18-.04-.32-.11-.43-.07-.11-.17-.16-.3-.16h-.37s-.02,0-.02.02v2.62s0,.02.02.02"
    style="fill: #fff;" />
  <path d="M93.71,38.67v-3.14s.01-.05.04-.05h.21s.04.02.04.05v3.14s-.02.05-.04.05h-.21s-.04-.02-.04-.05"
    style="fill: #fff;" />
  <path
    d="M95.75,35.77h-.96s-.02,0-.02.02v1.15s0,.02.02.02h.6s.04.02.04.05v.2s-.02.05-.04.05h-.6s-.02,0-.02.02v1.41s-.01.05-.04.05h-.21s-.04-.02-.04-.05v-3.14s.01-.05.04-.05h1.23s.04.01.04.05v.19s-.01.05-.04.05"
    style="fill: #fff;" />
  <path
    d="M97.31,35.77h-.96s-.02,0-.02.02v1.15s0,.02.02.02h.6s.04.02.04.05v.2s-.02.05-.04.05h-.6s-.02,0-.02.02v1.41s-.01.05-.04.05h-.21s-.04-.02-.04-.05v-3.14s.01-.05.04-.05h1.23s.04.01.04.05v.19s-.01.05-.04.05"
    style="fill: #fff;" />
  <path
    d="M98.87,35.77h-.96s-.02,0-.02.02v1.15s0,.02.02.02h.61s.04.02.04.05v.2s-.01.05-.04.05h-.61s-.02,0-.02.02v1.15s0,.02.02.02h.96s.04.02.04.05v.19s-.02.05-.04.05h-1.23s-.04-.02-.04-.05v-3.14s.01-.05.04-.05h1.23s.04.01.04.05v.19s-.02.05-.04.05"
    style="fill: #fff;" />
  <path
    d="M100.37,38.68l-.43-1.44s0-.01-.02-.01h-.36s-.02,0-.02.02v1.42s-.01.05-.04.05h-.21s-.04-.02-.04-.05v-3.15s.01-.05.04-.05h.68c.2,0,.37.08.49.24.12.16.19.38.19.64,0,.2-.04.38-.12.52-.08.15-.18.24-.32.3-.01,0-.01,0-.01.02l.45,1.45v.02s0,.03-.03.03h-.22s-.04-.01-.05-.04M99.55,35.78v1.16s0,.02.02.02h.37c.13,0,.23-.05.31-.16.08-.11.12-.25.12-.43s-.04-.33-.12-.44c-.08-.11-.18-.16-.31-.16h-.37s-.02,0-.02.02"
    style="fill: #fff;" />
  <path
    d="M102.25,35.77h-.96s-.02,0-.02.02v1.15s0,.02.02.02h.61s.04.02.04.05v.2s-.01.05-.04.05h-.61s-.02,0-.02.02v1.15s0,.02.02.02h.96s.04.02.04.05v.19s-.02.05-.04.05h-1.23s-.04-.02-.04-.05v-3.14s.01-.05.04-.05h1.23s.04.01.04.05v.19s-.02.05-.04.05"
    style="fill: #fff;" />
  <path
    d="M102.64,38.67v-3.14s.01-.05.04-.05h.22s.04.01.05.04l.84,2.33s0,.01.01.01,0,0,0-.01v-2.32s.01-.05.04-.05h.21s.04.02.04.05v3.14s-.01.05-.04.05h-.22s-.04-.01-.05-.04l-.84-2.33s0-.01-.01-.01c0,0,0,0,0,.02v2.31s-.01.05-.04.05h-.21s-.04-.02-.04-.05"
    style="fill: #fff;" />
  <path
    d="M104.41,38.67v-.21s0-.03.01-.06l1.01-2.61s0-.01,0-.02c0,0,0,0-.01,0h-.97s-.04-.02-.04-.05v-.19s.01-.05.04-.05h1.26s.04.02.04.05v.21s0,.03-.01.06l-1.01,2.61s0,.01,0,.02c0,0,0,0,.01,0h.96s.04.02.04.05v.19s-.01.05-.04.05h-1.26s-.04-.02-.04-.05"
    style="fill: #fff;" />
  <path d="M106.09,38.67v-3.14s.01-.05.04-.05h.21s.04.02.04.05v3.14s-.01.05-.04.05h-.21s-.04-.02-.04-.05"
    style="fill: #fff;" />
  <path
    d="M108.01,38.67l-.1-.57s0-.01,0-.01c0,0,0,0-.02,0h-.75s-.01,0-.01,0c0,0,0,0,0,.01l-.11.57s-.02.04-.05.04h-.21s-.02,0-.03-.01c0,0,0-.02,0-.04l.63-3.14s.02-.04.05-.04h.25s.04.01.05.04l.63,3.14h0s-.01.05-.04.05h-.22s-.04-.01-.05-.04M107.18,37.81h.65s.01,0,.01-.02l-.33-1.78s0-.01,0-.01c0,0,0,0,0,.01l-.33,1.78s0,.02.01.02"
    style="fill: #fff;" />
  <path d="M109.34,38.67v-3.14s.01-.05.04-.05h.21s.04.02.04.05v3.14s-.02.05-.04.05h-.21s-.04-.02-.04-.05"
    style="fill: #fff;" />
  <path
    d="M111.94,38.68l-.43-1.44s0-.01-.02-.01h-.36s-.02,0-.02.02v1.42s-.01.05-.04.05h-.21s-.04-.02-.04-.05v-3.15s.01-.05.04-.05h.68c.2,0,.37.08.49.24.12.16.19.38.19.64,0,.2-.04.38-.12.52-.08.15-.18.24-.32.3-.01,0-.01,0-.01.02l.45,1.45v.02s0,.03-.03.03h-.22s-.04-.01-.05-.04M111.12,35.78v1.16s0,.02.02.02h.37c.13,0,.23-.05.31-.16.08-.11.12-.25.12-.43s-.04-.33-.12-.44c-.08-.11-.18-.16-.31-.16h-.37s-.02,0-.02.02"
    style="fill: #fff;" />
  <path d="M112.55,38.67v-3.14s.01-.05.04-.05h.21s.04.02.04.05v3.14s-.01.05-.04.05h-.21s-.04-.02-.04-.05"
    style="fill: #fff;" />
  <path
    d="M114.59,35.77h-.96s-.02,0-.02.02v1.15s0,.02.02.02h.6s.04.02.04.05v.2s-.02.05-.04.05h-.6s-.02,0-.02.02v1.41s-.01.05-.04.05h-.21s-.04-.02-.04-.05v-3.14s.01-.05.04-.05h1.23s.04.01.04.05v.19s-.01.05-.04.05"
    style="fill: #fff;" />
  <path d="M114.88,38.67v-3.14s.01-.05.04-.05h.21s.04.02.04.05v3.14s-.01.05-.04.05h-.21s-.04-.02-.04-.05"
    style="fill: #fff;" />
  <path
    d="M115.82,38.51c-.13-.16-.2-.38-.2-.65v-2.33s.01-.05.04-.05h.21s.04.02.04.05v2.37c0,.17.04.31.11.41.08.1.18.16.3.16s.23-.05.31-.16c.08-.1.12-.24.12-.41v-2.37s.01-.05.04-.05h.21s.04.02.04.05v2.33c0,.27-.07.48-.2.65-.13.16-.31.25-.52.25s-.39-.08-.52-.25"
    style="fill: #fff;" />
  <path
    d="M118.82,35.53v.19s-.01.05-.04.05h-.55s-.02,0-.02.02v2.88s-.01.05-.04.05h-.21s-.04-.02-.04-.05v-2.88s0-.02-.02-.02h-.52s-.04-.02-.04-.05v-.19s.01-.05.04-.05h1.39s.04.02.04.05"
    style="fill: #fff;" />
  <path d="M119.14,38.67v-3.14s.01-.05.04-.05h.21s.04.02.04.05v3.14s-.01.05-.04.05h-.21s-.04-.02-.04-.05"
    style="fill: #fff;" />
  <path
    d="M91.69,74.14c-.13-.15-.19-.35-.19-.59v-.11s.01-.05.04-.05h.21s.04.02.04.05v.1c0,.16.04.29.11.4.08.1.17.15.29.15s.21-.05.29-.14c.08-.1.12-.22.12-.38,0-.1-.02-.19-.06-.27-.04-.07-.09-.14-.15-.2-.06-.06-.16-.14-.3-.26-.14-.11-.25-.21-.33-.29-.08-.08-.15-.18-.2-.29-.05-.11-.08-.25-.08-.4,0-.24.06-.43.19-.57.12-.14.29-.21.49-.21.21,0,.38.08.51.23.12.15.19.35.19.61v.12s-.01.05-.04.05h-.21s-.04-.02-.04-.05v-.12c0-.16-.04-.29-.11-.39-.07-.1-.17-.15-.29-.15-.11,0-.2.04-.27.13-.07.09-.11.21-.11.37,0,.1.02.18.05.25.03.07.08.14.14.21.06.07.16.15.28.25.17.14.29.25.37.33.08.09.15.18.19.28.04.1.07.22.07.36,0,.25-.07.46-.2.61-.13.15-.3.23-.5.23s-.37-.08-.5-.23"
    style="fill: #fff;" />
  <path
    d="M94.48,71.38h-.96s-.02,0-.02.02v1.15s0,.02.02.02h.61s.04.02.04.05v.2s-.01.05-.04.05h-.61s-.02,0-.02.02v1.15s0,.02.02.02h.96s.04.02.04.05v.19s-.01.05-.04.05h-1.23s-.04-.02-.04-.05v-3.14s.01-.05.04-.05h1.23s.04.01.04.05v.19s-.01.05-.04.05"
    style="fill: #fff;" />
  <path
    d="M96.08,71.34c.12.17.19.38.19.65s-.06.48-.18.64c-.12.16-.28.24-.48.24h-.43s-.02,0-.02.02v1.4s-.01.05-.04.05h-.21s-.04-.02-.04-.05v-3.15s.02-.05.04-.05h.69c.2,0,.37.08.49.25M95.86,72.43c.08-.11.12-.26.12-.44s-.04-.33-.12-.45c-.08-.11-.18-.17-.3-.17h-.38s-.02,0-.02.02v1.19s0,.02.02.02h.38c.12,0,.23-.06.3-.17"
    style="fill: #fff;" />
  <path
    d="M97.62,74.28l-.1-.57s0-.01,0-.01c0,0,0,0-.01,0h-.75s-.01,0-.01,0c0,0,0,0,0,.01l-.11.57s-.02.04-.05.04h-.21s-.02,0-.03-.01c0,0,0-.02,0-.04l.63-3.14s.02-.04.05-.04h.25s.04.01.05.04l.63,3.14h0s-.01.05-.04.05h-.22s-.04-.01-.05-.04M96.79,73.43h.65s.01,0,.01-.02l-.33-1.78s0-.01,0-.01c0,0,0,0,0,.01l-.33,1.78s0,.02.01.02"
    style="fill: #fff;" />
  <path
    d="M99.36,74.29l-.43-1.44s0-.01-.02-.01h-.36s-.02,0-.02.02v1.42s-.01.05-.04.05h-.21s-.04-.02-.04-.05v-3.15s.01-.05.04-.05h.68c.2,0,.37.08.49.24.12.16.19.38.19.64,0,.2-.04.38-.12.52-.08.15-.18.24-.32.3-.01,0-.01,0-.01.02l.45,1.45v.02s0,.03-.03.03h-.22s-.04-.01-.05-.04M98.54,71.39v1.16s0,.02.02.02h.38c.13,0,.23-.05.31-.16.08-.11.12-.25.12-.43s-.04-.33-.12-.44c-.08-.11-.18-.16-.31-.16h-.38s-.02,0-.02.02"
    style="fill: #fff;" />
  <path
    d="M101.16,74.28l-.1-.57s0-.01,0-.01c0,0,0,0-.02,0h-.75s-.01,0-.01,0c0,0,0,0,0,.01l-.11.57s-.02.04-.05.04h-.21s-.02,0-.03-.01c0,0,0-.02,0-.04l.63-3.14s.02-.04.05-.04h.25s.04.01.05.04l.63,3.14h0s-.01.05-.04.05h-.22s-.04-.01-.05-.04M100.33,73.43h.65s.01,0,.01-.02l-.33-1.78s0-.01,0-.01c0,0,0,0,0,.01l-.33,1.78s0,.02.01.02"
    style="fill: #fff;" />
  <path
    d="M102.85,71.14v.19s-.01.05-.04.05h-.55s-.02,0-.02.02v2.88s-.01.05-.04.05h-.21s-.04-.02-.04-.05v-2.88s0-.02-.02-.02h-.52s-.04-.02-.04-.05v-.19s.01-.05.04-.05h1.39s.04.02.04.05"
    style="fill: #fff;" />
  <path
    d="M104.44,71.38h-.96s-.02,0-.02.02v1.15s0,.02.02.02h.61s.04.02.04.05v.2s-.01.05-.04.05h-.61s-.02,0-.02.02v1.15s0,.02.02.02h.96s.04.02.04.05v.19s-.01.05-.04.05h-1.23s-.04-.02-.04-.05v-3.14s.01-.05.04-.05h1.23s.04.01.04.05v.19s-.01.05-.04.05"
    style="fill: #fff;" />
  <path
    d="M106.86,71.14v.19s-.01.05-.04.05h-.55s-.02,0-.02.02v2.88s-.01.05-.04.05h-.21s-.04-.02-.04-.05v-2.88s0-.02-.02-.02h-.52s-.04-.02-.04-.05v-.19s.01-.05.04-.05h1.39s.04.02.04.05"
    style="fill: #fff;" />
  <path
    d="M108.29,71.09h.21s.04.02.04.05v3.14s-.01.05-.04.05h-.21s-.04-.02-.04-.05v-1.41s0-.02-.02-.02h-.74s-.02,0-.02.02v1.41s-.01.05-.04.05h-.21s-.04-.02-.04-.05v-3.14s.01-.05.04-.05h.21s.04.02.04.05v1.4s0,.02.02.02h.74s.02,0,.02-.02v-1.4s.01-.05.04-.05"
    style="fill: #fff;" />
  <path
    d="M110.26,71.38h-.96s-.02,0-.02.02v1.15s0,.02.02.02h.61s.04.02.04.05v.2s-.01.05-.04.05h-.61s-.02,0-.02.02v1.15s0,.02.02.02h.96s.04.02.04.05v.19s-.01.05-.04.05h-1.23s-.04-.02-.04-.05v-3.14s.01-.05.04-.05h1.23s.04.01.04.05v.19s-.01.05-.04.05"
    style="fill: #fff;" />
  <path
    d="M111.73,74.28l-.55-3.14h0s.01-.05.04-.05h.22s.04.01.04.04l.39,2.43s0,0,0,0,0,0,0,0l.34-2.43s.02-.04.04-.04h.19s.04.01.04.04l.35,2.43s0,0,0,0c0,0,0,0,0,0l.36-2.43s.02-.04.04-.04h.22s.02,0,.03.01c0,0,0,.02,0,.04l-.51,3.14s-.02.04-.05.04h-.2s-.04-.01-.04-.04l-.35-2.44s0,0-.01,0c0,0,0,0,0,0l-.34,2.44s-.02.04-.04.04h-.2s-.04-.01-.05-.04"
    style="fill: #fff;" />
  <path
    d="M114.76,74.28l-.1-.57s0-.01,0-.01c0,0,0,0-.02,0h-.75s-.01,0-.01,0c0,0,0,0,0,.01l-.11.57s-.02.04-.05.04h-.21s-.03,0-.03-.01c0,0,0-.02,0-.04l.63-3.14s.02-.04.05-.04h.25s.04.01.04.04l.63,3.14h0s-.01.05-.04.05h-.21s-.04-.01-.05-.04M113.93,73.43h.65s.01,0,.01-.02l-.33-1.78s0-.01,0-.01c0,0,0,0,0,.01l-.33,1.78s0,.02.01.02"
    style="fill: #fff;" />
  <path
    d="M115.4,74.14c-.13-.15-.19-.35-.19-.59v-.11s.01-.05.04-.05h.21s.04.02.04.05v.1c0,.16.04.29.11.4.08.1.17.15.29.15s.21-.05.29-.14c.08-.1.12-.22.12-.38,0-.1-.02-.19-.06-.27-.04-.07-.09-.14-.15-.2-.06-.06-.16-.14-.3-.26-.14-.11-.25-.21-.33-.29-.08-.08-.15-.18-.2-.29-.05-.11-.08-.25-.08-.4,0-.24.06-.43.19-.57.12-.14.29-.21.49-.21.21,0,.38.08.51.23.13.15.19.35.19.61v.12s-.01.05-.04.05h-.21s-.04-.02-.04-.05v-.12c0-.16-.04-.29-.11-.39-.07-.1-.17-.15-.29-.15-.11,0-.2.04-.27.13-.07.09-.11.21-.11.37,0,.1.02.18.05.25.03.07.08.14.14.21.06.07.16.15.28.25.17.14.29.25.37.33.08.09.15.18.19.28.04.1.07.22.07.36,0,.25-.07.46-.2.61-.13.15-.3.23-.5.23s-.37-.08-.5-.23"
    style="fill: #fff;" />
  <path
    d="M118.2,71.14v.19s-.01.05-.04.05h-.55s-.02,0-.02.02v2.88s-.01.05-.04.05h-.21s-.04-.02-.04-.05v-2.88s0-.02-.02-.02h-.52s-.04-.02-.04-.05v-.19s.01-.05.04-.05h1.39s.04.02.04.05"
    style="fill: #fff;" />
  <path
    d="M119.8,71.38h-.96s-.02,0-.02.02v1.15s0,.02.02.02h.61s.04.02.04.05v.2s-.01.05-.04.05h-.61s-.02,0-.02.02v1.15s0,.02.02.02h.96s.04.02.04.05v.19s-.02.05-.04.05h-1.23s-.04-.02-.04-.05v-3.14s.01-.05.04-.05h1.23s.04.01.04.05v.19s-.02.05-.04.05"
    style="fill: #fff;" />
  <rect x="90.69" y="39.94" width="29.76" height="29.98" style="fill: #fff;" />
  <rect x="91.42" y="40.74" width="28.35" height="28.35" style="fill: #fff;" />
  <path
    d="M91.42,41.6h.86v-.86h-.86v.86ZM92.28,41.6h.86v-.86h-.86v.86ZM93.14,41.6h.86v-.86h-.86v.86ZM94,41.6h.86v-.86h-.86v.86ZM94.86,41.6h.86v-.86h-.86v.86ZM95.72,41.6h.86v-.86h-.86v.86ZM96.58,41.6h.86v-.86h-.86v.86Z"
    style="fill: #363a47;" />
  <rect x="97.44" y="40.74" width=".86" height=".86" style="fill: #fff;" />
  <rect x="98.3" y="40.74" width=".86" height=".86" style="fill: #363a47;" />
  <rect x="99.15" y="40.74" width=".86" height=".86" style="fill: #fff;" />
  <rect x="100.01" y="40.74" width=".86" height=".86" style="fill: #363a47;" />
  <rect x="100.87" y="40.74" width=".86" height=".86" style="fill: #fff;" />
  <rect x="101.73" y="40.74" width=".86" height=".86" style="fill: #363a47;" />
  <rect x="102.59" y="40.74" width=".86" height=".86" style="fill: #fff;" />
  <rect x="103.45" y="40.74" width=".86" height=".86" style="fill: #363a47;" />
  <path d="M104.31,41.6h.86v-.86h-.86v.86ZM105.17,41.6h.86v-.86h-.86v.86Z" style="fill: #fff;" />
  <path d="M106.03,41.6h.86v-.86h-.86v.86ZM106.89,41.6h.86v-.86h-.86v.86ZM107.74,41.6h.86v-.86h-.86v.86Z"
    style="fill: #363a47;" />
  <rect x="108.6" y="40.74" width=".86" height=".86" style="fill: #fff;" />
  <rect x="109.46" y="40.74" width=".86" height=".86" style="fill: #363a47;" />
  <rect x="110.32" y="40.74" width=".86" height=".86" style="fill: #fff;" />
  <path d="M111.18,41.6h.86v-.86h-.86v.86ZM112.04,41.6h.86v-.86h-.86v.86Z" style="fill: #363a47;" />
  <rect x="112.9" y="40.74" width=".86" height=".86" style="fill: #fff;" />
  <path
    d="M91.42,41.6h.86v.86h-.86v-.86ZM118.91,40.74h.86v.86h-.86v-.86ZM118.05,40.74h.86v.86h-.86v-.86ZM117.19,40.74h.86v.86h-.86v-.86ZM116.33,40.74h.86v.86h-.86v-.86ZM115.47,40.74h.86v.86h-.86v-.86ZM114.62,40.74h.86v.86h-.86v-.86ZM113.76,40.74h.86v.86h-.86v-.86Z"
    style="fill: #363a47;" />
  <path
    d="M92.28,42.46h.86v-.86h-.86v.86ZM93.14,42.46h.86v-.86h-.86v.86ZM94,42.46h.86v-.86h-.86v.86ZM94.86,42.46h.86v-.86h-.86v.86ZM95.72,42.46h.86v-.86h-.86v.86Z"
    style="fill: #fff;" />
  <rect x="96.58" y="41.6" width=".86" height=".86" style="fill: #363a47;" />
  <rect x="97.44" y="41.6" width=".86" height=".86" style="fill: #fff;" />
  <rect x="98.3" y="41.6" width=".86" height=".86" style="fill: #363a47;" />
  <rect x="99.15" y="41.6" width=".86" height=".86" style="fill: #fff;" />
  <path d="M100.01,42.46h.86v-.86h-.86v.86ZM100.87,42.46h.86v-.86h-.86v.86Z" style="fill: #363a47;" />
  <path d="M101.73,42.46h.86v-.86h-.86v.86ZM102.59,42.46h.86v-.86h-.86v.86ZM103.45,42.46h.86v-.86h-.86v.86Z"
    style="fill: #fff;" />
  <path d="M104.31,42.46h.86v-.86h-.86v.86ZM105.17,42.46h.86v-.86h-.86v.86ZM106.03,42.46h.86v-.86h-.86v.86Z"
    style="fill: #363a47;" />
  <rect x="106.89" y="41.6" width=".86" height=".86" style="fill: #fff;" />
  <rect x="107.74" y="41.6" width=".86" height=".86" style="fill: #363a47;" />
  <path
    d="M108.6,42.46h.86v-.86h-.86v.86ZM109.46,42.46h.86v-.86h-.86v.86ZM110.32,42.46h.86v-.86h-.86v.86ZM111.18,42.46h.86v-.86h-.86v.86Z"
    style="fill: #fff;" />
  <rect x="112.04" y="41.6" width=".86" height=".86" style="fill: #363a47;" />
  <rect x="112.9" y="41.6" width=".86" height=".86" style="fill: #fff;" />
  <rect x="113.76" y="41.6" width=".86" height=".86" style="fill: #363a47;" />
  <path
    d="M114.62,42.46h.86v-.86h-.86v.86ZM115.47,42.46h.86v-.86h-.86v.86ZM116.33,42.46h.86v-.86h-.86v.86ZM117.19,42.46h.86v-.86h-.86v.86ZM118.05,42.46h.86v-.86h-.86v.86Z"
    style="fill: #fff;" />
  <path d="M91.42,42.46h.86v.86h-.86v-.86ZM118.91,41.6h.86v.86h-.86v-.86Z" style="fill: #363a47;" />
  <rect x="92.28" y="42.46" width=".86" height=".86" style="fill: #fff;" />
  <path d="M93.14,43.32h.86v-.86h-.86v.86ZM94,43.32h.86v-.86h-.86v.86ZM94.86,43.32h.86v-.86h-.86v.86Z"
    style="fill: #363a47;" />
  <rect x="95.72" y="42.46" width=".86" height=".86" style="fill: #fff;" />
  <rect x="96.58" y="42.46" width=".86" height=".86" style="fill: #363a47;" />
  <rect x="97.44" y="42.46" width=".86" height=".86" style="fill: #fff;" />
  <rect x="98.3" y="42.46" width=".86" height=".86" style="fill: #363a47;" />
  <rect x="99.15" y="42.46" width=".86" height=".86" style="fill: #fff;" />
  <rect x="100.01" y="42.46" width=".86" height=".86" style="fill: #363a47;" />
  <rect x="100.87" y="42.46" width=".86" height=".86" style="fill: #fff;" />
  <path d="M101.73,43.32h.86v-.86h-.86v.86ZM102.59,43.32h.86v-.86h-.86v.86ZM103.45,43.32h.86v-.86h-.86v.86Z"
    style="fill: #363a47;" />
  <path d="M104.31,43.32h.86v-.86h-.86v.86ZM105.17,43.32h.86v-.86h-.86v.86Z" style="fill: #fff;" />
  <rect x="106.03" y="42.46" width=".86" height=".86" style="fill: #363a47;" />
  <path d="M106.89,43.32h.86v-.86h-.86v.86ZM107.74,43.32h.86v-.86h-.86v.86Z" style="fill: #fff;" />
  <path
    d="M108.6,43.32h.86v-.86h-.86v.86ZM109.46,43.32h.86v-.86h-.86v.86ZM110.32,43.32h.86v-.86h-.86v.86ZM111.18,43.32h.86v-.86h-.86v.86ZM112.04,43.32h.86v-.86h-.86v.86Z"
    style="fill: #363a47;" />
  <rect x="112.9" y="42.46" width=".86" height=".86" style="fill: #fff;" />
  <rect x="113.76" y="42.46" width=".86" height=".86" style="fill: #363a47;" />
  <rect x="114.62" y="42.46" width=".86" height=".86" style="fill: #fff;" />
  <path d="M115.47,43.32h.86v-.86h-.86v.86ZM116.33,43.32h.86v-.86h-.86v.86ZM117.19,43.32h.86v-.86h-.86v.86Z"
    style="fill: #363a47;" />
  <rect x="118.05" y="42.46" width=".86" height=".86" style="fill: #fff;" />
  <path d="M91.42,43.32h.86v.86h-.86v-.86ZM118.91,42.46h.86v.86h-.86v-.86Z" style="fill: #363a47;" />
  <rect x="92.28" y="43.32" width=".86" height=".86" style="fill: #fff;" />
  <path d="M93.14,44.18h.86v-.86h-.86v.86ZM94,44.18h.86v-.86h-.86v.86ZM94.86,44.18h.86v-.86h-.86v.86Z"
    style="fill: #363a47;" />
  <rect x="95.72" y="43.32" width=".86" height=".86" style="fill: #fff;" />
  <rect x="96.58" y="43.32" width=".86" height=".86" style="fill: #363a47;" />
  <path d="M97.44,44.18h.86v-.86h-.86v.86ZM98.3,44.18h.86v-.86h-.86v.86Z" style="fill: #fff;" />
  <rect x="99.15" y="43.32" width=".86" height=".86" style="fill: #363a47;" />
  <path d="M100.01,44.18h.86v-.86h-.86v.86ZM100.87,44.18h.86v-.86h-.86v.86Z" style="fill: #fff;" />
  <path d="M101.73,44.18h.86v-.86h-.86v.86ZM102.59,44.18h.86v-.86h-.86v.86ZM103.45,44.18h.86v-.86h-.86v.86Z"
    style="fill: #363a47;" />
  <rect x="104.31" y="43.32" width=".86" height=".86" style="fill: #fff;" />
  <rect x="105.17" y="43.32" width=".86" height=".86" style="fill: #363a47;" />
  <rect x="106.03" y="43.32" width=".86" height=".86" style="fill: #fff;" />
  <path d="M106.89,44.18h.86v-.86h-.86v.86ZM107.74,44.18h.86v-.86h-.86v.86Z" style="fill: #363a47;" />
  <path d="M108.6,44.18h.86v-.86h-.86v.86ZM109.46,44.18h.86v-.86h-.86v.86Z" style="fill: #fff;" />
  <path d="M110.32,44.18h.86v-.86h-.86v.86ZM111.18,44.18h.86v-.86h-.86v.86ZM112.04,44.18h.86v-.86h-.86v.86Z"
    style="fill: #363a47;" />
  <rect x="112.9" y="43.32" width=".86" height=".86" style="fill: #fff;" />
  <rect x="113.76" y="43.32" width=".86" height=".86" style="fill: #363a47;" />
  <rect x="114.62" y="43.32" width=".86" height=".86" style="fill: #fff;" />
  <path d="M115.47,44.18h.86v-.86h-.86v.86ZM116.33,44.18h.86v-.86h-.86v.86ZM117.19,44.18h.86v-.86h-.86v.86Z"
    style="fill: #363a47;" />
  <rect x="118.05" y="43.32" width=".86" height=".86" style="fill: #fff;" />
  <path d="M91.42,44.18h.86v.86h-.86v-.86ZM118.91,43.32h.86v.86h-.86v-.86Z" style="fill: #363a47;" />
  <rect x="92.28" y="44.18" width=".86" height=".86" style="fill: #fff;" />
  <path d="M93.14,45.04h.86v-.86h-.86v.86ZM94,45.04h.86v-.86h-.86v.86ZM94.86,45.04h.86v-.86h-.86v.86Z"
    style="fill: #363a47;" />
  <rect x="95.72" y="44.18" width=".86" height=".86" style="fill: #fff;" />
  <rect x="96.58" y="44.18" width=".86" height=".86" style="fill: #363a47;" />
  <path d="M97.44,45.04h.86v-.86h-.86v.86ZM98.3,45.04h.86v-.86h-.86v.86Z" style="fill: #fff;" />
  <rect x="99.15" y="44.18" width=".86" height=".86" style="fill: #363a47;" />
  <rect x="100.01" y="44.18" width=".86" height=".86" style="fill: #fff;" />
  <rect x="100.87" y="44.18" width=".86" height=".86" style="fill: #363a47;" />
  <path d="M101.73,45.04h.86v-.86h-.86v.86ZM102.59,45.04h.86v-.86h-.86v.86Z" style="fill: #fff;" />
  <path
    d="M103.45,45.04h.86v-.86h-.86v.86ZM104.31,45.04h.86v-.86h-.86v.86ZM105.17,45.04h.86v-.86h-.86v.86ZM106.03,45.04h.86v-.86h-.86v.86Z"
    style="fill: #363a47;" />
  <path d="M106.89,45.04h.86v-.86h-.86v.86ZM107.74,45.04h.86v-.86h-.86v.86Z" style="fill: #fff;" />
  <rect x="108.6" y="44.18" width=".86" height=".86" style="fill: #363a47;" />
  <rect x="109.46" y="44.18" width=".86" height=".86" style="fill: #fff;" />
  <path d="M110.32,45.04h.86v-.86h-.86v.86ZM111.18,45.04h.86v-.86h-.86v.86Z" style="fill: #363a47;" />
  <path d="M112.04,45.04h.86v-.86h-.86v.86ZM112.9,45.04h.86v-.86h-.86v.86Z" style="fill: #fff;" />
  <rect x="113.76" y="44.18" width=".86" height=".86" style="fill: #363a47;" />
  <rect x="114.62" y="44.18" width=".86" height=".86" style="fill: #fff;" />
  <path d="M115.47,45.04h.86v-.86h-.86v.86ZM116.33,45.04h.86v-.86h-.86v.86ZM117.19,45.04h.86v-.86h-.86v.86Z"
    style="fill: #363a47;" />
  <rect x="118.05" y="44.18" width=".86" height=".86" style="fill: #fff;" />
  <path d="M91.42,45.04h.86v.86h-.86v-.86ZM118.91,44.18h.86v.86h-.86v-.86Z" style="fill: #363a47;" />
  <path
    d="M92.28,45.9h.86v-.86h-.86v.86ZM93.14,45.9h.86v-.86h-.86v.86ZM94,45.9h.86v-.86h-.86v.86ZM94.86,45.9h.86v-.86h-.86v.86ZM95.72,45.9h.86v-.86h-.86v.86Z"
    style="fill: #fff;" />
  <rect x="96.58" y="45.04" width=".86" height=".86" style="fill: #363a47;" />
  <rect x="97.44" y="45.04" width=".86" height=".86" style="fill: #fff;" />
  <rect x="98.3" y="45.04" width=".86" height=".86" style="fill: #363a47;" />
  <path
    d="M99.15,45.9h.86v-.86h-.86v.86ZM100.01,45.9h.86v-.86h-.86v.86ZM100.87,45.9h.86v-.86h-.86v.86ZM101.73,45.9h.86v-.86h-.86v.86Z"
    style="fill: #fff;" />
  <rect x="102.59" y="45.04" width=".86" height=".86" style="fill: #363a47;" />
  <path
    d="M103.45,45.9h.86v-.86h-.86v.86ZM104.31,45.9h.86v-.86h-.86v.86ZM105.17,45.9h.86v-.86h-.86v.86ZM106.03,45.9h.86v-.86h-.86v.86Z"
    style="fill: #fff;" />
  <path d="M106.89,45.9h.86v-.86h-.86v.86ZM108.6,45.04h-.86v.86h1.72v-.86h-.86Z" style="fill: #363a47;" />
  <rect x="109.46" y="45.04" width=".86" height=".86" style="fill: #fff;" />
  <rect x="110.32" y="45.04" width=".86" height=".86" style="fill: #363a47;" />
  <rect x="111.18" y="45.04" width=".86" height=".86" style="fill: #fff;" />
  <rect x="112.04" y="45.04" width=".86" height=".86" style="fill: #363a47;" />
  <rect x="112.9" y="45.04" width=".86" height=".86" style="fill: #fff;" />
  <rect x="113.76" y="45.04" width=".86" height=".86" style="fill: #363a47;" />
  <path
    d="M114.62,45.9h.86v-.86h-.86v.86ZM115.47,45.9h.86v-.86h-.86v.86ZM116.33,45.9h.86v-.86h-.86v.86ZM117.19,45.9h.86v-.86h-.86v.86ZM118.05,45.9h.86v-.86h-.86v.86Z"
    style="fill: #fff;" />
  <path
    d="M96.58,45.9h.86v.86h-.86v-.86ZM95.72,45.9h.86v.86h-.86v-.86ZM94.86,45.9h.86v.86h-.86v-.86ZM94,45.9h.86v.86h-.86v-.86ZM93.14,45.9h.86v.86h-.86v-.86ZM92.28,45.9h.86v.86h-.86v-.86ZM91.42,45.9h.86v.86h-.86v-.86ZM118.91,45.04h.86v.86h-.86v-.86Z"
    style="fill: #363a47;" />
  <rect x="97.44" y="45.9" width=".86" height=".86" style="fill: #fff;" />
  <rect x="98.3" y="45.9" width=".86" height=".86" style="fill: #363a47;" />
  <rect x="99.15" y="45.9" width=".86" height=".86" style="fill: #fff;" />
  <rect x="100.01" y="45.9" width=".86" height=".86" style="fill: #363a47;" />
  <rect x="100.87" y="45.9" width=".86" height=".86" style="fill: #fff;" />
  <rect x="101.73" y="45.9" width=".86" height=".86" style="fill: #363a47;" />
  <rect x="102.59" y="45.9" width=".86" height=".86" style="fill: #fff;" />
  <rect x="103.45" y="45.9" width=".86" height=".86" style="fill: #363a47;" />
  <rect x="104.31" y="45.9" width=".86" height=".86" style="fill: #fff;" />
  <rect x="105.17" y="45.9" width=".86" height=".86" style="fill: #363a47;" />
  <rect x="106.03" y="45.9" width=".86" height=".86" style="fill: #fff;" />
  <rect x="106.89" y="45.9" width=".86" height=".86" style="fill: #363a47;" />
  <rect x="107.74" y="45.9" width=".86" height=".86" style="fill: #fff;" />
  <rect x="108.6" y="45.9" width=".86" height=".86" style="fill: #363a47;" />
  <rect x="109.46" y="45.9" width=".86" height=".86" style="fill: #fff;" />
  <rect x="110.32" y="45.9" width=".86" height=".86" style="fill: #363a47;" />
  <rect x="111.18" y="45.9" width=".86" height=".86" style="fill: #fff;" />
  <rect x="112.04" y="45.9" width=".86" height=".86" style="fill: #363a47;" />
  <rect x="112.9" y="45.9" width=".86" height=".86" style="fill: #fff;" />
  <path
    d="M113.76,46.76h.86v-.86h-.86v.86ZM114.62,46.76h.86v-.86h-.86v.86ZM115.47,46.76h.86v-.86h-.86v.86ZM116.33,46.76h.86v-.86h-.86v.86ZM117.19,46.76h.86v-.86h-.86v.86ZM118.05,46.76h.86v-.86h-.86v.86ZM118.91,46.76h.86v-.86h-.86v.86Z"
    style="fill: #363a47;" />
  <path
    d="M91.42,47.62h.86v-.86h-.86v.86ZM92.28,47.62h.86v-.86h-.86v.86ZM93.14,47.62h.86v-.86h-.86v.86ZM94,47.62h.86v-.86h-.86v.86ZM94.86,47.62h.86v-.86h-.86v.86ZM95.72,47.62h.86v-.86h-.86v.86ZM96.58,47.62h.86v-.86h-.86v.86ZM97.44,47.62h.86v-.86h-.86v.86Z"
    style="fill: #fff;" />
  <rect x="98.3" y="46.76" width=".86" height=".86" style="fill: #363a47;" />
  <rect x="99.15" y="46.76" width=".86" height=".86" style="fill: #fff;" />
  <path d="M100.01,47.62h.86v-.86h-.86v.86ZM100.87,47.62h.86v-.86h-.86v.86Z" style="fill: #363a47;" />
  <rect x="101.73" y="46.76" width=".86" height=".86" style="fill: #fff;" />
  <path d="M102.59,47.62h.86v-.86h-.86v.86ZM103.45,47.62h.86v-.86h-.86v.86ZM104.31,47.62h.86v-.86h-.86v.86Z"
    style="fill: #363a47;" />
  <path
    d="M105.17,47.62h.86v-.86h-.86v.86ZM106.03,47.62h.86v-.86h-.86v.86ZM106.89,47.62h.86v-.86h-.86v.86ZM107.74,47.62h.86v-.86h-.86v.86Z"
    style="fill: #fff;" />
  <path
    d="M108.6,47.62h.86v-.86h-.86v.86ZM109.46,47.62h.86v-.86h-.86v.86ZM110.32,47.62h.86v-.86h-.86v.86ZM111.18,47.62h.86v-.86h-.86v.86Z"
    style="fill: #363a47;" />
  <path
    d="M92.28,47.62h.86v.86h-.86v-.86ZM91.42,47.62h.86v.86h-.86v-.86ZM118.91,46.76h.86v.86h-.86v-.86ZM118.05,46.76h.86v.86h-.86v-.86ZM117.19,46.76h.86v.86h-.86v-.86ZM116.33,46.76h.86v.86h-.86v-.86ZM115.47,46.76h.86v.86h-.86v-.86ZM114.62,46.76h.86v.86h-.86v-.86ZM113.76,46.76h.86v.86h-.86v-.86ZM112.9,46.76h.86v.86h-.86v-.86ZM112.04,46.76h.86v.86h-.86v-.86Z"
    style="fill: #fff;" />
  <path d="M93.14,48.48h.86v-.86h-.86v.86ZM94,48.48h.86v-.86h-.86v.86ZM94.86,48.48h.86v-.86h-.86v.86Z"
    style="fill: #363a47;" />
  <rect x="95.72" y="47.62" width=".86" height=".86" style="fill: #fff;" />
  <rect x="96.58" y="47.62" width=".86" height=".86" style="fill: #363a47;" />
  <rect x="97.44" y="47.62" width=".86" height=".86" style="fill: #fff;" />
  <path d="M98.3,48.48h.86v-.86h-.86v.86ZM99.15,48.48h.86v-.86h-.86v.86Z" style="fill: #363a47;" />
  <rect x="100.01" y="47.62" width=".86" height=".86" style="fill: #fff;" />
  <rect x="100.87" y="47.62" width=".86" height=".86" style="fill: #363a47;" />
  <path d="M101.73,48.48h.86v-.86h-.86v.86ZM102.59,48.48h.86v-.86h-.86v.86Z" style="fill: #fff;" />
  <path
    d="M103.45,48.48h.86v-.86h-.86v.86ZM104.31,48.48h.86v-.86h-.86v.86ZM105.17,48.48h.86v-.86h-.86v.86ZM106.03,48.48h.86v-.86h-.86v.86Z"
    style="fill: #363a47;" />
  <path d="M106.89,48.48h.86v-.86h-.86v.86ZM107.74,48.48h.86v-.86h-.86v.86Z" style="fill: #fff;" />
  <rect x="108.6" y="47.62" width=".86" height=".86" style="fill: #363a47;" />
  <rect x="109.46" y="47.62" width=".86" height=".86" style="fill: #fff;" />
  <path
    d="M110.32,48.48h.86v-.86h-.86v.86ZM111.18,48.48h.86v-.86h-.86v.86ZM112.04,48.48h.86v-.86h-.86v.86ZM112.9,48.48h.86v-.86h-.86v.86ZM113.76,48.48h.86v-.86h-.86v.86ZM114.62,48.48h.86v-.86h-.86v.86Z"
    style="fill: #363a47;" />
  <path d="M115.47,48.48h.86v-.86h-.86v.86ZM116.33,48.48h.86v-.86h-.86v.86Z" style="fill: #fff;" />
  <path
    d="M92.28,48.48h.86v.86h-.86v-.86ZM91.42,48.48h.86v.86h-.86v-.86ZM118.91,47.62h.86v.86h-.86v-.86ZM118.05,47.62h.86v.86h-.86v-.86ZM117.19,47.62h.86v.86h-.86v-.86Z"
    style="fill: #363a47;" />
  <rect x="93.14" y="48.48" width=".86" height=".86" style="fill: #fff;" />
  <path d="M94,49.33h.86v-.86h-.86v.86ZM94.86,49.33h.86v-.86h-.86v.86Z" style="fill: #363a47;" />
  <path d="M95.72,49.33h.86v-.86h-.86v.86ZM96.58,49.33h.86v-.86h-.86v.86Z" style="fill: #fff;" />
  <path d="M97.44,49.33h.86v-.86h-.86v.86ZM98.3,49.33h.86v-.86h-.86v.86ZM99.15,49.33h.86v-.86h-.86v.86Z"
    style="fill: #363a47;" />
  <rect x="100.01" y="48.48" width=".86" height=".86" style="fill: #fff;" />
  <rect x="100.87" y="48.48" width=".86" height=".86" style="fill: #363a47;" />
  <path d="M101.73,49.33h.86v-.86h-.86v.86ZM102.59,49.33h.86v-.86h-.86v.86Z" style="fill: #fff;" />
  <rect x="103.45" y="48.48" width=".86" height=".86" style="fill: #363a47;" />
  <path d="M104.31,49.33h.86v-.86h-.86v.86ZM105.17,49.33h.86v-.86h-.86v.86ZM106.03,49.33h.86v-.86h-.86v.86Z"
    style="fill: #fff;" />
  <rect x="106.89" y="48.48" width=".86" height=".86" style="fill: #363a47;" />
  <polygon points="108.6 48.48 107.74 48.48 107.74 49.33 108.6 49.33 109.46 49.33 109.46 48.48 108.6 48.48"
    style="fill: #fff;" />
  <path
    d="M109.46,49.33h.86v-.86h-.86v.86ZM110.32,49.33h.86v-.86h-.86v.86ZM111.18,49.33h.86v-.86h-.86v.86ZM112.04,49.33h.86v-.86h-.86v.86ZM112.9,49.33h.86v-.86h-.86v.86ZM113.76,49.33h.86v-.86h-.86v.86Z"
    style="fill: #363a47;" />
  <path d="M114.62,49.33h.86v-.86h-.86v.86ZM115.47,49.33h.86v-.86h-.86v.86Z" style="fill: #fff;" />
  <rect x="116.33" y="48.48" width=".86" height=".86" style="fill: #363a47;" />
  <path d="M117.19,49.33h.86v-.86h-.86v.86ZM118.05,49.33h.86v-.86h-.86v.86Z" style="fill: #fff;" />
  <path
    d="M96.58,49.33h.86v.86h-.86v-.86ZM95.72,49.33h.86v.86h-.86v-.86ZM94.86,49.33h.86v.86h-.86v-.86ZM94,49.33h.86v.86h-.86v-.86ZM93.14,49.33h.86v.86h-.86v-.86ZM92.28,49.33h.86v.86h-.86v-.86ZM91.42,49.33h.86v.86h-.86v-.86ZM118.91,48.48h.86v.86h-.86v-.86Z"
    style="fill: #363a47;" />
  <path
    d="M97.44,50.19h.86v-.86h-.86v.86ZM98.3,50.19h.86v-.86h-.86v.86ZM99.15,50.19h.86v-.86h-.86v.86ZM100.01,50.19h.86v-.86h-.86v.86ZM100.87,50.19h.86v-.86h-.86v.86Z"
    style="fill: #fff;" />
  <path d="M101.73,50.19h.86v-.86h-.86v.86ZM102.59,50.19h.86v-.86h-.86v.86Z" style="fill: #363a47;" />
  <path d="M103.45,50.19h.86v-.86h-.86v.86ZM104.31,50.19h.86v-.86h-.86v.86Z" style="fill: #fff;" />
  <path
    d="M105.17,50.19h.86v-.86h-.86v.86ZM106.03,50.19h.86v-.86h-.86v.86ZM106.89,50.19h.86v-.86h-.86v.86ZM107.74,50.19h.86v-.86h-.86v.86Z"
    style="fill: #363a47;" />
  <path d="M108.6,50.19h.86v-.86h-.86v.86ZM109.46,50.19h.86v-.86h-.86v.86Z" style="fill: #fff;" />
  <rect x="110.32" y="49.33" width=".86" height=".86" style="fill: #363a47;" />
  <rect x="111.18" y="49.33" width=".86" height=".86" style="fill: #fff;" />
  <rect x="112.04" y="49.33" width=".86" height=".86" style="fill: #363a47;" />
  <rect x="112.9" y="49.33" width=".86" height=".86" style="fill: #fff;" />
  <path d="M113.76,50.19h.86v-.86h-.86v.86ZM114.62,50.19h.86v-.86h-.86v.86Z" style="fill: #363a47;" />
  <rect x="115.47" y="49.33" width=".86" height=".86" style="fill: #fff;" />
  <rect x="116.33" y="49.33" width=".86" height=".86" style="fill: #363a47;" />
  <rect x="117.19" y="49.33" width=".86" height=".86" style="fill: #fff;" />
  <rect x="118.05" y="49.33" width=".86" height=".86" style="fill: #363a47;" />
  <path d="M91.42,50.19h.86v.86h-.86v-.86ZM118.91,49.33h.86v.86h-.86v-.86Z" style="fill: #fff;" />
  <rect x="92.28" y="50.19" width=".86" height=".86" style="fill: #363a47;" />
  <path d="M93.14,51.05h.86v-.86h-.86v.86ZM94,51.05h.86v-.86h-.86v.86Z" style="fill: #fff;" />
  <rect x="94.86" y="50.19" width=".86" height=".86" style="fill: #363a47;" />
  <path d="M95.72,51.05h.86v-.86h-.86v.86ZM96.58,51.05h.86v-.86h-.86v.86Z" style="fill: #fff;" />
  <rect x="97.44" y="50.19" width=".86" height=".86" style="fill: #363a47;" />
  <rect x="98.3" y="50.19" width=".86" height=".86" style="fill: #fff;" />
  <rect x="99.15" y="50.19" width=".86" height=".86" style="fill: #363a47;" />
  <path d="M100.01,51.05h.86v-.86h-.86v.86ZM100.87,51.05h.86v-.86h-.86v.86Z" style="fill: #fff;" />
  <rect x="101.73" y="50.19" width=".86" height=".86" style="fill: #363a47;" />
  <path d="M102.59,51.05h.86v-.86h-.86v.86ZM103.45,51.05h.86v-.86h-.86v.86ZM104.31,51.05h.86v-.86h-.86v.86Z"
    style="fill: #fff;" />
  <path d="M105.17,51.05h.86v-.86h-.86v.86ZM106.03,51.05h.86v-.86h-.86v.86Z" style="fill: #363a47;" />
  <rect x="106.89" y="50.19" width=".86" height=".86" style="fill: #fff;" />
  <rect x="107.74" y="50.19" width=".86" height=".86" style="fill: #363a47;" />
  <rect x="108.6" y="50.19" width=".86" height=".86" style="fill: #fff;" />
  <path d="M109.46,51.05h.86v-.86h-.86v.86ZM110.32,51.05h.86v-.86h-.86v.86Z" style="fill: #363a47;" />
  <path d="M111.18,51.05h.86v-.86h-.86v.86ZM112.04,51.05h.86v-.86h-.86v.86Z" style="fill: #fff;" />
  <rect x="112.9" y="50.19" width=".86" height=".86" style="fill: #363a47;" />
  <path d="M113.76,51.05h.86v-.86h-.86v.86ZM114.62,51.05h.86v-.86h-.86v.86ZM115.47,51.05h.86v-.86h-.86v.86Z"
    style="fill: #fff;" />
  <path d="M116.33,51.05h.86v-.86h-.86v.86ZM117.19,51.05h.86v-.86h-.86v.86Z" style="fill: #363a47;" />
  <rect x="118.05" y="50.19" width=".86" height=".86" style="fill: #fff;" />
  <rect x="118.91" y="50.19" width=".86" height=".86" style="fill: #363a47;" />
  <rect x="91.42" y="51.05" width=".86" height=".86" style="fill: #fff;" />
  <path d="M92.28,51.91h.86v-.86h-.86v.86ZM93.14,51.91h.86v-.86h-.86v.86ZM94,51.91h.86v-.86h-.86v.86Z"
    style="fill: #363a47;" />
  <path d="M94.86,51.91h.86v-.86h-.86v.86ZM95.72,51.91h.86v-.86h-.86v.86Z" style="fill: #fff;" />
  <rect x="96.58" y="51.05" width=".86" height=".86" style="fill: #363a47;" />
  <path d="M97.44,51.91h.86v-.86h-.86v.86ZM98.3,51.91h.86v-.86h-.86v.86Z" style="fill: #fff;" />
  <rect x="99.15" y="51.05" width=".86" height=".86" style="fill: #363a47;" />
  <path d="M100.01,51.91h.86v-.86h-.86v.86ZM100.87,51.91h.86v-.86h-.86v.86ZM101.73,51.91h.86v-.86h-.86v.86Z"
    style="fill: #fff;" />
  <rect x="102.59" y="51.05" width=".86" height=".86" style="fill: #363a47;" />
  <path d="M103.45,51.91h.86v-.86h-.86v.86ZM104.31,51.91h.86v-.86h-.86v.86Z" style="fill: #fff;" />
  <path d="M105.17,51.91h.86v-.86h-.86v.86ZM106.03,51.91h.86v-.86h-.86v.86ZM106.89,51.91h.86v-.86h-.86v.86Z"
    style="fill: #363a47;" />
  <rect x="107.74" y="51.05" width=".86" height=".86" style="fill: #fff;" />
  <path d="M108.6,51.91h.86v-.86h-.86v.86ZM109.46,51.91h.86v-.86h-.86v.86Z" style="fill: #363a47;" />
  <path d="M110.32,51.91h.86v-.86h-.86v.86ZM111.18,51.91h.86v-.86h-.86v.86Z" style="fill: #fff;" />
  <path d="M112.04,51.91h.86v-.86h-.86v.86ZM112.9,51.91h.86v-.86h-.86v.86Z" style="fill: #363a47;" />
  <rect x="113.76" y="51.05" width=".86" height=".86" style="fill: #fff;" />
  <path d="M114.62,51.91h.86v-.86h-.86v.86ZM115.47,51.91h.86v-.86h-.86v.86ZM116.33,51.91h.86v-.86h-.86v.86Z"
    style="fill: #363a47;" />
  <path d="M117.19,51.91h.86v-.86h-.86v.86ZM118.05,51.91h.86v-.86h-.86v.86ZM118.91,51.91h.86v-.86h-.86v.86Z"
    style="fill: #fff;" />
  <rect x="91.42" y="51.91" width=".86" height=".86" style="fill: #363a47;" />
  <rect x="92.28" y="51.91" width=".86" height=".86" style="fill: #fff;" />
  <rect x="93.14" y="51.91" width=".86" height=".86" style="fill: #363a47;" />
  <path d="M94,52.77h.86v-.86h-.86v.86ZM94.86,52.77h.86v-.86h-.86v.86Z" style="fill: #fff;" />
  <rect x="95.72" y="51.91" width=".86" height=".86" style="fill: #363a47;" />
  <path d="M96.58,52.77h.86v-.86h-.86v.86ZM97.44,52.77h.86v-.86h-.86v.86Z" style="fill: #fff;" />
  <path
    d="M98.3,52.77h.86v-.86h-.86v.86ZM99.15,52.77h.86v-.86h-.86v.86ZM100.01,52.77h.86v-.86h-.86v.86ZM100.87,52.77h.86v-.86h-.86v.86Z"
    style="fill: #363a47;" />
  <path d="M101.73,52.77h.86v-.86h-.86v.86ZM102.59,52.77h.86v-.86h-.86v.86Z" style="fill: #fff;" />
  <rect x="103.45" y="51.91" width=".86" height=".86" style="fill: #363a47;" />
  <path
    d="M104.31,52.77h.86v-.86h-.86v.86ZM105.17,52.77h.86v-.86h-.86v.86ZM106.03,52.77h.86v-.86h-.86v.86ZM106.89,52.77h.86v-.86h-.86v.86ZM107.74,52.77h.86v-.86h-.86v.86Z"
    style="fill: #fff;" />
  <rect x="108.6" y="51.91" width=".86" height=".86" style="fill: #363a47;" />
  <path d="M109.46,52.77h.86v-.86h-.86v.86ZM110.32,52.77h.86v-.86h-.86v.86Z" style="fill: #fff;" />
  <rect x="111.18" y="51.91" width=".86" height=".86" style="fill: #363a47;" />
  <rect x="112.04" y="51.91" width=".86" height=".86" style="fill: #fff;" />
  <path d="M112.9,52.77h.86v-.86h-.86v.86ZM113.76,52.77h.86v-.86h-.86v.86Z" style="fill: #363a47;" />
  <path d="M114.62,52.77h.86v-.86h-.86v.86ZM115.47,52.77h.86v-.86h-.86v.86ZM116.33,52.77h.86v-.86h-.86v.86Z"
    style="fill: #fff;" />
  <rect x="117.19" y="51.91" width=".86" height=".86" style="fill: #363a47;" />
  <rect x="118.05" y="51.91" width=".86" height=".86" style="fill: #fff;" />
  <path d="M92.28,52.77h.86v.86h-.86v-.86ZM91.42,52.77h.86v.86h-.86v-.86ZM118.91,51.91h.86v.86h-.86v-.86Z"
    style="fill: #363a47;" />
  <rect x="93.14" y="52.77" width=".86" height=".86" style="fill: #fff;" />
  <rect x="94" y="52.77" width=".86" height=".86" style="fill: #363a47;" />
  <path d="M94.86,53.63h.86v-.86h-.86v.86ZM95.72,53.63h.86v-.86h-.86v.86Z" style="fill: #fff;" />
  <rect x="96.58" y="52.77" width=".86" height=".86" style="fill: #363a47;" />
  <path d="M97.44,53.63h.86v-.86h-.86v.86ZM98.3,53.63h.86v-.86h-.86v.86Z" style="fill: #fff;" />
  <rect x="99.15" y="52.77" width=".86" height=".86" style="fill: #363a47;" />
  <rect x="100.01" y="52.77" width=".86" height=".86" style="fill: #fff;" />
  <path
    d="M100.87,53.63h.86v-.86h-.86v.86ZM101.73,53.63h.86v-.86h-.86v.86ZM102.59,53.63h.86v-.86h-.86v.86ZM103.45,53.63h.86v-.86h-.86v.86Z"
    style="fill: #363a47;" />
  <path d="M104.31,53.63h.86v-.86h-.86v.86ZM105.17,53.63h.86v-.86h-.86v.86ZM106.03,53.63h.86v-.86h-.86v.86Z"
    style="fill: #fff;" />
  <path d="M106.89,53.63h.86v-.86h-.86v.86ZM107.74,53.63h.86v-.86h-.86v.86Z" style="fill: #363a47;" />
  <path d="M108.6,53.63h.86v-.86h-.86v.86ZM109.46,53.63h.86v-.86h-.86v.86Z" style="fill: #fff;" />
  <rect x="110.32" y="52.77" width=".86" height=".86" style="fill: #363a47;" />
  <path d="M111.18,53.63h.86v-.86h-.86v.86ZM112.04,53.63h.86v-.86h-.86v.86Z" style="fill: #fff;" />
  <path d="M112.9,53.63h.86v-.86h-.86v.86ZM113.76,53.63h.86v-.86h-.86v.86Z" style="fill: #363a47;" />
  <path d="M114.62,53.63h.86v-.86h-.86v.86ZM115.47,53.63h.86v-.86h-.86v.86Z" style="fill: #fff;" />
  <rect x="116.33" y="52.77" width=".86" height=".86" style="fill: #363a47;" />
  <rect x="117.19" y="52.77" width=".86" height=".86" style="fill: #fff;" />
  <rect x="118.05" y="52.77" width=".86" height=".86" style="fill: #363a47;" />
  <rect x="118.91" y="52.77" width=".86" height=".86" style="fill: #fff;" />
  <rect x="91.42" y="53.63" width=".86" height=".86" style="fill: #363a47;" />
  <rect x="92.28" y="53.63" width=".86" height=".86" style="fill: #fff;" />
  <rect x="93.14" y="53.63" width=".86" height=".86" style="fill: #363a47;" />
  <path d="M94,54.49h.86v-.86h-.86v.86ZM94.86,54.49h.86v-.86h-.86v.86Z" style="fill: #fff;" />
  <rect x="95.72" y="53.63" width=".86" height=".86" style="fill: #363a47;" />
  <path d="M96.58,54.49h.86v-.86h-.86v.86ZM97.44,54.49h.86v-.86h-.86v.86ZM98.3,54.49h.86v-.86h-.86v.86Z"
    style="fill: #fff;" />
  <path
    d="M99.15,54.49h.86v-.86h-.86v.86ZM100.01,54.49h.86v-.86h-.86v.86ZM100.87,54.49h.86v-.86h-.86v.86ZM101.73,54.49h.86v-.86h-.86v.86Z"
    style="fill: #363a47;" />
  <rect x="102.59" y="53.63" width=".86" height=".86" style="fill: #fff;" />
  <path d="M103.45,54.49h.86v-.86h-.86v.86ZM104.31,54.49h.86v-.86h-.86v.86Z" style="fill: #363a47;" />
  <rect x="105.17" y="53.63" width=".86" height=".86" style="fill: #fff;" />
  <path d="M106.03,54.49h.86v-.86h-.86v.86ZM106.89,54.49h.86v-.86h-.86v.86ZM107.74,54.49h.86v-.86h-.86v.86Z"
    style="fill: #363a47;" />
  <rect x="108.6" y="53.63" width=".86" height=".86" style="fill: #fff;" />
  <path d="M109.46,54.49h.86v-.86h-.86v.86ZM110.32,54.49h.86v-.86h-.86v.86Z" style="fill: #363a47;" />
  <path d="M111.18,54.49h.86v-.86h-.86v.86ZM112.04,54.49h.86v-.86h-.86v.86ZM112.9,54.49h.86v-.86h-.86v.86Z"
    style="fill: #fff;" />
  <path d="M113.76,54.49h.86v-.86h-.86v.86ZM114.62,54.49h.86v-.86h-.86v.86Z" style="fill: #363a47;" />
  <rect x="115.47" y="53.63" width=".86" height=".86" style="fill: #fff;" />
  <path d="M116.33,54.49h.86v-.86h-.86v.86ZM117.19,54.49h.86v-.86h-.86v.86ZM118.05,54.49h.86v-.86h-.86v.86Z"
    style="fill: #363a47;" />
  <path
    d="M93.14,54.49h.86v.86h-.86v-.86ZM92.28,54.49h.86v.86h-.86v-.86ZM91.42,54.49h.86v.86h-.86v-.86ZM118.91,53.63h.86v.86h-.86v-.86Z"
    style="fill: #fff;" />
  <path d="M94,55.35h.86v-.86h-.86v.86ZM94.86,55.35h.86v-.86h-.86v.86Z" style="fill: #363a47;" />
  <rect x="95.72" y="54.49" width=".86" height=".86" style="fill: #fff;" />
  <path d="M96.58,55.35h.86v-.86h-.86v.86ZM97.44,55.35h.86v-.86h-.86v.86ZM98.3,55.35h.86v-.86h-.86v.86Z"
    style="fill: #363a47;" />
  <rect x="99.15" y="54.49" width=".86" height=".86" style="fill: #fff;" />
  <rect x="100.01" y="54.49" width=".86" height=".86" style="fill: #363a47;" />
  <path d="M100.87,55.35h.86v-.86h-.86v.86ZM101.73,55.35h.86v-.86h-.86v.86Z" style="fill: #fff;" />
  <path d="M102.59,55.35h.86v-.86h-.86v.86ZM103.45,55.35h.86v-.86h-.86v.86Z" style="fill: #363a47;" />
  <rect x="104.31" y="54.49" width=".86" height=".86" style="fill: #fff;" />
  <rect x="105.17" y="54.49" width=".86" height=".86" style="fill: #363a47;" />
  <rect x="106.03" y="54.49" width=".86" height=".86" style="fill: #fff;" />
  <rect x="106.89" y="54.49" width=".86" height=".86" style="fill: #363a47;" />
  <path
    d="M108.6,54.49h-.86v.86h1.72v-.86h-.86ZM109.46,55.35h.86v-.86h-.86v.86ZM110.32,55.35h.86v-.86h-.86v.86ZM111.18,55.35h.86v-.86h-.86v.86ZM112.04,55.35h.86v-.86h-.86v.86Z"
    style="fill: #fff;" />
  <rect x="112.9" y="54.49" width=".86" height=".86" style="fill: #363a47;" />
  <rect x="113.76" y="54.49" width=".86" height=".86" style="fill: #fff;" />
  <path d="M114.62,55.35h.86v-.86h-.86v.86ZM115.47,55.35h.86v-.86h-.86v.86Z" style="fill: #363a47;" />
  <path
    d="M116.33,55.35h.86v-.86h-.86v.86ZM117.19,55.35h.86v-.86h-.86v.86ZM118.05,55.35h.86v-.86h-.86v.86ZM118.91,55.35h.86v-.86h-.86v.86Z"
    style="fill: #fff;" />
  <rect x="91.42" y="55.35" width=".86" height=".86" style="fill: #363a47;" />
  <rect x="92.28" y="55.35" width=".86" height=".86" style="fill: #fff;" />
  <path d="M93.14,56.21h.86v-.86h-.86v.86ZM94,56.21h.86v-.86h-.86v.86Z" style="fill: #363a47;" />
  <path
    d="M94.86,56.21h.86v-.86h-.86v.86ZM95.72,56.21h.86v-.86h-.86v.86ZM96.58,56.21h.86v-.86h-.86v.86ZM97.44,56.21h.86v-.86h-.86v.86Z"
    style="fill: #fff;" />
  <path d="M98.3,56.21h.86v-.86h-.86v.86ZM99.15,56.21h.86v-.86h-.86v.86Z" style="fill: #363a47;" />
  <path
    d="M100.01,56.21h.86v-.86h-.86v.86ZM100.87,56.21h.86v-.86h-.86v.86ZM101.73,56.21h.86v-.86h-.86v.86ZM102.59,56.21h.86v-.86h-.86v.86Z"
    style="fill: #fff;" />
  <rect x="103.45" y="55.35" width=".86" height=".86" style="fill: #363a47;" />
  <rect x="104.31" y="55.35" width=".86" height=".86" style="fill: #fff;" />
  <path
    d="M105.17,56.21h.86v-.86h-.86v.86ZM106.03,56.21h.86v-.86h-.86v.86ZM106.89,56.21h.86v-.86h-.86v.86ZM107.74,56.21h.86v-.86h-.86v.86Z"
    style="fill: #363a47;" />
  <rect x="108.6" y="55.35" width=".86" height=".86" style="fill: #fff;" />
  <rect x="109.46" y="55.35" width=".86" height=".86" style="fill: #363a47;" />
  <rect x="110.32" y="55.35" width=".86" height=".86" style="fill: #fff;" />
  <path d="M111.18,56.21h.86v-.86h-.86v.86ZM112.04,56.21h.86v-.86h-.86v.86Z" style="fill: #363a47;" />
  <rect x="112.9" y="55.35" width=".86" height=".86" style="fill: #fff;" />
  <path d="M113.76,56.21h.86v-.86h-.86v.86ZM114.62,56.21h.86v-.86h-.86v.86Z" style="fill: #363a47;" />
  <path
    d="M115.47,56.21h.86v-.86h-.86v.86ZM116.33,56.21h.86v-.86h-.86v.86ZM117.19,56.21h.86v-.86h-.86v.86ZM118.05,56.21h.86v-.86h-.86v.86Z"
    style="fill: #fff;" />
  <rect x="118.91" y="55.35" width=".86" height=".86" style="fill: #363a47;" />
  <rect x="91.42" y="56.21" width=".86" height=".86" style="fill: #fff;" />
  <path
    d="M92.28,57.07h.86v-.86h-.86v.86ZM93.14,57.07h.86v-.86h-.86v.86ZM94,57.07h.86v-.86h-.86v.86ZM94.86,57.07h.86v-.86h-.86v.86Z"
    style="fill: #363a47;" />
  <rect x="95.72" y="56.21" width=".86" height=".86" style="fill: #fff;" />
  <path d="M96.58,57.07h.86v-.86h-.86v.86ZM97.44,57.07h.86v-.86h-.86v.86ZM98.3,57.07h.86v-.86h-.86v.86Z"
    style="fill: #363a47;" />
  <rect x="99.15" y="56.21" width=".86" height=".86" style="fill: #fff;" />
  <rect x="100.01" y="56.21" width=".86" height=".86" style="fill: #363a47;" />
  <rect x="100.87" y="56.21" width=".86" height=".86" style="fill: #fff;" />
  <path d="M101.73,57.07h.86v-.86h-.86v.86ZM102.59,57.07h.86v-.86h-.86v.86Z" style="fill: #363a47;" />
  <rect x="103.45" y="56.21" width=".86" height=".86" style="fill: #fff;" />
  <rect x="104.31" y="56.21" width=".86" height=".86" style="fill: #363a47;" />
  <path d="M105.17,57.07h.86v-.86h-.86v.86ZM106.03,57.07h.86v-.86h-.86v.86Z" style="fill: #fff;" />
  <rect x="106.89" y="56.21" width=".86" height=".86" style="fill: #363a47;" />
  <rect x="107.74" y="56.21" width=".86" height=".86" style="fill: #fff;" />
  <path d="M108.6,57.07h.86v-.86h-.86v.86ZM109.46,57.07h.86v-.86h-.86v.86ZM110.32,57.07h.86v-.86h-.86v.86Z"
    style="fill: #363a47;" />
  <path d="M111.18,57.07h.86v-.86h-.86v.86ZM112.04,57.07h.86v-.86h-.86v.86Z" style="fill: #fff;" />
  <rect x="112.9" y="56.21" width=".86" height=".86" style="fill: #363a47;" />
  <path d="M113.76,57.07h.86v-.86h-.86v.86ZM114.62,57.07h.86v-.86h-.86v.86Z" style="fill: #fff;" />
  <rect x="115.47" y="56.21" width=".86" height=".86" style="fill: #363a47;" />
  <rect x="116.33" y="56.21" width=".86" height=".86" style="fill: #fff;" />
  <path d="M117.19,57.07h.86v-.86h-.86v.86ZM118.05,57.07h.86v-.86h-.86v.86Z" style="fill: #363a47;" />
  <path d="M92.28,57.07h.86v.86h-.86v-.86ZM91.42,57.07h.86v.86h-.86v-.86ZM118.91,56.21h.86v.86h-.86v-.86Z"
    style="fill: #fff;" />
  <rect x="93.14" y="57.07" width=".86" height=".86" style="fill: #363a47;" />
  <rect x="94" y="57.07" width=".86" height=".86" style="fill: #fff;" />
  <rect x="94.86" y="57.07" width=".86" height=".86" style="fill: #363a47;" />
  <path
    d="M95.72,57.93h.86v-.86h-.86v.86ZM96.58,57.93h.86v-.86h-.86v.86ZM97.44,57.93h.86v-.86h-.86v.86ZM98.3,57.93h.86v-.86h-.86v.86ZM99.15,57.93h.86v-.86h-.86v.86Z"
    style="fill: #fff;" />
  <rect x="100.01" y="57.07" width=".86" height=".86" style="fill: #363a47;" />
  <rect x="100.87" y="57.07" width=".86" height=".86" style="fill: #fff;" />
  <path d="M101.73,57.93h.86v-.86h-.86v.86ZM102.59,57.93h.86v-.86h-.86v.86Z" style="fill: #363a47;" />
  <path d="M103.45,57.93h.86v-.86h-.86v.86ZM104.31,57.93h.86v-.86h-.86v.86ZM105.17,57.93h.86v-.86h-.86v.86Z"
    style="fill: #fff;" />
  <path
    d="M106.03,57.93h.86v-.86h-.86v.86ZM106.89,57.93h.86v-.86h-.86v.86ZM108.6,57.07h-.86v.86h1.72v-.86h-.86ZM109.46,57.93h.86v-.86h-.86v.86Z"
    style="fill: #363a47;" />
  <rect x="110.32" y="57.07" width=".86" height=".86" style="fill: #fff;" />
  <path
    d="M111.18,57.93h.86v-.86h-.86v.86ZM112.04,57.93h.86v-.86h-.86v.86ZM112.9,57.93h.86v-.86h-.86v.86ZM113.76,57.93h.86v-.86h-.86v.86ZM114.62,57.93h.86v-.86h-.86v.86Z"
    style="fill: #363a47;" />
  <rect x="115.47" y="57.07" width=".86" height=".86" style="fill: #fff;" />
  <path d="M116.33,57.93h.86v-.86h-.86v.86ZM117.19,57.93h.86v-.86h-.86v.86ZM118.05,57.93h.86v-.86h-.86v.86Z"
    style="fill: #363a47;" />
  <rect x="118.91" y="57.07" width=".86" height=".86" style="fill: #fff;" />
  <rect x="91.42" y="57.92" width=".86" height=".86" style="fill: #363a47;" />
  <path d="M92.28,58.78h.86v-.86h-.86v.86ZM93.14,58.78h.86v-.86h-.86v.86ZM94,58.78h.86v-.86h-.86v.86Z"
    style="fill: #fff;" />
  <path d="M94.86,58.78h.86v-.86h-.86v.86ZM95.72,58.78h.86v-.86h-.86v.86ZM96.58,58.78h.86v-.86h-.86v.86Z"
    style="fill: #363a47;" />
  <rect x="97.44" y="57.92" width=".86" height=".86" style="fill: #fff;" />
  <path
    d="M98.3,58.78h.86v-.86h-.86v.86ZM99.15,58.78h.86v-.86h-.86v.86ZM100.01,58.78h.86v-.86h-.86v.86ZM100.87,58.78h.86v-.86h-.86v.86Z"
    style="fill: #363a47;" />
  <path d="M101.73,58.78h.86v-.86h-.86v.86ZM102.59,58.78h.86v-.86h-.86v.86Z" style="fill: #fff;" />
  <path d="M103.45,58.78h.86v-.86h-.86v.86ZM104.31,58.78h.86v-.86h-.86v.86ZM105.17,58.78h.86v-.86h-.86v.86Z"
    style="fill: #363a47;" />
  <path d="M106.03,58.78h.86v-.86h-.86v.86ZM106.89,58.78h.86v-.86h-.86v.86Z" style="fill: #fff;" />
  <rect x="107.74" y="57.92" width=".86" height=".86" style="fill: #363a47;" />
  <path
    d="M108.6,58.78h.86v-.86h-.86v.86ZM109.46,58.78h.86v-.86h-.86v.86ZM110.32,58.78h.86v-.86h-.86v.86ZM111.18,58.78h.86v-.86h-.86v.86Z"
    style="fill: #fff;" />
  <path d="M112.04,58.78h.86v-.86h-.86v.86ZM112.9,58.78h.86v-.86h-.86v.86Z" style="fill: #363a47;" />
  <rect x="113.76" y="57.92" width=".86" height=".86" style="fill: #fff;" />
  <path d="M114.62,58.78h.86v-.86h-.86v.86ZM115.47,58.78h.86v-.86h-.86v.86ZM116.33,58.78h.86v-.86h-.86v.86Z"
    style="fill: #363a47;" />
  <path d="M117.19,58.78h.86v-.86h-.86v.86ZM118.05,58.78h.86v-.86h-.86v.86ZM118.91,58.78h.86v-.86h-.86v.86Z"
    style="fill: #fff;" />
  <path d="M91.42,59.64h.86v-.86h-.86v.86ZM92.28,59.64h.86v-.86h-.86v.86Z" style="fill: #363a47;" />
  <path
    d="M93.14,59.64h.86v-.86h-.86v.86ZM94,59.64h.86v-.86h-.86v.86ZM94.86,59.64h.86v-.86h-.86v.86ZM95.72,59.64h.86v-.86h-.86v.86ZM96.58,59.64h.86v-.86h-.86v.86ZM97.44,59.64h.86v-.86h-.86v.86Z"
    style="fill: #fff;" />
  <rect x="98.3" y="58.78" width=".86" height=".86" style="fill: #363a47;" />
  <rect x="99.15" y="58.78" width=".86" height=".86" style="fill: #fff;" />
  <path
    d="M100.01,59.64h.86v-.86h-.86v.86ZM100.87,59.64h.86v-.86h-.86v.86ZM101.73,59.64h.86v-.86h-.86v.86ZM102.59,59.64h.86v-.86h-.86v.86Z"
    style="fill: #363a47;" />
  <path
    d="M103.45,59.64h.86v-.86h-.86v.86ZM104.31,59.64h.86v-.86h-.86v.86ZM105.17,59.64h.86v-.86h-.86v.86ZM106.03,59.64h.86v-.86h-.86v.86ZM106.89,59.64h.86v-.86h-.86v.86Z"
    style="fill: #fff;" />
  <path d="M108.6,58.78h-.86v.86h1.72v-.86h-.86ZM109.46,59.64h.86v-.86h-.86v.86Z" style="fill: #363a47;" />
  <rect x="110.32" y="58.78" width=".86" height=".86" style="fill: #fff;" />
  <rect x="111.18" y="58.78" width=".86" height=".86" style="fill: #363a47;" />
  <path d="M112.04,59.64h.86v-.86h-.86v.86ZM112.9,59.64h.86v-.86h-.86v.86Z" style="fill: #fff;" />
  <rect x="113.76" y="58.78" width=".86" height=".86" style="fill: #363a47;" />
  <path d="M114.62,59.64h.86v-.86h-.86v.86ZM115.47,59.64h.86v-.86h-.86v.86Z" style="fill: #fff;" />
  <path d="M116.33,59.64h.86v-.86h-.86v.86ZM117.19,59.64h.86v-.86h-.86v.86Z" style="fill: #363a47;" />
  <rect x="118.05" y="58.78" width=".86" height=".86" style="fill: #fff;" />
  <path d="M91.42,59.64h.86v.86h-.86v-.86ZM118.91,58.78h.86v.86h-.86v-.86Z" style="fill: #363a47;" />
  <rect x="92.28" y="59.64" width=".86" height=".86" style="fill: #fff;" />
  <path d="M93.14,60.5h.86v-.86h-.86v.86ZM94,60.5h.86v-.86h-.86v.86Z" style="fill: #363a47;" />
  <rect x="94.86" y="59.64" width=".86" height=".86" style="fill: #fff;" />
  <path d="M95.72,60.5h.86v-.86h-.86v.86ZM96.58,60.5h.86v-.86h-.86v.86Z" style="fill: #363a47;" />
  <path
    d="M97.44,60.5h.86v-.86h-.86v.86ZM98.3,60.5h.86v-.86h-.86v.86ZM99.15,60.5h.86v-.86h-.86v.86ZM100.01,60.5h.86v-.86h-.86v.86Z"
    style="fill: #fff;" />
  <rect x="100.87" y="59.64" width=".86" height=".86" style="fill: #363a47;" />
  <path
    d="M101.73,60.5h.86v-.86h-.86v.86ZM102.59,60.5h.86v-.86h-.86v.86ZM103.45,60.5h.86v-.86h-.86v.86ZM104.31,60.5h.86v-.86h-.86v.86Z"
    style="fill: #fff;" />
  <path
    d="M105.17,60.5h.86v-.86h-.86v.86ZM106.03,60.5h.86v-.86h-.86v.86ZM106.89,60.5h.86v-.86h-.86v.86ZM107.74,60.5h.86v-.86h-.86v.86Z"
    style="fill: #363a47;" />
  <rect x="108.6" y="59.64" width=".86" height=".86" style="fill: #fff;" />
  <rect x="109.46" y="59.64" width=".86" height=".86" style="fill: #363a47;" />
  <path
    d="M110.32,60.5h.86v-.86h-.86v.86ZM111.18,60.5h.86v-.86h-.86v.86ZM112.04,60.5h.86v-.86h-.86v.86ZM112.9,60.5h.86v-.86h-.86v.86ZM113.76,60.5h.86v-.86h-.86v.86Z"
    style="fill: #fff;" />
  <rect x="114.62" y="59.64" width=".86" height=".86" style="fill: #363a47;" />
  <rect x="115.47" y="59.64" width=".86" height=".86" style="fill: #fff;" />
  <path d="M116.33,60.5h.86v-.86h-.86v.86ZM117.19,60.5h.86v-.86h-.86v.86ZM118.05,60.5h.86v-.86h-.86v.86Z"
    style="fill: #363a47;" />
  <rect x="118.91" y="59.64" width=".86" height=".86" style="fill: #fff;" />
  <rect x="91.42" y="60.5" width=".86" height=".86" style="fill: #363a47;" />
  <path d="M92.28,61.36h.86v-.86h-.86v.86ZM93.14,61.36h.86v-.86h-.86v.86ZM94,61.36h.86v-.86h-.86v.86Z"
    style="fill: #fff;" />
  <rect x="94.86" y="60.5" width=".86" height=".86" style="fill: #363a47;" />
  <path d="M95.72,61.36h.86v-.86h-.86v.86ZM96.58,61.36h.86v-.86h-.86v.86Z" style="fill: #fff;" />
  <path d="M97.44,61.36h.86v-.86h-.86v.86ZM98.3,61.36h.86v-.86h-.86v.86Z" style="fill: #363a47;" />
  <rect x="99.15" y="60.5" width=".86" height=".86" style="fill: #fff;" />
  <path
    d="M100.01,61.36h.86v-.86h-.86v.86ZM100.87,61.36h.86v-.86h-.86v.86ZM101.73,61.36h.86v-.86h-.86v.86ZM102.59,61.36h.86v-.86h-.86v.86ZM103.45,61.36h.86v-.86h-.86v.86ZM104.31,61.36h.86v-.86h-.86v.86Z"
    style="fill: #363a47;" />
  <path d="M105.17,61.36h.86v-.86h-.86v.86ZM106.03,61.36h.86v-.86h-.86v.86ZM106.89,61.36h.86v-.86h-.86v.86Z"
    style="fill: #fff;" />
  <rect x="107.74" y="60.5" width=".86" height=".86" style="fill: #363a47;" />
  <rect x="108.6" y="60.5" width=".86" height=".86" style="fill: #fff;" />
  <rect x="109.46" y="60.5" width=".86" height=".86" style="fill: #363a47;" />
  <path d="M110.32,61.36h.86v-.86h-.86v.86ZM111.18,61.36h.86v-.86h-.86v.86Z" style="fill: #fff;" />
  <rect x="112.04" y="60.5" width=".86" height=".86" style="fill: #363a47;" />
  <path
    d="M112.9,61.36h.86v-.86h-.86v.86ZM113.76,61.36h.86v-.86h-.86v.86ZM114.62,61.36h.86v-.86h-.86v.86ZM115.47,61.36h.86v-.86h-.86v.86Z"
    style="fill: #fff;" />
  <path d="M116.33,61.36h.86v-.86h-.86v.86ZM117.19,61.36h.86v-.86h-.86v.86Z" style="fill: #363a47;" />
  <rect x="118.05" y="60.5" width=".86" height=".86" style="fill: #fff;" />
  <path d="M91.42,61.36h.86v.86h-.86v-.86ZM118.91,60.5h.86v.86h-.86v-.86Z" style="fill: #363a47;" />
  <path d="M92.28,62.22h.86v-.86h-.86v.86ZM93.14,62.22h.86v-.86h-.86v.86Z" style="fill: #fff;" />
  <rect x="94" y="61.36" width=".86" height=".86" style="fill: #363a47;" />
  <path d="M94.86,62.22h.86v-.86h-.86v.86ZM95.72,62.22h.86v-.86h-.86v.86Z" style="fill: #fff;" />
  <rect x="96.58" y="61.36" width=".86" height=".86" style="fill: #363a47;" />
  <rect x="97.44" y="61.36" width=".86" height=".86" style="fill: #fff;" />
  <rect x="98.3" y="61.36" width=".86" height=".86" style="fill: #363a47;" />
  <rect x="99.15" y="61.36" width=".86" height=".86" style="fill: #fff;" />
  <path d="M100.01,62.22h.86v-.86h-.86v.86ZM100.87,62.22h.86v-.86h-.86v.86Z" style="fill: #363a47;" />
  <rect x="101.73" y="61.36" width=".86" height=".86" style="fill: #fff;" />
  <rect x="102.59" y="61.36" width=".86" height=".86" style="fill: #363a47;" />
  <rect x="103.45" y="61.36" width=".86" height=".86" style="fill: #fff;" />
  <path d="M104.31,62.22h.86v-.86h-.86v.86ZM105.17,62.22h.86v-.86h-.86v.86Z" style="fill: #363a47;" />
  <path d="M106.03,62.22h.86v-.86h-.86v.86ZM106.89,62.22h.86v-.86h-.86v.86Z" style="fill: #fff;" />
  <polygon points="108.6 61.36 107.74 61.36 107.74 62.22 108.6 62.22 109.46 62.22 109.46 61.36 108.6 61.36"
    style="fill: #363a47;" />
  <rect x="109.46" y="61.36" width=".86" height=".86" style="fill: #fff;" />
  <path
    d="M110.32,62.22h.86v-.86h-.86v.86ZM111.18,62.22h.86v-.86h-.86v.86ZM112.04,62.22h.86v-.86h-.86v.86ZM112.9,62.22h.86v-.86h-.86v.86ZM113.76,62.22h.86v-.86h-.86v.86ZM114.62,62.22h.86v-.86h-.86v.86ZM115.47,62.22h.86v-.86h-.86v.86Z"
    style="fill: #363a47;" />
  <path d="M116.33,62.22h.86v-.86h-.86v.86ZM117.19,62.22h.86v-.86h-.86v.86Z" style="fill: #fff;" />
  <path d="M118.05,62.22h.86v-.86h-.86v.86ZM118.91,62.22h.86v-.86h-.86v.86Z" style="fill: #363a47;" />
  <path
    d="M91.42,63.08h.86v-.86h-.86v.86ZM92.28,63.08h.86v-.86h-.86v.86ZM93.14,63.08h.86v-.86h-.86v.86ZM94,63.08h.86v-.86h-.86v.86ZM94.86,63.08h.86v-.86h-.86v.86ZM95.72,63.08h.86v-.86h-.86v.86ZM96.58,63.08h.86v-.86h-.86v.86ZM97.44,63.08h.86v-.86h-.86v.86Z"
    style="fill: #fff;" />
  <path d="M98.3,63.08h.86v-.86h-.86v.86ZM99.15,63.08h.86v-.86h-.86v.86ZM100.01,63.08h.86v-.86h-.86v.86Z"
    style="fill: #363a47;" />
  <rect x="100.87" y="62.22" width=".86" height=".86" style="fill: #fff;" />
  <rect x="101.73" y="62.22" width=".86" height=".86" style="fill: #363a47;" />
  <rect x="102.59" y="62.22" width=".86" height=".86" style="fill: #fff;" />
  <path d="M103.45,63.08h.86v-.86h-.86v.86ZM104.31,63.08h.86v-.86h-.86v.86Z" style="fill: #363a47;" />
  <path d="M105.17,63.08h.86v-.86h-.86v.86ZM106.03,63.08h.86v-.86h-.86v.86Z" style="fill: #fff;" />
  <path d="M106.89,63.08h.86v-.86h-.86v.86ZM108.6,62.22h-.86v.86h1.72v-.86h-.86Z" style="fill: #363a47;" />
  <path d="M109.46,63.08h.86v-.86h-.86v.86ZM110.32,63.08h.86v-.86h-.86v.86Z" style="fill: #fff;" />
  <path d="M111.18,63.08h.86v-.86h-.86v.86ZM112.04,63.08h.86v-.86h-.86v.86Z" style="fill: #363a47;" />
  <path d="M112.9,63.08h.86v-.86h-.86v.86ZM113.76,63.08h.86v-.86h-.86v.86ZM114.62,63.08h.86v-.86h-.86v.86Z"
    style="fill: #fff;" />
  <path
    d="M96.58,63.08h.86v.86h-.86v-.86ZM95.72,63.08h.86v.86h-.86v-.86ZM94.86,63.08h.86v.86h-.86v-.86ZM94,63.08h.86v.86h-.86v-.86ZM93.14,63.08h.86v.86h-.86v-.86ZM92.28,63.08h.86v.86h-.86v-.86ZM91.42,63.08h.86v.86h-.86v-.86ZM118.91,62.22h.86v.86h-.86v-.86ZM118.05,62.22h.86v.86h-.86v-.86ZM117.19,62.22h.86v.86h-.86v-.86ZM116.33,62.22h.86v.86h-.86v-.86ZM115.47,62.22h.86v.86h-.86v-.86Z"
    style="fill: #363a47;" />
  <path
    d="M97.44,63.94h.86v-.86h-.86v.86ZM98.3,63.94h.86v-.86h-.86v.86ZM99.15,63.94h.86v-.86h-.86v.86ZM100.01,63.94h.86v-.86h-.86v.86ZM100.87,63.94h.86v-.86h-.86v.86ZM101.73,63.94h.86v-.86h-.86v.86Z"
    style="fill: #fff;" />
  <path d="M102.59,63.94h.86v-.86h-.86v.86ZM103.45,63.94h.86v-.86h-.86v.86ZM104.31,63.94h.86v-.86h-.86v.86Z"
    style="fill: #363a47;" />
  <rect x="105.17" y="63.08" width=".86" height=".86" style="fill: #fff;" />
  <rect x="106.03" y="63.08" width=".86" height=".86" style="fill: #363a47;" />
  <path d="M106.89,63.94h.86v-.86h-.86v.86ZM108.6,63.08h-.86v.86h1.72v-.86h-.86ZM109.46,63.94h.86v-.86h-.86v.86Z"
    style="fill: #fff;" />
  <path d="M110.32,63.94h.86v-.86h-.86v.86ZM111.18,63.94h.86v-.86h-.86v.86ZM112.04,63.94h.86v-.86h-.86v.86Z"
    style="fill: #363a47;" />
  <rect x="112.9" y="63.08" width=".86" height=".86" style="fill: #fff;" />
  <rect x="113.76" y="63.08" width=".86" height=".86" style="fill: #363a47;" />
  <rect x="114.62" y="63.08" width=".86" height=".86" style="fill: #fff;" />
  <rect x="115.47" y="63.08" width=".86" height=".86" style="fill: #363a47;" />
  <path d="M116.33,63.94h.86v-.86h-.86v.86ZM117.19,63.94h.86v-.86h-.86v.86Z" style="fill: #fff;" />
  <rect x="118.05" y="63.08" width=".86" height=".86" style="fill: #363a47;" />
  <rect x="118.91" y="63.08" width=".86" height=".86" style="fill: #fff;" />
  <rect x="91.42" y="63.94" width=".86" height=".86" style="fill: #363a47;" />
  <path
    d="M92.28,64.8h.86v-.86h-.86v.86ZM93.14,64.8h.86v-.86h-.86v.86ZM94,64.8h.86v-.86h-.86v.86ZM94.86,64.8h.86v-.86h-.86v.86ZM95.72,64.8h.86v-.86h-.86v.86Z"
    style="fill: #fff;" />
  <rect x="96.58" y="63.94" width=".86" height=".86" style="fill: #363a47;" />
  <path d="M97.44,64.8h.86v-.86h-.86v.86ZM98.3,64.8h.86v-.86h-.86v.86ZM99.15,64.8h.86v-.86h-.86v.86Z"
    style="fill: #fff;" />
  <rect x="100.01" y="63.94" width=".86" height=".86" style="fill: #363a47;" />
  <rect x="100.87" y="63.94" width=".86" height=".86" style="fill: #fff;" />
  <path d="M101.73,64.8h.86v-.86h-.86v.86ZM102.59,64.8h.86v-.86h-.86v.86Z" style="fill: #363a47;" />
  <rect x="103.45" y="63.94" width=".86" height=".86" style="fill: #fff;" />
  <path d="M104.31,64.8h.86v-.86h-.86v.86ZM105.17,64.8h.86v-.86h-.86v.86ZM106.03,64.8h.86v-.86h-.86v.86Z"
    style="fill: #363a47;" />
  <rect x="106.89" y="63.94" width=".86" height=".86" style="fill: #fff;" />
  <rect x="107.74" y="63.94" width=".86" height=".86" style="fill: #363a47;" />
  <path d="M108.6,64.8h.86v-.86h-.86v.86ZM109.46,64.8h.86v-.86h-.86v.86ZM110.32,64.8h.86v-.86h-.86v.86Z"
    style="fill: #fff;" />
  <path d="M111.18,64.8h.86v-.86h-.86v.86ZM112.04,64.8h.86v-.86h-.86v.86Z" style="fill: #363a47;" />
  <path d="M112.9,64.8h.86v-.86h-.86v.86ZM113.76,64.8h.86v-.86h-.86v.86ZM114.62,64.8h.86v-.86h-.86v.86Z"
    style="fill: #fff;" />
  <path
    d="M91.42,64.8h.86v.86h-.86v-.86ZM118.91,63.94h.86v.86h-.86v-.86ZM118.05,63.94h.86v.86h-.86v-.86ZM117.19,63.94h.86v.86h-.86v-.86ZM116.33,63.94h.86v.86h-.86v-.86ZM115.47,63.94h.86v.86h-.86v-.86Z"
    style="fill: #363a47;" />
  <rect x="92.28" y="64.8" width=".86" height=".86" style="fill: #fff;" />
  <path d="M93.14,65.66h.86v-.86h-.86v.86ZM94,65.66h.86v-.86h-.86v.86ZM94.86,65.66h.86v-.86h-.86v.86Z"
    style="fill: #363a47;" />
  <rect x="95.72" y="64.8" width=".86" height=".86" style="fill: #fff;" />
  <rect x="96.58" y="64.8" width=".86" height=".86" style="fill: #363a47;" />
  <rect x="97.44" y="64.8" width=".86" height=".86" style="fill: #fff;" />
  <path
    d="M98.3,65.66h.86v-.86h-.86v.86ZM99.15,65.66h.86v-.86h-.86v.86ZM100.01,65.66h.86v-.86h-.86v.86ZM100.87,65.66h.86v-.86h-.86v.86ZM101.73,65.66h.86v-.86h-.86v.86ZM102.59,65.66h.86v-.86h-.86v.86Z"
    style="fill: #363a47;" />
  <path d="M103.45,65.66h.86v-.86h-.86v.86ZM104.31,65.66h.86v-.86h-.86v.86Z" style="fill: #fff;" />
  <rect x="105.17" y="64.8" width=".86" height=".86" style="fill: #363a47;" />
  <rect x="106.03" y="64.8" width=".86" height=".86" style="fill: #fff;" />
  <path d="M106.89,65.66h.86v-.86h-.86v.86ZM107.74,65.66h.86v-.86h-.86v.86Z" style="fill: #363a47;" />
  <rect x="108.6" y="64.8" width=".86" height=".86" style="fill: #fff;" />
  <path d="M109.46,65.66h.86v-.86h-.86v.86ZM110.32,65.66h.86v-.86h-.86v.86Z" style="fill: #363a47;" />
  <rect x="111.18" y="64.8" width=".86" height=".86" style="fill: #fff;" />
  <path
    d="M112.04,65.66h.86v-.86h-.86v.86ZM112.9,65.66h.86v-.86h-.86v.86ZM113.76,65.66h.86v-.86h-.86v.86ZM114.62,65.66h.86v-.86h-.86v.86ZM115.47,65.66h.86v-.86h-.86v.86ZM116.33,65.66h.86v-.86h-.86v.86Z"
    style="fill: #363a47;" />
  <rect x="117.19" y="64.8" width=".86" height=".86" style="fill: #fff;" />
  <path d="M91.42,65.65h.86v.86h-.86v-.86ZM118.91,64.8h.86v.86h-.86v-.86ZM118.05,64.8h.86v.86h-.86v-.86Z"
    style="fill: #363a47;" />
  <rect x="92.28" y="65.65" width=".86" height=".86" style="fill: #fff;" />
  <path d="M93.14,66.51h.86v-.86h-.86v.86ZM94,66.51h.86v-.86h-.86v.86ZM94.86,66.51h.86v-.86h-.86v.86Z"
    style="fill: #363a47;" />
  <rect x="95.72" y="65.65" width=".86" height=".86" style="fill: #fff;" />
  <rect x="96.58" y="65.65" width=".86" height=".86" style="fill: #363a47;" />
  <rect x="97.44" y="65.65" width=".86" height=".86" style="fill: #fff;" />
  <path d="M98.3,66.51h.86v-.86h-.86v.86ZM99.15,66.51h.86v-.86h-.86v.86Z" style="fill: #363a47;" />
  <path d="M100.01,66.51h.86v-.86h-.86v.86ZM100.87,66.51h.86v-.86h-.86v.86Z" style="fill: #fff;" />
  <rect x="101.73" y="65.65" width=".86" height=".86" style="fill: #363a47;" />
  <rect x="102.59" y="65.65" width=".86" height=".86" style="fill: #fff;" />
  <rect x="103.45" y="65.65" width=".86" height=".86" style="fill: #363a47;" />
  <path d="M104.31,66.51h.86v-.86h-.86v.86ZM105.17,66.51h.86v-.86h-.86v.86ZM106.03,66.51h.86v-.86h-.86v.86Z"
    style="fill: #fff;" />
  <rect x="106.89" y="65.65" width=".86" height=".86" style="fill: #363a47;" />
  <rect x="107.74" y="65.65" width=".86" height=".86" style="fill: #fff;" />
  <path d="M108.6,66.51h.86v-.86h-.86v.86ZM109.46,66.51h.86v-.86h-.86v.86Z" style="fill: #363a47;" />
  <rect x="110.32" y="65.65" width=".86" height=".86" style="fill: #fff;" />
  <path d="M111.18,66.51h.86v-.86h-.86v.86ZM112.04,66.51h.86v-.86h-.86v.86ZM112.9,66.51h.86v-.86h-.86v.86Z"
    style="fill: #363a47;" />
  <path d="M113.76,66.51h.86v-.86h-.86v.86ZM114.62,66.51h.86v-.86h-.86v.86Z" style="fill: #fff;" />
  <rect x="115.47" y="65.65" width=".86" height=".86" style="fill: #363a47;" />
  <path d="M116.33,66.51h.86v-.86h-.86v.86ZM117.19,66.51h.86v-.86h-.86v.86ZM118.05,66.51h.86v-.86h-.86v.86Z"
    style="fill: #fff;" />
  <path d="M91.42,66.51h.86v.86h-.86v-.86ZM118.91,65.65h.86v.86h-.86v-.86Z" style="fill: #363a47;" />
  <rect x="92.28" y="66.51" width=".86" height=".86" style="fill: #fff;" />
  <path d="M93.14,67.37h.86v-.86h-.86v.86ZM94,67.37h.86v-.86h-.86v.86ZM94.86,67.37h.86v-.86h-.86v.86Z"
    style="fill: #363a47;" />
  <rect x="95.72" y="66.51" width=".86" height=".86" style="fill: #fff;" />
  <rect x="96.58" y="66.51" width=".86" height=".86" style="fill: #363a47;" />
  <rect x="97.44" y="66.51" width=".86" height=".86" style="fill: #fff;" />
  <path d="M98.3,67.37h.86v-.86h-.86v.86ZM99.15,67.37h.86v-.86h-.86v.86ZM100.01,67.37h.86v-.86h-.86v.86Z"
    style="fill: #363a47;" />
  <rect x="100.87" y="66.51" width=".86" height=".86" style="fill: #fff;" />
  <rect x="101.73" y="66.51" width=".86" height=".86" style="fill: #363a47;" />
  <rect x="102.59" y="66.51" width=".86" height=".86" style="fill: #fff;" />
  <path d="M103.45,67.37h.86v-.86h-.86v.86ZM104.31,67.37h.86v-.86h-.86v.86ZM105.17,67.37h.86v-.86h-.86v.86Z"
    style="fill: #363a47;" />
  <rect x="106.03" y="66.51" width=".86" height=".86" style="fill: #fff;" />
  <rect x="106.89" y="66.51" width=".86" height=".86" style="fill: #363a47;" />
  <rect x="107.74" y="66.51" width=".86" height=".86" style="fill: #fff;" />
  <path d="M108.6,67.37h.86v-.86h-.86v.86ZM109.46,67.37h.86v-.86h-.86v.86ZM110.32,67.37h.86v-.86h-.86v.86Z"
    style="fill: #363a47;" />
  <path d="M111.18,67.37h.86v-.86h-.86v.86ZM112.04,67.37h.86v-.86h-.86v.86Z" style="fill: #fff;" />
  <path d="M112.9,67.37h.86v-.86h-.86v.86ZM113.76,67.37h.86v-.86h-.86v.86Z" style="fill: #363a47;" />
  <path d="M114.62,67.37h.86v-.86h-.86v.86ZM115.47,67.37h.86v-.86h-.86v.86Z" style="fill: #fff;" />
  <rect x="116.33" y="66.51" width=".86" height=".86" style="fill: #363a47;" />
  <path d="M117.19,67.37h.86v-.86h-.86v.86ZM118.05,67.37h.86v-.86h-.86v.86ZM118.91,67.37h.86v-.86h-.86v.86Z"
    style="fill: #fff;" />
  <rect x="91.42" y="67.37" width=".86" height=".86" style="fill: #363a47;" />
  <path
    d="M92.28,68.23h.86v-.86h-.86v.86ZM93.14,68.23h.86v-.86h-.86v.86ZM94,68.23h.86v-.86h-.86v.86ZM94.86,68.23h.86v-.86h-.86v.86ZM95.72,68.23h.86v-.86h-.86v.86Z"
    style="fill: #fff;" />
  <rect x="96.58" y="67.37" width=".86" height=".86" style="fill: #363a47;" />
  <path d="M97.44,68.23h.86v-.86h-.86v.86ZM98.3,68.23h.86v-.86h-.86v.86Z" style="fill: #fff;" />
  <path d="M99.15,68.23h.86v-.86h-.86v.86ZM100.01,68.23h.86v-.86h-.86v.86Z" style="fill: #363a47;" />
  <path d="M100.87,68.23h.86v-.86h-.86v.86ZM101.73,68.23h.86v-.86h-.86v.86Z" style="fill: #fff;" />
  <path d="M102.59,68.23h.86v-.86h-.86v.86ZM103.45,68.23h.86v-.86h-.86v.86ZM104.31,68.23h.86v-.86h-.86v.86Z"
    style="fill: #363a47;" />
  <rect x="105.17" y="67.37" width=".86" height=".86" style="fill: #fff;" />
  <path d="M106.03,68.23h.86v-.86h-.86v.86ZM106.89,68.23h.86v-.86h-.86v.86Z" style="fill: #363a47;" />
  <rect x="107.74" y="67.37" width=".86" height=".86" style="fill: #fff;" />
  <rect x="108.6" y="67.37" width=".86" height=".86" style="fill: #363a47;" />
  <path
    d="M109.46,68.23h.86v-.86h-.86v.86ZM110.32,68.23h.86v-.86h-.86v.86ZM111.18,68.23h.86v-.86h-.86v.86ZM112.04,68.23h.86v-.86h-.86v.86ZM112.9,68.23h.86v-.86h-.86v.86ZM113.76,68.23h.86v-.86h-.86v.86Z"
    style="fill: #fff;" />
  <rect x="114.62" y="67.37" width=".86" height=".86" style="fill: #363a47;" />
  <rect x="115.47" y="67.37" width=".86" height=".86" style="fill: #fff;" />
  <path d="M116.33,68.23h.86v-.86h-.86v.86ZM117.19,68.23h.86v-.86h-.86v.86Z" style="fill: #363a47;" />
  <path d="M118.05,68.23h.86v-.86h-.86v.86ZM118.91,68.23h.86v-.86h-.86v.86Z" style="fill: #fff;" />
  <path
    d="M91.42,69.09h.86v-.86h-.86v.86ZM92.28,69.09h.86v-.86h-.86v.86ZM93.14,69.09h.86v-.86h-.86v.86ZM94,69.09h.86v-.86h-.86v.86ZM94.86,69.09h.86v-.86h-.86v.86ZM95.72,69.09h.86v-.86h-.86v.86ZM96.58,69.09h.86v-.86h-.86v.86Z"
    style="fill: #363a47;" />
  <path d="M97.44,69.09h.86v-.86h-.86v.86ZM98.3,69.09h.86v-.86h-.86v.86Z" style="fill: #fff;" />
  <rect x="99.15" y="68.23" width=".86" height=".86" style="fill: #363a47;" />
  <rect x="100.01" y="68.23" width=".86" height=".86" style="fill: #fff;" />
  <rect x="100.87" y="68.23" width=".86" height=".86" style="fill: #363a47;" />
  <path d="M101.73,69.09h.86v-.86h-.86v.86ZM102.59,69.09h.86v-.86h-.86v.86Z" style="fill: #fff;" />
  <rect x="103.45" y="68.23" width=".86" height=".86" style="fill: #363a47;" />
  <path d="M104.31,69.09h.86v-.86h-.86v.86ZM105.17,69.09h.86v-.86h-.86v.86Z" style="fill: #fff;" />
  <rect x="106.03" y="68.23" width=".86" height=".86" style="fill: #363a47;" />
  <rect x="106.89" y="68.23" width=".86" height=".86" style="fill: #fff;" />
  <polygon points="108.6 68.23 107.74 68.23 107.74 69.09 108.6 69.09 109.46 69.09 109.46 68.23 108.6 68.23"
    style="fill: #363a47;" />
  <path d="M109.46,69.09h.86v-.86h-.86v.86ZM110.32,69.09h.86v-.86h-.86v.86Z" style="fill: #fff;" />
  <path d="M111.18,69.09h.86v-.86h-.86v.86ZM112.04,69.09h.86v-.86h-.86v.86Z" style="fill: #363a47;" />
  <rect x="112.9" y="68.23" width=".86" height=".86" style="fill: #fff;" />
  <rect x="113.76" y="68.23" width=".86" height=".86" style="fill: #363a47;" />
  <path
    d="M114.62,69.09h.86v-.86h-.86v.86ZM115.47,69.09h.86v-.86h-.86v.86ZM116.33,69.09h.86v-.86h-.86v.86ZM117.19,69.09h.86v-.86h-.86v.86Z"
    style="fill: #fff;" />
  <rect x="118.05" y="68.23" width=".86" height=".86" style="fill: #363a47;" />
  <rect x="118.91" y="68.23" width=".86" height=".86" style="fill: #fff;" />
  <g>
    <path
      d="M66.75,70.55h-22.64c-.77,0-1.4-.63-1.4-1.4v-32.42c0-.77.63-1.4,1.4-1.4h22.64c.77,0,1.4.63,1.4,1.4v32.42c0,.77-.63,1.4-1.4,1.4M44.1,35.59c-.63,0-1.15.51-1.15,1.15v32.42c0,.63.51,1.15,1.15,1.15h22.64c.63,0,1.14-.52,1.14-1.15v-32.42c0-.63-.51-1.15-1.14-1.15h-22.64Z"
      style="fill: #fff;" />
    <path
      d="M60.67,37.67c.22,0,.4.08.56.23.16.15.23.34.23.56s-.08.4-.23.56c-.15.16-.34.23-.56.23s-.4-.08-.56-.23c-.15-.15-.23-.34-.23-.56s.08-.4.23-.56c.15-.16.34-.23.56-.23M60.67,39.12c.18,0,.34-.06.46-.19.13-.13.19-.28.2-.47,0-.18-.06-.34-.19-.46-.13-.13-.28-.19-.47-.19-.18,0-.34.06-.46.19-.13.13-.19.28-.19.47,0,.18.06.34.19.47.13.13.28.19.47.2M61.03,38.9h-.17c-.11-.19-.17-.3-.21-.33l-.12-.04h-.08v.36h-.14v-.85h.29l.2.02.11.08.04.13-.06.16-.18.08c.05.01.12.08.2.21l.1.17ZM60.46,38.42h.17l.16-.03.04-.09-.04-.09-.17-.03h-.16v.26Z"
      style="fill: #fff;" />
    <path
      d="M55.76,37.48c-3.3,0-4.46,5.13-5.55,9.26-.39-.4-1.6-1.6-1.6-1.6-.24-.24-.52-.16-.69,0-.17.17-.2.49,0,.68,0,0,1.63,1.63,2.2,2.19.16.15.38.24.6.11.23-.14.26-.4.27-.4,1.93-8.64,3.64-9.28,4.76-9.28.94,0,2.02.69,2.02,2.09,1.4,0,2.28,1.84,1.15,2.98.94.45,1.35,1.01,1.35,1.71s-.59,1.43-1.45,1.42c-.85,0-1.29-.55-1.95-.55-.3,0-.49.24-.49.48v1.74h-1.26v-1.74c0-.27-.2-.49-.45-.49h-.11l-1.68.21c-.2.03-.39.25-.39.48,0,.27.22.49.52.49h.08l1.07-.14v1.72c0,.22.25.43.47.43h2.24c.26,0,.49-.22.49-.49v-1.57c.47.29,1.12.4,1.45.4,1.25,0,2.45-.99,2.44-2.43,0-1.31-1.01-1.97-1.01-1.97.59-1.57-.36-3.08-1.59-3.5-.45-1.62-1.83-2.24-2.89-2.24"
      style="fill: #fff;" />
    <path
      d="M54.36,51.21c0,.41.45.65,1.2,1,.59.28.93.57.93.81,0,.38-.41.52-.79.52-.59,0-.94-.24-1.14-.77v-.05h-.06c-.11,0-.19,0-.24.06v.19s.12.54.12.54c.03.13.08.16.29.2.09.02.57.1.98.1,1.13,0,1.64-.46,1.64-.92,0-.33-.33-.65-1.04-1.01l-.32-.16c-.49-.23-.78-.37-.78-.61s.3-.4.74-.4c.57,0,.72.32.79.59v.05h.07c.13,0,.2-.01.25-.06l.03-.12-.04-.47c-.01-.15-.13-.17-.29-.2-.19-.04-.42-.08-.76-.08-.98,0-1.57.29-1.57.77"
      style="fill: #fff;" />
    <path
      d="M57.62,52.17c0,.82.71,1.65,2.07,1.65.69,0,1.07-.16,1.36-.31l.08-.04-.13-.14-.1-.05-.07.02c-.1.05-.42.19-.99.19-.7,0-1.46-.46-1.46-1.47s.82-1.31,1.53-1.31c.51,0,.77.18.82.56v.06h.06c.06,0,.22,0,.22-.12v-.56c0-.14-.16-.16-.22-.17h-.07c-.16-.02-.32-.04-.73-.04-1.37,0-2.38.72-2.38,1.72"
      style="fill: #fff;" />
    <path
      d="M52.49,50.48h-1.23s-.82,0-.82,0h-.12l-.12.13s0,.14.14.14c.49,0,.51.04.52.23v1.71c0,.18,0,.47-.02.7,0,.07,0,.13-.44.13-.12,0-.19.02-.19.15,0,.03,0,.13.12.13h1.85c.1,0,.18-.01.18-.13,0-.14-.11-.15-.29-.15-.44,0-.44-.06-.45-.13,0-.21-.02-.5-.02-.7v-.39h.37c.56,0,.63.01.71.45.02.09.1.11.16.11.13,0,.15-.07.15-.1v-.16c-.01-.09-.03-.21-.03-.37v-.67c0-.1-.12-.1-.18-.1-.11,0-.13.07-.2.38-.03.12-.26.19-.64.19h-.33v-.98c0-.27.05-.27.1-.27.22,0,.74-.03.89-.03.15,0,.28.03.37.09.28.17.42.29.51.36l.2.11s.16,0,.16-.1l-.05-.13c-.05-.1-.12-.27-.22-.52-.03-.08-.12-.08-.29-.08h-.77Z"
      style="fill: #fff;" />
    <path
      d="M54.94,59.33h-.26v-1.71l-.59,1.71h-.24l-.59-1.74h-.01v1.74h-.26v-2.05h.4l.48,1.45c.06.16.08.26.09.3.02-.08.06-.19.11-.33l.49-1.42h.36v2.05h0Z"
      style="fill: #fff;" />
    <rect x="55.53" y="57.28" width=".27" height="2.05" style="fill: #fff;" />
    <path
      d="M58.06,59.33h-.33l-.41-.58c-.1-.14-.16-.24-.19-.29,0,.02-.21.31-.62.87h-.33l.79-1.07-.7-.98h.32l.43.61.1.17c.04-.06.23-.32.57-.78h.3l-.72.96.78,1.08Z"
      style="fill: #fff;" />
    <path
      d="M50.5,67.95c-.08.07-.18.11-.29.11-.15,0-.28-.06-.37-.17s-.14-.31-.14-.58c0-.26.05-.44.14-.55.1-.11.22-.17.38-.17.11,0,.21.03.29.1.08.06.13.15.16.26l.42-.1c-.05-.17-.12-.3-.21-.4-.16-.16-.37-.23-.63-.23-.29,0-.53.1-.71.3-.18.2-.27.47-.27.83,0,.34.09.6.27.8.18.19.41.29.69.29.23,0,.41-.06.56-.17.15-.11.25-.29.32-.52l-.41-.13c-.03.16-.09.27-.17.34M47.52,68.24c.14.13.35.19.61.19.18,0,.33-.03.46-.08.12-.05.22-.13.28-.24.07-.11.1-.22.1-.34,0-.14-.03-.25-.08-.34-.06-.09-.13-.17-.23-.22-.1-.05-.25-.1-.46-.15-.21-.05-.34-.1-.39-.14-.04-.04-.06-.08-.06-.13,0-.05.02-.1.07-.13.07-.05.17-.08.29-.08s.21.02.27.07c.06.05.1.13.12.24l.42-.02c0-.2-.08-.35-.21-.47-.13-.12-.33-.18-.6-.18-.16,0-.3.03-.41.07-.11.05-.2.12-.26.22-.06.09-.09.2-.09.31,0,.17.07.31.19.43.09.08.25.15.48.21.18.05.29.08.34.09.07.03.12.06.15.09.03.04.04.08.04.13,0,.08-.03.15-.1.21-.07.06-.17.09-.31.09-.13,0-.23-.03-.31-.1-.08-.07-.13-.17-.15-.31l-.41.04c.03.24.11.42.26.55M46,68.39v-.91h.88v-.36h-.88v-.51h1.02v-.36h-1.44v2.14h.43Z"
      style="fill: #fff;" />
    <path
      d="M51.72,66.54h.06c.08,0,.13,0,.15.01l.05.03.02.05-.02.05-.05.03s-.07,0-.15,0h-.06v-.19ZM51.72,67.12v-.29h.04l.1.03s.06.07.09.14l.06.11h.17l-.08-.14s-.04-.08-.05-.08l-.05-.05-.05-.03c.06,0,.1-.03.14-.07.03-.04.05-.08.05-.13l-.03-.1-.06-.07s-.06-.02-.11-.03c-.02,0-.09,0-.22,0h-.14v.69h.14ZM52.13,66.32c.08.04.15.11.19.19.05.08.07.17.07.27s-.02.18-.07.26c-.04.08-.11.15-.19.19-.08.05-.17.07-.26.07s-.17-.02-.26-.07c-.08-.05-.14-.11-.19-.19-.04-.08-.07-.17-.07-.26s.02-.18.07-.27c.05-.08.11-.15.19-.19.08-.05.17-.07.25-.07s.17.02.25.07M51.56,66.21c-.1.05-.18.14-.24.24-.06.1-.09.21-.09.33s.03.22.08.32c.06.1.14.18.24.24.1.06.21.09.32.09s.22-.03.32-.09c.1-.06.18-.14.24-.24.06-.1.09-.21.09-.32s-.03-.22-.09-.33-.14-.19-.24-.24c-.1-.06-.21-.08-.32-.08s-.22.03-.32.08"
      style="fill: #fff;" />
    <path
      d="M54.67,67.95c-.08.07-.18.11-.29.11-.15,0-.28-.06-.37-.17s-.14-.31-.14-.58c0-.25.05-.44.15-.55s.22-.17.38-.17c.11,0,.21.03.29.1.08.06.13.15.15.26l.42-.1c-.05-.17-.12-.3-.22-.39-.16-.16-.37-.23-.63-.23-.29,0-.53.1-.71.3-.18.2-.27.47-.27.83,0,.34.09.6.27.8.18.19.41.29.69.29.22,0,.41-.06.56-.17.15-.11.25-.29.32-.52l-.41-.13c-.04.16-.09.27-.17.34"
      style="fill: #fff;" />
    <path
      d="M63.86,66.65v-.38h1.41v.3c-.12.11-.23.28-.35.49-.12.21-.21.44-.27.68-.06.24-.09.46-.09.64h-.4c0-.3.07-.6.18-.91.12-.31.27-.58.46-.83h-.94ZM63,67.6v-.73l-.49.73h.49ZM63,68.39v-.43h-.88v-.36l.93-1.36h.35v1.36h.27v.36h-.27v.43h-.4ZM61.92,68.01v.38h-1.44c.02-.14.06-.28.14-.41.08-.13.23-.3.46-.52.19-.17.3-.29.34-.35.06-.08.08-.17.08-.25,0-.09-.02-.16-.07-.21-.05-.05-.12-.07-.2-.07s-.15.03-.21.08c-.05.05-.08.14-.09.26l-.41-.04c.03-.23.1-.39.23-.49.13-.1.29-.15.48-.15.21,0,.38.06.5.17.12.11.18.26.18.43,0,.1-.02.19-.05.28-.03.09-.09.18-.16.27-.05.06-.14.16-.27.27-.13.12-.21.2-.25.24-.03.04-.06.08-.08.11h.82ZM59.91,68.39h-.41v-1.55c-.15.14-.33.25-.53.31v-.37c.11-.04.22-.1.35-.2.13-.1.21-.21.26-.34h.33v2.16ZM58.58,68.01v.38h-1.44c.02-.14.06-.28.14-.41.08-.13.23-.3.46-.52.19-.17.3-.29.34-.35.06-.08.08-.17.08-.25,0-.09-.02-.16-.07-.21-.05-.05-.12-.07-.2-.07s-.15.03-.21.08c-.05.05-.08.14-.09.26l-.41-.04c.02-.23.1-.39.23-.49.13-.1.29-.15.48-.15.21,0,.38.06.5.17.12.11.18.26.18.43,0,.1-.02.19-.05.28-.03.09-.09.18-.17.27-.05.06-.14.16-.27.27-.13.12-.21.2-.25.24-.04.04-.06.08-.08.11h.82ZM56.57,68.39h-.41v-1.55c-.15.14-.33.25-.53.31v-.37c.11-.04.22-.1.35-.2.13-.1.21-.21.26-.34h.33v2.16Z"
      style="fill: #fff;" />
    <path
      d="M52.78,63.38h.39c.07,0,.11,0,.14,0,.05,0,.09-.02.12-.04.03-.02.06-.05.08-.09.02-.04.03-.08.03-.13,0-.06-.01-.11-.04-.15-.03-.04-.07-.08-.12-.09-.05-.02-.13-.03-.23-.03h-.36v.54ZM52.78,62.65h.34c.09,0,.16,0,.2-.02.05-.02.09-.04.12-.08.03-.04.04-.08.04-.14,0-.05-.01-.1-.04-.14-.03-.04-.06-.07-.11-.08-.05-.02-.13-.02-.24-.02h-.32v.48ZM52.57,63.56v-1.57h.59c.12,0,.22.02.29.05.07.03.13.08.17.15.04.07.06.14.06.21,0,.07-.02.13-.05.19-.04.06-.09.11-.17.14.09.03.17.08.22.14.05.07.08.15.08.24,0,.07-.01.14-.05.2-.03.06-.07.11-.12.15-.04.03-.1.06-.17.08-.07.02-.15.03-.25.03h-.6Z"
      style="fill: #fff;" />
    <path
      d="M54.15,62.99c0,.15.03.26.1.33.06.07.14.11.24.11s.18-.04.24-.11c.06-.07.1-.18.1-.33s-.03-.25-.1-.32c-.06-.07-.14-.11-.24-.11s-.18.04-.24.11c-.06.07-.1.18-.1.33M53.95,62.99c0-.21.06-.37.18-.47.1-.08.22-.13.36-.13.16,0,.29.05.38.15.1.1.15.24.15.43,0,.15-.02.26-.07.35-.04.08-.11.15-.19.2-.08.05-.18.07-.28.07-.16,0-.29-.05-.39-.15-.1-.1-.15-.25-.15-.44"
      style="fill: #fff;" />
    <path
      d="M55.97,62.99c-.07.03-.18.05-.32.07-.08.01-.14.02-.17.04-.03.01-.06.04-.08.06-.02.03-.03.06-.03.09,0,.05.02.09.06.13.04.03.1.05.17.05s.14-.02.2-.05c.06-.03.1-.08.13-.13.02-.04.03-.11.03-.19v-.07ZM55.99,63.42c-.07.06-.14.1-.21.13s-.14.04-.21.04c-.12,0-.22-.03-.29-.09-.07-.06-.1-.14-.1-.23,0-.06.01-.11.04-.15.03-.05.06-.08.1-.11s.09-.05.14-.06c.04-.01.1-.02.17-.03.16-.02.27-.04.35-.07,0-.03,0-.04,0-.05,0-.08-.02-.13-.05-.17-.05-.04-.12-.07-.22-.07-.09,0-.16.02-.2.05-.04.03-.08.09-.1.17l-.19-.03c.02-.08.05-.15.08-.2.04-.05.1-.09.17-.11.08-.03.16-.04.26-.04s.18.01.24.03c.06.02.1.05.13.09.03.03.05.08.06.13,0,.03.01.09.01.18v.26c0,.18,0,.29.01.34,0,.05.03.09.05.14h-.2s-.03-.09-.04-.14"
      style="fill: #fff;" />
    <path
      d="M56.47,63.56v-1.14h.17v.17c.04-.08.08-.13.12-.16.04-.03.08-.04.12-.04.06,0,.13.02.2.06l-.07.18s-.1-.04-.14-.04c-.04,0-.08.01-.11.04-.03.03-.06.06-.07.11-.02.07-.03.14-.03.23v.6h-.19Z"
      style="fill: #fff;" />
    <path
      d="M57.33,63c0,.15.03.26.09.33.06.07.13.11.22.11s.16-.04.22-.1c.06-.07.09-.18.09-.32,0-.16-.03-.27-.09-.34-.06-.07-.13-.11-.22-.11s-.16.03-.22.11c-.06.07-.09.18-.09.33M57.94,63.56v-.14c-.07.11-.18.17-.32.17-.09,0-.18-.03-.25-.07-.08-.05-.14-.12-.18-.21-.04-.09-.06-.19-.06-.31s.02-.22.06-.31c.04-.09.09-.16.17-.21.08-.05.16-.08.25-.08.07,0,.13.02.18.04.05.03.1.07.13.11v-.56h.19v1.57h-.18Z"
      style="fill: #fff;" />
  </g>
  <g>
    <g>
      <g>
        <path
          d="M42.4,304.04h.65c.08,0,.12.04.12.12v8.16c0,.08-.04.12-.12.12h-.61c-.08,0-.12-.04-.12-.12v-7.31s0-.03-.02-.04c-.01,0-.03,0-.04,0l-1.27.52h-.05s-.08-.02-.1-.08l-.06-.46v-.02s.03-.08.08-.12l1.38-.73s.1-.04.16-.04Z"
          style="fill: #00a6ce;" />
        <path
          d="M49.86,309.85c0,.39-.04.73-.11,1.01-.14.51-.41.92-.82,1.22-.41.3-.9.45-1.48.45s-1.05-.14-1.45-.43-.67-.67-.82-1.15c-.06-.18-.09-.35-.11-.53v-.02c0-.06.04-.1.11-.1h.64c.08,0,.12.04.13.12,0,.05.02.13.05.24.08.34.25.62.5.82s.57.31.94.31.71-.11.97-.32c.26-.22.43-.51.51-.89.05-.18.07-.42.07-.72,0-.27-.02-.53-.06-.78-.06-.37-.22-.65-.48-.84s-.59-.29-.98-.29c-.35,0-.67.08-.95.24-.28.16-.46.37-.54.64-.02.07-.07.11-.13.11h-.65c-.08,0-.12-.04-.12-.12v-4.64c0-.08.04-.12.12-.12h4.2c.08,0,.12.04.12.12v.5c0,.08-.04.12-.12.12h-3.42s-.05.02-.05.05v2.9s0,.03,0,.04c.01,0,.03,0,.04-.01.2-.18.44-.33.71-.43.27-.1.56-.15.86-.15.57,0,1.05.14,1.44.41.39.28.64.67.76,1.17.07.35.11.71.11,1.08Z"
          style="fill: #00a6ce;" />
        <path
          d="M61.38,306.83c.35.36.52.85.52,1.48v4.02c0,.08-.04.12-.12.12h-.6c-.08,0-.12-.04-.12-.12v-3.85c0-.44-.13-.79-.38-1.05-.25-.26-.58-.39-.99-.39s-.77.13-1.03.38c-.26.26-.39.6-.39,1.03v3.88c0,.08-.04.12-.12.12h-.61c-.08,0-.12-.04-.12-.12v-3.85c0-.44-.12-.79-.37-1.05-.25-.26-.58-.39-1-.39s-.76.13-1.01.38c-.25.26-.38.6-.38,1.03v3.88c0,.08-.04.12-.12.12h-.61c-.08,0-.12-.04-.12-.12v-5.83c0-.08.04-.12.12-.12h.61c.08,0,.12.04.12.12v.48s0,.03.02.03c.01,0,.03,0,.04-.02.18-.23.4-.41.68-.52.28-.12.58-.17.92-.17.42,0,.77.08,1.07.25.3.17.52.41.67.73.02.04.04.04.06,0,.18-.33.42-.57.74-.74.32-.16.68-.25,1.09-.25.6,0,1.07.18,1.42.54Z"
          style="fill: #00a6ce;" />
        <path
          d="M71.31,306.83c.35.36.52.85.52,1.48v4.02c0,.08-.04.12-.12.12h-.6c-.08,0-.12-.04-.12-.12v-3.85c0-.44-.13-.79-.38-1.05-.25-.26-.58-.39-.99-.39s-.77.13-1.03.38c-.26.26-.39.6-.39,1.03v3.88c0,.08-.04.12-.12.12h-.61c-.08,0-.12-.04-.12-.12v-3.85c0-.44-.12-.79-.37-1.05-.25-.26-.58-.39-1-.39s-.76.13-1.01.38c-.25.26-.38.6-.38,1.03v3.88c0,.08-.04.12-.12.12h-.61c-.08,0-.12-.04-.12-.12v-5.83c0-.08.04-.12.12-.12h.61c.08,0,.12.04.12.12v.48s0,.03.02.03c.01,0,.03,0,.04-.02.18-.23.4-.41.68-.52.28-.12.58-.17.92-.17.42,0,.77.08,1.07.25.3.17.52.41.67.73.02.04.04.04.06,0,.18-.33.42-.57.74-.74.32-.16.68-.25,1.09-.25.6,0,1.07.18,1.42.54Z"
          style="fill: #00a6ce;" />
      </g>
      <line x1="34.29" y1="296.44" x2="35.89" y2="296.44" style="fill: none; stroke: #00a6ce; stroke-width: .43px;" />
      <line x1="38.84" y1="296.44" x2="72.77" y2="296.44"
        style="fill: none; stroke: #00a6ce; stroke-dasharray: 2.95 2.95; stroke-width: .43px;" />
      <line x1="74.24" y1="296.44" x2="75.84" y2="296.44" style="fill: none; stroke: #00a6ce; stroke-width: .43px;" />
      <polygon points="35.14 297.16 34.42 296.44 35.14 295.72 34.53 295.72 33.81 296.44 34.53 297.16 35.14 297.16"
        style="fill: #00a6ce;" />
      <polygon points="75 297.16 75.72 296.44 75 295.72 75.61 295.72 76.33 296.44 75.61 297.16 75 297.16"
        style="fill: #00a6ce;" />
    </g>
    <g>
      <g>
        <path
          d="M.11,155.99v-.65c0-.08.04-.12.12-.12h8.16c.08,0,.12.04.12.12v.61c0,.08-.04.12-.12.12H1.08s-.03,0-.04.02,0,.03,0,.04l.52,1.27v.05s-.02.08-.08.1l-.46.06h-.02s-.08-.03-.12-.08l-.73-1.38s-.04-.1-.04-.16Z"
          style="fill: #00a6ce;" />
        <path
          d="M7.97,152.57c-.44.46-1.03.68-1.76.68h-3.79c-.74,0-1.32-.23-1.76-.68-.44-.46-.65-1.07-.65-1.84s.22-1.4.66-1.86c.44-.46,1.02-.7,1.75-.7h3.79c.74,0,1.32.23,1.76.7.44.46.66,1.08.66,1.86s-.22,1.38-.66,1.84ZM7.44,149.5c-.3-.31-.69-.47-1.19-.47h-3.88c-.49,0-.88.15-1.18.46-.3.31-.44.72-.44,1.24s.15.91.44,1.21c.3.3.69.46,1.18.46h3.88c.5,0,.89-.15,1.19-.46.3-.3.44-.71.44-1.21s-.15-.92-.44-1.24Z"
          style="fill: #00a6ce;" />
        <path
          d="M7.97,145.79c-.44.46-1.03.68-1.76.68h-3.79c-.74,0-1.32-.23-1.76-.68-.44-.46-.65-1.07-.65-1.84s.22-1.4.66-1.86c.44-.46,1.02-.7,1.75-.7h3.79c.74,0,1.32.23,1.76.7.44.46.66,1.08.66,1.86s-.22,1.38-.66,1.84ZM7.44,142.72c-.3-.31-.69-.47-1.19-.47h-3.88c-.49,0-.88.15-1.18.46-.3.31-.44.72-.44,1.24s.15.91.44,1.21c.3.3.69.46,1.18.46h3.88c.5,0,.89-.15,1.19-.46.3-.3.44-.71.44-1.21s-.15-.92-.44-1.24Z"
          style="fill: #00a6ce;" />
        <path
          d="M2.89,129.62c.36-.35.85-.52,1.48-.52h4.02c.08,0,.12.04.12.12v.6c0,.08-.04.12-.12.12h-3.85c-.44,0-.79.13-1.05.38-.26.25-.39.58-.39.99s.13.77.38,1.03c.26.26.6.39,1.03.39h3.88c.08,0,.12.04.12.12v.61c0,.08-.04.12-.12.12h-3.85c-.44,0-.79.12-1.05.37-.26.25-.39.58-.39,1s.13.76.38,1.01c.26.25.6.38,1.03.38h3.88c.08,0,.12.04.12.12v.61c0,.08-.04.12-.12.12H2.56c-.08,0-.12-.04-.12-.12v-.61c0-.08.04-.12.12-.12h.48s.03,0,.03-.02c0-.01,0-.03-.02-.04-.23-.18-.41-.4-.52-.68-.12-.28-.17-.58-.17-.92,0-.42.08-.77.25-1.07.17-.3.41-.52.73-.67.04-.02.04-.04,0-.06-.33-.18-.57-.42-.74-.74-.16-.32-.25-.68-.25-1.09,0-.6.18-1.07.54-1.42Z"
          style="fill: #00a6ce;" />
        <path
          d="M2.89,119.7c.36-.35.85-.52,1.48-.52h4.02c.08,0,.12.04.12.12v.6c0,.08-.04.12-.12.12h-3.85c-.44,0-.79.13-1.05.38-.26.25-.39.58-.39.99s.13.77.38,1.03c.26.26.6.39,1.03.39h3.88c.08,0,.12.04.12.12v.61c0,.08-.04.12-.12.12h-3.85c-.44,0-.79.12-1.05.37-.26.25-.39.58-.39,1s.13.76.38,1.01c.26.25.6.38,1.03.38h3.88c.08,0,.12.04.12.12v.61c0,.08-.04.12-.12.12H2.56c-.08,0-.12-.04-.12-.12v-.61c0-.08.04-.12.12-.12h.48s.03,0,.03-.02c0-.01,0-.03-.02-.04-.23-.18-.41-.4-.52-.68-.12-.28-.17-.58-.17-.92,0-.42.08-.77.25-1.07.17-.3.41-.52.73-.67.04-.02.04-.04,0-.06-.33-.18-.57-.42-.74-.74-.16-.32-.25-.68-.25-1.09,0-.6.18-1.07.54-1.42Z"
          style="fill: #00a6ce;" />
      </g>
      <line x1="17.51" y1=".63" x2="17.51" y2="2.23" style="fill: none; stroke: #00a6ce; stroke-width: .43px;" />
      <line x1="17.51" y1="5.44" x2="17.51" y2="279.92"
        style="fill: none; stroke: #00a6ce; stroke-dasharray: 3.21 3.21; stroke-width: .43px;" />
      <line x1="17.51" y1="281.52" x2="17.51" y2="283.12" style="fill: none; stroke: #00a6ce; stroke-width: .43px;" />
      <polygon points="16.79 1.48 17.51 .76 18.23 1.48 18.23 .86 17.51 .14 16.79 .86 16.79 1.48"
        style="fill: #00a6ce;" />
      <polygon points="16.79 282.28 17.51 283 18.23 282.28 18.23 282.89 17.51 283.61 16.79 282.89 16.79 282.28"
        style="fill: #00a6ce;" />
    </g>
  </g>
</svg>