<?xml version="1.0" encoding="UTF-8"?>
<svg id="Layer_1" data-name="Layer 1" data-size="32mm x 34mm" xmlns="http://www.w3.org/2000/svg"
  viewBox="0 0 156.44 176.08">
  <text id="quantity" style="font-family: Arial-BoldMT, Arial; font-size: 15px; font-weight: 700; isolation: isolate;"
    y="97%" x="56%" text-anchor="middle"></text>

  <g>
    <line x1="49.49" y1="127.34" x2="137.5" y2="127.34"
      style="fill: none; stroke: #715091; stroke-dasharray: 2.19 2.19;" />
    <rect x="48.99" y="124.09" width="1" height="6.5" style="fill: #715091;" />
    <rect x="137" y="124.09" width="1" height="6.5" style="fill: #715091;" />
    <text transform="translate(71.39 146.05)"
      style="fill: #715091; font-family: Barlow-Regular, Barlow; font-size: 14.33px;">
      <tspan x="0" y="0">32mm</tspan>
    </text>
    <line x1="21.7" y1="6.03" x2="21.7" y2="54.6" style="fill: none; stroke: #715091; stroke-dasharray: 2.19 2.19;" />
    <rect x="18.45" y="5.53" width="6.5" height="1" style="fill: #715091;" />
    <rect x="18.45" y="54.1" width="6.5" height="1" style="fill: #715091;" />
    <text transform="translate(12.18 52.86) rotate(-90)"
      style="fill: #715091; font-family: Barlow-Regular, Barlow; font-size: 14.33px;">
      <tspan x="0" y="0">17 mm</tspan>
    </text>
    <line x1="21.7" y1="57.71" x2="21.7" y2="106.89"
      style="fill: none; stroke: #715091; stroke-dasharray: 2.19 2.19;" />
    <rect x="18.45" y="57.21" width="6.5" height="1" style="fill: #715091;" />
    <rect x="18.45" y="106.39" width="6.5" height="1" style="fill: #715091;" />
    <text transform="translate(12.18 102.45) rotate(-90)"
      style="fill: #715091; font-family: Barlow-Regular, Barlow; font-size: 14.33px;">
      <tspan x="0" y="0">17 mm</tspan>
    </text>
    <polyline points="48.31 56.55 48.31 .25 139.02 .25 139.02 56.55" style="fill: #231f20;" />
    <polyline points="48.31 56.55 48.31 .25 139.02 .25 139.02 56.55"
      style="fill: none; stroke: #808285; stroke-width: .5px;" />
    <polyline points="139.02 56.55 139.02 113.88 48.31 113.88 48.31 56.55" style="fill: #231f20;" />
    <polyline points="139.02 56.55 139.02 113.88 48.31 113.88 48.31 56.55"
      style="fill: none; stroke: #808285; stroke-width: .5px;" />
    <line x1="29.94" y1="8.03" x2="156.44" y2="8.03" style="fill: none; stroke: #38d430; stroke-dasharray: 4 2;" />
    <line x1="29.94" y1="104.51" x2="156.44" y2="104.51" style="fill: none; stroke: #38d430; stroke-dasharray: 4 2;" />
    <line x1="29.94" y1="56.4" x2="156.44" y2="56.4"
      style="fill: none; stroke: #e50695; stroke-dasharray: 2.19 2.19; stroke-width: .73px;" />
    <path
      d="M124.4,45.19h.56v1.55h.29v-1.55h.56v-.24h-1.41v.24ZM127.69,44.95l-.52,1.36-.53-1.36h-.45v1.79h.29v-1.49h.01l.59,1.49h.19l.59-1.49h0v1.49h.29v-1.79h-.45Z"
      style="fill: #fff;" />
    <path
      d="M116.27,33.4c-.69.51-1.69,1.68-1.69,3.28s.97,2.85.97,2.85c.5.62,1.76,1.91,1.76,1.91.03.03.04.07.04.12,0,.1-.08.18-.17.18h-7.04c-.85,0-.91-.35-.91-.39,0-.09.11-.14.11-.14.32-.15.97-.66.97-.66,1.39-1.08,1.56-2.57,1.56-3.36s-.12-2.21-1.54-3.44c-1.43-1.24-3.23-1.27-3.23-1.27h-10.04v14.36h5.67v-4.11l3.02,3.03c1.04,1.04,2.75,1.08,2.75,1.08h11.01c1.88,0,2.92-1.02,3.2-1.31.29-.28,1.24-1.35,1.24-3.12s-.81-2.68-1.15-3.09c-.31-.37-1.54-1.67-1.79-1.94-.03-.02-.05-.06-.05-.11,0-.06.03-.12.09-.14h7.1v-4.66h-9.13c-.86,0-2.05.44-2.74.95M106.01,38.33h-3.22s0-1.82,0-1.82h2.96c.33,0,1.01.17,1.01.94s-.75.88-.75.88M83.47,32.45s-4.34,14.33-4.34,14.36h5.32s.65-2.08.65-2.08h4.88s.66,2.08.66,2.08h5.24s-4.45-14.36-4.45-14.36h-7.96ZM86.36,40.83l1.23-3.99,1.23,3.99h-2.46ZM75.6,32.45s-1.17,3.9-1.17,3.91l-1.22-3.91s-5.95,0-5.95,0l-1.09,3.91-1.17-3.91h-5.83l4.44,14.36h4.81l1.71-5.52,1.66,5.52h4.86s4.37-14.34,4.37-14.36h-5.45ZM121.21,26.3c-.86,0-.92-.34-.92-.39,0-.09.11-.14.11-.14.32-.15.97-.67.97-.67,1.39-1.08,1.56-2.56,1.56-3.36s-.12-2.21-1.55-3.44c-1.42-1.23-3.23-1.27-3.23-1.27h-10.04v14.36s5.68,0,5.68,0v-4.11l3.02,3.03c1.03,1.04,2.74,1.08,2.74,1.08h8.59v-5.08h-6.93ZM117.07,22.91h-3.22s0-1.82,0-1.82h2.96c.33,0,1.01.17,1.01.94s-.75.88-.75.88M101.97,31.39h5.24s-4.45-14.36-4.45-14.36h-7.96s-4.34,14.34-4.34,14.36h5.32s.65-2.08.65-2.08h4.89l.66,2.08ZM97.69,25.4l1.23-3.99,1.23,3.99h-2.46ZM76.21,30.08c.28-.28,1.24-1.35,1.24-3.12s-.81-2.68-1.15-3.1c-.31-.37-1.53-1.66-1.79-1.93-.03-.02-.05-.06-.05-.1,0-.06.04-.12.09-.14h6.64v9.7h5.11v-9.68h6.2v-4.68h-19.98c-.85,0-2.06.44-2.74.95-.69.51-1.69,1.67-1.69,3.28s.97,2.85.97,2.85c.5.62,1.76,1.92,1.76,1.92.03.03.05.07.05.12,0,.1-.08.18-.17.18h-11.48v5.07h13.79c1.88,0,2.92-1.02,3.21-1.31"
      style="fill: #fff;" />
    <path
      d="M56.44,81.35c0-1.83,1.46-3.29,3.3-3.29s3.3,1.46,3.3,3.29-1.46,3.29-3.3,3.29-3.3-1.46-3.3-3.29M56.98,81.35c0,1.55,1.26,2.76,2.77,2.76s2.76-1.21,2.76-2.76-1.26-2.76-2.76-2.76-2.77,1.2-2.77,2.76M60.91,80.68c-.1-.46-.49-.71-1.05-.71-.9,0-1.28.69-1.28,1.35,0,.78.46,1.37,1.3,1.37.55,0,.91-.26,1.03-.74h.51c-.1.8-.78,1.28-1.54,1.28-1.11,0-1.84-.85-1.84-1.89s.69-1.9,1.83-1.9c.78,0,1.4.47,1.55,1.25h-.51Z"
      style="fill: #fff;" />
    <path
      d="M69.79,83.66c-.48.56-1.15.99-1.89.99-1.06,0-1.93-.77-1.93-1.86,0-.8.5-1.24,1.1-1.68l.39-.29c-.36-.38-.7-.85-.7-1.38,0-.87.63-1.38,1.46-1.38.77,0,1.46.49,1.46,1.32,0,.71-.62,1.19-1.15,1.58l1.32,1.59.74-.85.5.52-.77.9,1.13,1.4h-.97l-.69-.85ZM67.85,81.45c-.44.3-1.15.73-1.15,1.33s.57,1.17,1.17,1.17,1.06-.44,1.45-.84l-1.4-1.71-.08.05ZM68.19,80.34c.32-.25.75-.51.75-.97s-.32-.69-.74-.69c-.38,0-.7.27-.7.67,0,.32.19.55.38.79l.21.27.1-.07Z"
      style="fill: #fff;" />
    <path
      d="M76.87,78.73h-1.16v2.99h-.54v-2.99h-1.16v-.54h2.85v.54ZM81.33,81.72h-.54v-2.99h-.02l-1.21,2.99h-.33l-1.17-2.99h-.02v2.99h-.54v-3.53h.88l1.01,2.49,1.05-2.49h.87v3.53Z"
      style="fill: #fff;" />
    <polygon points="85.43 83.79 87.35 83.79 87.35 84.51 84.64 84.51 84.64 78.2 85.43 78.2 85.43 83.79"
      style="fill: #fff;" />
    <path
      d="M88.51,80.59v2.17c0,.63.16,1.18.9,1.18s.91-.55.91-1.18v-2.17h.75v2.25c0,1.07-.5,1.8-1.66,1.8s-1.66-.73-1.66-1.8v-2.25h.75Z"
      style="fill: #fff;" />
    <path
      d="M94.96,81.71c-.3-.34-.67-.53-1.12-.53-.74,0-1.31.65-1.31,1.37,0,.8.56,1.39,1.36,1.39.43,0,.79-.2,1.07-.52v.96c-.34.18-.69.26-1.08.26-1.16,0-2.1-.89-2.1-2.06s.94-2.11,2.15-2.11c.35,0,.74.08,1.04.26v.97Z"
      style="fill: #fff;" />
    <path
      d="M99.45,84.51h-.75v-.61h-.02c-.3.44-.77.75-1.33.75-1.2,0-1.88-1-1.88-2.12s.71-2.05,1.85-2.05c.58,0,1.05.3,1.36.77h.02v-.65h.75v3.92ZM98.74,82.55c0-.76-.46-1.41-1.27-1.41s-1.24.68-1.24,1.41.45,1.42,1.24,1.42,1.27-.65,1.27-1.42"
      style="fill: #fff;" />
    <path
      d="M102.01,81.49c-.09-.19-.29-.34-.5-.34s-.41.17-.41.38c0,.34.45.49.91.7.46.21.9.49.9,1.11,0,.75-.62,1.3-1.35,1.3-.57,0-1.15-.33-1.36-.88l.65-.29c.16.29.35.5.71.5.32,0,.59-.22.59-.55,0-.21-.1-.31-.28-.43l-.74-.39c-.44-.23-.75-.45-.75-.99,0-.64.52-1.14,1.16-1.14.48,0,.86.26,1.07.69l-.61.33Z"
      style="fill: #fff;" />
    <path
      d="M105.6,78c-.15-.07-.34-.16-.5-.16-.54,0-.54.68-.54,1.06v1.68h1.04v.7h-1.04v3.22h-.76v-3.22h-.34v-.7h.34v-1.91c0-.85.29-1.54,1.27-1.54.18,0,.36.03.53.1v.76Z"
      style="fill: #fff;" />
    <path
      d="M107.02,78.8c0,.29-.23.51-.52.51s-.52-.23-.52-.51.23-.53.52-.53.52.24.52.53M106.88,84.51h-.75v-3.92h.75v3.92Z"
      style="fill: #fff;" />
    <rect x="108.12" y="77.24" width=".75" height="7.27" style="fill: #fff;" />
    <path
      d="M110.68,81.09h.02c.22-.34.61-.61,1.04-.61.51,0,.88.26,1.13.7.24-.42.71-.7,1.21-.7,1.03,0,1.3.81,1.3,1.69v2.35h-.75v-2.22c0-.5-.07-1.15-.73-1.15-.8,0-.86.84-.86,1.44v1.93h-.75v-2.08c0-.51-.03-1.29-.72-1.29-.8,0-.87.83-.87,1.44v1.93h-.75v-3.92h.75v.49Z"
      style="fill: #fff;" />
    <polygon points="119.67 83.79 121.59 83.79 121.59 84.51 118.88 84.51 118.88 78.2 119.67 78.2 119.67 83.79"
      style="fill: #fff;" />
    <polygon
      points="122.89 84.51 122.13 84.51 122.13 81.3 121.72 81.3 121.72 80.59 122.13 80.59 122.13 79.09 122.89 79.09 122.89 80.59 123.63 80.59 123.63 81.3 122.89 81.3 122.89 84.51"
      style="fill: #fff;" />
    <path
      d="M126.96,83.9h-.02c-.3.44-.78.75-1.33.75-1.21,0-1.88-1-1.88-2.12s.71-2.05,1.84-2.05c.59,0,1.06.3,1.36.77h.02v-4.01h.75v7.27h-.75v-.61ZM127,82.55c0-.76-.46-1.41-1.27-1.41s-1.24.68-1.24,1.41.44,1.42,1.24,1.42,1.27-.65,1.27-1.42"
      style="fill: #fff;" />
    <path d="M129.88,84.16c0,.27-.22.49-.49.49s-.48-.22-.48-.49.22-.49.48-.49.49.23.49.49" style="fill: #fff;" />
  </g>
</svg>